<svg width="22" height="22" viewBox="0 0 22 22" fill="none" xmlns="http://www.w3.org/2000/svg">
<path d="M11.875 1.66675C11.875 1.1835 11.4833 0.791748 11 0.791748C10.5168 0.791748 10.125 1.1835 10.125 1.66675V10.1251H1.66667C1.18342 10.1251 0.791672 10.5168 0.791672 11.0001C0.791672 11.4833 1.18342 11.8751 1.66667 11.8751H10.125V20.3334C10.125 20.8167 10.5168 21.2084 11 21.2084C11.4833 21.2084 11.875 20.8167 11.875 20.3334V11.8751H20.3333C20.8166 11.8751 21.2083 11.4833 21.2083 11.0001C21.2083 10.5168 20.8166 10.1251 20.3333 10.1251H11.875V1.66675Z" fill="#067647"/>
</svg>
