<svg width="25" height="24" viewBox="0 0 25 24" fill="none" xmlns="http://www.w3.org/2000/svg">
<path fill-rule="evenodd" clip-rule="evenodd" d="M10.7529 0C9.45288 0 8.4579 0.35627 7.89322 1.28574C7.40447 2.09022 7.36418 3.16762 7.36418 4.18604C7.36418 5.20447 7.40447 6.28187 7.89322 7.08635C8.4579 8.01582 9.45288 8.37209 10.7529 8.37209H11.8293V11.1628L9.25962 11.1628C8.25667 11.1628 7.42033 11.1627 6.75639 11.252C6.0556 11.3462 5.42289 11.5535 4.91446 12.0619C4.40603 12.5703 4.19877 13.203 4.10455 13.9038C4.03938 14.3885 4.0218 14.9651 4.01707 15.6313C3.5995 15.6373 3.22633 15.6533 2.90371 15.6967C2.3549 15.7705 1.82884 15.9368 1.40215 16.3635C0.975455 16.7902 0.809063 17.3163 0.735279 17.8651C0.666432 18.3772 0.666466 19.0166 0.666506 19.7588V19.8691C0.666466 20.6112 0.666432 21.2507 0.735279 21.7628C0.809063 22.3116 0.975455 22.8377 1.40215 23.2644C1.82884 23.691 2.3549 23.8574 2.90371 23.9312C3.41579 24.0001 4.05524 24 4.7974 24H4.90766C5.64982 24 6.28932 24.0001 6.8014 23.9312C7.35021 23.8574 7.87627 23.691 8.30296 23.2644C8.72965 22.8377 8.89605 22.3116 8.96983 21.7628C9.03868 21.2507 9.03864 20.6112 9.0386 19.8691V19.7588C9.03864 19.0167 9.03868 18.3772 8.96983 17.8651C8.89605 17.3163 8.72965 16.7902 8.30296 16.3635C7.87627 15.9368 7.35021 15.7705 6.8014 15.6967C6.47974 15.6534 6.10782 15.6374 5.69176 15.6314C5.69645 14.994 5.71209 14.5133 5.76403 14.1269C5.83329 13.6118 5.95298 13.3914 6.09845 13.2459C6.24392 13.1004 6.46438 12.9807 6.9795 12.9115C7.5187 12.839 8.24156 12.8372 9.31767 12.8372H16.0153C17.0914 12.8372 17.8143 12.839 18.3535 12.9115C18.8686 12.9807 19.0891 13.1004 19.2346 13.2459C19.38 13.3914 19.4997 13.6118 19.569 14.1269C19.6209 14.5133 19.6366 14.994 19.6412 15.6314C19.2252 15.6374 18.8533 15.6534 18.5316 15.6967C17.9828 15.7705 17.4567 15.9368 17.03 16.3635C16.6034 16.7902 16.437 17.3163 16.3632 17.8651C16.2943 18.3772 16.2944 19.0167 16.2944 19.7588V19.8691C16.2944 20.6112 16.2943 21.2507 16.3632 21.7628C16.437 22.3116 16.6034 22.8377 17.03 23.2644C17.4567 23.691 17.9828 23.8574 18.5316 23.9312C19.0437 24.0001 19.6831 24 20.4253 24H20.5356C21.2777 24 21.9172 24.0001 22.4293 23.9312C22.9781 23.8574 23.5042 23.691 23.9309 23.2644C24.3576 22.8377 24.5239 22.3116 24.5977 21.7628C24.6666 21.2507 24.6665 20.6113 24.6665 19.8691V19.7588C24.6665 19.0167 24.6666 18.3772 24.5977 17.8651C24.5239 17.3163 24.3576 16.7902 23.9309 16.3635C23.5042 15.9368 22.9781 15.7705 22.4293 15.6967C22.1067 15.6533 21.7335 15.6373 21.3159 15.6313C21.3112 14.9651 21.2936 14.3885 21.2285 13.9038C21.1342 13.203 20.927 12.5703 20.4185 12.0619C19.9101 11.5535 19.2774 11.3462 18.5766 11.252C17.9127 11.1627 17.0763 11.1628 16.0734 11.1628L13.5037 11.1628V8.37209H14.5801C15.8801 8.37209 16.8751 8.01582 17.4398 7.08635C17.9285 6.28187 17.9688 5.20447 17.9688 4.18604C17.9688 3.16762 17.9285 2.09022 17.4398 1.28574C16.8751 0.356271 15.8801 0 14.5801 0H10.7529ZM14.5801 6.69767C15.5959 6.69767 15.8766 6.43445 16.0088 6.21696C16.2168 5.87448 16.2944 5.27747 16.2944 4.18604C16.2944 3.09462 16.2168 2.49761 16.0088 2.15513C15.8766 1.93764 15.5959 1.67442 14.5801 1.67442H10.7529C9.73714 1.67442 9.45637 1.93764 9.32424 2.15513C9.11618 2.49761 9.0386 3.09462 9.0386 4.18604C9.0386 5.27747 9.11618 5.87448 9.32424 6.21696C9.45637 6.43445 9.73714 6.69767 10.7529 6.69767H14.5801ZM2.58614 17.5475C2.64987 17.4838 2.76369 17.405 3.12682 17.3562C3.51403 17.3041 4.03956 17.3023 4.85255 17.3023C5.66555 17.3023 6.19108 17.3041 6.57829 17.3562C6.94142 17.405 7.05524 17.4838 7.11897 17.5475C7.1827 17.6113 7.26152 17.7251 7.31034 18.0882C7.3624 18.4754 7.36418 19.001 7.36418 19.8139C7.36418 20.6269 7.3624 21.1525 7.31034 21.5397C7.26152 21.9028 7.1827 22.0166 7.11897 22.0804C7.05524 22.1441 6.94142 22.2229 6.57829 22.2717C6.19108 22.3238 5.66555 22.3256 4.85255 22.3256C4.03956 22.3256 3.51403 22.3238 3.12682 22.2717C2.76369 22.2229 2.64987 22.1441 2.58614 22.0804C2.52241 22.0166 2.44359 21.9028 2.39477 21.5397C2.34271 21.1525 2.34093 20.6269 2.34093 19.8139C2.34093 19.001 2.34271 18.4754 2.39477 18.0882C2.44359 17.7251 2.52241 17.6113 2.58614 17.5475ZM18.7547 17.3562C18.3916 17.405 18.2778 17.4838 18.214 17.5475C18.1503 17.6113 18.0715 17.7251 18.0227 18.0882C17.9706 18.4754 17.9688 19.001 17.9688 19.8139C17.9688 20.6269 17.9706 21.1525 18.0227 21.5397C18.0715 21.9028 18.1503 22.0166 18.214 22.0804C18.2778 22.1441 18.3916 22.2229 18.7547 22.2717C19.1419 22.3238 19.6675 22.3256 20.4805 22.3256C21.2935 22.3256 21.819 22.3238 22.2062 22.2717C22.5693 22.2229 22.6831 22.1441 22.7469 22.0804C22.8106 22.0166 22.8894 21.9028 22.9382 21.5397C22.9903 21.1525 22.9921 20.6269 22.9921 19.8139C22.9921 19.001 22.9903 18.4754 22.9382 18.0882C22.8894 17.7251 22.8106 17.6113 22.7469 17.5475C22.6831 17.4838 22.5693 17.405 22.2062 17.3562C21.819 17.3041 21.2935 17.3023 20.4805 17.3023C19.6675 17.3023 19.1419 17.3041 18.7547 17.3562Z" fill="#067647"/>
</svg>
