<svg width="25" height="24" viewBox="0 0 25 24" fill="none" xmlns="http://www.w3.org/2000/svg">
<path fill-rule="evenodd" clip-rule="evenodd" d="M12.1691 1.75C11.5135 1.74997 10.9493 1.74994 10.4862 1.81162C9.9848 1.87841 9.52843 2.02501 9.12243 2.36641C8.72628 2.69952 8.4824 3.13087 8.28515 3.62555C8.11269 4.05806 7.95337 4.60022 7.76733 5.25H4.98117C3.53215 5.25 2.67205 6.32293 2.31495 7.40879C1.9607 8.486 2.00104 9.81185 2.51654 10.7921C2.53968 10.8361 2.56317 10.8798 2.58699 10.9231C2.5831 10.9614 2.5821 11.0004 2.58422 11.04L2.73693 13.9003L2.73929 13.9522C2.81929 15.7125 2.88273 17.1084 3.07744 18.199C3.27798 19.3224 3.63381 20.227 4.37385 20.9342C5.11388 21.6413 6.03377 21.9557 7.16503 22.1051C8.26341 22.25 9.66068 22.25 11.4228 22.25H13.2435C15.0056 22.25 16.4029 22.25 17.5013 22.1051C18.6325 21.9557 19.5524 21.6413 20.2925 20.9342C21.0325 20.227 21.3883 19.3224 21.5889 18.199C21.7836 17.1084 21.847 15.7125 21.927 13.9522L21.9292 13.9033L21.9295 13.8973L22.0821 11.04C22.0842 11.0004 22.0832 10.9614 22.0793 10.9232C22.1031 10.8799 22.1266 10.8362 22.1498 10.7921C22.6653 9.81185 22.7056 8.486 22.3514 7.40879C21.9943 6.32293 21.1342 5.25 19.6852 5.25H16.8987C16.7127 4.60022 16.5534 4.05806 16.3809 3.62555C16.1836 3.13087 15.9398 2.69952 15.5436 2.36641C15.1376 2.02501 14.6812 1.87841 14.1799 1.81162C13.7167 1.74994 13.1526 1.74997 12.497 1.75H12.1691ZM15.3373 5.25C15.2059 4.80116 15.0978 4.45763 14.9876 4.18113C14.8339 3.79567 14.7059 3.62179 14.5782 3.51447C14.4605 3.41544 14.3071 3.34182 13.9818 3.29849C13.6293 3.25154 13.1658 3.25 12.45 3.25H12.2161C11.5003 3.25 11.0368 3.25154 10.6842 3.29849C10.359 3.34182 10.2056 3.41544 10.0878 3.51447C9.96018 3.62179 9.83217 3.79567 9.67847 4.18113C9.56821 4.45763 9.46015 4.80116 9.32877 5.25H15.3373ZM3.73988 7.8774C3.49037 8.63609 3.54851 9.53177 3.84416 10.094C5.35606 12.969 8.83996 14.25 12.3332 14.25C15.8264 14.25 19.3103 12.969 20.8222 10.094C21.1178 9.53177 21.176 8.63609 20.9265 7.87739C20.6798 7.12736 20.2339 6.75 19.6852 6.75H4.98117C4.43242 6.75 3.98654 7.12736 3.73988 7.8774ZM13.0832 15.7317C15.7352 15.6022 18.5104 14.7757 20.4773 12.9629L20.4313 13.8233L20.431 13.8292C20.348 15.6568 20.2875 16.9535 20.1122 17.9354C19.9407 18.896 19.6757 19.4488 19.2562 19.8497C18.8366 20.2506 18.2723 20.4903 17.305 20.618C16.3161 20.7485 15.0179 20.75 13.1885 20.75H11.4778C9.64835 20.75 8.35017 20.7485 7.36133 20.618C6.39396 20.4903 5.82969 20.2506 5.41015 19.8497C4.9906 19.4488 4.72558 18.896 4.55409 17.9354C4.3788 16.9535 4.31834 15.6568 4.23527 13.8292L4.18902 12.9628C6.15586 14.7757 8.93119 15.6022 11.5832 15.7317V16.5C11.5832 16.9142 11.919 17.25 12.3332 17.25C12.7474 17.25 13.0832 16.9142 13.0832 16.5V15.7317Z" fill="#067647"/>
</svg>
