<svg width="24" height="24" viewBox="0 0 24 24" fill="none" xmlns="http://www.w3.org/2000/svg">
<path d="M11 7.25C10.5858 7.25 10.25 7.58579 10.25 8C10.25 8.41421 10.5858 8.75 11 8.75H13C13.4142 8.75 13.75 8.41421 13.75 8C13.75 7.58579 13.4142 7.25 13 7.25H11Z" fill="#067647"/>
<path d="M11 10.75C10.5858 10.75 10.25 11.0858 10.25 11.5C10.25 11.9142 10.5858 12.25 11 12.25L13 12.25C13.4142 12.25 13.75 11.9142 13.75 11.5C13.75 11.0858 13.4142 10.75 13 10.75L11 10.75Z" fill="#067647"/>
<path d="M11 14.25C10.5858 14.25 10.25 14.5858 10.25 15C10.25 15.4142 10.5858 15.75 11 15.75L13 15.75C13.4142 15.75 13.75 15.4142 13.75 15C13.75 14.5858 13.4142 14.25 13 14.25L11 14.25Z" fill="#067647"/>
<path fill-rule="evenodd" clip-rule="evenodd" d="M1.25 22C1.25 21.5858 1.58579 21.25 2 21.25H2.25L2.25 15C2.25 14.5701 2.27144 14.1737 2.34728 13.8285C2.42498 13.4748 2.56966 13.1287 2.84917 12.8492C3.12868 12.5697 3.4748 12.425 3.82851 12.3473C4.17373 12.2714 4.5701 12.25 5 12.25H7.25L7.25 6C7.25 5.5701 7.27144 5.17373 7.34728 4.82851C7.42498 4.4748 7.56966 4.12868 7.84917 3.84917C8.12868 3.56966 8.4748 3.42498 8.82851 3.34728C9.17373 3.27144 9.5701 3.25 10 3.25L11.25 3.25V2C11.25 1.58579 11.5858 1.25 12 1.25C12.4142 1.25 12.75 1.58579 12.75 2V3.25L14 3.25C14.4299 3.25 14.8263 3.27144 15.1715 3.34728C15.5252 3.42498 15.8713 3.56966 16.1508 3.84917C16.4303 4.12868 16.575 4.4748 16.6527 4.82851C16.7286 5.17373 16.75 5.5701 16.75 6L16.75 12.25H19C19.4299 12.25 19.8263 12.2714 20.1715 12.3473C20.5252 12.425 20.8713 12.5697 21.1508 12.8492C21.4303 13.1287 21.575 13.4748 21.6527 13.8285C21.7286 14.1737 21.75 14.5701 21.75 15V21.25H22C22.4142 21.25 22.75 21.5858 22.75 22C22.75 22.4142 22.4142 22.75 22 22.75L2 22.75C1.58579 22.75 1.25 22.4142 1.25 22ZM11.25 20V21.25H8.75L8.75 6C8.75 5.60256 8.77172 5.33527 8.81234 5.15036C8.8511 4.97395 8.89618 4.92348 8.90983 4.90983C8.92348 4.89618 8.97395 4.8511 9.15036 4.81235C9.33527 4.77172 9.60256 4.75 10 4.75L14 4.75C14.3974 4.75 14.6647 4.77172 14.8496 4.81235C15.0261 4.8511 15.0765 4.89618 15.0902 4.90983C15.1038 4.92348 15.1489 4.97395 15.1877 5.15036C15.2283 5.33527 15.25 5.60257 15.25 6L15.25 21.25H12.75V20C12.75 19.5858 12.4142 19.25 12 19.25C11.5858 19.25 11.25 19.5858 11.25 20ZM19 13.75H16.75L16.75 21.25H20.25V15C20.25 14.6026 20.2283 14.3353 20.1877 14.1504C20.1489 13.9739 20.1038 13.9235 20.0902 13.9098C20.0765 13.8962 20.0261 13.8511 19.8496 13.8123C19.6647 13.7717 19.3974 13.75 19 13.75ZM7.25 13.75L7.25 21.25H3.75L3.75 15C3.75 14.6026 3.77172 14.3353 3.81234 14.1504C3.8511 13.9739 3.89618 13.9235 3.90983 13.9098C3.92349 13.8962 3.97395 13.8511 4.15036 13.8123C4.33527 13.7717 4.60256 13.75 5 13.75H7.25Z" fill="#067647"/>
</svg>
