<svg width="29" height="28" viewBox="0 0 29 28" fill="none" xmlns="http://www.w3.org/2000/svg">
<path d="M7.95817 2.33337C7.95817 1.85012 7.56642 1.45837 7.08317 1.45837C6.59992 1.45837 6.20817 1.85012 6.20817 2.33337V2.99771C5.5662 3.11866 4.97695 3.37153 4.49578 3.73241C3.80222 4.25258 3.2915 5.03798 3.2915 5.97921C3.2915 6.92043 3.80222 7.70583 4.49578 8.226C5.18907 8.74597 6.10674 9.04171 7.08317 9.04171C7.71757 9.04171 8.25823 9.23566 8.62056 9.50741C8.98263 9.77896 9.12484 10.0873 9.12484 10.3542C9.12484 10.6211 8.98263 10.9295 8.62057 11.201C8.25823 11.4728 7.71757 11.6667 7.08317 11.6667C6.0494 11.6667 5.34082 11.1705 5.12398 10.7104C4.91797 10.2732 4.3966 10.0859 3.95946 10.2919C3.52232 10.4979 3.33495 11.0192 3.54096 11.4564C4.01022 12.4521 5.04014 13.1134 6.20817 13.3348V14C6.20817 14.4833 6.59992 14.875 7.08317 14.875C7.56642 14.875 7.95817 14.4833 7.95817 14V13.3357C8.60014 13.2148 9.18939 12.9619 9.67057 12.601C10.3641 12.0808 10.8748 11.2954 10.8748 10.3542C10.8748 9.41298 10.3641 8.62758 9.67057 8.10741C8.97727 7.58744 8.0596 7.29171 7.08317 7.29171C6.44877 7.29171 5.90811 7.09775 5.54578 6.826C5.18371 6.55445 5.0415 6.24611 5.0415 5.97921C5.0415 5.71231 5.18371 5.40396 5.54578 5.13241C5.90811 4.86066 6.44877 4.66671 7.08317 4.66671C8.11694 4.66671 8.82552 5.16292 9.04236 5.62305C9.24837 6.06019 9.76975 6.24756 10.2069 6.04155C10.644 5.83554 10.8314 5.31417 10.6254 4.87703C10.1561 3.88129 9.1262 3.21998 7.95817 2.99863V2.33337Z" fill="#067647"/>
<path d="M13.4998 6.70837C15.1633 6.70837 16.6468 6.7092 17.8421 6.82106C18.4373 6.87676 18.9296 6.95754 19.3172 7.06802C19.7127 7.18075 19.9366 7.30716 20.0528 7.41275C20.412 7.73928 20.5794 8.03537 20.6764 8.59104C20.7483 9.00288 20.7753 9.52157 20.7855 10.2479L19.7245 9.71742C19.2922 9.5013 18.7667 9.6765 18.5505 10.1087C18.3344 10.541 18.5096 11.0665 18.9419 11.2827L21.2752 12.4493C21.5464 12.585 21.8686 12.5705 22.1265 12.411C22.3845 12.2516 22.5415 11.97 22.5415 11.6667L22.5415 11.5716C22.5416 10.1561 22.5416 9.09929 22.4003 8.29003C22.2411 7.37795 21.8959 6.72326 21.23 6.11786C20.8336 5.75749 20.321 5.53443 19.7969 5.38505C19.265 5.23342 18.6547 5.13946 18.0052 5.07867C16.7196 4.95836 15.1572 4.95837 13.5327 4.95837L13.4998 4.95837C13.0166 4.95837 12.6248 5.35012 12.6248 5.83337C12.6248 6.31662 13.0166 6.70837 13.4998 6.70837Z" fill="#067647"/>
<path fill-rule="evenodd" clip-rule="evenodd" d="M22.5415 15.1667C22.5415 14.6835 22.1498 14.2917 21.6665 14.2917C21.1833 14.2917 20.7915 14.6835 20.7915 15.1667V16.0417H18.1665C17.6833 16.0417 17.2915 16.4335 17.2915 16.9167C17.2915 17.4 17.6833 17.7917 18.1665 17.7917H18.604V23.0417H18.1665C17.6833 23.0417 17.2915 23.4335 17.2915 23.9167C17.2915 24.4 17.6833 24.7917 18.1665 24.7917H20.7915V25.6667C20.7915 26.15 21.1833 26.5417 21.6665 26.5417C22.1498 26.5417 22.5415 26.15 22.5415 25.6667V24.7917H23.854C25.0621 24.7917 26.0415 23.8123 26.0415 22.6042V21.7292C26.0415 21.2368 25.8788 20.7823 25.6042 20.4167C25.8788 20.0511 26.0415 19.5967 26.0415 19.1042V18.2292C26.0415 17.0211 25.0621 16.0417 23.854 16.0417H22.5415V15.1667ZM20.354 19.5417V17.7917H23.854C24.0956 17.7917 24.2915 17.9876 24.2915 18.2292V19.1042C24.2915 19.3458 24.0956 19.5417 23.854 19.5417H20.354ZM20.354 21.2917H23.854C24.0956 21.2917 24.2915 21.4876 24.2915 21.7292V22.6042C24.2915 22.8458 24.0956 23.0417 23.854 23.0417H20.354V21.2917Z" fill="#067647"/>
<path d="M6.03983 16.7557C6.29779 16.5963 6.61992 16.5818 6.89116 16.7174L9.22449 17.8841C9.65672 18.1002 9.83192 18.6258 9.6158 19.058C9.39968 19.4902 8.8741 19.6654 8.44186 19.4493L7.38088 18.9188C7.39101 19.6452 7.41803 20.1639 7.48994 20.5757C7.58697 21.1314 7.75438 21.4275 8.11356 21.754C8.22971 21.8596 8.45364 21.986 8.84913 22.0987C9.23672 22.2092 9.72905 22.29 10.3243 22.3457C11.5196 22.4576 13.003 22.4584 14.6665 22.4584C15.1498 22.4584 15.5415 22.8501 15.5415 23.3334C15.5415 23.8166 15.1498 24.2084 14.6665 24.2084H14.6336C13.0091 24.2084 11.4468 24.2084 10.1612 24.0881C9.51164 24.0273 8.90137 23.9333 8.36942 23.7817C7.84536 23.6323 7.33279 23.4093 6.93638 23.0489C6.27044 22.4435 5.92528 21.7888 5.76602 20.8767C5.62472 20.0674 5.62477 19.0107 5.62484 17.5952L5.62484 17.5C5.62484 17.1968 5.78186 16.9152 6.03983 16.7557Z" fill="#067647"/>
</svg>
