<svg width="28" height="28" viewBox="0 0 28 28" fill="none" xmlns="http://www.w3.org/2000/svg">
<path fill-rule="evenodd" clip-rule="evenodd" d="M22.1846 1.46066C21.7783 1.45227 20.6767 1.45685 19.4039 1.46214L18.8044 1.46459C17.2753 1.47067 15.6082 1.47521 14.5659 1.46047L6.38041 1.46047C6.17402 1.46047 5.7752 1.46501 5.3506 1.54302C4.95013 1.6166 4.38412 1.77953 3.96169 2.19953C3.75706 2.40298 3.59346 2.66119 3.46729 2.89115C3.33522 3.13185 3.21485 3.39649 3.10967 3.64998C2.90677 4.13901 2.73968 4.63765 2.64195 4.92933L2.63303 4.95593L1.84115 7.2516C1.71641 7.58465 1.58508 8.09586 1.51362 8.60552C1.4769 8.86738 1.453 9.14937 1.45859 9.42201C1.46395 9.68329 1.49705 9.99526 1.61324 10.2841C1.79894 10.7457 2.20517 11.2344 2.53835 11.5896C2.5542 11.6065 2.57015 11.6233 2.58618 11.6402C2.58587 11.6497 2.58571 11.6593 2.58571 11.6689L2.58571 17.5663C2.58568 19.1618 2.58567 20.4478 2.72165 21.4593C2.86284 22.5094 3.16488 23.3936 3.86711 24.0958C4.56935 24.7981 5.45353 25.1001 6.50366 25.2413C7.51513 25.3773 8.80117 25.3773 10.3967 25.3773L14.544 25.3773C15.0273 25.3773 15.419 24.9855 15.419 24.5023C15.419 24.019 15.0273 23.6273 14.544 23.6273L10.4607 23.6273C8.78605 23.6273 7.61809 23.6254 6.73685 23.5069C5.88078 23.3918 5.42745 23.1813 5.10456 22.8584C4.78166 22.5355 4.57114 22.0821 4.45605 21.2261C4.33757 20.3448 4.33571 19.1769 4.33571 17.5023L4.33571 13.0168C4.57385 13.1386 4.8441 13.2551 5.13958 13.3561C5.92542 13.6245 6.94411 13.8018 8.10202 13.6503C9.14348 13.5141 9.98808 13.0826 10.6567 12.5256C11.3754 13.0753 12.5124 13.6377 13.9587 13.6577C15.0247 13.6724 15.9823 13.309 16.7224 12.8859C16.9523 12.7544 17.1668 12.6141 17.3631 12.4719C18.2511 13.2205 19.922 14.1273 22.398 13.4481C22.8369 13.3277 23.2314 13.183 23.5857 13.0201L23.5857 13.4189C23.5857 13.9022 23.9775 14.2939 24.4607 14.2939C24.944 14.2939 25.3357 13.9022 25.3357 13.4189L25.3357 11.8007C26.0676 11.0377 26.397 10.2084 26.523 9.5994C26.535 9.54109 26.5411 9.48172 26.5411 9.42218C26.5411 8.88038 26.3735 8.10123 26.0692 7.10947C25.757 6.09185 25.2752 4.77105 24.5906 3.11099C24.5837 3.09411 24.5762 3.07745 24.5682 3.06103C24.4446 2.80766 24.2003 2.43532 23.8281 2.11299C23.4479 1.78362 22.8952 1.47534 22.1846 1.46066ZM13.9829 11.9078C13.0282 11.8946 12.2823 11.5362 11.8215 11.2112C12.2335 10.5878 12.4971 9.95972 12.6306 9.477C12.7594 9.01124 12.4863 8.52923 12.0205 8.40041C11.5548 8.27158 11.0727 8.54473 10.9439 9.01049C10.6572 10.047 9.6417 11.684 7.87501 11.9151C7.02573 12.0262 6.27965 11.8962 5.7053 11.7C5.11128 11.4971 4.75211 11.2418 4.67053 11.1648C4.63874 11.1348 4.60475 11.1073 4.56885 11.0824C4.42395 10.9819 4.1197 10.7175 3.81471 10.3923C3.49234 10.0486 3.29035 9.76405 3.23676 9.63084C3.23676 9.63084 3.22934 9.60987 3.22247 9.56682C3.21525 9.52164 3.20977 9.46164 3.20822 9.38612C3.20509 9.23342 3.21857 9.04886 3.24666 8.84852C3.30384 8.44072 3.40919 8.05185 3.48236 7.85908C3.48552 7.85074 3.48856 7.84236 3.49147 7.83393L4.28865 5.52301L4.29777 5.49579C4.39648 5.2013 4.54708 4.75203 4.72607 4.32064C4.81748 4.10033 4.91073 3.89841 5.00151 3.73296C5.09819 3.55677 5.16667 3.46924 5.19556 3.44052C5.24017 3.39617 5.38045 3.31683 5.66682 3.26421C5.92906 3.21603 6.19761 3.21047 6.38041 3.21047L14.5474 3.21047C15.6092 3.22538 17.2903 3.22062 18.8114 3.21458L19.408 3.21214C20.691 3.20684 21.766 3.20239 22.1484 3.21029C22.3471 3.21439 22.5223 3.29708 22.6824 3.43578C22.8377 3.57031 22.9422 3.72791 22.9857 3.80937C23.6509 5.42454 24.1072 6.68095 24.3962 7.62276C24.6657 8.50114 24.7703 9.04652 24.7882 9.33662C24.6337 9.95195 24.0568 11.1784 21.935 11.7605C20.3012 12.2087 19.2179 11.7031 18.6101 11.2334C18.8317 10.8707 19.095 10.3094 19.3507 9.51044C19.498 9.05019 19.2443 8.55767 18.784 8.41038C18.3237 8.26309 17.8312 8.5168 17.6839 8.97705C17.3736 9.94669 17.0997 10.3599 17.043 10.4315C16.8388 10.6626 16.4142 11.0463 15.8539 11.3666C15.2874 11.6904 14.6398 11.9169 13.9829 11.9078Z" fill="#067647"/>
<path d="M22.419 17.5023C22.419 17.019 22.0273 16.6273 21.544 16.6273C21.0608 16.6273 20.669 17.019 20.669 17.5023L20.669 20.7106L17.4607 20.7106C16.9775 20.7106 16.5857 21.1023 16.5857 21.5856C16.5857 22.0688 16.9775 22.4606 17.4607 22.4606L20.669 22.4606L20.669 25.6689C20.669 26.1522 21.0608 26.5439 21.544 26.5439C22.0273 26.5439 22.419 26.1522 22.419 25.6689L22.419 22.4606L25.6274 22.4606C26.1106 22.4606 26.5024 22.0688 26.5024 21.5856C26.5024 21.1023 26.1106 20.7106 25.6274 20.7106L22.419 20.7106L22.419 17.5023Z" fill="#067647"/>
<path d="M7.25238 19.8356C7.25238 19.3523 7.64413 18.9606 8.12737 18.9606L12.794 18.9606C13.2773 18.9606 13.669 19.3523 13.669 19.8356C13.669 20.3188 13.2773 20.7106 12.794 20.7106L8.12738 20.7106C7.64413 20.7106 7.25238 20.3188 7.25238 19.8356Z" fill="#067647"/>
</svg>
