<svg width="28" height="28" viewBox="0 0 28 28" fill="none" xmlns="http://www.w3.org/2000/svg">
<path fill-rule="evenodd" clip-rule="evenodd" d="M6.41667 2.625C4.32258 2.625 2.625 4.32258 2.625 6.41667C2.625 8.51075 4.32258 10.2083 6.41667 10.2083C8.51075 10.2083 10.2083 8.51075 10.2083 6.41667C10.2083 4.32258 8.51075 2.625 6.41667 2.625ZM4.375 6.41667C4.375 5.28908 5.28908 4.375 6.41667 4.375C7.54425 4.375 8.45833 5.28908 8.45833 6.41667C8.45833 7.54425 7.54425 8.45833 6.41667 8.45833C5.28908 8.45833 4.375 7.54425 4.375 6.41667Z" fill="#067647"/>
<path d="M14.548 18.048C14.8897 17.7062 15.4436 17.7062 15.7853 18.048L18.0833 20.3458L20.3813 18.048C20.723 17.7062 21.2769 17.7062 21.6187 18.048C21.9604 18.3897 21.9604 18.9436 21.6187 19.2853L19.3208 21.5833L21.6187 23.8813C21.9604 24.223 21.9604 24.7769 21.6187 25.1187C21.2769 25.4604 20.723 25.4604 20.3813 25.1187L18.0833 22.8208L15.7853 25.1187C15.4436 25.4604 14.8897 25.4604 14.548 25.1187C14.2062 24.7769 14.2062 24.223 14.548 23.8813L16.8458 21.5833L14.548 19.2853C14.2062 18.9436 14.2062 18.3897 14.548 18.048Z" fill="#067647"/>
<path d="M20.3552 5.2419C20.6817 4.88577 21.2353 4.86185 21.5914 5.18848L24.3615 7.72912C24.5864 7.93528 24.8163 8.14597 24.9818 8.34504C25.1695 8.57069 25.375 8.89595 25.375 9.33333C25.375 9.77073 25.1695 10.096 24.9818 10.3216C24.816 10.5209 24.5868 10.7311 24.3616 10.9375L21.5914 13.4782C21.2353 13.8048 20.6817 13.7809 20.3552 13.4248C20.0285 13.0686 20.0524 12.5151 20.4086 12.1885L22.5156 10.256C13.6073 10.6944 9.13733 14.0812 6.86007 17.3424C4.40376 20.8599 4.37578 24.4037 4.37494 24.5093L4.37493 24.5114C4.36863 24.9947 3.9718 25.3812 3.48859 25.3749C3.00538 25.3686 2.61877 24.9718 2.62508 24.4886L2.62624 24.4184C2.62718 24.3781 2.62887 24.3236 2.63198 24.2563C2.6382 24.1215 2.65006 23.9352 2.67283 23.7047C2.71835 23.2438 2.80759 22.6051 2.98309 21.8479C3.33366 20.3354 4.03181 18.3359 5.42528 16.3404C8.07479 12.5462 13.1252 8.92386 22.6127 8.49969L20.4086 6.47818C20.0524 6.15155 20.0285 5.59805 20.3552 5.2419Z" fill="#067647"/>
</svg>
