<svg width="28" height="28" viewBox="0 0 28 28" fill="none" xmlns="http://www.w3.org/2000/svg">
<path fill-rule="evenodd" clip-rule="evenodd" d="M6.7709 5.00001C5.53659 5.09309 4.95463 5.30898 4.55624 5.70774C4.23321 6.03107 4.02259 6.4851 3.90746 7.3422C3.78897 8.2244 3.78711 9.39358 3.78711 11.0697L3.78711 18.6601C3.78711 20.3363 3.78897 21.5055 3.90746 22.3877C4.02259 23.2448 4.23321 23.6988 4.55624 24.0221C4.87917 24.3454 5.33244 24.556 6.18836 24.6712C7.06954 24.7898 8.23744 24.7917 9.91211 24.7917L12.8288 24.7917C13.312 24.7917 13.7038 25.1834 13.7038 25.6667C13.7038 26.1499 13.312 26.5417 12.8288 26.5417L9.84801 26.5417C8.25255 26.5417 6.96647 26.5417 5.95496 26.4056C4.90469 26.2642 4.02044 25.9619 3.31823 25.259C2.61614 24.5563 2.31419 23.6715 2.17304 22.6206C2.03707 21.6084 2.03709 20.3212 2.03711 18.7241L2.03711 11.0058C2.03709 9.40868 2.03707 8.12152 2.17304 7.10923C2.31419 6.05837 2.61614 5.17362 3.31823 4.47088C4.21621 3.57206 5.42599 3.31895 6.93512 3.23464C7.37909 2.19049 8.41426 1.45831 9.62044 1.45831L16.0371 1.45831C17.2433 1.45831 18.2785 2.19049 18.7224 3.23464C20.2316 3.31895 21.4413 3.57206 22.3393 4.47088C23.0414 5.17362 23.3434 6.05837 23.4845 7.10923C23.6205 8.12154 23.6205 9.40869 23.6204 11.0058V15.75C23.6204 16.2332 23.2287 16.625 22.7454 16.625C22.2622 16.625 21.8704 16.2332 21.8704 15.75V11.0697C21.8704 9.39358 21.8686 8.2244 21.7501 7.3422C21.635 6.4851 21.4243 6.03107 21.1013 5.70774C20.7029 5.30898 20.121 5.09309 18.8867 5.00001C18.6005 6.31049 17.4334 7.29165 16.0371 7.29165L9.62044 7.29165C8.22415 7.29165 7.05703 6.31049 6.7709 5.00001ZM8.45378 4.37498C8.45378 3.73065 8.97611 3.20831 9.62044 3.20831L16.0371 3.20831C16.6814 3.20831 17.2038 3.73065 17.2038 4.37498C17.2038 5.01931 16.6814 5.54165 16.0371 5.54165L9.62044 5.54165C8.97611 5.54165 8.45378 5.01931 8.45378 4.37498Z" fill="#067647"/>
<path d="M8.16667 11.9583C7.68342 11.9583 7.29167 12.3501 7.29167 12.8333C7.29167 13.3166 7.68342 13.7083 8.16667 13.7083L17.5 13.7083C17.9833 13.7083 18.375 13.3166 18.375 12.8333C18.375 12.3501 17.9833 11.9583 17.5 11.9583L8.16667 11.9583Z" fill="#067647"/>
<path d="M8.16667 17.7916C7.68342 17.7916 7.29167 18.1834 7.29167 18.6666C7.29167 19.1499 7.68342 19.5416 8.16667 19.5416L12.8333 19.5416C13.3166 19.5416 13.7083 19.1499 13.7083 18.6666C13.7083 18.1834 13.3166 17.7916 12.8333 17.7916L8.16667 17.7916Z" fill="#067647"/>
<path d="M25.3755 19.4917C25.831 19.3304 26.0695 18.8303 25.9081 18.3748C25.7468 17.9192 25.2467 17.6808 24.7912 17.8421C23.817 18.1871 22.8702 18.852 22.0229 19.595C21.1667 20.3459 20.3626 21.2211 19.6761 22.0439C19.0576 22.7853 18.5259 23.4948 18.1281 24.0509C17.7277 23.5068 17.3301 23.1409 16.9645 22.8972C16.6697 22.7006 16.2333 22.4585 15.75 22.4585C15.2668 22.4585 14.875 22.8503 14.875 23.3335C14.875 23.7974 15.2359 24.1769 15.6921 24.2067C15.6964 24.2076 15.7024 24.2091 15.7101 24.2113C15.7516 24.2232 15.8511 24.2581 15.9938 24.3533C16.2775 24.5424 16.7693 24.9953 17.3007 26.0582C17.4417 26.3403 17.7236 26.5246 18.0386 26.5407C18.3535 26.5569 18.6529 26.402 18.822 26.1359C18.9259 25.9799 19.2343 25.5172 19.4287 25.2418C19.8181 24.6902 20.3698 23.9442 21.0199 23.1649C21.6718 22.3835 22.4118 21.5816 23.1768 20.9107C23.9509 20.2318 24.7026 19.73 25.3755 19.4917Z" fill="#067647"/>
</svg>
