<svg width="18" height="12" viewBox="0 0 18 12" fill="none" xmlns="http://www.w3.org/2000/svg">
<g id="elements">
<path id="Icon" d="M0.250488 5.99969C0.250491 6.37325 0.416142 6.71981 0.573008 6.98004C0.742284 7.26086 0.969932 7.55078 1.21967 7.83346C1.72067 8.40053 2.37436 9.00951 3.00872 9.56038C3.64682 10.1145 4.28271 10.6247 4.75774 10.9955C4.99565 11.1812 5.19412 11.3326 5.33353 11.4379C5.40325 11.4906 5.45825 11.5318 5.49607 11.56L5.53964 11.5923L5.5512 11.6009L5.55521 11.6039C5.88871 11.8495 6.35865 11.7786 6.60431 11.4451C6.84996 11.1116 6.77877 10.6422 6.4453 10.3965L6.43258 10.3871L6.39253 10.3573C6.35711 10.3309 6.30468 10.2917 6.23769 10.241C6.10366 10.1398 5.91151 9.9932 5.68068 9.81302C5.21821 9.45205 4.60412 8.95916 3.99222 8.42781C3.3766 7.89322 2.7803 7.33439 2.3438 6.84032C2.31619 6.80907 2.28947 6.77836 2.26365 6.7482L17.0005 6.7482C17.4147 6.7482 17.7505 6.41241 17.7505 5.9982C17.7505 5.58398 17.4147 5.2482 17.0005 5.2482L2.26619 5.2482C2.29122 5.219 2.3171 5.18927 2.3438 5.15904C2.7803 4.66497 3.3766 4.10614 3.99222 3.57156C4.60412 3.0402 5.21821 2.54731 5.68068 2.18634C5.91151 2.00616 6.10365 1.85957 6.23769 1.75831C6.30468 1.7077 6.35711 1.66846 6.39252 1.64206L6.43257 1.61229L6.4453 1.60288C6.77877 1.35721 6.84996 0.887728 6.6043 0.554241C6.35864 0.220739 5.88871 0.149849 5.55521 0.395511L5.5512 0.398471L5.53964 0.407024L5.49607 0.439409C5.45825 0.467604 5.40325 0.508776 5.33353 0.561445C5.19412 0.666757 4.99564 0.818192 4.75773 1.00389C4.28271 1.37466 3.64681 1.88488 3.00872 2.43898C2.37435 2.98985 1.72066 3.59883 1.21967 4.1659C0.969932 4.44858 0.742284 4.73851 0.573007 5.01932C0.417085 5.27799 0.252481 5.62197 0.250505 5.99296" fill="#161616"/>
</g>
</svg>
