<svg width="40" height="40" viewBox="0 0 40 40" fill="none" xmlns="http://www.w3.org/2000/svg">
<path fill-rule="evenodd" clip-rule="evenodd" d="M2.08331 20C2.08331 29.8951 10.1049 37.9166 20 37.9166C29.8951 37.9166 37.9166 29.8951 37.9166 20C37.9166 10.1049 29.8951 2.08331 20 2.08331C10.1049 2.08331 2.08331 10.1049 2.08331 20ZM20.7663 19.8956C20.7854 19.9378 20.7996 19.9724 20.8101 19.9999C20.7996 20.0274 20.7854 20.062 20.7663 20.1041C20.6795 20.2961 20.5358 20.5504 20.3293 20.8621C19.9171 21.4841 19.3442 22.2015 18.7386 22.9026C18.1389 23.5968 17.5354 24.2427 17.0794 24.7172L16.3322 25.4774C15.6756 26.1224 15.6658 27.1777 16.3107 27.8344C16.9556 28.4912 18.0109 28.5007 18.6676 27.8558L19.4828 27.0269C19.9644 26.5258 20.6108 25.8344 21.2611 25.0816C21.9055 24.3356 22.5826 23.4961 23.1079 22.7034C23.3701 22.3077 23.617 21.8902 23.8036 21.4774C23.977 21.0939 24.1665 20.5693 24.1665 19.9999C24.1665 19.4304 23.977 18.9058 23.8036 18.5224C23.617 18.1096 23.3701 17.6921 23.1079 17.2964C22.5826 16.5037 21.9055 15.6642 21.2611 14.9182C20.6108 14.1653 19.9644 13.474 19.4828 12.9729L18.6676 12.144C18.0109 11.499 16.9556 11.5086 16.3107 12.1654C15.6658 12.8221 15.6756 13.8774 16.3322 14.5224L17.0794 15.2826C17.5354 15.7571 18.1389 16.403 18.7386 17.0972C19.3442 17.7983 19.9171 18.5157 20.3293 19.1377C20.5358 19.4494 20.6795 19.7037 20.7663 19.8956Z" fill="#1B8354"/>
</svg>
