<svg width="16" height="18" viewBox="0 0 16 18" fill="none" xmlns="http://www.w3.org/2000/svg">
<g id="elements">
<g id="Icon">
<path d="M11.3333 10.4582C11.6785 10.4582 11.9583 10.1783 11.9583 9.83317C11.9583 9.48799 11.6785 9.20817 11.3333 9.20817H8.83329C8.48811 9.20817 8.20829 9.48799 8.20829 9.83317C8.20829 10.1783 8.48811 10.4582 8.83329 10.4582H11.3333Z" fill="white"/>
<path d="M11.3333 13.7915C11.6785 13.7915 11.9583 13.5117 11.9583 13.1665C11.9583 12.8213 11.6785 12.5415 11.3333 12.5415L5.49996 12.5415C5.15478 12.5415 4.87496 12.8213 4.87496 13.1665C4.87496 13.5117 5.15478 13.7915 5.49996 13.7915H11.3333Z" fill="white"/>
<path fill-rule="evenodd" clip-rule="evenodd" d="M8.04472 17.9582H7.31989C5.99167 17.9582 4.9457 17.9582 4.11589 17.8717C3.26861 17.7834 2.57189 17.5992 1.97588 17.1793C1.65771 16.9551 1.37397 16.6884 1.1339 16.3865C0.679828 15.8156 0.479534 15.1443 0.384211 14.3342C0.291608 13.5472 0.291616 12.5576 0.291626 11.3127V9.12864C0.291626 7.91332 0.291626 6.97016 0.34183 6.20902C0.392716 5.43752 0.49708 4.80966 0.726369 4.23107C1.4248 2.46866 2.89549 1.09267 4.74158 0.444615C5.89064 0.0412493 7.30058 0.0413527 9.77172 0.0415354L10.074 0.0415227C11.4366 0.0412398 12.2858 0.0410634 12.9863 0.286989C14.1105 0.681637 15.0118 1.52173 15.441 2.60473C15.5866 2.97202 15.6491 3.36194 15.679 3.81604C15.7083 4.25985 15.7083 4.80612 15.7083 5.49306V10.7161C15.7083 12.2454 15.7083 13.4606 15.5723 14.4125C15.4318 15.3967 15.1349 16.1902 14.4743 16.812C13.819 17.4288 12.9917 17.7013 11.9646 17.8312C10.9609 17.9582 9.67633 17.9582 8.04472 17.9582ZM11.8077 16.5911C12.7094 16.477 13.2356 16.2614 13.6176 15.9018C13.9943 15.5472 14.2162 15.067 14.3349 14.2357C14.4568 13.3825 14.4583 12.2566 14.4583 10.6665V5.51503C14.4583 4.80127 14.458 4.29617 14.4317 3.89831C14.4059 3.50603 14.3567 3.26145 14.279 3.06525C13.9902 2.33652 13.373 1.74753 12.5723 1.46643C12.0995 1.30047 11.4839 1.29154 9.93178 1.29154C9.66467 1.29154 9.41249 1.29163 9.174 1.29211C8.02053 1.33245 7.09783 2.28025 7.09783 3.44355C7.09783 3.56616 7.10322 3.69798 7.11009 3.84598L7.11266 3.90082C7.11872 4.0299 7.12533 4.17043 7.12823 4.31052C7.13481 4.62727 7.12481 4.99688 7.02921 5.35367C6.84299 6.04865 6.30015 6.59149 5.60517 6.77771C5.24838 6.87331 4.87877 6.88331 4.56202 6.87674C4.42193 6.87383 4.28146 6.86723 4.15238 6.86116L4.09747 6.85859C3.94948 6.85172 3.81766 6.84633 3.69505 6.84633C2.5061 6.84633 1.54227 7.81016 1.54227 8.99911C1.54227 9.0087 1.54206 9.01825 1.54163 9.02773C1.54163 9.06858 1.54163 9.10979 1.54163 9.15139V11.2726C1.54163 12.5666 1.54264 13.4826 1.62565 14.1881C1.70693 14.8789 1.85984 15.2911 2.11219 15.6084C2.27691 15.8155 2.47324 16.0006 2.69583 16.1574C3.04347 16.4024 3.498 16.5506 4.24547 16.6285C5.00291 16.7074 5.98375 16.7082 7.35602 16.7082H7.99996C9.68617 16.7082 10.8916 16.707 11.8077 16.5911ZM1.58675 6.32798C2.16643 5.86982 2.8988 5.59633 3.69505 5.59633C3.84985 5.59633 4.00786 5.60309 4.1554 5.60993L4.21196 5.61258C4.34253 5.6187 4.46544 5.62446 4.58798 5.62701C4.87185 5.6329 5.099 5.61924 5.28165 5.5703C5.54526 5.49967 5.75117 5.29376 5.8218 5.03015C5.87074 4.8475 5.8844 4.62035 5.8785 4.33648C5.87596 4.21395 5.8702 4.09106 5.86408 3.96052L5.86143 3.9039C5.85459 3.75636 5.84783 3.59835 5.84783 3.44355C5.84783 2.65807 6.11397 1.93475 6.561 1.35885C5.98335 1.40622 5.54647 1.48685 5.15561 1.62406C3.63299 2.15856 2.44648 3.28346 1.88844 4.6916C1.72695 5.0991 1.63593 5.58162 1.58912 6.29129C1.58832 6.30347 1.58753 6.3157 1.58675 6.32798Z" fill="white"/>
</g>
</g>
</svg>
