<svg width="20" height="20" viewBox="0 0 20 20" fill="none" xmlns="http://www.w3.org/2000/svg">
<path d="M9.5757 9.79272C9.51782 9.79179 9.45089 9.79176 9.36833 9.79176C9.02315 9.79176 8.74333 9.51194 8.74333 9.16676C8.74333 8.82159 9.02315 8.54176 9.36833 8.54176L9.39703 8.54176C9.56796 8.54169 9.75279 8.54162 9.9088 8.56259C10.0916 8.58716 10.3251 8.65036 10.5216 8.84686C10.7181 9.04336 10.7813 9.27685 10.8058 9.45962C10.8268 9.61563 10.8267 9.80046 10.8267 9.97139L10.8267 14.1668C10.8267 14.5119 10.5468 14.7918 10.2017 14.7918C9.85648 14.7918 9.57666 14.5119 9.57666 14.1668V10.0001C9.57666 9.91753 9.57663 9.8506 9.5757 9.79272Z" fill="#161616"/>
<path d="M9.99333 5.83342C9.53309 5.83342 9.15999 6.20651 9.15999 6.66675C9.15999 7.12699 9.53309 7.50008 9.99333 7.50008H10.0008C10.4611 7.50008 10.8341 7.12699 10.8341 6.66675C10.8341 6.20651 10.4611 5.83342 10.0008 5.83342H9.99333Z" fill="#161616"/>
<path fill-rule="evenodd" clip-rule="evenodd" d="M1.0415 10.0001C1.0415 14.9476 5.05229 18.9584 9.99984 18.9584C14.9474 18.9584 18.9582 14.9476 18.9582 10.0001C18.9582 5.05253 14.9474 1.04175 9.99984 1.04175C5.05229 1.04175 1.0415 5.05253 1.0415 10.0001ZM9.99984 17.7084C5.74264 17.7084 2.2915 14.2573 2.2915 10.0001C2.2915 5.74289 5.74264 2.29175 9.99984 2.29175C14.257 2.29175 17.7082 5.74289 17.7082 10.0001C17.7082 14.2573 14.257 17.7084 9.99984 17.7084Z" fill="#161616"/>
</svg>
