<svg width="18" height="18" viewBox="0 0 18 18" fill="none" xmlns="http://www.w3.org/2000/svg">
<g id="elements">
<g id="Icon">
<path fill-rule="evenodd" clip-rule="evenodd" d="M4.62498 9.00016C4.62498 6.58392 6.58373 4.62516 8.99998 4.62516C11.4162 4.62516 13.375 6.58392 13.375 9.00016C13.375 11.4164 11.4162 13.3752 8.99998 13.3752C6.58373 13.3752 4.62498 11.4164 4.62498 9.00016ZM8.99998 5.87516C7.27409 5.87516 5.87498 7.27427 5.87498 9.00016C5.87498 10.7261 7.27409 12.1252 8.99998 12.1252C10.7259 12.1252 12.125 10.7261 12.125 9.00016C12.125 7.27427 10.7259 5.87516 8.99998 5.87516Z" fill="white"/>
<path d="M13.5898 5.25016C14.0501 5.25016 14.4232 4.87707 14.4232 4.41683C14.4232 3.95659 14.0501 3.5835 13.5898 3.5835H13.5823C13.1221 3.5835 12.749 3.95659 12.749 4.41683C12.749 4.87707 13.1221 5.25016 13.5823 5.25016H13.5898Z" fill="white"/>
<path fill-rule="evenodd" clip-rule="evenodd" d="M9.04763 0.458496C10.8732 0.458485 12.3071 0.458477 13.4266 0.608991C14.5738 0.76323 15.4841 1.08576 16.1992 1.80092C16.9144 2.51609 17.2369 3.4263 17.3912 4.57352C17.5417 5.69302 17.5417 7.12692 17.5416 8.95249V9.0478C17.5417 10.8734 17.5417 12.3073 17.3912 13.4268C17.2369 14.574 16.9144 15.4842 16.1992 16.1994C15.4841 16.9146 14.5738 17.2371 13.4266 17.3913C12.3071 17.5418 10.8732 17.5418 9.04765 17.5418H8.95234C7.12676 17.5418 5.69284 17.5418 4.57333 17.3913C3.42612 17.2371 2.51591 16.9146 1.80074 16.1994C1.08558 15.4842 0.763047 14.574 0.608808 13.4268C0.458293 12.3073 0.458302 10.8734 0.458313 9.04781L0.458313 8.95252C0.458302 7.12693 0.458293 5.69303 0.608808 4.57352C0.763047 3.4263 1.08558 2.51609 1.80074 1.80092C2.51591 1.08576 3.42612 0.76323 4.57333 0.608991C5.69284 0.458477 7.12673 0.458485 8.95231 0.458496L9.04763 0.458496ZM4.73989 1.84784C3.73129 1.98345 3.12883 2.2406 2.68462 2.68481C2.24042 3.12901 1.98326 3.73147 1.84766 4.74008C1.70964 5.76666 1.70831 7.11652 1.70831 9.00016C1.70831 10.8838 1.70964 12.2337 1.84766 13.2602C1.98326 14.2689 2.24042 14.8713 2.68462 15.3155C3.12883 15.7597 3.73129 16.0169 4.73989 16.1525C5.76648 16.2905 7.11633 16.2918 8.99998 16.2918C10.8836 16.2918 12.2335 16.2905 13.2601 16.1525C14.2687 16.0169 14.8711 15.7597 15.3153 15.3155C15.7595 14.8713 16.0167 14.2689 16.1523 13.2602C16.2903 12.2337 16.2916 10.8838 16.2916 9.00016C16.2916 7.11652 16.2903 5.76666 16.1523 4.74007C16.0167 3.73147 15.7595 3.12901 15.3153 2.68481C14.8711 2.2406 14.2687 1.98345 13.2601 1.84784C12.2335 1.70982 10.8836 1.7085 8.99998 1.7085C7.11633 1.7085 5.76648 1.70982 4.73989 1.84784Z" fill="white"/>
</g>
</g>
</svg>
