<svg width="24" height="24" viewBox="0 0 24 24" fill="none" xmlns="http://www.w3.org/2000/svg">
<path d="M15.4447 6.60384C15.2833 6.72573 14.8016 7.08963 14.5239 7.30636C13.9677 7.74043 13.2286 8.33354 12.4917 8.97335C11.7511 9.61639 11.0298 10.2919 10.4995 10.892C10.2337 11.1929 10.0316 11.4573 9.90013 11.6754C9.77645 11.8805 9.75073 12.0017 9.75073 12.0017C9.75073 12.0017 9.77645 12.1194 9.90012 12.3245C10.0316 12.5426 10.2337 12.807 10.4995 13.1079C11.0298 13.708 11.7511 14.3835 12.4917 15.0265C13.2286 15.6663 13.9677 16.2595 14.5239 16.6935C14.8016 16.9103 15.2827 17.2737 15.4441 17.3955C15.7776 17.6412 15.8495 18.1112 15.6039 18.4447C15.3583 18.7782 14.8888 18.8495 14.5552 18.6038L14.5527 18.6019C14.3834 18.4741 13.8844 18.0972 13.6011 17.8761C13.0323 17.4322 12.2714 16.8217 11.5083 16.1592C10.7489 15.4999 9.97021 14.7742 9.37546 14.1011C9.07884 13.7654 8.81212 13.4251 8.6155 13.0989C8.43128 12.7933 8.25 12.4065 8.25 11.9999C8.25 11.5934 8.43129 11.2065 8.6155 10.901C8.81213 10.5748 9.07884 10.2345 9.37546 9.89881C9.97021 9.22569 10.7489 8.50002 11.5083 7.8407C12.2714 7.17815 13.0323 6.56772 13.601 6.12384C13.8846 5.90255 14.3836 5.52563 14.5525 5.39805L14.5547 5.3964C14.8882 5.15077 15.3582 5.22166 15.6038 5.55518C15.8495 5.88869 15.7782 6.3582 15.4447 6.60384Z" fill="#161616"/>
</svg>
