<svg width="16" height="16" viewBox="0 0 16 16" fill="none" xmlns="http://www.w3.org/2000/svg">
<path d="M2.16663 3.33325C2.16663 3.05711 2.39048 2.83325 2.66663 2.83325H13.3333C13.6094 2.83325 13.8333 3.05711 13.8333 3.33325C13.8333 3.6094 13.6094 3.83325 13.3333 3.83325L2.66663 3.83325C2.39048 3.83325 2.16663 3.60939 2.16663 3.33325Z" fill="#161616"/>
<path d="M7.58329 8.49992L13.3333 8.49992C13.6094 8.49992 13.8333 8.27606 13.8333 7.99992C13.8333 7.72378 13.6094 7.49992 13.3333 7.49992L2.66663 7.49992C2.39048 7.49992 2.16663 7.72378 2.16663 7.99992C2.16663 8.27606 2.39048 8.49992 2.66663 8.49992L5.08329 8.49992L5.93329 9.63325C6.02772 9.75915 6.17591 9.83325 6.33329 9.83325C6.49067 9.83325 6.63887 9.75915 6.73329 9.63325L7.58329 8.49992Z" fill="#161616"/>
<path d="M2.66663 12.1666C2.39048 12.1666 2.16663 12.3904 2.16663 12.6666C2.16663 12.9427 2.39048 13.1666 2.66663 13.1666L13.3333 13.1666C13.6094 13.1666 13.8333 12.9427 13.8333 12.6666C13.8333 12.3904 13.6094 12.1666 13.3333 12.1666L2.66663 12.1666Z" fill="#161616"/>
</svg>
