<svg width="24" height="24" viewBox="0 0 24 24" fill="none" xmlns="http://www.w3.org/2000/svg">
<path fill-rule="evenodd" clip-rule="evenodd" d="M12.1753 1.75H11.8247C11.0792 1.74998 10.4548 1.74996 9.94551 1.81026C9.40541 1.8742 8.91957 2.01269 8.48206 2.3397C8.04684 2.66501 7.77113 3.09351 7.54556 3.59636C7.34311 4.04765 7.15689 4.617 6.93775 5.29825C6.53745 5.32024 6.16828 5.35224 5.8285 5.39882C4.70783 5.55247 3.79596 5.87721 3.07751 6.60984C2.36106 7.34043 2.0453 8.26429 1.89556 9.40004C1.74997 10.5043 1.74999 11.9149 1.75 13.6947V13.8053C1.74999 15.5851 1.74997 16.9957 1.89556 18.1C2.0453 19.2357 2.36106 20.1596 3.07751 20.8902C3.79596 21.6228 4.70783 21.9475 5.8285 22.1012C6.91421 22.25 8.29998 22.25 10.0428 22.25H13.9572C15.7 22.25 17.0858 22.25 18.1715 22.1012C19.2922 21.9475 20.204 21.6228 20.9225 20.8902C21.6389 20.1596 21.9547 19.2357 22.1044 18.1C22.25 16.9957 22.25 15.5851 22.25 13.8053V13.6947C22.25 11.915 22.25 10.5043 22.1044 9.40004C21.9547 8.26429 21.6389 7.34043 20.9225 6.60984C20.204 5.87721 19.2922 5.55247 18.1715 5.39882C17.8317 5.35224 17.4625 5.32023 17.0622 5.29824C16.8431 4.617 16.6568 4.04765 16.4544 3.59636C16.2288 3.09351 15.9531 2.66501 15.5179 2.3397C15.0804 2.01269 14.5945 1.8742 14.0544 1.81026C13.5451 1.74996 12.9207 1.74998 12.1753 1.75ZM15.4707 5.25436C15.3261 4.81588 15.207 4.48061 15.0858 4.21031C14.9165 3.83303 14.7739 3.6563 14.6198 3.54117C14.4681 3.42775 14.268 3.34602 13.8781 3.29985C13.4673 3.25122 12.9321 3.25 12.1316 3.25H11.8684C11.0678 3.25 10.5326 3.25122 10.1219 3.29985C9.73197 3.34602 9.53184 3.42775 9.3801 3.54117C9.22608 3.6563 9.08341 3.83303 8.91416 4.21031C8.79291 4.48061 8.67386 4.81588 8.52922 5.25436C9.00086 5.24999 9.50485 5.25 10.0429 5.25H13.9571C14.4951 5.25 14.9991 5.24999 15.4707 5.25436ZM6.03224 6.88492C5.08332 7.01502 4.54303 7.25775 4.14848 7.66009C3.75194 8.06446 3.5112 8.62142 3.38269 9.59611C3.32044 10.0682 3.28739 10.6117 3.26985 11.25H20.7302C20.7126 10.6117 20.6796 10.0682 20.6173 9.59611C20.4888 8.62142 20.2481 8.06446 19.8515 7.66009C19.457 7.25775 18.9167 7.01502 17.9678 6.88492C16.9957 6.75166 15.7129 6.75 13.9 6.75H10.1C8.28705 6.75 7.00426 6.75166 6.03224 6.88492ZM3.25 13.75C3.25 13.3977 3.25006 13.0649 3.25106 12.75H6.25V20.6422C6.1757 20.6338 6.10314 20.6248 6.03224 20.6151C5.08332 20.485 4.54303 20.2422 4.14848 19.8399C3.75194 19.4355 3.5112 18.8786 3.38269 17.9039C3.25153 16.9091 3.25 15.5975 3.25 13.75ZM10.1 20.75C9.19318 20.75 8.419 20.7496 7.75 20.7325V12.75H16.25V20.7325C15.581 20.7496 14.8068 20.75 13.9 20.75H10.1ZM17.9678 20.6151C17.8969 20.6248 17.8243 20.6338 17.75 20.6422V12.75H20.7489C20.7499 13.0649 20.75 13.3977 20.75 13.75C20.75 15.5975 20.7485 16.9091 20.6173 17.9039C20.4888 18.8786 20.2481 19.4355 19.8515 19.8399C19.457 20.2422 18.9167 20.485 17.9678 20.6151Z" fill="#161616"/>
</svg>
