<svg width="16" height="16" viewBox="0 0 16 16" fill="none" xmlns="http://www.w3.org/2000/svg">
<path fill-rule="evenodd" clip-rule="evenodd" d="M6.98387 7.42539C7.31454 7.65406 7.57589 7.83405 7.99989 7.83405C8.42322 7.83405 8.68457 7.65402 9.01457 7.42669C9.99257 6.75536 10.5332 5.89072 10.4979 5.05338C10.4739 4.49538 10.1906 4.00938 9.7399 3.75338C9.15723 3.42072 8.51324 3.41735 7.99924 3.73802C7.4839 3.41735 6.84123 3.42138 6.25923 3.75338C5.8079 4.00938 5.52456 4.49605 5.50122 5.05338C5.46589 5.89005 6.00654 6.75539 6.98387 7.42539ZM6.75523 4.62135C6.91189 4.53202 7.04857 4.50071 7.16324 4.50071H7.16255C7.31855 4.50071 7.43388 4.55939 7.50321 4.60872L7.51057 4.61341L7.51396 4.61575C7.6862 4.73454 7.81112 4.8207 7.99989 4.8207C8.18989 4.8207 8.31588 4.73408 8.48921 4.61341L8.49657 4.60872C8.61724 4.52272 8.87522 4.41072 9.24588 4.62272C9.39789 4.70939 9.4899 4.88136 9.49924 5.09603C9.50857 5.32536 9.4259 5.93207 8.4479 6.60273C8.1499 6.80807 8.09989 6.83405 7.99989 6.83405C7.89989 6.83405 7.84987 6.80803 7.55054 6.60137C6.57387 5.93137 6.49054 5.32538 6.50054 5.09538C6.50921 4.88071 6.60189 4.70869 6.75389 4.62135H6.75523Z" fill="white"/>
<path fill-rule="evenodd" clip-rule="evenodd" d="M2.83325 4.00065V4.39903L2.24062 4.79329L2.21064 4.81335L2.20497 4.81718C1.59722 5.22809 1.26131 5.4552 1.04798 5.8513C0.83049 6.25701 0.831956 6.67201 0.834612 7.42397L0.83463 7.4293C0.837297 8.4213 0.847962 9.23596 0.866629 9.99596C0.919296 12.1093 0.948623 13.274 1.84329 14.168C2.74148 15.0662 3.91736 15.0926 6.04987 15.1405L6.05328 15.1406C6.70795 15.1573 7.35398 15.166 7.99931 15.166L8.0013 15.1667C8.64663 15.1667 9.29197 15.158 9.94531 15.1413L9.94812 15.1413C12.0823 15.0933 13.2584 15.0669 14.1566 14.1686C15.052 13.2746 15.0813 12.1107 15.1339 9.99401C15.1526 9.23601 15.1626 8.42135 15.166 7.43001C15.1686 6.67401 15.1699 6.25798 14.9519 5.85065C14.7379 5.45465 14.4013 5.22666 13.7893 4.814L13.1666 4.4003V4.00065C13.1666 2.64998 13.1666 1.90599 12.6306 1.37533C12.0933 0.833992 11.3499 0.833984 9.99992 0.833984H5.99992C4.64992 0.833984 3.90659 0.834005 3.37192 1.37201C2.83326 1.90534 2.83325 2.64932 2.83325 4.00065ZM12.1666 4.00065V7.5852L9.80125 9.00535L9.79572 9.00866C8.87674 9.55846 8.41509 9.83465 7.99992 9.83465C7.58502 9.83465 7.12371 9.5588 6.20656 9.01037L6.19927 9.00601L3.83325 7.58565V4.00065C3.83325 2.83732 3.84326 2.31335 4.0786 2.08001C4.3126 1.84401 4.83659 1.83398 5.99992 1.83398H9.99992C11.1626 1.83398 11.6866 1.84402 11.9239 2.08268C12.1566 2.31268 12.1666 2.83732 12.1666 4.00065ZM2.83325 5.60051V6.98534L1.89011 6.41915C1.90084 6.38429 1.91357 6.35333 1.92864 6.32533C2.02131 6.15199 2.23995 5.99998 2.76995 5.64264L2.83325 5.60051ZM13.1666 6.9848V5.6009L13.1993 5.62266L13.2293 5.64264C13.7593 5.99998 13.978 6.15196 14.0706 6.32396C14.0859 6.35222 14.0988 6.38344 14.1096 6.41861L13.1666 6.9848ZM1.8351 7.55238L5.68524 9.86336C6.73124 10.4894 7.30792 10.834 7.99992 10.834C8.69192 10.834 9.26859 10.4893 10.3153 9.86265L14.1648 7.55167C14.1611 8.47921 14.1512 9.25028 14.1333 9.97129L14.1331 9.97927C14.0832 11.9497 14.0605 12.8495 13.4486 13.4607C12.8573 14.0527 11.9933 14.0947 9.91995 14.1413C8.62795 14.1747 7.37196 14.1747 6.07796 14.1413C4.00662 14.0947 3.14195 14.052 2.55061 13.4607C1.93861 12.8493 1.91596 11.9473 1.86663 9.96862C1.84877 9.25094 1.83884 8.48078 1.8351 7.55238Z" fill="white"/>
</svg>
