<svg width="16" height="16" viewBox="0 0 16 16" fill="none" xmlns="http://www.w3.org/2000/svg">
<path fill-rule="evenodd" clip-rule="evenodd" d="M6.05452 14.806C6.70918 14.8227 7.35518 14.8314 8.00051 14.8314L8.0012 14.8327C8.64653 14.8327 9.29119 14.824 9.94452 14.8074C12.1025 14.7594 13.2905 14.7327 14.1885 13.836C15.0859 12.9474 15.1112 11.798 15.1565 9.71135C15.1785 8.69535 15.1672 7.71204 15.1219 6.69937C15.0932 6.0447 15.0752 5.64937 14.8572 5.27137C14.6377 4.88967 14.2949 4.66651 13.7302 4.29884L13.7259 4.29605L11.2159 2.64735C9.70854 1.66135 8.95185 1.16669 8.00051 1.16669C7.04918 1.16669 6.29254 1.66138 4.78254 2.64872L2.27721 4.29403C1.70721 4.66403 1.36387 4.88736 1.14387 5.26936C0.925619 5.64664 0.907941 6.04119 0.878707 6.69365L0.878542 6.69735V6.70406C0.833208 7.71072 0.821874 8.69403 0.843874 9.7107C0.889207 11.7967 0.91454 12.946 1.81054 13.8334C2.70939 14.7315 3.89724 14.758 6.05103 14.8059L6.05452 14.806ZM2.51588 13.124C1.90521 12.52 1.88587 11.6327 1.84387 9.68869C1.82675 8.89073 1.83066 8.11341 1.85564 7.32842L3.88402 8.79813C4.21802 9.03947 4.4947 9.23876 4.75137 9.41942C5.53203 9.97742 6.13869 10.1661 7.15736 10.1661H8.84271C9.86137 10.1661 10.4694 9.97744 11.246 9.42144C11.504 9.24011 11.7694 9.04875 12.1173 8.79742L14.1447 7.32865C14.1695 8.1134 14.173 8.89029 14.1559 9.68869C14.1139 11.6327 14.0945 12.5193 13.4825 13.1253C12.8905 13.7167 12.0172 13.7593 9.91985 13.806C8.62785 13.8393 7.37187 13.8393 6.07854 13.806C3.98321 13.7593 3.10921 13.7174 2.51588 13.124ZM14.0857 6.1363L11.5314 7.98674C11.1874 8.23541 10.924 8.42476 10.6673 8.60542C10.06 9.04009 9.65136 9.16545 8.84336 9.16545H7.15804C6.35004 9.16545 5.9407 9.04007 5.3307 8.60341C5.07536 8.42341 4.80069 8.22612 4.47002 7.98746L1.91456 6.13599C1.93289 5.96427 1.95998 5.85519 2.00986 5.76871C2.10652 5.60204 2.32852 5.45268 2.82385 5.13068L5.33186 3.48335C6.67319 2.60602 7.34653 2.16604 7.99986 2.16604C8.6532 2.16604 9.32652 2.606 10.6685 3.484L13.1779 5.13205C13.6719 5.45272 13.8939 5.60136 13.9905 5.76936C14.0403 5.8553 14.0674 5.96415 14.0857 6.1363Z" fill="white"/>
</svg>
