<svg width="22" height="26" viewBox="0 0 22 26" fill="none" xmlns="http://www.w3.org/2000/svg">
<g id="elements">
<g id="Icon">
<path fill-rule="evenodd" clip-rule="evenodd" d="M21.7917 9.50004C21.7917 4.50647 17.7436 0.458374 12.75 0.458374C7.75647 0.458374 3.70837 4.50647 3.70837 9.50004C3.70837 14.4936 7.75647 18.5417 12.75 18.5417C17.7436 18.5417 21.7917 14.4936 21.7917 9.50004ZM15.3413 2.68222C18.0891 3.72716 20.0417 6.38557 20.0417 9.50004C20.0417 9.60158 20.0396 9.70263 20.0355 9.80316C19.0722 9.87827 18.45 10.307 18.0104 10.61L17.971 10.6371C17.5029 10.9591 17.3385 11.0421 17.005 10.9754C15.529 10.6802 14.3465 10.6379 13.501 11.0286C13.0406 11.2413 12.6961 11.5747 12.4814 12.0067C12.277 12.418 12.2153 12.8677 12.2153 13.293C12.2153 14.0366 12.2089 14.2541 12.1654 14.4287C12.1263 14.5856 12.0529 14.7272 11.7273 15.287C11.5184 15.6463 11.302 16.1173 11.2921 16.6459C7.96362 15.9705 5.45837 13.0278 5.45837 9.50004C5.45837 7.64163 6.15361 5.94561 7.29818 4.65786C7.49296 4.76945 7.72078 4.98458 8.11673 5.40296C9.53506 6.9016 11.1737 7.20758 12.4264 6.54573C12.8795 6.30635 13.1841 5.99165 13.3713 5.61397C13.52 5.31391 13.5748 4.99904 13.6056 4.82184L13.6151 4.76775C13.652 4.56548 13.6736 4.51979 13.6907 4.49391C13.6963 4.48523 13.7435 4.41207 13.9727 4.32123C14.7078 4.02999 15.1793 3.45132 15.3261 2.76063C15.3316 2.73453 15.3367 2.70839 15.3413 2.68222ZM18.9628 12.0789C19.2395 11.8886 19.4642 11.7356 19.7219 11.6423C18.8372 14.5252 16.2134 16.6473 13.0743 16.7846C13.0709 16.7796 13.0681 16.7749 13.0657 16.7708C13.0481 16.7408 13.0431 16.7193 13.0419 16.6939C13.0386 16.6189 13.0708 16.4578 13.2401 16.1668L13.2846 16.0904C13.5453 15.6428 13.7569 15.2794 13.8635 14.8519C13.9659 14.4411 13.9656 13.9907 13.9653 13.3946L13.9653 13.293C13.9653 13.0228 14.0069 12.8694 14.0485 12.7855C14.08 12.7223 14.1243 12.6684 14.2351 12.6172C14.5321 12.4799 15.2211 12.4032 16.6618 12.6914C17.7551 12.91 18.4621 12.4235 18.9462 12.0904L18.9628 12.0789ZM13.6239 2.2602C13.3374 2.22598 13.0458 2.20837 12.75 2.20837C11.2271 2.20837 9.81325 2.67525 8.64375 3.47368C8.90371 3.68969 9.14179 3.94015 9.38776 4.20005C10.4185 5.28919 11.229 5.19914 11.609 4.9984C11.7642 4.91637 11.7928 4.85832 11.8026 4.83831L11.8033 4.83687C11.8343 4.77427 11.8473 4.70734 11.8935 4.45397C11.9321 4.24222 11.9992 3.87872 12.2316 3.52774C12.4774 3.15658 12.8443 2.88599 13.3281 2.69429C13.5298 2.61437 13.5919 2.50247 13.6143 2.39697C13.6226 2.35777 13.6265 2.31166 13.6239 2.2602Z" fill="#067647"/>
<path d="M10.7084 21.8775C4.75756 20.9104 0.208374 15.7854 0.208374 9.5963C0.208374 6.11258 1.65187 2.96309 3.97343 0.706006C4.31991 0.369142 4.87388 0.376943 5.21074 0.723429C5.54761 1.06991 5.53981 1.62388 5.19332 1.96074C3.19503 3.90354 1.95837 6.60663 1.95837 9.5963C1.95837 15.4964 6.78312 20.2917 12.75 20.2917C15.6939 20.2917 18.3599 19.1247 20.3068 17.2319C20.6532 16.895 21.2072 16.9028 21.5441 17.2493C21.8809 17.5958 21.8731 18.1497 21.5267 18.4866C19.2648 20.6856 16.1656 22.0417 12.75 22.0417C12.6526 22.0417 12.5553 22.0406 12.4584 22.0384V23.7917H13.9167C14.4 23.7917 14.7917 24.1835 14.7917 24.6667C14.7917 25.15 14.4 25.5417 13.9167 25.5417H9.25004C8.76679 25.5417 8.37504 25.15 8.37504 24.6667C8.37504 24.1835 8.76679 23.7917 9.25004 23.7917H10.7084V21.8775Z" fill="#067647"/>
</g>
</g>
</svg>
