<svg width="22" height="22" viewBox="0 0 22 22" fill="none" xmlns="http://www.w3.org/2000/svg">
<g id="elements">
<g id="Icon">
<path fill-rule="evenodd" clip-rule="evenodd" d="M5.61509 1.28702C5.33469 0.783989 4.8834 0.40325 4.31671 0.286125C3.74411 0.167778 3.16856 0.342349 2.69553 0.727891C0.979166 2.1268 -0.113669 4.36808 0.360627 6.7193C0.65217 8.16456 1.13788 9.59055 2.127 11.3153C4.11208 14.7766 7.21915 17.8854 10.6845 19.8728C12.4092 20.8619 13.8352 21.3476 15.2805 21.6391C17.6317 22.1134 19.873 21.0206 21.2719 19.3042C21.6574 18.8312 21.832 18.2556 21.7136 17.683C21.5965 17.1164 21.2158 16.6651 20.7127 16.3847L19.1103 15.4915C18.5201 15.1625 18.0234 14.8856 17.5916 14.7048C17.1336 14.513 16.682 14.399 16.1826 14.4511C15.6832 14.5032 15.2648 14.7078 14.8562 14.99C14.471 15.256 14.0422 15.6294 13.5325 16.0731L10.9735 18.301C8.07455 16.5323 5.46562 13.9222 3.69877 11.0263L5.92663 8.46723C6.37033 7.9576 6.74373 7.52873 7.00974 7.14355C7.29191 6.73496 7.49657 6.31652 7.54864 5.81716C7.60071 5.3178 7.4868 4.86614 7.29499 4.40813C7.11418 3.97635 6.83731 3.47967 6.5083 2.88947L5.61509 1.28702ZM15.5771 20.1688C14.5515 19.9619 13.537 19.6482 12.3706 19.0735L14.4864 17.2315C15.0353 16.7536 15.401 16.4368 15.7086 16.2243C16.0006 16.0226 16.1793 15.9596 16.3382 15.943C16.497 15.9265 16.6849 15.9513 17.0122 16.0883C17.3571 16.2328 17.7803 16.4674 18.4159 16.8217L19.9824 17.6949C20.1733 17.8013 20.2305 17.9182 20.2447 17.9867C20.2576 18.0492 20.2567 18.1755 20.1091 18.3566C18.9854 19.7353 17.2731 20.5109 15.5771 20.1688ZM4.76829 7.51332L2.9263 9.62912C2.35158 8.46275 2.03789 7.44827 1.83101 6.42269C1.48888 4.72664 2.26442 3.01438 3.6432 1.89062C3.82423 1.74307 3.9506 1.74216 4.0131 1.75508C4.08152 1.76922 4.1985 1.82649 4.30488 2.01734L5.17806 3.58385C5.53237 4.21949 5.76699 4.64266 5.91141 4.98753C6.0485 5.31489 6.07329 5.50274 6.05673 5.66158C6.04017 5.82042 5.97715 5.99911 5.77547 6.29115C5.563 6.5988 5.24612 6.96446 4.76829 7.51332Z" fill="#161616"/>
<path d="M13.8619 0.279187C13.4639 0.16434 13.0482 0.39386 12.9333 0.791834C12.8185 1.18981 13.048 1.60553 13.446 1.72038C16.7356 2.66969 19.3299 5.26388 20.2793 8.55339C20.3942 8.95136 20.8099 9.18086 21.2079 9.066C21.6058 8.95113 21.8353 8.5354 21.7205 8.13743C20.6281 4.35273 17.6467 1.3714 13.8619 0.279187Z" fill="#161616"/>
<path d="M13.293 5.1413C12.9118 4.9794 12.4715 5.15722 12.3096 5.53848C12.1477 5.91974 12.3255 6.36007 12.7067 6.52197C13.9511 7.05041 14.9493 8.04855 15.4777 9.29294C15.6397 9.6742 16.08 9.85202 16.4612 9.69011C16.8425 9.52821 17.0203 9.08788 16.8584 8.70662C16.1781 7.10455 14.8951 5.82163 13.293 5.1413Z" fill="#161616"/>
</g>
</g>
</svg>
