<svg width="16" height="16" viewBox="0 0 16 16" fill="none" xmlns="http://www.w3.org/2000/svg">
<path fill-rule="evenodd" clip-rule="evenodd" d="M3.86299 4.50005C4.10999 2.4346 5.86799 0.833379 7.99996 0.833379C10.1319 0.833379 11.8899 2.4346 12.1369 4.50005L12.9763 4.50005C13.3045 4.50001 13.6034 4.49997 13.8427 4.53496C14.1059 4.57342 14.3861 4.66542 14.595 4.92041C14.8015 5.17263 14.84 5.46482 14.8324 5.73049C14.8253 5.97592 14.775 6.27629 14.7189 6.61065L13.9058 11.4607C13.7774 12.227 13.6735 12.8468 13.5305 13.3314C13.382 13.8348 13.1754 14.2521 12.8036 14.5743C12.4303 14.8977 11.9909 15.0382 11.4777 15.1039C10.9867 15.1667 10.3731 15.1667 9.61896 15.1667L6.38095 15.1667C5.62686 15.1667 5.01323 15.1667 4.52224 15.1039C4.00903 15.0382 3.56966 14.8977 3.19633 14.5743C2.82451 14.2521 2.61791 13.8348 2.46937 13.3314C2.32642 12.8468 2.22253 12.227 2.09409 11.4608L1.28104 6.61067C1.22495 6.27631 1.17457 5.97592 1.16752 5.73049C1.15988 5.46482 1.19839 5.17263 1.40496 4.92042C1.6138 4.66542 1.89406 4.57342 2.15717 4.53496C2.39647 4.49997 2.69544 4.50001 3.02357 4.50005L3.86299 4.50005ZM4.87254 4.50005C5.11227 2.98872 6.42119 1.83338 7.99996 1.83338C9.57873 1.83338 10.8877 2.98872 11.1274 4.50005L4.87254 4.50005ZM2.1758 5.56396C2.17688 5.55965 2.17781 5.5568 2.17841 5.55514L2.18132 5.55373C2.19488 5.54744 2.22906 5.53508 2.30183 5.52444C2.45999 5.50132 2.6843 5.50005 3.05705 5.50005L12.9429 5.50005C13.3156 5.50005 13.5399 5.50132 13.6981 5.52444C13.7709 5.53508 13.805 5.54745 13.8186 5.55373L13.8215 5.55514C13.8221 5.5568 13.823 5.55966 13.8241 5.56396C13.8289 5.58302 13.8351 5.62369 13.8328 5.70178C13.828 5.86969 13.7904 6.10075 13.7273 6.47726L12.9249 11.2637C12.7899 12.0692 12.6952 12.6288 12.5714 13.0484C12.4512 13.4557 12.3199 13.6702 12.1488 13.8185C11.9792 13.9654 11.7558 14.0601 11.3507 14.112C10.9306 14.1658 10.3812 14.1667 9.58541 14.1667L6.4145 14.1667C5.61873 14.1667 5.06934 14.1658 4.64925 14.112C4.2441 14.0601 4.0207 13.9654 3.85112 13.8185C3.68002 13.6702 3.54868 13.4557 3.42851 13.0484C3.30473 12.6288 3.21005 12.0692 3.07501 11.2637L2.27263 6.47726C2.20951 6.10075 2.17193 5.86969 2.1671 5.70178C2.16486 5.62369 2.17101 5.58302 2.1758 5.56396Z" fill="#161616"/>
</svg>
