<svg width="24" height="24" viewBox="0 0 24 24" fill="none" xmlns="http://www.w3.org/2000/svg">
<path d="M7.89512 13.8853C6.53182 13.3039 5.34957 12.4974 4.38009 11.6819L2.53176 13.5302C2.38576 13.6762 2.19378 13.7502 2.00178 13.7502H2.00071C1.80871 13.7502 1.61673 13.6772 1.47073 13.5302C1.17773 13.2372 1.17773 12.7623 1.47073 12.4693L3.274 10.666C2.10969 9.50192 1.44234 8.51728 1.37529 8.41632C1.14529 8.07132 1.2382 7.60628 1.5832 7.37628C1.9282 7.14628 2.39324 7.23929 2.62324 7.58429C2.66124 7.64029 6.48122 13.2503 11.9992 13.2503C17.5172 13.2503 21.3373 7.64031 21.3753 7.58331C21.6053 7.23931 22.0712 7.14628 22.4152 7.37628C22.7592 7.60628 22.8522 8.07135 22.6232 8.41535C22.5562 8.51626 21.8894 9.50009 20.726 10.6635L22.5318 12.4693C22.8248 12.7623 22.8248 13.2372 22.5318 13.5302C22.3858 13.6762 22.1938 13.7502 22.0018 13.7502H22.0007C21.8087 13.7502 21.6167 13.6772 21.4707 13.5302L19.62 11.6795C18.6508 12.4951 17.4687 13.3017 16.1056 13.8833L17.144 15.6139C17.357 15.9689 17.2419 16.4299 16.8869 16.6429C16.7659 16.7149 16.633 16.75 16.502 16.75C16.247 16.75 15.9989 16.62 15.8579 16.386L14.6594 14.3885C13.8248 14.6162 12.9362 14.7493 11.9992 14.7493C11.0632 14.7493 10.1754 14.6174 9.34149 14.3901L8.14397 16.386C8.00297 16.62 7.75493 16.75 7.49993 16.75C7.36893 16.75 7.23597 16.7159 7.11497 16.6429C6.75997 16.4299 6.64494 15.9689 6.85794 15.6139L7.89512 13.8853Z" fill="#161616"/>
</svg>
