<svg width="20" height="20" viewBox="0 0 20 20" fill="none" xmlns="http://www.w3.org/2000/svg">
<g id="Leading Icon">
<path id="Icon" d="M6.57924 11.5712C5.44316 11.0867 4.45796 10.4146 3.65005 9.73498L2.10978 11.2752C1.98811 11.3969 1.82813 11.4586 1.66813 11.4586H1.66724C1.50724 11.4586 1.34725 11.3977 1.22559 11.2752C0.981418 11.0311 0.981418 10.6353 1.22559 10.3911L2.72831 8.88841C1.75805 7.91835 1.20193 7.09781 1.14606 7.01368C0.95439 6.72618 1.03182 6.33865 1.31932 6.14698C1.60682 5.95532 1.99435 6.03282 2.18601 6.32032C2.21768 6.36699 5.401 11.042 9.99933 11.042C14.5977 11.042 17.7811 6.36701 17.8127 6.31951C18.0044 6.03284 18.3927 5.95532 18.6793 6.14698C18.966 6.33865 19.0435 6.7262 18.8527 7.01287C18.7968 7.09696 18.2412 7.91683 17.2717 8.88634L18.7764 10.3911C19.0206 10.6353 19.0206 11.0311 18.7764 11.2752C18.6548 11.3969 18.4948 11.4586 18.3348 11.4586H18.3339C18.1739 11.4586 18.0139 11.3977 17.8923 11.2752L16.35 9.73301C15.5423 10.4127 14.5573 11.0849 13.4213 11.5695L14.2866 13.0117C14.4641 13.3075 14.3683 13.6917 14.0724 13.8692C13.9716 13.9292 13.8608 13.9584 13.7516 13.9584C13.5391 13.9584 13.3324 13.8501 13.2149 13.6551L12.2162 11.9905C11.5207 12.1802 10.7801 12.2912 9.99933 12.2912C9.21929 12.2912 8.47946 12.1813 7.78455 11.9919L6.78662 13.6551C6.66912 13.8501 6.46242 13.9584 6.24992 13.9584C6.14075 13.9584 6.02995 13.93 5.92912 13.8692C5.63329 13.6917 5.53743 13.3075 5.71493 13.0117L6.57924 11.5712Z" fill="white"/>
</g>
</svg>
