<svg width="24" height="24" viewBox="0 0 24 24" fill="none" xmlns="http://www.w3.org/2000/svg">
<path fill-rule="evenodd" clip-rule="evenodd" d="M13.8481 9.14192L13.7663 9.09685C12.9419 8.64251 12.2675 8.27092 11.7124 8.04103C11.1489 7.80766 10.5709 7.65886 9.98253 7.81307C9.64827 7.90068 9.33449 8.05619 9.06634 8.27298C8.57404 8.67099 8.40002 9.24087 8.32367 9.81517C8.24982 10.3707 8.24985 11.0892 8.24988 11.9466V12.0535C8.24985 12.9108 8.24982 13.6294 8.32367 14.1849C8.40002 14.7592 8.57404 15.3291 9.06634 15.7271C9.33449 15.9439 9.64827 16.0994 9.98253 16.187C10.5709 16.3412 11.1489 16.1924 11.7124 15.959C12.2676 15.7291 12.9419 15.3576 13.7664 14.9032L13.8481 14.8581C14.6025 14.4425 15.2256 14.0992 15.6739 13.781C16.1232 13.4623 16.5494 13.0673 16.6905 12.4913C16.7697 12.168 16.7697 11.8321 16.6905 11.5087C16.5494 10.9327 16.1232 10.5378 15.6739 10.219C15.2256 9.9009 14.6025 9.55759 13.8481 9.14192ZM10.3628 9.26406C10.4701 9.23595 10.6694 9.23262 11.1385 9.4269C11.6071 9.62093 12.208 9.95082 13.0828 10.4328C13.889 10.8771 14.4358 11.1797 14.806 11.4424C15.1835 11.7102 15.2262 11.8357 15.2335 11.8656C15.2553 11.9545 15.2553 12.0456 15.2335 12.1345C15.2262 12.1643 15.1835 12.2898 14.806 12.5577C14.4358 12.8203 13.889 13.123 13.0828 13.5672C12.208 14.0493 11.6071 14.3791 11.1385 14.5732C10.6694 14.7674 10.4701 14.7641 10.3628 14.736C10.2259 14.7001 10.1057 14.6385 10.0094 14.5606C9.96371 14.5237 9.86874 14.4246 9.81059 13.9872C9.75147 13.5425 9.74988 12.925 9.74988 12C9.74988 11.0751 9.75147 10.4575 9.81059 10.0128C9.86874 9.57545 9.96371 9.47638 10.0094 9.43945C10.1057 9.36161 10.2259 9.29996 10.3628 9.26406Z" fill="white"/>
<path fill-rule="evenodd" clip-rule="evenodd" d="M11.9999 2.75C10.1413 2.75 8.3556 2.93356 6.69662 3.27174L6.56934 3.29766C4.67471 3.68329 3.41231 3.94024 2.32445 5.33892C1.24828 6.72258 1.24888 8.3272 1.24981 10.8124L1.24981 13.1876C1.24888 15.6728 1.24828 17.2774 2.32445 18.6611C3.41231 20.0598 4.67471 20.3167 6.56934 20.7023L6.69662 20.7283C8.3556 21.0664 10.1413 21.25 11.9999 21.25C13.8585 21.25 15.6441 21.0664 17.3031 20.7283L17.4304 20.7023C19.325 20.3167 20.5874 20.0598 21.6753 18.6611C22.7515 17.2774 22.7509 15.6728 22.7499 13.1876V10.8124C22.7509 8.3272 22.7515 6.72258 21.6753 5.33892C20.5874 3.94024 19.325 3.68329 17.4304 3.29766L17.3031 3.27174C15.6441 2.93356 13.8585 2.75 11.9999 2.75ZM6.99622 4.74151C8.55391 4.42398 10.2391 4.25 11.9999 4.25C13.7606 4.25 15.4458 4.42398 17.0035 4.74151C19.0556 5.15982 19.7701 5.3326 20.4912 6.25983C21.2163 7.19201 21.2499 8.23864 21.2499 11.0365V12.9635C21.2499 15.7614 21.2163 16.808 20.4912 17.7402C19.7701 18.6674 19.0556 18.8402 17.0035 19.2585C15.4458 19.576 13.7606 19.75 11.9999 19.75C10.2391 19.75 8.55391 19.576 6.99622 19.2585C4.94413 18.8402 4.22966 18.6674 3.50848 17.7402C2.78346 16.808 2.74987 15.7614 2.74987 12.9635L2.74987 11.0365C2.74987 8.23864 2.78346 7.19201 3.50848 6.25983C4.22966 5.3326 4.94413 5.15982 6.99622 4.74151Z" fill="white"/>
</svg>
