<svg width="20" height="20" viewBox="0 0 20 20" fill="none" xmlns="http://www.w3.org/2000/svg">
<path d="M5.06082 2.28871C5.40436 2.25514 5.65564 1.94943 5.62207 1.60589C5.5885 1.26235 5.28279 1.01106 4.93925 1.04463C3.77189 1.1587 2.84843 1.42814 2.1383 2.13827C1.42817 2.8484 1.15873 3.77185 1.04466 4.93922C1.01109 5.28276 1.26238 5.58847 1.60592 5.62204C1.94946 5.65561 2.25517 5.40433 2.28874 5.06079C2.39217 4.00232 2.61557 3.42877 3.02219 3.02215C3.42881 2.61554 4.00235 2.39214 5.06082 2.28871Z" fill="white"/>
<path d="M15.0608 1.04463C14.7173 1.01106 14.4116 1.26235 14.378 1.60589C14.3444 1.94943 14.5957 2.25514 14.9393 2.28871C15.9977 2.39214 16.5713 2.61554 16.9779 3.02215C17.3845 3.42877 17.6079 4.00232 17.7113 5.06079C17.7449 5.40433 18.0506 5.65561 18.3942 5.62204C18.7377 5.58847 18.989 5.28276 18.9554 4.93922C18.8413 3.77185 18.5719 2.8484 17.8618 2.13827C17.1516 1.42814 16.2282 1.1587 15.0608 1.04463Z" fill="white"/>
<path d="M8.33337 1.04167C7.98819 1.04167 7.70837 1.32149 7.70837 1.66667C7.70837 2.01185 7.98819 2.29167 8.33337 2.29167H11.6667C12.0119 2.29167 12.2917 2.01185 12.2917 1.66667C12.2917 1.32149 12.0119 1.04167 11.6667 1.04167L8.33337 1.04167Z" fill="white"/>
<path d="M2.2917 8.33334C2.2917 7.98816 2.01188 7.70834 1.6667 7.70834C1.32152 7.70834 1.0417 7.98816 1.0417 8.33334L1.0417 11.6667C1.0417 12.0118 1.32152 12.2917 1.6667 12.2917C2.01188 12.2917 2.2917 12.0118 2.2917 11.6667L2.2917 8.33334Z" fill="white"/>
<path d="M2.28874 14.9392C2.25517 14.5957 1.94946 14.3444 1.60592 14.378C1.26238 14.4115 1.01109 14.7172 1.04466 15.0608C1.15873 16.2282 1.42817 17.1516 2.1383 17.8617C2.84843 18.5719 3.77189 18.8413 4.93925 18.9554C5.28279 18.9889 5.5885 18.7377 5.62207 18.3941C5.65564 18.0506 5.40436 17.7449 5.06082 17.7113C4.00236 17.6079 3.42881 17.3845 3.02219 16.9779C2.61557 16.5712 2.39217 15.9977 2.28874 14.9392Z" fill="white"/>
<path d="M10.7501 11.75C10.4049 11.75 10.1251 12.0298 10.1251 12.375C10.1251 12.7201 10.4049 13 10.7501 13H14.0001C14.3453 13 14.6251 12.7201 14.6251 12.375C14.6251 12.0298 14.3453 11.75 14.0001 11.75H10.7501Z" fill="white"/>
<path fill-rule="evenodd" clip-rule="evenodd" d="M12.3751 6.87496C9.33753 6.87496 6.87509 9.33739 6.87509 12.375C6.87509 15.4125 9.33753 17.875 12.3751 17.875C13.6687 17.875 14.858 17.4284 15.7972 16.6809L17.8915 18.7752C18.1356 19.0193 18.5313 19.0193 18.7754 18.7752C19.0194 18.5312 19.0194 18.1354 18.7754 17.8913L16.6811 15.7971C17.4285 14.8578 17.8751 13.6686 17.8751 12.375C17.8751 9.33739 15.4127 6.87496 12.3751 6.87496ZM8.12509 12.375C8.12509 10.0277 10.0279 8.12496 12.3751 8.12496C14.7223 8.12496 16.6251 10.0277 16.6251 12.375C16.6251 14.7222 14.7223 16.625 12.3751 16.625C10.0279 16.625 8.12509 14.7222 8.12509 12.375Z" fill="white"/>
</svg>
