<svg width="16" height="4" viewBox="0 0 16 4" fill="none" xmlns="http://www.w3.org/2000/svg">
<g id="elements">
<g id="Icon">
<path d="M1.99982 0.75C1.30946 0.75 0.749817 1.30964 0.749817 2C0.749817 2.69036 1.30946 3.25 1.99982 3.25H2.0088C2.69915 3.25 3.2588 2.69036 3.2588 2C3.2588 1.30964 2.69915 0.75 2.0088 0.75H1.99982Z" fill="#161616"/>
<path d="M6.74591 2C6.74591 1.30964 7.30555 0.75 7.99591 0.75H8.00489C8.69525 0.75 9.25489 1.30964 9.25489 2C9.25489 2.69036 8.69525 3.25 8.00489 3.25H7.99591C7.30555 3.25 6.74591 2.69036 6.74591 2Z" fill="#161616"/>
<path d="M12.7498 2C12.7498 1.30964 13.3095 0.75 13.9998 0.75H14.0088C14.6992 0.75 15.2588 1.30964 15.2588 2C15.2588 2.69036 14.6992 3.25 14.0088 3.25H13.9998C13.3095 3.25 12.7498 2.69036 12.7498 2Z" fill="#161616"/>
</g>
</g>
</svg>
