<svg width="29" height="28" viewBox="0 0 29 28" fill="none" xmlns="http://www.w3.org/2000/svg">
<path d="M19.7913 6.3735C19.7642 6.35657 19.7377 6.34099 19.7121 6.32672C19.4681 6.19084 19.1134 6.06807 18.7348 6.11628C18.7252 6.11749 18.7157 6.11886 18.7062 6.12039L16.5182 6.47256C16.0411 6.54935 15.7165 6.99837 15.7933 7.47548C15.8701 7.95259 16.3191 8.27711 16.7962 8.20032L17.6311 8.06596C14.1698 12.5369 9.57275 12.6002 7.35288 12.5262C6.86989 12.5101 6.46532 12.8886 6.44922 13.3716C6.43313 13.8546 6.81162 14.2591 7.2946 14.2752C9.69958 14.3554 15.1574 14.2893 19.1532 8.95689L19.3408 9.57683C19.4808 10.0394 19.9693 10.3008 20.4318 10.1608C20.8943 10.0208 21.1558 9.53241 21.0158 9.06988L20.4372 7.15836C20.4311 7.13818 20.4243 7.11823 20.4168 7.09854C20.2882 6.76329 20.0373 6.53296 19.8175 6.39018C19.8089 6.38449 19.8002 6.37893 19.7913 6.3735Z" fill="#067647"/>
<path d="M21.0412 15.1666C21.0412 14.6834 20.6494 14.2916 20.1662 14.2916C19.6829 14.2916 19.2912 14.6834 19.2912 15.1666V21C19.2912 21.4832 19.6829 21.875 20.1662 21.875C20.6494 21.875 21.0412 21.4832 21.0412 21V15.1666Z" fill="#067647"/>
<path d="M14.3328 16.625C14.8161 16.625 15.2078 17.0167 15.2078 17.5V21C15.2078 21.4832 14.8161 21.875 14.3328 21.875C13.8496 21.875 13.4578 21.4832 13.4578 21V17.5C13.4578 17.0167 13.8496 16.625 14.3328 16.625Z" fill="#067647"/>
<path d="M8.49951 17.7916C8.98276 17.7916 9.37451 18.1834 9.37451 18.6666V21C9.37451 21.4832 8.98276 21.875 8.49951 21.875C8.01626 21.875 7.62451 21.4832 7.62451 21V18.6666C7.62451 18.1834 8.01626 17.7916 8.49951 17.7916Z" fill="#067647"/>
<path fill-rule="evenodd" clip-rule="evenodd" d="M14.3995 2.04163H14.266C11.7103 2.04161 9.70284 2.0416 8.13554 2.25231C6.52944 2.46825 5.25514 2.91979 4.25391 3.92102C3.25268 4.92226 2.80114 6.19656 2.5852 7.80266C2.37448 9.36998 2.3745 11.3774 2.37451 13.9333V14.0667C2.3745 16.6225 2.37448 18.6299 2.5852 20.1972C2.80114 21.8034 3.25268 23.0777 4.25389 24.0789C5.25513 25.0802 6.52945 25.5317 8.13555 25.7477C9.70265 25.9583 11.7098 25.9583 14.2651 25.9583H14.4006C16.9559 25.9583 18.963 25.9583 20.5302 25.7477C22.1363 25.5317 23.4106 25.0802 24.4119 24.0789C25.413 23.0777 25.8646 21.8033 26.0805 20.1972C26.2912 18.6299 26.2912 16.6225 26.2912 14.0667V13.9322C26.2912 11.3769 26.2912 9.36976 26.0805 7.80266C25.8646 6.19656 25.4131 4.92225 24.4118 3.92101C23.4106 2.91979 22.1362 2.46825 20.5301 2.25232C18.9628 2.0416 16.9553 2.04161 14.3995 2.04163ZM5.49135 5.15846C6.11323 4.53657 6.95667 4.17655 8.36872 3.98671C9.80594 3.79348 11.6957 3.79163 14.3328 3.79163C16.9699 3.79163 18.8597 3.79348 20.297 3.98671C21.709 4.17656 22.5525 4.53658 23.1744 5.15847C23.7963 5.78035 24.1563 6.62378 24.3461 8.03582C24.5393 9.47305 24.5412 11.3628 24.5412 14C24.5412 16.637 24.5393 18.5268 24.3461 19.9641C24.1563 21.3761 23.7962 22.2196 23.1744 22.8415C22.5525 23.4634 21.7091 23.8234 20.297 24.0133C18.8598 24.2065 16.9699 24.2083 14.3328 24.2083C11.6957 24.2083 9.80593 24.2065 8.36871 24.0133C6.95666 23.8234 6.11323 23.4634 5.49136 22.8415C4.86946 22.2196 4.50944 21.3761 4.3196 19.9641C4.12637 18.5268 4.12451 16.637 4.12451 14C4.12451 11.3629 4.12637 9.47306 4.3196 8.03584C4.50944 6.62379 4.86946 5.78035 5.49135 5.15846Z" fill="#067647"/>
</svg>
