<svg width="178" height="35" viewBox="0 0 178 35" fill="none" xmlns="http://www.w3.org/2000/svg">
<path d="M16.4167 0.0893593C12.4583 0.0893593 9.25 7.81702 9.25 17.3489C9.25 26.8808 12.4583 34.6085 16.4167 34.6085C20.375 34.6085 23.5833 26.8808 23.5833 17.3489C23.5833 7.81702 20.375 0.0893593 16.4167 0.0893593ZM16.6417 33.8936C12.9833 33.8936 10.025 26.634 10.025 17.6808C10.025 8.72765 12.9917 1.46808 16.6417 1.46808C20.2917 1.46808 23.2583 8.72765 23.2583 17.6808C23.2583 26.634 20.2917 33.8936 16.6417 33.8936Z" fill="#0B6D39"/>
<path d="M1.04163 8.6C-1.03337 12.2085 4.04163 19.1872 12.375 24.183C20.7083 29.1787 29.15 30.3021 31.225 26.6936C33.3 23.0851 28.225 16.1064 19.8916 11.1106C11.5583 6.11489 3.11663 4.99149 1.04163 8.6ZM30.7166 26.1064C28.8 29.4426 20.9 28.3362 13.0666 23.6468C5.23329 18.9574 0.441626 12.4468 2.35829 9.11064C4.27496 5.77446 12.175 6.88085 20.0083 11.5702C27.8416 16.2596 32.6333 22.7702 30.7166 26.1064Z" fill="#C99D43"/>
<path d="M23.4 13.4596C23.2666 13.3574 23.1333 13.2553 22.9916 13.1617C23.0083 13.3064 23.025 13.4511 23.0416 13.5957C23.175 13.6979 23.3083 13.7915 23.4416 13.8936C23.4333 13.7489 23.4166 13.6043 23.4 13.4681V13.4596Z" fill="#0B6D39"/>
<path d="M23.4 13.4596C23.2666 13.3574 23.1333 13.2553 22.9916 13.1617C23.0083 13.3064 23.025 13.4511 23.0416 13.5957C23.175 13.6979 23.3083 13.7915 23.4416 13.8936C23.4333 13.7489 23.4166 13.6043 23.4 13.4681V13.4596Z" fill="#0B6D39"/>
<path d="M10.6416 7.11915C10.5916 7.28085 10.5416 7.44255 10.4916 7.61276C10.7833 7.68085 11.0833 7.74894 11.3833 7.82553C11.4333 7.67234 11.4833 7.51064 11.5333 7.36596C11.2333 7.28085 10.9333 7.19574 10.6416 7.11915Z" fill="#0B6D39"/>
<path d="M10.6416 7.11915C10.5916 7.28085 10.5416 7.44255 10.4916 7.61276C10.7833 7.68085 11.0833 7.74894 11.3833 7.82553C11.4333 7.67234 11.4833 7.51064 11.5333 7.36596C11.2333 7.28085 10.9333 7.19574 10.6416 7.11915Z" fill="#0B6D39"/>
<path d="M12.375 11.1021C4.04163 16.0979 -1.03337 23.0766 1.04163 26.6851C3.11663 30.2936 11.5583 29.1787 19.8916 24.1745C28.225 19.1787 33.3 12.2 31.225 8.59149C29.15 4.98298 20.7083 6.09787 12.375 11.1021ZM12.2583 11.5702C20.0916 6.88085 27.9916 5.77447 29.9083 9.11064C31.825 12.4468 27.025 18.9489 19.2 23.6468C11.3666 28.3362 3.46662 29.4426 1.54996 26.1064C-0.366708 22.7702 4.43329 16.2681 12.2583 11.5702Z" fill="#1D9BD7"/>
<path d="M4.89997 16.9319C4.67497 17.1702 4.44997 17.4 4.24164 17.6383C4.3083 17.7149 4.3833 17.7915 4.44997 17.8681C4.6583 17.6298 4.87497 17.4 5.09997 17.1617C5.0333 17.0851 4.96664 17.0085 4.89997 16.9234V16.9319ZM16.1333 9.11063C15.975 9.18723 15.8166 9.25531 15.6583 9.33191C15.8166 9.4 15.975 9.46808 16.1333 9.54468C16.2916 9.47659 16.45 9.4 16.6083 9.33191C16.45 9.25531 16.2916 9.17872 16.1333 9.11063Z" fill="#AA993D"/>
<path d="M4.89997 16.9319C4.67497 17.1702 4.44997 17.4 4.24164 17.6383C4.3083 17.7149 4.3833 17.7915 4.44997 17.8681C4.6583 17.6298 4.87497 17.4 5.09997 17.1617C5.0333 17.0851 4.96664 17.0085 4.89997 16.9234V16.9319ZM16.1333 9.11063C15.975 9.18723 15.8166 9.25531 15.6583 9.33191C15.8166 9.4 15.975 9.46808 16.1333 9.54468C16.2916 9.47659 16.45 9.4 16.6083 9.33191C16.45 9.25531 16.2916 9.17872 16.1333 9.11063Z" fill="#AA993D"/>
<path d="M22.15 6.99149C21.9833 7.02553 21.825 7.06809 21.6583 7.11064C21.7166 7.27234 21.7666 7.43404 21.825 7.60426C21.9833 7.57021 22.15 7.53617 22.3083 7.50213C22.2583 7.33192 22.2083 7.1617 22.1583 6.99149H22.15ZM9.47495 13.017C9.45829 13.1617 9.44996 13.2979 9.43329 13.4426C9.72496 13.2298 10.025 13.017 10.3333 12.8128C10.35 12.6681 10.375 12.5234 10.3916 12.3787C10.0833 12.5915 9.77495 12.8043 9.48329 13.017H9.47495Z" fill="#0B6D39"/>
<path d="M11.8333 6.42127C12.809 6.42127 13.6 5.61348 13.6 4.61702C13.6 3.62056 12.809 2.81276 11.8333 2.81276C10.8576 2.81276 10.0667 3.62056 10.0667 4.61702C10.0667 5.61348 10.8576 6.42127 11.8333 6.42127Z" fill="#177142"/>
<path d="M7.47498 29.8255C8.45068 29.8255 9.24165 29.0177 9.24165 28.0213C9.24165 27.0248 8.45068 26.217 7.47498 26.217C6.49928 26.217 5.70831 27.0248 5.70831 28.0213C5.70831 29.0177 6.49928 29.8255 7.47498 29.8255Z" fill="#1D9BD7"/>
<path d="M29.4917 22.1489C30.4674 22.1489 31.2584 21.3411 31.2584 20.3447C31.2584 19.3482 30.4674 18.5404 29.4917 18.5404C28.516 18.5404 27.725 19.3482 27.725 20.3447C27.725 21.3411 28.516 22.1489 29.4917 22.1489Z" fill="#C99D43"/>
<path d="M13.3 18.6936C14.5083 18.5234 15.5917 18.7872 16.5667 19.5191C16.725 19.6383 16.725 19.6383 16.8833 19.5106C17.8 18.8043 18.825 18.5489 19.9583 18.6766C20.0083 18.6766 20.05 18.6851 20.1 18.6936C20.1 18.6936 20.1 18.6936 20.1333 18.7106C19.9583 18.7277 19.8 18.7447 19.6417 18.7617C18.8667 18.8468 18.1333 19.0681 17.4667 19.5021C17.3083 19.6043 17.1667 19.7234 17.025 19.8511C16.9667 19.9021 16.975 19.9362 17.025 19.9872C17.2083 20.1574 17.4 20.3362 17.5833 20.5149C17.6417 20.5745 17.675 20.5574 17.6917 20.4894C17.7167 20.4213 17.7333 20.3532 17.7667 20.2851C17.85 20.1319 18.0583 20.0553 18.1917 20.1319C18.3 20.1915 18.35 20.3106 18.3167 20.4298C18.2833 20.5404 18.1917 20.617 18.0667 20.6085C18.025 20.6085 17.9833 20.5915 17.9417 20.583C17.9083 20.583 17.875 20.5319 17.8417 20.583C17.8167 20.6255 17.8083 20.6681 17.8333 20.7021C17.9 20.8213 18.0083 20.8723 18.1333 20.9234C18.175 20.9404 18.1917 20.8979 18.225 20.8723C18.3167 20.8043 18.4417 20.8043 18.525 20.8723C18.6083 20.9319 18.65 21.017 18.625 21.1277C18.6083 21.2213 18.5417 21.2723 18.45 21.2979C18.2417 21.3574 18.0667 21.2894 17.8917 21.1872C17.8 21.1362 17.725 21.034 17.6333 21.0255C17.55 21.017 17.5 21.1532 17.4167 21.2043C17.2167 21.3404 17.0167 21.3489 16.8833 21.2298C16.775 21.1277 16.775 20.983 16.875 20.8723C16.975 20.7617 17.1417 20.7532 17.2417 20.8553C17.2667 20.8723 17.275 20.8979 17.2833 20.9319C17.2833 20.966 17.2833 21 17.325 21.0085C17.3667 21.0085 17.3917 20.9915 17.4167 20.9574C17.4417 20.9319 17.4333 20.8979 17.4167 20.8638C17.3667 20.7872 17.3167 20.7106 17.25 20.6511C17.0917 20.4894 16.9083 20.3617 16.7417 20.217C16.7167 20.2 16.7 20.1915 16.675 20.217C16.45 20.4213 16.1917 20.5915 16.0083 20.8468C15.975 20.8979 15.95 20.9404 16.0083 20.983C16.0583 21.017 16.1 21.0255 16.1333 20.9489C16.175 20.8298 16.2583 20.7872 16.3833 20.7957C16.4917 20.8043 16.5833 20.8979 16.6 21.017C16.6167 21.1277 16.5583 21.2298 16.45 21.2809C16.2667 21.3574 16.1083 21.2979 15.9583 21.1872C15.925 21.1617 15.8917 21.1362 15.875 21.1021C15.8083 20.9745 15.7417 21.0255 15.6583 21.0851C15.475 21.2298 15.2667 21.3404 15.025 21.3319C14.8667 21.3319 14.7667 21.2128 14.7833 21.0511C14.8083 20.8553 15.0167 20.7532 15.175 20.8723C15.2417 20.9319 15.3 20.9234 15.3667 20.8894C15.425 20.8553 15.4917 20.8213 15.5417 20.7617C15.5833 20.7106 15.6083 20.6596 15.5667 20.5915C15.525 20.5234 15.475 20.5745 15.425 20.5915C15.325 20.6255 15.225 20.6426 15.15 20.5489C15.0833 20.4638 15.0583 20.3702 15.1 20.2681C15.1417 20.166 15.225 20.1064 15.3333 20.1149C15.4833 20.1319 15.6083 20.217 15.6667 20.3702C15.6833 20.4213 15.7 20.4723 15.7167 20.5234C15.7333 20.5745 15.7667 20.583 15.8 20.5404C16 20.3532 16.1917 20.166 16.3917 19.9787C16.45 19.9277 16.3917 19.8936 16.3667 19.8681C16.125 19.6468 15.85 19.4596 15.5583 19.3064C14.875 18.9489 14.1333 18.7957 13.3667 18.7447C13.3417 18.7447 13.325 18.7447 13.3 18.7447C13.3 18.7447 13.2917 18.7447 13.2667 18.7277L13.3 18.6936Z" fill="#0B6D39"/>
<path d="M16.2 16.3191C16.175 16.2596 16.2 16.217 16.2417 16.1745C16.2583 16.1489 16.325 16.1064 16.2417 16.0894C16.2333 16.0894 16.225 16.0723 16.2333 16.0638C16.3083 16.0298 16.275 15.9447 16.3083 15.9106C16.375 15.8425 16.3333 15.7915 16.3083 15.7234C16.2083 15.8511 16.0833 15.9532 16.0667 16.1234C16.0667 16.1404 16.0667 16.1574 16.05 16.1574C15.9583 16.2 16.0083 16.2596 16.025 16.3191C16.0417 16.3617 16.1 16.4468 15.9667 16.4213C15.9417 16.4213 15.9333 16.4468 15.9333 16.4638C15.9333 16.5064 15.9167 16.5489 15.925 16.583C15.9333 16.6425 15.8833 16.6255 15.8583 16.6425C15.8333 16.6681 15.8333 16.617 15.825 16.6C15.7417 16.3021 15.8 16.0298 16.0167 15.8085C16.0583 15.7574 16.1083 15.7149 16.15 15.6638C16.1667 15.6468 16.1833 15.6298 16.1583 15.6128C16.1417 15.5957 16.1167 15.5957 16.1 15.6128C16 15.7149 15.8833 15.7915 15.8 15.9191C15.7167 16.0383 15.6833 16.1915 15.5667 16.2851C15.55 16.2936 15.5333 16.3191 15.5167 16.3277C15.5167 16.2936 15.4833 16.2851 15.4833 16.2511C15.4833 16.1489 15.4833 16.0553 15.525 15.9617C15.6083 15.7574 15.7583 15.6128 15.95 15.5191C16.0083 15.4851 16.075 15.4681 16.125 15.4C16.0083 15.383 15.9 15.3915 15.7917 15.417C15.675 15.4425 15.6083 15.5362 15.5333 15.6298C15.5167 15.4511 15.5917 15.3319 15.7333 15.2723C15.9167 15.2043 16.1 15.1532 16.2917 15.2213C16.3083 15.2213 16.3333 15.2383 16.3417 15.2213C16.3417 15.2043 16.3417 15.1872 16.3417 15.1702C16.325 15.1191 16.275 15.1106 16.2333 15.0936C16.125 15.0255 15.9333 15.034 15.85 15.1191C15.8333 15.0511 15.85 15.017 15.9 14.983C16.1 14.8383 16.3583 14.8638 16.525 15.0511C16.5667 15.1021 16.5833 15.0766 16.5917 15.034C16.6167 14.9404 16.6833 14.8638 16.6917 14.7617C16.7 14.8638 16.7667 14.9404 16.7917 15.034C16.8 15.0766 16.825 15.1021 16.8583 15.0511C17 14.8638 17.1917 14.8638 17.3917 14.9234C17.4917 14.9574 17.525 15.0085 17.5417 15.1106C17.4083 14.9915 17.1167 15.0596 17.0417 15.2383C17.2417 15.1872 17.4333 15.1957 17.6167 15.2638C17.8 15.3319 17.8667 15.4255 17.8667 15.6468C17.7917 15.5532 17.725 15.4511 17.6167 15.4255C17.5083 15.4 17.4 15.3915 17.2833 15.4085C17.3167 15.4851 17.3833 15.5106 17.4417 15.5362C17.675 15.6553 17.8333 15.834 17.8833 16.0979C17.9 16.1745 17.9167 16.2596 17.8833 16.3532C17.7917 16.2681 17.7083 16.183 17.6583 16.0723C17.5833 15.8766 17.425 15.7574 17.275 15.6298C17.2583 15.6213 17.2417 15.6043 17.225 15.6298C17.2083 15.6468 17.225 15.6723 17.2333 15.6894C17.2917 15.7489 17.3417 15.817 17.4 15.8766C17.6167 16.0894 17.6167 16.3532 17.5583 16.6255C17.5583 16.6425 17.55 16.6766 17.525 16.6681C17.5 16.6596 17.4583 16.6681 17.4583 16.6085C17.4583 16.5745 17.4583 16.5404 17.4417 16.4979C17.4417 16.4808 17.425 16.4468 17.425 16.4468C17.275 16.4468 17.3667 16.3617 17.375 16.3191C17.375 16.2596 17.4 16.217 17.3333 16.183C17.3 16.166 17.325 16.1064 17.3 16.0723C17.2417 15.9787 17.1833 15.8936 17.125 15.8085C17.0833 15.7489 17.0667 15.8511 17.0333 15.817C17.025 15.817 17.0167 15.817 17.0083 15.817C17.0083 15.8255 17.0083 15.834 17.0167 15.8425C17.0583 15.8936 17.1333 15.9277 17.1 16.0298C17.0917 16.0638 17.1667 16.0808 17.175 16.1404C17.15 16.166 17.125 16.0979 17.0917 16.1404C17.0917 16.183 17.1417 16.2 17.1583 16.2426C17.1583 16.2596 17.2333 16.3021 17.1417 16.3021C17.1 16.3021 17.1333 16.3447 17.1417 16.3617C17.175 16.4468 17.2083 16.5234 17.1417 16.617C17.125 16.6425 17.1167 16.6851 17.125 16.7191C17.1333 16.7617 17.125 16.7617 17.075 16.7787C17.05 16.7787 17.0583 16.8043 17.05 16.8213C17.0417 16.8553 17.0583 16.9064 17.025 16.9319C17.025 16.9319 17.025 16.9319 17 16.9404C16.9917 16.8383 16.9333 16.7447 16.9833 16.634C16.9917 16.6085 17.0167 16.5574 16.9667 16.5574C16.925 16.5574 16.9417 16.4638 16.85 16.5149C16.775 16.5574 16.775 16.6 16.7667 16.6511C16.7333 17.1532 16.7333 17.6638 16.7917 18.166C16.8083 18.3447 16.75 18.5319 16.85 18.6936C16.775 18.8979 16.9 19.0511 16.9917 19.2298H16.35C16.3833 19.1702 16.4083 19.1277 16.4333 19.0766C16.4917 18.983 16.525 18.8808 16.4917 18.7702C16.4833 18.7362 16.4833 18.7021 16.4917 18.6766C16.5333 18.6 16.525 18.5234 16.525 18.4468C16.525 18.2426 16.5667 18.0468 16.5667 17.8425C16.575 17.434 16.575 17.0255 16.5583 16.6255C16.5583 16.5915 16.575 16.5404 16.5 16.5489C16.4583 16.5489 16.4667 16.5064 16.4417 16.4808C16.375 16.5404 16.325 16.5915 16.375 16.7021C16.4 16.7702 16.3667 16.8638 16.3333 16.9574C16.2917 16.9064 16.3167 16.8553 16.3 16.8128C16.3 16.7957 16.3 16.7702 16.2667 16.7872C16.2583 16.7872 16.2667 16.8128 16.2417 16.8298C16.275 16.6681 16.1167 16.5404 16.2 16.3702C16.2167 16.3532 16.2583 16.3277 16.225 16.3021C16.1917 16.2766 16.1833 16.3191 16.175 16.3447L16.2 16.3191ZM17.8667 16.2851C17.8667 16.2851 17.8583 16.3021 17.8667 16.3021C17.8667 16.3021 17.8667 16.3106 17.875 16.3191C17.875 16.3191 17.8833 16.3021 17.8833 16.2936C17.8833 16.2936 17.8833 16.2936 17.875 16.2851H17.8667ZM17.1 15.9957C17.1 15.9957 17.1083 16.0043 17.1167 16.0043C17.1333 16.0043 17.1333 16.0043 17.1333 15.9872C17.1333 15.9872 17.125 15.9787 17.1167 15.9872C17.1167 15.9872 17.1083 15.9872 17.1 15.9957Z" fill="#0B6D39"/>
<path d="M16.7167 23.7234C16.7167 23.7234 16.65 23.7234 16.6167 23.7064C13.5 22.5149 12.2917 20.0808 11.825 18.2426C11.325 16.2681 11.55 14.6 11.5584 14.5319C11.575 14.4298 11.6417 14.3447 11.7334 14.3106L16.6167 12.3702C16.6834 12.3447 16.75 12.3447 16.8167 12.3702L21.7 14.3106C21.7917 14.3447 21.8584 14.4298 21.875 14.5319C21.8834 14.6 22.1084 16.2766 21.6084 18.2426C21.1417 20.0808 19.925 22.5149 16.8167 23.7064C16.7834 23.7149 16.75 23.7234 16.7167 23.7234ZM12.0917 14.7702C12.05 15.2298 11.975 16.5915 12.3667 18.1149C12.9917 20.5489 14.4584 22.234 16.7167 23.1277C18.9834 22.234 20.45 20.5404 21.075 18.0894C21.4667 16.566 21.3917 15.2128 21.35 14.7617L16.725 12.9234L12.1 14.7617L12.0917 14.7702Z" fill="#0B6D39"/>
<path d="M44.5583 23.7404C44.5583 24.166 44.5583 24.5574 44.5833 24.9574C44.4333 24.6681 44.2583 24.3787 44.075 24.0638L42.6 21.6809H41.75V26.5404H42.575V24.4468C42.575 23.9532 42.575 23.5532 42.5583 23.1787C42.7167 23.4681 42.9 23.7915 43.125 24.1574L44.5833 26.5404H45.3833V21.6809H44.5583V23.7404Z" fill="#1D9BD7"/>
<path d="M49.0584 25.5021V22.9745H48.1917V25.1362C48.1917 25.2213 48.175 25.3149 48.15 25.383C48.0667 25.5957 47.85 25.834 47.5084 25.834C47.2417 25.834 46.9334 25.7319 46.9334 24.9319V22.9745H46.0667V25.034C46.0667 26.4638 46.9417 26.617 47.3167 26.617C47.775 26.617 48.0834 26.4213 48.275 26.234L48.2917 26.5489H49.0917V26.3957C49.0584 26.166 49.05 25.8851 49.05 25.5106L49.0584 25.5021Z" fill="#1D9BD7"/>
<path d="M51.3833 23.6638C51.6917 23.6638 51.8833 23.7404 51.9917 23.8L52.15 23.8936L52.3667 23.1447L52.2583 23.0936C52.0917 23.0085 51.7667 22.9064 51.3833 22.9064C50.2833 22.9064 49.5167 23.6809 49.5167 24.7957C49.5167 25.9106 50.2167 26.617 51.2583 26.617C51.7 26.617 52.0667 26.5064 52.25 26.4128L52.35 26.3617L52.1917 25.6383L52.0333 25.7064C51.875 25.783 51.675 25.8596 51.375 25.8596C50.7917 25.8596 50.4 25.4255 50.4 24.7787C50.4 24.2766 50.6583 23.6809 51.3917 23.6809L51.3833 23.6638Z" fill="#1D9BD7"/>
<path d="M53.5917 21.434H52.725V26.5404H53.5917V21.434Z" fill="#1D9BD7"/>
<path d="M55.7083 22.8979C54.7417 22.8979 54.0583 23.6808 54.0583 24.8128C54.0583 25.9447 54.7333 26.6085 55.7833 26.6085C56.325 26.6085 56.7 26.4894 56.9083 26.3957L57.0167 26.3447L56.85 25.6383L56.7 25.7064C56.5083 25.7915 56.275 25.8681 55.8667 25.8681C55.6 25.8681 54.9917 25.783 54.9167 25.017H57.15L57.1667 24.8638C57.1667 24.8043 57.1833 24.7106 57.1833 24.6C57.1833 23.7574 56.725 22.9064 55.7167 22.9064L55.7083 22.8979ZM54.9333 24.2936C55.0083 23.9872 55.2167 23.6128 55.6583 23.6128C55.85 23.6128 56 23.6723 56.1167 23.783C56.2584 23.9362 56.3084 24.1404 56.325 24.2936H54.9333Z" fill="#1D9BD7"/>
<path d="M60.1583 25.6128V24.3872C60.1583 23.4255 59.675 22.8979 58.7916 22.8979C58.375 22.8979 57.9583 23.0085 57.6583 23.2128L57.5666 23.2723L57.7916 23.9447L57.9416 23.8426C58.15 23.7064 58.4333 23.6213 58.7 23.6213C59.075 23.6213 59.2666 23.7915 59.2833 24.1574C58.5416 24.1745 58.0083 24.3447 57.6833 24.6766C57.4666 24.8979 57.35 25.1787 57.35 25.5191C57.35 26.0553 57.7333 26.6085 58.475 26.6085C58.8166 26.6085 59.1333 26.4894 59.3666 26.2851L59.3916 26.5319H60.2166L60.1833 26.3617C60.15 26.1745 60.1333 25.9191 60.1333 25.6043L60.1583 25.6128ZM59.3083 25.2894C59.3083 25.2894 59.3 25.383 59.2833 25.434C59.2166 25.6383 59 25.8851 58.6416 25.8851C58.5166 25.8851 58.2333 25.8425 58.2333 25.4596C58.2333 25.3149 58.275 25.2043 58.3666 25.1191C58.5333 24.9574 58.8583 24.8723 59.3166 24.8638V25.2894H59.3083Z" fill="#1D9BD7"/>
<path d="M62.375 22.8979C62.0667 22.8979 61.7834 23.0425 61.5834 23.2894V22.9745H60.775V23.1277C60.8 23.4085 60.8084 23.7149 60.8084 24.1404V26.5404H61.6667V24.6425C61.6667 24.5489 61.675 24.4638 61.6917 24.3872C61.7667 23.9872 62.0084 23.7404 62.3334 23.7404C62.4 23.7404 62.45 23.7404 62.5 23.7574L62.675 23.8V22.9404L62.5667 22.9149C62.5 22.8979 62.4417 22.8894 62.3667 22.8894L62.375 22.8979Z" fill="#1D9BD7"/>
<path d="M66.9334 25.6128V24.3872C66.9334 23.4255 66.4501 22.8979 65.5667 22.8979C65.1501 22.8979 64.7334 23.0085 64.4334 23.2128L64.3417 23.2723L64.5667 23.9447L64.7167 23.8426C64.9251 23.7064 65.2084 23.6213 65.4751 23.6213C65.8501 23.6213 66.0417 23.7915 66.0584 24.1574C65.3167 24.1745 64.7834 24.3447 64.4584 24.6766C64.2417 24.8979 64.1251 25.1787 64.1251 25.5191C64.1251 26.0553 64.5084 26.6085 65.2501 26.6085C65.5917 26.6085 65.9084 26.4894 66.1417 26.2851L66.1667 26.5319H66.9917L66.9584 26.3617C66.9251 26.1745 66.9084 25.9191 66.9084 25.6043L66.9334 25.6128ZM66.0834 25.2894C66.0834 25.2894 66.0751 25.383 66.0584 25.434C65.9917 25.6383 65.7751 25.8851 65.4167 25.8851C65.2917 25.8851 65.0084 25.8425 65.0084 25.4596C65.0084 25.3149 65.0501 25.2043 65.1417 25.1191C65.3084 24.9574 65.6334 24.8723 66.0917 24.8638V25.2894H66.0834Z" fill="#1D9BD7"/>
<path d="M69.3334 22.8979C68.9167 22.8979 68.5917 23.0681 68.3751 23.2808L68.3584 22.9745H67.5584V23.1277C67.5917 23.3745 67.6001 23.6383 67.6001 24.0043V26.5404H68.4667V24.4213C68.4667 24.3362 68.4751 24.2511 68.5001 24.1915C68.5751 23.9277 68.8084 23.6723 69.1501 23.6723C69.5501 23.6723 69.7501 23.9532 69.7501 24.4979V26.5319H70.6167V24.4298C70.6167 23.2894 69.9251 22.8894 69.3417 22.8894L69.3334 22.8979Z" fill="#1D9BD7"/>
<path d="M74.3334 25.5447V21.434H73.4667V23.1702C73.2917 23.0255 73.025 22.8894 72.625 22.8894C72.225 22.8894 71.85 23.0511 71.5667 23.3404C71.225 23.6894 71.0417 24.2085 71.0417 24.7957C71.0417 25.8426 71.675 26.6085 72.5584 26.6085C72.9417 26.6085 73.3 26.4638 73.5417 26.217L73.5584 26.5319H74.375L74.3584 26.3787C74.3334 26.1234 74.3334 25.7489 74.3334 25.5447ZM73.4667 25.017C73.4667 25.1106 73.4667 25.1787 73.4417 25.2383C73.3584 25.5957 73.0667 25.8426 72.725 25.8426C72.3334 25.8426 71.9167 25.5617 71.9167 24.7702C71.9167 24.0894 72.2417 23.6468 72.7417 23.6468C73.1417 23.6468 73.3834 23.9362 73.45 24.234C73.4667 24.2851 73.475 24.3617 73.475 24.4468V25.017H73.4667Z" fill="#1D9BD7"/>
<path d="M79.3 25.1106C79.2084 24.7021 79.0417 24.4043 78.8083 24.2255C79.2417 23.9787 79.4917 23.5532 79.4917 23.034C79.4917 22.634 79.35 22.2936 79.0917 22.0553C78.7834 21.7745 78.3583 21.6468 77.7 21.6468C77.2833 21.6468 76.8584 21.6809 76.5667 21.7489L76.45 21.7745V26.5489H77.3084V24.566H77.7083C78.1667 24.583 78.35 24.7702 78.475 25.3404C78.625 26.0213 78.7167 26.3362 78.7917 26.4723L78.8333 26.5404H79.75L79.6417 26.3277C79.5583 26.166 79.4417 25.6979 79.3083 25.1106H79.3ZM77.7584 23.8255H77.3084V22.4213C77.4084 22.4043 77.55 22.3957 77.7333 22.3957C78.325 22.3957 78.625 22.6426 78.625 23.1021C78.625 23.5617 78.2917 23.8255 77.7584 23.8255Z" fill="#1D9BD7"/>
<path d="M82.625 25.6128V24.3872C82.625 23.4255 82.1417 22.8979 81.2584 22.8979C80.8417 22.8979 80.425 23.0085 80.125 23.2128L80.0334 23.2723L80.2584 23.9447L80.4084 23.8426C80.6167 23.7064 80.9 23.6213 81.1667 23.6213C81.5417 23.6213 81.7334 23.7915 81.75 24.1574C81.0084 24.1745 80.475 24.3447 80.15 24.6766C79.9334 24.8979 79.8167 25.1787 79.8167 25.5191C79.8167 26.0553 80.2 26.6085 80.9417 26.6085C81.2834 26.6085 81.6 26.4894 81.8334 26.2851L81.8584 26.5319H82.6834L82.65 26.3617C82.6167 26.1745 82.6 25.9191 82.6 25.6043L82.625 25.6128ZM81.775 25.2894C81.775 25.2894 81.7667 25.383 81.75 25.434C81.6834 25.6383 81.4667 25.8851 81.1084 25.8851C80.9834 25.8851 80.7 25.8425 80.7 25.4596C80.7 25.3149 80.7417 25.2043 80.8334 25.1191C81 24.9574 81.325 24.8723 81.7834 24.8638V25.2894H81.775Z" fill="#1D9BD7"/>
<path d="M86.3417 25.5447V21.434H85.475V23.1702C85.3 23.0255 85.0333 22.8894 84.6333 22.8894C84.2333 22.8894 83.8583 23.0511 83.575 23.3404C83.2333 23.6894 83.05 24.2085 83.05 24.7957C83.05 25.8426 83.6833 26.6085 84.5667 26.6085C84.95 26.6085 85.3083 26.4638 85.55 26.217L85.5667 26.5319H86.3833L86.3667 26.3787C86.3417 26.1234 86.3417 25.7489 86.3417 25.5447ZM85.475 25.017C85.475 25.1106 85.475 25.1787 85.45 25.2383C85.3667 25.5957 85.075 25.8426 84.7333 25.8426C84.3417 25.8426 83.925 25.5617 83.925 24.7702C83.925 24.0894 84.25 23.6468 84.75 23.6468C85.15 23.6468 85.3917 23.9362 85.4583 24.234C85.475 24.2851 85.4833 24.3617 85.4833 24.4468V25.017H85.475Z" fill="#1D9BD7"/>
<path d="M87.4583 21.6723C87.1667 21.6723 86.95 21.8936 86.95 22.1915C86.95 22.4894 87.1667 22.7021 87.4417 22.7021C87.5917 22.7021 87.725 22.6511 87.825 22.5489C87.9167 22.4553 87.9583 22.3277 87.9583 22.1915C87.9583 21.8936 87.75 21.6809 87.4583 21.6809V21.6723Z" fill="#1D9BD7"/>
<path d="M87.8917 22.966H87.025V26.5404H87.8917V22.966Z" fill="#1D9BD7"/>
<path d="M90.0834 22.8979C89.0584 22.8979 88.35 23.6723 88.35 24.7872C88.35 25.9021 89.0417 26.617 90.0334 26.617C90.4834 26.617 90.9084 26.4553 91.2167 26.166C91.5834 25.8255 91.775 25.3319 91.775 24.7362C91.775 23.6553 91.0834 22.9064 90.0834 22.9064V22.8979ZM90.0584 25.8766C89.575 25.8766 89.225 25.4085 89.225 24.7617C89.225 24.2 89.4834 23.6298 90.075 23.6298C90.725 23.6298 90.9 24.3617 90.9 24.7447C90.9 25.4 90.55 25.8766 90.0667 25.8766H90.0584Z" fill="#1D9BD7"/>
<path d="M93.0917 21.434H92.225V26.5404H93.0917V21.434Z" fill="#1D9BD7"/>
<path d="M95.3001 22.8979C94.2751 22.8979 93.5667 23.6723 93.5667 24.7872C93.5667 25.9021 94.2584 26.617 95.25 26.617C95.7 26.617 96.1251 26.4553 96.4334 26.166C96.8001 25.8255 96.9917 25.3319 96.9917 24.7362C96.9917 23.6553 96.3001 22.9064 95.3001 22.9064V22.8979ZM95.2667 25.8766C94.7834 25.8766 94.4334 25.4085 94.4334 24.7617C94.4334 24.2 94.6917 23.6298 95.2834 23.6298C95.9334 23.6298 96.1084 24.3617 96.1084 24.7447C96.1084 25.4 95.7584 25.8766 95.275 25.8766H95.2667Z" fill="#1D9BD7"/>
<path d="M99.6917 23.2298C99.5083 23.0596 99.225 22.8979 98.8 22.8979C98.375 22.8979 97.9833 23.0766 97.7 23.4C97.3833 23.7489 97.2167 24.2255 97.2167 24.7872C97.2167 25.783 97.8667 26.5319 98.725 26.5319C99.075 26.5319 99.3833 26.4213 99.6167 26.217C99.6167 26.8723 99.3167 27.2128 98.725 27.2128C98.275 27.2128 97.9667 27.0511 97.8583 26.9745L97.7084 26.8808L97.475 27.6128L97.5667 27.6723C97.8333 27.8511 98.275 27.9702 98.7167 27.9702C99.0917 27.9702 99.6083 27.8936 99.9833 27.5362C100.333 27.2213 100.492 26.7191 100.492 25.9277V24.0213C100.492 23.6298 100.5 23.3745 100.517 23.1277V22.9745H99.7333L99.7167 23.2383L99.6917 23.2298ZM99.6 25C99.6 25.1021 99.5834 25.1957 99.5584 25.2723C99.4584 25.5872 99.1917 25.783 98.8833 25.783C98.4917 25.783 98.075 25.5106 98.075 24.7447C98.075 24.0894 98.4 23.6468 98.8917 23.6468C99.275 23.6468 99.4917 23.9191 99.575 24.183C99.5917 24.2426 99.6 24.3021 99.6 24.4128V25Z" fill="#1D9BD7"/>
<path d="M101.542 21.6723C101.25 21.6723 101.033 21.8936 101.033 22.1915C101.033 22.4894 101.25 22.7021 101.525 22.7021C101.675 22.7021 101.808 22.6511 101.908 22.5489C102 22.4553 102.042 22.3277 102.042 22.1915C102.042 21.8936 101.833 21.6809 101.542 21.6809V21.6723Z" fill="#1D9BD7"/>
<path d="M101.975 22.966H101.108V26.5404H101.975V22.966Z" fill="#1D9BD7"/>
<path d="M104.3 23.6638C104.608 23.6638 104.8 23.7404 104.908 23.8L105.067 23.8936L105.283 23.1447L105.175 23.0936C105.008 23.0085 104.683 22.9064 104.3 22.9064C103.2 22.9064 102.433 23.6809 102.433 24.7957C102.433 25.9106 103.133 26.617 104.175 26.617C104.617 26.617 104.983 26.5064 105.167 26.4128L105.267 26.3617L105.108 25.6383L104.95 25.7064C104.792 25.783 104.592 25.8596 104.292 25.8596C103.708 25.8596 103.317 25.4255 103.317 24.7787C103.317 24.2766 103.575 23.6809 104.308 23.6809L104.3 23.6638Z" fill="#1D9BD7"/>
<path d="M108.175 25.6128V24.3872C108.175 23.4255 107.692 22.8979 106.808 22.8979C106.392 22.8979 105.975 23.0085 105.675 23.2128L105.583 23.2723L105.808 23.9447L105.958 23.8426C106.167 23.7064 106.45 23.6213 106.717 23.6213C107.092 23.6213 107.283 23.7915 107.3 24.1574C106.558 24.1745 106.025 24.3447 105.7 24.6766C105.483 24.8979 105.367 25.1787 105.367 25.5191C105.367 26.0553 105.75 26.6085 106.492 26.6085C106.833 26.6085 107.15 26.4894 107.383 26.2851L107.408 26.5319H108.233L108.2 26.3617C108.167 26.1745 108.15 25.9191 108.15 25.6043L108.175 25.6128ZM107.333 25.2894C107.333 25.2894 107.325 25.383 107.308 25.434C107.242 25.6383 107.025 25.8851 106.667 25.8851C106.542 25.8851 106.258 25.8425 106.258 25.4596C106.258 25.3149 106.3 25.2043 106.392 25.1191C106.558 24.9574 106.883 24.8723 107.342 24.8638V25.2894H107.333Z" fill="#1D9BD7"/>
<path d="M109.708 21.434H108.842V26.5404H109.708V21.434Z" fill="#1D9BD7"/>
<path d="M114.683 25.1106C114.592 24.7021 114.425 24.4043 114.192 24.2255C114.625 23.9787 114.875 23.5532 114.875 23.034C114.875 22.634 114.733 22.2936 114.475 22.0553C114.167 21.7745 113.742 21.6468 113.083 21.6468C112.667 21.6468 112.242 21.6809 111.95 21.7489L111.833 21.7745V26.5489H112.692V24.566H113.092C113.55 24.583 113.733 24.7702 113.858 25.3404C114.008 26.0213 114.1 26.3362 114.175 26.4723L114.217 26.5404H115.133L115.025 26.3277C114.942 26.166 114.825 25.6979 114.692 25.1106H114.683ZM113.142 23.8255H112.692V22.4213C112.792 22.4043 112.933 22.3957 113.117 22.3957C113.708 22.3957 114.008 22.6426 114.008 23.1021C114.008 23.5617 113.675 23.8255 113.142 23.8255Z" fill="#1D9BD7"/>
<path d="M116.825 22.8979C115.858 22.8979 115.175 23.6808 115.175 24.8128C115.175 25.9447 115.85 26.6085 116.9 26.6085C117.442 26.6085 117.817 26.4894 118.025 26.3957L118.133 26.3447L117.967 25.6383L117.817 25.7064C117.625 25.7915 117.392 25.8681 116.983 25.8681C116.717 25.8681 116.108 25.783 116.033 25.017H118.267L118.283 24.8638C118.283 24.8043 118.3 24.7106 118.3 24.6C118.3 23.7574 117.842 22.9064 116.833 22.9064L116.825 22.8979ZM116.058 24.2936C116.133 23.9872 116.342 23.6128 116.783 23.6128C116.975 23.6128 117.125 23.6723 117.242 23.783C117.383 23.9362 117.433 24.1404 117.45 24.2936H116.058Z" fill="#1D9BD7"/>
<path d="M120.992 23.2298C120.808 23.0596 120.525 22.8979 120.1 22.8979C119.675 22.8979 119.283 23.0766 119 23.4C118.683 23.7489 118.517 24.2255 118.517 24.7872C118.517 25.783 119.167 26.5319 120.025 26.5319C120.375 26.5319 120.683 26.4213 120.917 26.217C120.917 26.8723 120.617 27.2128 120.025 27.2128C119.575 27.2128 119.267 27.0511 119.158 26.9745L119.008 26.8808L118.775 27.6128L118.867 27.6723C119.133 27.8511 119.575 27.9702 120.017 27.9702C120.392 27.9702 120.908 27.8936 121.283 27.5362C121.633 27.2213 121.792 26.7191 121.792 25.9277V24.0213C121.792 23.6298 121.8 23.3745 121.817 23.1277V22.9745H121.033L121.017 23.2383L120.992 23.2298ZM120.9 25C120.9 25.1021 120.883 25.1957 120.858 25.2723C120.758 25.5872 120.492 25.783 120.183 25.783C119.792 25.783 119.375 25.5106 119.375 24.7447C119.375 24.0894 119.7 23.6468 120.192 23.6468C120.575 23.6468 120.792 23.9191 120.875 24.183C120.892 24.2426 120.9 24.3021 120.9 24.4128V25Z" fill="#1D9BD7"/>
<path d="M125.425 25.5021V22.9745H124.558V25.1362C124.558 25.2213 124.542 25.3149 124.517 25.383C124.433 25.5957 124.217 25.834 123.875 25.834C123.608 25.834 123.3 25.7319 123.3 24.9319V22.9745H122.433V25.034C122.433 26.4638 123.308 26.617 123.683 26.617C124.133 26.617 124.45 26.4213 124.642 26.2255L124.658 26.5404H125.458V26.3872C125.425 26.1574 125.417 25.8766 125.417 25.5021H125.425Z" fill="#1D9BD7"/>
<path d="M126.975 21.434H126.108V26.5404H126.975V21.434Z" fill="#1D9BD7"/>
<path d="M130.217 25.6128V24.3872C130.217 23.4255 129.733 22.8979 128.85 22.8979C128.433 22.8979 128.017 23.0085 127.717 23.2128L127.625 23.2723L127.85 23.9447L128 23.8426C128.208 23.7064 128.492 23.6213 128.758 23.6213C129.133 23.6213 129.325 23.7915 129.342 24.1574C128.6 24.1745 128.067 24.3447 127.742 24.6766C127.525 24.8979 127.408 25.1787 127.408 25.5191C127.408 26.0553 127.792 26.6085 128.533 26.6085C128.875 26.6085 129.192 26.4894 129.425 26.2851L129.45 26.5319H130.275L130.242 26.3617C130.208 26.1745 130.192 25.9191 130.192 25.6043L130.217 25.6128ZM129.367 25.2894C129.367 25.2894 129.358 25.383 129.342 25.434C129.275 25.6383 129.058 25.8851 128.7 25.8851C128.575 25.8851 128.292 25.8425 128.292 25.4596C128.292 25.3149 128.333 25.2043 128.425 25.1191C128.592 24.9574 128.917 24.8723 129.375 24.8638V25.2894H129.367Z" fill="#1D9BD7"/>
<path d="M131.833 21.9872L130.983 22.217V22.966H130.483V23.7064H130.983V25.3489C130.983 25.8085 131.067 26.1064 131.25 26.3021C131.417 26.4979 131.675 26.6 131.983 26.6C132.208 26.6 132.417 26.566 132.558 26.5064L132.65 26.4638L132.608 25.7404L132.442 25.783C132.383 25.8 132.283 25.817 132.142 25.817C132 25.817 131.842 25.783 131.842 25.3234V23.6979H132.675V22.9574H131.842V21.9702L131.833 21.9872Z" fill="#1D9BD7"/>
<path d="M134.508 22.8979C133.483 22.8979 132.775 23.6723 132.775 24.7872C132.775 25.9021 133.467 26.617 134.458 26.617C134.908 26.617 135.333 26.4553 135.642 26.166C136.008 25.8255 136.2 25.3319 136.2 24.7362C136.2 23.6553 135.508 22.9064 134.508 22.9064V22.8979ZM134.483 25.8766C134 25.8766 133.65 25.4085 133.65 24.7617C133.65 24.2 133.908 23.6298 134.5 23.6298C135.15 23.6298 135.325 24.3617 135.325 24.7447C135.325 25.4 134.975 25.8766 134.492 25.8766H134.483Z" fill="#1D9BD7"/>
<path d="M140.342 24.9915C140.317 25.0766 140.283 25.1617 140.258 25.2468C140.233 25.1617 140.208 25.0851 140.175 25L139.433 22.966H138.517V22.9404L138.408 22.9149C138.342 22.8979 138.283 22.8894 138.208 22.8894C137.9 22.8894 137.617 23.034 137.417 23.2808V22.966H136.608V23.1191C136.633 23.4 136.642 23.7064 136.642 24.1319V26.5319H137.5V24.634C137.5 24.5404 137.508 24.4553 137.525 24.3787C137.6 23.9787 137.842 23.7319 138.167 23.7319C138.233 23.7319 138.283 23.7319 138.333 23.7489L138.508 23.7915V23.0255L139.75 26.183C139.775 26.2511 139.783 26.2766 139.783 26.2851C139.783 26.3021 139.758 26.3447 139.75 26.3702C139.6 26.7191 139.367 26.9234 139.3 26.983C139.108 27.1447 138.917 27.2213 138.833 27.2468L138.7 27.2894L138.925 28.0468L139.05 28.0213C139.142 28.0043 139.483 27.9191 139.833 27.6043C140.283 27.2128 140.583 26.5574 140.975 25.4936L141.925 22.9574H141L140.333 24.983L140.342 24.9915Z" fill="#1D9BD7"/>
<path d="M145.775 22.3872C146.092 22.3872 146.392 22.4468 146.617 22.566L146.767 22.6426L146.983 21.8851L146.883 21.834C146.783 21.783 146.417 21.6128 145.758 21.6128C144.3 21.6128 143.283 22.6596 143.283 24.1574C143.283 25.6553 144.208 26.617 145.633 26.617C146.217 26.617 146.658 26.4979 146.875 26.3872L146.975 26.3362L146.783 25.5872L146.625 25.6638C146.408 25.7745 146.067 25.8425 145.742 25.8425C144.75 25.8425 144.167 25.2128 144.167 24.1489C144.167 23.0851 144.767 22.4043 145.775 22.4043V22.3872Z" fill="#1D9BD7"/>
<path d="M148.808 22.8979C147.783 22.8979 147.075 23.6723 147.075 24.7872C147.075 25.9021 147.767 26.617 148.758 26.617C149.208 26.617 149.633 26.4553 149.942 26.166C150.308 25.8255 150.5 25.3319 150.5 24.7362C150.5 23.6553 149.808 22.9064 148.808 22.9064V22.8979ZM148.775 25.8766C148.292 25.8766 147.942 25.4085 147.942 24.7617C147.942 24.2 148.2 23.6298 148.792 23.6298C149.442 23.6298 149.617 24.3617 149.617 24.7447C149.617 25.4 149.267 25.8766 148.783 25.8766H148.775Z" fill="#1D9BD7"/>
<path d="M154.625 22.8979C154.308 22.8979 154.058 22.9745 153.833 23.1532C153.733 23.2298 153.65 23.3149 153.567 23.417C153.367 23.0851 153.025 22.8894 152.633 22.8894C152.267 22.8894 151.967 23.017 151.725 23.2638L151.708 22.966H150.908V23.1191C150.942 23.366 150.95 23.6298 150.95 23.9957V26.5319H151.8V24.4043C151.8 24.3106 151.817 24.2255 151.833 24.166C151.908 23.9191 152.125 23.6638 152.425 23.6638C152.9 23.6638 152.958 24.1915 152.958 24.4213V26.5319H153.808V24.3617C153.808 24.2766 153.825 24.183 153.85 24.1149C153.925 23.8936 154.125 23.6723 154.408 23.6723C154.775 23.6723 154.967 23.9617 154.967 24.5404V26.5404H155.817V24.4638C155.817 23.9191 155.675 23.5021 155.408 23.2213C155.125 22.9404 154.792 22.8979 154.625 22.8979Z" fill="#1D9BD7"/>
<path d="M160.158 22.8979C159.842 22.8979 159.592 22.9745 159.367 23.1532C159.267 23.2298 159.183 23.3149 159.1 23.417C158.9 23.0851 158.558 22.8894 158.167 22.8894C157.8 22.8894 157.5 23.017 157.258 23.2638L157.242 22.966H156.442V23.1191C156.475 23.366 156.483 23.6298 156.483 23.9957V26.5319H157.333V24.4043C157.333 24.3106 157.35 24.2255 157.367 24.166C157.442 23.9191 157.658 23.6638 157.958 23.6638C158.433 23.6638 158.492 24.1915 158.492 24.4213V26.5319H159.342V24.3617C159.342 24.2766 159.358 24.183 159.383 24.1149C159.458 23.8936 159.658 23.6723 159.942 23.6723C160.308 23.6723 160.5 23.9617 160.5 24.5404V26.5404H161.35V24.4638C161.35 23.9191 161.208 23.5021 160.942 23.2213C160.658 22.9404 160.325 22.8979 160.158 22.8979Z" fill="#1D9BD7"/>
<path d="M162.892 22.966H162.025V26.5404H162.892V22.966Z" fill="#1D9BD7"/>
<path d="M162.458 21.6723C162.167 21.6723 161.95 21.8936 161.95 22.1915C161.95 22.4894 162.167 22.7021 162.442 22.7021C162.592 22.7021 162.725 22.6511 162.825 22.5489C162.917 22.4553 162.958 22.3277 162.958 22.1915C162.958 21.8936 162.75 21.6809 162.458 21.6809V21.6723Z" fill="#1D9BD7"/>
<path d="M164.8 24.3532C164.35 24.183 164.283 24.0894 164.283 23.9362C164.283 23.7489 164.442 23.6298 164.683 23.6298C164.975 23.6298 165.183 23.7489 165.267 23.8L165.417 23.8936L165.658 23.1787L165.558 23.1191C165.325 22.983 165.008 22.8979 164.7 22.8979C163.975 22.8979 163.45 23.366 163.45 24.0043C163.45 24.3362 163.617 24.7872 164.392 25.0681C164.817 25.2298 164.9 25.3489 164.9 25.5362C164.9 25.7574 164.725 25.8766 164.417 25.8766C164.158 25.8766 163.883 25.766 163.725 25.6638L163.575 25.5617L163.333 26.3021L163.433 26.3617C163.692 26.5149 164.05 26.6085 164.408 26.6085C165.225 26.6085 165.75 26.166 165.75 25.4851C165.75 24.8043 165.25 24.5319 164.817 24.3617L164.8 24.3532Z" fill="#1D9BD7"/>
<path d="M167.433 24.3532C166.983 24.183 166.917 24.0894 166.917 23.9362C166.917 23.7489 167.075 23.6298 167.317 23.6298C167.608 23.6298 167.817 23.7489 167.9 23.8L168.05 23.8936L168.292 23.1787L168.192 23.1191C167.958 22.983 167.642 22.8979 167.333 22.8979C166.608 22.8979 166.083 23.366 166.083 24.0043C166.083 24.3362 166.25 24.7872 167.025 25.0681C167.45 25.2298 167.533 25.3489 167.533 25.5362C167.533 25.7574 167.358 25.8766 167.05 25.8766C166.792 25.8766 166.517 25.766 166.358 25.6638L166.208 25.5617L165.967 26.3021L166.067 26.3617C166.325 26.5149 166.683 26.6085 167.042 26.6085C167.858 26.6085 168.383 26.166 168.383 25.4851C168.383 24.8043 167.883 24.5319 167.45 24.3617L167.433 24.3532Z" fill="#1D9BD7"/>
<path d="M169.267 21.6723C168.975 21.6723 168.758 21.8936 168.758 22.1915C168.758 22.4894 168.975 22.7021 169.25 22.7021C169.4 22.7021 169.533 22.6511 169.633 22.5489C169.725 22.4553 169.767 22.3277 169.767 22.1915C169.767 21.8936 169.558 21.6809 169.267 21.6809V21.6723Z" fill="#1D9BD7"/>
<path d="M169.7 22.966H168.833V26.5404H169.7V22.966Z" fill="#1D9BD7"/>
<path d="M171.892 22.8979C170.867 22.8979 170.158 23.6723 170.158 24.7872C170.158 25.9021 170.85 26.617 171.842 26.617C172.292 26.617 172.717 26.4553 173.025 26.166C173.392 25.8255 173.583 25.3319 173.583 24.7362C173.583 23.6553 172.892 22.9064 171.892 22.9064V22.8979ZM171.867 25.8766C171.383 25.8766 171.033 25.4085 171.033 24.7617C171.033 24.2 171.292 23.6298 171.883 23.6298C172.533 23.6298 172.708 24.3617 172.708 24.7447C172.708 25.4 172.358 25.8766 171.875 25.8766H171.867Z" fill="#1D9BD7"/>
<path d="M175.775 22.8979C175.358 22.8979 175.033 23.0681 174.817 23.2808L174.8 22.9745H174V23.1277C174.033 23.3745 174.042 23.6383 174.042 24.0043V26.5404H174.908V24.4213C174.908 24.3362 174.917 24.2511 174.942 24.1915C175.017 23.9277 175.25 23.6723 175.592 23.6723C175.992 23.6723 176.192 23.9532 176.192 24.4979V26.5319H177.058V24.4298C177.058 23.2894 176.367 22.8894 175.783 22.8894L175.775 22.8979Z" fill="#1D9BD7"/>
<path d="M44.3334 15.2128C42.3834 15.2128 41.65 14.2851 41.65 12.8298C41.65 11.4851 42.4667 10.2511 44.3084 10.2511C45.5084 10.2511 46.4167 10.6085 46.4167 10.6085V14.1404H47.45V15.2043H44.3334V15.2128ZM43.3834 8.3617C43.7417 8.3617 44.0334 8.65106 44.0334 9.02553C44.0334 9.4 43.75 9.68936 43.3834 9.68936C43.0167 9.68936 42.7334 9.38298 42.7334 9.02553C42.7334 8.66808 43.025 8.3617 43.3834 8.3617ZM45.1334 11.5106C45.1334 11.5106 44.75 11.3234 44.175 11.3234C43.425 11.3234 42.975 11.9106 42.975 12.7106C42.975 13.6468 43.425 14.1489 44.4834 14.1489H45.125V11.5106H45.1334ZM44.9917 8.3617C45.3417 8.3617 45.6417 8.65957 45.6417 9.02553C45.6417 9.39149 45.35 9.68936 44.9917 9.68936C44.6334 9.68936 44.3417 9.38298 44.3417 9.02553C44.3417 8.66808 44.6334 8.3617 44.9917 8.3617Z" fill="#CC9F53"/>
<path d="M46.7 14.6851C46.7 14.3702 47.1 14.1489 47.3 14.1489H48.4834V10.3872H49.8084V14.1489H50.8417V15.2128H47.2917C47.0917 15.2128 46.6917 15.0085 46.6917 14.6766L46.7 14.6851ZM48.3334 15.9702C48.6834 15.9702 48.9834 16.2681 48.9834 16.634C48.9834 17 48.6917 17.2979 48.3334 17.2979C47.975 17.2979 47.6834 16.9915 47.6834 16.634C47.6834 16.2766 47.975 15.9702 48.3334 15.9702ZM49.9417 15.9702C50.2917 15.9702 50.5917 16.2681 50.5917 16.634C50.5917 17 50.3 17.2979 49.9417 17.2979C49.5834 17.2979 49.2917 16.9915 49.2917 16.634C49.2917 16.2766 49.5834 15.9702 49.9417 15.9702Z" fill="#CC9F53"/>
<path d="M50.7 15.2128C50.5 15.2128 50.1 15.0085 50.1 14.6766C50.1 14.3447 50.5 14.1404 50.7 14.1404H52.2666C51.825 13.8766 51.4916 13.2979 51.4916 12.6085C51.4916 11.3319 52.35 10.2511 54.1166 10.2511C54.8 10.2511 55.3666 10.4468 55.3666 10.4468L55.1333 11.5277C55.1333 11.5277 54.675 11.3149 54.0916 11.3149C53.3416 11.3149 52.825 11.8255 52.825 12.617C52.825 13.4936 53.5166 14.1489 55.1166 14.1489H55.9V15.2128H50.7Z" fill="#CC9F53"/>
<path d="M57.2167 8.99148C56.9834 8.94893 56.7584 8.90638 56.5001 8.88936V8.0468C57.1751 7.97872 57.7501 7.93617 58.5417 7.9617V14.1404H59.5751V15.2043H57.2084V8.98297L57.2167 8.99148Z" fill="#CC9F53"/>
<path d="M59.425 15.2128C59.225 15.2128 58.825 15.0085 58.825 14.6766C58.825 14.3447 59.225 14.1404 59.425 14.1404H59.7167C60.675 14.1404 61.4583 14.0298 62.0667 13.8255C61.425 13.2128 60.8333 12.5745 59.9583 12.3277L60.0667 11.366C60.8583 10.7787 61.975 10.2255 62.975 10.2255C64.475 10.2255 65.0833 11.017 65.0833 11.9106C65.0833 12.6 64.7333 13.3064 64.0583 13.8851C64.3917 14.0468 64.75 14.1489 65.175 14.1489H65.7V15.2128H65.025C64.15 15.2128 63.5083 14.9489 62.9667 14.5745C62.1083 14.966 61.0083 15.2128 59.6667 15.2128H59.425ZM63.1417 13.2553C63.5667 12.9149 63.775 12.5064 63.775 12.0808C63.775 11.5957 63.4667 11.2213 62.8167 11.2213C62.2667 11.2213 61.65 11.5872 61.2917 11.834C61.9833 12.1234 62.525 12.7277 63.1417 13.2468V13.2553Z" fill="#CC9F53"/>
<path d="M65.55 15.2128C65.35 15.2128 64.95 15.0085 64.95 14.6766C64.95 14.3447 65.35 14.1404 65.55 14.1404H65.9083C66.5583 14.1404 66.8167 13.8766 66.8167 12.8638V10.9915H68.1417V12.8894C68.1417 13.817 68.2417 14.217 68.8333 14.217C69.3583 14.217 69.65 13.9021 69.65 12.9064V10.583H70.925V13.1617C70.925 13.9702 71.2 14.1404 72.125 14.1404H72.4C72.4417 13.7319 72.4583 13.2298 72.4583 12.9064C72.4583 11.8766 72.3417 10.9319 72.1667 10.1574L73.4667 9.97021C73.6583 10.7957 73.7917 11.8 73.7917 12.8128C73.7917 13.5617 73.7417 14.4723 73.65 15.2043H71.9917C70.9333 15.2043 70.4 15.0596 70.1083 14.4979C69.9083 14.9404 69.375 15.2894 68.5917 15.2894C67.9417 15.2894 67.4083 14.983 67.2417 14.4894C67.0417 14.9574 66.6417 15.2043 65.9083 15.2043H65.5583L65.55 15.2128ZM69.4 8.41276C69.75 8.41276 70.05 8.71063 70.05 9.07659C70.05 9.44255 69.75 9.74042 69.4 9.74042C69.05 9.74042 68.75 9.44255 68.75 9.07659C68.75 8.71063 69.0417 8.41276 69.4 8.41276ZM70.2333 7.06808C70.5917 7.06808 70.8833 7.36595 70.8833 7.73191C70.8833 8.09787 70.5917 8.39574 70.2333 8.39574C69.875 8.39574 69.5833 8.09787 69.5833 7.73191C69.5833 7.36595 69.875 7.06808 70.2333 7.06808ZM71.0583 8.41276C71.4167 8.41276 71.7083 8.71063 71.7083 9.07659C71.7083 9.44255 71.4167 9.74042 71.0583 9.74042C70.7 9.74042 70.4083 9.44255 70.4083 9.07659C70.4083 8.71063 70.7083 8.41276 71.0583 8.41276Z" fill="#CC9F53"/>
<path d="M76.8666 13.2894C76.4333 13.4085 76.0083 13.4766 75.5416 13.5191V9C75.3333 8.94893 75.0833 8.91489 74.825 8.89787V8.0468C75.4583 7.97872 76.2249 7.93617 76.8666 7.9617V13.2894ZM74.9083 17.1957C75.1083 17.1957 75.3083 17.2128 75.4416 17.2553C75.3583 17.1957 75.25 17.0766 75.25 16.8638C75.25 16.3277 75.7083 15.8596 76.6666 15.8596C76.925 15.8596 77.1583 15.9021 77.2416 15.9191L77.1083 16.6511C77.0416 16.634 76.85 16.5915 76.5916 16.5915C76.2916 16.5915 76.1416 16.7106 76.1416 16.8808C76.1416 17.0936 76.325 17.1957 76.7916 17.1957H77.4166V17.9277H74.9V17.1957H74.9083ZM75.25 15.1277L75.4083 14.0213C75.8583 14.166 76.4749 14.2766 77.0749 14.2766C78.0666 14.2766 78.5 13.8851 78.5 12.8383V7.97872H79.825V12.7191C79.825 14.2255 79.1333 15.3234 76.9666 15.3234C76.475 15.3234 75.6666 15.2383 75.2333 15.1191L75.25 15.1277Z" fill="#CC9F53"/>
<path d="M81.6334 8.99148C81.4 8.94893 81.175 8.90638 80.9167 8.88936V8.0468C81.5917 7.97872 82.1667 7.93617 82.9584 7.9617V15.2128H81.6334V8.99148Z" fill="#CC9F53"/>
<path d="M84.3667 17.6723L84.45 16.566C84.45 16.566 85.2333 16.7447 86.0167 16.7447C87.0583 16.7447 87.7583 16.3447 87.7583 15.383V15.2298H86.9667C85.0167 15.2298 84.2833 14.3021 84.2833 12.8468C84.2833 11.5021 85.1 10.2681 86.9417 10.2681C88.1417 10.2681 89.05 10.6255 89.05 10.6255V15.2468C89.05 16.6596 88.1417 17.817 85.9 17.817C85.15 17.817 84.375 17.6809 84.375 17.6809L84.3667 17.6723ZM87.7583 11.5106C87.7583 11.5106 87.375 11.3234 86.8 11.3234C86.05 11.3234 85.6 11.9106 85.6 12.7106C85.6 13.6468 86.05 14.1489 87.1083 14.1489H87.75V11.5106H87.7583Z" fill="#CC9F53"/>
<path d="M95.2334 15.2128C93.2834 15.2128 92.55 14.2851 92.55 12.8298C92.55 11.4851 93.3667 10.2511 95.2084 10.2511C96.4084 10.2511 97.3167 10.6085 97.3167 10.6085V14.1404H98.35V15.2043H95.2334V15.2128ZM94.2834 8.3617C94.6417 8.3617 94.9334 8.65106 94.9334 9.02553C94.9334 9.4 94.6501 9.68936 94.2834 9.68936C93.9167 9.68936 93.6334 9.38298 93.6334 9.02553C93.6334 8.66808 93.9251 8.3617 94.2834 8.3617ZM96.0334 11.5106C96.0334 11.5106 95.65 11.3234 95.075 11.3234C94.325 11.3234 93.875 11.9106 93.875 12.7106C93.875 13.6468 94.325 14.1489 95.3834 14.1489H96.025V11.5106H96.0334ZM95.8917 8.3617C96.2417 8.3617 96.5417 8.65957 96.5417 9.02553C96.5417 9.39149 96.25 9.68936 95.8917 9.68936C95.5334 9.68936 95.2417 9.38298 95.2417 9.02553C95.2417 8.66808 95.5334 8.3617 95.8917 8.3617Z" fill="#CC9F53"/>
<path d="M98.2 15.2128C98 15.2128 97.6 15.0085 97.6 14.6766C97.6 14.3447 98 14.1404 98.2 14.1404H99.3833V10.3787H100.708V15.2043H98.1916L98.2 15.2128ZM98.525 15.9702C98.875 15.9702 99.175 16.2681 99.175 16.634C99.175 17 98.8833 17.2979 98.525 17.2979C98.1666 17.2979 97.875 16.9915 97.875 16.634C97.875 16.2766 98.1666 15.9702 98.525 15.9702ZM100.133 15.9702C100.483 15.9702 100.783 16.2681 100.783 16.634C100.783 17 100.492 17.2979 100.133 17.2979C99.775 17.2979 99.4833 16.9915 99.4833 16.634C99.4833 16.2766 99.775 15.9702 100.133 15.9702Z" fill="#CC9F53"/>
<path d="M102.125 17.6723L102.208 16.566C102.208 16.566 102.992 16.7447 103.775 16.7447C104.817 16.7447 105.517 16.3447 105.517 15.383V15.2298H104.725C102.775 15.2298 102.042 14.3021 102.042 12.8468C102.042 11.5021 102.858 10.2681 104.7 10.2681C105.9 10.2681 106.808 10.6255 106.808 10.6255V15.2468C106.808 16.6596 105.9 17.817 103.658 17.817C102.908 17.817 102.133 17.6809 102.133 17.6809L102.125 17.6723ZM105.508 11.5106C105.508 11.5106 105.125 11.3234 104.55 11.3234C103.8 11.3234 103.35 11.9106 103.35 12.7106C103.35 13.6468 103.8 14.1489 104.858 14.1489H105.5V11.5106H105.508Z" fill="#CC9F53"/>
<path d="M108.208 17.6723L108.292 16.566C108.292 16.566 109.075 16.7447 109.858 16.7447C110.9 16.7447 111.6 16.3447 111.6 15.383V15.2298H110.808C108.858 15.2298 108.125 14.3021 108.125 12.8468C108.125 11.5021 108.942 10.2681 110.783 10.2681C111.983 10.2681 112.892 10.6255 112.892 10.6255V14.1574H113.925V15.2213H112.892V15.2383C112.892 16.6511 111.983 17.8085 109.742 17.8085C108.992 17.8085 108.217 17.6723 108.217 17.6723H108.208ZM111.592 11.5106C111.592 11.5106 111.208 11.3234 110.633 11.3234C109.883 11.3234 109.433 11.9106 109.433 12.7106C109.433 13.6468 109.883 14.1489 110.942 14.1489H111.583V11.5106H111.592Z" fill="#CC9F53"/>
<path d="M113.158 14.6851C113.158 14.3702 113.558 14.1489 113.758 14.1489H114.942V10.3872H116.267V14.1489H117.3V15.2128H113.75C113.55 15.2128 113.15 15.0085 113.15 14.6766L113.158 14.6851ZM115.617 8.34468C115.992 8.34468 116.308 8.65957 116.308 9.05106C116.308 9.44255 115.983 9.75744 115.617 9.75744C115.25 9.75744 114.925 9.42553 114.925 9.05106C114.925 8.67659 115.25 8.34468 115.617 8.34468Z" fill="#CC9F53"/>
<path d="M117.158 15.2128C116.958 15.2128 116.558 15.0085 116.558 14.6766C116.558 14.3447 116.958 14.1404 117.158 14.1404H118.342V7.97021H119.667V15.2128H117.15H117.158Z" fill="#CC9F53"/>
<path d="M121.475 8.99148C121.242 8.94893 121.017 8.90638 120.758 8.88936V8.0468C121.433 7.97872 122.008 7.93617 122.8 7.9617V15.2128H121.475V8.99148Z" fill="#CC9F53"/>
<path d="M128.992 15.2128C127.042 15.2128 126.308 14.2851 126.308 12.8298C126.308 11.4851 127.125 10.2511 128.967 10.2511C130.167 10.2511 131.075 10.6085 131.075 10.6085V14.1404H132.108V15.2043H128.992V15.2128ZM128.042 8.3617C128.4 8.3617 128.692 8.65106 128.692 9.02553C128.692 9.4 128.408 9.68936 128.042 9.68936C127.675 9.68936 127.392 9.38298 127.392 9.02553C127.392 8.66808 127.683 8.3617 128.042 8.3617ZM129.792 11.5106C129.792 11.5106 129.408 11.3234 128.833 11.3234C128.083 11.3234 127.633 11.9106 127.633 12.7106C127.633 13.6468 128.083 14.1489 129.142 14.1489H129.783V11.5106H129.792ZM129.65 8.3617C130 8.3617 130.3 8.65957 130.3 9.02553C130.3 9.39149 130.008 9.68936 129.65 9.68936C129.292 9.68936 129 9.38298 129 9.02553C129 8.66808 129.292 8.3617 129.65 8.3617Z" fill="#CC9F53"/>
<path d="M131.958 15.2128C131.758 15.2128 131.358 15.0085 131.358 14.6766C131.358 14.3447 131.758 14.1404 131.958 14.1404H133.142V10.3787H134.467V15.2043H131.95L131.958 15.2128ZM133.75 15.9021C134.133 15.9021 134.433 16.1915 134.433 16.6C134.433 17.0085 134.133 17.2979 133.75 17.2979C133.367 17.2979 133.067 16.9915 133.067 16.6C133.067 16.2085 133.358 15.9021 133.75 15.9021Z" fill="#CC9F53"/>
<path d="M136.275 8.99148C136.042 8.94893 135.817 8.90638 135.558 8.88936V8.0468C136.233 7.97872 136.808 7.93617 137.6 7.9617V14.1404H138.633V15.2043H136.267V8.98297L136.275 8.99148Z" fill="#CC9F53"/>
<path d="M138.483 15.2128C138.283 15.2128 137.883 15.0085 137.883 14.6766C137.883 14.3447 138.283 14.1404 138.483 14.1404H139.258C139.608 14.1404 139.825 14.2085 139.825 14.2085C139.45 13.9277 139.258 13.4681 139.258 12.7362C139.258 11.434 140.133 10.2426 141.875 10.2426C143.442 10.2426 144.15 11.1702 144.15 12.6V15.1957H138.492L138.483 15.2128ZM140.942 8.3617C141.3 8.3617 141.592 8.65106 141.592 9.02553C141.592 9.4 141.308 9.68936 140.942 9.68936C140.575 9.68936 140.292 9.38298 140.292 9.02553C140.292 8.66808 140.583 8.3617 140.942 8.3617ZM142.85 12.7872C142.85 11.7574 142.45 11.3319 141.775 11.3319C141.025 11.3319 140.575 11.9191 140.575 12.7191C140.575 13.6808 141.042 14.1574 142.083 14.1574H142.85V12.7957V12.7872ZM142.55 8.3617C142.9 8.3617 143.2 8.65957 143.2 9.02553C143.2 9.39149 142.908 9.68936 142.55 9.68936C142.192 9.68936 141.9 9.38298 141.9 9.02553C141.9 8.66808 142.192 8.3617 142.55 8.3617Z" fill="#CC9F53"/>
<path d="M144.025 17.7234L144.125 16.6426C144.367 16.7106 144.617 16.7617 144.942 16.7617C145.625 16.7617 146.025 16.4298 146.025 15.3234V10.3872H147.35V14.1489H148.383V15.2128H147.35V15.2553C147.35 16.566 146.908 17.8255 144.867 17.8255C144.558 17.8255 144.267 17.783 144.025 17.7234Z" fill="#CC9F53"/>
<path d="M148.233 15.2128C148.033 15.2128 147.633 15.0085 147.633 14.6766C147.633 14.3447 148.033 14.1404 148.233 14.1404H149.417V7.97021H150.742V15.2128H148.225H148.233Z" fill="#CC9F53"/>
<path d="M152.55 8.99148C152.317 8.94893 152.092 8.90638 151.833 8.88936V8.0468C152.508 7.97872 153.083 7.93617 153.875 7.9617V15.2128H152.55V8.99148Z" fill="#CC9F53"/>
<path d="M160.067 15.2128C158.117 15.2128 157.383 14.2851 157.383 12.8298C157.383 11.4851 158.2 10.2511 160.042 10.2511C161.242 10.2511 162.15 10.6085 162.15 10.6085V14.1404H163.183V15.2043H160.067V15.2128ZM159.117 8.3617C159.475 8.3617 159.767 8.65106 159.767 9.02553C159.767 9.4 159.483 9.68936 159.117 9.68936C158.75 9.68936 158.467 9.38298 158.467 9.02553C158.467 8.66808 158.758 8.3617 159.117 8.3617ZM160.867 11.5106C160.867 11.5106 160.483 11.3234 159.908 11.3234C159.158 11.3234 158.708 11.9106 158.708 12.7106C158.708 13.6468 159.158 14.1489 160.217 14.1489H160.858V11.5106H160.867ZM160.725 8.3617C161.075 8.3617 161.375 8.65957 161.375 9.02553C161.375 9.39149 161.083 9.68936 160.725 9.68936C160.367 9.68936 160.075 9.38298 160.075 9.02553C160.075 8.66808 160.367 8.3617 160.725 8.3617Z" fill="#CC9F53"/>
<path d="M162.433 14.6851C162.433 14.3702 162.833 14.1489 163.033 14.1489H164.217V10.3872H165.542V14.1489H166.575V15.2128H163.025C162.825 15.2128 162.425 15.0085 162.425 14.6766L162.433 14.6851ZM163.433 9.17021C163.658 9.17021 163.892 9.20425 164.033 9.22979C163.883 9.14468 163.783 8.96596 163.783 8.77872C163.783 8.2766 164.208 7.7234 165.258 7.7234C165.533 7.7234 165.783 7.77447 165.85 7.78298L165.717 8.49787C165.667 8.48936 165.433 8.4383 165.175 8.4383C164.833 8.4383 164.683 8.59149 164.683 8.78723C164.683 9.02553 164.842 9.17021 165.408 9.17021H166.025V9.91064H163.433V9.17021Z" fill="#CC9F53"/>
<path d="M165.833 14.6851C165.833 14.3702 166.233 14.1489 166.433 14.1489H167.617V10.3872H168.942V14.1489H169.975V15.2128H166.425C166.225 15.2128 165.825 15.0085 165.825 14.6766L165.833 14.6851ZM167.467 15.9702C167.817 15.9702 168.117 16.2681 168.117 16.634C168.117 17 167.825 17.2979 167.467 17.2979C167.108 17.2979 166.817 16.9915 166.817 16.634C166.817 16.2766 167.108 15.9702 167.467 15.9702ZM169.075 15.9702C169.425 15.9702 169.725 16.2681 169.725 16.634C169.725 17 169.433 17.2979 169.075 17.2979C168.717 17.2979 168.425 16.9915 168.425 16.634C168.425 16.2766 168.717 15.9702 169.075 15.9702Z" fill="#CC9F53"/>
<path d="M169.833 15.2128C169.633 15.2128 169.233 15.0085 169.233 14.6766C169.233 14.3447 169.633 14.1404 169.833 14.1404H170.708C170.983 14.1404 171.167 14.1915 171.167 14.1915C171.167 14.1915 170.917 13.9447 170.917 13.4596C170.917 12.4638 171.633 11.7319 172.85 11.7319C174.2 11.7319 174.7 12.7362 174.7 13.9021V14.1404H175.708V14.0213C175.708 11.8936 174.867 10.9489 172.875 10.9489C172.183 10.9489 171.358 11.1362 170.725 11.3489L170.592 10.2936C171.317 10.0553 172.233 9.89361 173.033 9.89361C175.55 9.89361 176.975 11.1191 176.975 14.1149V15.2128H169.833ZM173.608 13.8936C173.608 13.1021 173.333 12.6851 172.742 12.6851C172.283 12.6851 171.992 12.9489 171.992 13.383C171.992 13.9617 172.433 14.1915 172.95 14.1915H173.617V13.8936H173.608Z" fill="#CC9F53"/>
</svg>
