<svg width="8" height="14" viewBox="0 0 8 14" fill="none" xmlns="http://www.w3.org/2000/svg">
<g id="elements">
<path id="Icon" d="M0.557352 12.3955C0.718726 12.2737 1.20047 11.9097 1.47818 11.693C2.03439 11.2589 2.77348 10.6658 3.51038 10.026C4.25099 9.38299 4.97229 8.70748 5.50253 8.10737C5.76841 7.80646 5.97044 7.54212 6.10194 7.32399C6.22561 7.11884 6.25133 6.99765 6.25133 6.99765C6.25133 6.99765 6.22561 6.88003 6.10194 6.67489C5.97045 6.45676 5.76842 6.19242 5.50253 5.89151C4.97229 5.2914 4.25099 4.61589 3.51036 3.97285C2.77346 3.33304 2.03437 2.73993 1.47815 2.30586C1.20043 2.08913 0.71937 1.72573 0.557994 1.60384C0.224471 1.35821 0.152535 0.888204 0.398168 0.554682C0.643801 0.221159 1.1133 0.14991 1.44682 0.395543L1.44936 0.397461C1.61862 0.525301 2.11763 0.902201 2.40099 1.12333C2.96977 1.56721 3.73067 2.17764 4.49378 2.84019C5.25315 3.49951 6.03185 4.22518 6.62661 4.8983C6.92323 5.234 7.18994 5.5743 7.38657 5.90046C7.57079 6.20604 7.75207 6.59293 7.75207 6.99944C7.75206 7.40595 7.57078 7.79284 7.38656 8.09842C7.18994 8.42458 6.92322 8.76487 6.62661 9.10057C6.03186 9.77369 5.25316 10.4994 4.49379 11.1587C3.7307 11.8212 2.9698 12.4317 2.40103 12.8755C2.11748 13.0968 1.61844 13.4738 1.44953 13.6013L1.44735 13.603C1.11383 13.8486 0.643854 13.7777 0.398219 13.4442C0.152593 13.1107 0.223858 12.6412 0.557352 12.3955Z" fill="#161616"/>
</g>
</svg>
