<svg width="26" height="28" viewBox="0 0 26 28" fill="none" xmlns="http://www.w3.org/2000/svg">
<g id="elements">
<g id="Icon">
<path fill-rule="evenodd" clip-rule="evenodd" d="M21.185 1.46066C20.7788 1.45227 19.6772 1.45685 18.4044 1.46214L17.8049 1.46459C16.2758 1.47067 14.6087 1.47521 13.5664 1.46047L5.3809 1.46047C5.17451 1.46047 4.77569 1.46501 4.35108 1.54302C3.95062 1.61659 3.38461 1.77953 2.96218 2.19953C2.75755 2.40298 2.59395 2.66119 2.46778 2.89115C2.33571 3.13185 2.21534 3.39649 2.11016 3.64998C1.90726 4.13901 1.74017 4.63766 1.64243 4.92933L1.63352 4.95593L0.841639 7.2516C0.716896 7.58465 0.585567 8.09586 0.514105 8.60552C0.477388 8.86739 0.453485 9.14937 0.459077 9.422C0.464437 9.68329 0.497535 9.99526 0.613728 10.2841C0.799426 10.7457 1.20566 11.2344 1.53884 11.5896C1.55469 11.6065 1.57063 11.6233 1.58666 11.6402C1.58636 11.6497 1.5862 11.6593 1.5862 11.6689L1.5862 17.5663C1.58617 19.1618 1.58615 20.4478 1.72214 21.4593C1.86333 22.5094 2.16537 23.3936 2.8676 24.0958C3.56983 24.7981 4.45402 25.1001 5.50415 25.2413C6.51561 25.3773 7.80166 25.3773 9.39719 25.3773L13.5445 25.3773C14.0278 25.3773 14.4195 24.9855 14.4195 24.5023C14.4195 24.019 14.0278 23.6273 13.5445 23.6273L9.4612 23.6273C7.78654 23.6273 6.61858 23.6254 5.73734 23.5069C4.88127 23.3918 4.42794 23.1813 4.10505 22.8584C3.78215 22.5355 3.57163 22.0821 3.45654 21.2261C3.33806 20.3448 3.3362 19.1769 3.3362 17.5023L3.3362 13.0168C3.57434 13.1386 3.84458 13.2551 4.14007 13.3561C4.92591 13.6245 5.9446 13.8018 7.10251 13.6503C8.14396 13.5141 8.98857 13.0826 9.65718 12.5256C10.3759 13.0753 11.5129 13.6377 12.9592 13.6577C14.0252 13.6724 14.9828 13.309 15.7229 12.8859C15.9528 12.7544 16.1673 12.6141 16.3635 12.4719C17.2516 13.2205 18.9225 14.1273 21.3985 13.4481C21.8374 13.3277 22.2319 13.183 22.5862 13.0201L22.5862 13.4189C22.5862 13.9022 22.9779 14.2939 23.4612 14.2939C23.9444 14.2939 24.3362 13.9022 24.3362 13.4189L24.3362 11.8007C25.0681 11.0377 25.3975 10.2084 25.5235 9.5994C25.5355 9.5411 25.5416 9.48172 25.5416 9.42218C25.5416 8.88038 25.374 8.10123 25.0697 7.10947C24.7575 6.09185 24.2756 4.77105 23.5911 3.11099C23.5841 3.09411 23.5767 3.07745 23.5687 3.06103C23.4451 2.80766 23.2008 2.43532 22.8286 2.11299C22.4484 1.78362 21.8957 1.47534 21.185 1.46066ZM12.9834 11.9078C12.0287 11.8946 11.2828 11.5362 10.822 11.2112C11.234 10.5878 11.4976 9.95972 11.6311 9.477C11.7599 9.01124 11.4868 8.52923 11.021 8.40041C10.5552 8.27158 10.0732 8.54473 9.94441 9.01049C9.65771 10.047 8.64219 11.684 6.8755 11.9151C6.02622 12.0262 5.28014 11.8962 4.70579 11.7C4.11177 11.4971 3.7526 11.2418 3.67102 11.1648C3.63923 11.1348 3.60524 11.1073 3.56934 11.0824C3.42444 10.9819 3.12019 10.7175 2.8152 10.3923C2.49282 10.0486 2.29084 9.76405 2.23724 9.63084C2.23724 9.63084 2.22983 9.60987 2.22295 9.56681C2.21574 9.52164 2.21026 9.46164 2.20871 9.38612C2.20558 9.23342 2.21906 9.04886 2.24715 8.84852C2.30433 8.44072 2.40968 8.05185 2.48285 7.85908C2.48601 7.85074 2.48905 7.84236 2.49196 7.83393L3.28914 5.52301L3.29826 5.49579C3.39697 5.2013 3.54757 4.75203 3.72655 4.32064C3.81796 4.10033 3.91122 3.89841 4.002 3.73296C4.09867 3.55677 4.16716 3.46924 4.19605 3.44052C4.24065 3.39617 4.38094 3.31683 4.66731 3.26421C4.92954 3.21603 5.1981 3.21047 5.3809 3.21047L13.5479 3.21047C14.6097 3.22538 16.2907 3.22062 17.8119 3.21458L18.4085 3.21215C19.6915 3.20684 20.7665 3.20239 21.1489 3.21029C21.3476 3.21439 21.5228 3.29708 21.6829 3.43578C21.8382 3.57031 21.9427 3.72791 21.9861 3.80937C22.6514 5.42454 23.1077 6.68095 23.3967 7.62276C23.6661 8.50114 23.7708 9.04652 23.7887 9.33662C23.6342 9.95195 23.0572 11.1784 20.9355 11.7605C19.3017 12.2087 18.2184 11.7031 17.6106 11.2334C17.8322 10.8707 18.0955 10.3094 18.3512 9.51044C18.4984 9.05019 18.2447 8.55767 17.7845 8.41038C17.3242 8.26309 16.8317 8.5168 16.6844 8.97705C16.3741 9.94669 16.1002 10.3599 16.0435 10.4315C15.8393 10.6626 15.4147 11.0463 14.8544 11.3666C14.2879 11.6904 13.6403 11.9169 12.9834 11.9078Z" fill="white"/>
<path d="M21.4195 17.5023C21.4195 17.019 21.0278 16.6273 20.5445 16.6273C20.0613 16.6273 19.6695 17.019 19.6695 17.5023L19.6695 20.7106L16.4612 20.7106C15.9779 20.7106 15.5862 21.1023 15.5862 21.5856C15.5862 22.0688 15.9779 22.4606 16.4612 22.4606L19.6695 22.4606L19.6695 25.6689C19.6695 26.1522 20.0613 26.5439 20.5445 26.5439C21.0278 26.5439 21.4195 26.1522 21.4195 25.6689L21.4195 22.4606L24.6279 22.4606C25.1111 22.4606 25.5029 22.0688 25.5029 21.5856C25.5029 21.1023 25.1111 20.7106 24.6279 20.7106L21.4195 20.7106L21.4195 17.5023Z" fill="white"/>
<path d="M6.25286 19.8356C6.25286 19.3523 6.64461 18.9606 7.12786 18.9606L11.7945 18.9606C12.2778 18.9606 12.6695 19.3523 12.6695 19.8356C12.6695 20.3188 12.2778 20.7106 11.7945 20.7106L7.12786 20.7106C6.64461 20.7106 6.25286 20.3188 6.25286 19.8356Z" fill="white"/>
</g>
</g>
</svg>
