<svg width="18" height="18" viewBox="0 0 18 18" fill="none" xmlns="http://www.w3.org/2000/svg">
<path fill-rule="evenodd" clip-rule="evenodd" d="M0.0416546 2.54175C0.0416546 1.16104 1.16094 0.041748 2.54165 0.041748C3.92237 0.041748 5.04165 1.16104 5.04165 2.54175C5.04165 3.92246 3.92237 5.04175 2.54165 5.04175C1.16094 5.04175 0.0416546 3.92246 0.0416546 2.54175ZM2.54165 1.29175C1.8513 1.29175 1.29165 1.85139 1.29165 2.54175C1.29165 3.2321 1.8513 3.79175 2.54165 3.79175C3.23201 3.79175 3.79165 3.2321 3.79165 2.54175C3.79165 1.85139 3.23201 1.29175 2.54165 1.29175Z" fill="white"/>
<path fill-rule="evenodd" clip-rule="evenodd" d="M2.29604 6.29175H2.78728C3.14796 6.29171 3.47866 6.29167 3.74767 6.32784C4.0439 6.36766 4.35701 6.46137 4.61452 6.71889C4.87204 6.97641 4.96575 7.28951 5.00558 7.58575C5.04174 7.85476 5.04171 8.18545 5.04166 8.54612L5.04166 15.704C5.04171 16.0647 5.04175 16.3954 5.00558 16.6644C4.96575 16.9607 4.87204 17.2738 4.61452 17.5313C4.35701 17.7888 4.0439 17.8825 3.74767 17.9223C3.47866 17.9585 3.14796 17.9585 2.78728 17.9584H2.29604C1.93536 17.9585 1.60466 17.9585 1.33565 17.9223C1.03942 17.8825 0.726316 17.7888 0.468796 17.5313C0.211277 17.2738 0.117571 16.9607 0.0777434 16.6644C0.041576 16.3954 0.041615 16.0647 0.0416575 15.704L0.0416575 8.54613C0.041615 8.18545 0.041576 7.85476 0.0777434 7.58575C0.117571 7.28951 0.211277 6.97641 0.468796 6.71889C0.726316 6.46137 1.03942 6.36766 1.33565 6.32784C1.60466 6.29167 1.93536 6.29171 2.29604 6.29175ZM1.35269 7.60278L1.35472 7.60164C1.35633 7.6008 1.35909 7.59945 1.3633 7.59772C1.38145 7.59025 1.42175 7.57751 1.50221 7.56669C1.67782 7.54308 1.92282 7.54175 2.33333 7.54175H2.74999C3.1605 7.54175 3.4055 7.54308 3.58111 7.56669C3.66157 7.57751 3.70187 7.59025 3.72002 7.59772C3.72423 7.59945 3.72699 7.6008 3.7286 7.60164L3.73063 7.60278L3.73178 7.60481C3.73262 7.60642 3.73397 7.60919 3.7357 7.61339C3.74316 7.63154 3.75591 7.67184 3.76672 7.75231C3.79033 7.92791 3.79166 8.17291 3.79166 8.58342L3.79166 15.6668C3.79166 16.0773 3.79033 16.3223 3.76672 16.4979C3.75591 16.5783 3.74316 16.6186 3.7357 16.6368C3.73397 16.641 3.73262 16.6437 3.73178 16.6454L3.73063 16.6474L3.7286 16.6485C3.72699 16.6494 3.72423 16.6507 3.72002 16.6525C3.70187 16.6599 3.66157 16.6727 3.58111 16.6835C3.4055 16.7071 3.1605 16.7084 2.74999 16.7084H2.33333C1.92282 16.7084 1.67782 16.7071 1.50221 16.6835C1.42175 16.6727 1.38145 16.6599 1.3633 16.6525C1.35909 16.6507 1.35633 16.6494 1.35472 16.6485L1.35269 16.6474L1.35154 16.6454C1.3507 16.6437 1.34936 16.641 1.34763 16.6368C1.34016 16.6186 1.32742 16.5783 1.3166 16.4979C1.29299 16.3223 1.29166 16.0773 1.29166 15.6668L1.29166 8.58342C1.29166 8.17291 1.29299 7.92791 1.3166 7.75231C1.32742 7.67184 1.34016 7.63154 1.34763 7.61339C1.34936 7.60919 1.3507 7.60642 1.35154 7.60481L1.35269 7.60278Z" fill="white"/>
<path fill-rule="evenodd" clip-rule="evenodd" d="M8.54604 6.29175C8.78736 6.29173 9.75924 6.29172 9.94373 6.30862C10.1432 6.32689 10.3605 6.3689 10.5698 6.49135C10.7858 6.61774 10.9657 6.7976 11.0921 7.01362L11.1021 7.03103C11.7602 6.56633 12.5546 6.29195 13.414 6.29195C15.66 6.29195 17.9584 8.2038 17.9584 10.667L17.9573 15.288C17.9572 15.6486 17.9572 15.9793 17.921 16.2482C17.8811 16.5444 17.7873 16.8574 17.5298 17.1148C17.2723 17.3723 16.9593 17.466 16.6631 17.5058C16.3941 17.5419 16.0635 17.5419 15.7029 17.5419H15.2127C14.852 17.5419 14.5213 17.5419 14.2523 17.5058C13.9561 17.4659 13.643 17.3722 13.3854 17.1147C13.1279 16.8572 13.0342 16.5441 12.9944 16.2479C12.9582 15.9789 12.9583 15.6482 12.9583 15.2875L12.9583 11.5002C12.9583 11.1189 12.6762 10.8752 12.4066 10.8752C11.9755 10.8752 11.7439 11.0405 11.5846 11.3049C11.3974 11.6157 11.2917 12.1074 11.2917 12.7502L11.2917 15.7041C11.2917 16.0647 11.2918 16.3954 11.2556 16.6644C11.2158 16.9607 11.122 17.2738 10.8645 17.5313C10.607 17.7888 10.2939 17.8825 9.99768 17.9223C9.72867 17.9585 9.39797 17.9585 9.0373 17.9584H8.54602C8.18535 17.9585 7.85466 17.9585 7.58565 17.9223C7.28942 17.8825 6.97632 17.7888 6.7188 17.5313C6.46128 17.2738 6.36757 16.9607 6.32774 16.6644C6.29158 16.3954 6.29162 16.0647 6.29166 15.704L6.29166 8.54613C6.29162 8.18545 6.29158 7.85476 6.32774 7.58575C6.36757 7.28951 6.46128 6.97641 6.7188 6.71889C6.97632 6.46137 7.28942 6.36766 7.58565 6.32784C7.85466 6.29167 8.18536 6.29171 8.54604 6.29175ZM8.58332 7.54175C8.17282 7.54175 7.92781 7.54308 7.75221 7.56668C7.69582 7.56449 7.57976 7.59854 7.56659 7.7523C7.54298 7.9279 7.54165 8.17291 7.54165 8.58341L7.54165 15.6667C7.54165 16.0773 7.54298 16.3223 7.56659 16.4979C7.57665 16.5995 7.69453 16.664 7.75221 16.6835C7.92781 16.7071 8.17282 16.7084 8.58332 16.7084H9.00001C9.41051 16.7084 9.65551 16.7071 9.83111 16.6835C9.88845 16.669 10.0058 16.6116 10.0167 16.4979C10.0403 16.3223 10.0417 16.0773 10.0417 15.6668L10.0417 12.7502C10.0417 12.0122 10.1561 11.2539 10.5138 10.6599C10.8995 10.0195 11.5378 9.62518 12.4065 9.62518C13.4366 9.62518 14.2083 10.5007 14.2083 11.5002V15.2502C14.2083 15.6607 14.2096 15.9057 14.2332 16.0813C14.2332 16.213 14.3128 16.2351 14.375 16.2523C14.3914 16.2569 14.4066 16.2611 14.4188 16.2669C14.5944 16.2905 14.8394 16.2918 15.25 16.2918L15.6656 16.2918C16.076 16.2918 16.321 16.2905 16.4965 16.2669C16.5543 16.2455 16.6724 16.1783 16.6821 16.0814C16.7058 15.9058 16.7072 15.6608 16.7073 15.2504L16.7084 10.6668C16.7083 8.98788 15.0673 7.54195 13.4139 7.54195C12.516 7.54195 11.7036 7.98097 11.1641 8.69011C11.0017 8.90359 10.7212 8.98964 10.467 8.90396C10.2129 8.81827 10.0417 8.57996 10.0417 8.31173C10.0417 8.03759 10.0411 7.87423 10.03 7.75374C10.0232 7.6277 9.89362 7.56766 9.82968 7.5534C9.70919 7.54236 9.54583 7.54175 9.2717 7.54175L8.58332 7.54175Z" fill="white"/>
</svg>
