<svg width="14" height="15" viewBox="0 0 14 15" fill="none" xmlns="http://www.w3.org/2000/svg">
<path fill-rule="evenodd" clip-rule="evenodd" d="M6.99976 0.333336C5.06676 0.333336 3.49976 1.90034 3.49976 3.83334C3.49976 5.76633 5.06676 7.33334 6.99976 7.33334C8.93275 7.33334 10.4998 5.76633 10.4998 3.83334C10.4998 1.90034 8.93275 0.333336 6.99976 0.333336ZM4.49976 3.83334C4.49976 2.45262 5.61904 1.33334 6.99976 1.33334C8.38047 1.33334 9.49976 2.45262 9.49976 3.83334C9.49976 5.21405 8.38047 6.33334 6.99976 6.33334C5.61904 6.33334 4.49976 5.21405 4.49976 3.83334Z" fill="white"/>
<path fill-rule="evenodd" clip-rule="evenodd" d="M11.1523 9.5528C11.0439 9.49163 10.9482 9.43761 10.8706 9.39145C8.50126 7.98063 5.49848 7.98063 3.12912 9.39145C3.05157 9.43762 2.95579 9.49166 2.84735 9.55284C2.37214 9.82094 1.6538 10.2262 1.16169 10.7079C0.853908 11.0092 0.561472 11.4061 0.508308 11.8925C0.45177 12.4097 0.677413 12.8951 1.13009 13.3264C1.91106 14.0704 2.84825 14.6667 4.06045 14.6667H9.93929C11.1515 14.6667 12.0887 14.0704 12.8697 13.3264C13.3223 12.8951 13.548 12.4097 13.4914 11.8925C13.4383 11.4061 13.1458 11.0092 12.8381 10.7079C12.3459 10.2262 11.6275 9.8209 11.1523 9.5528ZM3.64073 10.2507C5.69485 9.02756 8.3049 9.02756 10.359 10.2507C10.4709 10.3173 10.5936 10.3869 10.722 10.4598C11.1971 10.7293 11.7518 11.044 12.1386 11.4225C12.3786 11.6575 12.481 11.8514 12.4974 12.0012C12.5104 12.1201 12.4803 12.3162 12.1799 12.6024C11.4893 13.2603 10.7876 13.6667 9.93929 13.6667H4.06045C3.21215 13.6667 2.51044 13.2603 1.81987 12.6024C1.51945 12.3162 1.48939 12.1201 1.50239 12.0012C1.51876 11.8514 1.6211 11.6575 1.86118 11.4225C2.24791 11.044 2.80259 10.7293 3.27766 10.4598C3.40611 10.3869 3.52882 10.3173 3.64073 10.2507Z" fill="white"/>
</svg>
