<svg width="23" height="24" viewBox="0 0 23 24" fill="none" xmlns="http://www.w3.org/2000/svg">
<g id="elements">
<g id="Icon">
<path d="M0.999976 10.2498C1.41419 10.2498 1.74998 10.5856 1.74998 10.9998C1.74998 11.0738 1.7507 11.1476 1.75216 11.2212C1.76032 11.6353 1.43122 11.9777 1.01708 11.9858C0.60295 11.994 0.260612 11.6649 0.252448 11.2508C0.250803 11.1673 0.249977 11.0837 0.249977 10.9998C0.249977 10.5856 0.585762 10.2498 0.999976 10.2498Z" fill="#067647"/>
<path d="M1.20041 13.3028C1.60083 13.1968 2.01137 13.4354 2.11737 13.8359C2.15508 13.9783 2.19555 14.1196 2.2387 14.2595C2.36076 14.6554 2.13883 15.0752 1.743 15.1972C1.34718 15.3193 0.927358 15.0973 0.805304 14.7015C0.756219 14.5423 0.710198 14.3817 0.667318 14.2197C0.561317 13.8193 0.799993 13.4088 1.20041 13.3028Z" fill="#067647"/>
<path d="M2.28591 16.4112C2.64018 16.1965 3.10137 16.3097 3.31599 16.664C3.39213 16.7897 3.47069 16.9134 3.55159 17.0352C3.78085 17.3801 3.68705 17.8457 3.34207 18.0749C2.99709 18.3042 2.53157 18.2104 2.30231 17.8654C2.2098 17.7262 2.12003 17.5848 2.03307 17.4412C1.81844 17.087 1.93164 16.6258 2.28591 16.4112Z" fill="#067647"/>
<path d="M4.21299 19.0809C4.48718 18.7704 4.96114 18.741 5.27161 19.0152C5.38098 19.1118 5.49229 19.2057 5.60544 19.2968C5.92807 19.5566 5.97904 20.0287 5.71927 20.3513C5.4595 20.674 4.98737 20.7249 4.66473 20.4652C4.53373 20.3597 4.40501 20.2511 4.27866 20.1395C3.9682 19.8653 3.93879 19.3914 4.21299 19.0809Z" fill="#067647"/>
<path d="M6.86264 21.0338C7.01967 20.6505 7.45769 20.4671 7.84099 20.6241C7.97452 20.6788 8.10942 20.7302 8.24559 20.7781C8.63635 20.9155 8.84173 21.3436 8.70433 21.7344C8.56693 22.1251 8.13877 22.3305 7.74801 22.1931C7.58776 22.1368 7.42916 22.0764 7.27233 22.0122C6.88903 21.8551 6.70561 21.4171 6.86264 21.0338Z" fill="#067647"/>
<path d="M10.0141 21.9772C10.0249 21.5631 10.3693 21.2362 10.7834 21.247C10.816 21.2479 10.8486 21.2485 10.8812 21.249C15.0493 21.1658 18.8042 18.4474 19.9241 14.3942C21.2805 9.48519 18.2727 4.40282 13.1448 3.07035C8.68726 1.91207 4.14437 3.98444 2.13673 7.76989L3.62383 7.85799C4.03732 7.88249 4.35266 8.23754 4.32817 8.65103C4.30367 9.06452 3.94861 9.37986 3.53512 9.35537L0.955624 9.20255C0.716238 9.18836 0.498068 9.06056 0.368625 8.8587C0.239183 8.65683 0.214076 8.40523 0.301077 8.18176C2.29255 3.06651 7.99024 0.18114 13.522 1.61856C19.4195 3.15099 22.9605 9.03725 21.3699 14.7937C20.0782 19.4686 15.8095 22.571 11.0988 22.7434C11.0665 22.7476 11.0335 22.7498 11 22.7498C10.9618 22.7498 10.9237 22.7496 10.8856 22.7492L10.8594 22.7496C10.8366 22.75 10.8139 22.7493 10.7916 22.7476L10.7443 22.7465C10.3302 22.7357 10.0033 22.3913 10.0141 21.9772Z" fill="#067647"/>
<path d="M11.6569 8.01936C11.6569 7.60515 11.3211 7.26936 10.9069 7.26936C10.4927 7.26936 10.1569 7.60515 10.1569 8.01936L10.1569 8.25416C10.0142 8.29615 9.86821 8.35019 9.71919 8.41759C8.79252 8.83672 8.18509 9.75243 8.23749 10.6981C8.26447 11.1849 8.4697 11.6594 8.87059 12.023C9.26523 12.3809 9.80192 12.5899 10.4336 12.6544C10.7004 12.6817 10.9401 12.6869 11.1393 12.6902L11.1856 12.6909C11.3711 12.6939 11.5029 12.696 11.6237 12.7079C11.838 12.7289 11.9406 12.7716 12.0608 12.8974C12.1494 12.9902 12.2753 13.2918 12.222 13.6359C12.1785 13.9168 12.0258 14.1718 11.6216 14.2958C11.3812 14.3696 11.1618 14.3992 10.9645 14.3992C10.9455 14.3977 10.9263 14.397 10.9069 14.397C10.8984 14.397 10.8899 14.3971 10.8814 14.3974C10.2633 14.3711 9.87701 14.0571 9.75816 13.9491C9.45171 13.6704 8.97737 13.6929 8.69869 13.9993C8.42001 14.3058 8.44252 14.7801 8.74896 15.0588C8.94396 15.2361 9.43031 15.6218 10.1569 15.8033L10.1569 16.0194C10.1569 16.4336 10.4927 16.7694 10.9069 16.7694C11.3211 16.7694 11.6569 16.4336 11.6569 16.0194L11.6569 15.832C11.7881 15.8061 11.923 15.7724 12.0615 15.7299C13.0775 15.4182 13.5833 14.6471 13.7043 13.8654C13.8156 13.147 13.6121 12.3496 13.1452 11.861C12.7098 11.4055 12.2313 11.2603 11.7705 11.215C11.5843 11.1967 11.3894 11.1938 11.2192 11.1912L11.1636 11.1904C10.9699 11.1872 10.7847 11.1825 10.5861 11.1622C10.1882 11.1215 9.97973 11.0039 9.87829 10.9119C9.78311 10.8256 9.74139 10.7268 9.7352 10.6151C9.72126 10.3637 9.90265 9.98091 10.3374 9.78429C10.8157 9.56793 11.1508 9.62389 11.3963 9.73021C11.6763 9.85142 11.891 10.0615 12.0599 10.2388C12.3455 10.5388 12.8202 10.5504 13.1202 10.2647C13.4202 9.97909 13.4318 9.50435 13.1461 9.20439C12.9635 9.01263 12.5715 8.60448 11.9923 8.3537C11.8854 8.30738 11.7734 8.26702 11.6569 8.23406L11.6569 8.01936Z" fill="#067647"/>
</g>
</g>
</svg>
