<svg width="18" height="12" viewBox="0 0 18 12" fill="none" xmlns="http://www.w3.org/2000/svg">
<path d="M17.75 6.00047C17.75 5.62691 17.5844 5.28034 17.4275 5.02011C17.2582 4.7393 17.0306 4.44937 16.7808 4.16669C16.2798 3.59962 15.6262 2.99064 14.9918 2.43977C14.3537 1.88567 13.7178 1.37546 13.2428 1.00468C13.0049 0.818986 12.8064 0.66755 12.667 0.562239C12.5973 0.509569 12.5423 0.468397 12.5044 0.440203L12.4609 0.407818L12.4493 0.399264L12.4453 0.396304C12.1118 0.150642 11.6419 0.221533 11.3962 0.555035C11.1505 0.888521 11.2217 1.358 11.5552 1.60367L11.5679 1.61308L11.608 1.64285C11.6434 1.66925 11.6958 1.7085 11.7628 1.75911C11.8968 1.86036 12.089 2.00695 12.3198 2.18713C12.7823 2.5481 13.3964 3.04099 14.0083 3.57235C14.6239 4.10694 15.2202 4.66576 15.6567 5.15983C15.6843 5.19108 15.711 5.2218 15.7369 5.25195L1 5.25196C0.585787 5.25196 0.25 5.58774 0.25 6.00195C0.25 6.41617 0.585787 6.75196 1 6.75196L15.7343 6.75195C15.7093 6.78116 15.6834 6.81088 15.6567 6.84111C15.2202 7.33518 14.6239 7.89401 14.0083 8.4286C13.3964 8.95995 12.7823 9.45285 12.3198 9.81382C12.089 9.99399 11.8968 10.1406 11.7628 10.2418C11.6958 10.2925 11.6434 10.3317 11.608 10.3581L11.5679 10.3879L11.5552 10.3973C11.2217 10.6429 11.1505 11.1124 11.3962 11.4459C11.6419 11.7794 12.1118 11.8503 12.4453 11.6046L12.4493 11.6017L12.4609 11.5931L12.5044 11.5607C12.5423 11.5326 12.5973 11.4914 12.667 11.4387C12.8064 11.3334 13.0049 11.182 13.2428 10.9963C13.7178 10.6255 14.3537 10.1153 14.9918 9.56118C15.6262 9.01031 16.2798 8.40133 16.7808 7.83425C17.0306 7.55158 17.2582 7.26165 17.4275 6.98083C17.5834 6.72217 17.748 6.37819 17.75 6.0072" fill="#161616"/>
</svg>
