<svg width="86" height="60" viewBox="0 0 86 60" fill="none" xmlns="http://www.w3.org/2000/svg">
<g id="Logo">
<path id="svg_106" d="M44.6354 42.3243C44.1082 41.9807 43.4864 41.8122 42.8583 41.8428H40.059C39.9392 41.8624 39.8165 41.8538 39.7006 41.8175C39.5848 41.7812 39.479 41.7182 39.3917 41.6337C39.3045 41.5491 39.2381 41.4453 39.198 41.3305C39.1579 41.2157 39.1451 41.0931 39.1607 40.9725V40.6172C39.1387 40.3953 39.2036 40.1735 39.3417 39.9986C39.499 39.8649 39.7028 39.7989 39.9085 39.8151H44.9416V38.002H40.2103C39.8079 37.9976 39.4063 38.0387 39.013 38.1246C38.6732 38.191 38.3583 38.35 38.1029 38.5842C37.8474 38.8183 37.6614 39.1185 37.5653 39.4517C37.446 39.8614 37.3903 40.287 37.4003 40.7136V41.111C37.3641 41.4542 37.4111 41.801 37.5371 42.1222C37.6631 42.4433 37.8644 42.7293 38.1241 42.956C38.6876 43.3188 39.3512 43.4939 40.0199 43.4564H42.7808C42.9977 43.4412 43.2125 43.5071 43.3838 43.6413C43.4532 43.7097 43.5065 43.7927 43.5401 43.8842C43.5736 43.9758 43.5865 44.0736 43.5778 44.1707V44.8619C43.5778 45.3934 43.3469 45.611 42.7815 45.611H37.6044V47.4153H42.8409C43.1952 47.448 43.5524 47.4004 43.8859 47.2761C44.2195 47.1519 44.5209 46.9541 44.7678 46.6974C45.1925 46.0987 45.3972 45.3712 45.3469 44.6385V44.0685C45.3791 43.7424 45.3313 43.4134 45.2077 43.1101C45.084 42.8067 44.8883 42.5383 44.6375 42.328" fill="#77777A"/>
<path id="svg_107" d="M62.7176 38.0051H58.8333V39.895H62.7176C63.4321 39.895 63.7505 40.27 63.7505 41.1112V41.513H60.6625C59.146 41.513 58.3461 42.2883 58.3461 43.7539V45.0506C58.3035 45.6868 58.5084 46.3147 58.918 46.8027C59.1513 47.0196 59.427 47.1858 59.7276 47.2906C60.0283 47.3955 60.3473 47.4368 60.6647 47.4119H65.5096V41.059C65.5096 39.0618 64.5454 38.0051 62.7198 38.0051M63.7535 43.197V45.6286H60.7667C60.26 45.6286 60.0537 45.411 60.0537 44.8795V43.9787C60.0537 43.4225 60.26 43.1962 60.7667 43.1962L63.7535 43.197Z" fill="#77777A"/>
<path id="svg_108" d="M67.7624 39.4996H68.9929L69.4533 36.0664H67.2991L67.7624 39.4996Z" fill="#77777A"/>
<path id="svg_109" d="M75.473 37.9658H71.5887V39.8557H75.473C76.1875 39.8557 76.506 40.2307 76.506 41.0719V41.4744H73.4179C71.8978 41.4744 71.1015 42.2497 71.1015 43.7161V45.0127C71.0587 45.6488 71.2634 46.2768 71.6727 46.7649C71.906 46.9818 72.1817 47.1479 72.4823 47.2528C72.783 47.3576 73.102 47.3989 73.4194 47.3741H78.2643V41.0197C78.2643 39.0217 77.2993 37.9658 75.4745 37.9658M76.5074 43.1569V45.5886H73.5207C73.014 45.5886 72.8084 45.371 72.8084 44.8394V43.9402C72.8084 43.3839 73.0147 43.1576 73.5207 43.1576L76.5074 43.1569Z" fill="#77777A"/>
<path id="svg_110" d="M85.7773 39.6875V38.0057H83.6057V35.0323H81.796V44.3093C81.796 46.8759 83.2488 47.4147 84.4678 47.4147H85.7418V45.643H84.5837C84.1262 45.643 83.6014 45.4979 83.6014 44.3579V39.6875H85.773H85.7773Z" fill="#77777A"/>
<path id="svg_111" d="M21.0334 37.9818H18.8321C18.0638 37.9921 17.331 38.3073 16.7943 38.8582C16.2576 39.409 15.9609 40.1507 15.9692 40.9204V44.4739C15.9607 45.2438 16.2573 45.9856 16.794 46.5366C17.3307 47.0877 18.0637 47.4029 18.8321 47.4133H21.0334C21.8017 47.4027 22.5346 47.0874 23.0713 46.5364C23.6079 45.9855 23.9046 45.2438 23.8963 44.4739V40.9204C23.9046 40.1507 23.6079 39.409 23.0712 38.8582C22.5345 38.3073 21.8017 37.9921 21.0334 37.9818ZM22.1366 40.9204V44.4739C22.1399 44.7706 22.0256 45.0565 21.8188 45.2688C21.6119 45.4812 21.3295 45.6027 21.0334 45.6067H18.8321C18.5358 45.6029 18.2532 45.4815 18.0463 45.2691C17.8393 45.0567 17.7249 44.7707 17.7282 44.4739V40.9204C17.7251 40.6237 17.8396 40.3379 18.0465 40.1257C18.2535 39.9135 18.536 39.7922 18.8321 39.7883H21.0334C21.3296 39.7922 21.6121 39.9136 21.819 40.126C22.0258 40.3384 22.1401 40.6237 22.1366 40.9204Z" fill="#77777A"/>
<path id="svg_112" d="M34.1617 41.8695C34.1493 39.2087 32.3744 37.9968 30.7283 37.9968H26.8766V47.3993H28.6363V39.8041H30.7283C31.17 39.8322 31.5855 40.0237 31.8943 40.3414C32.203 40.6591 32.3829 41.0804 32.399 41.5236V47.0555L32.4164 47.3993H34.1617V41.8695Z" fill="#77777A"/>
<path id="svg_113" d="M13.592 41.8811V41.868C13.5804 39.4878 12.1551 38.2695 10.6755 38.0374L10.6473 37.9946H8.77245L8.79416 38.0164C7.95137 38.116 7.17534 38.525 6.61603 39.1644C6.2976 38.7991 5.90529 38.5059 5.46512 38.3041C5.02495 38.1023 4.54699 37.9965 4.06293 37.9939H0.222778V47.3956H1.98251V39.804H4.06365C4.50498 39.8108 4.92638 39.9893 5.23862 40.3018C5.55086 40.6144 5.72943 41.0364 5.73652 41.4786C5.73652 41.4873 5.73652 41.496 5.73652 47.1287V47.3992H7.49626V47.1287C7.49626 41.7904 7.49626 41.4902 7.49626 41.4786C7.49683 41.0344 7.67331 40.6086 7.98695 40.2946C8.30059 39.9807 8.72576 39.8042 9.16913 39.804H10.1594C10.6007 39.8327 11.0157 40.0244 11.324 40.3421C11.6322 40.6598 11.8118 41.0808 11.8279 41.5235V47.0555L11.846 47.3992H13.5913L13.592 41.8811Z" fill="#77777A"/>
<path id="svg_114" d="M55.7714 41.8834V41.8704C55.7591 39.2096 53.9841 37.9977 52.3373 37.9977H50.2468V35.0294H48.4856V47.3994H50.2468V39.8035H52.3373C52.7793 39.8315 53.1951 40.023 53.504 40.3409C53.8128 40.6588 53.9928 41.0804 54.0088 41.5237V47.0557L54.0268 47.3994H55.7728V41.8834H55.7714Z" fill="#77777A"/>
<path id="svg_115" d="M70.3618 15.3964C70.3618 14.091 67.6364 12.816 67.6364 12.816C67.6364 12.816 64.8611 15.4877 64.9581 15.5719L68.0316 18.1515C68.0316 18.1515 70.3654 16.701 70.3654 15.4" fill="#007297"/>
<path id="svg_116" d="M54.535 15.569L57.6072 18.1486C57.6072 18.1486 59.9417 16.6981 59.9417 15.3971C59.9417 14.0961 57.217 12.8168 57.217 12.8168C57.217 12.8168 54.4409 15.4885 54.5387 15.5726" fill="#007297"/>
<path id="svg_117" d="M53.0292 15.3964C53.0292 14.091 50.3039 12.816 50.3039 12.816C50.3039 12.816 47.5285 15.4877 47.6255 15.5719L50.6984 18.1515C50.6984 18.1515 53.0321 16.701 53.0321 15.4" fill="#007297"/>
<path id="svg_118" d="M55.7539 10.1444C55.7539 8.83902 53.0286 7.56409 53.0286 7.56409C53.0286 7.56409 50.254 10.2365 50.3502 10.3199L53.4231 12.9002C53.4231 12.9002 55.7568 11.4498 55.7568 10.148" fill="#007297"/>
<path id="svg_119" d="M85.7722 20.5818C85.7433 19.8254 85.2851 17.0804 81.5738 17.0804H79.3754L73.8356 22.9032V27.9239C73.8367 28.1783 73.8651 28.4319 73.9203 28.6803C72.2973 28.6861 70.387 28.689 69.4453 27.0848C69.092 26.4219 68.9195 25.6775 68.9451 24.9265V20.2097L66.0438 23.1976V27.9239C66.0458 28.177 66.0647 28.4297 66.1003 28.6803C64.4817 28.6861 62.5815 28.6803 61.6434 27.0848C61.2901 26.4219 61.1174 25.6775 61.1425 24.9265V17.8064L58.231 20.7899V27.9217C58.2332 28.1748 58.2521 28.4275 58.2875 28.6781C57.5268 28.5781 56.8111 28.26 56.2266 27.7621C55.8062 27.4203 55.4667 26.9894 55.2325 26.5003C54.9983 26.0112 54.8753 25.4762 54.8723 24.9338V19.2916L51.9645 22.2766V27.9195C51.9671 28.1746 51.9955 28.4287 52.0492 28.6781C51.2777 28.5842 50.5509 28.2649 49.9593 27.76C49.5391 27.4181 49.1997 26.9871 48.9656 26.498C48.7315 26.009 48.6086 25.474 48.6057 24.9316V17.8064L45.6986 20.7899V27.9217C45.7008 28.176 45.7289 28.4295 45.7826 28.6781C44.1589 28.6839 42.2414 28.6897 41.2946 27.0826C40.9415 26.4202 40.769 25.6763 40.7944 24.9258V6.79541L37.8851 9.77677V28.0979L37.8931 28.0899C37.8698 28.6562 37.9857 29.2196 38.2307 29.7305C38.4757 30.2414 38.8423 30.6841 39.2981 31.0198C40.0994 31.4774 41.0111 31.705 41.933 31.6776C42.3181 31.6856 42.7018 31.666 43.0862 31.6653C43.2309 31.6653 43.5205 31.3563 43.5849 31.3026C43.9519 30.9799 44.3015 30.6296 44.6432 30.2779C44.9849 29.9262 45.328 29.5708 45.6407 29.1901C45.6624 29.1633 45.7522 29.0349 45.8369 28.9131C46.0442 29.6345 46.4668 30.2753 47.0479 30.7493C47.6923 31.3062 48.5029 31.6332 49.3527 31.679C49.4932 31.679 49.7921 31.3686 49.8508 31.3164C50.2178 30.9923 50.5688 30.6427 50.9091 30.2917C51.2493 29.9407 51.5938 29.5846 51.9073 29.2039C51.9283 29.1792 52.0209 29.0479 52.1056 28.9247C52.3149 29.6414 52.7365 30.2777 53.3145 30.7493C53.9589 31.3062 54.7695 31.6332 55.6193 31.679C55.7597 31.679 56.0587 31.3686 56.118 31.3164C56.4843 30.9923 56.8354 30.6427 57.1764 30.2917C57.5173 29.9407 57.8597 29.5846 58.1746 29.2039C58.1919 29.1828 58.2622 29.082 58.3367 28.9769C58.4056 29.3876 58.5565 29.7802 58.7804 30.1311C59.0043 30.482 59.2965 30.784 59.6397 31.0191C60.441 31.4767 61.3527 31.7043 62.2746 31.6769C62.6582 31.6848 63.0433 31.6653 63.427 31.6645C63.5718 31.6645 63.8613 31.3556 63.9243 31.3019C64.2913 30.9792 64.6431 30.6289 64.9826 30.2772C65.3221 29.9255 65.6674 29.5701 65.9808 29.1894C65.9996 29.1662 66.0684 29.0675 66.1415 28.9631V28.9761C66.2105 29.3868 66.3615 29.7793 66.5853 30.1302C66.8092 30.4811 67.1014 30.7832 67.4445 31.0184C68.2458 31.4759 69.1575 31.7035 70.0794 31.6761C70.4638 31.6841 70.8489 31.6645 71.2325 31.6638C71.3773 31.6638 71.6668 31.3549 71.7298 31.3012C72.0968 30.9785 72.4479 30.6282 72.7888 30.2765C73.1298 29.9247 73.4736 29.5694 73.7871 29.1886C73.8073 29.1633 73.8906 29.0436 73.9717 28.9276C74.5812 30.9814 77.0655 31.6769 79.0576 31.6769H79.7366L85.7679 25.5966C85.7679 25.5966 85.7679 20.6536 85.7679 20.5789M79.3537 28.3749C76.6087 28.3749 76.7521 26.0274 76.7412 24.9367V20.0052H80.9339C82.3867 20.0052 82.8594 22.2113 82.8594 24.7917C82.8594 24.8562 82.8594 27.6998 82.8637 28.3815L79.3537 28.3778" fill="#007297"/>
<path id="svg_120" d="M18.6316 17.585L21.8014 20.2487C21.8014 20.2487 24.2525 18.7257 24.2525 17.3587C24.2525 15.9917 21.391 14.6493 21.391 14.6493C21.391 14.6493 19.0572 16.8975 18.6403 17.4247C18.6026 16.0649 15.7831 14.7414 15.7831 14.7414C15.7831 14.7414 12.8674 17.5473 12.968 17.6307L16.1936 20.3408C16.1936 20.3408 18.4825 18.9165 18.6301 17.585" fill="#007297"/>
<path id="svg_121" d="M41.351 4.53768L44.8806 1.09798V0L42.578 2.1945L37.618 0.530133L37.3697 0.447459L33.9263 3.86323V4.9409L36.0545 2.80731L41.1216 4.46298L41.351 4.53768Z" fill="#007297"/>
<path id="svg_122" d="M34.0523 21.0117C33.846 20.6418 33.3697 19.9384 33.3697 19.9384L30.1846 23.0416C30.1846 23.0416 31.5643 25.3709 31.586 26.8178C31.5947 27.4175 31.586 26.7967 31.586 27.3979V28.5583H6.44157C4.19395 28.5583 3.28549 27.9295 3.28187 24.8488L4.82227 23.2613V21.4889L0.222778 26.2216C0.222778 26.2448 0.222778 27.9136 0.227846 27.9672C0.226261 28.7649 0.455851 29.5459 0.888742 30.2154C1.28065 30.7508 1.82757 31.1524 2.4552 31.3656C3.49684 31.6599 4.58255 31.7655 5.66124 31.6774H30.092L34.7776 27.4545V26.1107C34.7776 24.3702 34.9325 22.589 34.0537 21.0117" fill="#007297"/>
<path id="svg_123" d="M1.65897 57.744C1.62205 57.7338 1.49393 57.7004 1.27387 57.6453C1.12243 57.6103 0.973472 57.5652 0.827963 57.5104C0.762197 57.4862 0.704862 57.4434 0.66292 57.3872C0.633194 57.3289 0.619217 57.2639 0.622383 57.1986V57.1261C0.623389 57.0754 0.636065 57.0257 0.659421 56.9808C0.682778 56.9359 0.716181 56.897 0.757023 56.8672C0.876559 56.7808 1.02267 56.7395 1.16963 56.7504C1.33303 56.7385 1.49574 56.7814 1.63219 56.8723C1.68268 56.9137 1.72266 56.9665 1.74883 57.0263C1.77501 57.0862 1.78663 57.1515 1.78275 57.2167V57.2573H2.17509V57.2167C2.1763 57.1093 2.15765 57.0026 2.12008 56.902C2.0868 56.8138 2.03523 56.7337 1.96879 56.667C1.90303 56.603 1.8266 56.5509 1.74294 56.5133C1.6563 56.473 1.56481 56.4443 1.47076 56.4277C1.3713 56.4106 1.27055 56.4021 1.16963 56.4023C0.92869 56.3924 0.691014 56.4608 0.492086 56.5974C0.407604 56.6558 0.338866 56.7342 0.292005 56.8257C0.245145 56.9172 0.22162 57.0189 0.223529 57.1217V57.1587C0.217222 57.3205 0.258502 57.4807 0.342244 57.6192C0.446326 57.7572 0.595842 57.8538 0.764262 57.8919C0.796836 57.9021 0.901798 57.9296 1.14864 57.992C1.30006 58.0268 1.44902 58.0716 1.59454 58.1261C1.66025 58.1501 1.71708 58.1937 1.75742 58.2509C1.78744 58.3103 1.80165 58.3765 1.79868 58.4431V58.5279C1.79759 58.5788 1.78481 58.6288 1.76134 58.6739C1.73786 58.7191 1.70432 58.7582 1.66331 58.7883C1.54349 58.874 1.39754 58.915 1.25071 58.9043C1.08752 58.9162 0.925026 58.8734 0.788874 58.7825C0.738505 58.741 0.698708 58.6882 0.672778 58.6283C0.646847 58.5684 0.635527 58.5032 0.639756 58.438V58.3162H0.241626V58.438C0.240186 58.5455 0.259099 58.6523 0.297364 58.7527C0.331147 58.8408 0.382924 58.9208 0.449377 58.9877C0.515436 59.0512 0.591812 59.1029 0.675226 59.1407C0.76234 59.181 0.854321 59.2098 0.94885 59.2263C1.04836 59.2431 1.14908 59.2516 1.24998 59.2517C1.49075 59.2618 1.72842 59.1944 1.92825 59.0595C2.01301 59.0011 2.08203 58.9226 2.12914 58.831C2.17625 58.7394 2.2 58.6375 2.19826 58.5344V58.4714C2.20452 58.3101 2.16296 58.1506 2.07882 58.013C1.97413 57.8763 1.82516 57.7804 1.65752 57.7418" fill="#77777A"/>
<path id="svg_124" d="M6.96505 57.1007C6.87676 57.1204 6.79203 57.1537 6.71387 57.1993C6.633 57.2434 6.56146 57.3027 6.50322 57.3741C6.43933 57.4555 6.39188 57.5487 6.36351 57.6483C6.32669 57.7695 6.30887 57.8957 6.31067 58.0225V58.2582C6.30886 58.3846 6.32669 58.5106 6.36351 58.6316C6.39197 58.731 6.43942 58.8238 6.50322 58.9051C6.56181 58.9762 6.63297 59.0359 6.71315 59.0813C6.79202 59.1262 6.87718 59.1589 6.96578 59.1785C7.05591 59.1979 7.14792 59.2074 7.24013 59.2067H8.11384V57.0732H7.2394C7.14723 57.0725 7.05525 57.0817 6.96505 57.1007ZM6.68274 58.1095C6.66531 57.9216 6.71285 57.7334 6.81738 57.5765C6.87173 57.5206 6.93779 57.4776 7.01078 57.4505C7.08377 57.4234 7.16187 57.4129 7.2394 57.4198H7.74249V58.8608H7.2394C7.16198 58.8678 7.08399 58.8575 7.01102 58.8306C6.93805 58.8038 6.87192 58.7611 6.81738 58.7056C6.71295 58.5486 6.66543 58.3605 6.68274 58.1726V58.1095Z" fill="#77777A"/>
<path id="svg_125" d="M9.17275 56.2812H8.80212V59.2068H9.17275V56.2812Z" fill="#77777A"/>
<path id="svg_126" d="M10.2311 56.2812H9.85974V59.2068H10.2311V56.2812Z" fill="#77777A"/>
<path id="svg_127" d="M11.7903 57.4689C11.7497 57.4328 11.7178 57.3879 11.6969 57.3377C11.6759 57.2875 11.6666 57.2332 11.6694 57.1789V57.1121C11.6677 57.0619 11.6785 57.0121 11.7009 56.9671C11.7233 56.9222 11.7565 56.8835 11.7976 56.8547C11.9115 56.7806 12.0464 56.7455 12.1819 56.7546C12.3178 56.7452 12.4531 56.7792 12.5685 56.8518C12.6097 56.8811 12.6429 56.9202 12.665 56.9657C12.6872 57.0112 12.6975 57.0616 12.6952 57.1121V57.2673H13.0665V57.1121C13.0663 57.0617 13.0612 57.0115 13.0513 56.962C13.0157 56.8215 12.9385 56.6951 12.8298 56.5994C12.7514 56.5388 12.6623 56.4938 12.567 56.4667C12.3151 56.3929 12.0473 56.3929 11.7954 56.4667C11.7004 56.4953 11.6116 56.5418 11.5341 56.6038C11.4734 56.656 11.4229 56.7189 11.385 56.7894C11.3526 56.846 11.3283 56.9068 11.3126 56.97C11.303 57.0178 11.2979 57.0663 11.2974 57.115V57.1963C11.2975 57.2413 11.3016 57.2862 11.3097 57.3304C11.3201 57.3825 11.3346 57.4337 11.3531 57.4835C11.3767 57.5458 11.4108 57.6037 11.4537 57.6546C11.4867 57.6952 11.5243 57.7317 11.5659 57.7634C11.4758 57.8286 11.4038 57.9157 11.3568 58.0167C11.3098 58.1176 11.2893 58.2289 11.2974 58.3399V58.4661C11.2971 58.5379 11.3064 58.6093 11.3249 58.6786C11.3451 58.751 11.3772 58.8197 11.4197 58.8817C11.4662 58.9485 11.524 59.0067 11.5905 59.0535C11.6694 59.1062 11.7565 59.1452 11.8482 59.1689C11.9625 59.1994 12.0804 59.2141 12.1986 59.2124H13.0672V57.928H13.3756V57.5799H12.1819C12.0431 57.5917 11.9046 57.5545 11.7903 57.4748M12.1993 58.8664C12.0574 58.876 11.9168 58.8346 11.8026 58.7497C11.7593 58.7138 11.7248 58.6685 11.7018 58.6172C11.6787 58.5659 11.6676 58.51 11.6694 58.4538V58.3392C11.667 58.2846 11.6762 58.23 11.6963 58.1792C11.7163 58.1283 11.7469 58.0823 11.786 58.044C11.8278 58.0045 11.8772 57.9738 11.9312 57.9539C11.9852 57.934 12.0427 57.9252 12.1001 57.928H12.6944V58.8657H12.1986L12.1993 58.8664Z" fill="#77777A"/>
<path id="svg_128" d="M15.7868 58.6303L15.0028 56.4829L14.9934 56.4568H14.4237V59.2068H14.8226V57.05L15.5913 59.1821L15.6 59.209H15.9619L16.7531 57.0384V59.209H17.152V56.459H16.5685L15.7868 58.6303Z" fill="#77777A"/>
<path id="svg_129" d="M19.4141 57.3289C19.3541 57.2583 19.282 57.1989 19.2013 57.1534C19.122 57.1085 19.0367 57.0753 18.948 57.0548C18.7672 57.0172 18.5807 57.0172 18.4 57.0548C18.3112 57.0744 18.226 57.1076 18.1473 57.1534C18.0665 57.198 17.9948 57.2576 17.936 57.3289C17.8725 57.4103 17.8251 57.5031 17.7963 57.6023C17.7593 57.7238 17.7415 57.8503 17.7434 57.9772V58.3021C17.7415 58.4289 17.7594 58.5551 17.7963 58.6763C17.8252 58.7757 17.8726 58.8687 17.936 58.9505C17.9946 59.0223 18.066 59.0825 18.1466 59.1282C18.2255 59.1735 18.3106 59.2067 18.3993 59.2268C18.4894 59.2461 18.5814 59.2556 18.6736 59.2551C18.7759 59.2555 18.8778 59.2431 18.9769 59.2181C19.0719 59.1935 19.1624 59.1543 19.2455 59.102C19.334 59.044 19.4083 58.9667 19.4626 58.8758C19.525 58.7724 19.5668 58.6579 19.5857 58.5386L19.5936 58.4921H19.2093L19.2013 58.5226C19.1798 58.639 19.1165 58.7435 19.0232 58.8163C18.9178 58.8829 18.7944 58.9151 18.67 58.9084C18.593 58.9156 18.5153 58.9057 18.4425 58.8795C18.3697 58.8533 18.3036 58.8115 18.2487 58.7568C18.1511 58.6176 18.1034 58.4495 18.1133 58.2797H19.6031V57.9765C19.6047 57.8496 19.5869 57.7231 19.5502 57.6016C19.5211 57.5021 19.4734 57.4091 19.4098 57.3274M19.2295 57.9315H18.1148C18.1139 57.7787 18.1649 57.6301 18.2595 57.5102C18.3147 57.4609 18.3793 57.4234 18.4493 57.3998C18.5193 57.3763 18.5934 57.3672 18.6671 57.3731C18.7412 57.3673 18.8157 57.3764 18.8862 57.4C18.9567 57.4235 19.0218 57.461 19.0775 57.5102C19.1749 57.6289 19.2278 57.7779 19.2274 57.9315" fill="#77777A"/>
<path id="svg_130" d="M21.5785 57.0732H21.0718C20.9799 57.0724 20.8882 57.0814 20.7982 57.1C20.7092 57.12 20.6237 57.1535 20.5448 57.1994C20.4641 57.2448 20.3928 57.3054 20.3349 57.3778C20.2715 57.4598 20.2242 57.553 20.1952 57.6526C20.1583 57.7741 20.1405 57.9006 20.1423 58.0276V58.2575C20.1405 58.3839 20.1584 58.5099 20.1952 58.6309C20.2236 58.7303 20.2711 58.8231 20.3349 58.9043C20.3936 58.9756 20.465 59.0354 20.5455 59.0806C20.6241 59.1257 20.709 59.1585 20.7975 59.1778C20.8876 59.1973 20.9796 59.2068 21.0718 59.206H21.947V56.2812H21.5807V57.0732H21.5785ZM20.5166 58.1095C20.4992 57.9216 20.5467 57.7334 20.6512 57.5765C20.7056 57.5207 20.7717 57.4778 20.8447 57.4507C20.9177 57.4236 20.9957 57.4131 21.0732 57.4198H21.58V58.8608H21.0732C20.9958 58.8677 20.9179 58.8573 20.8449 58.8305C20.772 58.8037 20.7058 58.761 20.6512 58.7056C20.5468 58.5486 20.4993 58.3605 20.5166 58.1726V58.1095Z" fill="#77777A"/>
<path id="svg_131" d="M23.0045 57.0723H22.6332V59.2059H23.0045V57.0723Z" fill="#77777A"/>
<path id="svg_132" d="M25.1255 58.221C25.1424 58.4085 25.0998 58.5965 25.0039 58.7584C24.9503 58.8135 24.885 58.8558 24.8128 58.8819C24.7405 58.9081 24.6633 58.9174 24.5869 58.9092C24.5109 58.9177 24.434 58.9086 24.3621 58.8825C24.2902 58.8565 24.2252 58.8143 24.1722 58.7591C24.077 58.5967 24.035 58.4085 24.052 58.221V57.0723H23.6806V58.3051C23.6791 58.431 23.6949 58.5564 23.7277 58.6779C23.7537 58.777 23.7982 58.8702 23.8587 58.9528C23.9134 59.0251 23.9818 59.086 24.06 59.1319C24.1374 59.1773 24.2214 59.2103 24.309 59.2298C24.4926 59.2672 24.682 59.2672 24.8656 59.2298C24.953 59.2104 25.0368 59.1774 25.1139 59.1319C25.192 59.0858 25.2603 59.025 25.3152 58.9528C25.3761 58.8705 25.4206 58.7771 25.4462 58.6779C25.4794 58.5565 25.4955 58.431 25.494 58.3051V57.0723H25.1255V58.221Z" fill="#77777A"/>
<path id="svg_133" d="M30.692 59.2067H32.2715V58.86H31.0909V57.9898H32.2056V57.6431H31.0909V56.8048H32.2715V56.4559H30.692V59.2067Z" fill="#77777A"/>
<path id="svg_134" d="M38.3173 57.3289C38.2574 57.2582 38.1853 57.1988 38.1045 57.1534C38.0255 57.1085 37.9404 57.0753 37.8519 57.0548C37.6709 57.0172 37.4842 57.0172 37.3032 57.0548C37.2144 57.0745 37.1292 57.1077 37.0505 57.1534C36.97 57.1982 36.8986 57.2578 36.8399 57.3289C36.7761 57.4102 36.7284 57.503 36.6995 57.6023C36.6625 57.7238 36.6447 57.8503 36.6466 57.9773V58.3022C36.6447 58.4289 36.6626 58.5551 36.6995 58.6764C36.7284 58.7759 36.7761 58.8689 36.8399 58.9505C36.8984 59.0224 36.9699 59.0826 37.0505 59.1282C37.1294 59.1735 37.2145 59.2068 37.3032 59.2268C37.3931 59.2461 37.4848 59.2556 37.5768 59.2551C37.6791 59.2555 37.7809 59.2431 37.8801 59.2181C37.9751 59.1936 38.0657 59.1544 38.1487 59.1021C38.2371 59.0446 38.3114 58.9677 38.3658 58.8773C38.4286 58.7737 38.4706 58.6589 38.4896 58.5393L38.4976 58.4929H38.1132L38.106 58.5234C38.0845 58.6398 38.0211 58.7443 37.9279 58.8171C37.8224 58.8836 37.699 58.9157 37.5746 58.9092C37.4977 58.9163 37.4202 58.9065 37.3475 58.8803C37.2748 58.8541 37.2088 58.8122 37.1541 58.7576C37.0563 58.6185 37.0085 58.4502 37.0187 58.2804H38.5142V57.9773C38.5159 57.8503 38.4981 57.7239 38.4614 57.6023C38.4326 57.5028 38.3849 57.4097 38.3209 57.3282M38.1407 57.9323H37.0259C37.0252 57.7795 37.0762 57.6309 37.1707 57.5109C37.2259 57.4617 37.2904 57.4241 37.3605 57.4006C37.4305 57.377 37.5046 57.3679 37.5783 57.3739C37.6524 57.368 37.7271 57.3771 37.7977 57.4007C37.8683 57.4242 37.9335 57.4617 37.9894 57.5109C38.0865 57.6298 38.1392 57.7788 38.1385 57.9323" fill="#77777A"/>
<path id="svg_135" d="M42.2212 57.3746C42.1621 57.3036 42.0901 57.2443 42.0091 57.1999C41.9304 57.1542 41.8452 57.121 41.7564 57.1012C41.666 57.0825 41.5738 57.0735 41.4814 57.0744H40.6069V59.9999H40.9783V59.208H41.4814C41.5738 59.2087 41.6661 59.1992 41.7564 59.1797C41.8451 59.1605 41.9303 59.1277 42.0091 59.0825C42.0899 59.0373 42.162 58.9778 42.2219 58.907C42.286 58.8257 42.3337 58.7326 42.3623 58.6329C42.399 58.5119 42.4168 58.3859 42.4152 58.2594V58.0237C42.4167 57.897 42.3989 57.7708 42.3623 57.6495C42.3337 57.5499 42.286 57.4567 42.2219 57.3754M42.0409 58.1086V58.1717C42.0585 58.3598 42.0104 58.5482 41.9048 58.7047C41.8498 58.7605 41.783 58.8034 41.7094 58.8302C41.6358 58.8571 41.5572 58.8672 41.4792 58.8599H40.9761V57.4189H41.4792C41.5573 57.4121 41.6359 57.4226 41.7095 57.4497C41.783 57.4767 41.8497 57.5197 41.9048 57.5755C42.01 57.7323 42.058 57.9205 42.0409 58.1086Z" fill="#77777A"/>
<path id="svg_136" d="M44.8829 57.0723H44.5116V59.2059H44.8829V57.0723Z" fill="#77777A"/>
<path id="svg_137" d="M46.7606 58.0347C46.7157 58.0224 46.5955 57.9919 46.4247 57.9535C46.2539 57.9151 46.12 57.881 46.0483 57.8549C45.9909 57.8412 45.9379 57.8133 45.8941 57.7737C45.868 57.7341 45.8562 57.6867 45.8608 57.6395V57.6214C45.8619 57.5854 45.8728 57.5504 45.8923 57.5203C45.9118 57.4901 45.9392 57.4659 45.9716 57.4502C46.0835 57.394 46.2085 57.369 46.3335 57.3777C46.8185 57.3777 46.8185 57.5953 46.8185 57.6678V57.7077H47.1898V57.6678C47.1911 57.5644 47.1662 57.4623 47.1175 57.3712C47.072 57.2876 47.005 57.2177 46.9235 57.1688C46.8395 57.121 46.749 57.0856 46.6549 57.0637C46.5488 57.0395 46.4402 57.0279 46.3313 57.0289C46.1214 57.0209 45.9136 57.0735 45.7327 57.1804C45.6578 57.2224 45.5955 57.2838 45.5524 57.3582C45.5094 57.4326 45.4871 57.5172 45.488 57.6032V57.6257C45.4806 57.7545 45.5163 57.8821 45.5894 57.9883C45.6761 58.0888 45.7924 58.1591 45.9216 58.1892C45.9593 58.1994 46.0664 58.2269 46.2517 58.2719C46.437 58.3169 46.5557 58.348 46.6288 58.3727C46.6876 58.3869 46.7418 58.4155 46.7866 58.4561C46.8137 58.4945 46.8263 58.5413 46.8221 58.5881V58.628C46.8221 58.7005 46.8221 58.9137 46.3711 58.9137C45.8912 58.9137 45.8912 58.6918 45.8912 58.6193V58.4481H45.5191V58.6193C45.5185 58.7224 45.5433 58.824 45.5915 58.9151C45.6372 58.999 45.7044 59.0691 45.7863 59.1182C45.8695 59.1677 45.9598 59.2042 46.0541 59.2263C46.2602 59.2706 46.4734 59.2706 46.6795 59.2263C46.7705 59.2056 46.8578 59.1714 46.9387 59.1247C47.0188 59.0771 47.0844 59.0083 47.1283 58.926C47.1751 58.8348 47.1985 58.7334 47.1964 58.6309V58.599C47.2029 58.4702 47.1674 58.3429 47.095 58.2363C47.0077 58.1372 46.8919 58.0675 46.7635 58.0369" fill="#77777A"/>
<path id="svg_138" d="M49.3881 57.329C49.3285 57.2584 49.2567 57.1992 49.176 57.1543C49.0969 57.109 49.0115 57.0758 48.9227 57.0556C48.7415 57.0181 48.5545 57.0181 48.3733 57.0556C48.2853 57.0757 48.2009 57.109 48.1228 57.1543C48.0422 57.1989 47.9707 57.2585 47.9122 57.3297C47.8482 57.411 47.8005 57.5038 47.7717 57.6032C47.7354 57.7247 47.7178 57.8512 47.7196 57.9781V58.303C47.7178 58.4297 47.7354 58.5559 47.7717 58.6772C47.8005 58.7768 47.8482 58.8699 47.9122 58.9513C47.9706 59.023 48.0418 59.0832 48.1221 59.129C48.2007 59.1742 48.2856 59.2074 48.374 59.2276C48.4644 59.2469 48.5566 59.2564 48.6491 59.2559C48.7513 59.2563 48.8532 59.2439 48.9524 59.2189C49.0473 59.1942 49.1378 59.1551 49.2209 59.1029C49.3093 59.0454 49.3836 58.9685 49.4381 58.8781C49.5007 58.7744 49.543 58.6597 49.5626 58.5401L49.5706 58.493H49.1855L49.1775 58.5235C49.1558 58.64 49.0922 58.7445 48.9987 58.8172C48.8936 58.8839 48.7704 58.9161 48.6462 58.9093C48.5691 58.9165 48.4915 58.9067 48.4187 58.8805C48.3459 58.8543 48.2797 58.8124 48.2249 58.7577C48.1271 58.6186 48.0793 58.4503 48.0895 58.2805H49.5792V57.9774C49.5809 57.8504 49.5631 57.724 49.5264 57.6024C49.4962 57.5026 49.4471 57.4095 49.3816 57.3283M49.2014 57.9324H48.0866C48.0853 57.7795 48.1364 57.6308 48.2314 57.5111C48.2866 57.4619 48.3511 57.4244 48.4212 57.4008C48.4912 57.3773 48.5653 57.3681 48.6389 57.374C48.7131 57.3681 48.7877 57.3773 48.8584 57.4008C48.929 57.4243 48.9942 57.4618 49.0501 57.5111C49.1473 57.6298 49.2001 57.7788 49.1992 57.9324" fill="#77777A"/>
<path id="svg_139" d="M51.3831 58.0346C51.3361 58.0216 51.2137 57.9911 51.048 57.9534C50.8699 57.9113 50.7432 57.8809 50.6716 57.8548C50.6142 57.8405 50.561 57.8127 50.5167 57.7735C50.4911 57.7334 50.4794 57.6861 50.4834 57.6387V57.6205C50.4843 57.5845 50.4951 57.5495 50.5146 57.5193C50.5342 57.4891 50.5617 57.4649 50.5941 57.4494C50.7061 57.3932 50.8311 57.3682 50.9561 57.3769C51.441 57.3769 51.4411 57.5944 51.4411 57.667V57.7068H51.8117V57.667C51.8128 57.5636 51.7879 57.4615 51.7393 57.3703C51.6936 57.2869 51.6267 57.217 51.5453 57.168C51.4613 57.1201 51.3709 57.0847 51.2767 57.0628C51.1705 57.0389 51.062 57.0273 50.9532 57.028C50.743 57.02 50.535 57.0726 50.3538 57.1796C50.279 57.2216 50.2169 57.2831 50.1739 57.3575C50.131 57.4319 50.1089 57.5165 50.1098 57.6024V57.6249C50.1024 57.7537 50.1381 57.8813 50.2112 57.9875C50.2977 58.0883 50.4141 58.1586 50.5434 58.1884C50.5825 58.1993 50.694 58.2275 50.8735 58.2711C51.0531 58.3146 51.179 58.3479 51.2507 58.3719C51.3094 58.386 51.3636 58.4147 51.4085 58.4553C51.4358 58.4935 51.4487 58.5403 51.4447 58.5872V58.6271C51.4447 58.6997 51.4447 58.9129 50.993 58.9129C50.513 58.9129 50.513 58.691 50.513 58.6184V58.4473H50.141V58.6184C50.1403 58.7215 50.1652 58.8232 50.2134 58.9143C50.2588 58.9984 50.3261 59.0685 50.4081 59.1174C50.4911 59.1674 50.5815 59.2038 50.6759 59.2254C50.8818 59.2697 51.0947 59.2697 51.3006 59.2254C51.3912 59.2049 51.4781 59.1707 51.5583 59.1239C51.6392 59.0769 51.7051 59.008 51.7487 58.9252C51.7971 58.8344 51.822 58.7329 51.8211 58.63V58.5981C51.8278 58.4694 51.7922 58.342 51.7197 58.2355C51.6322 58.1363 51.5161 58.0666 51.3875 58.0361" fill="#77777A"/>
<path id="svg_140" d="M53.8357 56.92C53.8967 56.8614 53.9694 56.8164 54.049 56.788C54.1286 56.7597 54.2133 56.7485 54.2976 56.7553C54.4547 56.745 54.6099 56.7947 54.7319 56.8946C54.8434 57.0176 54.906 57.1773 54.9078 57.3435V57.3805H55.3088V57.3399C55.3093 57.2148 55.289 57.0905 55.2487 56.9722C55.2154 56.8733 55.1627 56.7821 55.0938 56.7038C55.029 56.6327 54.9514 56.5744 54.8651 56.532C54.7792 56.4879 54.6876 56.4559 54.5929 56.437C54.3941 56.4001 54.1902 56.4001 53.9914 56.437C53.8952 56.4555 53.8024 56.4887 53.7163 56.5356C53.6301 56.5797 53.553 56.6398 53.489 56.7125C53.4208 56.7931 53.369 56.8862 53.3363 56.9867C53.2975 57.1078 53.2786 57.2344 53.2805 57.3616V58.3044C53.2788 58.4316 53.2976 58.5582 53.3363 58.6793C53.369 58.78 53.4208 58.8733 53.489 58.9542C53.5528 59.0268 53.6297 59.0869 53.7156 59.1311C53.8023 59.1772 53.8952 59.2104 53.9914 59.2298C54.0913 59.2488 54.1929 59.258 54.2947 59.2573C54.4902 59.2619 54.6854 59.2375 54.8738 59.1848C55.0315 59.1365 55.1754 59.0512 55.2936 58.9361L55.3059 58.9252V57.738H54.4185V58.0846H54.9078V58.7751C54.838 58.821 54.7612 58.8553 54.6805 58.8766C54.5529 58.9047 54.4223 58.9168 54.2918 58.9128C54.2076 58.9196 54.1229 58.9084 54.0433 58.8801C53.9637 58.8517 53.891 58.8068 53.8299 58.7482C53.7147 58.593 53.6603 58.4007 53.6772 58.2079V57.4646C53.6598 57.272 53.7136 57.0797 53.8285 56.9243" fill="#77777A"/>
<path id="svg_141" d="M57.5405 57.3292C57.481 57.2585 57.4091 57.1992 57.3284 57.1544C57.2493 57.1092 57.1639 57.076 57.0751 57.0558C56.9846 57.0365 56.8924 57.027 56.8 57.0275C56.708 57.027 56.6163 57.0365 56.5264 57.0558C56.4377 57.0759 56.3526 57.1092 56.2737 57.1544C56.1932 57.1993 56.1218 57.2588 56.0631 57.3299C55.9995 57.4112 55.9521 57.5041 55.9234 57.6033C55.8862 57.7247 55.8684 57.8513 55.8705 57.9782V58.3031C55.8684 58.4299 55.8863 58.5562 55.9234 58.6773C55.9521 58.7768 55.9995 58.8699 56.0631 58.9515C56.1215 59.0232 56.1927 59.0834 56.273 59.1292C56.3519 59.1744 56.437 59.2077 56.5256 59.2278C56.6156 59.2471 56.7073 59.2566 56.7993 59.2561C56.9015 59.2565 57.0034 59.2441 57.1026 59.2191C57.1979 59.1944 57.289 59.1552 57.3726 59.1031C57.4606 59.0451 57.5348 58.9683 57.5897 58.8782C57.6525 58.7747 57.6945 58.6599 57.7135 58.5403L57.7215 58.4939H57.3393L57.332 58.5243C57.31 58.6409 57.2465 58.7456 57.1532 58.8188C57.0478 58.8853 56.9244 58.9175 56.8 58.9109C56.7231 58.9175 56.6457 58.9074 56.5731 58.8813C56.5005 58.8551 56.4344 58.8135 56.3794 58.7593C56.2821 58.62 56.2345 58.4519 56.244 58.2821H57.7338V57.9797C57.7354 57.8527 57.7176 57.7263 57.6809 57.6048C57.6521 57.5052 57.6045 57.4121 57.5405 57.3306M57.3603 57.9347H56.2455C56.2446 57.7819 56.2957 57.6333 56.3903 57.5134C56.4453 57.4641 56.5097 57.4266 56.5796 57.403C56.6496 57.3795 56.7235 57.3704 56.7971 57.3763C56.8714 57.3704 56.9461 57.3795 57.0169 57.403C57.0876 57.4266 57.153 57.4641 57.209 57.5134C57.3058 57.6323 57.3585 57.7812 57.3581 57.9347" fill="#77777A"/>
<path id="svg_142" d="M59.9025 57.2842C59.8179 57.2044 59.7138 57.1484 59.6007 57.1217C59.4508 57.0864 59.2971 57.0703 59.1432 57.0738H58.3469V59.2074H58.7183V57.4198H59.1815C59.2772 57.4177 59.3728 57.4277 59.466 57.4495C59.5281 57.4628 59.5853 57.4932 59.6311 57.5373C59.6706 57.5778 59.6992 57.6277 59.7143 57.6823C59.7317 57.7554 59.7398 57.8305 59.7382 57.9057V59.2111H60.1096V57.9499C60.1125 57.8184 60.0974 57.6871 60.0647 57.5597C60.0365 57.4554 59.9813 57.3603 59.9047 57.2842" fill="#77777A"/>
<path id="svg_143" d="M62.3572 57.329C62.2978 57.2582 62.2259 57.199 62.1451 57.1542C62.0661 57.1093 61.981 57.0761 61.8924 57.0556C61.7117 57.0181 61.5252 57.0181 61.3445 57.0556C61.2557 57.0754 61.1705 57.1087 61.0918 57.1542C61.0114 57.1991 60.9399 57.2586 60.8812 57.3297C60.8176 57.4111 60.7702 57.5039 60.7415 57.6031C60.7043 57.7246 60.6865 57.8511 60.6886 57.9781V58.303C60.6865 58.4297 60.7044 58.556 60.7415 58.6772C60.7702 58.7767 60.8176 58.8697 60.8812 58.9513C60.9396 59.0231 61.0108 59.0833 61.0911 59.129C61.17 59.1743 61.2551 59.2075 61.3438 59.2276C61.4339 59.247 61.5259 59.2565 61.6181 59.2559C61.7203 59.2564 61.8222 59.2439 61.9214 59.2189C62.0167 59.1942 62.1078 59.155 62.1914 59.1029C62.2794 59.0449 62.3536 58.9681 62.4086 58.8781C62.4711 58.7744 62.5131 58.6597 62.5324 58.5401L62.5403 58.4937H62.1559L62.148 58.5242C62.1265 58.6406 62.0631 58.7451 61.9699 58.8179C61.8645 58.8845 61.7411 58.9166 61.6167 58.91C61.5396 58.9171 61.462 58.9073 61.3892 58.8811C61.3164 58.8549 61.2502 58.813 61.1954 58.7584C61.0978 58.6192 61.0501 58.451 61.06 58.2812H62.5497V57.9781C62.5514 57.8511 62.5336 57.7247 62.4969 57.6031C62.4679 57.5037 62.4209 57.4106 62.3572 57.329ZM62.1762 57.9331H61.0614C61.0605 57.7803 61.1116 57.6317 61.2062 57.5118C61.2612 57.4625 61.3257 57.425 61.3956 57.4014C61.4655 57.3779 61.5395 57.3688 61.613 57.3747C61.6873 57.3688 61.7621 57.3779 61.8328 57.4014C61.9036 57.425 61.9689 57.4625 62.0249 57.5118C62.122 57.6306 62.1747 57.7796 62.174 57.9331" fill="#77777A"/>
<path id="svg_144" d="M63.1614 59.2066H63.5327V57.4189H64.1263V57.0723H63.1614V59.2066Z" fill="#77777A"/>
<path id="svg_145" d="M65.0905 57.1007C65.0019 57.1201 64.9169 57.1534 64.8386 57.1993C64.7577 57.2433 64.6862 57.3027 64.628 57.3741C64.5638 57.4555 64.5161 57.5486 64.4875 57.6483C64.4507 57.7695 64.4329 57.8957 64.4347 58.0225V58.2582C64.4329 58.3846 64.4507 58.5107 64.4875 58.6317C64.5162 58.7311 64.5639 58.8239 64.628 58.9051C64.6865 58.9765 64.758 59.0363 64.8386 59.0813C64.9171 59.1265 65.002 59.1593 65.0905 59.1785C65.1806 59.198 65.2727 59.2075 65.3649 59.2068H66.2393V57.0732H65.3649C65.2727 57.0724 65.1807 57.0816 65.0905 57.1007ZM64.8082 58.1095C64.7908 57.9216 64.8383 57.7334 64.9429 57.5765C64.9972 57.5206 65.0632 57.4775 65.1362 57.4504C65.2092 57.4234 65.2873 57.4129 65.3649 57.4198H65.868V58.8608H65.3649C65.2874 58.8679 65.2094 58.8576 65.1364 58.8308C65.0634 58.8039 64.9973 58.7612 64.9429 58.7056C64.8384 58.5486 64.7909 58.3605 64.8082 58.1726V58.1095Z" fill="#77777A"/>
<path id="svg_146" d="M67.2976 56.2812H66.9277V59.2068H67.2976V56.2812Z" fill="#77777A"/>
<path id="svg_147" d="M69.7841 56.4573H69.2999L68.4312 59.1551L68.4146 59.2073H68.8315L69.0146 58.6329H70.0628L70.2459 59.2073H70.6615L69.7928 56.4848L69.7841 56.4573ZM69.9521 58.2841H69.129L69.5395 57.0041L69.9521 58.2841Z" fill="#77777A"/>
<path id="svg_148" d="M72.5268 58.221C72.5437 58.4086 72.5009 58.5967 72.4045 58.7584C72.3509 58.8135 72.2856 58.8558 72.2134 58.8819C72.1411 58.9081 72.0639 58.9174 71.9876 58.9092C71.9116 58.9177 71.8346 58.9086 71.7627 58.8825C71.6908 58.8565 71.6258 58.8143 71.5728 58.7591C71.4774 58.5968 71.4354 58.4086 71.4526 58.221V57.0723H71.0791V58.3051C71.0775 58.431 71.0934 58.5564 71.1261 58.6779C71.1522 58.777 71.1966 58.8702 71.2572 58.9528C71.3118 59.0252 71.3802 59.0861 71.4584 59.1319C71.5356 59.1771 71.6194 59.2102 71.7067 59.2298C71.8904 59.2672 72.0797 59.2672 72.2633 59.2298C72.3505 59.2104 72.434 59.1773 72.5109 59.1319C72.589 59.0859 72.6574 59.0251 72.7121 58.9528C72.773 58.8704 72.8175 58.7771 72.8432 58.6779C72.8767 58.5565 72.893 58.431 72.8917 58.3051V57.0723H72.5268V58.221Z" fill="#77777A"/>
<path id="svg_149" d="M76.5914 57.2819C76.5073 57.2022 76.4033 57.1466 76.2903 57.1209C76.1406 57.0861 75.9872 57.0703 75.8335 57.0738H75.4028V56.2826H75.0315V59.2074H75.4028V57.4197H75.8661C75.9618 57.4177 76.0574 57.4277 76.1506 57.4495C76.2095 57.4608 76.264 57.4886 76.3079 57.5297C76.3517 57.5707 76.383 57.6234 76.3982 57.6815C76.4164 57.7543 76.4247 57.8292 76.4228 57.9042V59.2096H76.7941V57.952C76.797 57.8206 76.7822 57.6893 76.75 57.5619C76.7222 57.4572 76.6676 57.3617 76.5914 57.2848" fill="#77777A"/>
<path id="svg_150" d="M79.0439 57.3291C78.9844 57.2582 78.9125 57.1988 78.8318 57.1536C78.7527 57.1085 78.6673 57.0755 78.5785 57.0557C78.3978 57.0177 78.2112 57.0177 78.0305 57.0557C77.9417 57.075 77.8565 57.108 77.7779 57.1536C77.6973 57.1984 77.6259 57.2579 77.5672 57.3291C77.5035 57.4104 77.4561 57.5032 77.4275 57.6025C77.3906 57.724 77.3727 57.8505 77.3747 57.9774V58.3023C77.3728 58.4291 77.3906 58.5553 77.4275 58.6765C77.4562 58.776 77.5036 58.869 77.5672 58.9507C77.6257 59.0223 77.6969 59.0825 77.7771 59.1283C77.8559 59.1738 77.9411 59.207 78.0298 59.227C78.1199 59.2463 78.2119 59.2557 78.3041 59.2553C78.3968 59.2557 78.4892 59.2462 78.5799 59.227C78.6686 59.2072 78.7538 59.1739 78.8325 59.1283C78.9135 59.0827 78.9855 59.0225 79.0446 58.9507C79.1086 58.8692 79.1563 58.7761 79.1851 58.6765C79.2218 58.5553 79.2396 58.429 79.2379 58.3023V57.9774C79.2396 57.8505 79.2218 57.724 79.1851 57.6025C79.1548 57.5029 79.1057 57.41 79.0403 57.3291M78.8622 58.0579V58.2211C78.8793 58.409 78.8309 58.5971 78.7254 58.7534C78.6701 58.8089 78.6034 58.8516 78.5298 58.8784C78.4563 58.9053 78.3777 58.9156 78.2998 58.9086C78.2224 58.9155 78.1445 58.9052 78.0716 58.8785C77.9986 58.8518 77.9324 58.8094 77.8777 58.7541C77.7736 58.597 77.7261 58.4089 77.7431 58.2211V58.0579C77.7259 57.871 77.7734 57.6838 77.8777 57.5278C77.9325 57.4727 77.9987 57.4304 78.0717 57.4038C78.1446 57.3773 78.2225 57.3671 78.2998 57.374C78.3777 57.367 78.4563 57.3771 78.5299 57.4037C78.6036 57.4302 78.6705 57.4726 78.7261 57.5278C78.8312 57.6835 78.879 57.8708 78.8615 58.0579" fill="#77777A"/>
<path id="svg_151" d="M81.7048 57.0723H81.3335V59.2059H81.7048V57.0723Z" fill="#77777A"/>
<path id="svg_152" d="M82.9789 56.4568H82.6068V57.0732H82.2651V57.4199H82.6068V59.2075H82.9789V57.4199H83.3321V57.0732H82.9789V56.4568Z" fill="#77777A"/>
<path id="svg_153" d="M85.3772 57.0723L84.73 58.7874L84.0952 57.0984L84.085 57.0723H83.6891L84.4557 59.0992C84.4764 59.1534 84.5167 59.1977 84.5686 59.2233L84.2732 59.9978H84.6678L85.7767 57.0723H85.3772Z" fill="#77777A"/>
<path id="svg_154" d="M79.8489 59.2066H80.2202V57.4189H80.8138V57.0723H79.8496L79.8489 59.2066Z" fill="#77777A"/>
<path id="svg_155" d="M43.0261 59.2066H43.3975V57.4189H43.991V57.0723H43.0268L43.0261 59.2066Z" fill="#77777A"/>
<path id="svg_156" d="M39.1222 59.2066H39.4928V57.4189H40.0864V57.0723H39.1222V59.2066Z" fill="#77777A"/>
<path id="svg_157" d="M74.1137 56.4568H73.743V57.0732H73.4014V57.4199H73.743V59.2075H74.1137V57.4199H74.4676V57.0732H74.1137V56.4568Z" fill="#77777A"/>
<path id="svg_158" d="M35.9437 56.4568H35.5709V57.0732H35.2307V57.4199H35.5709V59.2075H35.9423V57.4199H36.2948V57.0732H35.9416L35.9437 56.4568Z" fill="#77777A"/>
<path id="svg_159" d="M34.4561 57.2842C34.3711 57.2045 34.2668 57.1485 34.1535 57.1217C34.0037 57.0863 33.8499 57.0703 33.696 57.0739H32.8998V59.2074H33.2711V57.4198H33.7344C33.8301 57.4177 33.9257 57.4277 34.0189 57.4495C34.0776 57.4612 34.1319 57.4891 34.1758 57.5299C34.2196 57.5708 34.2513 57.623 34.2672 57.6809C34.2846 57.754 34.2926 57.8291 34.2911 57.9042V59.2096H34.6624V57.9499C34.6653 57.8184 34.6502 57.6871 34.6175 57.5598C34.5894 57.4557 34.5348 57.3607 34.459 57.2842" fill="#77777A"/>
<path id="svg_160" d="M44.8901 56.5451C44.8746 56.5136 44.8492 56.4881 44.8178 56.4726C44.7426 56.4418 44.6584 56.4418 44.5832 56.4726C44.5523 56.4867 44.5269 56.5107 44.5108 56.5407C44.4997 56.5614 44.491 56.5833 44.4848 56.606C44.4801 56.6247 44.4777 56.644 44.4775 56.6633C44.4777 56.6838 44.4801 56.7042 44.4848 56.7242C44.4906 56.7462 44.4991 56.7674 44.5101 56.7873C44.5254 56.8189 44.5509 56.8445 44.5825 56.8598C44.6197 56.8753 44.6595 56.8832 44.6998 56.8832C44.74 56.8832 44.7799 56.8753 44.817 56.8598C44.8477 56.8457 44.8731 56.822 44.8894 56.7924C44.901 56.7714 44.9097 56.7489 44.9155 56.7257C44.9201 56.7064 44.9225 56.6867 44.9227 56.6669C44.9225 56.6471 44.9201 56.6274 44.9155 56.6082C44.91 56.5861 44.9015 56.5648 44.8901 56.5451Z" fill="#77777A"/>
<path id="svg_161" d="M23.011 56.5435C22.9952 56.5123 22.9699 56.4869 22.9387 56.471C22.8635 56.44 22.7792 56.44 22.7041 56.471C22.6729 56.4868 22.6475 56.5122 22.6317 56.5435C22.6212 56.5635 22.6132 56.5847 22.6078 56.6066C22.6028 56.6258 22.6003 56.6456 22.6006 56.6654C22.6005 56.6854 22.6026 56.7053 22.6071 56.7248C22.6133 56.7475 22.622 56.7694 22.6332 56.7901C22.6493 56.8201 22.6747 56.844 22.7056 56.8583C22.7424 56.8749 22.7825 56.8828 22.8228 56.8815C22.863 56.8829 22.9028 56.875 22.9394 56.8583C22.9703 56.8441 22.9958 56.8202 23.0118 56.7901C23.023 56.7695 23.0318 56.7476 23.0378 56.7248C23.0418 56.7053 23.0438 56.6853 23.0436 56.6654C23.0438 56.6456 23.0418 56.626 23.0378 56.6066C23.0314 56.5843 23.0227 56.5626 23.0118 56.5421" fill="#77777A"/>
<path id="svg_162" d="M81.7107 56.5452C81.6954 56.5135 81.6699 56.488 81.6383 56.4726C81.5629 56.4417 81.4784 56.4417 81.403 56.4726C81.3721 56.4867 81.3466 56.5107 81.3307 56.5408C81.3195 56.5616 81.3105 56.5835 81.3039 56.6061C81.2994 56.6249 81.297 56.6441 81.2966 56.6634C81.297 56.6839 81.2994 56.7043 81.3039 56.7243C81.31 56.7462 81.3184 56.7674 81.3292 56.7874C81.3444 56.8191 81.37 56.8447 81.4016 56.8599C81.4387 56.8753 81.4784 56.8832 81.5185 56.8832C81.5586 56.8832 81.5983 56.8753 81.6354 56.8599C81.6662 56.8459 81.6916 56.8222 81.7078 56.7925C81.7196 56.7715 81.7286 56.7491 81.7346 56.7257C81.7383 56.7064 81.7402 56.6867 81.7404 56.667C81.7402 56.6473 81.7383 56.6276 81.7346 56.6083C81.729 56.5861 81.7202 56.5648 81.7085 56.5452" fill="#77777A"/>
<path id="svg_163" d="M28.8751 57.2899C28.7973 57.2088 28.6986 57.1509 28.5899 57.1224C28.4481 57.0862 28.302 57.0694 28.1556 57.0724H26.1664V59.206H26.5377V57.4183H27.402V59.206H27.7756V57.4183H28.1375C28.2334 57.4162 28.3292 57.426 28.4227 57.4473C28.4841 57.4608 28.5405 57.4912 28.5856 57.5351C28.6245 57.5757 28.6524 57.6256 28.6666 57.6801C28.6844 57.7532 28.6925 57.8283 28.6905 57.9035V59.2089H29.0619V57.9513C29.0647 57.8217 29.0506 57.6922 29.0199 57.5662C28.9942 57.4648 28.9446 57.371 28.8751 57.2928" fill="#77777A"/>
<path id="svg_164" d="M5.53966 57.2899C5.46181 57.2088 5.36311 57.1508 5.25445 57.1224C5.11258 57.0862 4.96649 57.0694 4.82013 57.0724H2.8302V59.2059H3.20155V57.4183H4.06513V59.2059H4.43647V57.4183H4.80493C4.90058 57.4162 4.99613 57.426 5.08941 57.4473C5.15103 57.4607 5.20769 57.4911 5.253 57.535C5.29179 57.5758 5.31967 57.6257 5.33408 57.6801C5.35173 57.7532 5.35976 57.8283 5.35797 57.9034V59.2088H5.72859V57.9513C5.7311 57.8217 5.71724 57.6923 5.68733 57.5662C5.66146 57.4648 5.61183 57.3711 5.54255 57.2928" fill="#77777A"/>
<path id="svg_165" d="M85.776 50.7737H85.3901V54.5535H85.776V50.7737Z" fill="#77777A"/>
<path id="svg_166" d="M84.1804 50.7738V54.1627H83.2777V53.3265C83.282 53.1248 83.2608 52.9233 83.2148 52.7268C83.182 52.5848 83.1129 52.4538 83.0143 52.3468C82.9206 52.2515 82.8035 52.1827 82.6748 52.1473C82.5112 52.1049 82.3427 52.0854 82.1738 52.0893H81.5383V52.4795H82.1977C82.3016 52.4769 82.4053 52.4883 82.5061 52.5136C82.5861 52.5364 82.659 52.579 82.7182 52.6376C82.7836 52.7056 82.8289 52.7905 82.8492 52.8827C82.8791 53.012 82.893 53.1445 82.8905 53.2772V54.1627H82.5068V53.6086C82.5084 53.4977 82.4933 53.3872 82.4619 53.2809C82.437 53.1955 82.396 53.1157 82.341 53.0459C82.2898 52.9852 82.228 52.9343 82.1586 52.8958C82.0908 52.8568 82.0177 52.8282 81.9415 52.8109C81.7829 52.7782 81.6194 52.7782 81.4608 52.8109C81.3846 52.8282 81.3114 52.8568 81.2436 52.8958C81.1748 52.9342 81.1137 52.9851 81.0634 53.0459C81.0091 53.1159 80.9686 53.1957 80.944 53.2809C80.9124 53.3872 80.8973 53.4977 80.8991 53.6086V53.6333C80.8975 53.7753 80.9126 53.9169 80.944 54.0554C80.9592 54.0929 80.9776 54.1291 80.999 54.1634H79.8307V52.1829H79.4434V54.1634H78.0282V52.1829H77.6417V54.1634H76.3177V53.0031C76.3194 52.8924 76.3043 52.7821 76.2728 52.676C76.2482 52.5905 76.2071 52.5107 76.1519 52.4411C76.101 52.3799 76.0391 52.3287 75.9695 52.2902C75.9018 52.2513 75.8286 52.2229 75.7523 52.2061C75.6734 52.189 75.5928 52.1805 75.512 52.1807H75.1747C75.1 52.1814 75.0255 52.1899 74.9525 52.2061C74.8762 52.2229 74.803 52.2512 74.7353 52.2902C74.6662 52.3286 74.6051 52.3798 74.5551 52.4411C74.5003 52.5109 74.4595 52.5907 74.4349 52.676C74.4034 52.7821 74.3883 52.8924 74.39 53.0031V53.7283C74.3883 53.839 74.4034 53.9493 74.4349 54.0554C74.46 54.141 74.5007 54.2211 74.5551 54.2918C74.6052 54.3532 74.6663 54.4046 74.7353 54.4434C74.803 54.4826 74.8762 54.5114 74.9525 54.529C75.0316 54.5448 75.1121 54.5521 75.1928 54.5507H84.572V50.7716H84.1847L84.1804 50.7738ZM75.9283 54.1656H75.1885C75.1306 54.1706 75.0723 54.1627 75.0178 54.1424C74.9634 54.122 74.9141 54.0899 74.8736 54.0481C74.797 53.9338 74.7619 53.7965 74.7744 53.6594V53.0792C74.7617 52.9425 74.7968 52.8057 74.8736 52.692C74.9113 52.6517 74.9575 52.6203 75.0088 52.6001C75.0602 52.5799 75.1153 52.5714 75.1704 52.5752H75.5084C75.5667 52.5701 75.6254 52.578 75.6803 52.5982C75.7352 52.6183 75.785 52.6504 75.8262 52.692C75.9041 52.8052 75.94 52.9423 75.9275 53.0792V54.1671L75.9283 54.1656ZM82.1203 54.1656H81.7004C81.6426 54.1696 81.5846 54.1612 81.5303 54.1409C81.476 54.1206 81.4267 54.089 81.3855 54.0481C81.3255 53.9714 81.2906 53.8779 81.2856 53.7805C81.2856 53.7602 81.2856 53.6442 81.2856 53.6253C81.2819 53.508 81.3165 53.3927 81.3841 53.2968C81.4247 53.2553 81.474 53.2232 81.5285 53.203C81.5829 53.1829 81.6411 53.175 81.699 53.18C81.7574 53.175 81.8161 53.1828 81.8712 53.203C81.9262 53.2231 81.9761 53.2552 82.0175 53.2968C82.0954 53.4103 82.1313 53.5476 82.1188 53.6848V54.1663L82.1203 54.1656Z" fill="#77777A"/>
<path id="svg_167" d="M78.2106 51.8052H78.254V51.5354H77.9377C77.9082 51.5208 77.8843 51.497 77.8694 51.4676C77.8546 51.4382 77.8496 51.4047 77.8552 51.3723C77.874 51.2823 77.9782 51.2272 78.1353 51.2272H78.291V50.9618H78.0977C77.7589 50.9618 77.5837 51.0938 77.5772 51.3578C77.5781 51.4194 77.5894 51.4804 77.6105 51.5383H77.376V51.8081H78.2099L78.2106 51.8052Z" fill="#77777A"/>
<path id="svg_168" d="M79.8806 55.4065C79.9226 55.4247 79.9681 55.4336 80.0138 55.4326C80.0596 55.4339 80.1051 55.425 80.147 55.4065C80.1776 55.3924 80.2029 55.3691 80.2194 55.3397C80.2436 55.2968 80.2563 55.2483 80.2563 55.199C80.2561 55.1768 80.2535 55.1547 80.2484 55.133C80.2415 55.1079 80.2317 55.0835 80.2194 55.0605C80.2032 55.0308 80.1778 55.0071 80.147 54.9931C80.0613 54.9585 79.9656 54.9585 79.8799 54.9931C79.8492 55.0072 79.8238 55.0308 79.8075 55.0605C79.7957 55.0838 79.786 55.1081 79.7786 55.133C79.7688 55.1765 79.7688 55.2216 79.7786 55.265C79.7861 55.29 79.7958 55.3143 79.8075 55.3376C79.8241 55.3668 79.8494 55.3902 79.8799 55.4043" fill="#77777A"/>
<path id="svg_169" d="M79.3892 55.4065C79.4198 55.3926 79.4452 55.3692 79.4616 55.3398C79.4739 55.3168 79.4836 55.2924 79.4906 55.2673C79.4953 55.2456 79.4978 55.2235 79.4978 55.2013C79.4979 55.1791 79.4954 55.1569 79.4906 55.1353C79.4833 55.1102 79.4736 55.0859 79.4616 55.0628C79.4454 55.0331 79.42 55.0094 79.3892 54.9953C79.3038 54.9609 79.2083 54.9609 79.1229 54.9953C79.0921 55.0093 79.0666 55.033 79.0505 55.0628C79.0381 55.0858 79.0284 55.1101 79.0215 55.1353C79.0164 55.1569 79.0138 55.1791 79.0135 55.2013C79.0138 55.2235 79.0165 55.2456 79.0215 55.2673C79.0285 55.2924 79.0382 55.3167 79.0505 55.3398C79.0669 55.3692 79.0922 55.3926 79.1229 55.4065C79.2082 55.4416 79.3039 55.4416 79.3892 55.4065Z" fill="#77777A"/>
<path id="svg_170" d="M75.5208 51.676C75.5372 51.7056 75.5625 51.7292 75.5932 51.7434C75.6789 51.778 75.7746 51.778 75.8603 51.7434C75.891 51.7292 75.9164 51.7056 75.9327 51.676C75.9454 51.6531 75.9551 51.6288 75.9617 51.6035C75.9665 51.5816 75.969 51.5592 75.9689 51.5367C75.9689 51.5148 75.9665 51.4929 75.9617 51.4715C75.9547 51.4463 75.945 51.422 75.9327 51.3989C75.9166 51.3691 75.8912 51.3454 75.8603 51.3315C75.7745 51.2974 75.679 51.2974 75.5932 51.3315C75.5623 51.3454 75.5369 51.3691 75.5208 51.3989C75.5082 51.4218 75.4985 51.4462 75.4919 51.4715C75.487 51.4929 75.4846 51.5148 75.4846 51.5367C75.4845 51.5592 75.487 51.5816 75.4919 51.6035C75.4986 51.6287 75.5084 51.653 75.5208 51.676Z" fill="#77777A"/>
<path id="svg_171" d="M74.7629 51.676C74.7793 51.7055 74.8046 51.7292 74.8353 51.7434C74.921 51.778 75.0167 51.778 75.1024 51.7434C75.1331 51.7294 75.1586 51.7057 75.1748 51.676C75.1876 51.6532 75.1974 51.6288 75.2037 51.6035C75.2088 51.5816 75.2115 51.5592 75.2117 51.5367C75.2115 51.5147 75.2088 51.4928 75.2037 51.4715C75.197 51.4462 75.1873 51.4219 75.1748 51.3989C75.1588 51.369 75.1333 51.3453 75.1024 51.3315C75.0166 51.2974 74.921 51.2974 74.8353 51.3315C74.8045 51.3455 74.7791 51.3692 74.7629 51.3989C74.7505 51.4219 74.7408 51.4463 74.7339 51.4715C74.7291 51.4929 74.7267 51.5148 74.7267 51.5367C74.7266 51.5592 74.729 51.5816 74.7339 51.6035C74.7407 51.6287 74.7504 51.653 74.7629 51.676Z" fill="#77777A"/>
<path id="svg_172" d="M58.2674 50.7737V54.1626H57.254V50.7737H56.8667V54.1626H56.0704V53.0059C56.0722 52.8952 56.057 52.7849 56.0256 52.6788C56.0008 52.5934 55.9597 52.5136 55.9047 52.4439C55.854 52.3829 55.7924 52.332 55.723 52.2937C55.6553 52.2547 55.5821 52.226 55.5058 52.2089C55.4268 52.192 55.3463 52.1838 55.2655 52.1842H54.9274C54.8525 52.1849 54.7778 52.1931 54.7045 52.2089C54.6282 52.2259 54.555 52.2545 54.4873 52.2937C54.4183 52.3319 54.3571 52.3828 54.3071 52.4439C54.2528 52.5139 54.2123 52.5937 54.1876 52.6788C54.1593 52.7776 54.1451 52.8799 54.1457 52.9827V52.9892C54.1457 52.995 54.1457 52.9994 54.1457 53.0059V53.2481C54.1617 53.4919 54.1018 53.7347 53.9741 53.9429C53.898 54.0224 53.8047 54.0833 53.7015 54.121C53.5982 54.1587 53.4876 54.1722 53.3784 54.1604H52.9238V52.1799H52.5372V54.1604H50.8955V52.1799H50.5082V54.1604H50.1463C50.0371 54.1721 49.9267 54.1585 49.8236 54.1208C49.7204 54.0831 49.6273 54.0222 49.5512 53.9429C49.415 53.719 49.3541 53.4571 49.3775 53.1959V52.3931H48.9953V53.1959C49.0188 53.4571 48.9579 53.719 48.8216 53.9429C48.7456 54.0223 48.6525 54.0832 48.5493 54.1209C48.4461 54.1587 48.3357 54.1722 48.2266 54.1604H47.8646V52.3931H47.4781V54.1655H45.7075V50.7766H45.3209V54.5557H48.2273C48.3477 54.5566 48.4678 54.5444 48.5856 54.5194C48.6962 54.4951 48.8023 54.4532 48.8998 54.3954C48.9976 54.3377 49.0834 54.2617 49.1524 54.1713C49.1654 54.1546 49.1755 54.1322 49.1871 54.1133C49.1994 54.1322 49.2088 54.1546 49.2219 54.1713C49.2908 54.2618 49.3766 54.3379 49.4745 54.3954C49.572 54.4532 49.678 54.495 49.7887 54.5194C49.8933 54.5402 49.9997 54.5512 50.1064 54.5521V54.5557H53.3784C53.5 54.5568 53.6213 54.5447 53.7403 54.5194C53.851 54.4952 53.957 54.4533 54.0545 54.3954C54.1369 54.345 54.2103 54.281 54.2716 54.2061C54.2847 54.2371 54.3 54.2672 54.3172 54.2961C54.3671 54.3576 54.4283 54.4091 54.4975 54.4476C54.5651 54.487 54.6383 54.5159 54.7146 54.5332C54.7938 54.5488 54.8743 54.5561 54.955 54.555H58.6684V50.7759H58.2811L58.2674 50.7737ZM55.681 54.1655H54.9412C54.8833 54.1704 54.8251 54.1624 54.7706 54.1421C54.7162 54.1218 54.6669 54.0897 54.6263 54.048C54.5498 53.9337 54.5145 53.7965 54.5264 53.6593V53.0791C54.5142 52.9424 54.5495 52.8056 54.6263 52.6919C54.6641 52.6516 54.7103 52.6202 54.7616 52.6C54.8129 52.5798 54.8681 52.5713 54.9231 52.5751H55.2611C55.3194 52.5699 55.3781 52.5777 55.4331 52.5979C55.488 52.6181 55.5378 52.6502 55.5789 52.6919C55.6568 52.8051 55.6927 52.9422 55.6803 53.0791V54.167L55.681 54.1655Z" fill="#77777A"/>
<path id="svg_173" d="M44.8126 50.2219L45.189 49.9362C45.2403 49.9912 45.3022 50.0351 45.3711 50.0652C45.4399 50.0953 45.5142 50.1108 45.5893 50.111C45.7552 50.1076 45.9137 50.0421 46.0338 49.9275V50.2379C45.9058 50.3486 45.7409 50.4068 45.572 50.4011C45.5022 50.4054 45.4323 50.3955 45.3665 50.3719C45.3006 50.3483 45.2403 50.3116 45.189 50.264L44.9719 50.4264L44.8148 50.2212L44.8126 50.2219Z" fill="#77777A"/>
<path id="svg_174" d="M44.1822 54.1629H41.5762C41.467 54.1746 41.3566 54.1611 41.2535 54.1234C41.1503 54.0856 41.0572 54.0247 40.9812 53.9453C40.845 53.7213 40.7841 53.4595 40.8075 53.1983V52.753H40.426V53.3434C40.4235 53.5057 40.444 53.6676 40.4868 53.8242C40.5195 53.9498 40.5755 54.0681 40.6518 54.173C40.7208 54.2632 40.8066 54.3391 40.9045 54.3964C41.0018 54.4544 41.1079 54.4962 41.2186 54.5204C41.3233 54.5414 41.4297 54.5523 41.5364 54.553V54.5566H44.568V52.1859H44.1807L44.1822 54.1629Z" fill="#77777A"/>
<path id="svg_175" d="M49.3853 51.3961C49.3728 51.419 49.363 51.4434 49.3564 51.4686C49.3516 51.49 49.3491 51.5119 49.3491 51.5339C49.3491 51.5563 49.3515 51.5787 49.3564 51.6006C49.3632 51.6258 49.373 51.6501 49.3853 51.6731C49.4015 51.703 49.4269 51.7269 49.4577 51.7413C49.5435 51.7754 49.639 51.7754 49.7248 51.7413C49.7556 51.7269 49.7809 51.703 49.7972 51.6731C49.81 51.6503 49.8197 51.626 49.8262 51.6006C49.8312 51.5787 49.8339 51.5564 49.8341 51.5339C49.8339 51.5119 49.8313 51.49 49.8262 51.4686C49.8194 51.4434 49.8097 51.419 49.7972 51.3961C49.7809 51.3664 49.7555 51.3428 49.7248 51.3287C49.6391 51.2941 49.5434 51.2941 49.4577 51.3287C49.4271 51.343 49.4018 51.3666 49.3853 51.3961Z" fill="#77777A"/>
<path id="svg_176" d="M52.5153 51.676C52.5317 51.7055 52.5571 51.7292 52.5877 51.7434C52.6734 51.778 52.7691 51.778 52.8548 51.7434C52.8856 51.7294 52.911 51.7057 52.9272 51.676C52.9399 51.6531 52.9496 51.6288 52.9562 51.6035C52.961 51.5816 52.9635 51.5592 52.9634 51.5367C52.9635 51.5148 52.961 51.4929 52.9562 51.4715C52.9492 51.4463 52.9395 51.422 52.9272 51.3989C52.9113 51.369 52.8858 51.3453 52.8548 51.3315C52.769 51.2974 52.6735 51.2974 52.5877 51.3315C52.5569 51.3455 52.5315 51.3692 52.5153 51.3989C52.5029 51.4219 52.4932 51.4463 52.4864 51.4715C52.4815 51.4929 52.4791 51.5148 52.4791 51.5367C52.479 51.5592 52.4815 51.5816 52.4864 51.6035C52.4931 51.6287 52.5029 51.653 52.5153 51.676Z" fill="#77777A"/>
<path id="svg_177" d="M49.0648 51.0776C49.081 51.1073 49.1064 51.131 49.1371 51.145C49.2228 51.1796 49.3186 51.1796 49.4043 51.145C49.435 51.131 49.4604 51.1073 49.4766 51.0776C49.4895 51.0548 49.4993 51.0304 49.5056 51.0051C49.5107 50.9832 49.5133 50.9608 49.5136 50.9383C49.5136 50.9163 49.5109 50.8944 49.5056 50.8731C49.4988 50.8478 49.4891 50.8235 49.4766 50.8006C49.4606 50.7707 49.4351 50.747 49.4043 50.7331C49.3185 50.699 49.2229 50.699 49.1371 50.7331C49.1063 50.747 49.0808 50.7707 49.0648 50.8006C49.0523 50.8235 49.0425 50.8478 49.0358 50.8731C49.031 50.8945 49.0286 50.9164 49.0286 50.9383C49.0285 50.9608 49.031 50.9832 49.0358 51.0051C49.0426 51.0303 49.0523 51.0546 49.0648 51.0776Z" fill="#77777A"/>
<path id="svg_178" d="M48.6281 51.6758C48.6443 51.7056 48.6697 51.7292 48.7005 51.7433C48.786 51.7777 48.8814 51.7777 48.9669 51.7433C48.9977 51.7292 49.0231 51.7056 49.0393 51.6758C49.0521 51.6531 49.0619 51.6287 49.0682 51.6033C49.0736 51.5815 49.0762 51.5591 49.0762 51.5366C49.0762 51.5146 49.0735 51.4927 49.0682 51.4713C49.0615 51.4461 49.0518 51.4217 49.0393 51.3988C49.0233 51.3689 48.9978 51.3451 48.9669 51.3314C48.8813 51.2974 48.7861 51.2974 48.7005 51.3314C48.6695 51.3451 48.6441 51.3689 48.6281 51.3988C48.6155 51.4217 48.6058 51.4461 48.5992 51.4713C48.5939 51.4927 48.5912 51.5146 48.5912 51.5366C48.5911 51.5591 48.5938 51.5815 48.5992 51.6033C48.6056 51.6287 48.6153 51.653 48.6281 51.6758Z" fill="#77777A"/>
<path id="svg_179" d="M42.6692 51.676C42.6856 51.7056 42.7109 51.7292 42.7416 51.7434C42.8273 51.778 42.923 51.778 43.0087 51.7434C43.0394 51.7292 43.0648 51.7056 43.0811 51.676C43.094 51.6532 43.1037 51.6288 43.1101 51.6035C43.1154 51.5816 43.1181 51.5592 43.118 51.5367C43.1181 51.5147 43.1154 51.4928 43.1101 51.4715C43.1034 51.4462 43.0937 51.4219 43.0811 51.3989C43.065 51.3691 43.0396 51.3454 43.0087 51.3315C42.923 51.2974 42.8274 51.2974 42.7416 51.3315C42.7108 51.3454 42.6853 51.3691 42.6692 51.3989C42.6567 51.4218 42.647 51.4462 42.6403 51.4715C42.6352 51.4929 42.6325 51.5147 42.6323 51.5367C42.6325 51.5592 42.6351 51.5816 42.6403 51.6035C42.6469 51.6287 42.6566 51.6531 42.6692 51.676Z" fill="#77777A"/>
<path id="svg_180" d="M41.9122 51.676C41.9286 51.7055 41.9539 51.7292 41.9846 51.7434C42.0703 51.778 42.166 51.778 42.2517 51.7434C42.2824 51.7294 42.3078 51.7057 42.3241 51.676C42.3369 51.6532 42.3467 51.6288 42.353 51.6035C42.3579 51.5816 42.3603 51.5592 42.3602 51.5367C42.3603 51.5148 42.3579 51.4929 42.353 51.4715C42.3463 51.4462 42.3365 51.4219 42.3241 51.3989C42.3081 51.369 42.2826 51.3453 42.2517 51.3315C42.1659 51.2974 42.0703 51.2974 41.9846 51.3315C41.9538 51.3455 41.9284 51.3692 41.9122 51.3989C41.8998 51.4219 41.8901 51.4463 41.8832 51.4715C41.8784 51.4929 41.876 51.5148 41.876 51.5367C41.8759 51.5592 41.8783 51.5816 41.8832 51.6035C41.89 51.6287 41.8997 51.653 41.9122 51.676Z" fill="#77777A"/>
<path id="svg_181" d="M38.6539 50.7737H38.2666V54.5535H38.6539V50.7737Z" fill="#77777A"/>
<path id="svg_182" d="M37.0572 50.7745V54.1635H36.1567V53.1598C36.1469 52.9769 36.0868 52.8003 35.983 52.6496C35.8793 52.4988 35.736 52.3797 35.5689 52.3055C35.3007 52.1984 35.009 52.1646 34.7236 52.2077C34.4381 52.2508 34.1693 52.3691 33.9445 52.5506V52.188H33.5565V54.1664H32.6705C32.4511 54.1697 32.2323 54.1453 32.019 54.0938C32.3685 53.8314 32.6114 53.4512 32.7031 53.0234C32.7142 52.9225 32.7043 52.8203 32.674 52.7234C32.6437 52.6264 32.5936 52.5369 32.5269 52.4604C32.4602 52.3839 32.3783 52.3221 32.2865 52.279C32.1948 52.2358 32.095 52.2122 31.9937 52.2097C31.599 52.1742 31.2012 52.2133 30.821 52.325L30.724 52.3533L30.6914 52.4505C30.6193 52.6831 30.6038 52.9295 30.6464 53.1693C30.689 53.409 30.7883 53.6351 30.9361 53.8284C31.0215 53.9481 31.1233 54.055 31.2387 54.1461C31.1899 54.1612 31.1392 54.1693 31.0881 54.17H29.5354V52.1894H29.1481V54.17H27.6917V52.2039H27.3044V54.1482C27.3068 54.2855 27.2945 54.4226 27.2675 54.5573C27.2495 54.6521 27.2093 54.7413 27.1502 54.8176C27.1004 54.8788 27.0365 54.927 26.9642 54.9583C26.8802 54.9905 26.7919 55.01 26.7021 55.0163V55.4449C26.8052 55.4388 26.9075 55.423 27.0076 55.3978C27.1023 55.3715 27.1926 55.3311 27.2755 55.2781C27.3624 55.2218 27.4364 55.1477 27.4926 55.0606C27.56 54.9559 27.609 54.8403 27.6374 54.719C27.6504 54.6697 27.6577 54.6131 27.6663 54.5573H31.0881C31.2865 54.5491 31.4792 54.488 31.6462 54.3803C31.9727 54.5054 32.3203 54.5655 32.6698 54.5573H37.4437V50.7782H37.0564L37.0572 50.7745ZM31.6194 53.9285C31.4742 53.8451 31.3483 53.7316 31.2502 53.5956C31.1477 53.4667 31.075 53.3165 31.0374 53.156C30.9999 52.9954 30.9984 52.8285 31.0331 52.6674C31.3269 52.5901 31.6318 52.5644 31.9343 52.5912C32.2962 52.647 32.3288 52.8334 32.3172 52.9886C32.269 53.1841 32.1826 53.3681 32.0629 53.53C31.9433 53.6918 31.7928 53.8282 31.6201 53.9314M35.7716 54.1664H33.9445V53.0292C34.1323 52.8424 34.3668 52.7096 34.6234 52.6446C34.88 52.5797 35.1493 52.585 35.4031 52.6601C35.5041 52.7027 35.5916 52.7719 35.6563 52.8604C35.7211 52.9489 35.7607 53.0534 35.7708 53.1627L35.7716 54.1664Z" fill="#77777A"/>
<path id="svg_183" d="M31.3624 51.6758C31.3787 51.7055 31.4041 51.7291 31.4347 51.7433C31.5202 51.7779 31.6157 51.7779 31.7011 51.7433C31.7319 51.7292 31.7573 51.7056 31.7735 51.6758C31.7862 51.653 31.796 51.6286 31.8025 51.6033C31.8078 51.5815 31.8105 51.5591 31.8104 51.5366C31.8105 51.5146 31.8078 51.4927 31.8025 51.4713C31.7957 51.4461 31.786 51.4217 31.7735 51.3988C31.7576 51.3689 31.7321 51.3451 31.7011 51.3314C31.6156 51.2974 31.5203 51.2974 31.4347 51.3314C31.4039 51.3453 31.3784 51.369 31.3624 51.3988C31.3498 51.4217 31.3401 51.4461 31.3334 51.4713C31.3281 51.4927 31.3255 51.5146 31.3254 51.5366C31.3254 51.5591 31.328 51.5815 31.3334 51.6033C31.34 51.6286 31.3497 51.653 31.3624 51.6758Z" fill="#77777A"/>
<path id="svg_184" d="M25.6581 51.676C25.6746 51.7055 25.6999 51.7291 25.7305 51.7434C25.7725 51.7618 25.8179 51.7707 25.8637 51.7695C25.9095 51.7706 25.9549 51.7617 25.9969 51.7434C26.0276 51.7292 26.053 51.7056 26.0693 51.676C26.0818 51.653 26.0915 51.6287 26.0983 51.6034C26.1031 51.5815 26.1056 51.5592 26.1055 51.5367C26.1056 51.5148 26.1031 51.4929 26.0983 51.4715C26.0913 51.4463 26.0816 51.422 26.0693 51.3989C26.0532 51.3691 26.0278 51.3454 25.9969 51.3315C25.9549 51.3133 25.9094 51.3046 25.8637 51.3061C25.818 51.3045 25.7725 51.3131 25.7305 51.3315C25.6997 51.3455 25.6743 51.3692 25.6581 51.3989C25.6456 51.4218 25.6359 51.4462 25.6292 51.4715C25.6189 51.5146 25.6189 51.5596 25.6292 51.6027C25.6358 51.628 25.6455 51.6531 25.6581 51.676Z" fill="#77777A"/>
<path id="svg_185" d="M24.8996 51.6758C24.916 51.7054 24.9414 51.729 24.972 51.7433C25.0575 51.7777 25.1529 51.7777 25.2384 51.7433C25.2691 51.7292 25.2945 51.7056 25.3108 51.6758C25.3235 51.653 25.3332 51.6286 25.3397 51.6033C25.3446 51.5814 25.347 51.559 25.347 51.5366C25.347 51.5146 25.3446 51.4927 25.3397 51.4713C25.333 51.4461 25.3233 51.4217 25.3108 51.3988C25.2948 51.3689 25.2693 51.3451 25.2384 51.3314C25.1528 51.2974 25.0576 51.2974 24.972 51.3314C24.9412 51.3454 24.9158 51.369 24.8996 51.3988C24.8872 51.4218 24.8775 51.4461 24.8706 51.4713C24.8658 51.4927 24.8634 51.5146 24.8634 51.5366C24.8633 51.559 24.8657 51.5814 24.8706 51.6033C24.8774 51.6285 24.8871 51.6529 24.8996 51.6758Z" fill="#77777A"/>
<path id="svg_186" d="M29.5874 55.4066C29.6293 55.425 29.6748 55.4339 29.7205 55.4327C29.7661 55.4341 29.8114 55.4252 29.853 55.4066C29.8838 55.393 29.9093 55.3695 29.9254 55.3399C29.9383 55.3172 29.948 55.2928 29.9544 55.2674C29.9596 55.2458 29.9623 55.2236 29.9623 55.2014C29.9624 55.1791 29.9597 55.157 29.9544 55.1354C29.9478 55.1101 29.9381 55.0857 29.9254 55.0629C29.9095 55.0329 29.884 55.0092 29.853 54.9954C29.7676 54.9608 29.6721 54.9608 29.5866 54.9954C29.5558 55.0094 29.5304 55.0331 29.5142 55.0629C29.5021 55.086 29.4924 55.1103 29.4853 55.1354C29.475 55.1788 29.475 55.224 29.4853 55.2674C29.4923 55.2925 29.502 55.3169 29.5142 55.3399C29.5306 55.3693 29.5567 55.3927 29.5874 55.4066Z" fill="#77777A"/>
<path id="svg_187" d="M29.1718 55.059C29.1556 55.0295 29.1302 55.0061 29.0995 54.9923C29.0575 54.9739 29.012 54.965 28.9663 54.9662C28.9205 54.9649 28.875 54.9738 28.8331 54.9923C28.8024 55.0062 28.7771 55.0296 28.7607 55.059C28.7485 55.0821 28.7387 55.1064 28.7317 55.1315C28.727 55.153 28.7246 55.1749 28.7245 55.1968C28.7245 55.2193 28.7269 55.2416 28.7317 55.2635C28.7388 55.2887 28.7485 55.313 28.7607 55.3361C28.777 55.3657 28.8024 55.3894 28.8331 55.4035C28.9186 55.4374 29.0139 55.4374 29.0995 55.4035C29.1302 55.3895 29.1556 55.3658 29.1718 55.3361C29.1966 55.2934 29.2094 55.2447 29.2088 55.1954C29.2087 55.1734 29.2063 55.1515 29.2015 55.1301C29.1947 55.1049 29.185 55.0805 29.1726 55.0576" fill="#77777A"/>
<path id="svg_188" d="M24.8685 54.4456C24.9361 54.4852 25.0093 54.5141 25.0857 54.5312C25.1648 54.547 25.2454 54.5543 25.326 54.5529H26.4524V53.006C26.454 52.8954 26.4389 52.7851 26.4075 52.6789C26.3826 52.5936 26.3415 52.5138 26.2866 52.444C26.2357 52.3832 26.1738 52.3325 26.1042 52.2946C26.0366 52.2553 25.9633 52.2267 25.887 52.2097C25.808 52.1929 25.7275 52.1846 25.6467 52.1851H25.3087C25.2339 52.1857 25.1595 52.194 25.0864 52.2097C25.0101 52.2266 24.9368 52.2552 24.8693 52.2946C24.8004 52.3326 24.7392 52.3833 24.689 52.444C24.6346 52.5139 24.594 52.5937 24.5696 52.6789C24.538 52.785 24.5228 52.8953 24.5247 53.006V53.7312C24.5228 53.8419 24.5379 53.9522 24.5696 54.0583C24.5942 54.1437 24.6348 54.2237 24.689 54.294C24.7392 54.3553 24.7996 54.4067 24.8685 54.4456ZM24.912 53.0793C24.8994 52.9427 24.9347 52.806 25.0119 52.6927C25.0496 52.6525 25.0959 52.6211 25.1472 52.601C25.1985 52.5808 25.2536 52.5722 25.3087 52.576H25.6467C25.705 52.5708 25.7637 52.5787 25.8186 52.5988C25.8735 52.619 25.9233 52.6511 25.9645 52.6927C26.0429 52.8055 26.0788 52.9425 26.0658 53.0793V54.1671H25.3268C25.2688 54.172 25.2105 54.1639 25.156 54.1435C25.1016 54.1231 25.0523 54.0907 25.0119 54.0489C24.935 53.9349 24.8998 53.7979 24.912 53.6609V53.0807V53.0793Z" fill="#77777A"/>
<path id="svg_189" d="M72.6788 50.7737H72.2922V54.5535H72.6788V50.7737Z" fill="#77777A"/>
<path id="svg_190" d="M61.9938 51.676C62.0103 51.7055 62.0356 51.7292 62.0662 51.7434C62.1519 51.778 62.2476 51.778 62.3333 51.7434C62.364 51.7293 62.3894 51.7056 62.4057 51.676C62.4184 51.6531 62.4282 51.6288 62.4347 51.6035C62.4396 51.5816 62.442 51.5592 62.4419 51.5367C62.442 51.5148 62.4395 51.4929 62.4347 51.4715C62.4277 51.4463 62.418 51.422 62.4057 51.3989C62.3896 51.3691 62.3642 51.3454 62.3333 51.3315C62.2476 51.2974 62.152 51.2974 62.0662 51.3315C62.0355 51.3455 62.0101 51.3692 61.9938 51.3989C61.9815 51.4219 61.9717 51.4463 61.9649 51.4715C61.9601 51.4929 61.9576 51.5148 61.9576 51.5367C61.9575 51.5592 61.96 51.5816 61.9649 51.6035C61.9715 51.6287 61.9812 51.6531 61.9938 51.676Z" fill="#77777A"/>
<path id="svg_191" d="M61.2359 51.6758C61.2522 51.7055 61.2776 51.7291 61.3083 51.7433C61.3937 51.7778 61.4892 51.7778 61.5747 51.7433C61.6054 51.7292 61.6308 51.7056 61.6471 51.6758C61.6599 51.6531 61.6697 51.6287 61.676 51.6033C61.6811 51.5814 61.6838 51.5591 61.684 51.5366C61.6838 51.5146 61.6811 51.4927 61.676 51.4713C61.6693 51.4461 61.6596 51.4217 61.6471 51.3988C61.6311 51.3689 61.6056 51.3451 61.5747 51.3314C61.4891 51.2974 61.3938 51.2974 61.3083 51.3314C61.2774 51.3453 61.252 51.369 61.2359 51.3988C61.2233 51.4218 61.2133 51.4461 61.2062 51.4713C61.2014 51.4927 61.199 51.5146 61.199 51.5366C61.1989 51.559 61.2013 51.5814 61.2062 51.6033C61.2133 51.6286 61.2232 51.6529 61.2359 51.6758Z" fill="#77777A"/>
<path id="svg_192" d="M71.0826 50.7737V54.1626H70.219C70.0073 54.1646 69.796 54.1442 69.5886 54.1017C69.9363 53.8186 70.1713 53.4201 70.2509 52.9783C70.2654 52.7818 70.227 52.3133 69.5415 52.2074C69.1467 52.1729 68.7489 52.2118 68.3681 52.322L68.2711 52.3503L68.2385 52.4475C68.1674 52.6805 68.1495 52.9266 68.1862 53.1676C68.2229 53.4085 68.3133 53.638 68.4506 53.8392C68.5344 53.9573 68.6357 54.062 68.751 54.1496C68.7133 54.1584 68.6747 54.163 68.6359 54.1633H67.22V50.7744H66.8328V54.5535H68.6359C68.8299 54.5449 69.0188 54.4889 69.1861 54.3903C69.5008 54.5006 69.8321 54.5558 70.1655 54.5535H71.4685V50.7744L71.0826 50.7737ZM69.16 53.9501C69.0034 53.8701 68.868 53.754 68.7648 53.6115C68.581 53.3341 68.5146 52.995 68.5802 52.6687C68.8743 52.592 69.1796 52.5674 69.4821 52.5962C69.8875 52.6585 69.8716 52.8645 69.8658 52.9522C69.7651 53.3632 69.513 53.7207 69.16 53.953" fill="#77777A"/>
<path id="svg_193" d="M66.0894 54.5507V53.0038C66.0912 52.8931 66.0761 52.7828 66.0445 52.6767C66.0196 52.5913 65.9786 52.5116 65.9236 52.4417C65.8725 52.3812 65.8106 52.3305 65.7412 52.2923C65.6736 52.2531 65.6003 52.2244 65.524 52.2075C65.445 52.1906 65.3645 52.1824 65.2837 52.1828H64.9435C64.8688 52.1835 64.7943 52.1918 64.7213 52.2075C64.6449 52.2244 64.5717 52.253 64.5041 52.2923C64.4352 52.3303 64.374 52.381 64.3239 52.4417C64.2692 52.5116 64.2284 52.5914 64.2037 52.6767C64.1755 52.7757 64.1614 52.8783 64.1617 52.9813H64.1559V53.1938C64.1794 53.455 64.1185 53.7168 63.9822 53.9407C63.9063 54.0203 63.8132 54.0813 63.71 54.119C63.6068 54.1568 63.4964 54.1702 63.3872 54.1583H62.7871V52.998C62.7887 52.8873 62.7735 52.777 62.7422 52.6709C62.7175 52.5855 62.6764 52.5057 62.6213 52.4359C62.5705 52.3753 62.5089 52.3246 62.4396 52.2865C62.372 52.2472 62.2988 52.2186 62.2225 52.2017C62.1435 52.1848 62.0629 52.1765 61.9821 52.177H61.6448C61.5698 52.1777 61.4951 52.1859 61.4218 52.2017C61.3455 52.2186 61.2723 52.2472 61.2047 52.2865C61.1357 52.3244 61.0745 52.3751 61.0244 52.4359C60.9696 52.5057 60.9288 52.5855 60.9043 52.6709C60.8729 52.777 60.8578 52.8873 60.8594 52.998V53.7232C60.8576 53.8336 60.8728 53.9437 60.9043 54.0495C60.9288 54.1351 60.9696 54.2151 61.0244 54.2852C61.0744 54.3467 61.1356 54.3981 61.2047 54.4368C61.2722 54.4763 61.3455 54.5052 61.4218 54.5224C61.5009 54.5382 61.5815 54.5455 61.6622 54.5441H63.3893C63.5109 54.5455 63.6323 54.5333 63.7513 54.5079C63.862 54.4837 63.968 54.4419 64.0654 54.3839C64.1479 54.3325 64.2213 54.2678 64.2826 54.1924C64.2957 54.2246 64.3115 54.2556 64.3296 54.2852C64.3797 54.3466 64.4409 54.398 64.5099 54.4368C64.5774 54.4764 64.6507 54.5052 64.727 54.5224C64.8059 54.5382 64.8862 54.5455 64.9667 54.5441H66.0944L66.0894 54.5507ZM61.3466 54.043C61.2697 53.929 61.2345 53.792 61.2467 53.655V53.0748C61.2341 52.938 61.2694 52.8011 61.3466 52.6876C61.3844 52.6474 61.4306 52.6161 61.4819 52.5959C61.5332 52.5758 61.5884 52.5672 61.6434 52.5708H61.9814C62.0398 52.5656 62.0986 52.5734 62.1536 52.5936C62.2087 52.6138 62.2586 52.6459 62.2999 52.6876C62.3774 52.801 62.413 52.938 62.4005 53.0748V54.1627H61.6614C61.6035 54.1676 61.5452 54.1595 61.4907 54.1391C61.4363 54.1186 61.387 54.0863 61.3466 54.0445M64.6481 54.0445C64.571 53.9306 64.5355 53.7935 64.5475 53.6565V53.0763C64.5352 52.9394 64.5707 52.8025 64.6481 52.689C64.6859 52.6488 64.7321 52.6174 64.7835 52.5973C64.8348 52.5771 64.8899 52.5685 64.9449 52.5723H65.283C65.3414 52.5671 65.4002 52.5749 65.4552 52.595C65.5103 52.6152 65.5602 52.6473 65.6015 52.689C65.6795 52.8022 65.7154 52.9393 65.7028 53.0763V54.1641H64.963C64.9052 54.169 64.847 54.1609 64.7927 54.1404C64.7383 54.12 64.6892 54.0877 64.6489 54.0459" fill="#77777A"/>
<path id="svg_194" d="M20.0714 50.7737H19.6841V54.5535H20.0714V50.7737Z" fill="#77777A"/>
<path id="svg_195" d="M9.9842 54.1628H9.62227C9.51308 54.1745 9.40267 54.161 9.29952 54.1233C9.19636 54.0856 9.10322 54.0246 9.02724 53.9452C8.89082 53.7213 8.82991 53.4595 8.85351 53.1982V52.3932H8.46914V53.199C8.49259 53.4602 8.43169 53.722 8.29541 53.9459C8.2194 54.0253 8.12625 54.0862 8.0231 54.1239C7.91996 54.1616 7.80956 54.1752 7.70038 54.1635H7.33845V52.3932H6.95117V54.1657H5.89577V53.1569C5.88585 52.9741 5.82562 52.7975 5.72175 52.6469C5.61788 52.4962 5.47442 52.3773 5.30726 52.3033C5.0392 52.1961 4.74748 52.1622 4.46203 52.2051C4.17658 52.2481 3.90768 52.3663 3.68289 52.5477V50.7767H3.28837V54.1664H2.25034V53.006C2.25204 52.8953 2.23665 52.785 2.20474 52.679C2.18013 52.5935 2.13906 52.5137 2.08385 52.444C2.03288 52.3829 1.97103 52.3317 1.90143 52.2932C1.83374 52.2542 1.76051 52.2258 1.68427 52.209C1.60531 52.1919 1.52473 52.1834 1.44395 52.1837H1.1059C1.03114 52.1843 0.95666 52.1928 0.883668 52.209C0.807457 52.2259 0.734239 52.2543 0.666506 52.2932C0.597485 52.3316 0.536333 52.3828 0.486261 52.444C0.431462 52.5138 0.390659 52.5936 0.366099 52.679C0.334425 52.785 0.319287 52.8954 0.321218 53.006V53.7313C0.319229 53.842 0.334368 53.9523 0.366099 54.0583C0.391177 54.1439 0.431924 54.2241 0.486261 54.2948C0.536438 54.356 0.59756 54.4074 0.666506 54.4463C0.734273 54.4854 0.807456 54.5143 0.883668 54.5319C0.962526 54.5477 1.04286 54.555 1.12327 54.5537H7.70328C7.82488 54.5548 7.94624 54.5426 8.06521 54.5174C8.17591 54.4933 8.28199 54.4514 8.37938 54.3934C8.47727 54.3361 8.56307 54.2602 8.63201 54.17C8.64504 54.1533 8.65517 54.1301 8.66675 54.112C8.67906 54.1309 8.68847 54.1533 8.7015 54.17C8.77065 54.26 8.85641 54.3358 8.95413 54.3934C9.05177 54.4514 9.1581 54.4932 9.26902 54.5174C9.37366 54.5384 9.48007 54.5494 9.5868 54.55V54.5537H10.3744V52.1829H9.98782V54.1635L9.9842 54.1628ZM1.86379 54.1628H1.12399C1.0661 54.1678 1.00782 54.1598 0.953362 54.1395C0.898906 54.1192 0.849635 54.087 0.809109 54.0453C0.732181 53.9311 0.696901 53.7938 0.709214 53.6566V53.0764C0.696699 52.9396 0.73201 52.8027 0.809109 52.6891C0.846851 52.6488 0.893057 52.6175 0.944386 52.5973C0.995715 52.5771 1.05088 52.5686 1.1059 52.5724H1.44756C1.50584 52.5673 1.56451 52.5751 1.61943 52.5953C1.67435 52.6155 1.72416 52.6475 1.76535 52.6891C1.84329 52.8024 1.87915 52.9394 1.86669 53.0764V54.1642L1.86379 54.1628ZM5.50994 54.1628H3.68289V53.0213C3.87072 52.8343 4.10528 52.7013 4.36201 52.6362C4.61874 52.5711 4.88821 52.5764 5.14221 52.6514C5.24313 52.6941 5.33061 52.7633 5.39536 52.8518C5.46011 52.9403 5.49971 53.0447 5.50994 53.154V54.1628Z" fill="#77777A"/>
<path id="svg_196" d="M1.45624 51.676C1.47266 51.7055 1.498 51.7291 1.52863 51.7434C1.57057 51.7618 1.61605 51.7707 1.66182 51.7695C1.70758 51.7706 1.75302 51.7617 1.79501 51.7434C1.8257 51.7292 1.85106 51.7056 1.8674 51.676C1.87993 51.653 1.88965 51.6287 1.89636 51.6034C1.90124 51.5815 1.90367 51.5592 1.90359 51.5367C1.90365 51.5148 1.90123 51.4929 1.89636 51.4715C1.88943 51.4463 1.87972 51.422 1.8674 51.3989C1.85131 51.3691 1.82588 51.3454 1.79501 51.3315C1.75302 51.3133 1.70754 51.3046 1.66182 51.3061C1.61609 51.3045 1.57057 51.3131 1.52863 51.3315C1.49782 51.3455 1.47241 51.3692 1.45624 51.3989C1.44368 51.4218 1.43396 51.4462 1.42729 51.4715C1.42246 51.4929 1.42003 51.5148 1.42005 51.5367C1.41995 51.5592 1.42238 51.5815 1.42729 51.6034C1.43388 51.6287 1.44361 51.6531 1.45624 51.676Z" fill="#77777A"/>
<path id="svg_197" d="M0.699038 51.6758C0.715455 51.7054 0.740794 51.729 0.771425 51.7433C0.856892 51.7777 0.952344 51.7777 1.03781 51.7433C1.06859 51.7292 1.09398 51.7056 1.1102 51.6758C1.1229 51.653 1.13263 51.6286 1.13915 51.6033C1.14428 51.5814 1.14695 51.5591 1.14712 51.5366C1.14694 51.5146 1.14427 51.4927 1.13915 51.4713C1.13241 51.4461 1.12269 51.4217 1.1102 51.3988C1.09424 51.3689 1.06877 51.3451 1.03781 51.3314C0.952245 51.2974 0.856992 51.2974 0.771425 51.3314C0.740621 51.3454 0.71521 51.369 0.699038 51.3988C0.686656 51.4218 0.676941 51.4461 0.670083 51.4713C0.665254 51.4927 0.662827 51.5146 0.662845 51.5366C0.662749 51.559 0.665177 51.5814 0.670083 51.6033C0.676486 51.6287 0.686222 51.653 0.699038 51.6758Z" fill="#77777A"/>
<path id="svg_198" d="M14.3709 51.6758C14.3874 51.7053 14.4127 51.7289 14.4433 51.7433C14.5287 51.7779 14.6242 51.7779 14.7097 51.7433C14.7405 51.7292 14.7658 51.7056 14.7821 51.6758C14.7948 51.653 14.8045 51.6286 14.811 51.6033C14.8164 51.5815 14.819 51.5591 14.819 51.5366C14.819 51.5146 14.8163 51.4927 14.811 51.4713C14.8043 51.4461 14.7946 51.4217 14.7821 51.3988C14.7661 51.3689 14.7406 51.3451 14.7097 51.3314C14.6241 51.2974 14.5289 51.2974 14.4433 51.3314C14.4125 51.3454 14.3872 51.3691 14.3709 51.3988C14.3585 51.4218 14.3488 51.4461 14.3419 51.4713C14.3367 51.4927 14.334 51.5146 14.334 51.5366C14.3339 51.5591 14.3366 51.5815 14.3419 51.6033C14.3489 51.6285 14.3586 51.6528 14.3709 51.6758Z" fill="#77777A"/>
<path id="svg_199" d="M13.6137 51.676C13.6301 51.7055 13.6554 51.7291 13.6861 51.7434C13.728 51.7618 13.7735 51.7707 13.8193 51.7695C13.865 51.7706 13.9105 51.7617 13.9525 51.7434C13.9831 51.7292 14.0085 51.7056 14.0248 51.676C14.0374 51.653 14.0471 51.6287 14.0538 51.6034C14.0587 51.5815 14.0611 51.5592 14.061 51.5367C14.0611 51.5148 14.0587 51.4929 14.0538 51.4715C14.0469 51.4463 14.0372 51.422 14.0248 51.3989C14.0088 51.3691 13.9833 51.3454 13.9525 51.3315C13.9105 51.3133 13.865 51.3046 13.8193 51.3061C13.7735 51.3045 13.728 51.3131 13.6861 51.3315C13.6553 51.3455 13.6299 51.3692 13.6137 51.3989C13.6011 51.4218 13.5914 51.4462 13.5847 51.4715C13.5745 51.5146 13.5745 51.5596 13.5847 51.6027C13.591 51.6281 13.6007 51.6533 13.6137 51.676Z" fill="#77777A"/>
<path id="svg_200" d="M22.7476 54.55V53.0031C22.7492 52.8924 22.7341 52.7821 22.7027 52.676C22.6778 52.5907 22.6368 52.5109 22.5819 52.4411C22.5307 52.3805 22.4689 52.3298 22.3994 52.2917C22.3318 52.2524 22.2586 52.2238 22.1823 52.2068C22.1033 52.1899 22.0227 52.1817 21.942 52.1821H21.6046C21.5299 52.1828 21.4555 52.1911 21.3824 52.2068C21.3061 52.2237 21.2328 52.2524 21.1652 52.2917C21.0962 52.3295 21.0351 52.3802 20.985 52.4411C20.9303 52.5109 20.8895 52.5907 20.8648 52.676C20.833 52.7821 20.8176 52.8924 20.8192 53.0031V53.7283C20.8175 53.8388 20.8329 53.9489 20.8648 54.0547C20.8896 54.1402 20.9304 54.2201 20.985 54.2903C21.035 54.3518 21.0961 54.4033 21.1652 54.4419C21.2328 54.4815 21.306 54.5103 21.3824 54.5275C21.4613 54.5433 21.5416 54.5506 21.622 54.5493H22.3459C22.3459 55.1062 22.0303 55.1534 21.7595 55.1534H21.3455V55.5812H21.7595C21.8968 55.5966 22.0357 55.58 22.1655 55.5329C22.2953 55.4857 22.4126 55.4092 22.5081 55.3093C22.6037 55.2095 22.675 55.0889 22.7165 54.9569C22.7581 54.825 22.7687 54.6853 22.7476 54.5485M22.3611 53.2888V54.1591H21.6213C21.5634 54.1641 21.5051 54.1562 21.4506 54.1359C21.3962 54.1156 21.3469 54.0834 21.3064 54.0416C21.2293 53.9277 21.1937 53.7907 21.2058 53.6536V53.0734C21.1934 52.9366 21.229 52.7996 21.3064 52.6862C21.3443 52.6461 21.3905 52.6148 21.4418 52.5946C21.4931 52.5744 21.5482 52.5658 21.6032 52.5694H21.9383C21.9967 52.5643 22.0555 52.5722 22.1105 52.5923C22.1656 52.6125 22.2155 52.6445 22.2568 52.6862C22.3347 52.7995 22.3705 52.9365 22.3582 53.0734L22.3611 53.2888Z" fill="#77777A"/>
<path id="svg_201" d="M18.4754 50.7739V54.1628H17.5459V53.0061C17.5476 52.8954 17.5325 52.7851 17.501 52.679C17.4763 52.5936 17.4352 52.5138 17.3801 52.4441C17.3291 52.3832 17.2673 52.3322 17.1977 52.2939C17.1301 52.2548 17.0568 52.2262 16.9806 52.2091C16.9016 52.1922 16.821 52.184 16.7402 52.1844H16.4022C16.3275 52.1851 16.253 52.1934 16.1799 52.2091C16.1037 52.2261 16.0304 52.2547 15.9628 52.2939C15.8938 52.3321 15.8326 52.383 15.7825 52.4441C15.7279 52.514 15.6871 52.5937 15.6624 52.679C15.634 52.7778 15.6198 52.8801 15.6204 52.9829V52.9894C15.6204 52.9952 15.6204 52.9996 15.6204 53.0061V53.2483C15.6365 53.4921 15.5765 53.7349 15.4488 53.9431C15.3729 54.0225 15.2797 54.0834 15.1766 54.1212C15.0734 54.1589 14.963 54.1724 14.8538 54.1607H14.3934V52.1801H14.0062V54.1607H12.9985V53.0039C13.0002 52.8932 12.9848 52.7829 12.9529 52.6769C12.9282 52.5914 12.8871 52.5116 12.832 52.4419C12.7813 52.381 12.7197 52.3301 12.6503 52.2918C12.5826 52.2527 12.5094 52.2241 12.4332 52.2069C12.3542 52.1901 12.2736 52.1818 12.1929 52.1823H11.8548C11.7801 52.1829 11.7056 52.1912 11.6326 52.2069C11.5563 52.224 11.4831 52.2526 11.4154 52.2918C11.3465 52.33 11.2853 52.381 11.2352 52.4419C11.1808 52.5119 11.1402 52.5916 11.1157 52.6769C11.0841 52.7829 11.0689 52.8932 11.0709 53.0039V53.7291C11.0689 53.8398 11.084 53.9502 11.1157 54.0562C11.1404 54.1416 11.1809 54.2216 11.2352 54.2919C11.2852 54.3534 11.3463 54.4048 11.4154 54.4435C11.4831 54.4828 11.5563 54.5117 11.6326 54.5291C11.7117 54.5447 11.7923 54.552 11.8729 54.5508H12.5968C12.5968 55.1078 12.2819 55.1549 12.0112 55.1549H11.5971V55.5828H12.0112C12.1485 55.5984 12.2876 55.582 12.4176 55.535C12.5475 55.4879 12.6649 55.4115 12.7606 55.3116C12.8563 55.2116 12.9277 55.0909 12.9692 54.9589C13.0107 54.8268 13.0212 54.6869 13 54.5501H14.8495C14.9711 54.5512 15.0924 54.539 15.2114 54.5138C15.3221 54.4896 15.4281 54.4477 15.5256 54.3898C15.6067 54.3391 15.6789 54.2751 15.7391 54.2005C15.7525 54.2315 15.7679 54.2616 15.7854 54.2905C15.8353 54.352 15.8965 54.4035 15.9657 54.442C16.0333 54.4814 16.1065 54.5103 16.1828 54.5276C16.2617 54.5433 16.342 54.5506 16.4224 54.5494H18.8655V50.7703H18.479L18.4754 50.7739ZM12.612 53.294V54.1643H11.8715C11.8136 54.1691 11.7554 54.161 11.7009 54.1407C11.6465 54.1204 11.5972 54.0884 11.5566 54.0468C11.4798 53.9325 11.4445 53.7953 11.4567 53.6581V53.0779C11.4443 52.9411 11.4796 52.8043 11.5566 52.6906C11.5943 52.6504 11.6406 52.6191 11.6919 52.5989C11.7432 52.5787 11.7983 52.5701 11.8534 52.5739H12.1914C12.2498 52.5687 12.3086 52.5765 12.3637 52.5967C12.4187 52.6168 12.4686 52.6489 12.5099 52.6906C12.5876 52.804 12.6235 52.9409 12.6113 53.0779L12.612 53.294ZM17.1601 54.1643H16.4203C16.3624 54.1692 16.3041 54.1612 16.2497 54.1409C16.1953 54.1206 16.146 54.0884 16.1054 54.0468C16.0284 53.9326 15.9928 53.7954 16.0048 53.6581V53.0779C15.9925 52.941 16.0281 52.8042 16.1054 52.6906C16.1431 52.6503 16.1893 52.6189 16.2406 52.5987C16.292 52.5785 16.3472 52.57 16.4022 52.5739H16.7402C16.7986 52.5687 16.8574 52.5765 16.9125 52.5967C16.9675 52.6169 17.0174 52.649 17.0587 52.6906C17.1366 52.8039 17.1725 52.9409 17.1601 53.0779V54.1643Z" fill="#77777A"/>
</g>
</svg>
