<svg width="14" height="15" viewBox="0 0 14 15" fill="none" xmlns="http://www.w3.org/2000/svg">
<path fill-rule="evenodd" clip-rule="evenodd" d="M6.99985 0.333336C5.06685 0.333336 3.49985 1.90034 3.49985 3.83334C3.49985 5.76633 5.06685 7.33334 6.99985 7.33334C8.93284 7.33334 10.4998 5.76633 10.4998 3.83334C10.4998 1.90034 8.93284 0.333336 6.99985 0.333336ZM4.49985 3.83334C4.49985 2.45262 5.61914 1.33334 6.99985 1.33334C8.38056 1.33334 9.49985 2.45262 9.49985 3.83334C9.49985 5.21405 8.38056 6.33334 6.99985 6.33334C5.61914 6.33334 4.49985 5.21405 4.49985 3.83334Z" fill="#161616"/>
<path fill-rule="evenodd" clip-rule="evenodd" d="M11.1524 9.5528C11.044 9.49163 10.9482 9.43761 10.8707 9.39145C8.50136 7.98063 5.49857 7.98063 3.12921 9.39145C3.05167 9.43762 2.95588 9.49166 2.84744 9.55284C2.37223 9.82094 1.65389 10.2262 1.16178 10.7079C0.853999 11.0092 0.561563 11.4061 0.5084 11.8925C0.451862 12.4097 0.677504 12.8951 1.13018 13.3264C1.91115 14.0704 2.84834 14.6667 4.06054 14.6667H9.93939C11.1516 14.6667 12.0888 14.0704 12.8697 13.3264C13.3224 12.8951 13.5481 12.4097 13.4915 11.8925C13.4384 11.4061 13.1459 11.0092 12.8382 10.7079C12.346 10.2262 11.6276 9.8209 11.1524 9.5528ZM3.64082 10.2507C5.69494 9.02756 8.30499 9.02756 10.3591 10.2507C10.471 10.3173 10.5937 10.3869 10.7221 10.4598C11.1972 10.7293 11.7519 11.044 12.1387 11.4225C12.3787 11.6575 12.4811 11.8514 12.4974 12.0012C12.5104 12.1201 12.4804 12.3162 12.18 12.6024C11.4894 13.2603 10.7877 13.6667 9.93939 13.6667H4.06054C3.21225 13.6667 2.51053 13.2603 1.81996 12.6024C1.51954 12.3162 1.48948 12.1201 1.50248 12.0012C1.51885 11.8514 1.62119 11.6575 1.86128 11.4225C2.248 11.044 2.80268 10.7293 3.27776 10.4598C3.4062 10.3869 3.52891 10.3173 3.64082 10.2507Z" fill="#161616"/>
</svg>
