<svg width="24" height="24" viewBox="0 0 24 24" fill="none" xmlns="http://www.w3.org/2000/svg">
<path fill-rule="evenodd" clip-rule="evenodd" d="M6.61509 2.28704C6.33469 1.784 5.8834 1.40326 5.31671 1.28614C4.74411 1.16779 4.16856 1.34236 3.69553 1.72791C1.97917 3.12681 0.886331 5.36809 1.36063 7.71931C1.65217 9.16458 2.13788 10.5906 3.127 12.3153C5.11208 15.7766 8.21915 18.8854 11.6845 20.8728C13.4092 21.8619 14.8352 22.3476 16.2805 22.6391C18.6317 23.1134 20.873 22.0206 22.2719 20.3042C22.6574 19.8312 22.832 19.2557 22.7136 18.6831C22.5965 18.1164 22.2158 17.6651 21.7127 17.3847L20.1103 16.4915C19.5201 16.1625 19.0234 15.8856 18.5916 15.7048C18.1336 15.513 17.682 15.3991 17.1826 15.4511C16.6832 15.5032 16.2648 15.7079 15.8562 15.99C15.471 16.256 15.0422 16.6294 14.5325 17.0731L11.9735 19.301C9.07455 17.5324 6.46562 14.9222 4.69877 12.0263L6.92663 9.46724C7.37033 8.95761 7.74373 8.52874 8.00974 8.14356C8.29191 7.73497 8.49657 7.31654 8.54864 6.81718C8.60071 6.31782 8.4868 5.86616 8.29499 5.40814C8.11418 4.97637 7.83731 4.47969 7.5083 3.88948L6.61509 2.28704ZM16.5771 21.1688C15.5515 20.9619 14.537 20.6482 13.3706 20.0735L15.4864 18.2315C16.0353 17.7537 16.401 17.4368 16.7086 17.2243C17.0006 17.0226 17.1793 16.9596 17.3382 16.943C17.497 16.9265 17.6849 16.9513 18.0122 17.0884C18.3571 17.2328 18.7803 17.4674 19.4159 17.8217L20.9824 18.6949C21.1733 18.8013 21.2305 18.9183 21.2447 18.9867C21.2576 19.0492 21.2567 19.1756 21.1091 19.3566C19.9854 20.7354 18.2731 21.5109 16.5771 21.1688ZM5.76829 8.51334L3.9263 10.6291C3.35158 9.46276 3.03789 8.44829 2.83101 7.4227C2.48888 5.72665 3.26442 4.01439 4.6432 2.89063C4.82423 2.74308 4.9506 2.74218 5.0131 2.75509C5.08152 2.76923 5.1985 2.8265 5.30488 3.01735L6.17806 4.58386C6.53237 5.2195 6.76699 5.64267 6.91141 5.98754C7.0485 6.31491 7.07329 6.50276 7.05673 6.6616C7.04017 6.82043 6.97715 6.99913 6.77547 7.29116C6.563 7.59882 6.24612 7.96448 5.76829 8.51334Z" fill="#161616"/>
<path d="M14.8619 1.2792C14.4639 1.16436 14.0482 1.39388 13.9333 1.79185C13.8185 2.18982 14.048 2.60555 14.446 2.72039C17.7356 3.6697 20.3299 6.2639 21.2793 9.5534C21.3942 9.95137 21.8099 10.1809 22.2079 10.066C22.6058 9.95115 22.8353 9.53542 22.7205 9.13745C21.6281 5.35274 18.6467 2.37141 14.8619 1.2792Z" fill="#161616"/>
<path d="M14.293 6.14132C13.9118 5.97941 13.4715 6.15724 13.3096 6.5385C13.1477 6.91976 13.3255 7.36008 13.7067 7.52198C14.9511 8.05042 15.9493 9.04857 16.4777 10.293C16.6397 10.6742 17.08 10.852 17.4612 10.6901C17.8425 10.5282 18.0203 10.0879 17.8584 9.70664C17.1781 8.10457 15.8951 6.82165 14.293 6.14132Z" fill="#161616"/>
</svg>
