<svg width="12" height="15" viewBox="0 0 12 15" fill="none" xmlns="http://www.w3.org/2000/svg">
<path fill-rule="evenodd" clip-rule="evenodd" d="M4.5 2.16667C4.5 1.15415 5.32081 0.333336 6.33333 0.333336C7.34586 0.333336 8.16667 1.15415 8.16667 2.16667C8.16667 3.17919 7.34585 4 6.33333 4C5.32081 4 4.5 3.17919 4.5 2.16667ZM6.33333 1.33334C5.8731 1.33334 5.5 1.70643 5.5 2.16667C5.5 2.62691 5.8731 3 6.33333 3C6.79357 3 7.16667 2.62691 7.16667 2.16667C7.16667 1.70643 6.79357 1.33334 6.33333 1.33334Z" fill="#161616"/>
<path d="M6.33335 4.33334C6.60949 4.33334 6.83335 4.55719 6.83335 4.83334V6H8.92594C9.20208 6 9.42594 6.22386 9.42594 6.5C9.42594 6.77615 9.20208 7 8.92594 7H6.83335V9.16667C6.83335 9.23272 6.83337 9.28626 6.83411 9.33257C6.88042 9.33331 6.93396 9.33334 7.00001 9.33334L8.56546 9.33333C8.65979 9.33329 8.76654 9.33325 8.85975 9.34349C8.97082 9.35569 9.10769 9.386 9.24152 9.47661C9.37536 9.56722 9.45434 9.68304 9.50692 9.78164C9.55103 9.86437 9.59063 9.96349 9.62563 10.0511L9.96329 10.8952C9.98011 10.9373 9.99354 10.9708 10.0055 10.9996C10.0366 11 10.0727 11 10.118 11H11C11.2762 11 11.5 11.2239 11.5 11.5C11.5 11.7761 11.2762 12 11 12L10.1012 12C10.0069 12 9.90015 12.0001 9.80694 11.9899C9.69587 11.9777 9.559 11.9473 9.42516 11.8567C9.29133 11.7661 9.21235 11.6503 9.15977 11.5517C9.11565 11.469 9.07605 11.3698 9.04105 11.2822L8.7034 10.4381C8.68658 10.396 8.67315 10.3625 8.66121 10.3338C8.63008 10.3334 8.59395 10.3333 8.54866 10.3333L6.97705 10.3333C6.84031 10.3334 6.69244 10.3335 6.56763 10.3167C6.42141 10.297 6.23462 10.2465 6.07742 10.0893C5.92022 9.93206 5.86967 9.74527 5.85001 9.59905C5.83323 9.47424 5.83329 9.32638 5.83334 9.18963L5.83335 4.83334C5.83335 4.55719 6.0572 4.33334 6.33335 4.33334Z" fill="#161616"/>
<path d="M4.45433 6.65992C4.7267 6.61443 4.91063 6.35676 4.86514 6.08439C4.81966 5.81202 4.56198 5.62809 4.28961 5.67358C2.14049 6.03248 0.5 7.89308 0.5 10.1389C0.5 12.6417 2.53764 14.6667 5.04637 14.6667C6.56693 14.6667 7.91373 13.9227 8.73858 12.7813C8.90033 12.5575 8.85001 12.245 8.6262 12.0832C8.40239 11.9215 8.08983 11.9718 7.92808 12.1956C7.28386 13.087 6.23353 13.6667 5.04637 13.6667C3.0856 13.6667 1.5 12.0851 1.5 10.1389C1.5 8.39314 2.77597 6.9402 4.45433 6.65992Z" fill="#161616"/>
</svg>
