<svg width="16" height="15" viewBox="0 0 16 15" fill="none" xmlns="http://www.w3.org/2000/svg">
<path fill-rule="evenodd" clip-rule="evenodd" d="M11.5873 14.6635C11.3419 14.6635 11.0959 14.6395 10.8519 14.5901C9.78192 14.3788 8.83659 14.0162 7.78793 13.4135C5.48259 12.0922 3.40392 10.0135 2.08392 7.71018C1.48659 6.67085 1.12326 5.72618 0.905926 4.64618C0.614593 3.20285 1.2106 1.67281 2.4626 0.653475C2.78527 0.392142 3.16326 0.287462 3.52793 0.356796C3.89393 0.426796 4.2066 0.663462 4.4086 1.02346L4.99128 2.07151L4.99265 2.07397C5.48712 2.96042 5.75988 3.4494 5.6986 4.04618C5.63739 4.63436 5.28132 5.04653 4.63639 5.79308L4.63259 5.79749L3.13194 7.51819C4.30927 9.44952 6.04927 11.1895 7.98194 12.3675L9.66726 10.9035L9.66777 10.903C10.4035 10.258 10.8481 9.86813 11.4533 9.80347C12.0613 9.74081 12.5773 10.0301 13.4326 10.5115L14.4746 11.0901C14.8399 11.2955 15.0773 11.6108 15.1466 11.9788C15.2153 12.3428 15.1086 12.7188 14.8473 13.0375C14.0013 14.0768 12.7999 14.6642 11.5886 14.6642L11.5873 14.6635ZM8.91328 12.8822C9.62395 13.2329 10.3033 13.4628 11.0486 13.6102C12.1306 13.8295 13.2886 13.3675 14.0719 12.4048C14.1233 12.3422 14.1793 12.2515 14.1626 12.1635C14.1493 12.0922 14.0846 12.0188 13.9853 11.9628L12.9433 11.3841C12.2026 10.9668 11.8353 10.7675 11.5579 10.7975C11.2799 10.8268 10.9793 11.0821 10.3239 11.6561L8.9126 12.8822H8.91328ZM3.30661 1.33486C3.22194 1.33486 3.13861 1.39147 3.09261 1.4288C2.13061 2.21213 1.66794 3.36947 1.88594 4.44814C2.03727 5.1988 2.2686 5.87949 2.6166 6.58616L3.87526 5.1428C4.44393 4.4848 4.67526 4.20748 4.70326 3.94215C4.73126 3.67081 4.55459 3.34151 4.11725 2.55751L3.5346 1.51018C3.4806 1.41351 3.41059 1.35218 3.33926 1.33818C3.32859 1.33618 3.31728 1.33486 3.30661 1.33486Z" fill="#161616"/>
<path d="M11.9987 8.00016C11.7227 8.00016 11.4987 7.77616 11.4987 7.50016V6.3335H11.0273C10.7547 6.3335 10.4966 6.33348 10.284 6.12015C10.07 5.90882 10.07 5.65482 10.07 5.38683V4.16683C10.07 3.89083 10.294 3.66683 10.57 3.66683C10.846 3.66683 11.07 3.89083 11.07 4.16683V5.3335H11.4987V4.16683C11.4987 3.89083 11.7227 3.66683 11.9987 3.66683C12.2747 3.66683 12.4987 3.89083 12.4987 4.16683V7.50016C12.4987 7.77616 12.2747 8.00016 11.9987 8.00016Z" fill="#161616"/>
<path d="M9.14065 8.00016H8.56998C8.23198 8.00016 7.96465 8.00016 7.73665 7.78083C7.49866 7.55417 7.49866 7.27287 7.49866 6.94689V6.16683C7.49866 5.9615 7.49866 5.72946 7.68931 5.53747C7.88331 5.3348 8.12333 5.3335 8.33599 5.3335C8.50333 5.33016 8.58199 5.31815 8.61799 5.30882C8.64133 5.20949 8.64133 4.95082 8.64133 4.72015V4.66683H7.99866C7.72266 4.66683 7.49866 4.44283 7.49866 4.16683C7.49866 3.89083 7.72266 3.66683 7.99866 3.66683H8.56998C8.90731 3.66683 9.17399 3.66686 9.40266 3.88486C9.64133 4.1142 9.64133 4.3948 9.64133 4.7208C9.64133 5.31947 9.64132 5.71482 9.32665 6.02816C9.32332 6.03149 9.31999 6.0348 9.31666 6.03747C9.08199 6.2588 8.78134 6.31282 8.49801 6.32816V7.00016H9.14065C9.41665 7.00016 9.64065 7.22416 9.64065 7.50016C9.64065 7.77616 9.41665 8.00016 9.14065 8.00016Z" fill="#161616"/>
<path d="M12.7573 9.16831C12.856 9.27764 12.9927 9.33361 13.1293 9.33361V9.33498C13.2487 9.33498 13.3687 9.29227 13.464 9.20626C13.5293 9.1476 13.6053 9.07826 13.6826 8.99826C14.6393 8.04026 15.166 6.76827 15.166 5.4116C15.166 4.05494 14.6373 2.77958 13.6787 1.82091C11.6987 -0.157753 8.47733 -0.157753 6.49733 1.82091L6.49 1.82827C6.424 1.89694 6.36001 1.96693 6.29267 2.04227C6.10934 2.24893 6.12798 2.56492 6.33398 2.74826C6.53998 2.93159 6.856 2.91292 7.04 2.70692C7.09734 2.64225 7.15201 2.58297 7.20801 2.5243C8.79867 0.938966 11.3833 0.93962 12.972 2.52762C13.742 3.29762 14.166 4.32162 14.166 5.41095C14.166 6.50029 13.742 7.5243 12.972 8.29364L12.9647 8.30093C12.9147 8.35293 12.8627 8.40092 12.7947 8.46225C12.5893 8.64692 12.5727 8.96298 12.7573 9.16831Z" fill="#161616"/>
</svg>
