<svg width="18" height="19" viewBox="0 0 18 19" fill="none" xmlns="http://www.w3.org/2000/svg">
<path d="M16.4675 2.17128C14.7411 0.374547 11.9292 0.374549 10.2028 2.17128L9.48932 2.91388C9.20233 3.21256 9.21181 3.68734 9.51049 3.97433C9.80918 4.26131 10.284 4.25183 10.5709 3.95315L11.2845 3.21055C12.4206 2.02812 14.2497 2.02812 15.3859 3.21055C16.5382 4.40984 16.5382 6.36622 15.3859 7.56551L12.1465 10.9369C11.9668 11.1239 11.7711 11.2803 11.565 11.4069C10.4569 12.088 9.00561 11.9366 8.04508 10.9369C7.88883 10.7743 7.75393 10.5981 7.64021 10.4118C7.42434 10.0583 6.96276 9.94674 6.60925 10.1626C6.25573 10.3785 6.14414 10.8401 6.36001 11.1936C6.52954 11.4712 6.73075 11.734 6.96346 11.9762C8.41796 13.49 10.6477 13.7314 12.3504 12.6849C12.6651 12.4914 12.9603 12.2549 13.2281 11.9762L16.4675 8.60479C18.1777 6.82492 18.1776 3.95114 16.4675 2.17128Z" fill="#067647"/>
<path d="M11.0368 7.17127C9.31036 5.37455 6.49845 5.37455 4.77206 7.17128L1.53264 10.5427C-0.177547 12.3225 -0.177546 15.1963 1.53264 16.9762C3.25903 18.7729 6.07094 18.7729 7.79733 16.9762L8.51111 16.2333C8.7981 15.9346 8.78862 15.4599 8.48994 15.1729C8.19126 14.8859 7.71648 14.8954 7.42949 15.194L6.71571 15.9369C5.57957 17.1193 3.7504 17.1193 2.61426 15.9369C1.46191 14.7376 1.46191 12.7812 2.61426 11.582L5.85368 8.21055C6.98982 7.02812 8.81899 7.02812 9.95513 8.21055C10.1113 8.37313 10.2462 8.54928 10.3599 8.73547C10.5758 9.08898 11.0374 9.20054 11.3909 8.98465C11.7444 8.76876 11.856 8.30718 11.6401 7.95367C11.4706 7.67612 11.2694 7.41341 11.0368 7.17127Z" fill="#067647"/>
</svg>
