<svg width="18" height="18" viewBox="0 0 18 18" fill="none" xmlns="http://www.w3.org/2000/svg">
<path d="M8.9991 17.1248H9C12.7033 17.1248 14.5617 17.1248 15.8433 15.8432C17.055 14.6298 17.1175 12.829 17.1233 9.75063C17.1233 9.40563 16.8442 9.12482 16.4992 9.12482H16.4975C16.1525 9.12482 15.8725 9.404 15.8725 9.749C15.8667 12.7415 15.7792 14.1389 14.9583 14.9598C14.0425 15.8748 12.3575 15.8748 8.99919 15.8748C5.64085 15.8748 3.955 15.8748 3.04 14.9598C2.125 14.0439 2.125 12.3582 2.125 8.99983C2.125 5.6415 2.12502 3.95569 3.04085 3.03986C3.86085 2.21902 5.25831 2.13065 8.25081 2.12482C8.59665 2.12482 8.875 1.844 8.875 1.499C8.87417 1.154 8.595 0.874817 8.25 0.874817H8.24833C5.16916 0.88065 3.36832 0.94314 2.15666 2.15647C0.875 3.4373 0.875 5.29645 0.875 8.99973C0.875 12.703 0.875 14.5615 2.15666 15.8432C3.43748 17.1248 5.29666 17.1248 8.9991 17.1248Z" fill="#1B8354"/>
<path d="M7.76675 10.3249C7.88925 10.4457 8.04841 10.5065 8.20758 10.5065C8.36842 10.5065 8.5284 10.4441 8.6509 10.3216L15.8001 3.13074C15.8492 3.63574 15.8876 4.43324 15.8701 5.67908C15.8651 6.02491 16.1409 6.30819 16.4859 6.31319C16.8326 6.32152 17.1151 6.04239 17.1201 5.69739C17.1717 2.07307 16.7821 1.68188 16.5728 1.47182C16.3628 1.26179 15.9718 0.870747 12.3501 0.922402C12.0051 0.927402 11.7292 1.21152 11.7342 1.55652C11.7392 1.89818 12.0184 2.1724 12.3592 2.1724H12.3684C13.6192 2.1549 14.4175 2.1932 14.9209 2.2432L7.76422 9.44071C7.52089 9.68571 7.52175 10.0816 7.76675 10.3249Z" fill="#1B8354"/>
</svg>
