<svg width="22" height="22" viewBox="0 0 22 22" fill="none" xmlns="http://www.w3.org/2000/svg">
<path d="M9.52392 21.6988H11.5299C15.5159 21.6988 17.5159 21.6988 18.9109 20.3018C20.2239 18.9858 20.2959 17.0228 20.3049 13.9278C20.3059 13.5138 19.9709 13.1768 19.5569 13.1758H19.5549C19.1419 13.1758 18.8059 13.5108 18.8049 13.9238C18.7959 16.8958 18.6989 18.3898 17.8489 19.2418C16.8939 20.1988 15.1009 20.1988 11.5299 20.1988H9.52392C5.95192 20.1988 4.15893 20.1988 3.20393 19.2418C2.24793 18.2838 2.24792 16.4868 2.24792 12.9078V8.88782C2.24792 5.30882 2.24793 3.51284 3.20393 2.55484C3.69493 2.06384 4.38493 1.81483 5.58493 1.69583C5.99793 1.65483 6.29892 1.28883 6.25792 0.875832C6.21692 0.462832 5.84993 0.161834 5.43793 0.202834C3.87793 0.356834 2.89293 0.742826 2.14293 1.49483C0.747925 2.89183 0.747925 4.89582 0.747925 8.88782V12.9078C0.747925 16.8998 0.747925 18.9038 2.14293 20.3018C3.53792 21.6988 5.53795 21.6988 9.52392 21.6988Z" fill="white"/>
<path fill-rule="evenodd" clip-rule="evenodd" d="M13.4937 11.6974C13.5077 11.6984 13.5227 11.6984 13.5367 11.6984V11.7004H13.5557C15.0087 11.6634 16.0247 11.4914 16.9117 10.7204C17.4497 10.2524 17.7867 9.5724 17.9417 8.6434L18.2877 6.57441C18.2907 6.55741 18.2927 6.54041 18.2947 6.52341C18.6767 6.34441 19.0117 6.17442 19.3057 6.00942V9.45041C19.3057 9.86441 19.6417 10.2004 20.0557 10.2004C20.4697 10.2004 20.8057 9.86441 20.8057 9.45041V4.87842C20.9107 4.76042 21.0037 4.6394 21.0887 4.5144C21.3617 4.1044 21.2667 3.5474 20.8667 3.2424C18.9637 1.8144 17.4747 1.1144 14.7407 0.362399C14.2827 0.235399 13.7977 0.233417 13.3397 0.355417C10.4107 1.13242 8.84069 1.87642 7.11969 3.30342C6.84569 3.53042 6.72269 3.89542 6.80769 4.23542C6.97169 4.88242 7.50769 5.3904 8.77869 6.0404C8.78369 6.0784 8.79169 6.11742 8.80269 6.15542L9.80569 9.65542C9.81869 9.70042 9.83569 9.7444 9.85669 9.7864C10.6047 11.2684 11.6687 11.5934 13.4937 11.6974ZM11.2286 9.17321C11.5983 9.87879 11.98 10.1055 13.5487 10.1984C14.8567 10.1634 15.4367 10.0134 15.9277 9.5874C16.1927 9.3574 16.3677 8.96741 16.4627 8.39541L16.6577 7.23242C16.2717 7.39042 15.8527 7.55642 15.3977 7.73342C14.5227 8.07342 13.5567 8.06841 12.6787 7.71941C11.8747 7.39941 11.1737 7.11542 10.5647 6.85742L11.2286 9.17321ZM9.38769 4.6664C8.93269 4.4294 8.66169 4.24941 8.49969 4.12041H8.50069C9.89169 3.05341 11.2507 2.46142 13.7267 1.80442C13.9277 1.75042 14.1407 1.75142 14.3437 1.80742C16.6327 2.43742 17.9257 2.99641 19.4247 4.04641C19.3967 4.08941 19.3727 4.13642 19.3547 4.18542C18.6417 4.75342 17.3027 5.38342 14.8547 6.33342C14.3337 6.53542 13.7567 6.53241 13.2317 6.32341C11.5567 5.65741 10.2617 5.1214 9.38769 4.6664Z" fill="white"/>
</svg>
