<svg width="22" height="26" viewBox="0 0 22 26" fill="none" xmlns="http://www.w3.org/2000/svg">
<path fill-rule="evenodd" clip-rule="evenodd" d="M10.2405 1.24036C11.3284 0.197548 13.0054 0.197548 14.0933 1.24036C14.8104 1.92777 15.6988 2.88412 16.4131 3.9902C17.1212 5.08644 17.7086 6.40709 17.7086 7.80484C17.7086 10.4967 15.612 13.2916 12.1669 13.2916C8.72178 13.2916 6.62522 10.4967 6.62522 7.80484C6.62522 6.40709 7.21262 5.08644 7.92065 3.9902C8.63502 2.88412 9.52341 1.92777 10.2405 1.24036ZM12.8823 2.50369C12.4713 2.10977 11.8625 2.10977 11.4515 2.50369C10.7888 3.13899 10.0042 3.98968 9.39069 4.93965C8.77079 5.89945 8.37522 6.88385 8.37522 7.80484C8.37522 9.65981 9.81301 11.5416 12.1669 11.5416C14.5208 11.5416 15.9586 9.65981 15.9586 7.80484C15.9586 6.88385 15.563 5.89945 14.9431 4.93965C14.3295 3.98968 13.545 3.13899 12.8823 2.50369Z" fill="#067647"/>
<path d="M0.791891 15.3333C0.791891 14.85 1.18364 14.4583 1.66689 14.4583L4.46085 14.4583C4.93513 14.4583 5.40397 14.565 5.83052 14.7714L8.21282 15.9241C8.40016 16.0147 8.60825 16.0626 8.8203 16.0626H10.0367C11.0136 16.0626 11.8975 16.5238 12.4499 17.2475L17.2645 15.7682L17.2663 15.7677C18.5852 15.3576 19.9975 15.8509 20.8059 16.9703C21.531 17.9744 21.2508 19.4228 20.162 20.051L11.3939 25.1101C10.6297 25.551 9.72385 25.6601 8.87865 25.4093L1.41763 23.1953C0.954353 23.0579 0.690231 22.5709 0.827701 22.1076C0.965174 21.6443 1.45218 21.3802 1.91547 21.5176L9.37648 23.7316C9.75811 23.8448 10.1681 23.7969 10.5193 23.5943L19.2875 18.5352C19.4524 18.4401 19.5225 18.1823 19.3871 17.9948C19.0058 17.4668 18.3654 17.2582 17.7851 17.439L17.7818 17.44L13.0401 18.8969C13.0413 18.9307 13.0419 18.9647 13.0419 18.9989C13.0419 19.4552 12.7313 19.8284 12.3228 19.9414L9.35842 20.761C8.62281 20.9644 7.83501 20.894 7.14829 20.5617L4.60158 19.3295C4.16658 19.1191 3.98456 18.5958 4.19503 18.1608C4.40551 17.7258 4.92877 17.5438 5.36378 17.7542L7.91049 18.9864C8.2131 19.1329 8.56412 19.1649 8.89207 19.0743L11.1487 18.4503C10.9433 18.0787 10.5343 17.8126 10.0367 17.8126H8.8203C8.34602 17.8126 7.87718 17.7058 7.45063 17.4994L5.06833 16.3467C4.88099 16.2561 4.6729 16.2083 4.46085 16.2083H1.66689C1.18364 16.2083 0.791891 15.8165 0.791891 15.3333Z" fill="#067647"/>
</svg>
