<svg width="18" height="18" viewBox="0 0 18 18" fill="none" xmlns="http://www.w3.org/2000/svg">
<path fill-rule="evenodd" clip-rule="evenodd" d="M0.943522 1.21547C1.05037 1.00649 1.26529 0.875 1.5 0.875H5.66667C5.86736 0.875 6.05584 0.971373 6.17334 1.13407L10.2867 6.82945L16.0581 1.05806C16.3021 0.813981 16.6979 0.813981 16.9419 1.05806C17.186 1.30214 17.186 1.69786 16.9419 1.94194L11.028 7.85589L17.0067 16.1341C17.1441 16.3243 17.1633 16.5756 17.0565 16.7845C16.9496 16.9935 16.7347 17.125 16.5 17.125H12.3333C12.1326 17.125 11.9442 17.0286 11.8267 16.8659L7.71333 11.1706L1.94194 16.9419C1.69786 17.186 1.30213 17.186 1.05806 16.9419C0.813979 16.6979 0.813979 16.3021 1.05806 16.0581L6.97201 10.1441L0.993324 1.86593C0.855906 1.67566 0.836672 1.42444 0.943522 1.21547ZM2.72235 2.125L12.6529 15.875H15.2777L5.3471 2.125H2.72235Z" fill="white"/>
</svg>
