<svg width="18" height="16" viewBox="0 0 18 16" fill="none" xmlns="http://www.w3.org/2000/svg">
<path fill-rule="evenodd" clip-rule="evenodd" d="M10.5401 5.61811L10.472 5.58055C9.78492 5.20193 9.22298 4.89227 8.76038 4.7007C8.29074 4.50622 7.80912 4.38222 7.3188 4.51073C7.04025 4.58374 6.77876 4.71333 6.55531 4.89398C6.14506 5.22566 6.00004 5.70057 5.93642 6.17915C5.87488 6.64206 5.8749 7.24085 5.87492 7.95532V8.0444C5.8749 8.75887 5.87488 9.35768 5.93642 9.82059C6.00004 10.2992 6.14506 10.7741 6.55531 11.1057C6.77876 11.2864 7.04025 11.416 7.3188 11.489C7.80912 11.6175 8.29074 11.4935 8.76038 11.299C9.22299 11.1075 9.78492 10.7978 10.472 10.4192L10.5401 10.3816C11.1688 10.0352 11.688 9.74914 12.0616 9.48404C12.436 9.21843 12.7912 8.88929 12.9088 8.40929C12.9748 8.13983 12.9748 7.85991 12.9088 7.59044C12.7912 7.11044 12.436 6.7813 12.0616 6.5157C11.688 6.25059 11.1688 5.9645 10.5401 5.61811ZM7.63572 5.71989C7.7251 5.69647 7.89116 5.69369 8.28212 5.85559C8.67258 6.01728 9.17338 6.29218 9.90234 6.69387C10.5742 7.0641 11.0298 7.31629 11.3383 7.53516C11.6529 7.75837 11.6886 7.86296 11.6946 7.88783C11.7128 7.96192 11.7128 8.03781 11.6946 8.11191C11.6886 8.13677 11.6529 8.24137 11.3383 8.46458C11.0298 8.68345 10.5742 8.93564 9.90234 9.30587C9.17339 9.70755 8.67258 9.98245 8.28212 10.1441C7.89116 10.306 7.7251 10.3033 7.63572 10.2798C7.52159 10.2499 7.42142 10.1986 7.34119 10.1337C7.30312 10.1029 7.22397 10.0204 7.17552 9.65586C7.12625 9.28528 7.12493 8.77064 7.12493 7.99987C7.12493 7.22909 7.12625 6.71446 7.17552 6.34388C7.22397 5.97938 7.30312 5.89682 7.34119 5.86604C7.42142 5.80118 7.52159 5.7498 7.63572 5.71989Z" fill="white"/>
<path fill-rule="evenodd" clip-rule="evenodd" d="M8.99991 0.291504C7.45107 0.291504 5.96303 0.444472 4.58054 0.726284L4.47448 0.747883C2.89562 1.06925 1.84361 1.28337 0.93707 2.44894C0.0402552 3.60199 0.0407568 4.93917 0.0415337 7.01017L0.0415337 8.98951C0.0407568 11.0605 0.0402552 12.3977 0.93707 13.5507C1.84361 14.7163 2.89562 14.9304 4.47447 15.2518L4.58054 15.2734C5.96303 15.5552 7.45107 15.7082 8.99991 15.7082C10.5488 15.7082 12.0368 15.5552 13.4193 15.2734L13.5254 15.2518C15.1042 14.9304 16.1562 14.7163 17.0628 13.5507C17.9596 12.3977 17.9591 11.0605 17.9583 8.98951L17.9583 7.01016C17.9591 4.93917 17.9596 3.60199 17.0628 2.44894C16.1562 1.28337 15.1042 1.06925 13.5254 0.747883L13.4193 0.726284C12.0368 0.444472 10.5488 0.291504 8.99991 0.291504ZM4.83021 1.9511C6.12829 1.68649 7.53261 1.5415 8.99991 1.5415C10.4672 1.5415 11.8715 1.68649 13.1696 1.9511C14.8797 2.29969 15.4751 2.44367 16.0761 3.21636C16.6803 3.99318 16.7082 4.86537 16.7082 7.19688L16.7082 8.80279C16.7082 11.1343 16.6803 12.0065 16.0761 12.7833C15.4751 13.556 14.8797 13.7 13.1696 14.0486C11.8715 14.3132 10.4672 14.4582 8.99991 14.4582C7.53261 14.4582 6.12829 14.3132 4.83021 14.0486C3.12013 13.7 2.52474 13.556 1.92376 12.7833C1.31957 12.0065 1.29158 11.1343 1.29158 8.80279L1.29158 7.19688C1.29158 4.86537 1.31957 3.99318 1.92376 3.21636C2.52474 2.44367 3.12013 2.29969 4.83021 1.9511Z" fill="white"/>
</svg>
