<svg width="14" height="13" viewBox="0 0 14 13" fill="none" xmlns="http://www.w3.org/2000/svg">
<path d="M12.3241 1.17582C10.7563 -0.39203 8.21429 -0.39203 6.64645 1.17582L4.90675 2.91551C4.71149 3.11077 4.71149 3.42736 4.90675 3.62262C5.10201 3.81788 5.41859 3.81788 5.61386 3.62262L7.35355 1.88292C8.53087 0.705601 10.4397 0.705601 11.617 1.88292C12.7943 3.06024 12.7943 4.96906 11.617 6.14638L9.87731 7.88607C9.68205 8.08134 9.68205 8.39792 9.87731 8.59318C10.0726 8.78844 10.3892 8.78844 10.5844 8.59318L12.3241 6.85348C13.892 5.28564 13.892 2.74366 12.3241 1.17582Z" fill="white"/>
<path d="M4.12269 5.11379C4.31795 4.91853 4.31795 4.60194 4.12269 4.40668C3.92743 4.21142 3.61084 4.21142 3.41558 4.40668L1.67588 6.14638C0.108039 7.71422 0.108039 10.2562 1.67588 11.824C3.24373 13.3919 5.78571 13.3919 7.35355 11.824L9.09325 10.0844C9.28851 9.88909 9.28851 9.57251 9.09325 9.37724C8.89799 9.18198 8.58141 9.18198 8.38614 9.37724L6.64645 11.1169C5.46913 12.2943 3.56031 12.2943 2.38299 11.1169C1.20567 9.93962 1.20567 8.03081 2.38299 6.85348L4.12269 5.11379Z" fill="white"/>
<path d="M9.02022 5.18682C9.21548 4.99156 9.21548 4.67497 9.02022 4.47971C8.82496 4.28445 8.50838 4.28445 8.31311 4.47971L4.97978 7.81304C4.78452 8.00831 4.78452 8.32489 4.97978 8.52015C5.17504 8.71541 5.49162 8.71541 5.68689 8.52015L9.02022 5.18682Z" fill="white"/>
</svg>
