<svg width="22" height="22" viewBox="0 0 22 22" fill="none" xmlns="http://www.w3.org/2000/svg">
<path fill-rule="evenodd" clip-rule="evenodd" d="M4.31674 0.286323C4.88343 0.403448 5.33473 0.784187 5.61512 1.28722L6.50833 2.88966C6.83733 3.47986 7.11421 3.97655 7.29502 4.40832C7.48683 4.86634 7.60075 5.318 7.54867 5.81736C7.4966 6.31672 7.29194 6.73516 7.00977 7.14375C6.74376 7.52892 6.37036 7.9578 5.92666 8.46742L3.6988 11.0265C5.46565 13.9224 8.07458 16.5325 10.9735 18.3012L13.5326 16.0733C14.0422 15.6296 14.4711 15.2562 14.8562 14.9902C15.2648 14.708 15.6833 14.5034 16.1826 14.4513C16.682 14.3992 17.1337 14.5132 17.5917 14.705C18.0234 14.8858 18.5201 15.1627 19.1103 15.4917L20.7128 16.3849C21.2158 16.6653 21.5965 17.1166 21.7137 17.6832C21.832 18.2558 21.6574 18.8314 21.2719 19.3044C19.873 21.0208 17.6317 22.1136 15.2805 21.6393C13.8352 21.3478 12.4092 20.8621 10.6845 19.873C7.21918 17.8856 4.11211 14.7768 2.12703 11.3155C1.13792 9.59075 0.652201 8.16476 0.360658 6.7195C-0.113639 4.36827 0.979196 2.12699 2.69556 0.72809C3.16859 0.342548 3.74414 0.167976 4.31674 0.286323ZM12.3707 19.0737C13.537 19.6484 14.5515 19.9621 15.5771 20.1689C17.2732 20.5111 18.9854 19.7355 20.1092 18.3568C20.2567 18.1757 20.2576 18.0494 20.2447 17.9869C20.2306 17.9184 20.1733 17.8015 19.9825 17.6951L18.4159 16.8219C17.7803 16.4676 17.3571 16.233 17.0123 16.0885C16.6849 15.9515 16.497 15.9267 16.3382 15.9432C16.1794 15.9598 16.0007 16.0228 15.7086 16.2245C15.401 16.437 15.0353 16.7538 14.4865 17.2317L12.3707 19.0737ZM2.92633 9.62932L4.76832 7.51352C5.24615 6.96466 5.56303 6.599 5.7755 6.29135C5.97718 5.99931 6.0402 5.82062 6.05676 5.66178C6.07332 5.50294 6.04853 5.31509 5.91145 4.98773C5.76702 4.64285 5.5324 4.21968 5.17809 3.58404L4.30491 2.01753C4.19853 1.82669 4.08155 1.76942 4.01313 1.75528C3.95063 1.74236 3.82426 1.74326 3.64323 1.89081C2.26445 3.01457 1.48891 4.72684 1.83104 6.42289C2.03792 7.44847 2.35161 8.46294 2.92633 9.62932Z" fill="#1B8354"/>
</svg>
