<svg width="25" height="24" viewBox="0 0 25 24" fill="none" xmlns="http://www.w3.org/2000/svg">
<g id="elements">
<g id="Icon">
<path d="M17.7917 4.3735C17.7646 4.35657 17.7381 4.34099 17.7125 4.32672C17.4685 4.19084 17.1137 4.06807 16.7351 4.11628C16.7256 4.11749 16.7161 4.11886 16.7066 4.12039L14.5185 4.47256C14.0414 4.54935 13.7169 4.99837 13.7937 5.47548C13.8705 5.95259 14.3195 6.27711 14.7966 6.20032L15.6314 6.06596C12.1701 10.5369 7.57311 10.6002 5.35324 10.5262C4.87026 10.5101 4.46568 10.8886 4.44959 11.3716C4.4335 11.8546 4.81199 12.2591 5.29497 12.2752C7.69994 12.3554 13.1578 12.2893 17.1536 6.95689L17.3412 7.57683C17.4812 8.03936 17.9696 8.30083 18.4322 8.16084C18.8947 8.02084 19.1562 7.53241 19.0162 7.06988L18.4376 5.15836C18.4315 5.13818 18.4247 5.11823 18.4171 5.09854C18.2886 4.76329 18.0377 4.53296 17.8178 4.39018C17.8092 4.38449 17.8005 4.37893 17.7917 4.3735Z" fill="white"/>
<path d="M19.0415 13.1666C19.0415 12.6834 18.6498 12.2916 18.1665 12.2916C17.6833 12.2916 17.2915 12.6834 17.2915 13.1666V19C17.2915 19.4832 17.6833 19.875 18.1665 19.875C18.6498 19.875 19.0415 19.4832 19.0415 19V13.1666Z" fill="white"/>
<path d="M12.3332 14.625C12.8165 14.625 13.2082 15.0167 13.2082 15.5V19C13.2082 19.4832 12.8165 19.875 12.3332 19.875C11.85 19.875 11.4582 19.4832 11.4582 19V15.5C11.4582 15.0167 11.85 14.625 12.3332 14.625Z" fill="white"/>
<path d="M6.49988 15.7916C6.98313 15.7916 7.37488 16.1834 7.37488 16.6666V19C7.37488 19.4832 6.98313 19.875 6.49988 19.875C6.01663 19.875 5.62488 19.4832 5.62488 19V16.6666C5.62488 16.1834 6.01663 15.7916 6.49988 15.7916Z" fill="white"/>
<path fill-rule="evenodd" clip-rule="evenodd" d="M12.3999 0.0416262H12.2664C9.71063 0.0416106 7.7032 0.0415981 6.1359 0.252314C4.5298 0.468246 3.2555 0.919786 2.25427 1.92102C1.25304 2.92226 0.801504 4.19656 0.58557 5.80266C0.37485 7.36998 0.374863 9.37743 0.374878 11.9333V12.0667C0.374863 14.6225 0.37485 16.6299 0.58557 18.1972C0.801504 19.8034 1.25304 21.0777 2.25426 22.0789C3.2555 23.0802 4.52981 23.5317 6.13592 23.7477C7.70302 23.9583 9.71014 23.9583 12.2654 23.9583H12.4009C14.9562 23.9583 16.9634 23.9583 18.5305 23.7477C20.1366 23.5317 21.411 23.0802 22.4122 22.0789C23.4134 21.0777 23.8649 19.8033 24.0809 18.1972C24.2916 16.6299 24.2916 14.6225 24.2915 12.0667V11.9322C24.2916 9.37693 24.2916 7.36976 24.0809 5.80266C23.865 4.19656 23.4135 2.92225 22.4122 1.92101C21.4109 0.91979 20.1366 0.468252 18.5305 0.252318C16.9632 0.0415983 14.9557 0.0416107 12.3999 0.0416262ZM3.49171 3.15846C4.11359 2.53657 4.95704 2.17655 6.36909 1.98671C7.8063 1.79348 9.69611 1.79163 12.3332 1.79163C14.9703 1.79163 16.8601 1.79348 18.2973 1.98671C19.7094 2.17656 20.5529 2.53658 21.1748 3.15847C21.7967 3.78035 22.1567 4.62378 22.3465 6.03582C22.5397 7.47305 22.5415 9.36285 22.5415 12C22.5415 14.637 22.5397 16.5268 22.3465 17.9641C22.1566 19.3761 21.7966 20.2196 21.1747 20.8415C20.5529 21.4634 19.7095 21.8234 18.2974 22.0133C16.8601 22.2065 14.9703 22.2083 12.3332 22.2083C9.6961 22.2083 7.8063 22.2065 6.36907 22.0133C4.95703 21.8234 4.1136 21.4634 3.49172 20.8415C2.86983 20.2196 2.50981 19.3761 2.31997 17.9641C2.12674 16.5268 2.12488 14.637 2.12488 12C2.12488 9.36286 2.12674 7.47306 2.31997 6.03584C2.50981 4.62379 2.86983 3.78035 3.49171 3.15846Z" fill="white"/>
</g>
</g>
</svg>
