<svg width="22" height="22" viewBox="0 0 22 22" fill="none" xmlns="http://www.w3.org/2000/svg">
<g id="elements">
<g id="Icon">
<path d="M2.81802 19.637C3.21502 19.71 3.61599 19.746 4.01699 19.746L4.01802 19.7471C5.10002 19.7471 6.17601 19.4851 7.13501 18.9761L7.23398 18.925L7.26221 18.9106C7.42408 18.8283 7.58602 18.7458 7.67202 18.709C7.70802 18.713 7.76801 18.72 7.86201 18.738C8.27001 18.814 8.66099 18.5461 8.73799 18.1391C8.81399 17.7321 8.54601 17.34 8.13901 17.263C7.86001 17.211 7.66298 17.1961 7.47998 17.2141C7.45398 17.2171 7.42698 17.2211 7.40098 17.2261C7.16998 17.2741 6.96398 17.3791 6.55298 17.5891L6.44902 17.642L6.43799 17.648C5.76299 18.007 5.013 18.208 4.252 18.242C4.447 17.828 4.591 17.387 4.679 16.929C4.806 16.254 4.55998 15.545 4.00298 14.982C2.55098 13.522 1.752 11.615 1.752 9.61104C1.752 5.27704 5.48801 1.75107 10.081 1.75107C14.085 1.75107 17.527 4.44107 18.266 8.14707C18.347 8.55307 18.741 8.81503 19.148 8.73604C19.554 8.65504 19.818 8.26 19.737 7.854C18.859 3.448 14.798 0.25 10.08 0.25C4.65998 0.25 0.250977 4.44906 0.250977 9.61006C0.250977 12.0121 1.20499 14.296 2.93599 16.037C3.03299 16.135 3.252 16.39 3.204 16.648C3.077 17.307 2.79098 17.92 2.37598 18.421C2.20598 18.626 2.15802 18.9061 2.24902 19.1561C2.33902 19.4061 2.55602 19.589 2.81802 19.637Z" fill="#067647"/>
<path fill-rule="evenodd" clip-rule="evenodd" d="M17.143 21.242C17.7679 21.5769 18.4657 21.7499 19.1675 21.75C19.4313 21.75 19.6952 21.725 19.956 21.6761C20.216 21.6271 20.43 21.4451 20.521 21.1971C20.611 20.9491 20.565 20.671 20.398 20.466C20.173 20.19 20.024 19.87 19.956 19.517C19.96 19.499 19.981 19.452 20.029 19.405L20.038 19.396C21.141 18.277 21.749 16.808 21.749 15.259C21.749 11.945 18.945 9.24902 15.499 9.24902C12.053 9.24902 9.24902 11.945 9.24902 15.259C9.24902 18.573 12.053 21.269 15.499 21.269C15.917 21.269 16.319 21.231 16.695 21.157C16.7105 21.1545 16.7256 21.1521 16.7403 21.1497C16.772 21.1446 16.8017 21.1398 16.829 21.1351C16.855 21.1311 16.885 21.1261 16.911 21.1221C16.955 21.1441 17.013 21.1741 17.066 21.2021L17.143 21.242ZM17.761 19.8721C17.52 19.7461 17.355 19.66 17.157 19.629C16.96 19.593 16.784 19.6221 16.582 19.6561C16.5507 19.6615 16.5164 19.667 16.4791 19.6729C16.4686 19.6746 16.458 19.6763 16.447 19.678C16.437 19.679 16.427 19.681 16.417 19.683C16.133 19.74 15.825 19.769 15.5 19.769C12.881 19.769 10.75 17.746 10.75 15.259C10.75 12.772 12.881 10.749 15.5 10.749C18.119 10.749 20.25 12.772 20.25 15.259C20.25 16.409 19.797 17.502 18.975 18.338C18.57 18.738 18.386 19.279 18.482 19.788C18.507 19.923 18.541 20.056 18.581 20.187C18.327 20.133 18.08 20.0421 17.849 19.9181C17.846 19.9161 17.84 19.913 17.84 19.913L17.761 19.8721Z" fill="#067647"/>
</g>
</g>
</svg>
