<svg width="50" height="35" viewBox="0 0 50 35" fill="none" xmlns="http://www.w3.org/2000/svg">
<g clip-path="url(#clip0_2210_31068)">
<path fill-rule="evenodd" clip-rule="evenodd" d="M16.6848 22.2122C16.472 22.3092 16.2564 22.3995 16.0381 22.483C16.145 22.7076 16.2584 22.9283 16.3782 23.1451C16.6049 23.0352 16.8289 22.9182 17.0502 22.794C16.9227 22.6043 16.8005 22.4103 16.6848 22.2122Z" fill="#E9D700"/>
<path fill-rule="evenodd" clip-rule="evenodd" d="M2.29629 14.5862L0.350683 13.0147C0.350683 13.0147 2.16882 10.1027 5.48695 10.4142C5.48695 10.4142 8.28915 10.5609 9.15344 12.8213C9.15344 12.8213 10.1265 15.8367 7.8897 17.8307C7.8897 17.8307 4.34574 20.9455 2.92487 21.7246L4.61113 21.0027H9.53805V23.4345H0.178711V21.1356L5.37102 16.9378C6.46992 16.051 7.27926 14.2686 5.93915 13.1702C5.75714 13.0217 5.54446 12.9155 5.31642 12.8591C5.08838 12.8028 4.85069 12.7978 4.62047 12.8444C3.68091 13.0093 2.80728 13.9983 2.29629 14.584V14.5862Z" fill="white"/>
<path fill-rule="evenodd" clip-rule="evenodd" d="M26.782 12.9078V10.5715H35.3243V12.6594L32.1155 15.8105C32.1155 15.8105 34.8002 16.0803 35.454 18.5995C36.1897 21.438 33.682 23.8265 30.6848 23.6133C29.8011 23.5924 28.9324 23.381 28.138 22.9934C27.3436 22.6058 26.6423 22.0513 26.082 21.3677L27.8617 19.6144C27.8617 19.6144 29.1804 21.3369 31.0837 21.0908C31.0837 21.0908 32.7469 21.0908 32.8304 19.6254C32.9403 17.6941 30.6524 17.6226 29.1815 17.799L28.7518 16.0765L32.8633 11.9556L31.2375 12.9094L26.782 12.9078Z" fill="white"/>
<path fill-rule="evenodd" clip-rule="evenodd" d="M43.2536 10.2689C44.5744 10.2737 45.8642 10.6697 46.9601 11.407C48.0561 12.1443 48.9089 13.1898 49.4111 14.4114C49.9132 15.6331 50.0422 16.9762 49.7815 18.271C49.5209 19.5659 48.8825 20.7545 47.9468 21.6868C47.0112 22.6191 45.8202 23.2533 44.5244 23.5092C43.2286 23.7651 41.886 23.6314 40.6662 23.1248C39.4463 22.6182 38.4039 21.7616 37.6706 20.663C36.9373 19.5645 36.5459 18.2732 36.5459 16.9524C36.5449 16.0724 36.7179 15.2008 37.0549 14.3879C37.3919 13.575 37.8863 12.8367 38.5097 12.2156C39.1331 11.5944 39.8732 11.1027 40.6873 10.7686C41.5014 10.4345 42.3736 10.2647 43.2536 10.2689ZM43.2536 12.8189C44.0831 12.762 44.9105 12.956 45.6283 13.3757C46.346 13.7954 46.9209 14.4213 47.2781 15.1721C47.6353 15.9229 47.7584 16.7638 47.6312 17.5855C47.5041 18.4072 47.1327 19.1716 46.5653 19.7793C45.9978 20.387 45.2607 20.81 44.4497 20.9931C43.6386 21.1763 42.7913 21.1111 42.0177 20.8062C41.2442 20.5013 40.5803 19.9706 40.1125 19.2833C39.6446 18.596 39.3943 17.7838 39.3942 16.9524C39.3608 15.8932 39.748 14.8638 40.4711 14.0891C41.1943 13.3144 42.1946 12.8573 43.2536 12.8178V12.8189Z" fill="white"/>
<path fill-rule="evenodd" clip-rule="evenodd" d="M18.3051 11.3885C18.464 11.2332 18.6289 11.0832 18.7996 10.9385C18.641 10.7553 18.4761 10.5777 18.3051 10.4055C18.1333 10.5773 17.9684 10.755 17.8105 10.9385C17.9816 11.0835 18.1464 11.2335 18.3051 11.3885Z" fill="#E9D700"/>
<path fill-rule="evenodd" clip-rule="evenodd" d="M18.3215 9.49985C18.5391 9.27751 18.7664 9.06433 19.0034 8.8603C18.7865 8.59327 18.5592 8.33685 18.3215 8.09106C18.0845 8.33685 17.8572 8.59327 17.6396 8.8603C17.8759 9.06433 18.1032 9.27751 18.3215 9.49985Z" fill="#8BBB2A"/>
<path fill-rule="evenodd" clip-rule="evenodd" d="M19.2476 10.5834C19.4593 10.4247 19.6791 10.2738 19.9069 10.1306C19.7578 9.89068 19.6009 9.65679 19.436 9.42896C19.2027 9.60368 18.9776 9.78683 18.7607 9.97841C18.9307 10.174 19.0937 10.3755 19.2498 10.5828L19.2476 10.5834Z" fill="white"/>
<path fill-rule="evenodd" clip-rule="evenodd" d="M20.5795 12.7335C20.5022 12.558 20.4207 12.3849 20.335 12.2142C20.535 12.141 20.7375 12.0741 20.9427 12.0137C21.0218 12.2052 21.0961 12.3996 21.1657 12.5966C20.9676 12.6355 20.7721 12.6807 20.5795 12.7335Z" fill="#46BBC6"/>
<path fill-rule="evenodd" clip-rule="evenodd" d="M19.7186 13.0183C19.6303 12.8762 19.5373 12.7357 19.4395 12.5969C19.6015 12.5178 19.7653 12.4425 19.934 12.3733C20.0255 12.5297 20.1125 12.6883 20.1949 12.8491C20.0345 12.9008 19.8765 12.9572 19.7208 13.0183H19.7186Z" fill="#8BBB2A"/>
<path fill-rule="evenodd" clip-rule="evenodd" d="M20.0437 11.6791C19.9265 11.4762 19.8029 11.2773 19.6729 11.0824C19.8904 10.9615 20.1102 10.8478 20.3322 10.7412C20.4534 10.961 20.5683 11.1865 20.6767 11.4176C20.4624 11.4978 20.2511 11.5852 20.0426 11.6797L20.0437 11.6791Z" fill="#8BBB2A"/>
<path fill-rule="evenodd" clip-rule="evenodd" d="M19.1077 12.1586C18.9773 11.9971 18.8405 11.8396 18.6973 11.6861C18.8735 11.5663 19.0518 11.4513 19.2324 11.3411C19.3687 11.5169 19.4989 11.6977 19.622 11.8812C19.4484 11.9687 19.2769 12.0612 19.1077 12.1586Z" fill="#46BBC6"/>
<path fill-rule="evenodd" clip-rule="evenodd" d="M17.3824 10.5965C17.5373 10.3899 17.6996 10.1884 17.8692 9.99208C17.6534 9.80014 17.4291 9.61699 17.1961 9.44263C17.0327 9.6701 16.8769 9.90343 16.7285 10.1426C16.9542 10.2862 17.1725 10.4373 17.3835 10.5959L17.3824 10.5965Z" fill="#003980"/>
<path fill-rule="evenodd" clip-rule="evenodd" d="M18.3051 22.4983C18.464 22.6532 18.6289 22.8032 18.7996 22.9483C18.641 23.1314 18.4761 23.3091 18.3051 23.4813C18.1333 23.3091 17.9684 23.1314 17.8105 22.9483C17.9816 22.8036 18.1464 22.6536 18.3051 22.4983Z" fill="#00ABE7"/>
<path fill-rule="evenodd" clip-rule="evenodd" d="M18.3215 24.387C18.5391 24.6093 18.7664 24.8225 19.0034 25.0265C18.7865 25.2936 18.5592 25.55 18.3215 25.7958C18.0845 25.5496 17.8572 25.2932 17.6396 25.0265C17.8759 24.8229 18.1032 24.6097 18.3215 24.387Z" fill="#E9D700"/>
<path fill-rule="evenodd" clip-rule="evenodd" d="M19.2476 23.3059C19.4593 23.4641 19.6791 23.6149 19.9069 23.7581C19.7578 23.9977 19.6009 24.2315 19.436 24.4597C19.2027 24.285 18.9776 24.1019 18.7607 23.9103C18.9303 23.7143 19.0926 23.5129 19.2476 23.3059Z" fill="#46BBC6"/>
<path fill-rule="evenodd" clip-rule="evenodd" d="M17.3824 23.2896C17.5373 23.4966 17.6996 23.698 17.8692 23.894C17.6534 24.0863 17.4291 24.2695 17.1961 24.4435C17.0327 24.216 16.8769 23.9825 16.7285 23.7429C16.9542 23.5997 17.1725 23.4484 17.3835 23.2891L17.3824 23.2896Z" fill="#8BBB2A"/>
<path fill-rule="evenodd" clip-rule="evenodd" d="M21.5298 12.3883C21.7496 12.3542 21.971 12.3278 22.1941 12.3091C22.171 12.0674 22.1393 11.8267 22.0991 11.5872C21.8595 11.6271 21.6214 11.6758 21.3848 11.7333C21.4404 11.9509 21.4881 12.169 21.5276 12.3877L21.5298 12.3883Z" fill="#E9D700"/>
<path fill-rule="evenodd" clip-rule="evenodd" d="M22.6349 10.8631C22.9412 10.8089 23.2496 10.7675 23.5602 10.7389C23.5379 10.3953 23.5012 10.0543 23.4503 9.71582C23.1148 9.77846 22.7811 9.8552 22.4492 9.94604C22.5225 10.249 22.5842 10.5545 22.6344 10.8625L22.6349 10.8631Z" fill="#00ABE7"/>
<path fill-rule="evenodd" clip-rule="evenodd" d="M22.7657 12.2808C23.0294 12.2749 23.2952 12.2795 23.563 12.2945C23.5802 12.0125 23.5877 11.7308 23.5855 11.4495C23.2924 11.4557 23.0029 11.474 22.7168 11.5044C22.7421 11.7608 22.7584 12.0196 22.7657 12.2808Z" fill="#46BBC6"/>
<path fill-rule="evenodd" clip-rule="evenodd" d="M22.7783 13.6369C22.7997 13.4034 22.8146 13.1693 22.8206 12.9358C23.0675 12.964 23.3128 12.9992 23.5563 13.0413C23.527 13.2918 23.4904 13.5422 23.4465 13.7924C23.2267 13.7334 23.004 13.6816 22.7783 13.6369Z" fill="white"/>
<path fill-rule="evenodd" clip-rule="evenodd" d="M21.7387 13.4832C21.7259 13.2756 21.7056 13.0677 21.6777 12.8596C21.8902 12.8644 22.1021 12.8745 22.3134 12.8898C22.323 13.1125 22.3246 13.3349 22.3184 13.5569C22.1261 13.5272 21.9329 13.5027 21.7387 13.4832Z" fill="#8BBB2A"/>
<path fill-rule="evenodd" clip-rule="evenodd" d="M20.823 13.4834C20.7775 13.3215 20.7272 13.1606 20.6719 13.0009C20.8493 12.9696 21.0274 12.9432 21.2065 12.9224C21.2515 13.0975 21.2911 13.274 21.3252 13.452C21.157 13.457 20.9895 13.468 20.823 13.4834Z" fill="white"/>
<path fill-rule="evenodd" clip-rule="evenodd" d="M21.2357 11.207C21.4819 11.129 21.7304 11.0595 21.9813 10.9987C21.9169 10.7171 21.8403 10.4372 21.7517 10.1592C21.4868 10.2489 21.2246 10.3484 20.9648 10.4575C21.0659 10.7055 21.1562 10.9557 21.2357 11.2081V11.207Z" fill="#003980"/>
<path fill-rule="evenodd" clip-rule="evenodd" d="M15.1001 21.4371C15.1396 21.6568 15.1873 21.8752 15.2429 22.092C15.0081 22.1488 14.77 22.1973 14.5287 22.2376C14.488 21.9977 14.4563 21.757 14.4336 21.5156C14.657 21.497 14.8785 21.4706 15.0979 21.4365L15.1001 21.4371Z" fill="#E9D700"/>
<path fill-rule="evenodd" clip-rule="evenodd" d="M14.9728 20.4024C14.9856 20.6105 15.006 20.8185 15.0338 21.0266C14.8213 21.0218 14.6094 21.0118 14.3981 20.9964C14.3886 20.774 14.3871 20.5517 14.3937 20.3293C14.5856 20.3594 14.7789 20.3839 14.9734 20.403L14.9728 20.4024Z" fill="#00ABE7"/>
<path fill-rule="evenodd" clip-rule="evenodd" d="M14.0206 22.9842C14.0689 23.2919 14.1306 23.5974 14.2057 23.9007C13.876 23.9923 13.5424 24.069 13.2046 24.1309C13.1541 23.7924 13.1167 23.4512 13.0947 23.1078C13.4053 23.0796 13.714 23.0382 14.0206 22.9836V22.9842Z" fill="#00ABE7"/>
<path fill-rule="evenodd" clip-rule="evenodd" d="M15.401 22.6438C15.4812 22.8958 15.5728 23.146 15.6757 23.3943C15.4153 23.5042 15.1521 23.6033 14.8862 23.6916C14.7972 23.4136 14.7199 23.1334 14.6543 22.8509C14.9052 22.7912 15.1541 22.7222 15.401 22.6438Z" fill="#46BBC6"/>
<path fill-rule="evenodd" clip-rule="evenodd" d="M17.7295 21.6632C17.5647 21.7615 17.3998 21.8549 17.2295 21.9439C17.35 22.1205 17.4764 22.2928 17.6086 22.461C17.7837 22.3511 17.9566 22.236 18.1273 22.1159C17.9888 21.9694 17.8561 21.8183 17.7289 21.6626L17.7295 21.6632Z" fill="white"/>
<path fill-rule="evenodd" clip-rule="evenodd" d="M17.1945 20.9329C17.0399 20.9977 16.883 21.0581 16.7236 21.1142C16.8093 21.2724 16.8996 21.4288 16.9945 21.5834C17.1594 21.5102 17.322 21.4316 17.4824 21.3477C17.3817 21.2122 17.2857 21.0743 17.1945 20.934V20.9329Z" fill="white"/>
<path fill-rule="evenodd" clip-rule="evenodd" d="M16.1985 21.2776C15.9985 21.3333 15.7959 21.382 15.5908 21.4237C15.6641 21.6234 15.7428 21.8208 15.8271 22.016C16.0399 21.9523 16.2502 21.8813 16.4578 21.8029C16.367 21.6303 16.2807 21.4554 16.1991 21.2781L16.1985 21.2776Z" fill="#003980"/>
<path fill-rule="evenodd" clip-rule="evenodd" d="M15.8999 20.4102C15.7325 20.42 15.5644 20.4248 15.3955 20.4244C15.4241 20.6028 15.4578 20.7805 15.4966 20.9574C15.6763 20.9426 15.856 20.9217 16.0345 20.8964C15.9845 20.7354 15.94 20.5733 15.8999 20.4107V20.4102Z" fill="#8BBB2A"/>
<path fill-rule="evenodd" clip-rule="evenodd" d="M13.8898 21.5464C13.896 21.8046 13.9118 22.0629 13.9371 22.3211C13.6506 22.3519 13.3618 22.3702 13.0706 22.3761C13.0687 22.0958 13.0766 21.8149 13.0942 21.5332C13.3609 21.5486 13.6261 21.553 13.8898 21.5464Z" fill="#8BBB2A"/>
<path fill-rule="evenodd" clip-rule="evenodd" d="M23.5967 15.1367C23.7937 15.2386 23.9881 15.3485 24.1796 15.4664C24.3027 15.258 24.4185 15.0448 24.5269 14.8269C24.3097 14.717 24.0899 14.6162 23.8676 14.5247C23.7833 14.7327 23.693 14.9367 23.5967 15.1367Z" fill="#E9D700"/>
<path fill-rule="evenodd" clip-rule="evenodd" d="M21.6398 14.406C21.8028 14.4448 21.9652 14.4888 22.1271 14.5379C22.1509 14.3591 22.1693 14.1796 22.1821 13.9994C22.0052 13.9615 21.8277 13.9296 21.6491 13.9016C21.6491 14.0701 21.6456 14.2382 21.6387 14.406H21.6398Z" fill="#8BBB2A"/>
<path fill-rule="evenodd" clip-rule="evenodd" d="M22.6465 14.7129C22.841 14.7862 23.0333 14.8666 23.2234 14.9541C23.2813 14.749 23.3337 14.543 23.3805 14.336C23.171 14.2627 22.9595 14.1961 22.7459 14.136C22.7174 14.329 22.6842 14.5213 22.6465 14.7129Z" fill="#00ABE7"/>
<path fill-rule="evenodd" clip-rule="evenodd" d="M25.3887 14.5532C25.6678 14.6898 25.9412 14.8385 26.209 14.9993C26.3921 14.7085 26.563 14.4112 26.7216 14.1076C26.4134 13.9603 26.0991 13.8241 25.7777 13.7026C25.6597 13.992 25.5301 14.2755 25.3887 14.5532Z" fill="#003980"/>
<path fill-rule="evenodd" clip-rule="evenodd" d="M24.6602 15.7782C24.877 15.9295 25.0891 16.0901 25.2964 16.26C25.4763 16.0403 25.6479 15.817 25.8113 15.5903C25.5724 15.4236 25.3277 15.2674 25.0772 15.1216C24.9461 15.345 24.807 15.5637 24.6602 15.7776V15.7782Z" fill="#8BBB2A"/>
<path fill-rule="evenodd" clip-rule="evenodd" d="M24.0527 14.0084C24.2974 14.0904 24.5392 14.1811 24.778 14.2803C24.8912 14.014 24.9938 13.7426 25.0857 13.4661C24.8187 13.3825 24.5483 13.308 24.2747 13.2424C24.2106 13.5025 24.1373 13.7578 24.0549 14.0084H24.0527Z" fill="#46BBC6"/>
<path fill-rule="evenodd" clip-rule="evenodd" d="M13.0829 18.654C12.9862 18.854 12.8964 19.0584 12.8136 19.2672C12.5902 19.1745 12.3704 19.0738 12.1543 18.965C12.2642 18.7471 12.3801 18.5339 12.5021 18.3254C12.6933 18.4427 12.8876 18.5525 13.0851 18.6551L13.0829 18.654Z" fill="#46BBC6"/>
<path fill-rule="evenodd" clip-rule="evenodd" d="M14.2112 16.8891C14.1039 17.0184 14.0004 17.1514 13.9008 17.288C13.7748 17.1591 13.6523 17.0269 13.5332 16.8913C13.6519 16.7551 13.7744 16.6221 13.9008 16.4924C14.0001 16.6283 14.1035 16.7606 14.2112 16.8891Z" fill="#8BBB2A"/>
<path fill-rule="evenodd" clip-rule="evenodd" d="M13.5899 17.7417C13.48 17.9168 13.3743 18.0969 13.2728 18.2818C13.1036 18.1522 12.9388 18.019 12.7783 17.8824C12.9018 17.697 13.0311 17.5163 13.1662 17.3401C13.304 17.4775 13.4457 17.6113 13.5915 17.7417H13.5899Z" fill="#E9D700"/>
<path fill-rule="evenodd" clip-rule="evenodd" d="M11.3023 19.2673C11.1605 19.5446 11.0306 19.8281 10.9127 20.1178C10.5915 19.9958 10.2768 19.8608 9.96875 19.7129C10.1266 19.4096 10.2975 19.1121 10.4814 18.8206C10.7492 18.981 11.0228 19.1297 11.3023 19.2667V19.2673Z" fill="#46BBC6"/>
<path fill-rule="evenodd" clip-rule="evenodd" d="M12.6179 19.8053C12.5351 20.0562 12.4619 20.3126 12.3982 20.5745C12.1242 20.5086 11.8531 20.4333 11.585 20.3487C11.6765 20.0714 11.7787 19.7993 11.8916 19.5322C12.1307 19.6315 12.3729 19.7231 12.6179 19.807V19.8053Z" fill="#E9D700"/>
<path fill-rule="evenodd" clip-rule="evenodd" d="M15.0716 19.4817C14.9086 19.4429 14.7461 19.3989 14.5842 19.3499C14.5608 19.5286 14.5425 19.7081 14.5293 19.8883C14.7059 19.9249 14.8835 19.9574 15.0623 19.9856C15.0623 19.8169 15.0623 19.6488 15.0727 19.4812L15.0716 19.4817Z" fill="white"/>
<path fill-rule="evenodd" clip-rule="evenodd" d="M13.91 20.2142C13.681 20.1669 13.4538 20.112 13.2281 20.0493C13.1827 20.2944 13.1444 20.5398 13.1133 20.7856C13.3613 20.831 13.6109 20.8687 13.8622 20.8988C13.8704 20.6696 13.8869 20.4411 13.9094 20.213L13.91 20.2142Z" fill="white"/>
<path fill-rule="evenodd" clip-rule="evenodd" d="M14.0661 19.176C13.8716 19.1028 13.6793 19.0224 13.4892 18.9348C13.4317 19.1399 13.3793 19.346 13.332 19.5529C13.5416 19.6262 13.7533 19.6929 13.9672 19.7529C13.9954 19.5603 14.0286 19.368 14.0666 19.176H14.0661Z" fill="#8BBB2A"/>
<path fill-rule="evenodd" clip-rule="evenodd" d="M14.3338 18.2943C14.192 18.2035 14.0534 18.1081 13.9178 18.0081C13.836 18.169 13.7585 18.3322 13.6865 18.4982C13.8404 18.5923 13.9971 18.6819 14.1569 18.7668C14.2107 18.6071 14.2697 18.4496 14.3338 18.2943Z" fill="#003980"/>
<path fill-rule="evenodd" clip-rule="evenodd" d="M12.0417 18.0248C11.8952 18.2377 11.7562 18.4554 11.6247 18.6781C11.3745 18.5338 11.1298 18.3785 10.8906 18.2122C11.054 17.9851 11.2254 17.7627 11.4049 17.5452C11.6119 17.7148 11.824 17.8745 12.0412 18.0243L12.0417 18.0248Z" fill="#00ABE7"/>
<path fill-rule="evenodd" clip-rule="evenodd" d="M23.6509 18.583C23.7502 18.7819 23.8418 18.9852 23.9257 19.1929C24.148 19.0973 24.3678 18.9937 24.585 18.8819C24.4751 18.6655 24.3564 18.4539 24.229 18.2473C24.0392 18.3664 23.8464 18.4783 23.6504 18.583H23.6509Z" fill="#003980"/>
<path fill-rule="evenodd" clip-rule="evenodd" d="M23.0322 16.1C23.1754 16.2267 23.3152 16.3571 23.4515 16.4912C23.5822 16.3223 23.7075 16.1491 23.8273 15.9714C23.6694 15.8377 23.5075 15.7077 23.3416 15.5813C23.2441 15.7586 23.1412 15.9315 23.0328 16.1H23.0322Z" fill="white"/>
<path fill-rule="evenodd" clip-rule="evenodd" d="M22.4997 16.8349C22.6096 16.9628 22.7147 17.0943 22.8151 17.2294C22.9393 17.0987 23.0607 16.9652 23.1766 16.8278C23.0561 16.693 22.9317 16.5617 22.8035 16.4338C22.7057 16.5712 22.6039 16.7049 22.498 16.8349H22.4997Z" fill="#46BBC6"/>
<path fill-rule="evenodd" clip-rule="evenodd" d="M23.8721 16.9274C24.0292 17.1007 24.1807 17.2791 24.3265 17.4626C24.507 17.2919 24.6823 17.1165 24.8523 16.9362C24.6787 16.7531 24.4992 16.5749 24.3138 16.4016C24.1721 16.5815 24.0255 16.7567 23.8743 16.9274H23.8721Z" fill="#E9D700"/>
<path fill-rule="evenodd" clip-rule="evenodd" d="M23.1318 17.6779C23.2454 17.8515 23.3534 18.0301 23.456 18.2136C23.6234 18.0821 23.787 17.9468 23.9467 17.8076C23.821 17.6244 23.6893 17.4455 23.5516 17.2708C23.4157 17.4099 23.2758 17.5457 23.1318 17.6779Z" fill="#003980"/>
<path fill-rule="evenodd" clip-rule="evenodd" d="M25.4395 19.1722C25.586 19.4477 25.7193 19.7294 25.8395 20.0173C26.1592 19.8913 26.4722 19.7523 26.7785 19.6003C26.6166 19.2992 26.4418 19.0041 26.2543 18.7151C25.9884 18.8788 25.7167 19.0312 25.4395 19.1722Z" fill="#00ABE7"/>
<path fill-rule="evenodd" clip-rule="evenodd" d="M22.3398 15.6246C22.4849 15.7086 22.6289 15.7971 22.769 15.89C22.8422 15.7251 22.9113 15.5583 22.9761 15.3894C22.8175 15.3026 22.6565 15.2207 22.4931 15.1438C22.4477 15.3061 22.3966 15.4663 22.3398 15.6246Z" fill="#8BBB2A"/>
<path fill-rule="evenodd" clip-rule="evenodd" d="M24.1338 19.7296C24.2202 19.9798 24.297 20.2349 24.364 20.495C24.6373 20.425 24.9072 20.3461 25.1739 20.2582C25.079 19.982 24.9734 19.7111 24.8569 19.4456C24.618 19.5489 24.377 19.6435 24.1338 19.7296Z" fill="#46BBC6"/>
<path fill-rule="evenodd" clip-rule="evenodd" d="M24.6841 17.9426C24.8336 18.1535 24.9753 18.3697 25.1094 18.5909C25.3578 18.4444 25.6003 18.286 25.8369 18.1156C25.671 17.8904 25.4966 17.6706 25.3138 17.4563C25.1091 17.6285 24.899 17.7909 24.6836 17.9437L24.6841 17.9426Z" fill="#46BBC6"/>
<path fill-rule="evenodd" clip-rule="evenodd" d="M13.0923 15.2054C12.8967 15.3098 12.7038 15.4217 12.5137 15.5411C12.3877 15.3345 12.2692 15.1228 12.1582 14.906C12.374 14.7942 12.5937 14.6906 12.8175 14.595C12.9029 14.8027 12.9945 15.006 13.0923 15.2049V15.2054Z" fill="#00ABE7"/>
<path fill-rule="evenodd" clip-rule="evenodd" d="M11.2931 14.6479C11.0155 14.7885 10.7438 14.9409 10.4783 15.105C10.2904 14.8167 10.1156 14.5217 9.9541 14.2198C10.26 14.0682 10.573 13.929 10.8931 13.8022C11.0151 14.0902 11.1486 14.372 11.2937 14.6479H11.2931Z" fill="#46BBC6"/>
<path fill-rule="evenodd" clip-rule="evenodd" d="M12.0381 15.8613C11.8234 16.0151 11.6135 16.1785 11.4084 16.3514C11.2252 16.1353 11.0507 15.9142 10.8848 15.6882C11.1218 15.5175 11.3644 15.3582 11.6128 15.2102C11.7469 15.4318 11.8886 15.6487 12.0381 15.8607V15.8613Z" fill="#8BBB2A"/>
<path fill-rule="evenodd" clip-rule="evenodd" d="M12.8406 16.9563C12.6834 16.783 12.532 16.6047 12.3862 16.4211C12.2052 16.5915 12.0299 16.7669 11.8604 16.9475C12.034 17.1307 12.2135 17.3089 12.3988 17.4821C12.5406 17.3019 12.6871 17.1266 12.8384 16.9563H12.8406Z" fill="#003980"/>
<path fill-rule="evenodd" clip-rule="evenodd" d="M13.5805 16.2059C13.4673 16.0323 13.3592 15.8537 13.2563 15.6702C13.0889 15.802 12.9253 15.9374 12.7656 16.0762C12.8909 16.2594 13.0226 16.4383 13.1607 16.613C13.2962 16.4735 13.4361 16.3378 13.5805 16.2059Z" fill="#46BBC6"/>
<path fill-rule="evenodd" clip-rule="evenodd" d="M12.6198 14.0837C12.3762 14.1691 12.1357 14.2629 11.8983 14.3651C11.7815 14.1006 11.6751 13.8306 11.5791 13.5552C11.845 13.4684 12.1144 13.3902 12.3873 13.3206C12.4551 13.5799 12.5329 13.8343 12.6198 14.0837Z" fill="#003980"/>
<path fill-rule="evenodd" clip-rule="evenodd" d="M21.6717 21.3887C21.6351 21.6085 21.5902 21.8282 21.5371 22.048C21.7726 22.1019 22.0107 22.1475 22.2514 22.1848C22.288 21.9442 22.3162 21.7031 22.336 21.4617C22.1122 21.446 21.8906 21.4225 21.6712 21.3914L21.6717 21.3887Z" fill="#8BBB2A"/>
<path fill-rule="evenodd" clip-rule="evenodd" d="M22.6314 19.0173C22.6728 19.2045 22.7094 19.3925 22.7413 19.5816C22.9457 19.5226 23.1486 19.4565 23.3501 19.3832C23.3006 19.1817 23.2457 18.9803 23.1853 18.7788C23.0021 18.8642 22.8173 18.9429 22.6309 19.0151L22.6314 19.0173Z" fill="#E9D700"/>
<path fill-rule="evenodd" clip-rule="evenodd" d="M21.7705 19.2984C21.783 19.4661 21.7907 19.6346 21.7936 19.8039C21.9705 19.772 22.1474 19.7357 22.3227 19.694C22.3048 19.5138 22.2815 19.3343 22.2529 19.1555C22.0936 19.2083 21.9328 19.2555 21.7705 19.2984Z" fill="#46BBC6"/>
<path fill-rule="evenodd" clip-rule="evenodd" d="M22.8223 20.1848C22.8472 20.4178 22.8655 20.6513 22.8772 20.8853C23.1241 20.8542 23.3688 20.8159 23.6113 20.7705C23.5787 20.52 23.5384 20.27 23.4904 20.0205C23.2706 20.0826 23.0508 20.1364 22.8245 20.1853L22.8223 20.1848Z" fill="#8BBB2A"/>
<path fill-rule="evenodd" clip-rule="evenodd" d="M21.7835 20.355C21.7732 20.5627 21.7549 20.7707 21.7285 20.9792C21.9413 20.9718 22.1531 20.959 22.3637 20.9407C22.3703 20.718 22.369 20.4957 22.3598 20.2737C22.1679 20.3059 21.975 20.3328 21.7813 20.3544L21.7835 20.355Z" fill="white"/>
<path fill-rule="evenodd" clip-rule="evenodd" d="M22.7713 22.9221C22.7266 23.2305 22.6687 23.5369 22.5977 23.8413C22.9299 23.9282 23.2645 24.0014 23.6015 24.0611C23.6477 23.7227 23.6806 23.3804 23.6982 23.0364C23.3872 23.0119 23.0782 22.9752 22.7713 22.9265V22.9221Z" fill="#8BBB2A"/>
<path fill-rule="evenodd" clip-rule="evenodd" d="M22.3516 18.2261C22.4197 18.3799 22.4834 18.5363 22.5428 18.6953C22.6988 18.6059 22.8527 18.5122 23.0043 18.414C22.927 18.2503 22.845 18.0889 22.7582 17.9299C22.6256 18.0336 22.49 18.133 22.3516 18.2283V18.2261Z" fill="white"/>
<path fill-rule="evenodd" clip-rule="evenodd" d="M21.3858 22.5989C21.3085 22.8516 21.2206 23.1031 21.1221 23.3533C21.384 23.458 21.6483 23.5538 21.9149 23.6406C22.0003 23.3619 22.0735 23.0807 22.1347 22.7972C21.8831 22.7401 21.6334 22.674 21.3858 22.5989Z" fill="#46BBC6"/>
<path fill-rule="evenodd" clip-rule="evenodd" d="M19.0447 21.6467C19.2102 21.7431 19.378 21.8346 19.548 21.9215C19.4296 22.0991 19.3055 22.2731 19.1754 22.4434C18.9989 22.3335 18.8245 22.2209 18.6523 22.1055C18.789 21.9564 18.9199 21.8037 19.0452 21.6473L19.0447 21.6467Z" fill="#E9D700"/>
<path fill-rule="evenodd" clip-rule="evenodd" d="M19.5706 20.91C19.7267 20.973 19.8844 21.0312 20.0437 21.0847C19.9602 21.2444 19.8717 21.4017 19.7783 21.5567C19.6124 21.4834 19.4486 21.4069 19.2871 21.327C19.3864 21.1907 19.4807 21.0515 19.5701 20.9094L19.5706 20.91Z" fill="white"/>
<path fill-rule="evenodd" clip-rule="evenodd" d="M20.0957 22.1838C20.3093 22.278 20.5261 22.3653 20.7463 22.4459C20.6419 22.6719 20.532 22.8941 20.4166 23.1124C20.1884 23.0055 19.9629 22.8913 19.7402 22.7701C19.864 22.5774 19.9825 22.382 20.0957 22.1838Z" fill="white"/>
<path fill-rule="evenodd" clip-rule="evenodd" d="M20.5701 21.2432C20.7709 21.2963 20.9742 21.3422 21.18 21.3811C21.109 21.5818 21.0326 21.7803 20.9509 21.9767C20.7377 21.9155 20.5265 21.847 20.3174 21.7712C20.406 21.5976 20.4901 21.4216 20.5696 21.2432H20.5701Z" fill="#8BBB2A"/>
<path fill-rule="evenodd" clip-rule="evenodd" d="M18.3749 21.1426C18.5002 21.2525 18.6284 21.3603 18.7595 21.4662C18.6273 21.5886 18.4916 21.7072 18.3524 21.8222C18.2198 21.6988 18.0916 21.5717 17.9678 21.4409C18.1068 21.3459 18.2425 21.2459 18.3738 21.1426H18.3749Z" fill="#003980"/>
<path fill-rule="evenodd" clip-rule="evenodd" d="M20.859 20.373C21.0264 20.3803 21.1946 20.3829 21.3634 20.3807C21.3371 20.5592 21.3085 20.7373 21.2695 20.9136C21.0893 20.9016 20.9096 20.8829 20.7305 20.8587C20.7788 20.6972 20.8206 20.5345 20.8579 20.3713L20.859 20.373Z" fill="white"/>
<path fill-rule="evenodd" clip-rule="evenodd" d="M22.8835 21.4822C22.8802 21.7408 22.8679 21.9992 22.8467 22.2575C23.1339 22.2849 23.4231 22.3001 23.7143 22.3031C23.7121 22.0232 23.7005 21.7423 23.6797 21.4602C23.4126 21.4782 23.1472 21.4853 22.8835 21.4816V21.4822Z" fill="#003980"/>
<path fill-rule="evenodd" clip-rule="evenodd" d="M15.1258 12.4245C14.906 12.393 14.6844 12.3696 14.4609 12.3542C14.4811 12.1124 14.5093 11.8714 14.5456 11.6311C14.7855 11.6677 15.0236 11.7133 15.2598 11.7679C15.2071 11.9877 15.1622 12.2064 15.1252 12.424L15.1258 12.4245Z" fill="#E9D700"/>
<path fill-rule="evenodd" clip-rule="evenodd" d="M17.6713 12.2235C17.5061 12.1275 17.3383 12.0359 17.168 11.9487C17.2859 11.7707 17.4101 11.5967 17.5405 11.4268C17.7174 11.5366 17.892 11.6493 18.0641 11.7647C17.9275 11.9138 17.7965 12.0665 17.6713 12.2229V12.2235Z" fill="#E9D700"/>
<path fill-rule="evenodd" clip-rule="evenodd" d="M17.1455 12.962C16.9895 12.899 16.8316 12.8405 16.6719 12.7867C16.7558 12.627 16.8442 12.4696 16.9373 12.3147C17.1032 12.388 17.2669 12.4647 17.4285 12.5449C17.3292 12.6812 17.2345 12.8202 17.1455 12.962Z" fill="white"/>
<path fill-rule="evenodd" clip-rule="evenodd" d="M16.6193 11.6905C16.4054 11.596 16.1885 11.5087 15.9688 11.4284C16.0728 11.2024 16.1827 10.9803 16.2984 10.762C16.5266 10.8689 16.7521 10.983 16.9748 11.1043C16.8506 11.2955 16.7321 11.4909 16.6193 11.6905Z" fill="#00ABE7"/>
<path fill-rule="evenodd" clip-rule="evenodd" d="M16.1445 12.6295C15.9438 12.5764 15.7407 12.5304 15.5352 12.4916C15.6059 12.2905 15.682 12.092 15.7637 11.896C15.9773 11.9568 16.1885 12.0253 16.3972 12.1015C16.3086 12.2747 16.2245 12.4508 16.145 12.6295H16.1445Z" fill="#8BBB2A"/>
<path fill-rule="evenodd" clip-rule="evenodd" d="M14.0011 10.9103C13.6945 10.8597 13.3856 10.8231 13.0742 10.8004C13.0918 10.4564 13.124 10.1148 13.1709 9.77563C13.5072 9.83388 13.8418 9.90713 14.1748 9.99541C14.1037 10.3002 14.0458 10.6068 14.0011 10.9152V10.9103Z" fill="#8BBB2A"/>
<path fill-rule="evenodd" clip-rule="evenodd" d="M18.3405 12.7307C18.2148 12.6208 18.0857 12.5129 17.9531 12.4071C18.0854 12.2844 18.2213 12.1657 18.3608 12.051C18.4934 12.1745 18.6216 12.3016 18.7454 12.4323C18.6066 12.5279 18.4714 12.6274 18.3399 12.7307H18.3405Z" fill="#8BBB2A"/>
<path fill-rule="evenodd" clip-rule="evenodd" d="M13.8898 12.3299C13.6261 12.327 13.3603 12.3349 13.0925 12.3535C13.072 12.0719 13.061 11.7904 13.0596 11.509C13.3526 11.5116 13.6424 11.5259 13.9288 11.5519C13.9068 11.8105 13.894 12.0695 13.8903 12.3288L13.8898 12.3299Z" fill="white"/>
<path fill-rule="evenodd" clip-rule="evenodd" d="M14.0864 14.8529C14.045 14.6657 14.0084 14.4776 13.9765 14.2886C13.7714 14.3479 13.5683 14.414 13.3672 14.4869C13.4166 14.6884 13.4716 14.8899 13.532 15.0913C13.7152 15.006 13.9 14.9272 14.0864 14.8551V14.8529Z" fill="#E9D700"/>
<path fill-rule="evenodd" clip-rule="evenodd" d="M14.9473 14.5745C14.9345 14.4071 14.9266 14.2388 14.9237 14.0696C14.7464 14.1014 14.57 14.1381 14.3945 14.1795C14.4127 14.3597 14.4368 14.5394 14.4643 14.7179C14.624 14.6648 14.7848 14.617 14.9467 14.5745H14.9473Z" fill="#8BBB2A"/>
<path fill-rule="evenodd" clip-rule="evenodd" d="M13.8945 13.6894C13.8692 13.456 13.8509 13.2223 13.8395 12.9883C13.593 13.0198 13.3483 13.0581 13.1055 13.1031C13.1381 13.3537 13.1784 13.6037 13.2263 13.8531C13.4461 13.791 13.6659 13.7372 13.8923 13.6883L13.8945 13.6894Z" fill="#8BBB2A"/>
<path fill-rule="evenodd" clip-rule="evenodd" d="M14.9298 13.5209C14.9397 13.3132 14.958 13.1052 14.9847 12.8967C14.7719 12.9037 14.5602 12.9163 14.3496 12.9346C14.3433 13.1574 14.3446 13.3797 14.3534 13.6017C14.545 13.5694 14.7371 13.5425 14.9298 13.5209Z" fill="#46BBC6"/>
<path fill-rule="evenodd" clip-rule="evenodd" d="M14.3637 15.6472C14.2959 15.4934 14.2322 15.337 14.1725 15.178C14.0164 15.2677 13.8626 15.3615 13.7109 15.4593C13.7879 15.623 13.8697 15.7844 13.9565 15.9434C14.0891 15.8397 14.2247 15.7402 14.3631 15.645L14.3637 15.6472Z" fill="white"/>
<path fill-rule="evenodd" clip-rule="evenodd" d="M15.8482 13.5098C15.8914 13.3476 15.9398 13.1862 15.9933 13.0258C15.8156 12.9965 15.637 12.9727 15.4575 12.9543C15.4152 13.1302 15.3779 13.3076 15.3477 13.4851C15.5158 13.4879 15.6834 13.4972 15.8504 13.5098H15.8482Z" fill="#003980"/>
<path fill-rule="evenodd" clip-rule="evenodd" d="M15.4056 11.2368C15.1587 11.1635 14.9092 11.0972 14.6572 11.0379C14.718 10.7551 14.7913 10.4743 14.877 10.1956C15.1429 10.282 15.4065 10.3778 15.6677 10.4829C15.5699 10.7324 15.4829 10.9835 15.4067 11.2362L15.4056 11.2368Z" fill="#46BBC6"/>
<path fill-rule="evenodd" clip-rule="evenodd" d="M0.261719 33.8603V31.268H0.60458V32.5532L1.88864 31.268H2.35238L1.26777 32.318L2.40018 33.8603H1.94854L1.02655 32.5493L0.602929 32.9631V33.8614L0.261719 33.8603ZM46.9689 33.8603L47.9623 31.268H48.331L49.3897 33.8603H48.9996L48.698 33.0752H47.6167L47.3331 33.8603H46.9689ZM47.715 32.7955H48.5941L48.3238 32.0774C48.2418 31.8576 48.1808 31.6783 48.1408 31.5395C48.1072 31.7077 48.0605 31.873 48.0013 32.034L47.715 32.7955ZM46.3079 33.8603V31.268H46.6502V33.8603H46.3079ZM43.8249 33.8603V31.268H44.7958C44.9578 31.2618 45.1195 31.2883 45.2711 31.346C45.3874 31.396 45.4853 31.4808 45.5513 31.5889C45.6169 31.6911 45.6522 31.8098 45.6529 31.9312C45.6531 32.0418 45.6218 32.1503 45.5628 32.2439C45.4968 32.3472 45.4026 32.4295 45.2914 32.4812C45.4344 32.5177 45.5614 32.6001 45.6529 32.7158C45.7385 32.8287 45.7836 32.9671 45.781 33.1087C45.7818 33.2259 45.7554 33.3418 45.704 33.4471C45.6605 33.5414 45.5954 33.624 45.5139 33.6884C45.429 33.7493 45.3328 33.7928 45.231 33.8164C45.0942 33.8478 44.9542 33.8622 44.8139 33.8592L43.8249 33.8603ZM44.1672 32.3576H44.7266C44.8362 32.3619 44.9459 32.3517 45.0529 32.3274C45.1309 32.3074 45.1999 32.2619 45.2491 32.1982C45.2951 32.132 45.3185 32.0525 45.3156 31.9719C45.3171 31.8919 45.2958 31.8132 45.254 31.7449C45.2135 31.6802 45.1508 31.6323 45.0776 31.6103C44.9485 31.5806 44.8161 31.5684 44.6837 31.5741H44.1672V32.3576ZM44.1672 33.5548H44.8106C44.8888 33.5569 44.9671 33.5529 45.0447 33.5428C45.1145 33.5316 45.1817 33.5074 45.2425 33.4713C45.2979 33.4358 45.343 33.3864 45.3733 33.3279C45.4085 33.2601 45.426 33.1845 45.4244 33.1081C45.4263 33.0184 45.4004 32.9303 45.3502 32.8559C45.3003 32.7841 45.2277 32.7311 45.1441 32.7054C45.0209 32.6726 44.8935 32.6581 44.7661 32.6625H44.1683V33.5532L44.1672 33.5548ZM41.1452 33.8609L42.1392 31.2686H42.5079L43.5667 33.8609H43.1766L42.8749 33.0757H41.7958L41.5123 33.8609H41.1452ZM41.8914 32.796H42.7705L42.5002 32.0779C42.4181 31.86 42.3571 31.6807 42.3172 31.54C42.2836 31.7082 42.2369 31.8735 42.1777 32.0345L41.8914 32.796ZM38.826 33.8609V31.2686H39.9727C40.1507 31.2609 40.3287 31.2845 40.4985 31.3384C40.6195 31.3857 40.7209 31.4724 40.7864 31.5845C40.8575 31.7025 40.8942 31.838 40.8925 31.9757C40.8948 32.0611 40.8803 32.1461 40.8497 32.2259C40.8192 32.3056 40.7732 32.3786 40.7145 32.4406C40.5642 32.5812 40.3703 32.6662 40.165 32.6812C40.2396 32.7143 40.3092 32.7578 40.3716 32.8103C40.4801 32.913 40.5755 33.0288 40.6557 33.1548L41.1057 33.8603H40.6755L40.3332 33.3208C40.2332 33.1658 40.1507 33.046 40.0859 32.9642C40.0379 32.8976 39.9794 32.8391 39.9128 32.7911C39.865 32.7595 39.8123 32.7361 39.7568 32.7219C39.6935 32.7122 39.6295 32.7082 39.5656 32.7098H39.1689V33.8609H38.826ZM39.1683 32.4131H39.904C40.0283 32.4178 40.1524 32.4013 40.2711 32.3642C40.3536 32.3363 40.4244 32.2816 40.4722 32.2087C40.5173 32.1396 40.5412 32.0588 40.5408 31.9763C40.5425 31.9192 40.5314 31.8624 40.5084 31.8102C40.4854 31.7579 40.4511 31.7114 40.4079 31.6741C40.2867 31.5847 40.1371 31.5425 39.987 31.5554H39.1678L39.1683 32.4131ZM36.1277 33.8609L37.1211 31.2686H37.4897L38.5485 33.8609H38.1579L37.8562 33.0757H36.7749L36.4914 33.8609H36.1277ZM36.8738 32.796H37.7529L37.4826 32.0779C37.4006 31.86 37.3396 31.6807 37.2996 31.54C37.266 31.7082 37.2193 31.8735 37.1601 32.0345L36.8738 32.796ZM34.6623 33.8609V31.2686H35.0046V33.8609H34.6623ZM31.9947 33.8609V31.2686H32.8853C33.0397 31.2645 33.1941 31.277 33.3458 31.3059C33.4854 31.3358 33.6156 31.3993 33.7249 31.4911C33.8634 31.6099 33.9688 31.7624 34.031 31.934C34.1018 32.1316 34.1362 32.3405 34.1326 32.5504C34.1354 32.7273 34.112 32.9035 34.0634 33.0735C34.0261 33.2085 33.9665 33.3363 33.887 33.4515C33.8232 33.5433 33.7434 33.6228 33.6513 33.6862C33.5571 33.7475 33.4527 33.7916 33.343 33.8164C33.2068 33.8475 33.0674 33.8622 32.9277 33.8603L31.9947 33.8609ZM32.337 33.5548H32.8897C33.0253 33.5595 33.1607 33.5434 33.2914 33.507C33.3782 33.481 33.4576 33.4349 33.5233 33.3724C33.6116 33.2791 33.6766 33.1661 33.7128 33.0427C33.7617 32.8807 33.7847 32.712 33.781 32.5427C33.7933 32.3263 33.7472 32.1105 33.6474 31.918C33.5754 31.787 33.4614 31.6838 33.3238 31.6252C33.1804 31.5819 33.0306 31.5633 32.881 31.5702H32.337V33.5482V33.5548ZM31.0826 31.268H31.4249V32.7664C31.4326 32.977 31.4026 33.1872 31.3364 33.3873C31.2747 33.5439 31.1623 33.6754 31.0172 33.7609C30.8334 33.8649 30.6238 33.9148 30.4128 33.9048C30.2069 33.9134 30.0022 33.8703 29.8172 33.7796C29.668 33.7013 29.5512 33.5729 29.4875 33.4169C29.4133 33.2088 29.3798 32.9883 29.3886 32.7675V31.2691H29.731V32.7653C29.723 32.9334 29.7441 33.1016 29.7936 33.2625C29.834 33.3675 29.91 33.4548 30.0084 33.5092C30.1232 33.5705 30.252 33.6006 30.3821 33.5966C30.4788 33.6061 30.5764 33.5957 30.669 33.5661C30.7616 33.5366 30.8472 33.4884 30.9205 33.4246C31.0499 33.2306 31.1065 32.997 31.0804 32.7653V31.2691L31.0826 31.268ZM26.6914 33.8603L27.6848 31.268H28.0535L29.1123 33.8603H28.7222L28.4205 33.0752H27.3392L27.0557 33.8603H26.6914ZM27.4375 32.7955H28.3167L28.0463 32.0774C27.9645 31.8576 27.9029 31.6801 27.8634 31.5395C27.8297 31.7077 27.7831 31.873 27.7238 32.034L27.4375 32.7955ZM24.4496 33.0268L24.7722 32.9988C24.7815 33.1123 24.8179 33.222 24.8782 33.3186C24.9439 33.4094 25.0343 33.4794 25.1386 33.5202C25.2642 33.5727 25.3993 33.5987 25.5353 33.5966C25.6532 33.5987 25.7703 33.5789 25.881 33.5384C25.9692 33.5078 26.0467 33.4522 26.104 33.3785C26.1511 33.3148 26.1767 33.2378 26.1771 33.1587C26.1788 33.0816 26.1538 33.0062 26.1062 32.9455C26.0441 32.8743 25.9638 32.8215 25.8738 32.7927C25.7225 32.7425 25.5686 32.7004 25.4128 32.6664C25.241 32.6311 25.0736 32.5768 24.9139 32.5043C24.8026 32.4494 24.7078 32.366 24.6392 32.2625C24.5788 32.1657 24.5475 32.0536 24.5491 31.9395C24.5487 31.8091 24.5869 31.6816 24.659 31.573C24.7381 31.4553 24.8514 31.3647 24.9837 31.3136C25.1345 31.2535 25.2956 31.2237 25.4579 31.2257C25.6316 31.2222 25.8043 31.2538 25.9656 31.3186C26.1036 31.3736 26.2215 31.4694 26.3035 31.5933C26.3828 31.715 26.4269 31.8563 26.431 32.0015L26.1013 32.0263C26.0974 31.9555 26.0796 31.8863 26.0487 31.8225C26.0179 31.7588 25.9747 31.7018 25.9216 31.6548C25.7904 31.5623 25.6312 31.518 25.4711 31.5296C25.3117 31.5165 25.1524 31.5567 25.0183 31.6438C24.9747 31.6753 24.9391 31.7165 24.9144 31.7642C24.8897 31.812 24.8765 31.8648 24.876 31.9186C24.8748 31.962 24.8831 32.0051 24.9005 32.0449C24.9179 32.0847 24.9439 32.1202 24.9766 32.1488C25.1341 32.2451 25.3097 32.3081 25.4925 32.334C25.6877 32.3722 25.8793 32.4274 26.065 32.4988C26.1983 32.5547 26.3136 32.6461 26.3985 32.7631C26.4706 32.8723 26.5078 33.0009 26.5051 33.1318C26.5049 33.2706 26.4638 33.4063 26.387 33.5219C26.3035 33.6476 26.1853 33.7464 26.0469 33.8065C25.8903 33.8761 25.7204 33.9108 25.5491 33.9081C25.348 33.9145 25.1478 33.8798 24.9606 33.8059C24.8083 33.7426 24.6786 33.635 24.5881 33.4971C24.4978 33.3584 24.4488 33.1968 24.4469 33.0312L24.4496 33.0268ZM21.3727 33.8598V31.2675H23.1145V31.5735H21.7112V32.3763H22.9244V32.6823H21.7112V33.8598H21.3727ZM18.4408 32.596C18.419 32.2269 18.5431 31.864 18.7864 31.5856C18.901 31.4651 19.0398 31.3702 19.1937 31.3072C19.3476 31.2442 19.5131 31.2146 19.6793 31.2202C19.906 31.217 20.1293 31.2759 20.3249 31.3905C20.5155 31.5033 20.6685 31.6701 20.7645 31.8697C20.8678 32.0868 20.9193 32.3249 20.915 32.5653C20.9195 32.8099 20.8652 33.052 20.7568 33.2713C20.6586 33.4708 20.5015 33.6354 20.3068 33.7428C20.1146 33.849 19.8983 33.904 19.6788 33.9026C19.4488 33.9065 19.2225 33.8452 19.026 33.7257C18.8368 33.6106 18.6854 33.4428 18.5903 33.2427C18.4917 33.0413 18.4408 32.8198 18.4414 32.5955L18.4408 32.596ZM18.7936 32.6015C18.7783 32.871 18.8684 33.1357 19.0447 33.34C19.1245 33.4232 19.2199 33.4898 19.3255 33.5361C19.4311 33.5823 19.5448 33.6072 19.6601 33.6094C19.7754 33.6116 19.8899 33.591 19.9972 33.5489C20.1045 33.5067 20.2024 33.4437 20.2854 33.3636L20.3117 33.3373C20.4902 33.1207 20.5796 32.8443 20.5617 32.5642C20.5661 32.3745 20.53 32.186 20.4557 32.0114C20.3904 31.8609 20.2818 31.7333 20.1436 31.645C20.0056 31.5584 19.8455 31.5134 19.6826 31.5153C19.5669 31.5134 19.452 31.5347 19.3445 31.5777C19.2371 31.6207 19.1393 31.6846 19.0568 31.7658C18.9592 31.8803 18.8857 32.0132 18.8407 32.1567C18.7957 32.3002 18.78 32.4513 18.7947 32.601L18.7936 32.6015ZM14.5194 33.8592V31.2669H15.0348L15.6463 33.1026C15.7013 33.273 15.7447 33.401 15.77 33.4873C15.7996 33.3931 15.8456 33.2545 15.9079 33.0713L16.5271 31.2675H16.9881V33.8598H16.6584V31.69L15.9068 33.8598H15.598L14.8502 31.6532V33.8598L14.5194 33.8592ZM11.6156 32.5955C11.5939 32.2264 11.718 31.8636 11.9612 31.5851C12.0757 31.4645 12.2145 31.3696 12.3684 31.3066C12.5223 31.2436 12.6878 31.214 12.854 31.2197C13.0807 31.2165 13.304 31.2754 13.4996 31.39C13.6901 31.503 13.843 31.6696 13.9392 31.8691C14.0425 32.086 14.094 32.324 14.0897 32.5642C14.0943 32.8088 14.04 33.0509 13.9315 33.2702C13.8332 33.4697 13.6761 33.6342 13.4815 33.7417C13.2893 33.8477 13.073 33.9028 12.8535 33.9015C12.6236 33.9054 12.3972 33.8441 12.2007 33.7246C12.0115 33.6096 11.8601 33.4417 11.765 33.2417C11.6665 33.0401 11.6155 32.8187 11.6161 32.5944L11.6156 32.5955ZM11.9683 32.601C11.9529 32.8704 12.043 33.1353 12.2194 33.3395C12.2992 33.4227 12.3946 33.4894 12.5002 33.5357C12.6058 33.5819 12.7195 33.6069 12.8347 33.6092C12.95 33.6114 13.0646 33.5909 13.1719 33.5487C13.2792 33.5066 13.3771 33.4437 13.4601 33.3636L13.4864 33.3373C13.6648 33.1206 13.7542 32.8443 13.7364 32.5642C13.7405 32.3746 13.7042 32.1864 13.6299 32.012C13.5646 31.8615 13.4559 31.7339 13.3178 31.6455C13.1797 31.5589 13.0197 31.5139 12.8568 31.5158C12.7411 31.514 12.6261 31.5352 12.5187 31.5782C12.4112 31.6212 12.3134 31.6852 12.2309 31.7664C12.1334 31.8808 12.0599 32.0138 12.0148 32.1573C11.9698 32.3008 11.9542 32.4519 11.9689 32.6015L11.9683 32.601ZM9.11117 33.8587V31.2664H10.0018C10.1564 31.2623 10.3109 31.2748 10.4628 31.3037C10.6024 31.3336 10.7326 31.3972 10.8419 31.4889C10.9804 31.6077 11.0859 31.7602 11.148 31.9318C11.2188 32.1294 11.2532 32.3383 11.2496 32.5482C11.2524 32.7251 11.2291 32.9013 11.1804 33.0713C11.1431 33.2063 11.0835 33.3341 11.004 33.4493C10.9404 33.5412 10.8605 33.6207 10.7683 33.684C10.6741 33.7453 10.5697 33.7894 10.4601 33.8142C10.3239 33.8453 10.1844 33.86 10.0447 33.8581L9.11117 33.8587ZM9.45348 33.5526H10.0062C10.1418 33.5573 10.2772 33.5411 10.4079 33.5048C10.4947 33.4788 10.5741 33.4327 10.6397 33.3702C10.7281 33.2769 10.7931 33.1639 10.8293 33.0406C10.8783 32.8785 10.9013 32.7098 10.8974 32.5406C10.9099 32.3242 10.864 32.1084 10.7645 31.9158C10.6922 31.7847 10.5781 31.6815 10.4403 31.623C10.2968 31.5797 10.1471 31.5611 9.99743 31.568H9.45348V33.546V33.5526ZM7.51117 32.8417V32.5384H8.60622V33.4999C8.44971 33.6276 8.27414 33.7299 8.0859 33.8032C7.91043 33.8701 7.72425 33.9046 7.53645 33.9048C7.29564 33.9076 7.05785 33.851 6.84413 33.74C6.64155 33.6359 6.47697 33.4705 6.37381 33.2675C6.26596 33.053 6.21148 32.8157 6.21502 32.5757C6.21328 32.3314 6.2674 32.0899 6.37326 31.8697C6.46742 31.662 6.62676 31.4907 6.82711 31.3818C7.03797 31.2727 7.27274 31.2182 7.51007 31.223C7.68343 31.2203 7.85567 31.2512 8.01722 31.3142C8.15614 31.3655 8.27886 31.4529 8.37271 31.5675C8.46703 31.6937 8.53402 31.8381 8.56941 31.9917L8.26062 32.0768C8.23117 31.9653 8.18225 31.8598 8.11611 31.7653C8.05069 31.6844 7.96526 31.6221 7.86831 31.5845C7.7555 31.5378 7.63437 31.5144 7.51227 31.5158C7.37367 31.5127 7.23585 31.5372 7.10678 31.5878C7.00233 31.6294 6.90848 31.6938 6.83205 31.7763C6.76301 31.8517 6.70727 31.9382 6.66722 32.0323C6.60024 32.1979 6.56663 32.3751 6.56831 32.5537C6.56153 32.7539 6.6024 32.9527 6.68755 33.134C6.76193 33.2843 6.88378 33.406 7.03425 33.4801C7.18406 33.5555 7.34952 33.5944 7.51721 33.5939C7.66615 33.5938 7.81363 33.5645 7.95128 33.5076C8.06787 33.4653 8.17638 33.4034 8.27216 33.3246V32.8417H7.51117ZM3.6881 33.8587V31.2664H4.03919L5.39799 33.2993V31.2664H5.72765V33.8587H5.37656L4.01776 31.8213V33.8587H3.6881ZM2.74634 33.8587V31.2664H3.08864V33.8587H2.74634Z" fill="white"/>
<path fill-rule="evenodd" clip-rule="evenodd" d="M18.3472 13.384C18.4512 13.5544 18.5081 13.7493 18.5121 13.9489C18.5121 13.9489 18.8615 13.3752 19.5868 13.8527C19.5868 13.8527 18.9703 13.7697 18.8236 14.0884C18.8236 14.0884 19.7708 13.8401 19.9741 14.7197C19.9741 14.7197 19.5346 14.2296 19.1346 14.3181C19.3836 14.4039 19.5903 14.5819 19.7121 14.8154C19.834 15.0489 19.8617 15.3203 19.7895 15.5736C19.7895 15.5736 19.7131 14.7324 19.1027 14.6302C19.2832 14.8099 19.4111 15.0355 19.4728 15.2826C19.5345 15.5297 19.5275 15.7889 19.4527 16.0324C19.4559 15.8407 19.4191 15.6504 19.3446 15.4736C19.2702 15.2969 19.1597 15.1377 19.0203 15.006C19.1031 15.2322 19.1296 15.4752 19.0974 15.714C19.0652 15.9528 18.9754 16.1801 18.8357 16.3763C18.8357 16.3763 19.0835 15.5412 18.6829 15.2351C18.6829 15.2351 18.5181 15.1335 18.5241 15.439C18.5241 15.439 18.4769 17.1906 18.5632 18.045C18.5632 18.045 20.3126 16.5615 21.8099 17.5472C21.8099 17.5472 20.3263 16.8225 18.6203 18.4198L19.7599 19.423C19.7926 19.3702 19.8417 19.3295 19.8997 19.3071C19.9577 19.2846 20.0215 19.2818 20.0812 19.2988C20.141 19.3159 20.1936 19.3521 20.231 19.4017C20.2684 19.4514 20.2886 19.512 20.2884 19.5741C20.2884 19.9588 19.7483 19.9318 19.5511 19.7011L18.3538 18.5983L18.3472 18.5719L18.3384 18.5983L17.1412 19.7011C16.9439 19.9324 16.4033 19.9599 16.4033 19.5741C16.4031 19.512 16.4233 19.4514 16.4607 19.4017C16.4981 19.3521 16.5507 19.3159 16.6104 19.2988C16.6702 19.2818 16.734 19.2846 16.792 19.3071C16.85 19.3295 16.8991 19.3702 16.9318 19.423L18.0714 18.4198C16.3648 16.8209 14.8818 17.5472 14.8818 17.5472C16.3791 16.5582 18.1285 18.045 18.1285 18.045C18.2154 17.1906 18.1675 15.439 18.1675 15.439C18.1741 15.1329 18.0088 15.2351 18.0088 15.2351C17.6082 15.5412 17.856 16.3763 17.856 16.3763C17.7163 16.1801 17.6265 15.9528 17.5943 15.714C17.5621 15.4752 17.5886 15.2322 17.6714 15.006C17.532 15.1377 17.4216 15.297 17.3471 15.4737C17.2727 15.6504 17.2358 15.8407 17.239 16.0324C17.164 15.789 17.157 15.5297 17.2187 15.2825C17.2804 15.0354 17.4084 14.8098 17.589 14.6302C16.9785 14.7318 16.9022 15.5736 16.9022 15.5736C16.8298 15.3203 16.8573 15.0488 16.9792 14.8152C17.1011 14.5816 17.3079 14.4037 17.5571 14.3181C17.1566 14.2291 16.7175 14.7197 16.7175 14.7197C16.9208 13.8406 17.8681 14.0884 17.8681 14.0884C17.7219 13.7697 17.1049 13.8527 17.1049 13.8527C17.8296 13.3747 18.1796 13.9489 18.1796 13.9489C18.1837 13.7493 18.2406 13.5544 18.3445 13.384H18.3472Z" fill="white"/>
<path fill-rule="evenodd" clip-rule="evenodd" d="M2.61999 30.2037H2.95296V29.8702H2.61999V30.2037ZM1.84032 26.585H1.50735V26.9185H1.84032V26.585ZM3.17988 30.2037H3.51285V29.8702H3.17988V30.2037ZM1.27879 26.585H0.945821V26.9185H1.27879V26.585ZM5.53703 27.5773C5.45746 27.4866 5.35875 27.4148 5.24802 27.3669C5.12688 27.3144 4.99529 27.2903 4.8634 27.2966H4.61834V27.613H4.90735C4.98399 27.6132 5.05943 27.6321 5.12714 27.668C5.19392 27.6996 5.25356 27.7444 5.30241 27.7999C5.34484 27.8555 5.37753 27.9179 5.39911 27.9845C5.41796 28.0649 5.42682 28.1474 5.42549 28.2301V29.1702H3.90956V29.4949H5.75021V28.2213C5.75043 28.099 5.7319 27.9775 5.69527 27.8608C5.66419 27.7565 5.61033 27.6605 5.53758 27.5795L5.53703 27.5773ZM18.0497 29.4922H18.3738V26.585H18.0497V29.4922ZM16.7859 29.1674H16.2513C16.0985 29.1732 15.9462 29.1463 15.8046 29.0883C15.6976 29.0327 15.609 28.9472 15.5497 28.8422C15.5763 28.742 15.5882 28.6386 15.5848 28.535V27.4982H15.2607V28.5872C15.2699 28.75 15.2167 28.9102 15.1118 29.035C15.0521 29.0936 14.9806 29.1387 14.902 29.1671C14.8234 29.1956 14.7396 29.2067 14.6563 29.1999C14.5666 29.2039 14.4771 29.1889 14.3936 29.1559C14.321 29.1283 14.253 29.0898 14.192 29.0416C14.1386 28.9875 14.0943 28.9252 14.0606 28.857C14.025 28.7892 14.0062 28.7138 14.0057 28.6372V27.4977H13.6815V28.613C13.683 28.7 13.6681 28.7865 13.6376 28.868C13.6121 28.9328 13.5698 28.9897 13.515 29.0328C13.4652 29.0787 13.4051 29.1118 13.3398 29.1295C13.2756 29.1548 13.207 29.1668 13.1381 29.1647H12.5074V27.4977H12.1832V29.1669H10.4925L11.053 27.8141C10.9662 27.7362 10.8754 27.6629 10.781 27.5944C10.6857 27.5328 10.5864 27.4777 10.4837 27.4295C10.3834 27.3772 10.2776 27.336 10.1683 27.3064C9.96515 27.2479 9.74956 27.2479 9.54637 27.3064C9.4386 27.3368 9.33319 27.375 9.23098 27.4207C9.12696 27.4709 9.02734 27.5297 8.93318 27.5966C8.83731 27.6629 8.74657 27.7364 8.66175 27.8163L9.23098 29.1691H8.10955V27.301H7.59252C7.40837 27.2988 7.22502 27.3255 7.04912 27.3801C6.89606 27.4338 6.75361 27.514 6.62824 27.6169C6.50922 27.711 6.41336 27.8311 6.34802 27.968C6.28392 28.1056 6.2509 28.2557 6.25131 28.4075C6.24369 28.5796 6.283 28.7506 6.36505 28.9021C6.43182 29.0358 6.53122 29.1505 6.65406 29.2356C6.78361 29.3288 6.92928 29.3974 7.08373 29.4378C7.25044 29.4765 7.42084 29.4971 7.59197 29.4993H7.78483V29.5872C7.79189 29.6554 7.7829 29.7243 7.75858 29.7885C7.73425 29.8526 7.69526 29.9101 7.64472 29.9564C7.52166 30.0336 7.37762 30.0704 7.23263 30.0619C7.14148 30.0627 7.0505 30.0539 6.9612 30.0356C6.86797 30.0111 6.77698 29.9788 6.68923 29.9389L6.59307 30.246C6.69834 30.2892 6.8067 30.3245 6.91725 30.3515C7.01156 30.3762 7.10878 30.388 7.20626 30.3867C7.33107 30.3967 7.45663 30.3817 7.57553 30.3424C7.69443 30.3031 7.80427 30.2405 7.89856 30.1581C8.04359 29.9941 8.11907 29.7801 8.10901 29.5614V29.4922H13.1381C13.2851 29.4948 13.4302 29.4584 13.5585 29.3867C13.6775 29.3192 13.7794 29.2252 13.8563 29.1119C13.9289 29.2431 14.0386 29.35 14.1716 29.4191C14.3215 29.4929 14.4871 29.5291 14.6541 29.5246C14.8225 29.5282 14.9897 29.4952 15.1442 29.4279C15.2816 29.3604 15.3925 29.249 15.4596 29.1114C15.4867 29.1638 15.5223 29.2113 15.565 29.2521C15.6072 29.299 15.6577 29.3377 15.7139 29.3663C15.7819 29.4075 15.8561 29.4372 15.9337 29.4542C16.0113 29.4726 16.0908 29.4815 16.1705 29.4806V29.4894H17.1079V26.5823H16.7837V29.1647L16.7859 29.1674ZM24.6063 30.2114H24.9392V29.8768H24.6063V30.2114ZM27.7694 29.1746L27.27 27.9279C27.3796 27.8279 27.5076 27.7503 27.6469 27.6993C27.7783 27.6498 27.918 27.6259 28.0585 27.629C28.2061 27.6275 28.3524 27.6575 28.4876 27.7169C28.623 27.7618 28.748 27.8336 28.8552 27.9279L28.3469 29.1746H27.7694ZM30.0661 29.1746H28.6925L29.2617 27.8136C29.1744 27.7433 29.0777 27.6729 28.9815 27.6026C28.8854 27.5388 28.786 27.4801 28.6837 27.4268C28.5846 27.3809 28.4821 27.3427 28.3771 27.3125C28.171 27.2539 27.9525 27.2539 27.7464 27.3125C27.6386 27.3428 27.5332 27.381 27.431 27.4268C27.3271 27.4768 27.2276 27.5356 27.1337 27.6026C27.0376 27.6729 26.9497 27.7427 26.8617 27.8136L27.4398 29.1746H26.231V27.2944H25.9068V29.5603C25.911 29.6398 25.905 29.7196 25.8892 29.7977C25.8865 29.8502 25.8715 29.9014 25.8453 29.9471C25.8247 29.9872 25.7903 30.0186 25.7486 30.0356C25.7014 30.0551 25.6506 30.0641 25.5997 30.0619C25.573 30.0633 25.5463 30.0604 25.5205 30.0532C25.491 30.0497 25.4618 30.0439 25.4332 30.0356L25.3458 30.3515C25.4324 30.3707 25.5204 30.3824 25.609 30.3867C25.712 30.3919 25.8145 30.3705 25.9068 30.3246C25.9839 30.2897 26.0504 30.2352 26.0997 30.1663C26.148 30.0845 26.1834 29.9958 26.2046 29.9031C26.2235 29.79 26.2323 29.6755 26.231 29.5608V29.4922H30.3931V26.5933H30.0689V29.1757L30.0661 29.1746ZM23.4244 30.2114H23.7574V29.8768H23.4244V30.2114ZM21.4617 29.1746H21.1376C21.0215 29.1735 20.9063 29.1549 20.7958 29.1196C20.6952 29.0863 20.6026 29.0324 20.5238 28.9614C20.4413 28.899 20.3752 28.8176 20.331 28.724C20.2851 28.6219 20.2611 28.5113 20.2607 28.3993C20.2586 28.2859 20.2859 28.1738 20.3398 28.074C20.3914 27.9828 20.4564 27.8998 20.5326 27.8279C20.6229 27.7649 20.7199 27.7121 20.8216 27.6702C20.9231 27.6347 21.0296 27.6162 21.137 27.6152H21.4612V29.1696L21.4617 29.1746ZM24.9403 27.2949H24.6162V29.1746H23.398V27.2944H23.0738V29.174H21.7859V27.2944H21.2782C21.0904 27.2949 20.9037 27.3246 20.7249 27.3823C20.571 27.4295 20.4281 27.5071 20.3046 27.6103C20.1903 27.707 20.0978 27.8269 20.0332 27.9619C19.9696 28.0997 19.9367 28.2497 19.937 28.4015C19.9363 28.572 19.9752 28.7404 20.0508 28.8933C20.1222 29.0264 20.2206 29.1432 20.3398 29.2361C20.4698 29.3263 20.6152 29.3918 20.7689 29.4295C20.9347 29.4731 21.1057 29.4938 21.2771 29.4911H24.9398V27.2933L24.9403 27.2949ZM22.8639 30.2114H23.1969V29.8768H22.8639V30.2114ZM21.7859 26.5927H21.453V26.9268H21.7859V26.5927ZM21.2167 26.5927H20.8837V26.9268H21.2167V26.5927ZM31.3266 29.4916H31.6508V26.5927H31.3271V29.4922L31.3266 29.4916ZM45.7914 29.2086C45.7491 29.3116 45.6865 29.4051 45.6074 29.4834C45.5305 29.5566 45.4417 29.6161 45.3447 29.6592C45.236 29.7022 45.1198 29.7231 45.003 29.7207C44.8879 29.7247 44.7736 29.7005 44.67 29.6504C44.5741 29.6054 44.4855 29.5461 44.4074 29.4746C44.3341 29.3953 44.278 29.3018 44.2425 29.1999C44.1974 29.0973 44.1735 28.9866 44.1722 28.8746C44.1735 28.7597 44.1974 28.6462 44.2425 28.5405C44.2781 28.4387 44.3342 28.3452 44.4074 28.2658C44.4844 28.1906 44.5731 28.1282 44.67 28.0812C44.7754 28.0374 44.8889 28.0164 45.003 28.0196C45.1198 28.0171 45.236 28.0381 45.3447 28.0812C45.4445 28.1242 45.5365 28.1836 45.6167 28.257C45.6961 28.3333 45.7562 28.4275 45.792 28.5317C45.838 28.64 45.8619 28.7564 45.8623 28.874C45.862 28.989 45.838 29.1027 45.792 29.2081L45.7914 29.2086ZM42.6546 29.2086C42.6124 29.3117 42.5498 29.4052 42.4705 29.4834C42.392 29.5586 42.2999 29.6182 42.1991 29.6592C42.0937 29.7031 41.9802 29.7241 41.8661 29.7207C41.7511 29.7247 41.6368 29.7006 41.5332 29.6504C41.4373 29.6053 41.3487 29.5461 41.2705 29.4746C41.197 29.3936 41.1378 29.3007 41.0953 29.1999C41.0573 29.0955 41.0367 28.9856 41.0343 28.8746C41.0367 28.7607 41.0573 28.6479 41.0953 28.5405C41.1379 28.4398 41.1971 28.3469 41.2705 28.2658C41.3476 28.1905 41.4363 28.1282 41.5332 28.0812C41.6386 28.0374 41.7521 28.0165 41.8661 28.0196C41.983 28.0172 42.0992 28.0381 42.2079 28.0812C42.3075 28.1243 42.3993 28.1837 42.4793 28.257C42.5558 28.3357 42.6155 28.4292 42.6546 28.5317C42.7006 28.64 42.7245 28.7564 42.7249 28.874C42.7246 28.989 42.7007 29.1027 42.6546 29.2081V29.2086ZM34.787 29.3581H34.4716C34.3555 29.3585 34.2401 29.3399 34.1299 29.3032C34.0267 29.2699 33.9314 29.216 33.8497 29.1449C33.7698 29.0822 33.7066 29.0009 33.6656 28.9081C33.6156 28.8072 33.5914 28.6954 33.5953 28.5828C33.5948 28.4707 33.6188 28.3599 33.6656 28.2581C33.7174 28.1647 33.7857 28.0815 33.8672 28.0125C33.9533 27.9475 34.0475 27.8941 34.1475 27.8537C34.2518 27.8179 34.3613 27.7993 34.4716 27.7988H34.787V29.3581ZM47.1942 29.3581H46.0815C46.1525 29.2071 46.1885 29.042 46.187 28.8751C46.1864 28.7151 46.1537 28.5569 46.0909 28.4097C46.0333 28.2698 45.9502 28.1418 45.8458 28.0323C45.7381 27.9256 45.6098 27.8419 45.4689 27.7861C45.3216 27.7251 45.1634 27.6952 45.0041 27.6982C44.8478 27.696 44.6928 27.7259 44.5486 27.7861C44.4123 27.8456 44.2899 27.9328 44.1892 28.0422C44.08 28.1478 43.9962 28.2769 43.9442 28.4196C43.8809 28.5636 43.848 28.719 43.8475 28.8762C43.8449 29.0431 43.8808 29.2084 43.9524 29.3592H42.9453C43.0161 29.2081 43.0521 29.0431 43.0508 28.8762C43.05 28.7162 43.0171 28.5579 42.9541 28.4108C42.8963 28.2709 42.813 28.1429 42.7085 28.0334C42.601 27.9267 42.4729 27.8429 42.3321 27.7872C42.1851 27.7261 42.027 27.6961 41.8678 27.6993C41.7115 27.6961 41.5562 27.7261 41.4123 27.7872C41.2746 27.8487 41.1497 27.9356 41.0442 28.0433C40.9408 28.1536 40.8578 28.2814 40.7991 28.4207C40.7431 28.5665 40.7133 28.7211 40.7112 28.8773C40.7109 28.963 40.7198 29.0485 40.7376 29.1323C40.757 29.2096 40.7804 29.2859 40.8079 29.3608H39.7826V26.7751H39.4585V29.3575H38.4332V28.857C38.4328 28.7379 38.4143 28.6195 38.3782 28.5059C38.3502 28.3996 38.2994 28.3006 38.2293 28.2158C38.145 28.1305 38.0474 28.0594 37.9403 28.0054C37.8143 27.9593 37.6804 27.9384 37.5464 27.9438H36.1096L36.7227 26.7757H36.3722L35.7502 27.935C35.7588 27.9979 35.7735 28.0597 35.7942 28.1196C35.8214 28.1698 35.8538 28.2169 35.8909 28.2603H37.5469C37.6373 28.26 37.7268 28.2787 37.8096 28.3152C37.8776 28.3405 37.938 28.3829 37.9848 28.4383C38.0339 28.4895 38.0674 28.5535 38.0815 28.6229C38.0999 28.7007 38.1088 28.7804 38.1079 28.8603V29.3608H35.1112V27.4812H34.6035C34.4156 27.4816 34.229 27.5113 34.0502 27.5691C33.8972 27.6186 33.7547 27.6961 33.6299 27.7977C33.5182 27.8945 33.4287 28.0143 33.3672 28.1488C33.2993 28.2851 33.2661 28.4361 33.2705 28.5883C33.2666 28.7591 33.3025 28.9284 33.3755 29.0828C33.4524 29.212 33.55 29.3277 33.6645 29.4251C33.7943 29.5155 33.9399 29.5808 34.0936 29.618C34.2595 29.6612 34.4305 29.6819 34.6019 29.6795H41.0156C41.1212 29.7958 41.2495 29.8893 41.3925 29.9542C41.5409 30.0217 41.7026 30.0547 41.8656 30.051C42.0315 30.0556 42.1962 30.0226 42.3475 29.9542C42.4958 29.8948 42.6277 29.8006 42.7321 29.6795H44.1607C44.263 29.7956 44.3884 29.8891 44.5288 29.9542C44.6772 30.0217 44.8389 30.0547 45.0019 30.051C45.1677 30.0555 45.3325 30.0224 45.4837 29.9542C45.632 29.8947 45.7639 29.8005 45.8683 29.6795H47.5167V26.7806H47.1925V29.363L47.1942 29.3581ZM48.465 29.674H48.7892V26.7751H48.465V29.674ZM34.542 26.7751H34.209V27.1092H34.542V26.7751ZM35.1112 26.7751H34.7782V27.1092H35.1112V26.7751ZM3.45076 27.2966H3.12659V29.1674H1.83868V27.2944H1.33043C1.14304 27.2922 0.956422 27.3189 0.777136 27.3735C0.624864 27.4248 0.482647 27.5021 0.356806 27.6021C0.24402 27.7005 0.153601 27.8219 0.0916221 27.9582C0.0296435 28.0945 -0.00245553 28.2425 -0.00252965 28.3922C-0.00719258 28.563 0.0289655 28.7326 0.102957 28.8867C0.175395 29.0214 0.276938 29.1384 0.40021 29.229C0.527111 29.3193 0.669898 29.3849 0.821093 29.4224C0.986754 29.4677 1.15759 29.4913 1.32934 29.4927H3.44966V27.2949L3.45076 27.2966ZM1.5167 29.168H1.20131C1.08517 29.1682 0.969763 29.1497 0.859558 29.113C0.758489 29.0792 0.663777 29.0287 0.579333 28.9636C0.50127 28.8955 0.438541 28.8116 0.395272 28.7174C0.344683 28.6169 0.320662 28.5051 0.325492 28.3927C0.325871 28.2836 0.349667 28.1759 0.395272 28.0768C0.499709 27.8864 0.671596 27.7419 0.87714 27.6718C0.981061 27.6336 1.0906 27.6128 1.20131 27.6103H1.5167V29.1663V29.168ZM7.78977 29.168H7.4656C7.34946 29.1682 7.23404 29.1497 7.12384 29.113C7.02127 29.0827 6.92593 29.0319 6.84362 28.9636C6.76122 28.9011 6.69507 28.8197 6.65076 28.7262C6.60394 28.6244 6.57994 28.5136 6.58043 28.4015C6.57971 28.2912 6.60694 28.1825 6.65956 28.0856C6.70653 27.9913 6.77214 27.9076 6.85241 27.8394C6.93738 27.7712 7.03176 27.7157 7.13263 27.6746C7.24007 27.639 7.35242 27.6205 7.4656 27.6196H7.78977V29.1658V29.168ZM9.57714 29.168L9.0689 27.9207C9.18347 27.8236 9.31346 27.7464 9.45351 27.6922C9.58603 27.6461 9.72529 27.6223 9.8656 27.6218C10.0132 27.6213 10.1592 27.6513 10.2947 27.7097C10.4251 27.7602 10.5465 27.8315 10.6541 27.9207L10.1546 29.168H9.57714Z" fill="white"/>
<path fill-rule="evenodd" clip-rule="evenodd" d="M39.9707 7.84431H40.53V8.40531H39.9707V7.84431ZM41.0904 7.84431H41.6503V8.40531H41.0904V7.84431ZM30.0465 1.46135H29.4866V0.897616H30.0465V1.46135ZM43.447 5.36575C43.6707 5.52014 43.9195 5.63465 44.1822 5.70421C44.4721 5.7758 44.7698 5.81123 45.0685 5.8097H45.2086L45.4069 5.4119V5.96135C45.4174 6.0794 45.3996 6.19825 45.355 6.30804C45.3104 6.41783 45.2402 6.5154 45.1503 6.59266C44.9444 6.73144 44.698 6.79722 44.4503 6.77948C44.2935 6.78314 44.1368 6.76745 43.9838 6.73278C43.82 6.69185 43.6601 6.6367 43.5058 6.56794L43.3306 7.10585C43.5167 7.17762 43.7076 7.23619 43.902 7.28113C44.0667 7.31789 44.2349 7.33741 44.4036 7.33937C44.6176 7.35942 44.8335 7.33564 45.038 7.26952C45.2425 7.20339 45.4314 7.0963 45.5932 6.95476C45.846 6.66898 45.9759 6.29504 45.9547 5.91409V2.02069H45.0685C44.7481 2.01628 44.4292 2.06359 44.124 2.1608C43.8607 2.24801 43.6157 2.38265 43.4009 2.55806C43.0918 2.82713 42.8798 3.19034 42.7975 3.59175C42.7152 3.99316 42.7672 4.41051 42.9454 4.77948C43.0632 5.0118 43.2353 5.21232 43.447 5.3641V5.36575ZM43.447 3.38772C43.5257 3.22001 43.6412 3.0722 43.7849 2.95531C44.0758 2.71176 44.4435 2.57919 44.8229 2.58113H45.7207L45.4058 2.74597V5.24761H44.8344C44.6368 5.25163 44.4398 5.22399 44.2509 5.16574C44.0744 5.10845 43.9091 5.0215 43.7619 4.90861C43.6277 4.79447 43.5169 4.65547 43.4355 4.49926C43.3534 4.32393 43.3135 4.1318 43.319 3.93827C43.3126 3.74712 43.3566 3.55764 43.4465 3.38882L43.447 3.38772ZM31.1542 1.4586H30.6047V0.897616H31.1542V1.4586ZM47.3773 7.33772C47.2239 7.33553 47.0713 7.31599 46.9223 7.27948L47.0624 6.74157C47.1138 6.74934 47.1645 6.7611 47.2141 6.77673H47.3542C47.4422 6.7816 47.5301 6.7656 47.6108 6.73003C47.6463 6.71884 47.6792 6.70062 47.7075 6.67645C47.7358 6.65229 47.759 6.62267 47.7756 6.58937C47.82 6.50575 47.8478 6.41433 47.8575 6.32014C47.8784 6.18864 47.8863 6.0554 47.8811 5.92234V2.01739H48.4404V5.92289C48.4443 6.11883 48.4286 6.31466 48.3937 6.5075C48.3656 6.67126 48.302 6.8269 48.2075 6.96355C48.1245 7.08351 48.0121 7.18018 47.8811 7.24432C47.7219 7.30884 47.5512 7.34061 47.3795 7.33772H47.3773ZM29.6382 7.2674H30.7921V6.84597C30.8063 6.86378 30.8181 6.88335 30.8273 6.9042C30.9148 7.02464 31.0312 7.12119 31.1657 7.18497C31.3246 7.25055 31.4955 7.28236 31.6674 7.27838H41.8487V2.01739H41.2888V6.72179H31.6904C31.5998 6.72409 31.5093 6.71223 31.4223 6.68662C31.3582 6.65172 31.3056 6.59907 31.2707 6.53497C31.2219 6.45233 31.1902 6.36081 31.1773 6.26575C31.1617 6.13372 31.1538 6.00089 31.1536 5.86794V2.02179H29.6492C29.3128 2.01809 28.979 2.08068 28.6668 2.20601C28.3546 2.33133 28.0702 2.51692 27.8297 2.75219C27.5892 2.98745 27.3975 3.26778 27.2653 3.57716C27.1332 3.88654 27.0633 4.21891 27.0597 4.55531C27.0597 4.58388 27.0597 4.61025 27.0597 4.64047V4.65201C27.0499 4.98631 27.1062 5.31925 27.2252 5.6318C27.3442 5.94435 27.5237 6.23038 27.7533 6.47353C27.9829 6.71668 28.2582 6.91219 28.5635 7.04888C28.8687 7.18557 29.1979 7.26075 29.5322 7.27014C29.5679 7.27014 29.6036 7.27014 29.6421 7.27014L29.6382 7.2674ZM27.6525 4.62838C27.6394 4.3599 27.6809 4.09155 27.7746 3.8396C27.8682 3.58766 28.0122 3.35737 28.1975 3.16273C28.3829 2.96809 28.6059 2.81315 28.853 2.70732C29.1001 2.60148 29.3661 2.54697 29.6349 2.54707H30.941L30.6031 2.7119V5.86849C30.5988 6.06444 30.6145 6.26032 30.6498 6.45311C30.6684 6.54901 30.6958 6.64299 30.7316 6.73388H29.647C29.3773 6.73196 29.1108 6.6758 28.8632 6.56874C28.6157 6.46167 28.3922 6.30589 28.2061 6.11066C28.02 5.91544 27.8751 5.68477 27.78 5.43238C27.6849 5.18 27.6415 4.91106 27.6525 4.64157V4.62948V4.62838ZM45.3284 0.277832H45.7849V0.689375H45.3663C45.3225 0.689375 45.2806 0.706737 45.2497 0.73765C45.2188 0.768562 45.2014 0.810486 45.2014 0.854203V1.01904H45.9157V1.46409H44.7404V0.870141C44.7409 0.713521 44.8032 0.563421 44.9138 0.45257C45.0245 0.341719 45.1745 0.27911 45.3311 0.278385L45.3284 0.277832Z" fill="white"/>
<path fill-rule="evenodd" clip-rule="evenodd" d="M24.1445 1.98387H24.7153V7.2152H24.2494L20.5335 2.50915L20.8599 3.2685V7.21574H20.289V1.98443H20.8384L24.3802 6.48992L24.1461 5.84762V1.98223L24.1445 1.98387ZM2.39776 7.26245L0.149414 1.98443H0.80161L1.12799 2.76684L2.66644 6.49212L2.81755 6.85475L2.75985 6.28223L4.54227 1.98497H5.17139L2.92304 7.26299L2.39776 7.26245ZM12.3703 1.98443H12.9642V7.21574H12.3686V1.98443H12.3703ZM18.7049 4.6108C18.7174 4.88801 18.6736 5.16487 18.5762 5.4247C18.4788 5.68454 18.3298 5.92197 18.1382 6.1227C17.9467 6.32343 17.7164 6.4833 17.4614 6.59268C17.2064 6.70206 16.9318 6.75869 16.6544 6.75915C16.3759 6.75655 16.1008 6.69816 15.8453 6.58743C15.5898 6.47671 15.3591 6.31589 15.1668 6.11449C14.9745 5.91308 14.8246 5.67518 14.7258 5.41483C14.627 5.15448 14.5814 4.87698 14.5917 4.59871V4.58717C14.5797 4.30908 14.6241 4.03143 14.7224 3.771C14.8207 3.51058 14.9708 3.27279 15.1636 3.07202C15.3564 2.87124 15.5879 2.71165 15.8442 2.60289C16.1004 2.49412 16.376 2.43845 16.6544 2.43923C16.9327 2.44001 17.208 2.49723 17.4636 2.60743C17.7192 2.71763 17.9499 2.87851 18.1415 3.08037C18.3332 3.28222 18.482 3.52085 18.5788 3.78182C18.6756 4.04279 18.7185 4.32069 18.7049 4.59871V4.6108ZM16.6544 1.88992C15.9503 1.88656 15.2738 2.16298 14.7735 2.6584C14.2733 3.15381 13.9903 3.82764 13.9868 4.53168C13.9868 4.55421 13.9868 4.57618 13.9868 4.59871V4.6108C13.9668 5.30586 14.2237 5.9804 14.701 6.4861C15.1782 6.99179 15.8368 7.28725 16.5318 7.3075C16.5685 7.3075 16.6051 7.3075 16.6417 7.3075C17.3444 7.31498 18.0213 7.04318 18.5236 6.55184C19.026 6.0605 19.3127 5.38983 19.3208 4.68718C19.3208 4.65806 19.3208 4.62893 19.3208 4.59981V4.58827C19.3383 3.89057 19.0778 3.21451 18.5968 2.7088C18.1159 2.20309 17.4537 1.90912 16.756 1.89157C16.7219 1.89157 16.6873 1.89157 16.6533 1.89157L16.6544 1.88992ZM11.4005 5.80201V5.81354C11.4005 6.71244 10.6434 7.29707 9.60656 7.29707C8.81375 7.30366 8.04938 7.00204 7.47469 6.45585L7.83623 6.02399C8.07149 6.25951 8.35126 6.44585 8.65926 6.57216C8.96725 6.69847 9.29731 6.76222 9.63019 6.7597C10.3406 6.7597 10.795 6.38608 10.795 5.87234V5.86025C10.795 5.37014 10.5384 5.09102 9.43238 4.86794C8.23238 4.59871 7.68513 4.2141 7.68513 3.34981V3.33772C7.68513 2.5086 8.40766 1.90146 9.39777 1.90146C10.0716 1.88098 10.7285 2.11434 11.2384 2.55531L10.9005 3.0108C10.4809 2.64435 9.94336 2.44113 9.38623 2.43827C8.71041 2.43827 8.26754 2.8119 8.26754 3.27893V3.30201C8.26754 3.79212 8.53568 4.07124 9.68897 4.31794C10.8538 4.57453 11.4016 4.99542 11.4016 5.80146L11.4005 5.80201ZM6.56535 7.2152H5.97139V1.98387H6.56535V7.2152Z" fill="white"/>
</g>
<defs>
<clipPath id="clip0_2210_31068">
<rect width="50" height="34.0659" fill="white"/>
</clipPath>
</defs>
</svg>
