<svg width="22" height="22" viewBox="0 0 22 22" fill="none" xmlns="http://www.w3.org/2000/svg">
<path d="M15.5529 8.5068C15.8328 8.20146 15.8121 7.72703 15.5068 7.44714C15.2015 7.16724 14.727 7.18787 14.4471 7.49321L9.47644 12.9158L7.53033 10.9697C7.23744 10.6768 6.76256 10.6768 6.46967 10.9697C6.17678 11.2626 6.17678 11.7374 6.46967 12.0303L8.96967 14.5303C9.11432 14.675 9.31178 14.7543 9.51629 14.7498C9.72081 14.7454 9.91464 14.6576 10.0529 14.5068L15.5529 8.5068Z" fill="#067647"/>
<path fill-rule="evenodd" clip-rule="evenodd" d="M11 21.75C5.06294 21.75 0.25 16.9371 0.25 11C0.25 5.06294 5.06294 0.25 11 0.25C16.9371 0.25 21.75 5.06294 21.75 11C21.75 16.9371 16.9371 21.75 11 21.75ZM1.75 11C1.75 16.1086 5.89137 20.25 11 20.25C16.1086 20.25 20.25 16.1086 20.25 11C20.25 5.89137 16.1086 1.75 11 1.75C5.89137 1.75 1.75 5.89137 1.75 11Z" fill="#067647"/>
</svg>
