<svg width="16" height="15" viewBox="0 0 16 15" fill="none" xmlns="http://www.w3.org/2000/svg">
<path d="M7.66073 8.00074C7.61443 7.99999 7.56088 7.99997 7.49483 7.99997C7.21869 7.99997 6.99483 7.77611 6.99483 7.49997C6.99483 7.22383 7.21869 6.99997 7.49483 6.99997L7.5178 6.99997C7.65454 6.99991 7.8024 6.99985 7.92721 7.01663C8.07343 7.03629 8.26022 7.08685 8.41742 7.24405C8.57462 7.40125 8.62518 7.58804 8.64484 7.73426C8.66162 7.85907 8.66156 8.00693 8.6615 8.14368L8.6615 10.8333C8.6615 11.1094 8.43764 11.3333 8.1615 11.3333C7.88536 11.3333 7.6615 11.1094 7.6615 10.8333V8.16664C7.6615 8.10059 7.66148 8.04704 7.66073 8.00074Z" fill="#D92D20"/>
<path d="M7.99483 4.83329C7.62664 4.83329 7.32817 5.13177 7.32817 5.49996C7.32817 5.86815 7.62664 6.16663 7.99483 6.16663H8.00082C8.36901 6.16663 8.66749 5.86815 8.66749 5.49996C8.66749 5.13177 8.36901 4.83329 8.00082 4.83329H7.99483Z" fill="#D92D20"/>
<path fill-rule="evenodd" clip-rule="evenodd" d="M6.90803 0.843293C7.61767 0.607737 8.38242 0.607737 9.09206 0.843293C9.79876 1.07788 10.3536 1.63423 10.9111 2.41592C11.4667 3.19503 12.0806 4.28133 12.8719 5.68162L12.903 5.7366C13.6945 7.13711 14.3084 8.22336 14.6909 9.10428C15.0754 9.98948 15.2668 10.7538 15.1141 11.488C14.9603 12.2273 14.581 12.8996 14.0286 13.4077C13.4775 13.9146 12.7272 14.1285 11.7824 14.2312C10.843 14.3333 9.61417 14.3333 8.03254 14.3333H7.96754C6.38592 14.3333 5.15707 14.3333 4.21766 14.2312C3.27289 14.1285 2.52257 13.9146 1.97152 13.4077C1.41912 12.8996 1.03983 12.2273 0.886009 11.488C0.73324 10.7538 0.924708 9.98948 1.30914 9.10428C1.69172 8.22336 2.30561 7.1371 3.09709 5.7366L3.12816 5.68163C3.91951 4.28134 4.53343 3.19503 5.08902 2.41592C5.64646 1.63423 6.20133 1.07788 6.90803 0.843293ZM8.77702 1.79237C8.27192 1.62471 7.72817 1.62471 7.22307 1.79237C6.82574 1.92426 6.42633 2.26296 5.9032 2.99653C5.38188 3.72758 4.79336 4.76759 3.98315 6.20125C3.17298 7.63481 2.58554 8.67562 2.22638 9.50262C1.86659 10.3311 1.77646 10.8586 1.86504 11.2843C1.97678 11.8214 2.25174 12.3068 2.64852 12.6718C2.96014 12.9584 3.44572 13.1414 4.32573 13.237C5.20468 13.3326 6.37911 13.3333 8.00004 13.3333C9.62098 13.3333 10.7954 13.3326 11.6744 13.237C12.5544 13.1414 13.0399 12.9584 13.3516 12.6718C13.7483 12.3068 14.0233 11.8214 14.135 11.2843C14.2236 10.8586 14.1335 10.3311 13.7737 9.50262C13.4145 8.67562 12.8271 7.63481 12.0169 6.20125C11.2067 4.76759 10.6182 3.72758 10.0969 2.99653C9.57376 2.26296 9.17434 1.92426 8.77702 1.79237Z" fill="#D92D20"/>
</svg>
