<svg width="16" height="15" viewBox="0 0 16 15" fill="none" xmlns="http://www.w3.org/2000/svg">
<path fill-rule="evenodd" clip-rule="evenodd" d="M11.5872 14.6635C11.3418 14.6635 11.0958 14.6395 10.8518 14.5901C9.7818 14.3788 8.83647 14.0162 7.7878 13.4135C5.48247 12.0922 3.4038 10.0135 2.0838 7.71018C1.48647 6.67085 1.12314 5.72618 0.905804 4.64618C0.614471 3.20285 1.21048 1.67281 2.46248 0.653475C2.78514 0.392142 3.16314 0.287462 3.52781 0.356796C3.89381 0.426796 4.20647 0.663462 4.40847 1.02346L4.99116 2.07151L4.99253 2.07397C5.48699 2.96042 5.75976 3.4494 5.69848 4.04618C5.63727 4.63436 5.2812 5.04653 4.63627 5.79308L4.63246 5.79749L3.13181 7.51819C4.30915 9.44952 6.04915 11.1895 7.98181 12.3675L9.66713 10.9035L9.66765 10.903C10.4033 10.258 10.8479 9.86813 11.4531 9.80347C12.0611 9.74081 12.5771 10.0301 13.4325 10.5115L14.4745 11.0901C14.8398 11.2955 15.0772 11.6108 15.1465 11.9788C15.2152 12.3428 15.1085 12.7188 14.8471 13.0375C14.0011 14.0768 12.7998 14.6642 11.5885 14.6642L11.5872 14.6635ZM8.91316 12.8822C9.62383 13.2329 10.3031 13.4628 11.0485 13.6102C12.1305 13.8295 13.2885 13.3675 14.0718 12.4048C14.1232 12.3422 14.1791 12.2515 14.1625 12.1635C14.1491 12.0922 14.0845 12.0188 13.9851 11.9628L12.9431 11.3841C12.2025 10.9668 11.8352 10.7675 11.5578 10.7975C11.2798 10.8268 10.9791 11.0821 10.3238 11.6561L8.91248 12.8822H8.91316ZM3.30649 1.33486C3.22182 1.33486 3.13849 1.39147 3.09249 1.4288C2.13049 2.21213 1.66782 3.36947 1.88582 4.44814C2.03715 5.1988 2.26848 5.87949 2.61648 6.58616L3.87514 5.1428C4.44381 4.4848 4.67513 4.20748 4.70313 3.94215C4.73113 3.67081 4.55447 3.34151 4.11713 2.55751L3.53448 1.51018C3.48048 1.41351 3.41047 1.35218 3.33914 1.33818C3.32847 1.33618 3.31715 1.33486 3.30649 1.33486Z" fill="white"/>
<path d="M11.9985 8.00016C11.7225 8.00016 11.4985 7.77616 11.4985 7.50016V6.3335H11.0272C10.7545 6.3335 10.4965 6.33348 10.2839 6.12015C10.0699 5.90882 10.0699 5.65482 10.0699 5.38683V4.16683C10.0699 3.89083 10.2939 3.66683 10.5699 3.66683C10.8459 3.66683 11.0699 3.89083 11.0699 4.16683V5.3335H11.4985V4.16683C11.4985 3.89083 11.7225 3.66683 11.9985 3.66683C12.2745 3.66683 12.4985 3.89083 12.4985 4.16683V7.50016C12.4985 7.77616 12.2745 8.00016 11.9985 8.00016Z" fill="white"/>
<path d="M9.14053 8.00016H8.56986C8.23186 8.00016 7.96452 8.00016 7.73652 7.78083C7.49854 7.55417 7.49854 7.27287 7.49854 6.94689V6.16683C7.49854 5.9615 7.49854 5.72946 7.68919 5.53747C7.88319 5.3348 8.12321 5.3335 8.33587 5.3335C8.50321 5.33016 8.58187 5.31815 8.61787 5.30882C8.6412 5.20949 8.64121 4.95082 8.64121 4.72015V4.66683H7.99854C7.72254 4.66683 7.49854 4.44283 7.49854 4.16683C7.49854 3.89083 7.72254 3.66683 7.99854 3.66683H8.56986C8.90719 3.66683 9.17387 3.66686 9.40254 3.88486C9.64121 4.1142 9.64121 4.3948 9.64121 4.7208C9.64121 5.31947 9.6412 5.71482 9.32653 6.02816C9.3232 6.03149 9.31987 6.0348 9.31654 6.03747C9.08187 6.2588 8.78122 6.31282 8.49788 6.32816V7.00016H9.14053C9.41653 7.00016 9.64053 7.22416 9.64053 7.50016C9.64053 7.77616 9.41653 8.00016 9.14053 8.00016Z" fill="white"/>
<path d="M12.7572 9.16831C12.8559 9.27764 12.9925 9.33361 13.1292 9.33361V9.33498C13.2485 9.33498 13.3685 9.29227 13.4639 9.20626C13.5292 9.1476 13.6052 9.07826 13.6825 8.99826C14.6392 8.04026 15.1659 6.76827 15.1659 5.4116C15.1659 4.05494 14.6372 2.77958 13.6786 1.82091C11.6986 -0.157753 8.47721 -0.157753 6.49721 1.82091L6.48988 1.82827C6.42388 1.89694 6.35989 1.96693 6.29255 2.04227C6.10922 2.24893 6.12786 2.56492 6.33386 2.74826C6.53986 2.93159 6.85588 2.91292 7.03988 2.70692C7.09722 2.64225 7.15188 2.58297 7.20788 2.5243C8.79855 0.938966 11.3832 0.93962 12.9719 2.52762C13.7419 3.29762 14.1659 4.32162 14.1659 5.41095C14.1659 6.50029 13.7419 7.5243 12.9719 8.29364L12.9646 8.30093C12.9146 8.35293 12.8625 8.40092 12.7945 8.46225C12.5892 8.64692 12.5725 8.96298 12.7572 9.16831Z" fill="white"/>
</svg>
