<svg width="16" height="16" viewBox="0 0 16 16" fill="none" xmlns="http://www.w3.org/2000/svg">
<path d="M9.99597 7.99414C9.99597 8.36214 10.298 8.66081 10.666 8.66081C11.034 8.66081 11.3326 8.36214 11.3326 7.99414C11.3326 7.62614 11.034 7.32747 10.666 7.32747H10.6593C10.2913 7.32747 9.99597 7.62614 9.99597 7.99414Z" fill="#161616"/>
<path d="M7.33327 7.99414C7.33327 8.36214 7.63194 8.66081 7.99994 8.66081C8.36794 8.66081 8.6666 8.36214 8.6666 7.99414C8.6666 7.62614 8.36794 7.32747 7.99994 7.32747C7.63127 7.32747 7.33327 7.62614 7.33327 7.99414Z" fill="#161616"/>
<path d="M4.66927 7.99414C4.66927 8.36214 4.97126 8.66081 5.33926 8.66081C5.70726 8.66081 6.00593 8.36214 6.00593 7.99414C6.00593 7.62614 5.70726 7.32747 5.33926 7.32747H5.33262C4.96462 7.32747 4.66927 7.62614 4.66927 7.99414Z" fill="#161616"/>
<path fill-rule="evenodd" clip-rule="evenodd" d="M2.654 14.8274C2.69066 14.8287 2.72666 14.8287 2.76266 14.8287L2.76129 14.8301C3.54529 14.8301 4.21134 14.6194 4.79267 14.1867L4.83395 14.1574C4.84569 14.1491 4.85748 14.1408 4.86922 14.1325C4.92741 14.0915 4.98439 14.0513 5.02932 14.0207C5.08835 14.0429 5.16573 14.0747 5.24461 14.1071C5.25838 14.1127 5.27219 14.1184 5.28596 14.1241L5.36799 14.158C5.72199 14.304 6.13128 14.3974 6.51728 14.4214C7.48328 14.4894 8.50797 14.4894 9.47997 14.4214C12.5106 14.2181 14.9433 11.7534 15.1386 8.68604C15.1733 8.10871 15.1733 7.52338 15.1386 6.94405C14.944 3.87805 12.5106 1.4134 9.47795 1.21006C8.50796 1.14873 7.48528 1.14873 6.51995 1.21006C3.48928 1.41273 1.05662 3.87808 0.861289 6.94541C0.826622 7.52275 0.826622 8.10807 0.861289 8.68741C0.923956 9.66274 1.30397 10.676 1.9913 11.7C2.19797 12.1007 1.97997 12.6774 1.75797 13.094L1.74599 13.1167C1.4747 13.628 1.27864 13.9974 1.50328 14.3987C1.50528 14.4021 1.50729 14.4056 1.5093 14.4091C1.51131 14.4125 1.51333 14.416 1.51533 14.4194C1.75266 14.7994 2.14665 14.8121 2.60198 14.8261L2.654 14.8274ZM2.59042 13.8249C2.56195 13.8241 2.53318 13.8234 2.5053 13.822C2.5433 13.7467 2.58732 13.6627 2.62932 13.584L2.6413 13.5621C3.1373 12.6307 3.20998 11.8354 2.85732 11.198C2.84998 11.1847 2.84195 11.1721 2.83395 11.1601C2.23861 10.2781 1.90995 9.42408 1.85862 8.62341C1.82662 8.09408 1.82662 7.53338 1.85862 7.00538C2.02195 4.43871 4.05466 2.37536 6.58466 2.20603C7.50733 2.14803 8.48597 2.14803 9.41331 2.20603C11.9446 2.37603 13.9773 4.43941 14.1407 7.00407C14.1727 7.53341 14.1727 8.09404 14.1407 8.62204C13.9767 11.188 11.9447 13.2521 9.41266 13.4214H9.41129C8.48462 13.4867 7.50796 13.4867 6.58329 13.4214C6.30463 13.4041 6.00129 13.3354 5.74996 13.2314L5.66865 13.198C5.29556 13.0441 5.10791 12.9667 4.89065 13C4.69232 13.0307 4.54646 13.1344 4.25678 13.3403L4.2553 13.3414L4.20999 13.3734C4.20832 13.3744 4.20681 13.3756 4.2053 13.3767C4.20379 13.3779 4.20228 13.379 4.20061 13.38C3.76595 13.7041 3.29466 13.8407 2.68199 13.8274L2.63329 13.8261C2.61918 13.8256 2.60484 13.8253 2.59042 13.8249Z" fill="#161616"/>
</svg>
