<svg width="12" height="15" viewBox="0 0 12 15" fill="none" xmlns="http://www.w3.org/2000/svg">
<path fill-rule="evenodd" clip-rule="evenodd" d="M11.8333 2.83334C11.8333 2.36285 11.5773 1.9745 11.2459 1.68072C10.914 1.38642 10.4622 1.14422 9.9468 0.950958C8.91236 0.563044 7.51685 0.333336 6 0.333336C4.48316 0.333336 3.08765 0.563044 2.05321 0.950958C1.53783 1.14422 1.08603 1.38642 0.754088 1.68072C0.422728 1.9745 0.166672 2.36285 0.166672 2.83334V12.1667C0.166672 12.6372 0.422728 13.0255 0.754088 13.3193C1.08603 13.6136 1.53783 13.8558 2.05321 14.049C3.08765 14.437 4.48316 14.6667 6 14.6667C7.51685 14.6667 8.91236 14.437 9.9468 14.049C10.4622 13.8558 10.914 13.6136 11.2459 13.3193C11.5773 13.0255 11.8333 12.6372 11.8333 12.1667V2.83334ZM1.41749 2.42898C1.20909 2.61374 1.16667 2.75153 1.16667 2.83334C1.16667 2.91514 1.20909 3.05293 1.41749 3.2377C1.62531 3.42195 1.95456 3.61072 2.40433 3.77939C3.30018 4.11533 4.57133 4.33334 6 4.33334C7.42868 4.33334 8.69983 4.11533 9.59568 3.77939C10.0454 3.61072 10.3747 3.42195 10.5825 3.2377C10.7909 3.05293 10.8333 2.91514 10.8333 2.83334C10.8333 2.75153 10.7909 2.61374 10.5825 2.42898C10.3747 2.24472 10.0454 2.05595 9.59568 1.88729C8.69983 1.55134 7.42868 1.33334 6 1.33334C4.57133 1.33334 3.30018 1.55134 2.40433 1.88729C1.95456 2.05595 1.62531 2.24472 1.41749 2.42898ZM10.8333 4.28999C10.5727 4.45197 10.2724 4.59361 9.9468 4.71571C8.91236 5.10363 7.51685 5.33334 6 5.33334C5.2369 5.33334 4.5045 5.2752 3.83334 5.16802V6.16667C3.83334 6.44281 3.60948 6.66667 3.33334 6.66667C3.0572 6.66667 2.83334 6.44281 2.83334 6.16667V4.96053C2.55566 4.88815 2.2946 4.80624 2.05321 4.71571C1.72759 4.59361 1.42734 4.45197 1.16667 4.28999V7.5C1.16667 7.58181 1.20909 7.71959 1.41749 7.90436C1.62531 8.08862 1.95456 8.27739 2.40433 8.44605C3.30018 8.782 4.57133 9 6 9C7.42868 9 8.69983 8.782 9.59568 8.44605C10.0454 8.27739 10.3747 8.08862 10.5825 7.90436C10.7909 7.71959 10.8333 7.58181 10.8333 7.5V4.28999ZM10.8333 8.95666C10.5727 9.11863 10.2724 9.26027 9.9468 9.38238C8.91236 9.7703 7.51685 10 6 10C5.2369 10 4.5045 9.94186 3.83334 9.83469V10.8333C3.83334 11.1095 3.60948 11.3333 3.33334 11.3333C3.0572 11.3333 2.83334 11.1095 2.83334 10.8333V9.6272C2.55566 9.55481 2.2946 9.4729 2.05321 9.38238C1.72759 9.26027 1.42734 9.11863 1.16667 8.95666V12.1667C1.16667 12.2485 1.20909 12.3863 1.41749 12.571C1.62531 12.7553 1.95456 12.9441 2.40433 13.1127C3.30018 13.4487 4.57133 13.6667 6 13.6667C7.42868 13.6667 8.69983 13.4487 9.59568 13.1127C10.0454 12.9441 10.3747 12.7553 10.5825 12.571C10.7909 12.3863 10.8333 12.2485 10.8333 12.1667V8.95666Z" fill="#161616"/>
</svg>
