<svg width="16" height="16" viewBox="0 0 16 16" fill="none" xmlns="http://www.w3.org/2000/svg">
<path d="M11.0354 6.33778C11.222 6.13422 11.2083 5.81794 11.0047 5.63134C10.8011 5.44475 10.4848 5.4585 10.2983 5.66206L6.98446 9.27711L5.68705 7.9797C5.49179 7.78444 5.17521 7.78444 4.97994 7.9797C4.78468 8.17496 4.78468 8.49155 4.97994 8.68681L6.64661 10.3535C6.74304 10.4499 6.87468 10.5028 7.01102 10.4998C7.14737 10.4968 7.27659 10.4383 7.36874 10.3378L11.0354 6.33778Z" fill="#161616"/>
<path fill-rule="evenodd" clip-rule="evenodd" d="M8.00016 15.1666C4.04212 15.1666 0.833496 11.958 0.833496 7.99992C0.833496 4.04188 4.04212 0.833252 8.00016 0.833252C11.9582 0.833252 15.1668 4.04188 15.1668 7.99992C15.1668 11.958 11.9582 15.1666 8.00016 15.1666ZM1.8335 7.99992C1.8335 11.4057 4.59441 14.1666 8.00016 14.1666C11.4059 14.1666 14.1668 11.4057 14.1668 7.99992C14.1668 4.59416 11.4059 1.83325 8.00016 1.83325C4.59441 1.83325 1.8335 4.59416 1.8335 7.99992Z" fill="#161616"/>
</svg>
