<svg width="16" height="16" viewBox="0 0 16 16" fill="none" xmlns="http://www.w3.org/2000/svg">
<path fill-rule="evenodd" clip-rule="evenodd" d="M3.54449 0.857569C3.92228 0.935652 4.22314 1.18948 4.41007 1.52483L5.00554 2.59313C5.22488 2.9866 5.40947 3.31772 5.53001 3.60557C5.65788 3.91091 5.73382 4.21202 5.69911 4.54493C5.66439 4.87783 5.52795 5.15679 5.33984 5.42918C5.1625 5.68597 4.91357 5.97189 4.61777 6.31164L3.13253 8.01766C4.31042 9.9483 6.04971 11.6884 7.98235 12.8675L9.68837 11.3822C10.0281 11.0864 10.314 10.8375 10.5708 10.6602C10.8432 10.4721 11.1222 10.3356 11.4551 10.3009C11.788 10.2662 12.0891 10.3421 12.3944 10.47C12.6823 10.5905 13.0134 10.7751 13.4069 10.9945L14.4752 11.5899C14.8105 11.7769 15.0644 12.0777 15.1424 12.4555C15.2213 12.8373 15.105 13.221 14.8479 13.5363C13.9153 14.6805 12.4211 15.4091 10.8537 15.0929C9.89015 14.8985 8.93949 14.5747 7.78968 13.9153C5.47945 12.5904 3.40806 10.5179 2.08468 8.21032C1.42527 7.06052 1.10146 6.10986 0.907097 5.14635C0.590899 3.57887 1.31946 2.08468 2.4637 1.15208C2.77905 0.895052 3.16275 0.778671 3.54449 0.857569ZM8.91378 13.3825C9.69136 13.7656 10.3677 13.9747 11.0514 14.1127C12.1821 14.3407 13.3236 13.8237 14.0728 12.9045C14.1711 12.7838 14.1717 12.6996 14.1631 12.6579C14.1537 12.6123 14.1155 12.5343 13.9883 12.4634L12.944 11.8813C12.5202 11.6451 12.2381 11.4887 12.0082 11.3924C11.7899 11.301 11.6647 11.2845 11.5588 11.2955C11.4529 11.3065 11.3338 11.3486 11.1391 11.483C10.934 11.6247 10.6902 11.8359 10.3243 12.1545L8.91378 13.3825ZM2.61755 7.08623L3.84554 5.6757C4.16409 5.30979 4.37535 5.06602 4.51699 4.86092C4.65145 4.66623 4.69346 4.5471 4.7045 4.44121C4.71554 4.33532 4.69902 4.21008 4.60762 3.99184C4.51134 3.76192 4.35493 3.47981 4.11872 3.05605L3.5366 2.01171C3.46568 1.88448 3.38769 1.8463 3.34208 1.83687C3.30041 1.82826 3.21616 1.82886 3.09548 1.92723C2.17629 2.6764 1.65926 3.81791 1.88735 4.94861C2.02527 5.63233 2.2344 6.30865 2.61755 7.08623Z" fill="white"/>
</svg>
