<svg width="20" height="22" viewBox="0 0 20 22" fill="none" xmlns="http://www.w3.org/2000/svg">
<path fill-rule="evenodd" clip-rule="evenodd" d="M18.5004 12.75C18.0866 12.7497 17.7509 12.4138 17.7509 12V6.82998C17.7509 5.22898 17.7508 4.42504 17.5348 3.89004C17.1828 2.99704 16.4378 2.29396 15.4888 1.95596C14.894 1.75 14.0342 1.75 12.3219 1.75H12.3209C12.0175 1.75 11.7291 1.75 11.4547 1.75039C10.0525 1.77459 8.9199 2.92208 8.9199 4.32998C8.9199 4.48969 8.92706 4.66192 8.9346 4.84326L8.93591 4.875C8.95991 5.421 8.98684 6.04102 8.83484 6.62002C8.61784 7.46002 7.95887 8.11904 7.11687 8.33604C6.53987 8.48704 5.9199 8.46004 5.3739 8.43604L5.33974 8.43462C5.1594 8.42711 4.98881 8.42002 4.82888 8.42002C3.42997 8.42002 2.28815 9.53816 2.24989 10.928L2.24988 12C2.24988 12.414 1.91388 12.75 1.49988 12.75C1.08588 12.75 0.749878 12.414 0.749878 12L0.749884 10.9918C0.750152 8.07164 0.761833 6.57662 1.27185 5.28398C2.10485 3.17498 3.86089 1.51603 6.09089 0.732031C7.34053 0.295882 8.78585 0.254367 11.4412 0.250416C11.4607 0.250139 11.4803 0.25 11.4999 0.25C11.5071 0.25 11.5144 0.250103 11.5216 0.250308C11.7763 0.25 12.0422 0.25 12.3199 0.25C14.2018 0.25 15.1458 0.25 15.9858 0.541992C17.3488 1.02799 18.4188 2.04496 18.9278 3.33496C19.2498 4.13496 19.2499 5.03598 19.2499 6.82998V12C19.2499 12.4138 18.9141 12.7497 18.5004 12.75ZM6.58787 2.14805C7.05748 1.98409 7.59413 1.88767 8.27666 1.83097C7.73984 2.52182 7.4199 3.38918 7.4199 4.32998C7.4199 4.53198 7.42887 4.74004 7.43787 4.94004L7.43803 4.94384C7.45798 5.40466 7.4786 5.88099 7.38386 6.24199C7.30186 6.55599 7.05592 6.80198 6.73992 6.88398C6.38084 6.97775 5.90435 6.95712 5.44345 6.93716L5.43992 6.93701C5.23892 6.92801 5.03186 6.91904 4.82986 6.91904C3.87718 6.91904 2.9998 7.24712 2.30475 7.79624C2.35785 6.96705 2.46231 6.3547 2.66785 5.83496C3.34085 4.13096 4.76987 2.78705 6.58787 2.14805Z" fill="#067647"/>
<path d="M14.2499 21.001C14.2499 21.415 14.5859 21.751 14.9999 21.751C15.4139 21.751 15.7499 21.415 15.7499 21.001V18.751H17.4999C17.9139 18.751 18.2499 18.415 18.2499 18.001C18.2499 17.587 17.9139 17.251 17.4999 17.251H15.7499V17.001C15.7499 16.524 15.7499 15.935 15.8209 15.822C15.9349 15.751 16.5238 15.751 16.9998 15.751H18.4999C18.9139 15.751 19.2499 15.415 19.2499 15.001C19.2499 14.587 18.9139 14.251 18.4999 14.251H16.9999C15.932 14.251 15.2869 14.251 14.7689 14.752L14.7509 14.77C14.2499 15.288 14.2499 15.9329 14.2499 17.0008V21.001Z" fill="#067647"/>
<path fill-rule="evenodd" clip-rule="evenodd" d="M7.92791 21.572C8.24091 21.751 8.55888 21.751 8.99988 21.751C11.0679 21.751 12.7499 20.068 12.7499 18C12.7499 15.932 11.0679 14.25 8.99988 14.25C8.55995 14.25 8.24082 14.25 7.92585 14.43C7.24285 14.823 7.24688 15.541 7.24988 15.926V20.074C7.24688 20.46 7.24191 21.177 7.92791 21.572ZM8.99429 20.251C8.91095 20.251 8.82324 20.251 8.74988 20.25V15.917C8.74888 15.868 8.74788 15.807 8.74988 15.752C8.82317 15.751 8.91175 15.751 8.99415 15.751H8.99988C10.2409 15.751 11.2499 16.76 11.2499 18.001C11.2499 19.242 10.2409 20.251 8.99988 20.251H8.99429Z" fill="#067647"/>
<path fill-rule="evenodd" clip-rule="evenodd" d="M0.749878 21.001C0.749878 21.415 1.08588 21.751 1.49988 21.751C1.91388 21.751 2.24988 21.415 2.24988 21.001V18.751H3.49988C4.74088 18.751 5.74988 17.742 5.74988 16.501C5.74988 15.26 4.74088 14.251 3.49988 14.251H2.69988C2.02788 14.251 1.53988 14.251 1.14988 14.651C0.749878 15.04 0.749878 15.528 0.749878 16.201V21.001ZM3.49988 17.251H2.24988V16.1977C2.24988 16.0436 2.24988 15.8771 2.25583 15.7569C2.37499 15.751 2.5425 15.751 2.6966 15.751H3.49988C3.91388 15.751 4.24988 16.087 4.24988 16.501C4.24988 16.915 3.91388 17.251 3.49988 17.251Z" fill="#067647"/>
</svg>
