<svg width="14" height="15" viewBox="0 0 14 15" fill="none" xmlns="http://www.w3.org/2000/svg">
<path d="M7.00008 4.66666C6.53984 4.66666 6.16675 5.03976 6.16675 5.5C6.16675 5.77614 5.94289 6 5.66675 6C5.39061 6 5.16675 5.77614 5.16675 5.5C5.16675 4.48748 5.98756 3.66666 7.00008 3.66666C8.0126 3.66666 8.83341 4.48748 8.83341 5.5C8.83341 5.86422 8.72669 6.20505 8.54263 6.49109C8.42734 6.67025 8.29256 6.84129 8.16828 6.99575L8.10125 7.07884C7.99815 7.20644 7.90345 7.32365 7.816 7.44385C7.60028 7.74033 7.50008 7.96313 7.50008 8.16666V8.5C7.50008 8.77614 7.27622 9 7.00008 9C6.72394 9 6.50008 8.77614 6.50008 8.5V8.16666C6.50008 7.63382 6.76169 7.19318 7.00739 6.8555C7.1112 6.71282 7.22496 6.57211 7.3284 6.44415L7.38918 6.36886C7.51264 6.21542 7.61773 6.08043 7.70168 5.94996C7.78502 5.82045 7.83341 5.66664 7.83341 5.5C7.83341 5.03976 7.46032 4.66666 7.00008 4.66666Z" fill="white"/>
<path d="M6.99487 10.1667C6.62668 10.1667 6.32821 10.4651 6.32821 10.8333C6.32821 11.2015 6.62668 11.5 6.99487 11.5H7.00086C7.36905 11.5 7.66753 11.2015 7.66753 10.8333C7.66753 10.4651 7.36905 10.1667 7.00086 10.1667H6.99487Z" fill="white"/>
<path fill-rule="evenodd" clip-rule="evenodd" d="M6.96197 0.666664H7.0382C8.49867 0.666655 9.64579 0.666648 10.5414 0.78706C11.4592 0.910451 12.1873 1.16847 12.7595 1.74061C13.3316 2.31274 13.5896 3.04091 13.713 3.95868C13.8334 4.85429 13.8334 6.0014 13.8334 7.46186V7.53811C13.8334 8.99857 13.8334 10.1457 13.713 11.0413C13.5896 11.9591 13.3316 12.6873 12.7595 13.2594C12.1873 13.8315 11.4592 14.0895 10.5414 14.2129C9.64579 14.3333 8.49868 14.3333 7.03822 14.3333H6.96197C5.50151 14.3333 4.35437 14.3333 3.45876 14.2129C2.54099 14.0895 1.81282 13.8315 1.24069 13.2594C0.668558 12.6873 0.410535 11.9591 0.287144 11.0413C0.166732 10.1457 0.166739 8.99858 0.166748 7.53811V7.46188C0.166739 6.00141 0.166732 4.85429 0.287144 3.95868C0.410535 3.04091 0.668558 2.31274 1.24069 1.74061C1.81282 1.16847 2.54099 0.910451 3.45876 0.78706C4.35438 0.666648 5.50149 0.666655 6.96197 0.666664ZM3.59201 1.77814C2.78513 1.88663 2.30316 2.09235 1.9478 2.44771C1.59243 2.80308 1.38671 3.28504 1.27823 4.09193C1.16781 4.91319 1.16675 5.99308 1.16675 7.5C1.16675 9.00691 1.16781 10.0868 1.27823 10.9081C1.38671 11.715 1.59243 12.1969 1.9478 12.5523C2.30316 12.9076 2.78513 13.1134 3.59201 13.2219C4.41328 13.3323 5.49317 13.3333 7.00008 13.3333C8.507 13.3333 9.58689 13.3323 10.4082 13.2219C11.215 13.1134 11.697 12.9076 12.0524 12.5523C12.4077 12.1969 12.6135 11.715 12.7219 10.9081C12.8324 10.0868 12.8334 9.00691 12.8334 7.5C12.8334 5.99308 12.8324 4.91319 12.7219 4.09193C12.6135 3.28504 12.4077 2.80308 12.0524 2.44771C11.697 2.09235 11.215 1.88663 10.4082 1.77814C9.58689 1.66773 8.507 1.66666 7.00008 1.66666C5.49317 1.66666 4.41328 1.66773 3.59201 1.77814Z" fill="white"/>
</svg>
