<svg width="25" height="24" viewBox="0 0 25 24" fill="none" xmlns="http://www.w3.org/2000/svg">
<path fill-rule="evenodd" clip-rule="evenodd" d="M16.5806 17.251C16.3916 17.251 16.2026 17.233 16.0146 17.196C15.2146 17.027 14.5406 16.767 13.8196 16.351C12.2046 15.429 10.7456 13.9681 9.81657 12.3441C9.39157 11.6081 9.13258 10.934 8.97458 10.16C8.74758 9.03599 9.20455 7.84899 10.1675 7.05999C10.4835 6.80299 10.8586 6.70103 11.2266 6.77103C11.5896 6.84003 11.9086 7.07808 12.1026 7.42308L12.4976 8.13704L12.4992 8.13988C12.8493 8.77029 13.0795 9.18478 13.0236 9.70999C12.9686 10.2447 12.6559 10.6017 12.1822 11.1422L12.1816 11.143L11.3936 12.047C12.0936 13.115 13.0526 14.075 14.1146 14.772L15.0206 13.983L15.0251 13.9791C15.5695 13.5063 15.9271 13.1959 16.4576 13.142C17.0076 13.086 17.4386 13.333 18.0346 13.675L18.7346 14.062C19.0816 14.25 19.3236 14.57 19.3946 14.938C19.4666 15.309 19.3636 15.685 19.1046 15.997C18.4556 16.796 17.5246 17.25 16.5796 17.25L16.5806 17.251ZM15.5506 15.513C15.8386 15.617 16.0906 15.679 16.3156 15.726C16.8116 15.824 17.3515 15.641 17.7675 15.242L17.3056 14.987C17.3056 14.987 17.3025 14.9853 17.2996 14.9835C17.2981 14.9826 17.2966 14.9817 17.2956 14.981C17.0746 14.854 16.7056 14.643 16.6086 14.637C16.5296 14.663 16.2536 14.902 16.0106 15.113L15.5506 15.513ZM10.4446 9.86107C10.3266 9.27842 10.5912 8.75165 10.9269 8.39765L11.1876 8.868L11.2099 8.90851C11.3618 9.1834 11.5134 9.45777 11.5296 9.55404C11.4976 9.64604 11.2616 9.91606 11.0506 10.1571L10.6526 10.614C10.5656 10.372 10.4986 10.1251 10.4446 9.86107Z" fill="#067647"/>
<path fill-rule="evenodd" clip-rule="evenodd" d="M14.1665 22.75H12.6665C8.69371 22.75 6.69946 22.75 5.3085 21.361C4.63244 20.6859 4.28472 19.8681 4.10589 18.75H3.1665C2.7525 18.75 2.4165 18.414 2.4165 18C2.4165 17.586 2.7525 17.25 3.1665 17.25H3.96194C3.9165 16.3391 3.9165 15.2707 3.9165 14.0001V12.75H3.1665C2.7525 12.75 2.4165 12.414 2.4165 12C2.4165 11.586 2.7525 11.25 3.1665 11.25H3.9165V10C3.9165 8.72934 3.9165 7.66093 3.96194 6.75H3.1665C2.7525 6.75 2.4165 6.414 2.4165 6C2.4165 5.586 2.7525 5.25 3.1665 5.25H4.10589C4.28472 4.13185 4.63244 3.31405 5.3085 2.63896C6.69846 1.25 8.6934 1.25 12.6662 1.25H14.1665C18.1393 1.25 20.1335 1.25 21.5245 2.63896C22.9165 4.02896 22.9165 6.02398 22.9165 9.99993V14C22.9165 17.976 22.9165 19.971 21.5245 21.361C20.1345 22.75 18.1393 22.75 14.1665 22.75ZM5.63266 5.25C5.77082 4.56928 5.99729 4.07142 6.36851 3.70098C7.31948 2.75 9.10642 2.75 12.6662 2.75H14.1665C17.7263 2.75 19.5125 2.75 20.4645 3.70098C21.4165 4.65098 21.4165 6.439 21.4165 10V14C21.4165 17.561 21.4165 19.349 20.4645 20.299C19.5135 21.25 17.7266 21.25 14.1668 21.25H12.6665C9.10668 21.25 7.32048 21.25 6.36851 20.299C5.99729 19.9286 5.77082 19.4307 5.63266 18.75H5.6665C6.0805 18.75 6.4165 18.414 6.4165 18C6.4165 17.586 6.0805 17.25 5.6665 17.25H5.46354C5.4165 16.3746 5.4165 15.3067 5.4165 14V12.75H5.6665C6.0805 12.75 6.4165 12.414 6.4165 12C6.4165 11.586 6.0805 11.25 5.6665 11.25H5.4165V10C5.4165 8.69335 5.4165 7.62541 5.46354 6.75H5.6665C6.0805 6.75 6.4165 6.414 6.4165 6C6.4165 5.586 6.0805 5.25 5.6665 5.25H5.63266Z" fill="#067647"/>
</svg>
