<svg width="25" height="24" viewBox="0 0 25 24" fill="none" xmlns="http://www.w3.org/2000/svg">
<path fill-rule="evenodd" clip-rule="evenodd" d="M12.3333 3.25C9.98604 3.25 8.08325 5.15279 8.08325 7.5C8.08325 9.84721 9.98604 11.75 12.3333 11.75C14.6805 11.75 16.5833 9.84721 16.5833 7.5C16.5833 5.15279 14.6805 3.25 12.3333 3.25ZM9.58325 7.5C9.58325 5.98122 10.8145 4.75 12.3333 4.75C13.852 4.75 15.0833 5.98122 15.0833 7.5C15.0833 9.01878 13.852 10.25 12.3333 10.25C10.8145 10.25 9.58325 9.01878 9.58325 7.5Z" fill="#067647"/>
<path d="M5.8333 5.25C4.03837 5.25 2.5833 6.70507 2.5833 8.5C2.5833 10.2949 4.03837 11.75 5.8333 11.75C6.24751 11.75 6.5833 11.4142 6.5833 11C6.5833 10.5858 6.24751 10.25 5.8333 10.25C4.8668 10.25 4.0833 9.4665 4.0833 8.5C4.0833 7.5335 4.8668 6.75 5.8333 6.75C6.24751 6.75 6.5833 6.41421 6.5833 6C6.5833 5.58579 6.24751 5.25 5.8333 5.25Z" fill="#067647"/>
<path d="M6.08024 12.9324C6.04292 12.5199 5.67825 12.2157 5.26572 12.253C4.32719 12.338 3.41464 12.699 2.61035 13.3184C2.56401 13.3541 2.50296 13.3985 2.43123 13.4506C2.09055 13.6985 1.50885 14.1217 1.11684 14.6179C0.866354 14.935 0.632114 15.3499 0.589941 15.8489C0.545775 16.3714 0.720951 16.8791 1.09651 17.3418C1.67136 18.0501 2.46016 18.75 3.55925 18.75C3.97347 18.75 4.30925 18.4142 4.30925 18C4.30925 17.5858 3.97347 17.25 3.55925 17.25C3.15974 17.25 2.75657 17.0069 2.26117 16.3965C2.089 16.1844 2.07821 16.051 2.08461 15.9752C2.09301 15.8758 2.14589 15.7351 2.29387 15.5477C2.54312 15.2322 2.8925 14.9754 3.2321 14.7258C3.33168 14.6526 3.43041 14.5801 3.52553 14.5068C4.1159 14.0522 4.76056 13.8049 5.40087 13.747C5.8134 13.7096 6.11757 13.345 6.08024 12.9324Z" fill="#067647"/>
<path d="M18.3333 5.25C17.919 5.25 17.5833 5.58579 17.5833 6C17.5833 6.41421 17.919 6.75 18.3333 6.75C19.2997 6.75 20.0833 7.5335 20.0833 8.5C20.0833 9.4665 19.2997 10.25 18.3333 10.25C17.919 10.25 17.5833 10.5858 17.5833 11C17.5833 11.4142 17.919 11.75 18.3333 11.75C20.1282 11.75 21.5833 10.2949 21.5833 8.5C21.5833 6.70507 20.1282 5.25 18.3333 5.25Z" fill="#067647"/>
<path d="M19.4008 12.253C18.9883 12.2157 18.6236 12.5199 18.5863 12.9324C18.549 13.345 18.8531 13.7096 19.2657 13.747C19.906 13.8049 20.5506 14.0522 21.141 14.5068C21.2361 14.5801 21.3348 14.6526 21.4344 14.7258C21.774 14.9754 22.1234 15.2322 22.3727 15.5477C22.5207 15.7351 22.5735 15.8758 22.5819 15.9752C22.5883 16.051 22.5775 16.1844 22.4054 16.3965C21.91 17.0069 21.5068 17.25 21.1073 17.25C20.6931 17.25 20.3573 17.5858 20.3573 18C20.3573 18.4142 20.6931 18.75 21.1073 18.75C22.2064 18.75 22.9952 18.0501 23.57 17.3418C23.9456 16.8791 24.1208 16.3714 24.0766 15.8489C24.0344 15.3499 23.8002 14.935 23.5497 14.6179C23.1577 14.1217 22.5761 13.6986 22.2354 13.4507C22.1637 13.3985 22.1025 13.3541 22.0562 13.3184C21.2519 12.699 20.3394 12.338 19.4008 12.253Z" fill="#067647"/>
<path fill-rule="evenodd" clip-rule="evenodd" d="M8.02276 14.4733C10.6605 12.8422 14.0063 12.8422 16.644 14.4733C16.7218 14.5214 16.8202 14.579 16.9334 14.6452C17.4456 14.9449 18.2589 15.4208 18.8139 15.9849C19.1624 16.3391 19.51 16.8221 19.5733 17.4242C19.6412 18.0683 19.3677 18.6646 18.8462 19.1806C17.9846 20.033 16.9172 20.75 15.5178 20.75H9.14903C7.74957 20.75 6.68224 20.033 5.82062 19.1806C5.29905 18.6646 5.02565 18.0683 5.09345 17.4242C5.15683 16.8221 5.50442 16.3391 5.85295 15.9849C6.40785 15.4208 7.22104 14.945 7.73331 14.6452C7.84649 14.579 7.94499 14.5214 8.02276 14.4733ZM15.8552 15.7491C13.7008 14.417 10.966 14.417 8.81164 15.7491C8.68233 15.8291 8.54366 15.9108 8.40059 15.9952C7.88872 16.297 7.32045 16.6321 6.92223 17.0368C6.67724 17.2859 6.59716 17.4676 6.58521 17.5812C6.57768 17.6527 6.58129 17.8231 6.87558 18.1143C7.60812 18.839 8.31627 19.25 9.14903 19.25H15.5178C16.3505 19.25 17.0587 18.839 17.7912 18.1143C18.0855 17.8231 18.0891 17.6527 18.0816 17.5812C18.0696 17.4676 17.9896 17.2859 17.7446 17.0368C17.3463 16.6321 16.7781 16.297 16.2662 15.9952C16.1232 15.9108 15.9845 15.8291 15.8552 15.7491Z" fill="#067647"/>
</svg>
