<svg width="25" height="24" viewBox="0 0 25 24" fill="none" xmlns="http://www.w3.org/2000/svg">
<path d="M3.75046 11.9997C3.75046 12.3733 3.91611 12.7198 4.07298 12.9801C4.24225 13.2609 4.4699 13.5508 4.71964 13.8335C5.22063 14.4006 5.87432 15.0095 6.50869 15.5604C7.14679 16.1145 7.78268 16.6247 8.25771 16.9955C8.49562 17.1812 8.69409 17.3326 8.8335 17.4379C8.90322 17.4906 8.95822 17.5318 8.99604 17.56L9.03961 17.5924L9.05117 17.6009L9.05518 17.6039C9.38868 17.8495 9.85862 17.7787 10.1043 17.4452C10.3499 17.1117 10.2787 16.6422 9.94527 16.3965L9.93255 16.3871L9.89249 16.3573C9.85708 16.3309 9.80465 16.2917 9.73766 16.2411C9.60363 16.1398 9.41148 15.9932 9.18065 15.8131C8.71818 15.4521 8.10409 14.9592 7.49219 14.4278C6.87657 13.8932 6.28027 13.3344 5.84377 12.8404C5.81616 12.8091 5.78944 12.7784 5.76362 12.7482L20.5005 12.7482C20.9147 12.7482 21.2505 12.4124 21.2505 11.9982C21.2505 11.584 20.9147 11.2482 20.5005 11.2482L5.76616 11.2482C5.79119 11.219 5.81706 11.1893 5.84377 11.1591C6.28027 10.665 6.87657 10.1062 7.49219 9.57159C8.10409 9.04023 8.71818 8.54734 9.18064 8.18637C9.41148 8.00619 9.60362 7.8596 9.73766 7.75834C9.80465 7.70773 9.85707 7.66849 9.89249 7.64209L9.93254 7.61232L9.94527 7.60291C10.2787 7.35724 10.3499 6.88776 10.1043 6.55427C9.85861 6.22077 9.38868 6.14988 9.05518 6.39554L9.05117 6.3985L9.03961 6.40705L8.99604 6.43944C8.95821 6.46763 8.90322 6.50881 8.8335 6.56148C8.69409 6.66679 8.49561 6.81822 8.2577 7.00392C7.78268 7.37469 7.14678 7.88491 6.50869 8.43901C5.87432 8.98988 5.22063 9.59886 4.71964 10.1659C4.4699 10.4486 4.24225 10.7385 4.07298 11.0194C3.91705 11.278 3.75245 11.622 3.75047 11.993" fill="white"/>
</svg>
