<svg width="24" height="24" viewBox="0 0 24 24" fill="none" xmlns="http://www.w3.org/2000/svg">
<path d="M8.55747 17.3955C8.71885 17.2737 9.20059 16.9097 9.4783 16.693C10.0345 16.2589 10.7736 15.6658 11.5105 15.026C12.2511 14.383 12.9724 13.7075 13.5027 13.1074C13.7685 12.8065 13.9706 12.5421 14.1021 12.324C14.2257 12.1188 14.2515 11.9977 14.2515 11.9977C14.2515 11.9977 14.2257 11.88 14.1021 11.6749C13.9706 11.4568 13.7685 11.1924 13.5027 10.8915C12.9724 10.2914 12.2511 9.61589 11.5105 8.97285C10.7736 8.33304 10.0345 7.73993 9.47827 7.30586C9.20055 7.08913 8.71949 6.72573 8.55812 6.60384C8.22459 6.35821 8.15266 5.8882 8.39829 5.55468C8.64392 5.22116 9.11342 5.14991 9.44694 5.39554L9.44948 5.39746C9.61874 5.5253 10.1178 5.9022 10.4011 6.12333C10.9699 6.56721 11.7308 7.17764 12.4939 7.84019C13.2533 8.49951 14.032 9.22518 14.6267 9.8983C14.9233 10.234 15.1901 10.5743 15.3867 10.9005C15.5709 11.206 15.7522 11.5929 15.7522 11.9994C15.7522 12.406 15.5709 12.7928 15.3867 13.0984C15.1901 13.4246 14.9233 13.7649 14.6267 14.1006C14.032 14.7737 13.2533 15.4994 12.4939 16.1587C11.7308 16.8212 10.9699 17.4317 10.4011 17.8755C10.1176 18.0968 9.61856 18.4738 9.44966 18.6013L9.44747 18.603C9.11395 18.8486 8.64398 18.7777 8.39834 18.4442C8.15271 18.1107 8.22398 17.6412 8.55747 17.3955Z" fill="#161616"/>
</svg>
