<svg width="24" height="24" viewBox="0 0 24 24" fill="none" xmlns="http://www.w3.org/2000/svg">
<path fill-rule="evenodd" clip-rule="evenodd" d="M12 22.75C6.06294 22.75 1.25 17.9371 1.25 12C1.25 6.06294 6.06294 1.25 12 1.25C17.9371 1.25 22.75 6.06294 22.75 12C22.75 17.9371 17.9371 22.75 12 22.75ZM8.04401 20.3638C5.0351 18.9381 2.91834 15.9365 2.75958 12.4249C3.42856 12.7735 4.21341 13.0182 5.08879 13.0182C5.72252 13.0182 6.18837 13.0491 6.53488 13.114C6.88029 13.1787 7.05382 13.2678 7.14832 13.3452C7.30799 13.4759 7.45842 13.7552 7.45842 14.7518L7.45841 14.8261C7.45836 15.7489 7.45833 16.2972 7.53166 16.7875C7.60716 17.2924 7.75891 17.7272 8.00023 18.4186L8.02022 18.4759C8.3024 19.2847 8.34168 19.8764 8.04401 20.3638ZM12 21.25C11.1197 21.25 10.2682 21.127 9.46156 20.8974C9.945 19.9043 9.73898 18.8487 9.43649 17.9818C9.1695 17.2166 9.06758 16.9162 9.01516 16.5657C8.96045 16.1998 8.95842 15.7708 8.95842 14.7518C8.95842 13.7615 8.84887 12.799 8.09865 12.1846C7.7382 11.8895 7.29431 11.7302 6.81106 11.6397C6.32893 11.5494 5.7549 11.5182 5.08879 11.5182C4.23884 11.5182 3.46886 11.1731 2.83905 10.7113C3.33809 7.1311 5.88643 4.207 9.2608 3.1623C9.23881 3.44333 9.25012 3.72416 9.29742 3.99689C9.43481 4.78913 9.88585 5.53555 10.7127 5.93688C11.0279 6.0899 11.1546 6.24438 11.2244 6.3734C11.3081 6.52825 11.3493 6.7158 11.3956 7.02719C11.4006 7.06062 11.4056 7.0953 11.4107 7.13113C11.4958 7.72705 11.6258 8.63711 12.6319 9.28826C13.3114 9.72801 14.1618 9.88579 15.063 9.62062C15.9471 9.36045 16.8187 8.71329 17.6314 7.66131C18.1324 7.01286 18.8113 6.68053 19.4629 6.53382C20.5864 8.06518 21.25 9.9551 21.25 12C21.25 12.1156 21.2479 12.2307 21.2437 12.3453C20.3863 12.1416 19.4091 12.2318 18.4357 12.9315C17.5347 13.579 16.8006 13.6346 16.1261 13.6654L16.0337 13.6694C15.7273 13.6823 15.3368 13.6988 14.9892 13.8084C14.5361 13.9513 14.1579 14.242 13.897 14.742C13.5315 15.4425 13.5916 16.0604 13.7894 16.6007C13.8769 16.8394 13.9933 17.0694 14.0917 17.2638L14.0981 17.2765C14.204 17.4857 14.2969 17.67 14.3745 17.8668C14.5207 18.2377 14.6089 18.6461 14.5159 19.1912C14.4348 19.6662 14.2093 20.2833 13.7015 21.0938C13.15 21.1964 12.5812 21.25 12 21.25ZM15.6988 20.4809C18.4209 19.292 20.4602 16.8309 21.0651 13.8491C20.5075 13.6707 19.9191 13.7125 19.3111 14.1495C18.0563 15.0514 16.9694 15.1285 16.1945 15.1639C15.7876 15.1824 15.5911 15.1914 15.4404 15.2389C15.3593 15.2645 15.3006 15.2944 15.2268 15.4359C15.0996 15.6797 15.1098 15.8442 15.198 16.0848C15.2516 16.2313 15.3288 16.3865 15.4365 16.5992L15.4444 16.6147C15.5443 16.8122 15.6656 17.0518 15.7701 17.3169C15.9936 17.8841 16.1431 18.5726 15.9945 19.4435C15.9387 19.7704 15.8424 20.1148 15.6988 20.4809ZM10.8411 2.8219C10.7475 3.14221 10.7271 3.46215 10.7754 3.74057C10.8451 4.14261 11.0475 4.43204 11.3677 4.58744C11.9324 4.86153 12.3081 5.22385 12.5439 5.66013C12.7658 6.07057 12.8332 6.49679 12.8793 6.80644L12.8832 6.83284C12.9775 7.46687 13.02 7.75266 13.4469 8.02898C13.7671 8.23617 14.1662 8.3209 14.6395 8.18162C15.1299 8.03734 15.7577 7.63311 16.4444 6.74425C17.0026 6.02173 17.6934 5.57206 18.3796 5.30198C16.7199 3.72073 14.4733 2.75 12 2.75C11.6075 2.75 11.2207 2.77445 10.8411 2.8219Z" fill="#161616"/>
</svg>
