<svg width="24" height="24" viewBox="0 0 24 24" fill="none" xmlns="http://www.w3.org/2000/svg">
<path fill-rule="evenodd" clip-rule="evenodd" d="M7.99996 4.25C7.47572 4.25 7.04783 4.49075 6.71028 4.83114C6.38806 5.15608 6.11716 5.60036 5.8682 6.10531C5.37572 7.10417 4.86012 8.57487 4.20523 10.4429L1.2922 18.7519C1.15516 19.1428 1.36094 19.5707 1.75183 19.7078C2.14271 19.8448 2.57068 19.639 2.70772 19.2481L4.98589 12.75H11.014L13.2922 19.2481C13.4292 19.639 13.8572 19.8448 14.2481 19.7078C14.639 19.5707 14.8448 19.1428 14.7077 18.7519L11.7947 10.4429C11.1398 8.57491 10.6242 7.10419 10.1317 6.10532C9.88276 5.60036 9.61186 5.15608 9.28964 4.83114C8.95209 4.49075 8.5242 4.25 7.99996 4.25ZM10.4881 11.25H5.51178L5.60081 10.996C6.27986 9.05915 6.76637 7.67563 7.21356 6.76864C7.43692 6.31561 7.62262 6.0414 7.77539 5.88734C7.91163 5.74996 7.97717 5.74999 7.99938 5.75H8.00054C8.02275 5.74999 8.0883 5.74996 8.22453 5.88734C8.3773 6.0414 8.563 6.31561 8.78636 6.76864C9.23354 7.67563 9.72005 9.05915 10.3991 10.996L10.4881 11.25Z" fill="#161616"/>
<path fill-rule="evenodd" clip-rule="evenodd" d="M19.2966 9.1514C18.6242 9.06989 17.9472 9.10785 17.2836 9.41406C16.6251 9.71791 16.0588 10.2493 15.5355 11.0118C15.3011 11.3533 15.388 11.8202 15.7295 12.0546C16.071 12.289 16.5379 12.2021 16.7723 11.8606C17.1969 11.2419 17.5732 10.9324 17.9121 10.7761C18.2458 10.6221 18.6211 10.5805 19.1161 10.6405C20.1935 10.7711 21.0408 11.3813 21.1834 12.1195C21.2375 12.3998 21.2571 12.7417 21.2493 13.1892L19.126 13.1892C18.6733 13.1892 18.1491 13.2094 17.6267 13.3547C14.3021 14.2789 14.5079 19.0001 17.8963 19.5841C18.2313 19.6418 18.578 19.6674 18.9265 19.6518C19.8224 19.6118 20.5951 19.1844 21.1913 18.7233C21.2129 18.7066 21.2347 18.6896 21.2565 18.6722C21.3545 18.9723 21.6367 19.1892 21.9696 19.1892C22.3838 19.1892 22.7196 18.8534 22.7196 18.4392V13.9606C22.766 13.1425 22.7732 12.4409 22.6562 11.835C22.3328 10.1604 20.6589 9.31654 19.2966 9.1514ZM19.126 14.6892L21.2196 14.6892V15.9392C21.2196 16.6201 20.8319 17.105 20.2736 17.5368C19.7967 17.9056 19.319 18.1328 18.8596 18.1533C18.6279 18.1637 18.3893 18.1469 18.1511 18.1059C16.3791 17.8005 16.2078 15.306 18.0285 14.7998C18.3478 14.7111 18.705 14.6892 19.126 14.6892Z" fill="#161616"/>
</svg>
