<svg width="14" height="15" viewBox="0 0 14 15" fill="none" xmlns="http://www.w3.org/2000/svg">
<path d="M7 4.66666C6.53976 4.66666 6.16666 5.03976 6.16666 5.5C6.16666 5.77614 5.94281 6 5.66666 6C5.39052 6 5.16666 5.77614 5.16666 5.5C5.16666 4.48748 5.98748 3.66666 7 3.66666C8.01252 3.66666 8.83333 4.48748 8.83333 5.5C8.83333 5.86422 8.7266 6.20505 8.54254 6.49109C8.42726 6.67025 8.29248 6.84129 8.1682 6.99575L8.10116 7.07884C7.99806 7.20644 7.90337 7.32365 7.81591 7.44385C7.60019 7.74033 7.5 7.96313 7.5 8.16666V8.5C7.5 8.77614 7.27614 9 7 9C6.72386 9 6.5 8.77614 6.5 8.5V8.16666C6.5 7.63382 6.76161 7.19318 7.0073 6.8555C7.11112 6.71282 7.22487 6.57211 7.32832 6.44415L7.38909 6.36886C7.51255 6.21542 7.61765 6.08043 7.7016 5.94996C7.78494 5.82045 7.83333 5.66664 7.83333 5.5C7.83333 5.03976 7.46024 4.66666 7 4.66666Z" fill="#161616"/>
<path d="M6.99479 10.1667C6.6266 10.1667 6.32812 10.4651 6.32812 10.8333C6.32812 11.2015 6.6266 11.5 6.99479 11.5H7.00078C7.36897 11.5 7.66744 11.2015 7.66744 10.8333C7.66744 10.4651 7.36897 10.1667 7.00078 10.1667H6.99479Z" fill="#161616"/>
<path fill-rule="evenodd" clip-rule="evenodd" d="M6.96188 0.666664H7.03811C8.49858 0.666655 9.6457 0.666648 10.5413 0.78706C11.4591 0.910451 12.1873 1.16847 12.7594 1.74061C13.3315 2.31274 13.5895 3.04091 13.7129 3.95868C13.8333 4.85429 13.8333 6.0014 13.8333 7.46186V7.53811C13.8333 8.99857 13.8333 10.1457 13.7129 11.0413C13.5895 11.9591 13.3315 12.6873 12.7594 13.2594C12.1873 13.8315 11.4591 14.0895 10.5413 14.2129C9.64571 14.3333 8.49859 14.3333 7.03813 14.3333H6.96189C5.50142 14.3333 4.35429 14.3333 3.45868 14.2129C2.54091 14.0895 1.81274 13.8315 1.24061 13.2594C0.668474 12.6873 0.410451 11.9591 0.28706 11.0413C0.166648 10.1457 0.166655 8.99858 0.166664 7.53811V7.46188C0.166655 6.00141 0.166648 4.85429 0.28706 3.95868C0.410451 3.04091 0.668474 2.31274 1.24061 1.74061C1.81274 1.16847 2.54091 0.910451 3.45868 0.78706C4.35429 0.666648 5.50141 0.666655 6.96188 0.666664ZM3.59193 1.77814C2.78504 1.88663 2.30308 2.09235 1.94771 2.44771C1.59235 2.80308 1.38663 3.28504 1.27814 4.09193C1.16773 4.91319 1.16666 5.99308 1.16666 7.5C1.16666 9.00691 1.16773 10.0868 1.27814 10.9081C1.38663 11.715 1.59235 12.1969 1.94771 12.5523C2.30308 12.9076 2.78504 13.1134 3.59193 13.2219C4.41319 13.3323 5.49308 13.3333 7 13.3333C8.50691 13.3333 9.5868 13.3323 10.4081 13.2219C11.215 13.1134 11.6969 12.9076 12.0523 12.5523C12.4076 12.1969 12.6134 11.715 12.7219 10.9081C12.8323 10.0868 12.8333 9.00691 12.8333 7.5C12.8333 5.99308 12.8323 4.91319 12.7219 4.09193C12.6134 3.28504 12.4076 2.80308 12.0523 2.44771C11.6969 2.09235 11.215 1.88663 10.4081 1.77814C9.5868 1.66773 8.50691 1.66666 7 1.66666C5.49308 1.66666 4.41319 1.66773 3.59193 1.77814Z" fill="#161616"/>
</svg>
