<svg width="18" height="18" viewBox="0 0 18 18" fill="none" xmlns="http://www.w3.org/2000/svg">
<path fill-rule="evenodd" clip-rule="evenodd" d="M4.625 9.00016C4.625 6.58392 6.58375 4.62516 9 4.62516C11.4162 4.62516 13.375 6.58392 13.375 9.00016C13.375 11.4164 11.4162 13.3752 9 13.3752C6.58375 13.3752 4.625 11.4164 4.625 9.00016ZM9 5.87516C7.27411 5.87516 5.875 7.27427 5.875 9.00016C5.875 10.7261 7.27411 12.1252 9 12.1252C10.7259 12.1252 12.125 10.7261 12.125 9.00016C12.125 7.27427 10.7259 5.87516 9 5.87516Z" fill="white"/>
<path d="M13.5898 5.25016C14.0501 5.25016 14.4232 4.87707 14.4232 4.41683C14.4232 3.95659 14.0501 3.5835 13.5898 3.5835H13.5824C13.1221 3.5835 12.749 3.95659 12.749 4.41683C12.749 4.87707 13.1221 5.25016 13.5824 5.25016H13.5898Z" fill="white"/>
<path fill-rule="evenodd" clip-rule="evenodd" d="M9.04764 0.458496C10.8732 0.458485 12.3071 0.458477 13.4266 0.608991C14.5739 0.76323 15.4841 1.08576 16.1992 1.80092C16.9144 2.51609 17.2369 3.4263 17.3912 4.57352C17.5417 5.69302 17.5417 7.12692 17.5417 8.95249V9.0478C17.5417 10.8734 17.5417 12.3073 17.3912 13.4268C17.2369 14.574 16.9144 15.4842 16.1992 16.1994C15.4841 16.9146 14.5739 17.2371 13.4266 17.3913C12.3071 17.5418 10.8732 17.5418 9.04767 17.5418H8.95236C7.12678 17.5418 5.69286 17.5418 4.57335 17.3913C3.42614 17.2371 2.51593 16.9146 1.80076 16.1994C1.08559 15.4842 0.763066 14.574 0.608827 13.4268C0.458312 12.3073 0.458321 10.8734 0.458332 9.04781L0.458332 8.95252C0.458321 7.12693 0.458312 5.69303 0.608827 4.57352C0.763066 3.4263 1.08559 2.51609 1.80076 1.80092C2.51593 1.08576 3.42614 0.76323 4.57335 0.608991C5.69286 0.458477 7.12675 0.458485 8.95232 0.458496L9.04764 0.458496ZM4.73991 1.84784C3.73131 1.98345 3.12885 2.2406 2.68464 2.68481C2.24044 3.12901 1.98328 3.73147 1.84768 4.74008C1.70966 5.76666 1.70833 7.11652 1.70833 9.00016C1.70833 10.8838 1.70966 12.2337 1.84768 13.2602C1.98328 14.2689 2.24044 14.8713 2.68464 15.3155C3.12885 15.7597 3.73131 16.0169 4.73991 16.1525C5.76649 16.2905 7.11635 16.2918 9 16.2918C10.8836 16.2918 12.2335 16.2905 13.2601 16.1525C14.2687 16.0169 14.8712 15.7597 15.3154 15.3155C15.7596 14.8713 16.0167 14.2689 16.1523 13.2602C16.2903 12.2337 16.2917 10.8838 16.2917 9.00016C16.2917 7.11652 16.2903 5.76666 16.1523 4.74007C16.0167 3.73147 15.7596 3.12901 15.3154 2.68481C14.8712 2.2406 14.2687 1.98345 13.2601 1.84784C12.2335 1.70982 10.8836 1.7085 9 1.7085C7.11635 1.7085 5.76649 1.70982 4.73991 1.84784Z" fill="white"/>
</svg>
