<svg width="14" height="18" viewBox="0 0 14 18" fill="none" xmlns="http://www.w3.org/2000/svg">
<path fill-rule="evenodd" clip-rule="evenodd" d="M3.49621 5.29613C3.49621 2.35832 6.01757 0.0415039 9.04545 0.0415039L11.8485 0.0415039C12.0648 0.0415039 12.2789 0.0513767 12.4725 0.0913728C12.6712 0.132404 12.8901 0.213414 13.0746 0.386845C13.4377 0.728284 13.4583 1.23161 13.4583 1.59243V3.44428C13.4583 3.8051 13.4377 4.30843 13.0746 4.64987C12.8901 4.8233 12.6712 4.90431 12.4725 4.94534C12.2789 4.98534 12.0648 4.99521 11.8485 4.99521L9.04545 4.99521C8.80983 4.99521 8.6856 5.1657 8.6856 5.29613V6.98595L10.6944 6.98595C10.9715 6.98595 11.2363 6.99966 11.4657 7.05075C11.6948 7.10179 11.9654 7.20688 12.1613 7.45113C12.3624 7.70179 12.4008 7.99299 12.3892 8.23345C12.3778 8.46765 12.3161 8.72041 12.2393 8.97298L11.8172 10.3619C11.7304 10.6476 11.6005 11.0046 11.2754 11.2352C10.9597 11.4591 10.5796 11.4767 10.2723 11.4767H8.6856V16.4072C8.6856 16.7681 8.665 17.2714 8.30184 17.6128C8.11737 17.7863 7.89846 17.8673 7.6998 17.9083C7.50615 17.9483 7.29208 17.9582 7.07575 17.9582H5.10606C4.88973 17.9582 4.67567 17.9483 4.48201 17.9083C4.28335 17.8673 4.06444 17.7863 3.87997 17.6128C3.51681 17.2714 3.49621 16.7681 3.49621 16.4072L3.49621 11.4767H2.15151C1.93518 11.4767 1.72112 11.4668 1.52747 11.4268C1.3288 11.3858 1.1099 11.3048 0.925429 11.1313C0.562262 10.7899 0.541664 10.2866 0.541664 9.92576L0.541664 8.53687C0.541664 8.17606 0.562262 7.67273 0.925429 7.33129C1.1099 7.15786 1.3288 7.07685 1.52747 7.03582C1.72112 6.99582 1.93518 6.98595 2.15151 6.98595L3.49621 6.98595L3.49621 5.29613ZM9.04545 1.2915C6.63416 1.2915 4.74621 3.1202 4.74621 5.29613L4.74621 7.61095C4.74621 7.95613 4.46639 8.23595 4.12121 8.23595H2.15151C1.98326 8.23595 1.87574 8.24379 1.80644 8.25517C1.79799 8.3125 1.79166 8.40098 1.79166 8.53687L1.79166 9.92576C1.79166 10.0617 1.79799 10.1501 1.80644 10.2075C1.87574 10.2188 1.98326 10.2267 2.15151 10.2267H4.12121C4.46639 10.2267 4.74621 10.5065 4.74621 10.8517L4.74621 16.4072C4.74621 16.5431 4.75255 16.6316 4.76099 16.689C4.83029 16.7003 4.93781 16.7082 5.10606 16.7082H7.07575C7.244 16.7082 7.35153 16.7003 7.42083 16.689C7.42927 16.6316 7.4356 16.5431 7.4356 16.4072L7.4356 10.8517C7.4356 10.5065 7.71542 10.2267 8.0606 10.2267H10.2723C10.4135 10.2267 10.4948 10.2197 10.5434 10.2107C10.5616 10.1743 10.5871 10.1106 10.6212 9.99841L11.0433 8.60952C11.0912 8.45206 11.1178 8.33924 11.1308 8.25932C11.0356 8.24506 10.8962 8.23595 10.6944 8.23595H8.0606C7.71542 8.23595 7.4356 7.95613 7.4356 7.61095L7.4356 5.29613C7.4356 4.40382 8.19324 3.74521 9.04545 3.74521L11.8485 3.74521C12.0167 3.74521 12.1243 3.73737 12.1936 3.72599C12.202 3.66866 12.2083 3.58018 12.2083 3.44428V1.59243C12.2083 1.45653 12.202 1.36806 12.1936 1.31072C12.1243 1.29935 12.0167 1.2915 11.8485 1.2915L9.04545 1.2915Z" fill="white"/>
</svg>
