<svg width="28" height="28" viewBox="0 0 28 28" fill="none" xmlns="http://www.w3.org/2000/svg">
<path fill-rule="evenodd" clip-rule="evenodd" d="M14.0002 18.375C11.5839 18.375 9.62516 16.4162 9.62516 14C9.62516 11.5837 11.5839 9.62498 14.0002 9.62498C16.4164 9.62498 18.3752 11.5837 18.3752 14C18.3752 16.4162 16.4164 18.375 14.0002 18.375ZM11.3752 14C11.3752 15.4497 12.5504 16.625 14.0002 16.625C15.4499 16.625 16.6252 15.4497 16.6252 14C16.6252 12.5502 15.4499 11.375 14.0002 11.375C12.5504 11.375 11.3752 12.5502 11.3752 14Z" fill="#067647"/>
<path fill-rule="evenodd" clip-rule="evenodd" d="M14.0002 4.95831C11.0012 4.95831 8.43044 6.27829 6.44052 7.83179C4.44881 9.3867 2.97664 11.223 2.15314 12.3778L2.09105 12.4643C1.7957 12.8751 1.4585 13.3441 1.4585 14C1.4585 14.6559 1.7957 15.1249 2.09105 15.5356L2.15314 15.6222C2.97664 16.777 4.44881 18.6133 6.44052 20.1682C8.43044 21.7217 11.0012 23.0416 14.0002 23.0416C16.9992 23.0416 19.5699 21.7217 21.5598 20.1682C23.5515 18.6133 25.0237 16.7769 25.8472 15.6222L25.9093 15.5356C26.2046 15.1249 26.5418 14.6559 26.5418 14C26.5418 13.3441 26.2046 12.8751 25.9093 12.4643L25.8472 12.3778C25.0237 11.223 23.5515 9.38669 21.5598 7.83179C19.5699 6.27829 16.9992 4.95831 14.0002 4.95831ZM3.57794 13.3938C4.34818 12.3138 5.70793 10.6239 7.51742 9.21121C9.32868 7.79718 11.5284 6.70831 14.0002 6.70831C16.4719 6.70831 18.6716 7.79718 20.4829 9.21121C22.2924 10.6239 23.6521 12.3138 24.4224 13.3938C24.6129 13.661 24.7036 13.7915 24.7577 13.8954C24.792 13.9614 24.7919 13.9795 24.7918 13.9972L24.7918 14L24.7918 14.0028C24.7919 14.0205 24.792 14.0386 24.7577 14.1046C24.7036 14.2085 24.6129 14.3389 24.4224 14.6061C23.6521 15.6862 22.2924 17.3761 20.4829 18.7887C18.6716 20.2028 16.4719 21.2916 14.0002 21.2916C11.5284 21.2916 9.32868 20.2028 7.51742 18.7887C5.70794 17.3761 4.34818 15.6862 3.57795 14.6061C3.3874 14.3389 3.29672 14.2085 3.24266 14.1046C3.20829 14.0386 3.20839 14.0205 3.20849 14.0028L3.2085 14L3.20849 13.9972C3.20839 13.9795 3.20829 13.9614 3.24266 13.8954C3.29672 13.7915 3.3874 13.661 3.57794 13.3938Z" fill="#067647"/>
</svg>
