<svg width="26" height="26" viewBox="0 0 26 26" fill="none" xmlns="http://www.w3.org/2000/svg">
<g id="elements">
<g id="Icon">
<path d="M19.4166 10.9584C18.9334 10.9584 18.5416 11.3501 18.5416 11.8334C18.5416 12.3166 18.9334 12.7084 19.4166 12.7084H20.5833C21.0666 12.7084 21.4583 12.3166 21.4583 11.8334C21.4583 11.3501 21.0666 10.9584 20.5833 10.9584H19.4166Z" fill="#067647"/>
<path d="M19.4166 15.625C18.9334 15.625 18.5416 16.0168 18.5416 16.5C18.5416 16.9833 18.9334 17.375 19.4166 17.375H20.5833C21.0666 17.375 21.4583 16.9833 21.4583 16.5C21.4583 16.0168 21.0666 15.625 20.5833 15.625H19.4166Z" fill="#067647"/>
<path fill-rule="evenodd" clip-rule="evenodd" d="M8.26929 0.458375H8.39733C9.99283 0.458351 11.2789 0.458332 12.2903 0.594319C13.3404 0.735506 14.2246 1.03755 14.9269 1.73978C15.6291 2.44201 15.9312 3.3262 16.0724 4.37633C16.1845 5.21043 16.2042 6.23125 16.2076 7.45837L20.0607 7.45837C21.1089 7.45834 21.9829 7.45831 22.6769 7.55161C23.4093 7.65008 24.0705 7.8667 24.6019 8.39807C25.1333 8.92945 25.3499 9.59073 25.4484 10.3232C25.5417 11.0171 25.5417 11.8912 25.5416 12.9394V20.0607C25.5417 21.1089 25.5417 21.983 25.4484 22.6769C25.3499 23.4093 25.1333 24.0706 24.6019 24.602C24.0705 25.1334 23.4093 25.35 22.6769 25.4485C21.9829 25.5418 21.1089 25.5417 20.0606 25.5417H15.3333C14.8501 25.5417 14.4583 25.15 14.4583 24.6667V8.33337C14.4583 6.65872 14.4565 5.49076 14.338 4.60952C14.2229 3.75345 14.0124 3.30012 13.6895 2.97723C13.3665 2.65433 12.9132 2.44381 12.0571 2.32871C11.1759 2.21023 10.008 2.20838 8.33331 2.20838C6.65866 2.20838 5.4907 2.21023 4.60945 2.32871C3.75338 2.44381 3.30005 2.65433 2.97716 2.97722C2.65427 3.30011 2.44375 3.75345 2.32865 4.60952C2.21017 5.49076 2.20831 6.65872 2.20831 8.33337V10.6667C2.20831 11.15 1.81656 11.5417 1.33331 11.5417C0.850066 11.5417 0.458314 11.15 0.458314 10.6667V8.26935C0.45829 6.67384 0.458271 5.38779 0.594258 4.37633C0.735444 3.32621 1.03749 2.44202 1.73972 1.73978C2.44196 1.03755 3.32614 0.735505 4.37627 0.594319C5.38773 0.458332 6.67378 0.458351 8.26929 0.458375ZM16.2083 9.20837V23.7917H20C21.1247 23.7917 21.8801 23.7899 22.4437 23.7141C22.982 23.6417 23.2124 23.5166 23.3645 23.3646C23.5165 23.2125 23.6416 22.9821 23.714 22.4437C23.7898 21.8802 23.7916 21.1247 23.7916 20V13C23.7916 11.8754 23.7898 11.1199 23.714 10.5563C23.6416 10.018 23.5165 9.78755 23.3645 9.63553C23.2125 9.48348 22.982 9.35838 22.4437 9.286C21.8801 9.21023 21.1247 9.20837 20 9.20837H16.2083Z" fill="#067647"/>
<path d="M5.41665 5.12504C4.9334 5.12504 4.54165 5.51679 4.54165 6.00004C4.54165 6.48329 4.9334 6.87504 5.41665 6.87504H6.58331C7.06656 6.87504 7.45831 6.48329 7.45831 6.00004C7.45831 5.51679 7.06656 5.12504 6.58331 5.12504H5.41665Z" fill="#067647"/>
<path d="M10.0833 5.12504C9.60006 5.12504 9.20831 5.51679 9.20831 6.00004C9.20831 6.48329 9.60006 6.87504 10.0833 6.87504H11.25C11.7332 6.87504 12.125 6.48329 12.125 6.00004C12.125 5.51679 11.7332 5.12504 11.25 5.12504H10.0833Z" fill="#067647"/>
<path d="M5.41665 8.62504C4.9334 8.62504 4.54165 9.01679 4.54165 9.50004C4.54165 9.98329 4.9334 10.375 5.41665 10.375H6.58331C7.06656 10.375 7.45831 9.98329 7.45831 9.50004C7.45831 9.01679 7.06656 8.62504 6.58331 8.62504H5.41665Z" fill="#067647"/>
<path d="M10.0833 8.62504C9.60006 8.62504 9.20831 9.01679 9.20831 9.50004C9.20831 9.98329 9.60006 10.375 10.0833 10.375H11.25C11.7332 10.375 12.125 9.98329 12.125 9.50004C12.125 9.01679 11.7332 8.62504 11.25 8.62504H10.0833Z" fill="#067647"/>
<path fill-rule="evenodd" clip-rule="evenodd" d="M6.02906 12.0738C4.25778 12.0738 2.82079 13.5088 2.82079 15.2803C2.82079 17.0519 4.25778 18.4869 6.02906 18.4869C7.80033 18.4869 9.23732 17.0519 9.23732 15.2803C9.23732 13.5088 7.80033 12.0738 6.02906 12.0738ZM4.57079 15.2803C4.57079 14.4765 5.22308 13.8238 6.02906 13.8238C6.83503 13.8238 7.48732 14.4765 7.48732 15.2803C7.48732 16.0842 6.83503 16.7369 6.02906 16.7369C5.22308 16.7369 4.57079 16.0842 4.57079 15.2803Z" fill="#067647"/>
<path fill-rule="evenodd" clip-rule="evenodd" d="M6.02996 19.0936C4.3541 19.0918 2.09782 19.9222 0.681153 22.1016C0.472104 22.4232 0.351179 22.9287 0.622974 23.4103C0.817696 23.7553 1.17208 24.2034 1.56203 24.5764C1.76086 24.7667 1.98932 24.9571 2.23341 25.1105C2.46693 25.2572 2.77574 25.409 3.12541 25.4461C3.92107 25.5307 5.96762 25.5413 6.02598 25.5416L6.03608 25.5416C6.09495 25.5412 8.08023 25.5306 8.87524 25.4461C9.2249 25.409 9.53372 25.2572 9.76724 25.1105C10.0113 24.9571 10.2398 24.7667 10.4386 24.5764C10.8286 24.2034 11.183 23.7553 11.3777 23.4102C11.6495 22.9287 11.5285 22.4232 11.3195 22.1016C9.90714 19.9289 7.71317 19.0953 6.02996 19.0936ZM2.77176 23.3119C2.59505 23.1429 2.43812 22.9608 2.32083 22.8064C3.37637 21.3745 4.92812 20.8424 6.02815 20.8436C7.12137 20.8447 8.62585 21.3689 9.68005 22.8061C9.56274 22.9605 9.40571 23.1428 9.22888 23.3119C9.08653 23.4481 8.95138 23.5563 8.83621 23.6287C8.74724 23.6846 8.69814 23.7014 8.68621 23.7055C8.68426 23.7062 8.6833 23.7065 8.68332 23.7066C8.68329 23.7066 8.68333 23.7067 8.68332 23.7066C7.99859 23.7782 6.1631 23.7908 6.03042 23.7916C5.89476 23.7908 4.00242 23.7782 3.31732 23.7066C3.31735 23.7065 3.31639 23.7062 3.31444 23.7055C3.3025 23.7014 3.25341 23.6846 3.16443 23.6287C3.04926 23.5563 2.91411 23.4481 2.77176 23.3119ZM8.68332 23.7066C8.68349 23.7067 8.68415 23.7066 8.68519 23.7065C8.68635 23.7064 8.68804 23.7062 8.69026 23.7059C8.68797 23.7062 8.68563 23.7064 8.68332 23.7066Z" fill="#067647"/>
</g>
</g>
</svg>
