<svg width="14" height="18" viewBox="0 0 14 18" fill="none" xmlns="http://www.w3.org/2000/svg">
<path fill-rule="evenodd" clip-rule="evenodd" d="M5.125 2.33341C5.125 1.06776 6.15101 0.041748 7.41667 0.041748C8.68232 0.041748 9.70833 1.06776 9.70833 2.33341C9.70833 3.59907 8.68232 4.62508 7.41667 4.62508C6.15101 4.62508 5.125 3.59907 5.125 2.33341ZM7.41667 1.29175C6.84137 1.29175 6.375 1.75812 6.375 2.33341C6.375 2.90871 6.84137 3.37508 7.41667 3.37508C7.99196 3.37508 8.45833 2.90871 8.45833 2.33341C8.45833 1.75812 7.99196 1.29175 7.41667 1.29175Z" fill="white"/>
<path d="M7.41668 5.04175C7.76186 5.04175 8.04168 5.32157 8.04168 5.66675V7.12508H10.6574C11.0026 7.12508 11.2824 7.4049 11.2824 7.75008C11.2824 8.09526 11.0026 8.37508 10.6574 8.37508H8.04168V11.0834C8.04168 11.166 8.04171 11.2329 8.04264 11.2908C8.10052 11.2917 8.16745 11.2917 8.25001 11.2917L10.2068 11.2917C10.3247 11.2917 10.4582 11.2916 10.5747 11.3044C10.7135 11.3197 10.8846 11.3576 11.0519 11.4708C11.2192 11.5841 11.3179 11.7289 11.3836 11.8521C11.4388 11.9555 11.4883 12.0794 11.532 12.1889L11.9541 13.2441C11.9751 13.2967 11.9919 13.3386 12.0068 13.3746C12.0458 13.3751 12.0909 13.3751 12.1475 13.3751H13.25C13.5952 13.3751 13.875 13.6549 13.875 14.0001C13.875 14.3453 13.5952 14.6251 13.25 14.6251L12.1265 14.6251C12.0086 14.6251 11.8752 14.6252 11.7587 14.6124C11.6198 14.5971 11.4488 14.5592 11.2815 14.446C11.1142 14.3327 11.0154 14.1879 10.9497 14.0647C10.8946 13.9613 10.8451 13.8374 10.8013 13.7279L10.3793 12.6727C10.3582 12.6201 10.3414 12.5782 10.3265 12.5423C10.2876 12.5418 10.2424 12.5417 10.1858 12.5417L8.22131 12.5418C8.05039 12.5418 7.86555 12.5419 7.70954 12.5209C7.52677 12.4963 7.29328 12.4331 7.09678 12.2366C6.90028 12.0402 6.83708 11.8067 6.81251 11.6239C6.79153 11.4679 6.79161 11.283 6.79167 11.1121L6.79168 5.66675C6.79168 5.32157 7.0715 5.04175 7.41668 5.04175Z" fill="white"/>
<path d="M5.06791 7.94998C5.40838 7.89312 5.63829 7.57103 5.58143 7.23056C5.52457 6.8901 5.20248 6.66019 4.86202 6.71705C2.17562 7.16568 0.125 9.49142 0.125 12.2987C0.125 15.4272 2.67205 17.9585 5.80796 17.9585C7.70867 17.9585 9.39217 17.0285 10.4232 15.6018C10.6254 15.322 10.5625 14.9313 10.2828 14.7291C10.003 14.5269 9.61228 14.5898 9.4101 14.8696C8.60483 15.9839 7.29191 16.7085 5.80796 16.7085C3.357 16.7085 1.375 14.7315 1.375 12.2987C1.375 10.1165 2.96997 8.30033 5.06791 7.94998Z" fill="white"/>
</svg>
