<svg width="67" height="44" viewBox="0 0 67 44" fill="none" xmlns="http://www.w3.org/2000/svg">
<g clip-path="url(#clip0_1149_53730)">
<path d="M40.6228 1.17358H39.7444V2.05368H40.6228V1.17358Z" fill="white"/>
<path d="M41.9501 1.17358H41.0716V2.05368H41.9501V1.17358Z" fill="white"/>
<path d="M56.047 10.0083H55.1685V10.8884H56.047V10.0083Z" fill="white"/>
<path d="M54.2815 10.0083H53.403V10.8884H54.2815V10.0083Z" fill="white"/>
<mask id="mask0_1149_53730" style="mask-type:luminance" maskUnits="userSpaceOnUse" x="59" y="0" width="3" height="2">
<path d="M61.3085 0.00341797H59.6843V1.53482H61.3085V0.00341797Z" fill="white"/>
</mask>
<g mask="url(#mask0_1149_53730)">
<path d="M61.3106 0.962337H60.2916V0.793725C60.2859 0.715521 60.3078 0.637806 60.3536 0.574197C60.3844 0.547323 60.4209 0.527774 60.4604 0.517011C60.4998 0.506248 60.5412 0.50455 60.5813 0.512042H61.0915V0.000252708H60.5635C60.3233 -0.0164719 60.0861 0.0624105 59.9035 0.21978C59.7364 0.417806 59.6545 0.674149 59.6758 0.932582V1.53959H61.3007V0.957709L61.3106 0.962337Z" fill="white"/>
</g>
<mask id="mask1_1149_53730" style="mask-type:luminance" maskUnits="userSpaceOnUse" x="0" y="0" width="67" height="44">
<path d="M66.5172 0H0.517242V44H66.5172V0Z" fill="white"/>
</mask>
<g mask="url(#mask1_1149_53730)">
<path d="M59.2361 9.31412C59.0137 9.31437 58.7921 9.2875 58.5761 9.23411C58.3193 9.17231 58.067 9.09278 57.8211 8.99607L58.0488 8.28327C58.2485 8.37742 58.4573 8.45097 58.6718 8.5028C58.8732 8.54957 59.0797 8.57046 59.2863 8.56495C59.6172 8.58237 59.9452 8.49667 60.2255 8.31963C60.3421 8.21778 60.4331 8.08977 60.491 7.94603C60.5489 7.80228 60.5721 7.64687 60.5588 7.49244V6.76509L60.3126 7.28482H60.11C59.7135 7.2861 59.3183 7.23881 58.9332 7.14397C58.5843 7.05744 58.2538 6.90848 57.9577 6.70426C57.6769 6.50545 57.4478 6.24194 57.2898 5.93591C57.1324 5.60376 57.0487 5.24141 57.0444 4.87376C57.0401 4.50611 57.1152 4.14188 57.2647 3.8061C57.4142 3.49517 57.6309 3.22143 57.899 3.0047C58.1855 2.76988 58.5132 2.59051 58.8652 2.47572C59.2695 2.34164 59.6934 2.27638 60.1192 2.28264H61.3072V7.43095C61.3205 7.68242 61.2838 7.93403 61.1994 8.17124C61.1151 8.40844 60.9845 8.62653 60.8155 8.81291C60.5983 8.99845 60.3463 9.13865 60.0743 9.22529C59.8023 9.31192 59.5158 9.34325 59.2315 9.31743M59.7899 3.02255C59.542 3.02302 59.2961 3.06781 59.0639 3.1548C58.5912 3.31149 58.1975 3.64568 57.9656 4.08712C57.8515 4.31263 57.7914 4.56165 57.7901 4.81447C57.7819 5.06025 57.8313 5.30452 57.9345 5.52766C58.0377 5.7508 58.1917 5.94657 58.3841 6.09924C58.5764 6.24797 58.7936 6.36105 59.0256 6.43316C59.2789 6.51042 59.5423 6.54899 59.8071 6.54755H60.5594V3.23414L60.9812 3.02255H59.7899Z" fill="white"/>
<path d="M55.8391 9.23411H42.3091C42.0767 9.24248 41.8455 9.19723 41.6333 9.10186C41.4555 9.02171 41.3035 8.89348 41.1944 8.73158C41.1806 8.71211 41.1689 8.69129 41.1594 8.66942L41.1508 8.65223V9.207H39.6031C39.1406 9.2141 38.6816 9.12644 38.2542 8.9494C37.8268 8.77236 37.44 8.50967 37.1175 8.17747C36.5013 7.5238 36.1617 6.65647 36.1698 5.75738V5.74019C36.161 4.83629 36.5043 3.96456 37.1268 3.31018C37.4486 2.97424 37.8363 2.7086 38.2656 2.52995C38.6948 2.3513 39.1562 2.2635 39.6209 2.27205H41.624V7.36681C41.6231 7.54374 41.6348 7.72052 41.659 7.89579C41.6757 8.01887 41.7141 8.13798 41.7725 8.24756C41.8224 8.33133 41.8959 8.39849 41.9837 8.44064C42.0959 8.48304 42.215 8.50412 42.3348 8.50279H55.0979V2.27404H55.8391L55.8305 9.23477L55.8391 9.23411ZM39.6031 2.97825C38.9047 2.97736 38.2345 3.25373 37.7391 3.74684C37.2437 4.23995 36.9635 4.90963 36.9598 5.60927V5.74151C36.939 6.45411 37.2009 7.14593 37.6882 7.66546C38.1754 8.18499 38.8484 8.48989 39.5596 8.51337H41.061C41.0088 8.39479 40.9705 8.27053 40.9469 8.14309C40.8969 7.8852 40.8735 7.62287 40.8769 7.36019V3.19447L41.3336 2.96634L39.6031 2.97825Z" fill="white"/>
<path d="M32.4639 7.37799L32.7886 8.23163L28.0729 2.26538H27.3337V9.20099H28.0973V3.97267L27.6584 2.96099L32.5946 9.19107H33.2176V2.26538H32.4553V7.37799H32.4639Z" fill="white"/>
<path d="M43.0298 20.27L47.3079 16.2054V13.415H35.8807V16.5889H41.7395L43.9175 15.2003L38.489 20.6303L39.0685 22.9883H40.6155C42.6965 22.9883 43.9268 23.7533 43.9268 25.1267V25.1703C43.9268 26.42 42.9368 27.2115 41.5369 27.2115C40.748 27.2089 39.9701 27.026 39.2623 26.6768C38.5546 26.3275 37.9357 25.8211 37.4528 25.1961L34.8867 27.6281C35.6946 28.5828 36.7086 29.3408 37.8521 29.8449C38.9955 30.3489 40.2384 30.5858 41.4867 30.5375C45.2547 30.5375 47.5825 28.206 47.5825 25.0288V24.9832C47.5825 21.8477 45.3332 20.6515 43.0325 20.2647" fill="white"/>
<path d="M22.484 9.3141C22.0065 9.32274 21.5322 9.23267 21.0909 9.04951C20.6497 8.86634 20.2508 8.59401 19.9193 8.24952C19.2864 7.57266 18.9372 6.67815 18.9438 5.75075V5.73356C18.9342 4.80103 19.2871 3.90136 19.9279 3.22486C20.2612 2.87957 20.6615 2.60624 21.1041 2.42168C21.5468 2.23713 22.0224 2.14525 22.5018 2.15169C22.9794 2.14305 23.4537 2.23312 23.8949 2.41628C24.3362 2.59945 24.7351 2.87178 25.0666 3.21627C25.7011 3.89209 26.0506 4.78728 26.0421 5.71504V5.73223C26.0517 6.66476 25.6987 7.56443 25.058 8.24093C24.7255 8.58726 24.3254 8.86129 23.8825 9.04592C23.4397 9.23055 22.9636 9.32184 22.484 9.3141ZM22.484 2.87243C21.7622 2.87084 21.0693 3.15614 20.5572 3.66573C20.0451 4.17532 19.7556 4.86761 19.7523 5.59073V5.73157C19.7308 6.46808 20.002 7.18302 20.5062 7.71936C21.0105 8.2557 21.7067 8.56957 22.4418 8.59204H22.5038C23.2252 8.5924 23.9175 8.30672 24.4293 7.79739C24.9412 7.28805 25.231 6.59648 25.2356 5.87374V5.73289C25.2571 4.99628 24.9858 4.28124 24.4814 3.74488C23.977 3.20852 23.2806 2.89472 22.5454 2.87243H22.484Z" fill="white"/>
<path d="M57.505 30.5394C55.1091 30.5765 52.7953 29.6653 51.066 28.0036C50.256 27.2045 49.6145 26.2505 49.1797 25.1982C48.7449 24.1459 48.5256 23.0168 48.5349 21.878V21.8257C48.5274 20.6831 48.7491 19.5506 49.1867 18.4954C49.6243 17.4402 50.269 16.4838 51.0825 15.6829C52.8303 14.0424 55.1344 13.1275 57.5294 13.1228C59.9244 13.1182 62.232 14.0241 63.9862 15.6578C64.7954 16.4554 65.4364 17.4077 65.8712 18.4583C66.306 19.5088 66.5257 20.6362 66.5173 21.7735V21.8171C66.5246 22.9597 66.3029 24.0922 65.8653 25.1474C65.4277 26.2026 64.7831 27.159 63.9696 27.9599C63.114 28.7952 62.1023 29.4529 60.9923 29.8955C59.8824 30.338 58.6961 30.5566 57.5016 30.5387M57.5016 16.5465C56.8389 16.5417 56.1816 16.6678 55.5675 16.9175C54.9534 17.1673 54.3944 17.5358 53.9224 18.002C53.4505 18.4683 53.0749 19.0231 52.817 19.6348C52.5592 20.2465 52.4241 20.9032 52.4196 21.5672C52.4196 21.6412 52.4196 21.7166 52.4196 21.7907V21.8343C52.4015 22.5112 52.5168 23.1849 52.7587 23.8171C53.0006 24.4494 53.3645 25.0276 53.8296 25.5189C54.2947 26.0101 54.8519 26.4047 55.4692 26.6802C56.0866 26.9556 56.7521 27.1065 57.4277 27.1241H57.5419C58.2047 27.1289 58.8619 27.0028 59.476 26.7531C60.0902 26.5033 60.6492 26.1348 61.1211 25.6686C61.5931 25.2023 61.9687 24.6475 62.2265 24.0358C62.4844 23.4241 62.6194 22.7674 62.6239 22.1034C62.6239 22.0294 62.6239 21.954 62.6239 21.8799V21.8277C62.6594 20.461 62.1518 19.1362 61.2127 18.1443C60.2737 17.1524 58.9799 16.5746 57.6158 16.5379H57.6079C57.5728 16.5456 57.5368 16.5485 57.501 16.5465" fill="white"/>
<path d="M17.5934 2.26538H16.8021V9.20099H17.5934V2.26538Z" fill="white"/>
<path d="M4.17363 28.3185L4.89369 27.7637L8.58969 24.9204C11.5854 22.6147 13.0341 21.2176 13.0341 18.4087V18.365C13.0341 15.2143 10.7129 13.1731 7.21095 13.1731C4.18947 13.1731 2.57313 14.397 0.903991 16.6597L3.51825 18.7578C4.77225 17.2172 5.67051 16.4971 6.97863 16.4971C7.27727 16.467 7.57887 16.5023 7.86255 16.6006C8.14623 16.6988 8.40522 16.8576 8.62158 17.066C8.83795 17.2744 9.00654 17.5275 9.11567 17.8076C9.22481 18.0877 9.27189 18.3882 9.25365 18.6884C9.25365 20.077 8.42799 20.9941 6.32919 22.7278L0.693451 27.3181V30.248H13.2018V27.0536H6.74565L4.17363 28.3185Z" fill="white"/>
<path d="M4.21324 9.2426L7.20964 2.26336H6.3688L3.9928 7.94991L4.07266 8.71495L3.87994 8.23886L1.8247 3.29223L1.39306 2.2627H0.517242L3.51298 9.24062L4.21324 9.2426Z" fill="white"/>
<path d="M9.07347 2.26538H8.28214V9.20099H9.07347V2.26538Z" fill="white"/>
<path d="M13.2368 5.35346C11.699 5.02813 11.3485 4.65785 11.3485 4.0072V3.99001C11.3485 3.36581 11.928 2.87187 12.8335 2.87187C13.5721 2.87156 14.2861 3.13748 14.8452 3.62104L15.3019 3.02197C14.6162 2.44775 13.7447 2.14418 12.8513 2.16833C11.5247 2.16833 10.5611 2.96974 10.5611 4.0601V4.07729C10.5611 5.21262 11.2997 5.73036 12.8975 6.07486C14.3641 6.38299 14.7073 6.75195 14.7073 7.39731V7.4145C14.7073 8.10019 14.0928 8.59347 13.1523 8.59347C12.7085 8.59827 12.2682 8.51424 11.8573 8.3463C11.4463 8.17837 11.073 7.92992 10.7591 7.61551L10.2767 8.1888C11.0492 8.91064 12.0689 9.3076 13.1252 9.29768C14.5112 9.29768 15.5052 8.52272 15.5052 7.33515V7.31796C15.5052 6.26 14.7937 5.69002 13.2374 5.35544" fill="white"/>
<path d="M4.39935 38.6528H3.96045V39.0853H4.39935V38.6528Z" fill="white"/>
<path d="M33.3159 38.1509H28.5019C28.2763 38.152 28.0516 38.1222 27.834 38.0623C27.6361 38.0101 27.4488 37.924 27.2802 37.8077C27.1202 37.6919 26.9881 37.5416 26.8935 37.368C26.7956 37.1683 26.7473 36.9478 26.7529 36.7253C26.7538 36.5281 26.7958 36.3333 26.8763 36.1533C26.957 35.976 27.0771 35.8195 27.2274 35.6958C27.3919 35.5626 27.5797 35.4612 27.7812 35.3969C28.0139 35.3226 28.2571 35.2869 28.5012 35.2911H29.1692V37.7376H30.8568V35.2911H31.2785V37.7376H32.8856V35.2911H33.3074L33.3159 38.1509ZM28.3263 35.7044C28.183 35.7057 28.0407 35.7294 27.9046 35.7745C27.6327 35.8611 27.4055 36.051 27.2717 36.3034C27.2054 36.4312 27.1721 36.5734 27.1747 36.7174C27.1722 36.8631 27.2024 37.0075 27.2631 37.1399C27.3215 37.2616 27.4049 37.3696 27.5079 37.4566C27.6178 37.5462 27.743 37.615 27.8775 37.6596C28.0227 37.7047 28.1737 37.7283 28.3257 37.7297H28.7474V35.7057L28.3263 35.7044Z" fill="white"/>
<path d="M24.6548 34.3594H24.233V38.1515H24.6548V34.3594Z" fill="white"/>
<path d="M29.1777 34.3667H28.7388V34.7991H29.1777V34.3667Z" fill="white"/>
<path d="M33.3238 38.6528H32.8849V39.0853H33.3238V38.6528Z" fill="white"/>
<path d="M5.14581 38.6528H4.70691V39.0853H5.14581V38.6528Z" fill="white"/>
<path d="M9.99485 39.314C9.86763 39.3126 9.74089 39.298 9.61668 39.2704C9.47016 39.2354 9.32599 39.1913 9.18504 39.1381L9.31703 38.7328C9.43234 38.7869 9.55317 38.8284 9.6774 38.8564C9.79268 38.8817 9.91051 38.8935 10.0285 38.8915C10.2176 38.9035 10.4056 38.8541 10.5644 38.7506C10.633 38.6932 10.6865 38.6197 10.7201 38.5367C10.7537 38.4537 10.7664 38.3637 10.7572 38.2746V38.1522H10.5031C10.2754 38.1524 10.0485 38.1256 9.82722 38.0722C9.62603 38.0219 9.43554 37.9357 9.2649 37.8176C9.10488 37.7018 8.97273 37.5516 8.87813 37.3779C8.78021 37.1782 8.73198 36.9577 8.73756 36.7352C8.73746 36.5342 8.78258 36.3358 8.86955 36.1547C8.95338 35.9767 9.07663 35.8202 9.22992 35.6971C9.39587 35.5639 9.58308 35.4597 9.78365 35.389C10.0156 35.3109 10.259 35.2725 10.5037 35.2752H11.1895V37.7218H12.656L11.9062 35.9543C12.0204 35.8571 12.1339 35.7612 12.2573 35.6726C12.381 35.583 12.5138 35.5065 12.6533 35.4445C12.7861 35.3818 12.9244 35.3318 13.0665 35.2951C13.3372 35.2241 13.6215 35.2241 13.8922 35.2951C14.0343 35.3318 14.1726 35.3818 14.3053 35.4445C14.4373 35.5146 14.5693 35.5906 14.7013 35.6726C14.8273 35.7588 14.9476 35.8528 15.0617 35.9543L14.3139 37.7198H16.5487V35.5377H16.9704V37.7198H17.7961C17.8888 37.7223 17.9813 37.7075 18.0686 37.6761C18.1514 37.649 18.2285 37.6071 18.2963 37.5525C18.3639 37.4914 18.4177 37.4165 18.4541 37.333C18.4963 37.2268 18.5174 37.1133 18.5161 36.9991V35.5384H18.9379V37.0348C18.9392 37.1355 18.9631 37.2347 19.0078 37.325C19.0534 37.4132 19.1127 37.4935 19.1834 37.5631C19.2606 37.6321 19.3501 37.6857 19.4474 37.7211C19.5577 37.7603 19.6736 37.7813 19.7906 37.7833C19.8995 37.7916 20.009 37.7763 20.1115 37.7384C20.214 37.7005 20.3071 37.6409 20.3846 37.5637C20.4536 37.4848 20.5063 37.3928 20.5396 37.2933C20.5729 37.1937 20.5862 37.0886 20.5786 36.9838V35.5563H20.999V36.9197C21 37.0527 20.9883 37.1856 20.9641 37.3164C21.0402 37.4537 21.1565 37.5643 21.2974 37.6332C21.4834 37.7117 21.6844 37.7478 21.8861 37.739H22.5811V34.3667H23.0015V38.1595H21.7706V38.1509C21.6673 38.1475 21.5644 38.1358 21.463 38.1159C21.3592 38.0907 21.259 38.0525 21.1647 38.0021C21.0914 37.9573 21.0234 37.9043 20.9621 37.8441C20.9105 37.7916 20.8661 37.7324 20.8301 37.6682C20.7391 37.8439 20.5943 37.9857 20.4169 38.0729C20.2142 38.1687 19.9914 38.214 19.7675 38.2051C19.5476 38.2125 19.3294 38.164 19.1332 38.0643C18.9589 37.9734 18.8129 37.8361 18.7115 37.6675C18.6141 37.8155 18.4811 37.9365 18.3247 38.0193C18.1536 38.1077 17.9635 38.1531 17.771 38.1516H11.1776V38.2316C11.1853 38.3759 11.1644 38.5203 11.1161 38.6564C11.0679 38.7926 10.9932 38.9179 10.8964 39.025C10.7745 39.1336 10.6312 39.2154 10.4758 39.265C10.3204 39.3147 10.1563 39.3311 9.9942 39.3133M13.4757 35.7143C13.2928 35.7154 13.1115 35.7483 12.9398 35.8115C12.7566 35.8835 12.5863 35.9849 12.4355 36.1117L13.1035 37.7304H13.8598L14.5277 36.1117C14.3854 35.9929 14.225 35.8978 14.0525 35.83C13.8692 35.7525 13.672 35.7131 13.4731 35.7143H13.4757ZM10.3308 35.7143C10.1842 35.7157 10.0387 35.7393 9.89916 35.7844C9.76355 35.8305 9.63806 35.9023 9.52955 35.996C9.42271 36.0876 9.33328 36.1978 9.26556 36.3213C9.2034 36.4517 9.17043 36.5941 9.16894 36.7386C9.16746 36.883 9.19751 37.0261 9.25698 37.1577C9.31351 37.2782 9.39736 37.3837 9.50183 37.4659C9.61307 37.551 9.7381 37.6163 9.87144 37.6589C10.0162 37.7052 10.1678 37.7262 10.3196 37.7211H10.7446V35.7149L10.3308 35.7143Z" fill="white"/>
<path d="M2.95001 34.3667H2.51111V34.7991H2.95001V34.3667Z" fill="white"/>
<path d="M45.9107 34.3667H45.4718V34.7991H45.9107V34.3667Z" fill="white"/>
<path d="M42.1342 34.3594H41.7125V38.1515H42.1342V34.3594Z" fill="white"/>
<path d="M28.4313 34.3667H27.9924V34.7991H28.4313V34.3667Z" fill="white"/>
<path d="M8.07161 36.4878C8.07432 36.3307 8.05067 36.1742 8.00165 36.025C7.96212 35.8881 7.89293 35.7617 7.79903 35.6547C7.69069 35.539 7.56263 35.4436 7.42085 35.373C7.25864 35.3088 7.08499 35.2786 6.91067 35.2844H6.59453V35.7069H6.96413C7.0638 35.7088 7.16216 35.7299 7.25387 35.7691C7.34227 35.8094 7.42019 35.8695 7.48157 35.9449C7.54474 36.0136 7.58749 36.0986 7.60499 36.1903C7.63019 36.2939 7.64195 36.4003 7.63997 36.507V37.7309H5.65469V38.1535H8.07029V36.4911L8.07161 36.4878Z" fill="white"/>
<path d="M64.6026 34.3594H64.1808V38.1515H64.6026V34.3594Z" fill="white"/>
<path d="M46.6572 34.3667H46.2183V34.7991H46.6572V34.3667Z" fill="white"/>
<path d="M59.6381 38.6342C59.4262 38.6344 59.2167 38.5893 59.0236 38.502C58.8391 38.4163 58.6722 38.297 58.5312 38.1502H56.6601C56.5169 38.3023 56.343 38.4222 56.15 38.502C55.9508 38.5912 55.7338 38.6335 55.5157 38.6256C55.3038 38.6258 55.0944 38.5807 54.9012 38.4934C54.7168 38.4077 54.5498 38.2884 54.4089 38.1416H45.9807C45.7551 38.1428 45.5303 38.1129 45.3128 38.053C45.1149 38.0008 44.9276 37.9147 44.759 37.7984C44.599 37.6825 44.4669 37.5323 44.3723 37.3587C44.2744 37.159 44.2261 36.9385 44.2317 36.716C44.2337 36.5189 44.2757 36.3244 44.3551 36.144C44.4358 35.9667 44.5559 35.8102 44.7062 35.6865C44.8707 35.5533 45.0585 35.452 45.26 35.3876C45.4926 35.3133 45.7359 35.2776 45.98 35.2818H46.648V37.7283H50.5736V37.0889C50.5746 36.9852 50.5628 36.8817 50.5387 36.7808C50.519 36.6898 50.4766 36.6054 50.4152 36.5355C50.3497 36.4624 50.2684 36.4053 50.1776 36.3682C50.0655 36.3258 49.9464 36.3047 49.8265 36.306H47.6743C47.6205 36.2507 47.5786 36.185 47.5508 36.113C47.5193 36.0363 47.4959 35.9565 47.4809 35.8749L48.298 34.3607H48.7599L47.96 35.8815H49.8397C50.0198 35.8757 50.1993 35.9059 50.3677 35.9701C50.5098 36.0323 50.6361 36.1256 50.7373 36.2432C50.8332 36.3488 50.9027 36.4757 50.9399 36.6135C50.982 36.7642 51.0029 36.92 51.002 37.0764V37.727H52.3556V34.3548H52.776V37.727H54.1297C54.0928 37.6285 54.0598 37.5286 54.0327 37.4281C54.0075 37.3216 53.9957 37.2123 53.9977 37.1028C53.9955 36.9026 54.0328 36.7038 54.1073 36.518C54.1818 36.3322 54.2922 36.1629 54.4321 36.0198C54.5719 35.8767 54.7386 35.7626 54.9225 35.6841C55.1064 35.6056 55.3039 35.5642 55.5038 35.5622H55.5177C55.7279 35.5598 55.9366 35.5985 56.1322 35.6759C56.3153 35.7522 56.4824 35.8626 56.6245 36.0012C56.7639 36.1387 56.8743 36.3029 56.9492 36.4839C57.0288 36.6765 57.0706 36.8825 57.0726 37.0909C57.0727 37.306 57.0277 37.5186 56.9407 37.7151H58.2607C58.2237 37.6166 58.1907 37.5167 58.1636 37.4162C58.1385 37.3097 58.1267 37.2004 58.1287 37.0909C58.1265 36.8907 58.1637 36.6919 58.2382 36.5061C58.3128 36.3202 58.4231 36.1509 58.563 36.0079C58.7029 35.8648 58.8695 35.7507 59.0534 35.6722C59.2373 35.5937 59.4349 35.5522 59.6348 35.5503H59.6486C59.8589 35.5481 60.0676 35.587 60.2631 35.6647C60.4461 35.7409 60.613 35.8513 60.7548 35.99C60.8941 36.1278 61.0046 36.2921 61.0795 36.4733C61.159 36.6659 61.2009 36.872 61.2029 37.0803C61.203 37.2954 61.158 37.508 61.0709 37.7045H62.5229V34.3323H62.9447V38.1251H60.7825C60.6392 38.2772 60.4653 38.3971 60.2723 38.4768C60.0774 38.5809 59.8589 38.6331 59.6381 38.6283M59.6381 35.9801C59.4872 35.9787 59.3377 36.0088 59.1992 36.0687C59.0701 36.1243 58.9534 36.2053 58.856 36.3067C58.7591 36.4089 58.6819 36.5282 58.6283 36.6585C58.5756 36.7965 58.5485 36.9431 58.5484 37.0909C58.5459 37.3819 58.6562 37.6626 58.856 37.8738C58.955 37.9734 59.0713 38.0541 59.1992 38.1118C59.3352 38.1716 59.4823 38.2018 59.6308 38.2005C59.7808 38.2007 59.9295 38.1736 60.0697 38.1204C60.2735 38.0396 60.4481 37.8988 60.5704 37.7165C60.6927 37.5342 60.757 37.3191 60.7548 37.0995C60.7562 36.9454 60.7261 36.7926 60.6664 36.6505C60.6142 36.5171 60.533 36.3969 60.4287 36.2988C60.3267 36.2018 60.2077 36.1244 60.0776 36.0707C59.9394 36.0081 59.7897 35.9772 59.6381 35.9801ZM55.5184 35.9801C55.3729 35.9784 55.2286 36.0064 55.0943 36.0623C54.96 36.1183 54.8384 36.201 54.7369 36.3054C54.6401 36.4076 54.5629 36.5269 54.5092 36.6572C54.4043 36.934 54.4043 37.2399 54.5092 37.5167C54.5613 37.6479 54.6386 37.7674 54.7369 37.8685C54.8359 37.9681 54.9522 38.0488 55.0801 38.1066C55.2161 38.1663 55.3632 38.1965 55.5118 38.1952C55.6646 38.1943 55.8162 38.1673 55.9599 38.1152C56.1623 38.0324 56.3355 37.8911 56.4574 37.7092C56.5793 37.5274 56.6444 37.3133 56.6443 37.0942C56.6457 36.9401 56.6156 36.7873 56.5559 36.6453C56.504 36.5116 56.4228 36.3914 56.3183 36.2935C56.2162 36.1965 56.0972 36.1191 55.9672 36.0654C55.826 36.005 55.6738 35.9749 55.5203 35.9768L55.5184 35.9801ZM45.8032 35.6971C45.6598 35.6984 45.5175 35.7221 45.3814 35.7671C45.1095 35.8538 44.8823 36.0437 44.7485 36.2961C44.6822 36.4238 44.6493 36.5662 44.6528 36.7101C44.6503 36.8558 44.6805 37.0002 44.7412 37.1326C44.7996 37.2543 44.8831 37.3622 44.9861 37.4493C45.0959 37.5389 45.2212 37.6077 45.3557 37.6523C45.5009 37.6974 45.6518 37.721 45.8038 37.7224H46.2255V35.6984L45.8032 35.6971Z" fill="white"/>
<path d="M5.0587 38.1495H2.27482C2.04919 38.1506 1.82447 38.1208 1.6069 38.0609C1.40904 38.0087 1.2217 37.9226 1.05316 37.8063C0.893218 37.6907 0.761081 37.5407 0.666401 37.3673C0.568502 37.1675 0.520271 36.947 0.525821 36.7246C0.526713 36.5274 0.568753 36.3326 0.649241 36.1526C0.729908 35.9752 0.850012 35.8187 1.00036 35.695C1.16484 35.5619 1.35262 35.4605 1.5541 35.3962C1.78678 35.3219 2.02999 35.2862 2.27416 35.2904H2.94142V37.7369H4.633V35.2904H5.05474V38.1508L5.0587 38.1495ZM2.10454 35.703C1.96119 35.7043 1.81892 35.728 1.6828 35.7731C1.5484 35.8179 1.42319 35.8866 1.3132 35.9761C1.20636 36.0677 1.11693 36.1779 1.0492 36.3014C0.982985 36.4291 0.949637 36.5714 0.952181 36.7153C0.949697 36.861 0.979921 37.0054 1.04062 37.1378C1.09902 37.2595 1.18247 37.3675 1.28548 37.4546C1.39533 37.5442 1.52058 37.613 1.65508 37.6576C1.80026 37.7026 1.95123 37.7263 2.10322 37.7277H2.52496V35.7036L2.10454 35.703Z" fill="white"/>
<path d="M31.7689 38.6528H31.33V39.0853H31.7689V38.6528Z" fill="white"/>
<path d="M31.0225 38.6528H30.5836V39.0853H31.0225V38.6528Z" fill="white"/>
<path d="M34.1937 39.312C34.0781 39.3107 33.9629 39.296 33.8506 39.2684L33.9647 38.8631C33.9997 38.8717 34.0446 38.8803 34.0789 38.8882C34.1132 38.8961 34.1489 38.8968 34.1759 38.8968C34.2451 38.8979 34.3138 38.886 34.3785 38.8618C34.4314 38.8386 34.4749 38.7983 34.502 38.7474C34.5355 38.6843 34.5566 38.6154 34.564 38.5444C34.579 38.4424 34.5847 38.3393 34.5812 38.2362V35.2799H35.0029V37.7264H36.5869L35.8404 35.9576C35.9546 35.8604 36.0682 35.7646 36.1916 35.676C36.3153 35.5863 36.448 35.5098 36.5876 35.4478C36.7203 35.3851 36.8586 35.3351 37.0007 35.2984C37.1356 35.2631 37.2745 35.2455 37.4139 35.2462C37.5533 35.246 37.6921 35.2636 37.8271 35.2984C37.9691 35.3351 38.1075 35.3851 38.2402 35.4478C38.3767 35.5158 38.509 35.5919 38.6362 35.676C38.7622 35.7621 38.8825 35.8562 38.9966 35.9576L38.2501 37.7264H40.0598V34.3582H40.4816V38.1503H35.0161V38.2389C35.0191 38.3897 35.0045 38.5404 34.9725 38.6879C34.9485 38.8061 34.9038 38.9191 34.8406 39.0218C34.7796 39.1169 34.6909 39.1908 34.5864 39.2334C34.466 39.2946 34.3311 39.3218 34.1964 39.312M37.4198 35.713C37.2369 35.7142 37.0556 35.747 36.8839 35.8102C36.702 35.8818 36.533 35.9828 36.3836 36.1091L37.0516 37.7278H37.8039L38.4719 36.1091C38.3295 35.9903 38.1691 35.8952 37.9967 35.8274C37.8127 35.752 37.6159 35.7132 37.4172 35.713" fill="white"/>
<path d="M2.20355 34.3667H1.76465V34.7991H2.20355V34.3667Z" fill="white"/>
<path d="M3.5757 40.9319H2.9157L1.47492 42.4461V40.9319H0.938995V43.9504H1.47492V43.0809L1.95012 42.5975L2.98632 43.9537H3.63576L2.31576 42.2285L3.5757 40.9319Z" fill="white"/>
<path d="M4.65411 40.9319H4.11819V43.9504H4.65411V40.9319Z" fill="white"/>
<path d="M7.58783 43.0148L5.96291 40.9299H5.47055V43.9484H5.99855V41.8014L7.67693 43.9484H8.12507V40.9319H7.59707V43.0148H7.58783Z" fill="white"/>
<path d="M10.3209 42.7187H11.0964V43.2821C10.883 43.43 10.6299 43.5096 10.3704 43.5102C10.1029 43.5157 9.84398 43.4153 9.64996 43.2307C9.45595 43.0461 9.34247 42.7922 9.33418 42.5243V42.4284C9.32815 42.2943 9.34858 42.1603 9.39429 42.034C9.44 41.9078 9.5101 41.7919 9.60057 41.6928C9.69105 41.5938 9.80013 41.5136 9.92157 41.4568C10.043 41.4 10.1744 41.3677 10.3083 41.3619H10.3169C10.4734 41.3569 10.6293 41.3831 10.7755 41.4389C10.9218 41.4948 11.0555 41.5791 11.169 41.6872L11.5122 41.2904C11.1899 41.0079 10.7719 40.8598 10.344 40.8765C10.1416 40.8735 9.94065 40.9104 9.75254 40.9852C9.56444 41.0599 9.39288 41.1711 9.24768 41.3124C9.10248 41.4536 8.98648 41.6221 8.90631 41.8083C8.82613 41.9944 8.78337 42.1946 8.78044 42.3973V42.4423C8.7672 42.8398 8.91114 43.2264 9.18095 43.5182C9.45075 43.8099 9.82461 43.9831 10.2212 44.0001H10.3532C10.8189 44.001 11.269 43.8318 11.6191 43.5241V42.2558H10.3229V42.7187H10.3209Z" fill="white"/>
<path d="M13.4836 43.9505H12.3484V40.932H13.4836C13.6803 40.9171 13.8779 40.9413 14.0653 41.003C14.2526 41.0648 14.4259 41.163 14.5753 41.292C14.7247 41.421 14.8473 41.5782 14.9359 41.7547C15.0246 41.9312 15.0776 42.1235 15.092 42.3206C15.092 42.3252 15.092 42.3305 15.092 42.3345V42.4403C15.092 42.8416 14.933 43.2266 14.6498 43.5105C14.3666 43.7944 13.9825 43.9541 13.5819 43.9545L13.4836 43.9505ZM12.8896 41.4134V43.4632H13.4836C13.6137 43.4722 13.7442 43.4553 13.8678 43.4136C13.9913 43.3719 14.1054 43.3061 14.2036 43.2201C14.3017 43.1341 14.3819 43.0295 14.4395 42.9124C14.4972 42.7952 14.5312 42.6678 14.5396 42.5375V42.4416C14.5476 42.1783 14.4516 41.9224 14.2724 41.7297C14.0932 41.5369 13.8453 41.4227 13.5826 41.4121L12.8896 41.4134Z" fill="white"/>
<path d="M17.1723 43.9942C16.9714 44.0015 16.7711 43.9691 16.5827 43.8987C16.3943 43.8284 16.2216 43.7216 16.0745 43.5843C15.9273 43.447 15.8087 43.2821 15.7253 43.0988C15.6419 42.9155 15.5953 42.7176 15.5883 42.5163V42.4363C15.5864 42.0246 15.7475 41.6288 16.0365 41.336C16.1871 41.1881 16.3655 41.0714 16.5614 40.9929C16.7572 40.9144 16.9667 40.8755 17.1776 40.8785C17.3785 40.8711 17.5789 40.9035 17.7673 40.9739C17.9557 41.0442 18.1284 41.1511 18.2755 41.2883C18.4226 41.4256 18.5413 41.5906 18.6247 41.7738C18.7081 41.9571 18.7546 42.155 18.7616 42.3563V42.4456C18.7636 42.8573 18.6024 43.253 18.3135 43.5458C18.1622 43.6924 17.9835 43.8075 17.7877 43.8845C17.5918 43.9616 17.3827 43.9991 17.1723 43.9948M17.1723 41.3638C17.0385 41.3638 16.906 41.3902 16.7824 41.4415C16.6587 41.4928 16.5464 41.568 16.4518 41.6628C16.3571 41.7576 16.2821 41.8702 16.2309 41.994C16.1797 42.1179 16.1533 42.2507 16.1533 42.3847V42.437C16.1465 42.7131 16.2488 42.9807 16.4379 43.1816C16.627 43.3826 16.8876 43.5006 17.1631 43.5101H17.1803C17.451 43.509 17.7103 43.4013 17.9026 43.2103C18.0948 43.0193 18.2044 42.7604 18.2079 42.4892V42.4363C18.2143 42.3016 18.1941 42.167 18.1485 42.0402C18.1029 41.9134 18.0328 41.7968 17.9422 41.6971C17.8516 41.5974 17.7423 41.5166 17.6205 41.4593C17.4987 41.402 17.3668 41.3693 17.2324 41.3631H17.1717L17.1723 41.3638Z" fill="white"/>
<path d="M20.9218 42.3588L19.9978 40.9319H19.4269V43.9504H19.9549V41.7954L20.904 43.2124H20.9211L21.8781 41.7855V43.9517H22.4141V40.9319H21.8418L20.9218 42.3588Z" fill="white"/>
<path d="M25.9385 43.9942C25.7376 44.0015 25.5372 43.9691 25.3488 43.8988C25.1604 43.8284 24.9877 43.7216 24.8406 43.5843C24.6935 43.4471 24.5748 43.2821 24.4914 43.0988C24.408 42.9156 24.3614 42.7176 24.3545 42.5163V42.4343C24.3524 42.0226 24.5136 41.6269 24.8026 41.3341C24.9532 41.1861 25.1316 41.0695 25.3275 40.991C25.5233 40.9124 25.7328 40.8735 25.9437 40.8765C26.1446 40.8692 26.345 40.9016 26.5334 40.9719C26.7218 41.0422 26.8945 41.1491 27.0416 41.2864C27.1887 41.4236 27.3074 41.5886 27.3908 41.7718C27.4742 41.9551 27.5208 42.153 27.5277 42.3543V42.4436C27.5297 42.8554 27.3685 43.2511 27.0796 43.5439C26.9283 43.6904 26.7496 43.8056 26.5538 43.8827C26.358 43.9599 26.1488 43.9975 25.9385 43.9935M25.9385 41.3625C25.8046 41.3625 25.6721 41.3889 25.5485 41.4402C25.4248 41.4915 25.3125 41.5667 25.2179 41.6615C25.1233 41.7563 25.0482 41.8689 24.997 41.9927C24.9458 42.1166 24.9194 42.2494 24.9194 42.3834V42.4357C24.9126 42.7117 25.0149 42.9794 25.204 43.1803C25.3931 43.3813 25.6537 43.4993 25.9292 43.5088H25.9464C26.2171 43.5076 26.4765 43.4 26.6687 43.209C26.8609 43.0181 26.9705 42.7591 26.974 42.4879V42.4357C26.9804 42.301 26.9602 42.1664 26.9146 42.0396C26.869 41.9127 26.799 41.7961 26.7083 41.6965C26.6177 41.5968 26.5084 41.516 26.3866 41.4587C26.2648 41.4014 26.1329 41.3687 25.9985 41.3625H25.9378H25.9385Z" fill="white"/>
<path d="M28.1943 43.9505H28.7303V42.7193H30.2601V42.2359H28.7303V41.4061H30.4509V40.9214H28.1943V43.9505Z" fill="white"/>
<path d="M33.5087 42.1996C32.9292 42.0588 32.7886 41.9616 32.7886 41.7235V41.7149C32.7886 41.5119 32.9728 41.3546 33.281 41.3546C33.5818 41.3673 33.8708 41.4752 34.1066 41.6627L34.3964 41.266C34.087 41.0127 33.6976 40.8783 33.2981 40.8871C33.0557 40.8577 32.8116 40.9257 32.619 41.0761C32.4265 41.2265 32.3012 41.4471 32.2705 41.6898C32.2705 41.6898 32.2705 41.6951 32.2705 41.6977C32.2705 41.7149 32.2619 41.7414 32.2619 41.7678V41.7764C32.2619 42.3312 32.6223 42.5243 33.2717 42.675C33.834 42.8073 33.9562 42.9203 33.9562 43.1326V43.1425C33.9562 43.3706 33.745 43.5214 33.4202 43.5214C33.2425 43.5218 33.0664 43.487 32.9021 43.4189C32.7379 43.3508 32.5887 43.2508 32.4632 43.1247L32.1385 43.5035C32.4858 43.8167 32.9371 43.989 33.4044 43.9869C34.0459 43.9869 34.4855 43.653 34.4855 43.0883V43.0784C34.4855 42.5765 34.1509 42.3471 33.5093 42.1983" fill="white"/>
<path d="M35.327 43.9505H34.7818L36.1163 40.9148H36.6087L37.9432 43.9505H37.3828L37.0753 43.2231H35.6438L35.327 43.9505ZM36.3546 41.539L35.8358 42.7444H36.8806L36.3546 41.539Z" fill="white"/>
<path d="M40.3251 42.6656C40.3251 43.2204 40.0354 43.5021 39.5615 43.5021C39.0876 43.5021 38.7979 43.2032 38.7979 42.6425V40.9233H38.262V42.6676C38.2238 42.979 38.3105 43.2928 38.5033 43.54C38.696 43.7873 38.9788 43.9477 39.2896 43.9861H39.3068C39.3912 43.9948 39.4764 43.9948 39.5609 43.9861C39.8791 44.0149 40.1957 43.916 40.4411 43.711C40.6865 43.5061 40.8407 43.2119 40.8697 42.8931C40.8691 42.8905 40.8691 42.8877 40.8697 42.8851C40.8799 42.8003 40.877 42.7145 40.8611 42.6306V40.9114H40.3251V42.6656Z" fill="white"/>
<path d="M42.7671 43.9512H41.6339V40.9327H42.7671C43.1653 40.9047 43.5583 41.0363 43.8597 41.2985C44.1611 41.5608 44.3462 41.9322 44.3742 42.3312V42.4383C44.3742 42.8396 44.2152 43.2246 43.932 43.5085C43.6489 43.7924 43.2648 43.9521 42.8642 43.9525L42.7671 43.9512ZM42.1692 41.414V43.4638H42.7632C42.8932 43.4728 43.0238 43.456 43.1474 43.4143C43.2709 43.3725 43.385 43.3068 43.4832 43.2208C43.5813 43.1348 43.6615 43.0302 43.7191 42.913C43.7768 42.7959 43.8108 42.6685 43.8192 42.5381V42.4423C43.8276 42.1788 43.7317 41.9228 43.5524 41.7299C43.3731 41.5371 43.125 41.4231 42.8622 41.4127L42.1692 41.414Z" fill="white"/>
<path d="M45.5867 40.9319H45.0508V43.9504H45.5867V40.9319Z" fill="white"/>
<path d="M47.9838 43.9505H47.4393L48.7738 40.9148H49.2655L50.6 43.9505H50.039L49.7314 43.2231H48.2999L47.9838 43.9505ZM49.0101 41.539L48.4913 42.7444H49.5381L49.0101 41.539Z" fill="white"/>
<path d="M51.6375 43.9498H51.1016V40.9313H52.4546C52.775 40.9136 53.0897 41.0207 53.3331 41.2302C53.4985 41.4061 53.5895 41.6392 53.5872 41.8809V41.8895C53.593 42.1023 53.5241 42.3104 53.3926 42.4777C53.261 42.6449 53.0751 42.7606 52.8671 42.8046L53.6842 43.9479H53.0618L52.3154 42.8899H51.6474V43.9479L51.6375 43.9498ZM51.6375 41.414V42.4257H52.4196C52.7978 42.4257 53.0427 42.2326 53.0427 41.9245V41.9159C53.0427 41.5992 52.815 41.4147 52.4084 41.4147H51.6369L51.6375 41.414Z" fill="white"/>
<path d="M54.6155 43.9511H54.071L55.4055 40.9094H55.8972L57.2317 43.9451H56.6707L56.3632 43.2178H54.9316L54.6155 43.9577V43.9511ZM55.6444 41.5396L55.1257 42.745H56.1704L55.6444 41.5396Z" fill="white"/>
<path d="M59.1477 43.9512H57.7419V40.9327H59.1028C59.3909 40.9155 59.6746 41.0102 59.8948 41.1971C59.9619 41.2617 60.0147 41.3397 60.0496 41.426C60.0845 41.5124 60.1008 41.6052 60.0974 41.6983V41.7069C60.1002 41.8489 60.0605 41.9884 59.9836 42.1076C59.9067 42.2268 59.7961 42.3203 59.6658 42.3761C59.8354 42.4079 59.9887 42.4979 60.0993 42.6307C60.2098 42.7634 60.2708 42.9306 60.2717 43.1035V43.112C60.2644 43.6318 59.8519 43.9485 59.1497 43.9485M58.2626 42.6452V43.4738H59.1477C59.5173 43.4738 59.7364 43.3243 59.7364 43.0598V43.0512C59.7364 42.7867 59.5173 42.6466 59.1134 42.6466L58.2626 42.6452ZM58.2626 41.3962V42.1976H58.9886C59.3497 42.1976 59.5595 42.0481 59.5595 41.7836C59.5595 41.5456 59.3569 41.3962 59.0236 41.3962H58.2626Z" fill="white"/>
<path d="M61.4577 40.9319H60.9218V43.9504H61.4577V40.9319Z" fill="white"/>
<path d="M62.513 43.9505H61.9679L63.3024 40.9148H63.7947L65.1293 43.9505H64.5669L64.2594 43.2231H62.8278L62.513 43.9505ZM63.5406 41.539L63.0219 42.7444H64.0667L63.5406 41.539Z" fill="white"/>
<path d="M23.3203 12.0239L24.1783 12.8425L23.3526 13.6962L22.4946 12.8776L23.3203 12.0239Z" fill="white"/>
<path d="M25.2785 12.8776L26.1365 13.6962L26.9621 12.8425L26.1041 12.0239L25.2785 12.8776Z" fill="white"/>
<path d="M24.0667 13.952L24.7346 14.5874L25.3762 13.9262L24.7082 13.2908L24.0667 13.952Z" fill="white"/>
<path d="M26.516 14.3131L27.1839 14.9558L27.8254 14.2946L27.1575 13.6519L26.516 14.3131Z" fill="white"/>
<path d="M22.9771 14.9637L23.645 15.6064L24.2865 14.9452L23.6186 14.3025L22.9771 14.9637Z" fill="white"/>
<path d="M25.2171 15.0436L25.885 15.6863L26.5265 15.025L25.8586 14.3823L25.2171 15.0436Z" fill="white"/>
<path d="M24.7856 15.3427L24.338 15.8086L24.803 16.2571L25.2506 15.7911L24.7856 15.3427Z" fill="white"/>
<path d="M26.5603 15.6937L26.1127 16.1597L26.5778 16.6081L27.0254 16.1422L26.5603 15.6937Z" fill="white"/>
<path d="M29.977 12.6058L30.241 14.0605L31.6989 13.796L31.4349 12.3413L29.977 12.6058Z" fill="white"/>
<path d="M28.0808 13.2126L28.292 14.375L29.4602 14.1634L29.249 13.001L28.0808 13.2126Z" fill="white"/>
<path d="M30.3374 14.8315L30.5486 15.9939L31.7168 15.7823L31.5056 14.6199L30.3374 14.8315Z" fill="white"/>
<path d="M28.7303 14.9986L28.8973 15.9045L29.8107 15.7372L29.6437 14.8313L28.7303 14.9986Z" fill="white"/>
<path d="M30.4958 16.7237L30.6627 17.6296L31.5762 17.4623L31.4092 16.5564L30.4958 16.7237Z" fill="white"/>
<path d="M27.3594 15.3677L27.5264 16.2736L28.4399 16.1063L28.2729 15.2004L27.3594 15.3677Z" fill="white"/>
<path d="M29.0114 16.5552L29.1784 17.4611L30.0918 17.2938L29.9249 16.3879L29.0114 16.5552Z" fill="white"/>
<path d="M27.8518 16.6618L27.9653 17.2972L28.6068 17.1828L28.4927 16.5474L27.8518 16.6618Z" fill="white"/>
<path d="M29.082 17.9821L29.1955 18.6176L29.8371 18.5039L29.7236 17.8684L29.082 17.9821Z" fill="white"/>
<path d="M34.3092 17.3479L33.675 18.6763L35.0095 19.3117L35.6438 17.9833L34.3092 17.3479Z" fill="white"/>
<path d="M32.4111 16.7324L31.9009 17.797L32.9721 18.3081L33.4822 17.2435L32.4111 16.7324Z" fill="white"/>
<path d="M33.2895 19.3628L32.7794 20.4274L33.8505 20.9385L34.3607 19.8739L33.2895 19.3628Z" fill="white"/>
<path d="M31.8837 18.5627L31.4877 19.3893L32.3226 19.786L32.7186 18.9595L31.8837 18.5627Z" fill="white"/>
<path d="M32.3062 20.9827L31.9102 21.8099L32.745 22.2066L33.141 21.3794L32.3062 20.9827Z" fill="white"/>
<path d="M30.5565 18.0693L30.1605 18.8965L30.9954 19.2933L31.3914 18.4661L30.5565 18.0693Z" fill="white"/>
<path d="M31.2066 19.9883L30.8106 20.8155L31.6455 21.2122L32.0415 20.3857L31.2066 19.9883Z" fill="white"/>
<path d="M30.1968 19.4077L29.9156 19.9883L30.5043 20.27L30.7855 19.6894L30.1968 19.4077Z" fill="white"/>
<path d="M30.4258 21.1851L30.1447 21.7656L30.7334 22.0473L31.0145 21.4667L30.4258 21.1851Z" fill="white"/>
<path d="M35.0287 23.719L33.7285 24.4232L34.4399 25.7166L35.7401 25.0123L35.0287 23.719Z" fill="white"/>
<path d="M33.8512 22.1174L32.8064 22.6894L33.3773 23.7275L34.4135 23.1556L33.8512 22.1174Z" fill="white"/>
<path d="M33.017 24.7578L31.9722 25.3298L32.5431 26.3679L33.5793 25.7959L33.017 24.7578Z" fill="white"/>
<path d="M32.349 23.2878L31.5419 23.7276L31.99 24.5362L32.7972 24.0965L32.349 23.2878Z" fill="white"/>
<path d="M31.268 25.4971L30.4608 25.9368L30.9089 26.7455L31.7161 26.3058L31.268 25.4971Z" fill="white"/>
<path d="M31.5676 22.1174L30.7604 22.5571L31.2086 23.3658L32.0157 22.9261L31.5676 22.1174Z" fill="white"/>
<path d="M30.9584 24.0542L30.1512 24.4939L30.5994 25.3026L31.4066 24.8629L30.9584 24.0542Z" fill="white"/>
<path d="M30.4878 22.9883L29.9169 23.2964L30.2331 23.8684L30.804 23.5602L30.4878 22.9883Z" fill="white"/>
<path d="M29.6173 24.564L29.0464 24.8721L29.3626 25.4355L29.9335 25.1273L29.6173 24.564Z" fill="white"/>
<path d="M30.399 29.1148L30.2159 30.5759L31.6828 30.7604L31.8659 29.2994L30.399 29.1148Z" fill="white"/>
<path d="M30.6804 27.1694L30.5321 28.3396L31.7086 28.4893L31.857 27.3191L30.6804 27.1694Z" fill="white"/>
<path d="M28.449 28.8237L28.3006 29.9939L29.4771 30.1436L29.6255 28.9734L28.449 28.8237Z" fill="white"/>
<path d="M29.9427 27.3888L29.0292 27.2744L28.9157 28.1896L29.8285 28.3039L29.9427 27.3888Z" fill="white"/>
<path d="M27.7647 28.5592L26.8513 28.4448L26.7357 29.36L27.6492 29.4658L27.7647 28.5592Z" fill="white"/>
<path d="M30.0041 25.9882L29.08 25.8745L28.9665 26.7897L29.88 26.904L30.0041 25.9882Z" fill="white"/>
<path d="M28.3699 27.2036L27.4459 27.0898L27.3317 28.005L28.2452 28.1187L28.3699 27.2036Z" fill="white"/>
<path d="M27.9743 25.9892L27.8947 26.6323L28.5366 26.7121L28.6162 26.069L27.9743 25.9892Z" fill="white"/>
<path d="M26.3408 26.7634L26.2612 27.4065L26.9031 27.4862L26.9827 26.8432L26.3408 26.7634Z" fill="white"/>
<path d="M26.0163 31.9829L24.928 30.9785L23.9182 32.0603L25.0065 33.0647L26.0163 31.9829Z" fill="white"/>
<path d="M25.8223 11.3652L24.7333 10.3608L23.7235 11.4439L24.8119 12.4483L25.8223 11.3652Z" fill="white"/>
<path d="M27.1746 30.3729L26.3054 29.5715L25.4982 30.4311L26.3675 31.2325L27.1746 30.3729Z" fill="white"/>
<path d="M24.3914 30.4164L23.5222 29.615L22.715 30.4746L23.5842 31.276L24.3914 30.4164Z" fill="white"/>
<path d="M25.5867 29.3241L24.9122 28.7L24.2779 29.3771L24.9537 30.0013L25.5867 29.3241Z" fill="white"/>
<path d="M23.1348 28.9987L22.4602 28.3745L21.826 29.0516L22.5018 29.6758L23.1348 28.9987Z" fill="white"/>
<path d="M26.4552 28.2153L25.7807 27.5911L25.1465 28.2688L25.8223 28.893L26.4552 28.2153Z" fill="white"/>
<path d="M24.4178 28.2517L23.7433 27.6262L23.109 28.3033L23.7849 28.9288L24.4178 28.2517Z" fill="white"/>
<path d="M24.8021 27.0371L24.363 27.5129L24.838 27.9528L25.277 27.4769L24.8021 27.0371Z" fill="white"/>
<path d="M23.028 26.7126L22.589 27.1885L23.0639 27.6283L23.503 27.1525L23.028 26.7126Z" fill="white"/>
<path d="M19.7015 30.7589L19.4117 29.3154L17.9597 29.6057L18.2495 31.0492L19.7015 30.7589Z" fill="white"/>
<path d="M21.5891 30.1256L21.3515 28.9631L20.1833 29.1913L20.4209 30.3537L21.5891 30.1256Z" fill="white"/>
<path d="M19.3048 28.5426L19.0672 27.3801L17.899 27.6083L18.1366 28.7707L19.3048 28.5426Z" fill="white"/>
<path d="M20.9132 28.3488L20.7291 27.4502L19.8249 27.6261L20.009 28.5247L20.9132 28.3488Z" fill="white"/>
<path d="M22.2662 27.9621L22.0821 27.0635L21.1779 27.2394L21.362 28.1452L22.2662 27.9621Z" fill="white"/>
<path d="M20.5958 26.8009L20.4116 25.9023L19.5074 26.0868L19.6916 26.9854L20.5958 26.8009Z" fill="white"/>
<path d="M21.7567 26.6686L21.6333 26.0332L20.9918 26.1569L21.1152 26.7923L21.7567 26.6686Z" fill="white"/>
<path d="M20.5001 25.3747L20.3766 24.7393L19.7351 24.8629L19.8585 25.4984L20.5001 25.3747Z" fill="white"/>
<path d="M15.2946 26.0861L15.9091 24.7491L14.5653 24.1421L13.9509 25.4791L15.2946 26.0861Z" fill="white"/>
<path d="M17.1974 26.6758L17.6898 25.6027L16.6087 25.1094L16.117 26.1825L17.1974 26.6758Z" fill="white"/>
<path d="M16.2761 24.0613L16.7684 22.9881L15.6873 22.4949L15.195 23.568L16.2761 24.0613Z" fill="white"/>
<path d="M17.699 24.8376L18.0858 24.0012L17.2423 23.6223L16.8555 24.4588L17.699 24.8376Z" fill="white"/>
<path d="M18.8236 26.9331L19.2104 26.0967L18.3669 25.7178L17.9802 26.5542L18.8236 26.9331Z" fill="white"/>
<path d="M17.2337 22.4275L17.6205 21.591L16.777 21.2122L16.3902 22.0486L17.2337 22.4275Z" fill="white"/>
<path d="M19.025 25.3137L19.4117 24.4773L18.5682 24.0984L18.1815 24.9348L19.025 25.3137Z" fill="white"/>
<path d="M18.3491 23.4036L18.7359 22.5671L17.8924 22.1882L17.5056 23.0247L18.3491 23.4036Z" fill="white"/>
<path d="M19.0511 23.1031L18.7788 23.6924L19.3669 23.9652L19.6392 23.3759L19.0511 23.1031Z" fill="white"/>
<path d="M18.7957 21.3258L18.5234 21.915L19.1115 22.1878L19.3838 21.5986L18.7957 21.3258Z" fill="white"/>
<path d="M14.4657 19.7337L15.7481 19.0064L15.0095 17.7302L13.7271 18.4576L14.4657 19.7337Z" fill="white"/>
<path d="M15.6689 21.3166L16.6965 20.7361L16.1078 19.7065L15.0801 20.2964L15.6689 21.3166Z" fill="white"/>
<path d="M16.4589 18.6719L17.4865 18.0913L16.8978 17.0618L15.8702 17.6516L16.4589 18.6719Z" fill="white"/>
<path d="M17.4959 18.8614L16.6965 19.3191L17.1533 20.12L17.9527 19.6623L17.4959 18.8614Z" fill="white"/>
<path d="M18.542 16.6344L17.7426 17.092L18.1994 17.8929L18.9988 17.4353L18.542 16.6344Z" fill="white"/>
<path d="M18.2958 20.0233L17.4964 20.481L17.9532 21.2818L18.7526 20.8242L18.2958 20.0233Z" fill="white"/>
<path d="M18.8753 18.078L18.0759 18.5356L18.5327 19.3365L19.3321 18.8789L18.8753 18.078Z" fill="white"/>
<path d="M19.0151 20.3838L19.5774 20.067L19.2527 19.5037L18.6903 19.8204L19.0151 20.3838Z" fill="white"/>
<path d="M19.8585 18.8L20.4208 18.4833L20.0961 17.9199L19.5338 18.2367L19.8585 18.8Z" fill="white"/>
<path d="M17.5307 14.102L19.0072 14.26L19.1649 12.7994L17.6885 12.6414L17.5307 14.102Z" fill="white"/>
<path d="M17.6971 14.9197L17.575 16.0903L18.7519 16.2136L18.874 15.043L17.6971 14.9197Z" fill="white"/>
<path d="M19.9028 13.221L19.7807 14.3916L20.9576 14.5148L21.0798 13.3442L19.9028 13.221Z" fill="white"/>
<path d="M19.4817 15.9747L20.4057 16.0719L20.5027 15.1568L19.5787 15.0596L19.4817 15.9747Z" fill="white"/>
<path d="M21.6418 14.7779L22.5659 14.8751L22.6629 13.96L21.7389 13.8628L21.6418 14.7779Z" fill="white"/>
<path d="M19.4553 17.3831L20.3793 17.4803L20.4763 16.5652L19.5523 16.468L19.4553 17.3831Z" fill="white"/>
<path d="M21.0624 16.1427L21.9864 16.2399L22.0834 15.3247L21.1594 15.2275L21.0624 16.1427Z" fill="white"/>
<path d="M20.8426 17.278L21.492 17.348L21.562 16.7053L20.9126 16.6353L20.8426 17.278Z" fill="white"/>
<path d="M22.4596 16.4772L23.109 16.5473L23.179 15.9046L22.5296 15.8345L22.4596 16.4772Z" fill="white"/>
<path d="M29.4417 22.6194C29.2553 22.5134 29.0579 22.4281 28.853 22.3648C28.3311 22.199 27.7773 22.1598 27.2373 22.2504C26.9982 22.2877 26.763 22.3466 26.5344 22.4263L26.4645 22.4514C26.338 22.4996 26.2145 22.5554 26.0949 22.6187C25.9893 22.671 25.8837 22.7324 25.7787 22.7946C25.5347 22.941 25.2999 23.1024 25.0758 23.278C24.8946 22.0393 24.8711 20.7826 25.0059 19.5381C25.0059 19.5359 25.0067 19.5338 25.0082 19.5322C25.0096 19.5306 25.0116 19.5296 25.0138 19.5295C25.5761 19.8812 25.4184 20.8579 25.295 21.1395C25.295 21.1417 25.2958 21.1438 25.2972 21.1454C25.2987 21.147 25.3007 21.148 25.3029 21.1481C25.5337 20.8829 25.6778 20.553 25.7156 20.2031C25.7533 19.8532 25.683 19.5002 25.5141 19.1916C25.5141 19.183 25.5141 19.183 25.5227 19.183C25.6159 19.2589 25.701 19.3442 25.7768 19.4376C25.9629 19.6751 26.0731 19.9634 26.0929 20.2647C26.1016 20.3909 26.1016 20.5175 26.0929 20.6436C26.0929 20.6688 26.0843 20.6959 26.0843 20.7236C26.0843 20.7322 26.0843 20.7322 26.0929 20.7322C26.2097 20.5066 26.2706 20.2561 26.2706 20.0019C26.2706 19.7477 26.2097 19.4973 26.0929 19.2716C26.0052 19.1152 25.8991 18.9701 25.7768 18.8391C25.7378 18.7958 25.6966 18.7545 25.6533 18.7155V18.7069C25.6533 18.6983 25.6533 18.7069 25.6619 18.7069C25.7041 18.7147 25.7454 18.7265 25.7853 18.7419C25.8993 18.7796 26.0062 18.8361 26.1015 18.9092C26.3027 19.0581 26.4554 19.2634 26.5404 19.4991C26.6101 19.6694 26.646 19.8518 26.646 20.036C26.646 20.0381 26.6468 20.0402 26.6483 20.0418C26.6497 20.0434 26.6517 20.0444 26.6539 20.0446C26.6625 20.0446 26.6625 20.0446 26.6625 20.036C26.7639 19.7577 26.764 19.4526 26.6627 19.1743C26.5614 18.896 26.3652 18.6626 26.1087 18.5151C26.0101 18.4543 25.9038 18.407 25.7926 18.3743C25.744 18.3584 25.6941 18.3467 25.6434 18.3393C25.6349 18.3393 25.6349 18.3307 25.6434 18.3307C25.6929 18.324 25.7427 18.3211 25.7926 18.3221C25.8985 18.3222 26.0042 18.3306 26.1087 18.3472C26.2657 18.3745 26.4152 18.4344 26.5476 18.5231C26.6706 18.6036 26.7729 18.7121 26.846 18.8398C26.846 18.8484 26.8545 18.8398 26.8545 18.8398C26.8447 18.726 26.8124 18.6153 26.7596 18.5141C26.7069 18.4128 26.6346 18.3231 26.547 18.25C26.4177 18.1449 26.2683 18.0672 26.1081 18.0219C26.0049 17.9943 25.8987 17.9796 25.7919 17.9782C25.6566 17.9752 25.522 17.999 25.3959 18.0483C25.3874 18.0483 25.3874 18.0483 25.3874 18.0397C25.4835 17.8997 25.6274 17.7995 25.7919 17.758C25.8937 17.7241 26.0014 17.7122 26.1081 17.723C26.1962 17.726 26.2827 17.7471 26.3622 17.7851H26.3708V17.7766C26.2953 17.6917 26.206 17.6201 26.1068 17.565C26.0084 17.5115 25.9014 17.4756 25.7906 17.4592C25.6416 17.4421 25.4909 17.4689 25.3569 17.5362C25.2228 17.6034 25.1112 17.7083 25.0356 17.838H25.027C24.992 17.7759 24.957 17.6972 24.9214 17.6265C24.8418 17.4429 24.7829 17.2511 24.7458 17.0545C24.7458 17.0522 24.7449 17.05 24.7433 17.0484C24.7417 17.0468 24.7395 17.0459 24.7373 17.0459C24.735 17.0459 24.7328 17.0468 24.7312 17.0484C24.7296 17.05 24.7287 17.0522 24.7287 17.0545C24.6916 17.2511 24.6327 17.4429 24.5531 17.6265C24.5216 17.6988 24.4864 17.7694 24.4475 17.838H24.4389C24.3225 17.6568 24.1397 17.5286 23.9299 17.481C23.7201 17.4334 23.5 17.4702 23.3169 17.5835C23.2366 17.636 23.1653 17.7012 23.1057 17.7766V17.7851H23.1143C23.2826 17.7166 23.4685 17.7044 23.6442 17.7502C23.82 17.7961 23.9763 17.8976 24.0898 18.0397V18.0483H24.0812C23.8661 17.9715 23.6331 17.9597 23.4113 18.0145C23.1895 18.0693 22.9887 18.1882 22.8338 18.3564C22.7184 18.4936 22.6451 18.6612 22.6226 18.8391C22.6226 18.8477 22.6312 18.8477 22.6312 18.8391C22.6827 18.7503 22.7478 18.67 22.8239 18.6011C22.9644 18.4884 23.1266 18.406 23.3004 18.359C23.4741 18.3121 23.6557 18.3015 23.8337 18.328C23.8423 18.328 23.8423 18.3366 23.8337 18.3366C23.6119 18.3749 23.4032 18.4683 23.2268 18.6083C23.0504 18.7483 22.9119 18.9305 22.8239 19.138C22.7241 19.4287 22.7211 19.744 22.8153 20.0366C22.8153 20.0388 22.8162 20.0409 22.8176 20.0425C22.8191 20.0441 22.8211 20.0451 22.8233 20.0452C22.8318 20.0452 22.8318 20.0452 22.8318 20.0366V20.0122C22.8276 19.7152 22.922 19.4253 23.1001 19.188C23.2782 18.9507 23.53 18.7793 23.8159 18.701C23.8181 18.7005 23.8203 18.7005 23.8225 18.701C23.823 18.702 23.8232 18.7031 23.8232 18.7043C23.8232 18.7054 23.823 18.7065 23.8225 18.7076V18.7162C23.5272 18.9466 23.3211 19.2728 23.2394 19.6387C23.1576 20.0047 23.2053 20.3877 23.3744 20.7223H23.3829V20.7137C23.3323 20.4287 23.3576 20.1352 23.4564 19.8631C23.5551 19.591 23.7237 19.3498 23.9453 19.1638C23.9538 19.1638 23.9538 19.1638 23.9538 19.1724C23.7866 19.4814 23.7172 19.8342 23.7549 20.1837C23.7927 20.5332 23.9357 20.8629 24.165 21.129C24.165 21.1376 24.1736 21.129 24.1736 21.1204C24.0594 20.8387 23.901 19.864 24.4548 19.5103H24.4634C24.5937 20.7551 24.5702 22.0112 24.3934 23.2502C23.9725 22.9128 23.5058 22.6372 23.0074 22.4316C22.9454 22.4144 22.8932 22.3879 22.8404 22.3694C22.4188 22.2293 21.9754 22.1668 21.5316 22.185C21.061 22.2011 20.5994 22.3183 20.178 22.5288C20.1258 22.5539 20.081 22.581 20.046 22.5989C20.0374 22.6075 20.0374 22.6075 20.046 22.6161C20.0507 22.6206 20.0567 22.6236 20.0631 22.6247C20.1067 22.6161 20.143 22.5995 20.1866 22.5896C20.6265 22.4662 21.0847 22.4214 21.5402 22.4574C21.9933 22.4989 22.436 22.6179 22.849 22.8092C23.4129 23.0749 23.9388 23.4152 24.4125 23.8208C23.9181 24.2943 23.396 24.7378 22.849 25.1492L22.7969 25.1744C22.7421 25.0967 22.6589 25.0439 22.5654 25.0275C22.4719 25.0112 22.3757 25.0326 22.2979 25.0871L22.2867 25.095C22.2148 25.1452 22.1645 25.2208 22.1461 25.3066C22.133 25.3612 22.1324 25.4182 22.1445 25.4731C22.1567 25.528 22.1811 25.5793 22.2161 25.6233C22.2978 25.7052 22.4039 25.7581 22.5184 25.7741C22.6328 25.7901 22.7494 25.7683 22.8503 25.7119C23.4862 25.3102 24.0678 24.8282 24.5808 24.2777C24.6429 24.2255 24.6944 24.1719 24.7564 24.1197C24.8184 24.1719 24.8706 24.2255 24.932 24.2777C25.2481 24.568 25.5378 24.8497 25.8012 25.0864C25.9068 25.1836 26.0124 25.2795 26.1173 25.3595C26.2543 25.4749 26.4012 25.578 26.5562 25.6676C26.6583 25.7442 26.7832 25.7841 26.9106 25.781C27.0381 25.7779 27.1609 25.7319 27.2591 25.6504C27.2688 25.6396 27.2807 25.631 27.2941 25.6253C27.3274 25.5804 27.3508 25.529 27.3629 25.4744C27.3749 25.4199 27.3753 25.3633 27.3641 25.3086C27.3489 25.24 27.3118 25.1783 27.2585 25.1327C27.2117 25.087 27.1543 25.0536 27.0915 25.0355C27.0216 25.0198 26.9487 25.0248 26.8816 25.0498C26.8144 25.0748 26.756 25.1187 26.7133 25.1763C26.6604 25.1492 26.6104 25.1166 26.5641 25.0791C26.4119 24.9696 26.2654 24.8521 26.1252 24.7274C26.0282 24.6388 25.9226 24.5429 25.8091 24.4457C25.59 24.2526 25.3524 24.0318 25.1062 23.8102C25.3339 23.6258 25.5682 23.44 25.8091 23.2813C25.9147 23.2112 26.0203 23.149 26.1252 23.0783C26.2658 22.9897 26.415 22.9202 26.5641 22.8402C26.7913 22.7341 27.0263 22.6456 27.267 22.5757C27.792 22.4253 28.3435 22.3921 28.8827 22.4785C29.0754 22.5136 29.2695 22.5585 29.4622 22.6108C29.4708 22.6108 29.4794 22.6108 29.4794 22.6022C29.4444 22.6194 29.4444 22.6108 29.4358 22.6108" fill="white"/>
</g>
<mask id="mask2_1149_53730" style="mask-type:luminance" maskUnits="userSpaceOnUse" x="0" y="0" width="67" height="44">
<path d="M66.5172 0H0.517242V44H66.5172V0Z" fill="white"/>
</mask>
<g mask="url(#mask2_1149_53730)">
<path d="M63.8555 9.182C64.0333 9.10188 64.1853 8.97365 64.2944 8.81172C64.4131 8.63353 64.494 8.43276 64.532 8.2219C64.5819 7.96402 64.6054 7.70168 64.6019 7.43901V2.27417H63.8555V7.43967C63.857 7.61663 63.8453 7.79345 63.8205 7.96865C63.8038 8.09174 63.7654 8.21087 63.707 8.32043C63.6571 8.4042 63.5836 8.47136 63.4958 8.5135C63.3836 8.55591 63.2645 8.57699 63.1447 8.57566C63.086 8.57718 63.0273 8.57431 62.9691 8.56706C62.9006 8.55745 62.8329 8.54287 62.7665 8.52342L62.5738 9.23622C62.7713 9.28957 62.975 9.31647 63.1796 9.31623C63.4121 9.32518 63.6435 9.27991 63.8555 9.18399" fill="white"/>
<path d="M61.3092 0.00341797H59.6843V1.53614H61.3092V0.00341797Z" fill="white"/>
<path d="M61.3092 0.00341797H59.6843V1.53482H61.3092V0.00341797Z" fill="white"/>
</g>
</g>
<defs>
<clipPath id="clip0_1149_53730">
<rect width="66" height="44" fill="white" transform="translate(0.517242)"/>
</clipPath>
</defs>
</svg>
