<svg width="16" height="16" viewBox="0 0 16 16" fill="none" xmlns="http://www.w3.org/2000/svg">
<path fill-rule="evenodd" clip-rule="evenodd" d="M7.99985 0.833252C6.06685 0.833252 4.49985 2.40026 4.49985 4.33325C4.49985 6.26625 6.06685 7.83325 7.99985 7.83325C9.93284 7.83325 11.4998 6.26625 11.4998 4.33325C11.4998 2.40026 9.93284 0.833252 7.99985 0.833252ZM5.49985 4.33325C5.49985 2.95254 6.61914 1.83325 7.99985 1.83325C9.38056 1.83325 10.4998 2.95254 10.4998 4.33325C10.4998 5.71396 9.38056 6.83325 7.99985 6.83325C6.61914 6.83325 5.49985 5.71396 5.49985 4.33325Z" fill="#384250"/>
<path fill-rule="evenodd" clip-rule="evenodd" d="M12.1524 10.0527C12.044 9.99155 11.9482 9.93753 11.8707 9.89137C9.50136 8.48055 6.49857 8.48055 4.12921 9.89137C4.05167 9.93754 3.95588 9.99158 3.84744 10.0528C3.37223 10.3209 2.65389 10.7261 2.16178 11.2078C1.854 11.5091 1.56156 11.9061 1.5084 12.3924C1.45186 12.9097 1.6775 13.395 2.13018 13.8263C2.91115 14.5703 3.84834 15.1666 5.06054 15.1666H10.9394C12.1516 15.1666 13.0888 14.5703 13.8697 13.8263C14.3224 13.395 14.5481 12.9097 14.4915 12.3924C14.4384 11.9061 14.1459 11.5091 13.8382 11.2078C13.346 10.7261 12.6276 10.3208 12.1524 10.0527ZM4.64082 10.7506C6.69494 9.52748 9.30499 9.52748 11.3591 10.7506C11.471 10.8172 11.5937 10.8868 11.7221 10.9597C12.1972 11.2292 12.7519 11.5439 13.1387 11.9224C13.3787 12.1574 13.4811 12.3513 13.4974 12.5011C13.5104 12.62 13.4804 12.8161 13.18 13.1023C12.4894 13.7602 11.7877 14.1666 10.9394 14.1666H5.06054C4.21225 14.1666 3.51053 13.7602 2.81996 13.1023C2.51954 12.8161 2.48948 12.62 2.50248 12.5011C2.51885 12.3513 2.62119 12.1574 2.86128 11.9224C3.248 11.5439 3.80268 11.2292 4.27776 10.9597C4.4062 10.8868 4.52891 10.8172 4.64082 10.7506Z" fill="#384250"/>
</svg>
