<svg width="20" height="20" viewBox="0 0 20 20" fill="none" xmlns="http://www.w3.org/2000/svg">
<path fill-rule="evenodd" clip-rule="evenodd" d="M10 13.9583C12.6464 13.9583 14.7917 11.813 14.7917 9.16663V5.83329C14.7917 3.18693 12.6464 1.04163 10 1.04163C7.35365 1.04163 5.20834 3.18693 5.20834 5.83329V9.16663C5.20834 11.813 7.35365 13.9583 10 13.9583ZM10 2.29163C8.044 2.29163 6.45834 3.87728 6.45834 5.83329V9.16663C6.45834 11.1226 8.044 12.7083 10 12.7083C11.7428 12.7083 13.1915 11.4495 13.4867 9.79163H11.6667C11.3215 9.79163 11.0417 9.5118 11.0417 9.16663C11.0417 8.82145 11.3215 8.54163 11.6667 8.54163H13.5417V6.45829H11.6667C11.3215 6.45829 11.0417 6.17847 11.0417 5.83329C11.0417 5.48811 11.3215 5.20829 11.6667 5.20829H13.4867C13.1915 3.55037 11.7428 2.29163 10 2.29163Z" fill="white"/>
<path d="M3.95834 9.16663C3.95834 8.82145 3.67852 8.54163 3.33334 8.54163C2.98817 8.54163 2.70834 8.82145 2.70834 9.16663C2.70834 12.9832 5.64051 16.1149 9.37501 16.4319V17.7083H7.50001C7.15483 17.7083 6.87501 17.9881 6.87501 18.3333C6.87501 18.6785 7.15483 18.9583 7.50001 18.9583H12.5C12.8452 18.9583 13.125 18.6785 13.125 18.3333C13.125 17.9881 12.8452 17.7083 12.5 17.7083H10.625V16.4319C14.3595 16.1149 17.2917 12.9832 17.2917 9.16663C17.2917 8.82145 17.0119 8.54163 16.6667 8.54163C16.3215 8.54163 16.0417 8.82145 16.0417 9.16663C16.0417 12.5033 13.3367 15.2083 10 15.2083C6.66329 15.2083 3.95834 12.5033 3.95834 9.16663Z" fill="white"/>
</svg>
