<svg width="22" height="22" viewBox="0 0 22 22" fill="none" xmlns="http://www.w3.org/2000/svg">
<path d="M16.2503 8.70717C16.6407 8.56889 16.8452 8.14027 16.7069 7.74982C16.5686 7.35937 16.14 7.15495 15.7495 7.29323C14.9145 7.58899 14.1029 8.15884 13.3767 8.7957C12.6428 9.43938 11.9535 10.1895 11.3652 10.8948C10.835 11.5303 10.3793 12.1384 10.0383 12.6151C9.69507 12.1487 9.3543 11.8351 9.04093 11.6262C9.01521 11.609 8.98961 11.5915 8.9638 11.5738C8.73606 11.4176 8.49189 11.2502 8.00289 11.2502C7.58868 11.2502 7.24991 11.586 7.24991 12.0002C7.24991 12.3977 7.55921 12.7231 7.9503 12.7486C7.95394 12.7494 7.95911 12.7507 7.96574 12.7526C8.00125 12.7627 8.08656 12.7927 8.20888 12.8742C8.45208 13.0364 8.87357 13.4246 9.32909 14.3356C9.44997 14.5774 9.6916 14.7354 9.96156 14.7492C10.2315 14.763 10.4881 14.6303 10.633 14.4022C10.7221 14.2685 10.9865 13.8719 11.1531 13.6358C11.4868 13.163 11.9597 12.5236 12.517 11.8556C13.0757 11.1859 13.71 10.4985 14.3657 9.92346C15.0293 9.34157 15.6736 8.91142 16.2503 8.70717Z" fill="white"/>
<path fill-rule="evenodd" clip-rule="evenodd" d="M10.9981 0.25C9.31683 0.25 7.94999 0.817939 6.75786 1.43555C6.3976 1.62219 6.06293 1.8068 5.74313 1.98322C4.96068 2.41485 4.2672 2.7974 3.50564 3.04039L3.48022 3.0485C3.03292 3.19121 2.66213 3.30951 2.3812 3.4196C2.11678 3.52321 1.80253 3.6652 1.57957 3.91299C1.37929 4.13558 1.27639 4.38547 1.20817 4.6245C1.14624 4.84148 1.09882 5.10462 1.04804 5.38644L1.04252 5.41705C-0.195419 12.2827 2.51157 18.787 9.12203 21.3179L9.15493 21.3305C9.80469 21.5793 10.2503 21.75 11.0014 21.75C11.7525 21.75 12.1981 21.5793 12.8478 21.3305L12.8807 21.3179C19.4909 18.7869 22.1952 12.2824 20.957 5.417L20.9514 5.38634C20.9006 5.1045 20.8532 4.84132 20.7912 4.62433C20.723 4.38529 20.6201 4.13537 20.4198 3.91278C20.1968 3.66499 19.8825 3.52304 19.6181 3.41946C19.3372 3.30942 18.9664 3.19119 18.5192 3.04857L18.4937 3.04044C17.7317 2.79744 17.0376 2.4148 16.2546 1.9831C15.9347 1.80671 15.5999 1.62213 15.2395 1.43554C14.0468 0.817951 12.6794 0.25 10.9981 0.25ZM3.96159 4.46941C4.87345 4.17847 5.76183 3.68833 6.59213 3.23023C6.88511 3.06859 7.17087 2.91093 7.44787 2.76742C8.55942 2.19156 9.67159 1.75 10.9981 1.75C12.3247 1.75 13.4375 2.19162 14.5498 2.76757C14.8269 2.91107 15.1128 3.06872 15.406 3.23035C16.2368 3.68847 17.1257 4.17862 18.0379 4.46953C18.5171 4.62233 18.8409 4.72599 19.071 4.81613C19.2224 4.87546 19.2883 4.91295 19.3095 4.9254C19.3174 4.94136 19.3312 4.97432 19.3489 5.03609C19.3877 5.17222 19.4225 5.36018 19.4808 5.68325C20.6218 12.0095 18.1321 17.701 12.3443 19.917C11.68 20.1714 11.4618 20.25 11.0014 20.25C10.541 20.25 10.3228 20.1714 9.65835 19.9171C3.87002 17.7009 1.37808 12.0093 2.51872 5.68322C2.57696 5.3602 2.61173 5.17228 2.65057 5.03618C2.6682 4.97443 2.68197 4.94148 2.6899 4.92552C2.71111 4.91307 2.77697 4.87556 2.92847 4.8162C3.15859 4.72602 3.48244 4.62229 3.96159 4.46941Z" fill="white"/>
</svg>
