<svg width="22" height="22" viewBox="0 0 22 22" fill="none" xmlns="http://www.w3.org/2000/svg">
<path d="M8.60102 2.57367C9.36582 2.36262 10.1697 2.25 10.9999 2.25C11.8301 2.25 12.634 2.36262 13.3988 2.57367C13.9946 2.7381 14.3292 2.83437 14.5621 2.95542C14.7383 3.04698 14.8211 3.13396 14.8928 3.30787C14.9516 3.45012 14.9668 3.59476 14.8718 3.88502C14.7625 4.21876 14.545 4.63492 14.1923 5.30095L13.2482 7.08336C13.0544 7.4494 13.1939 7.9033 13.56 8.09717C13.926 8.29104 14.3799 8.15147 14.5738 7.78543L15.5454 5.95099C15.8621 5.35315 16.1432 4.82255 16.2973 4.3517C16.4702 3.82376 16.5106 3.29587 16.2794 2.73563C16.0613 2.20704 15.7161 1.86468 15.2538 1.62443C14.8633 1.42147 14.3718 1.28597 13.8571 1.14409L13.7978 1.12772C12.9045 0.881216 11.9665 0.75 10.9999 0.75C10.0333 0.75 9.09528 0.881216 8.202 1.12772L8.14264 1.14409C7.62801 1.28597 7.1365 1.42147 6.74596 1.62443C6.28367 1.86468 5.93852 2.20704 5.72037 2.73563C5.48915 3.29587 5.52961 3.82376 5.70244 4.3517C5.85658 4.82255 6.13767 5.35313 6.45438 5.95097L7.42598 7.78542C7.61985 8.15147 8.07375 8.29104 8.43979 8.09717C8.80584 7.9033 8.94541 7.4494 8.75154 7.08336L7.80751 5.30095C7.45476 4.63493 7.23725 4.21876 7.128 3.88502C7.03297 3.59476 7.04822 3.45011 7.10693 3.30787C7.1787 3.13396 7.26149 3.04698 7.43767 2.95542C7.6706 2.83437 8.00517 2.7381 8.60102 2.57367Z" fill="white"/>
<path d="M3.87311 10.9149C3.19014 10.9148 2.57705 10.9148 2.0822 11.0073C1.51881 11.1127 1.02627 11.3511 0.658977 11.8667C0.315893 12.3484 0.213929 12.8417 0.260643 13.3788C0.300615 13.8383 0.454627 14.3565 0.619494 14.9112L0.637158 14.9706C1.20376 16.8784 2.24795 18.5707 3.62713 19.8966L3.67199 19.9397C4.06486 20.3176 4.4377 20.6762 4.81167 20.9103C5.25422 21.1874 5.72826 21.3138 6.29581 21.2186C6.89943 21.1173 7.31918 20.7855 7.65862 20.3479C7.96081 19.9582 8.24292 19.4255 8.56009 18.8265L9.79687 16.4913C9.99074 16.1253 9.85117 15.6714 9.48513 15.4775C9.11908 15.2836 8.66519 15.4232 8.47132 15.7892L7.26277 18.0711C6.90848 18.74 6.68604 19.1543 6.47334 19.4286C6.28893 19.6663 6.17326 19.7182 6.04758 19.7393C5.88581 19.7664 5.77929 19.7464 5.60769 19.639C5.38171 19.4975 5.12093 19.2519 4.66668 18.8152C3.47393 17.6686 2.56746 16.2015 2.07508 14.5436C1.88648 13.9085 1.78018 13.5382 1.755 13.2488C1.73514 13.0205 1.77004 12.8924 1.8807 12.737C1.96714 12.6157 2.07032 12.5356 2.35805 12.4818C2.69903 12.418 3.16976 12.4149 3.93665 12.4149H6.00255C6.41677 12.4149 6.75255 12.0791 6.75255 11.6649C6.75255 11.2507 6.41677 10.9149 6.00255 10.9149L3.87311 10.9149Z" fill="white"/>
<path d="M18.0631 12.4149C18.83 12.4149 19.3007 12.418 19.6417 12.4818C19.9295 12.5356 20.0326 12.6157 20.1191 12.737C20.2297 12.8924 20.2646 13.0205 20.2448 13.2488C20.2196 13.5382 20.1133 13.9086 19.9247 14.5436C19.4323 16.2015 18.5258 17.6686 17.3331 18.8152C16.8788 19.2519 16.6181 19.4975 16.3921 19.639C16.2205 19.7464 16.114 19.7664 15.9522 19.7393C15.8265 19.7182 15.7108 19.6663 15.5264 19.4286C15.3137 19.1543 15.0913 18.74 14.737 18.0711L13.5285 15.7892C13.3346 15.4232 12.8807 15.2836 12.5146 15.4775C12.1486 15.6714 12.009 16.1253 12.2029 16.4913L13.4397 18.8265C13.7569 19.4255 14.039 19.9582 14.3412 20.3479C14.6806 20.7855 15.1003 21.1173 15.704 21.2186C16.2715 21.3138 16.7456 21.1874 17.1881 20.9103C17.5621 20.6762 17.9349 20.3176 18.3278 19.9398L18.3726 19.8966C19.7518 18.5707 20.796 16.8784 21.3626 14.9706L21.3803 14.9112C21.5451 14.3565 21.6992 13.8383 21.7391 13.3788C21.7858 12.8417 21.6839 12.3484 21.3408 11.8667C20.9735 11.3511 20.481 11.1127 19.9176 11.0073C19.4227 10.9148 18.8096 10.9148 18.1267 10.9149L15.9972 10.9149C15.583 10.9149 15.2472 11.2507 15.2472 11.6649C15.2472 12.0791 15.583 12.4149 15.9972 12.4149H18.0631Z" fill="white"/>
<path fill-rule="evenodd" clip-rule="evenodd" d="M11 8.75C9.48119 8.75 8.24997 9.98122 8.24997 11.5C8.24997 13.0188 9.48119 14.25 11 14.25C12.5188 14.25 13.75 13.0188 13.75 11.5C13.75 9.98122 12.5188 8.75 11 8.75ZM9.74997 11.5C9.74997 10.8096 10.3096 10.25 11 10.25C11.6903 10.25 12.25 10.8096 12.25 11.5C12.25 12.1904 11.6903 12.75 11 12.75C10.3096 12.75 9.74997 12.1904 9.74997 11.5Z" fill="white"/>
</svg>
