<svg width="20" height="22" viewBox="0 0 20 22" fill="none" xmlns="http://www.w3.org/2000/svg">
<g id="elements">
<g id="Icon">
<path fill-rule="evenodd" clip-rule="evenodd" d="M18.5004 12.75C18.0867 12.7497 17.7509 12.4138 17.7509 12V6.82998C17.7509 5.22898 17.7509 4.42504 17.5349 3.89004C17.1829 2.99704 16.4379 2.29396 15.4889 1.95596C14.894 1.75 14.0343 1.75 12.322 1.75H12.3209C12.0176 1.75 11.7292 1.75 11.4547 1.75039C10.0525 1.77459 8.91996 2.92208 8.91996 4.32998C8.91996 4.48969 8.92712 4.66192 8.93466 4.84326L8.93597 4.875C8.95997 5.421 8.9869 6.04102 8.8349 6.62002C8.6179 7.46002 7.95893 8.11904 7.11693 8.33604C6.53993 8.48704 5.91996 8.46004 5.37396 8.43604L5.3398 8.43462C5.15946 8.42711 4.98887 8.42002 4.82894 8.42002C3.43003 8.42002 2.28821 9.53816 2.24995 10.928L2.24994 12C2.24994 12.414 1.91394 12.75 1.49994 12.75C1.08594 12.75 0.749939 12.414 0.749939 12L0.749945 10.9918C0.750213 8.07164 0.761894 6.57662 1.27191 5.28398C2.10491 3.17498 3.86095 1.51603 6.09095 0.732031C7.34059 0.295882 8.78591 0.254367 11.4412 0.250416C11.4608 0.250139 11.4803 0.25 11.4999 0.25C11.5072 0.25 11.5144 0.250103 11.5216 0.250308C11.7764 0.25 12.0422 0.25 12.32 0.25C14.2019 0.25 15.1459 0.25 15.9859 0.541992C17.3489 1.02799 18.4189 2.04496 18.9279 3.33496C19.2499 4.13496 19.2499 5.03598 19.2499 6.82998V12C19.2499 12.4138 18.9142 12.7497 18.5004 12.75ZM6.58793 2.14805C7.05754 1.98409 7.59419 1.88767 8.27672 1.83097C7.7399 2.52182 7.41996 3.38918 7.41996 4.32998C7.41996 4.53198 7.42893 4.74004 7.43793 4.94004L7.43809 4.94384C7.45804 5.40466 7.47866 5.88099 7.38392 6.24199C7.30192 6.55599 7.05598 6.80198 6.73998 6.88398C6.3809 6.97775 5.90441 6.95712 5.44351 6.93716L5.43998 6.93701C5.23898 6.92801 5.03192 6.91904 4.82992 6.91904C3.87724 6.91904 2.99986 7.24712 2.30481 7.79624C2.35791 6.96705 2.46237 6.3547 2.66791 5.83496C3.34091 4.13096 4.76993 2.78705 6.58793 2.14805Z" fill="#067647"/>
<path d="M14.2499 21.001C14.2499 21.415 14.5859 21.751 14.9999 21.751C15.4139 21.751 15.7499 21.415 15.7499 21.001V18.751H17.4999C17.9139 18.751 18.2499 18.415 18.2499 18.001C18.2499 17.587 17.9139 17.251 17.4999 17.251H15.7499V17.001C15.7499 16.524 15.7499 15.935 15.8209 15.822C15.9349 15.751 16.5239 15.751 16.9999 15.751H18.4999C18.9139 15.751 19.2499 15.415 19.2499 15.001C19.2499 14.587 18.9139 14.251 18.4999 14.251H16.9999C15.932 14.251 15.287 14.251 14.769 14.752L14.7509 14.77C14.2499 15.288 14.2499 15.9329 14.2499 17.0008V21.001Z" fill="#067647"/>
<path fill-rule="evenodd" clip-rule="evenodd" d="M7.92797 21.572C8.24097 21.751 8.55894 21.751 8.99994 21.751C11.0679 21.751 12.7499 20.068 12.7499 18C12.7499 15.932 11.0679 14.25 8.99994 14.25C8.56001 14.25 8.24088 14.25 7.92592 14.43C7.24292 14.823 7.24694 15.541 7.24994 15.926V20.074C7.24694 20.46 7.24197 21.177 7.92797 21.572ZM8.99436 20.251C8.91101 20.251 8.8233 20.251 8.74994 20.25V15.917C8.74894 15.868 8.74794 15.807 8.74994 15.752C8.82324 15.751 8.91181 15.751 8.99421 15.751H8.99994C10.2409 15.751 11.2499 16.76 11.2499 18.001C11.2499 19.242 10.2409 20.251 8.99994 20.251H8.99436Z" fill="#067647"/>
<path fill-rule="evenodd" clip-rule="evenodd" d="M0.749939 21.001C0.749939 21.415 1.08594 21.751 1.49994 21.751C1.91394 21.751 2.24994 21.415 2.24994 21.001V18.751H3.49994C4.74094 18.751 5.74994 17.742 5.74994 16.501C5.74994 15.26 4.74094 14.251 3.49994 14.251H2.69994C2.02794 14.251 1.53994 14.251 1.14994 14.651C0.749939 15.04 0.749939 15.528 0.749939 16.201V21.001ZM3.49994 17.251H2.24994V16.1977C2.24994 16.0436 2.24994 15.8771 2.2559 15.7569C2.37505 15.751 2.54256 15.751 2.69666 15.751H3.49994C3.91394 15.751 4.24994 16.087 4.24994 16.501C4.24994 16.915 3.91394 17.251 3.49994 17.251Z" fill="#067647"/>
</g>
</g>
</svg>
