<svg width="12" height="14" viewBox="0 0 12 14" fill="none" xmlns="http://www.w3.org/2000/svg">
<g id="elements">
<g id="Icon">
<path d="M3.66671 7.00008C3.34454 7.00008 3.08337 7.26125 3.08337 7.58341C3.08337 7.90558 3.34454 8.16675 3.66671 8.16675H3.67194C3.99411 8.16675 4.25527 7.90558 4.25527 7.58341C4.25527 7.26125 3.99411 7.00008 3.67194 7.00008H3.66671Z" fill="#161616"/>
<path d="M5.99742 7.00008C5.67526 7.00008 5.41409 7.26125 5.41409 7.58341C5.41409 7.90558 5.67526 8.16675 5.99742 8.16675H6.00266C6.32482 8.16675 6.58599 7.90558 6.58599 7.58341C6.58599 7.26125 6.32482 7.00008 6.00266 7.00008H5.99742Z" fill="#161616"/>
<path d="M8.32814 7.00008C8.00597 7.00008 7.74481 7.26125 7.74481 7.58341C7.74481 7.90558 8.00597 8.16675 8.32814 8.16675H8.33337C8.65554 8.16675 8.91671 7.90558 8.91671 7.58341C8.91671 7.26125 8.65554 7.00008 8.33337 7.00008H8.32814Z" fill="#161616"/>
<path d="M3.66671 9.33341C3.34454 9.33341 3.08337 9.59458 3.08337 9.91675C3.08337 10.2389 3.34454 10.5001 3.66671 10.5001H3.67194C3.99411 10.5001 4.25527 10.2389 4.25527 9.91675C4.25527 9.59458 3.99411 9.33341 3.67194 9.33341H3.66671Z" fill="#161616"/>
<path d="M5.99742 9.33341C5.67526 9.33341 5.41409 9.59458 5.41409 9.91675C5.41409 10.2389 5.67526 10.5001 5.99742 10.5001H6.00266C6.32482 10.5001 6.58599 10.2389 6.58599 9.91675C6.58599 9.59458 6.32482 9.33341 6.00266 9.33341H5.99742Z" fill="#161616"/>
<path fill-rule="evenodd" clip-rule="evenodd" d="M2.93754 1.16675C2.93754 0.925123 2.74167 0.729248 2.50004 0.729248C2.25842 0.729248 2.06254 0.925123 2.06254 1.16675V1.53704C1.5931 1.6701 1.19717 1.88635 0.867608 2.24263C0.413827 2.7332 0.212119 3.35304 0.115519 4.1298C0.0208627 4.89093 0.0208678 5.86635 0.0208741 7.11094V7.47256C0.0208678 8.71714 0.0208627 9.69257 0.115519 10.4537C0.212119 11.2305 0.413827 11.8503 0.867608 12.3409C1.32587 12.8363 1.91249 13.061 2.64662 13.1677C3.35714 13.2709 4.26494 13.2709 5.41043 13.2709H6.58965C7.73514 13.2709 8.64294 13.2709 9.35346 13.1677C10.0876 13.061 10.6742 12.8363 11.1325 12.3409C11.5863 11.8503 11.788 11.2305 11.8846 10.4537C11.9792 9.69257 11.9792 8.71713 11.9792 7.47254V7.11095C11.9792 5.86636 11.9792 4.89093 11.8846 4.1298C11.788 3.35304 11.5863 2.7332 11.1325 2.24263C10.8029 1.88635 10.407 1.6701 9.93754 1.53704V1.16675C9.93754 0.925123 9.74167 0.729248 9.50004 0.729248C9.25842 0.729248 9.06254 0.925123 9.06254 1.16675V1.38019C8.39984 1.31256 7.58436 1.31257 6.58965 1.31258H5.41043C4.41572 1.31257 3.60024 1.31256 2.93754 1.38019V1.16675ZM2.07922 2.45349C2.13141 2.63673 2.30006 2.77091 2.50004 2.77091C2.74167 2.77091 2.93754 2.57504 2.93754 2.33341V2.26026C3.55646 2.18849 4.35642 2.18758 5.44587 2.18758H6.55421C7.64366 2.18758 8.44362 2.18849 9.06254 2.26026V2.33341C9.06254 2.57504 9.25842 2.77091 9.50004 2.77091C9.70002 2.77091 9.86867 2.63673 9.92086 2.45349C10.1585 2.54803 10.3389 2.67324 10.4901 2.83679C10.7661 3.13514 10.9295 3.54434 11.0157 4.23296C10.9969 4.23051 10.9778 4.22925 10.9584 4.22925H1.04171C1.02229 4.22925 1.00318 4.23051 0.984431 4.23296C1.07059 3.54435 1.23397 3.13514 1.50995 2.83679C1.66123 2.67324 1.84163 2.54803 2.07922 2.45349ZM0.919284 5.08689C0.896201 5.64859 0.895874 6.32128 0.895874 7.14197V7.44152C0.895874 8.72387 0.896671 9.64487 0.98383 10.3457C1.06983 11.0372 1.23332 11.4477 1.50995 11.7467C1.78208 12.0409 2.14845 12.2111 2.77248 12.3018C3.41282 12.3948 4.25697 12.3959 5.44587 12.3959H6.55421C7.74311 12.3959 8.58726 12.3948 9.2276 12.3018C9.85163 12.2111 10.218 12.0409 10.4901 11.7467C10.7668 11.4477 10.9302 11.0372 11.0163 10.3457C11.1034 9.64487 11.1042 8.72387 11.1042 7.44152V7.14197C11.1042 6.32128 11.1039 5.64859 11.0808 5.08689C11.0419 5.09819 11.0009 5.10425 10.9584 5.10425H1.04171C0.999212 5.10425 0.958132 5.09819 0.919284 5.08689Z" fill="#161616"/>
</g>
</g>
</svg>
