<svg width="24" height="26" viewBox="0 0 24 26" fill="none" xmlns="http://www.w3.org/2000/svg">
<g id="elements">
<g id="Icon">
<path d="M4.95829 1.33331C4.95829 0.850064 4.56654 0.458313 4.08329 0.458313C3.60004 0.458313 3.20829 0.850064 3.20829 1.33331V1.99765C2.56632 2.1186 1.97707 2.37147 1.4959 2.73235C0.802338 3.25252 0.291626 4.03792 0.291626 4.97915C0.291626 5.92037 0.802338 6.70577 1.4959 7.22594C2.18919 7.74591 3.10686 8.04165 4.08329 8.04165C4.71769 8.04165 5.25835 8.2356 5.62069 8.50735C5.98275 8.7789 6.12496 9.08725 6.12496 9.35415C6.12496 9.62105 5.98275 9.92939 5.62069 10.2009C5.25835 10.4727 4.71769 10.6666 4.08329 10.6666C3.04952 10.6666 2.34094 10.1704 2.1241 9.7103C1.91809 9.27316 1.39672 9.08579 0.959578 9.2918C0.52244 9.49781 0.335072 10.0192 0.54108 10.4563C1.01034 11.4521 2.04026 12.1134 3.20829 12.3347V13C3.20829 13.4832 3.60004 13.875 4.08329 13.875C4.56654 13.875 4.95829 13.4832 4.95829 13V12.3356C5.60026 12.2147 6.18951 11.9618 6.67069 11.6009C7.36425 11.0808 7.87496 10.2954 7.87496 9.35415C7.87496 8.41292 7.36425 7.62752 6.67069 7.10735C5.9774 6.58738 5.05972 6.29165 4.08329 6.29165C3.44889 6.29165 2.90823 6.09769 2.5459 5.82594C2.18383 5.55439 2.04163 5.24605 2.04163 4.97915C2.04163 4.71225 2.18383 4.4039 2.5459 4.13235C2.90823 3.8606 3.44889 3.66665 4.08329 3.66665C5.11706 3.66665 5.82564 4.16286 6.04249 4.62299C6.24849 5.06013 6.76987 5.2475 7.20701 5.04149C7.64414 4.83548 7.83151 4.31411 7.6255 3.87697C7.15625 2.88123 6.12632 2.21992 4.95829 1.99857V1.33331Z" fill="white"/>
<path d="M10.5 5.70831C12.1635 5.70831 13.6469 5.70914 14.8422 5.821C15.4374 5.8767 15.9298 5.95748 16.3173 6.06796C16.7128 6.18069 16.9368 6.3071 17.0529 6.41269C17.4121 6.73922 17.5795 7.03531 17.6765 7.59098C17.7484 8.00282 17.7755 8.52151 17.7856 9.24785L16.7246 8.71736C16.2924 8.50124 15.7668 8.67644 15.5507 9.10867C15.3346 9.5409 15.5097 10.0665 15.942 10.2826L18.2753 11.4493C18.5466 11.5849 18.8687 11.5704 19.1266 11.411C19.3846 11.2515 19.5416 10.9699 19.5416 10.6666L19.5416 10.5715C19.5417 9.15599 19.5417 8.09923 19.4004 7.28997C19.2412 6.37789 18.896 5.7232 18.2301 5.1178C17.8337 4.75743 17.3211 4.53437 16.7971 4.38499C16.2651 4.23336 15.6548 4.1394 15.0053 4.07861C13.7197 3.9583 12.1574 3.95831 10.5328 3.95831L10.5 3.95831C10.0167 3.95831 9.62496 4.35006 9.62496 4.83331C9.62496 5.31656 10.0167 5.70831 10.5 5.70831Z" fill="white"/>
<path fill-rule="evenodd" clip-rule="evenodd" d="M19.5416 14.1666C19.5416 13.6834 19.1499 13.2916 18.6666 13.2916C18.1834 13.2916 17.7916 13.6834 17.7916 14.1666V15.0416H15.1666C14.6834 15.0416 14.2916 15.4334 14.2916 15.9166C14.2916 16.3999 14.6834 16.7916 15.1666 16.7916H15.6041V22.0416H15.1666C14.6834 22.0416 14.2916 22.4334 14.2916 22.9166C14.2916 23.3999 14.6834 23.7916 15.1666 23.7916H17.7916V24.6666C17.7916 25.1499 18.1834 25.5416 18.6666 25.5416C19.1499 25.5416 19.5416 25.1499 19.5416 24.6666V23.7916H20.8541C22.0622 23.7916 23.0416 22.8123 23.0416 21.6041V20.7291C23.0416 20.2367 22.8789 19.7822 22.6043 19.4166C22.8789 19.051 23.0416 18.5966 23.0416 18.1041V17.2291C23.0416 16.021 22.0622 15.0416 20.8541 15.0416H19.5416V14.1666ZM17.3541 18.5416V16.7916H20.8541C21.0958 16.7916 21.2916 16.9875 21.2916 17.2291V18.1041C21.2916 18.3458 21.0958 18.5416 20.8541 18.5416H17.3541ZM17.3541 20.2916H20.8541C21.0958 20.2916 21.2916 20.4875 21.2916 20.7291V21.6041C21.2916 21.8458 21.0958 22.0416 20.8541 22.0416H17.3541V20.2916Z" fill="white"/>
<path d="M3.03995 15.7557C3.29792 15.5962 3.62004 15.5817 3.89128 15.7174L6.22461 16.884C6.65684 17.1001 6.83204 17.6257 6.61592 18.058C6.39981 18.4902 5.87422 18.6654 5.44199 18.4493L4.381 17.9188C4.39113 18.6451 4.41815 19.1638 4.49006 19.5756C4.58709 20.1313 4.7545 20.4274 5.11368 20.7539C5.22983 20.8595 5.45376 20.9859 5.84925 21.0987C6.23684 21.2091 6.72917 21.2899 7.32438 21.3456C8.51968 21.4575 10.0031 21.4583 11.6666 21.4583C12.1499 21.4583 12.5416 21.8501 12.5416 22.3333C12.5416 22.8166 12.1499 23.2083 11.6666 23.2083H11.6338C10.0092 23.2083 8.44687 23.2083 7.16132 23.088C6.51176 23.0272 5.90149 22.9333 5.36954 22.7816C4.84548 22.6323 4.33291 22.4092 3.9365 22.0488C3.27056 21.4434 2.9254 20.7887 2.76615 19.8767C2.62484 19.0674 2.62489 18.0107 2.62496 16.5951L2.62497 16.5C2.62497 16.1967 2.78199 15.9151 3.03995 15.7557Z" fill="white"/>
</g>
</g>
</svg>
