<svg width="26" height="26" viewBox="0 0 26 26" fill="none" xmlns="http://www.w3.org/2000/svg">
<path fill-rule="evenodd" clip-rule="evenodd" d="M11.7508 3.4085C11.7506 3.40878 11.7509 3.40821 11.7508 3.4085L9.69986 7.54422C9.48214 7.99044 9.11796 8.37264 8.74294 8.653C8.36714 8.93395 7.89943 9.17318 7.41742 9.25571L7.41432 9.25623L3.6935 9.87953C2.65882 10.0534 2.31885 10.4641 2.23915 10.7158C2.1584 10.9707 2.20215 11.5095 2.94489 12.2583L5.83791 15.1752C6.21327 15.5537 6.46405 16.0594 6.60228 16.5463C6.74068 17.0338 6.79222 17.5937 6.6774 18.1102L6.67612 18.1159L5.84786 21.7268C5.53876 23.0736 5.85094 23.5702 6.01222 23.6889C6.16909 23.8043 6.72594 23.956 7.90535 23.2503L11.3998 21.1646C11.8856 20.8796 12.4677 20.762 13.0018 20.762C13.5351 20.762 14.1174 20.8793 14.6008 21.168C14.6009 21.168 14.6007 21.1679 14.6008 21.168L18.088 23.2494C18.0882 23.2495 18.0878 23.2493 18.088 23.2494C19.2772 23.9575 19.8334 23.8063 19.9874 23.6931C20.145 23.5772 20.4571 23.0835 20.1469 21.7261L19.3175 18.1102C19.2027 17.5937 19.2542 17.0338 19.3926 16.5463C19.5309 16.0594 19.7816 15.5537 20.157 15.1752L23.05 12.2583L23.0521 12.2562C23.7997 11.5075 23.8413 10.9703 23.7606 10.7173C23.6802 10.465 23.337 10.0536 22.3014 9.87953L18.5806 9.25623C18.0936 9.1744 17.6223 8.93608 17.2434 8.65422C16.8658 8.3733 16.5012 7.9907 16.2834 7.54422L14.2308 3.40523C13.7382 2.40662 13.2386 2.20825 12.996 2.20825C12.7519 2.20825 12.2491 2.40932 11.7508 3.4085ZM15.8 2.63049C15.1844 1.38287 14.2201 0.458252 12.996 0.458252C11.7733 0.458252 10.806 1.38117 10.1846 2.62776L10.1838 2.62939L8.13067 6.76953L8.12752 6.77594C8.06507 6.9045 7.91693 7.08555 7.6951 7.25138C7.4737 7.4169 7.25958 7.50696 7.12327 7.5306C7.12288 7.53067 7.12248 7.53074 7.12209 7.53081L3.40394 8.15366C2.05888 8.37969 0.934409 9.03937 0.570822 10.1874C0.208291 11.3321 0.74197 12.5223 1.70237 13.4907L4.59539 16.4076C4.70997 16.5231 4.83832 16.7407 4.91881 17.0243C4.99877 17.3059 5.00586 17.5624 4.9696 17.7281C4.96944 17.7289 4.96927 17.7297 4.9691 17.7304L4.14218 21.3354C4.14219 21.3354 4.14217 21.3355 4.14218 21.3354C3.79805 22.835 3.91746 24.3203 4.97518 25.0985C6.03735 25.8799 7.48694 25.54 8.80391 24.752L12.2853 22.674C12.2861 22.6736 12.2868 22.6732 12.2875 22.6727C12.4435 22.582 12.7004 22.512 13.0018 22.512C13.3055 22.512 13.557 22.5829 13.7035 22.6704L17.1918 24.7525C18.5103 25.5378 19.9617 25.8838 21.0238 25.1031C22.0823 24.3251 22.1959 22.837 21.8529 21.3362L21.0258 17.7304C21.0256 17.7297 21.0255 17.7289 21.0253 17.7281C20.989 17.5624 20.9961 17.3059 21.0761 17.0243C21.1566 16.7407 21.2849 16.5231 21.3995 16.4076L24.2904 13.4928C24.2907 13.4925 24.2911 13.4921 24.2914 13.4918C25.258 12.5235 25.7934 11.3322 25.428 10.1858C25.0622 9.03849 23.9356 8.37961 22.5914 8.15373L18.8702 7.53036C18.7272 7.50633 18.5099 7.41525 18.288 7.25016C18.0658 7.0849 17.918 6.90423 17.8557 6.77594L15.8 2.63049C15.8001 2.63066 15.7999 2.63031 15.8 2.63049Z" fill="#067647"/>
</svg>
