<svg width="19" height="12" viewBox="0 0 19 12" fill="none" xmlns="http://www.w3.org/2000/svg">
<path d="M0.750427 5.99972C0.75043 6.37328 0.916081 6.71984 1.07295 6.98007C1.24222 7.26089 1.46987 7.55081 1.71961 7.83349C2.2206 8.40056 2.87429 9.00955 3.50866 9.56041C4.14676 10.1145 4.78265 10.6247 5.25768 10.9955C5.49559 11.1812 5.69406 11.3326 5.83347 11.4379C5.90319 11.4906 5.95819 11.5318 5.99601 11.56L6.03958 11.5924L6.05114 11.6009L6.05515 11.6039C6.38865 11.8495 6.85858 11.7787 7.10425 11.4452C7.3499 11.1117 7.27871 10.6422 6.94524 10.3965L6.93251 10.3871L6.89246 10.3573C6.85705 10.3309 6.80462 10.2917 6.73763 10.2411C6.6036 10.1398 6.41145 9.99323 6.18062 9.81306C5.71815 9.45209 5.10406 8.95919 4.49216 8.42784C3.87654 7.89325 3.28024 7.33442 2.84374 6.84035C2.81613 6.8091 2.78941 6.77839 2.76359 6.74823L17.5004 6.74823C17.9147 6.74823 18.2504 6.41244 18.2504 5.99823C18.2504 5.58402 17.9147 5.24823 17.5004 5.24823L2.76613 5.24823C2.79116 5.21903 2.81703 5.1893 2.84374 5.15907C3.28024 4.665 3.87654 4.10618 4.49216 3.57159C5.10406 3.04023 5.71815 2.54734 6.18061 2.18637C6.41145 2.00619 6.60359 1.8596 6.73762 1.75834C6.80462 1.70773 6.85704 1.66849 6.89246 1.64209L6.93251 1.61232L6.94524 1.60291C7.2787 1.35724 7.34989 0.887758 7.10424 0.554272C6.85858 0.22077 6.38865 0.149879 6.05515 0.395541L6.05114 0.398501L6.03958 0.407055L5.99601 0.43944C5.95818 0.467634 5.90319 0.508806 5.83347 0.561476C5.69406 0.666787 5.49558 0.818223 5.25767 1.00392C4.78265 1.37469 4.14675 1.88491 3.50866 2.43901C2.87429 2.98988 2.2206 3.59886 1.71961 4.16593C1.46987 4.44861 1.24222 4.73854 1.07295 5.01935C0.917024 5.27802 0.75242 5.622 0.750444 5.99299" fill="#161616"/>
</svg>
