<svg width="25" height="24" viewBox="0 0 25 24" fill="none" xmlns="http://www.w3.org/2000/svg">
<path d="M12.5572 10.276C12.7765 10.3055 13.0567 10.3813 13.2925 10.6171C13.5283 10.8528 13.6042 11.133 13.6337 11.3524C13.6589 11.5396 13.6588 11.7614 13.6587 11.9665L13.6587 16.001C13.6587 16.4152 13.3229 16.751 12.9087 16.751C12.4945 16.751 12.1587 16.4152 12.1587 16.001V12.001C12.1587 11.9019 12.1587 11.8216 12.1575 11.7521C12.0881 11.751 12.0078 11.751 11.9087 11.751C11.4945 11.751 11.1587 11.4152 11.1587 11.001C11.1587 10.5868 11.4945 10.251 11.9087 10.251L11.9431 10.251C12.1482 10.2509 12.37 10.2508 12.5572 10.276Z" fill="#067647"/>
<path d="M12.6587 7.00098C12.1064 7.00098 11.6587 7.44869 11.6587 8.00098C11.6587 8.55326 12.1064 9.00098 12.6587 9.00098H12.6677C13.22 9.00098 13.6677 8.55326 13.6677 8.00098C13.6677 7.44869 13.22 7.00098 12.6677 7.00098H12.6587Z" fill="#067647"/>
<path fill-rule="evenodd" clip-rule="evenodd" d="M12.6668 22.751H12.4968C11.4468 22.671 10.7868 21.921 10.2568 21.311L10.2459 21.2985C9.90999 20.9132 9.5932 20.5497 9.25684 20.431C8.90198 20.3029 8.42082 20.3399 7.90911 20.3793L7.85246 20.3837C6.9582 20.4534 5.84593 20.5401 4.99684 19.691C4.17083 18.865 4.2441 17.7586 4.30382 16.8567L4.30684 16.811L4.30853 16.7887C4.34793 16.267 4.38501 15.7761 4.25684 15.431C4.12684 15.091 3.76684 14.771 3.37684 14.431C2.76684 13.901 2.01684 13.241 1.93684 12.191C1.84684 10.941 2.68684 10.201 3.37684 9.61102L3.38978 9.59974C3.775 9.26394 4.13828 8.94726 4.26684 8.61102C4.39501 8.26594 4.35793 7.77505 4.31853 7.25336L4.31684 7.23102C4.24684 6.32102 4.16684 5.19101 5.00684 4.35101C5.86684 3.49101 6.99684 3.58101 7.89684 3.66101L7.99173 3.6684C8.47727 3.7064 8.93818 3.74248 9.26684 3.61102C9.60684 3.48102 9.92684 3.12102 10.2668 2.73102C10.7968 2.12102 11.4568 1.37102 12.5068 1.29102H12.8468C13.895 1.37012 14.552 2.11413 15.079 2.71086L15.0968 2.73102L15.1077 2.74352C15.4437 3.1289 15.7605 3.49231 16.0968 3.61102C16.4517 3.73916 16.9329 3.70212 17.4445 3.66273L17.4668 3.66101C18.3668 3.58101 19.4968 3.49101 20.3568 4.35101C21.2168 5.22101 21.1268 6.34103 21.0468 7.24103L21.0395 7.33579C21.0015 7.82137 20.9654 8.28234 21.0968 8.61102C21.221 8.9357 21.564 9.24213 21.9255 9.56516L21.9768 9.61102C22.5868 10.141 23.3368 10.801 23.4168 11.851C23.5068 13.101 22.6568 13.851 21.9768 14.441C21.6068 14.761 21.2668 15.061 21.1168 15.381C20.9483 15.7379 20.996 16.2617 21.0455 16.8065L21.0468 16.821C21.1268 17.721 21.2168 18.841 20.3568 19.701C19.5168 20.541 18.3868 20.4611 17.4768 20.3911L17.4544 20.3894C16.9327 20.35 16.4419 20.3129 16.0968 20.441C15.7568 20.571 15.4368 20.931 15.0968 21.321C14.5668 21.931 13.9068 22.681 12.8568 22.761H12.6768L12.6668 22.751ZM8.61684 18.8311C9.00684 18.8311 9.39684 18.871 9.77684 19.011C10.4473 19.2601 10.9159 19.7843 11.3321 20.2499L11.3868 20.311C11.8768 20.871 12.1968 21.211 12.6068 21.241H12.7368C13.1468 21.211 13.4668 20.871 13.9568 20.311L13.964 20.3029C14.3922 19.815 14.8707 19.2696 15.5668 19.011C16.2268 18.771 16.9168 18.821 17.5868 18.871C18.4268 18.931 18.9668 18.951 19.2968 18.621C19.6468 18.271 19.6268 17.741 19.5568 16.921L19.5559 16.9097C19.4961 16.2225 19.4286 15.4471 19.7568 14.731C20.0353 14.1243 20.5414 13.6858 20.9896 13.2973L20.9968 13.291C21.5968 12.771 21.9668 12.421 21.9268 11.941C21.8968 11.531 21.5568 11.211 20.9968 10.721L20.9885 10.7136C20.5006 10.2855 19.9553 9.80703 19.6868 9.11102C19.4391 8.44722 19.4958 7.73439 19.5454 7.10858L19.5468 7.09106C19.6168 6.26106 19.6368 5.74104 19.2868 5.38104C18.9368 5.03104 18.4068 5.05103 17.5768 5.12103L17.5595 5.12241C16.9336 5.17211 16.2207 5.22872 15.5568 4.98102C14.8864 4.73199 14.4177 4.20775 14.0015 3.74219L13.9468 3.68103C13.4568 3.12103 13.1368 2.78104 12.7268 2.75104H12.5868C12.1868 2.78104 11.8668 3.12103 11.3768 3.68103L11.3697 3.68917C10.9415 4.17711 10.463 4.72246 9.76684 4.98102C9.103 5.22872 8.39007 5.17211 7.76424 5.12241L7.74684 5.12103C6.91684 5.05103 6.39684 5.03104 6.03684 5.38104C5.70684 5.71104 5.72684 6.25106 5.78684 7.09106C5.83684 7.76106 5.88684 8.45102 5.64684 9.11102C5.38684 9.81102 4.82684 10.301 4.33684 10.721C3.71684 11.261 3.37684 11.581 3.40684 12.061C3.43684 12.471 3.77684 12.7911 4.33684 13.2811L4.37086 13.3109C4.85252 13.7333 5.39284 14.2072 5.64684 14.8911C5.88684 15.5511 5.83684 16.241 5.78684 16.911C5.72684 17.751 5.70684 18.291 6.03684 18.621C6.38684 18.971 6.91684 18.951 7.74684 18.881C7.8044 18.8768 7.86288 18.8721 7.92216 18.8673C8.14079 18.8496 8.37099 18.8311 8.60684 18.8311H8.61684Z" fill="#067647"/>
</svg>
