<svg width="40" height="40" viewBox="0 0 40 40" fill="none" xmlns="http://www.w3.org/2000/svg">
<path fill-rule="evenodd" clip-rule="evenodd" d="M37.9166 19.9996C37.9166 10.1045 29.8951 2.08295 20 2.08295C10.1049 2.08295 2.08331 10.1045 2.08331 19.9996C2.08331 29.8947 10.1049 37.9163 20 37.9163C29.8951 37.9163 37.9166 29.8947 37.9166 19.9996ZM19.2336 20.104C19.2146 20.0618 19.2004 20.0272 19.1898 19.9997C19.2004 19.9722 19.2146 19.9376 19.2336 19.8954C19.3204 19.7035 19.4641 19.4492 19.6707 19.1375C20.0829 18.5155 20.6558 17.7981 21.2614 17.097C21.861 16.4028 22.4646 15.7569 22.9205 15.2824L23.6678 14.5222C24.3244 13.8772 24.3341 12.8219 23.6893 12.1652C23.0443 11.5084 21.9891 11.4988 21.3323 12.1438L20.5172 12.9727C20.0356 13.4738 19.3892 14.1652 18.7388 14.918C18.0945 15.664 17.4174 16.5035 16.8921 17.2962C16.6299 17.6919 16.383 18.1094 16.1963 18.5222C16.0229 18.9056 15.8335 19.4303 15.8335 19.9997C15.8335 20.5692 16.0229 21.0937 16.1963 21.4772C16.383 21.89 16.6299 22.3075 16.8921 22.7032C17.4174 23.4959 18.0945 24.3354 18.7388 25.0814C19.3892 25.8342 20.0356 26.5256 20.5172 27.0267L21.3323 27.8556C21.9891 28.5006 23.0443 28.491 23.6893 27.8342C24.3341 27.1775 24.3244 26.1222 23.6678 25.4772L22.9205 24.717C22.4646 24.2425 21.861 23.5966 21.2614 22.9024C20.6558 22.2013 20.0829 21.4839 19.6707 20.8619C19.4641 20.5502 19.3204 20.2959 19.2336 20.104Z" fill="#1B8354"/>
</svg>
