<svg width="24" height="24" viewBox="0 0 24 24" fill="none" xmlns="http://www.w3.org/2000/svg">
<path d="M18.5 16.7342H16C15.586 16.7342 15.25 16.3982 15.25 15.9842C15.25 15.5702 15.586 15.2342 16 15.2342H18.5C18.914 15.2342 19.25 15.5702 19.25 15.9842C19.25 16.3982 18.914 16.7342 18.5 16.7342Z" fill="#067647"/>
<path d="M13 16.7342H10.5C10.086 16.7342 9.75 16.3982 9.75 15.9842C9.75 15.5702 10.086 15.2342 10.5 15.2342H13C13.414 15.2342 13.75 15.5702 13.75 15.9842C13.75 16.3982 13.414 16.7342 13 16.7342Z" fill="#067647"/>
<path d="M18.5 12.7342H16C15.586 12.7342 15.25 12.3982 15.25 11.9842C15.25 11.5702 15.586 11.2342 16 11.2342H18.5C18.914 11.2342 19.25 11.5702 19.25 11.9842C19.25 12.3982 18.914 12.7342 18.5 12.7342Z" fill="#067647"/>
<path d="M13 12.7342H10.5C10.086 12.7342 9.75 12.3982 9.75 11.9842C9.75 11.5702 10.086 11.2342 10.5 11.2342H13C13.414 11.2342 13.75 11.5702 13.75 11.9842C13.75 12.3982 13.414 12.7342 13 12.7342Z" fill="#067647"/>
<path d="M18.5 8.73419H10.5C10.086 8.73419 9.75 8.39819 9.75 7.98419C9.75 7.57019 10.086 7.23419 10.5 7.23419H18.5C18.914 7.23419 19.25 7.57019 19.25 7.98419C19.25 8.39819 18.914 8.73419 18.5 8.73419Z" fill="#067647"/>
<path fill-rule="evenodd" clip-rule="evenodd" d="M4.5 21.2342H16C18.934 21.2342 20.55 21.2342 21.65 20.1342C22.75 19.0352 22.75 17.4182 22.75 14.4842V9.48419C22.75 6.55019 22.75 4.93319 21.65 3.83419C20.551 2.73419 18.934 2.73419 16 2.73419H11C10.012 2.73419 9.51608 2.73424 9.03408 2.85724L9.0316 2.85815C9.02907 2.8591 9.02625 2.86017 9.02402 2.86017C7.74002 3.20917 6.72605 4.22324 6.37705 5.50724L6.37567 5.51136C6.37483 5.51356 6.37402 5.51566 6.37402 5.51818C6.28614 5.8591 6.26053 6.20806 6.25307 6.73419H6C3.977 6.73419 2.86006 6.73425 2.06006 7.54425C1.25006 8.34425 1.25 9.46019 1.25 11.4842V17.9842C1.25 19.7762 2.708 21.2342 4.5 21.2342ZM4.5 19.7342C5.465 19.7342 6.25 18.9492 6.25 17.9842V8.23419H6C4.256 8.23419 3.47 8.24921 3.125 8.60021L3.11602 8.60919C2.76502 8.95419 2.75 9.74019 2.75 11.4842V17.9842C2.75 18.9492 3.535 19.7342 4.5 19.7342ZM7.74781 18.1044C7.72598 18.7029 7.54184 19.2608 7.23809 19.7342H16C18.6157 19.7342 19.9291 19.7342 20.59 19.0742C21.25 18.4143 21.25 17.1014 21.25 14.4847V9.48419C21.25 6.86851 21.25 5.55521 20.59 4.89425C19.93 4.23425 18.616 4.23419 16 4.23419H11C10.142 4.23419 9.70903 4.23419 9.41104 4.30919C8.64304 4.52019 8.036 5.12723 7.825 5.89523C7.75 6.19323 7.75 6.62619 7.75 7.48419V17.9842C7.75 18.0244 7.74927 18.0645 7.74781 18.1044Z" fill="#067647"/>
</svg>
