<svg width="28" height="22" viewBox="0 0 28 22" fill="none" xmlns="http://www.w3.org/2000/svg">
<g id="elements">
<g id="Icon">
<path fill-rule="evenodd" clip-rule="evenodd" d="M13.9999 0.791626C11.2615 0.791626 9.04153 3.01155 9.04153 5.74996C9.04153 8.48837 11.2615 10.7083 13.9999 10.7083C16.7383 10.7083 18.9582 8.48837 18.9582 5.74996C18.9582 3.01155 16.7383 0.791626 13.9999 0.791626ZM10.7915 5.74996C10.7915 3.97805 12.228 2.54163 13.9999 2.54163C15.7718 2.54163 17.2082 3.97805 17.2082 5.74996C17.2082 7.52187 15.7718 8.95829 13.9999 8.95829C12.228 8.95829 10.7915 7.52187 10.7915 5.74996Z" fill="#067647"/>
<path d="M6.41658 3.12496C4.32251 3.12496 2.62492 4.82255 2.62492 6.91663C2.62492 9.01071 4.32251 10.7083 6.41658 10.7083C6.89983 10.7083 7.29158 10.3165 7.29158 9.83329C7.29158 9.35004 6.89983 8.95829 6.41658 8.95829C5.289 8.95829 4.37492 8.04421 4.37492 6.91663C4.37492 5.78904 5.289 4.87496 6.41658 4.87496C6.89983 4.87496 7.29158 4.48321 7.29158 3.99996C7.29158 3.51671 6.89983 3.12496 6.41658 3.12496Z" fill="#067647"/>
<path d="M6.70469 12.0878C6.66115 11.6065 6.2357 11.2516 5.75441 11.2952C4.65947 11.3942 3.59482 11.8155 2.65648 12.5381C2.60242 12.5797 2.5312 12.6315 2.44751 12.6924C2.05004 12.9815 1.3714 13.4753 0.914049 14.0542C0.62182 14.4241 0.348541 14.9082 0.299339 15.4903C0.247811 16.1 0.452183 16.6922 0.890333 17.232C1.56099 18.0584 2.48126 18.875 3.76354 18.875C4.24679 18.875 4.63854 18.4832 4.63854 18C4.63854 17.5167 4.24679 17.125 3.76354 17.125C3.29744 17.125 2.82707 16.8413 2.24911 16.1292C2.04824 15.8817 2.03565 15.7262 2.04312 15.6377C2.05292 15.5218 2.11462 15.3575 2.28726 15.139C2.57804 14.7709 2.98566 14.4713 3.38186 14.1801C3.49803 14.0947 3.61322 14.0101 3.72419 13.9246C4.41296 13.3942 5.16506 13.1057 5.91209 13.0381C6.39337 12.9945 6.74823 12.5691 6.70469 12.0878Z" fill="#067647"/>
<path d="M20.9999 3.12496C20.5166 3.12496 20.1249 3.51671 20.1249 3.99996C20.1249 4.48321 20.5166 4.87496 20.9999 4.87496C22.1274 4.87496 23.0415 5.78904 23.0415 6.91663C23.0415 8.04421 22.1274 8.95829 20.9999 8.95829C20.5166 8.95829 20.1249 9.35004 20.1249 9.83329C20.1249 10.3165 20.5166 10.7083 20.9999 10.7083C23.0939 10.7083 24.7915 9.01071 24.7915 6.91663C24.7915 4.82255 23.0939 3.12496 20.9999 3.12496Z" fill="#067647"/>
<path d="M22.2454 11.2952C21.7641 11.2516 21.3386 11.6065 21.2951 12.0878C21.2516 12.5691 21.6064 12.9945 22.0877 13.0381C22.8347 13.1057 23.5868 13.3942 24.2756 13.9246C24.3865 14.01 24.5017 14.0947 24.6178 14.18C25.0141 14.4713 25.4217 14.7709 25.7125 15.139C25.8852 15.3575 25.9469 15.5218 25.9567 15.6377C25.9641 15.7262 25.9515 15.8817 25.7507 16.1292C25.1727 16.8413 24.7023 17.125 24.2362 17.125C23.753 17.125 23.3612 17.5167 23.3612 18C23.3612 18.4832 23.753 18.875 24.2362 18.875C25.5185 18.875 26.4388 18.0584 27.1095 17.232C27.5476 16.6922 27.752 16.1 27.7004 15.4903C27.6512 14.9082 27.378 14.4241 27.0857 14.0542C26.6284 13.4753 25.9499 12.9816 25.5524 12.6925C25.4687 12.6316 25.3974 12.5797 25.3433 12.5381C24.405 11.8155 23.3403 11.3942 22.2454 11.2952Z" fill="#067647"/>
<path fill-rule="evenodd" clip-rule="evenodd" d="M8.97096 13.8855C12.0484 11.9826 15.9517 11.9826 19.0291 13.8855C19.1198 13.9415 19.2347 14.0088 19.3667 14.086C19.9643 14.4357 20.9132 14.9909 21.5606 15.649C21.9672 16.0623 22.3727 16.6257 22.4466 17.3282C22.5257 18.0797 22.2068 18.7753 21.5983 19.3773C20.5931 20.3718 19.3478 21.2083 17.7151 21.2083H10.2849C8.65224 21.2083 7.40702 20.3718 6.40179 19.3773C5.7933 18.7753 5.47433 18.0797 5.55343 17.3282C5.62737 16.6257 6.0329 16.0623 6.43951 15.649C7.0869 14.9909 8.03562 14.4358 8.63327 14.0861C8.76532 14.0088 8.88023 13.9416 8.97096 13.8855ZM18.1088 15.3739C15.5954 13.8198 12.4047 13.8198 9.89133 15.3739C9.74045 15.4672 9.57868 15.5626 9.41176 15.661C8.81458 16.0131 8.1516 16.404 7.68701 16.8763C7.40119 17.1668 7.30777 17.3788 7.29382 17.5114C7.28503 17.5948 7.28925 17.7936 7.63259 18.1333C8.48721 18.9788 9.31339 19.4583 10.2849 19.4583H17.7151C18.6867 19.4583 19.5129 18.9788 20.3675 18.1333C20.7108 17.7936 20.715 17.5948 20.7063 17.5114C20.6923 17.3788 20.5989 17.1668 20.3131 16.8763C19.8485 16.404 19.1855 16.0131 18.5884 15.661C18.4214 15.5626 18.2596 15.4672 18.1088 15.3739Z" fill="#067647"/>
</g>
</g>
</svg>
