<svg width="28" height="22" viewBox="0 0 28 22" fill="none" xmlns="http://www.w3.org/2000/svg">
<path fill-rule="evenodd" clip-rule="evenodd" d="M13.9999 0.791748C11.2615 0.791748 9.04154 3.01167 9.04154 5.75008C9.04154 8.48849 11.2615 10.7084 13.9999 10.7084C16.7383 10.7084 18.9582 8.48849 18.9582 5.75008C18.9582 3.01167 16.7383 0.791748 13.9999 0.791748ZM10.7915 5.75008C10.7915 3.97817 12.228 2.54175 13.9999 2.54175C15.7718 2.54175 17.2082 3.97817 17.2082 5.75008C17.2082 7.522 15.7718 8.95842 13.9999 8.95842C12.228 8.95842 10.7915 7.522 10.7915 5.75008Z" fill="#067647"/>
<path d="M6.41659 3.12508C4.32251 3.12508 2.62493 4.82267 2.62493 6.91675C2.62493 9.01083 4.32251 10.7084 6.41659 10.7084C6.89984 10.7084 7.29159 10.3167 7.29159 9.83342C7.29159 9.35017 6.89984 8.95842 6.41659 8.95842C5.28901 8.95842 4.37493 8.04433 4.37493 6.91675C4.37493 5.78917 5.28901 4.87508 6.41659 4.87508C6.89984 4.87508 7.29159 4.48333 7.29159 4.00008C7.29159 3.51683 6.89984 3.12508 6.41659 3.12508Z" fill="#067647"/>
<path d="M6.7047 12.0879C6.66116 11.6066 6.23571 11.2518 5.75442 11.2953C4.65947 11.3944 3.59483 11.8156 2.65649 12.5382C2.60242 12.5798 2.53121 12.6316 2.44752 12.6925C2.05005 12.9817 1.3714 13.4754 0.914058 14.0543C0.621828 14.4242 0.348549 14.9083 0.299347 15.4905C0.24782 16.1001 0.452191 16.6923 0.890341 17.2322C1.561 18.0585 2.48127 18.8751 3.76354 18.8751C4.24679 18.8751 4.63854 18.4833 4.63854 18.0001C4.63854 17.5168 4.24679 17.1251 3.76354 17.1251C3.29745 17.1251 2.82708 16.8414 2.24912 16.1293C2.04825 15.8819 2.03566 15.7263 2.04313 15.6379C2.05293 15.5219 2.11463 15.3577 2.28727 15.1391C2.57805 14.771 2.98567 14.4714 3.38187 14.1802C3.49804 14.0948 3.61323 14.0102 3.7242 13.9247C4.41296 13.3943 5.16507 13.1058 5.9121 13.0382C6.39338 12.9946 6.74824 12.5692 6.7047 12.0879Z" fill="#067647"/>
<path d="M20.9999 3.12508C20.5166 3.12508 20.1249 3.51683 20.1249 4.00008C20.1249 4.48333 20.5166 4.87508 20.9999 4.87508C22.1275 4.87508 23.0415 5.78917 23.0415 6.91675C23.0415 8.04433 22.1275 8.95842 20.9999 8.95842C20.5166 8.95842 20.1249 9.35017 20.1249 9.83342C20.1249 10.3167 20.5166 10.7084 20.9999 10.7084C23.094 10.7084 24.7915 9.01083 24.7915 6.91675C24.7915 4.82267 23.094 3.12508 20.9999 3.12508Z" fill="#067647"/>
<path d="M22.2454 11.2953C21.7641 11.2518 21.3386 11.6066 21.2951 12.0879C21.2516 12.5692 21.6064 12.9946 22.0877 13.0382C22.8347 13.1058 23.5868 13.3943 24.2756 13.9247C24.3866 14.0102 24.5017 14.0948 24.6179 14.1802C25.0141 14.4714 25.4218 14.771 25.7125 15.1391C25.8852 15.3577 25.9469 15.5219 25.9567 15.6379C25.9641 15.7263 25.9516 15.8819 25.7507 16.1293C25.1727 16.8414 24.7024 17.1251 24.2363 17.1251C23.753 17.1251 23.3613 17.5168 23.3613 18.0001C23.3613 18.4833 23.753 18.8751 24.2363 18.8751C25.5185 18.8751 26.4388 18.0585 27.1095 17.2322C27.5476 16.6923 27.752 16.1001 27.7005 15.4905C27.6513 14.9083 27.378 14.4242 27.0857 14.0543C26.6284 13.4754 25.9499 12.9817 25.5524 12.6926C25.4687 12.6317 25.3974 12.5798 25.3433 12.5382C24.405 11.8156 23.3403 11.3944 22.2454 11.2953Z" fill="#067647"/>
<path fill-rule="evenodd" clip-rule="evenodd" d="M8.97097 13.8856C12.0484 11.9827 15.9517 11.9827 19.0291 13.8856C19.1198 13.9417 19.2347 14.0089 19.3667 14.0861C19.9643 14.4358 20.9132 14.9911 21.5606 15.6491C21.9672 16.0624 22.3727 16.6259 22.4467 17.3283C22.5258 18.0798 22.2068 18.7754 21.5983 19.3774C20.5931 20.372 19.3479 21.2084 17.7151 21.2084H10.2849C8.65224 21.2084 7.40703 20.372 6.4018 19.3774C5.79331 18.7754 5.47434 18.0798 5.55344 17.3283C5.62738 16.6259 6.03291 16.0624 6.43952 15.6491C7.08691 14.9911 8.03563 14.4359 8.63328 14.0862C8.76533 14.0089 8.88024 13.9417 8.97097 13.8856ZM18.1088 15.374C15.5954 13.8199 12.4047 13.8199 9.89133 15.374C9.74046 15.4673 9.57869 15.5627 9.41177 15.6611C8.81459 16.0132 8.15161 16.4042 7.68702 16.8764C7.4012 17.1669 7.30777 17.379 7.29383 17.5115C7.28504 17.5949 7.28926 17.7937 7.6326 18.1334C8.48722 18.9789 9.3134 19.4584 10.2849 19.4584H17.7151C18.6867 19.4584 19.5129 18.9789 20.3675 18.1334C20.7108 17.7937 20.7151 17.5949 20.7063 17.5115C20.6923 17.379 20.5989 17.1669 20.3131 16.8764C19.8485 16.4042 19.1855 16.0133 18.5884 15.6611C18.4214 15.5627 18.2596 15.4673 18.1088 15.374Z" fill="#067647"/>
</svg>
