<svg width="59" height="60" viewBox="0 0 59 60" fill="none" xmlns="http://www.w3.org/2000/svg">
<g id="Logo">
<g id="Clip path group">
<mask id="mask0_1060_4505" style="mask-type:luminance" maskUnits="userSpaceOnUse" x="0" y="0" width="59" height="60">
<g id="clip-path">
<path id="Rectangle 11616" d="M58.6722 0H0.661133V60H58.6722V0Z" fill="white"/>
</g>
</mask>
<g mask="url(#mask0_1060_4505)">
<g id="Group 24688">
<path id="Path 52494" d="M13.0235 34.1097L12.7028 34.1777L11.3796 35.4954C17.0041 34.4561 22.717 33.9692 28.4364 34.0416C34.1559 33.9691 39.8688 34.456 45.4932 35.4954L46.9098 34.0802C42.5686 33.1773 36.4313 32.6589 30.0348 32.6589C23.5732 32.6589 17.3714 33.1902 13.0235 34.1097Z" fill="#00524D"/>
<path id="Path 52495" d="M12.7017 34.1773L12.7699 33.8571C13.6913 29.5093 14.2183 23.3126 14.2183 16.8571C14.2834 11.2057 13.808 5.56113 12.7987 0L11.3822 1.41514C13.3188 12.693 13.3188 24.2177 11.3822 35.4955L12.7017 34.1773Z" fill="#00524D"/>
<path id="Path 52496" d="M34.6972 22.8754C33.4024 23.7524 32.1597 24.7038 30.9753 25.7247C31.5896 26.2908 32.2168 26.903 32.8396 27.5649L32.9011 27.5036H33.0239L33.0497 27.5882L33.1406 27.4582C33.1142 27.3806 33.1121 27.2969 33.1348 27.2181C33.1574 27.1394 33.2036 27.0695 33.2672 27.0177C33.3013 26.9798 33.343 26.9495 33.3896 26.9289C33.4362 26.9082 33.4866 26.8976 33.5376 26.8977C33.5886 26.8979 33.639 26.9088 33.6855 26.9298C33.732 26.9508 33.7735 26.9813 33.8073 27.0194C33.8411 27.0576 33.8665 27.1024 33.8818 27.151C33.897 27.1996 33.9018 27.2509 33.8958 27.3015C33.8898 27.352 33.8732 27.4008 33.847 27.4445C33.8208 27.4882 33.7857 27.5259 33.7439 27.5551C33.6955 27.6008 33.6365 27.6339 33.5722 27.6515C33.5079 27.669 33.4403 27.6704 33.3753 27.6557C33.3518 27.6953 33.3368 27.7394 33.3313 27.7851C33.3258 27.8309 33.3299 27.8772 33.3434 27.9213C33.5108 28.1413 33.7286 28.318 33.9785 28.4368C34.2283 28.5555 34.503 28.6129 34.7796 28.604C35.0025 28.5996 35.2217 28.5462 35.4217 28.4477C35.6217 28.3492 35.7976 28.208 35.9369 28.0341C35.9943 27.9666 36.0659 27.9125 36.1466 27.8756C36.2272 27.8387 36.315 27.8199 36.4038 27.8206C36.4925 27.8212 36.58 27.8413 36.6601 27.8793C36.7403 27.9174 36.811 27.9726 36.8675 28.0409C37.5549 29.034 36.1513 29.9376 35.1555 29.9572C34.1863 29.9476 33.2573 29.5689 32.5583 28.8984C32.4545 28.7819 32.3808 28.7298 32.2862 28.7758C32.234 28.7985 32.202 28.8825 32.1854 28.9635C32.1922 29.0307 32.1824 29.0987 32.157 29.1613C32.1315 29.2239 32.0911 29.2794 32.0392 29.3229C32.005 29.361 31.963 29.3913 31.9162 29.412C31.8693 29.4327 31.8187 29.4433 31.7674 29.443C31.7162 29.4428 31.6656 29.4317 31.619 29.4105C31.5723 29.3893 31.5307 29.3585 31.4969 29.3201C31.463 29.2817 31.4377 29.2366 31.4225 29.1878C31.4074 29.1389 31.4027 29.0874 31.4089 29.0366C31.4151 28.9858 31.432 28.9369 31.4585 28.8931C31.485 28.8493 31.5205 28.8116 31.5626 28.7825C31.6475 28.7087 31.7571 28.6693 31.8697 28.6721L31.9084 28.6629L31.866 28.6365V28.5138L32.0061 28.3881C31.753 28.139 31.03 27.4367 30.0404 26.5479C29.0452 27.4348 28.3204 28.1372 28.0691 28.3881L28.2079 28.5243V28.6469L28.1729 28.6733L28.2049 28.6825C28.3176 28.6791 28.4274 28.7186 28.512 28.7929C28.5925 28.8559 28.6447 28.948 28.6573 29.0492C28.67 29.1505 28.642 29.2526 28.5796 29.3334C28.5078 29.405 28.4105 29.4453 28.309 29.4453C28.2075 29.4453 28.1102 29.405 28.0384 29.3334C27.9857 29.2904 27.9445 29.2351 27.9185 29.1724C27.8924 29.1097 27.8823 29.0415 27.8891 28.9739C27.8871 28.9372 27.8771 28.9014 27.8598 28.869C27.8425 28.8366 27.8184 28.8083 27.789 28.7862C27.695 28.7371 27.6201 28.7893 27.5163 28.9089C26.8197 29.5789 25.893 29.9577 24.9258 29.9676C23.9276 29.948 22.5172 29.0475 23.2108 28.0513C23.2675 27.9829 23.3385 27.9278 23.4188 27.8897C23.4991 27.8516 23.5868 27.8315 23.6757 27.8309C23.7646 27.8302 23.8526 27.849 23.9335 27.886C24.0144 27.9229 24.0862 27.977 24.1439 28.0446C24.2832 28.2193 24.4596 28.361 24.6604 28.4596C24.8611 28.5581 25.0812 28.611 25.3049 28.6144C25.5803 28.6218 25.8536 28.5637 26.1022 28.445C26.3508 28.3263 26.5677 28.1504 26.7349 27.9317C26.7492 27.8876 26.7534 27.8408 26.7473 27.7949C26.7411 27.7489 26.7247 27.7049 26.6993 27.6661C26.6343 27.6806 26.5667 27.679 26.5025 27.6615C26.4382 27.644 26.3793 27.611 26.3307 27.5655C26.2895 27.5359 26.255 27.4979 26.2294 27.4542C26.2038 27.4104 26.1877 27.3617 26.1822 27.3113C26.1766 27.2609 26.1818 27.2099 26.1972 27.1616C26.2127 27.1133 26.2381 27.0688 26.2719 27.0309C26.3057 26.9931 26.3471 26.9628 26.3934 26.9419C26.4396 26.9211 26.4898 26.9101 26.5406 26.9099C26.5913 26.9096 26.6416 26.92 26.6881 26.9404C26.7346 26.9608 26.7763 26.9907 26.8105 27.0282C26.875 27.0792 26.9216 27.1493 26.9437 27.2284C26.9658 27.3076 26.9621 27.3916 26.9333 27.4686L27.0273 27.5986L27.0537 27.514H27.1803L27.2417 27.5753C27.8609 26.9116 28.4868 26.3001 29.103 25.7351C27.9184 24.7142 26.6754 23.7628 25.3804 22.8858C21.2536 20.1475 18.1374 20.4095 18.1374 20.4095C20.4754 19.5384 23.4122 20.3868 24.7483 21.1413C26.6289 22.2258 28.4026 23.4855 30.0459 24.9033C31.6876 23.4849 33.4604 22.2252 35.3404 21.1413C36.6759 20.3868 39.6133 19.5384 41.9476 20.4095C41.9476 20.4095 38.8381 20.1475 34.7077 22.8858M23.4178 9.78339C23.489 9.49509 23.8748 9.26875 23.8779 9.26568L23.9166 9.24237V9.19391C23.9039 9.12416 23.9053 9.0526 23.9205 8.98337C23.9357 8.91413 23.9645 8.84859 24.0052 8.79053C24.046 8.73248 24.0978 8.68305 24.1578 8.6451C24.2177 8.60715 24.2846 8.58145 24.3546 8.56945L24.4227 8.55964L24.4197 8.4848C24.4117 8.44892 24.412 8.41171 24.4204 8.37593C24.4288 8.34015 24.4451 8.30671 24.4682 8.27808C24.5405 8.21639 24.6248 8.17041 24.7159 8.14305C24.807 8.1157 24.9027 8.10757 24.9971 8.11921C25.1012 8.11952 25.2052 8.12815 25.3079 8.14498L25.4117 8.16093L25.3829 8.05112C25.3735 8.02614 25.3693 7.99955 25.3703 7.97291C25.3714 7.94627 25.3777 7.92011 25.389 7.89593C25.4143 7.87197 25.4446 7.85401 25.4778 7.84339C25.511 7.83277 25.5462 7.82976 25.5807 7.83459C25.8433 7.85819 26.1005 7.92363 26.3424 8.02843L26.4529 8.07383L26.44 7.95114C26.4333 7.92291 26.4327 7.89357 26.4384 7.8651C26.444 7.83663 26.4557 7.80969 26.4726 7.78612C26.5063 7.75757 26.5455 7.73621 26.5877 7.72334C26.63 7.71047 26.6744 7.70637 26.7183 7.7113C26.9313 7.72562 27.141 7.77043 27.3412 7.8444L27.3701 7.85728C27.5072 7.93496 27.6634 7.97299 27.821 7.96709C27.8437 8.10633 27.9536 8.37869 28.4432 8.61485L28.4629 8.61792C28.4629 8.61792 28.7221 8.67926 29.0329 8.7633C29.2172 8.8185 29.4224 8.88597 29.6036 8.95467L29.6134 8.96081L29.4291 8.99332C28.9835 9.10279 28.545 9.23899 28.1158 9.40123C28.0322 9.41381 27.9479 9.42038 27.8633 9.42087C27.351 9.42087 27.2491 9.17182 27.2435 9.17182L27.2177 9.08778L27.1465 9.13625C26.9941 9.25981 26.8072 9.33329 26.6114 9.34664H26.5949L26.5236 9.33683L26.4523 9.31719C26.4043 9.30062 26.3609 9.27287 26.3258 9.23623L26.2803 9.18103L26.2287 9.22642C26.0663 9.38054 25.8526 9.46923 25.6286 9.47545C25.5182 9.47679 25.4092 9.45111 25.311 9.40063L25.2723 9.37792L25.2373 9.41044C24.9728 9.62266 24.6718 9.785 24.349 9.88951L24.3294 9.89565L24.3128 9.90853C24.1578 10.0217 23.9649 10.0705 23.7747 10.0447C23.6663 10.044 23.558 10.0375 23.4503 10.0251C23.4103 9.94986 23.3988 9.86274 23.4178 9.7797M24.9123 6.53907C25.0535 6.42356 25.2333 6.3657 25.4154 6.37713H25.4474H25.4928L25.5131 6.3348C25.5426 6.25495 25.5948 6.18545 25.6633 6.13487C25.7319 6.0843 25.8138 6.05487 25.8989 6.05018C25.9597 6.05051 26.0197 6.065 26.0739 6.09251L26.1384 6.12196L26.1673 6.0508C26.1794 6.01191 26.204 5.9781 26.2373 5.95468C26.2707 5.93126 26.3109 5.91955 26.3516 5.92137C26.5973 5.92137 26.9321 6.22807 26.9413 6.23175L27.0224 6.30966L27.0519 6.19311C27.0746 6.08638 27.1164 6.08637 27.136 6.08637C27.2847 6.08637 27.5869 6.4262 27.7386 6.63843L27.8105 6.73537L27.859 6.62189C27.8947 6.53172 27.9401 6.52129 27.9819 6.52129L27.9985 6.52436C28.0875 6.6329 28.2024 6.71728 28.3326 6.76972C28.3393 6.88957 28.3804 7.00496 28.4511 7.10203C28.5219 7.19909 28.6192 7.2737 28.7313 7.31688C28.7173 7.45234 28.7338 7.58922 28.7797 7.71746C28.8257 7.8457 28.8998 7.96203 28.9967 8.05788L29.0065 8.07076C29.2476 8.26408 29.4769 8.47157 29.6933 8.69214L29.8555 8.87616L29.8653 8.89272L29.8684 8.9056C29.7487 8.84642 29.6256 8.79439 29.4998 8.7498C29.1695 8.63499 28.8327 8.53996 28.4911 8.46518C27.9758 8.21246 27.9561 7.94378 27.9561 7.90146V7.89532L27.9727 7.82785V7.80453L27.9205 7.8076L27.8848 7.81128C27.8056 7.81435 27.7263 7.8088 27.6483 7.79472L27.5832 7.77815L27.4241 7.71068L27.3596 7.66467C27.3139 7.61803 27.2795 7.56161 27.2589 7.49967L27.246 7.42852L27.1846 7.43771L27.0414 7.44752C26.9246 7.45123 26.8089 7.42416 26.7059 7.36903C26.603 7.3139 26.5163 7.23265 26.4548 7.13346L26.429 7.09113L26.3829 7.10034C26.308 7.10341 26.2275 7.11015 26.1495 7.11015C25.9455 7.11222 25.7424 7.08368 25.5469 7.0255L25.5303 7.01936L25.5106 7.0255L25.4621 7.03224C25.2326 6.97957 25.0208 6.86794 24.8478 6.70837C24.8456 6.64411 24.8688 6.58155 24.9123 6.53417M27.0918 5.06259C27.2146 5.07274 27.3338 5.10915 27.4413 5.16933L27.48 5.19263L27.5187 5.16626C27.5838 5.10675 27.6672 5.07125 27.7552 5.06566C27.8046 5.06831 27.8528 5.08119 27.8969 5.10347C27.941 5.12575 27.98 5.15695 28.0114 5.19509L28.0568 5.25643L28.1121 5.2043L28.2129 5.1589C28.3818 5.1589 28.5728 5.51528 28.6251 5.6441L28.6736 5.75145L28.7448 5.66066L28.813 5.60915C28.907 5.60915 29.0403 5.94897 29.1079 6.26979L29.1306 6.39246L29.2185 6.31149L29.2959 6.26979C29.4187 6.96907 29.7259 8.05664 29.8991 8.65594L29.9249 8.74304L29.7824 8.58419L29.614 8.42224C29.4495 8.26001 29.2765 8.10665 29.0956 7.9628C28.7614 7.53894 28.8745 7.32852 28.8745 7.32852L28.9205 7.26044L28.9236 7.25063L28.907 7.24449L28.8456 7.21504C28.7505 7.17273 28.6637 7.11373 28.5894 7.04083C28.5532 7.00959 28.5237 6.97139 28.5025 6.9285C28.4814 6.8856 28.4692 6.83891 28.4666 6.79119V6.74579L28.4795 6.69733L28.4856 6.67402L28.4438 6.65745L28.4242 6.65133C28.2794 6.6076 28.1537 6.51638 28.0673 6.39246C28.0154 6.31727 27.9822 6.23088 27.9702 6.14036L27.9671 6.09127L27.9254 6.07473C27.698 5.98789 27.4894 5.85813 27.3111 5.69256L27.2915 5.67968L27.2749 5.67354C27.1452 5.65085 26.9732 5.36685 26.8823 5.17792C26.9008 5.13956 26.9306 5.10781 26.9677 5.08696C27.0049 5.06611 27.0476 5.05717 27.09 5.06137M29.3788 5.75453H29.4304L29.4212 5.67049C29.3482 5.3065 29.3795 4.92934 29.5115 4.58229L29.5637 4.55654L29.6128 4.5731L29.697 4.61848L29.7129 4.52157C29.7589 4.24496 29.8675 3.98248 30.0305 3.75419C30.1984 3.98018 30.3086 4.24354 30.3518 4.52157L30.3715 4.61848L30.4495 4.5731L30.5041 4.55654L30.5564 4.58229C30.6817 4.93086 30.7118 5.30646 30.6436 5.67049L30.6374 5.75453H30.6927C30.6986 5.8894 30.6856 6.02443 30.654 6.15569L30.6344 6.27224L30.5957 6.46668C30.4888 6.96232 30.3106 7.65118 30.1128 8.34433L30.0999 8.38972L30.0385 8.594L30.0287 8.61975L30.0256 8.594L29.9679 8.38972L29.9519 8.34433C29.7541 7.65118 29.579 6.96232 29.4715 6.46668L29.4335 6.27224L29.4138 6.15569C29.3826 6.02439 29.3706 5.88926 29.3782 5.75453M30.8469 6.31149L30.9372 6.39246L30.9599 6.26979C31.0281 5.95572 31.1639 5.60915 31.2745 5.60915L31.3236 5.66066L31.3985 5.75145L31.4403 5.6441C31.4919 5.51467 31.686 5.1589 31.855 5.1589L31.9557 5.2043L32.011 5.25643L32.0564 5.19509C32.0874 5.15654 32.1263 5.12506 32.1705 5.10274C32.2147 5.08042 32.2631 5.06777 32.3126 5.06566C32.4034 5.07102 32.4899 5.10641 32.5583 5.16626L32.5939 5.19263L32.6265 5.16933C32.7351 5.10802 32.8559 5.07156 32.9803 5.06259C33.0226 5.05896 33.0649 5.06815 33.1019 5.08894C33.1388 5.10974 33.1686 5.14117 33.1873 5.17914C33.0964 5.36991 32.925 5.65208 32.7948 5.67478L32.7752 5.68092L32.7592 5.6938C32.5814 5.86009 32.3727 5.98992 32.1449 6.07594L32.0994 6.09251L32.0957 6.14157C32.0858 6.2332 32.0509 6.32037 31.995 6.39369C31.9108 6.51691 31.7874 6.60812 31.6449 6.65255L31.6258 6.65869L31.5798 6.67526L31.5865 6.69856L31.5957 6.74701L31.6019 6.7924C31.5921 6.88683 31.55 6.97501 31.4827 7.04207C31.4059 7.11323 31.3184 7.172 31.2235 7.21628L31.162 7.24572L31.1491 7.25184V7.26167L31.1909 7.32607C31.1909 7.32913 31.3015 7.54015 30.9704 7.96402C30.9249 7.99653 30.6884 8.19098 30.4452 8.42346L30.2824 8.5854L30.1399 8.74428L30.1626 8.65717C30.3469 8.05849 30.646 6.97029 30.7689 6.271L30.8469 6.31149ZM33.9005 6.05571L33.93 6.12686L33.9945 6.09741C34.0486 6.06995 34.1083 6.05546 34.169 6.05509C34.2536 6.05989 34.3351 6.08942 34.4031 6.14002C34.4711 6.19062 34.5228 6.26005 34.5517 6.3397L34.5744 6.38203H34.6198H34.6524C34.8343 6.37113 35.0137 6.42894 35.1549 6.54397C35.1957 6.59299 35.2184 6.65446 35.2194 6.71818C35.047 6.87867 34.835 6.99047 34.6051 7.04207L34.5596 7.03531L34.54 7.02919L34.5203 7.03531C34.3258 7.09334 34.1238 7.12188 33.9208 7.11996C33.8428 7.11996 33.7586 7.11322 33.6874 7.11015L33.6388 7.10094L33.6192 7.14327C33.5569 7.24262 33.4696 7.32391 33.366 7.37903C33.2624 7.43414 33.1462 7.46115 33.0289 7.45735L32.8863 7.44752L32.8188 7.43833L32.8059 7.50948C32.7928 7.57303 32.7599 7.63081 32.7119 7.6745L32.6474 7.72049L32.4852 7.78798L32.4238 7.80453C32.3444 7.81725 32.264 7.8228 32.1836 7.82109H32.1449L32.1025 7.81742V7.83766L32.1086 7.90513V7.91127C32.1086 7.96034 32.089 8.22534 31.5767 8.47499C31.2365 8.55045 30.9009 8.64548 30.5717 8.75961C30.4437 8.8048 30.3182 8.85681 30.1958 8.91541L30.205 8.90253L30.2118 8.88597L30.3739 8.70195C30.5911 8.48203 30.8206 8.27457 31.0613 8.08057L31.0705 8.06769C31.1686 7.97255 31.2437 7.85643 31.2903 7.72807C31.337 7.59972 31.3538 7.46248 31.3396 7.32669C31.4517 7.28351 31.549 7.2089 31.6197 7.11184C31.6905 7.01477 31.7316 6.89938 31.7382 6.77953C31.8691 6.72808 31.9842 6.64352 32.0724 6.53417L32.0921 6.5311C32.1277 6.5311 32.1762 6.54091 32.2149 6.6317L32.2635 6.74517L32.3347 6.64826C32.484 6.43418 32.7856 6.0962 32.9373 6.0962C32.957 6.0962 32.9987 6.09619 33.0221 6.20292L33.051 6.31947L33.1357 6.24158C33.2966 6.08461 33.4991 5.9769 33.7193 5.93118C33.76 5.92936 33.8002 5.94108 33.8336 5.9645C33.8669 5.98793 33.8915 6.02172 33.9036 6.06061M33.3913 11.1335L33.3526 11.0593L33.2912 11.1077C33.2583 11.1284 33.2199 11.1384 33.1812 11.1366C33.0605 11.127 32.9486 11.0701 32.8698 10.9783L32.8083 10.917C32.7255 10.8175 32.6507 10.7117 32.5847 10.6005L32.5294 10.5066L32.5006 10.5581L32.4741 10.5968C32.448 10.6303 32.4138 10.6568 32.3747 10.6737C32.3357 10.6907 32.293 10.6975 32.2506 10.6937C32.0317 10.6712 31.8249 10.5831 31.6572 10.441C31.3107 10.0536 30.9414 9.68719 30.5514 9.34357C30.4802 9.28223 30.4114 9.23072 30.3506 9.18165L30.2203 9.09452L30.2369 9.08778L30.3407 9.10066C30.8792 9.19992 31.4069 9.3507 31.9164 9.55091L31.9293 9.55398C32.0215 9.5683 32.1148 9.57485 32.2082 9.5736C32.3377 9.58851 32.4688 9.57218 32.5907 9.52596C32.7125 9.47974 32.8215 9.405 32.9084 9.308C33.0746 9.42628 33.2716 9.49383 33.4754 9.50245L33.5018 9.49632L33.4822 9.60305L33.4496 9.70365H33.5467C33.7476 9.70365 34.2955 9.75579 34.419 9.976C34.4381 10.0146 34.4469 10.0574 34.4447 10.1004C34.4424 10.1433 34.4291 10.185 34.4061 10.2214L34.3674 10.306L34.4552 10.3318C34.7381 10.4147 34.9848 10.5904 35.1555 10.8305C35.1832 10.8823 35.1995 10.9394 35.2034 10.9979C35.2073 11.0565 35.1987 11.1153 35.1782 11.1703L35.1653 11.2316L35.2077 11.2635C35.3436 11.3764 35.4416 11.5282 35.4885 11.6984C35.5354 11.8686 35.529 12.0491 35.47 12.2156L35.4639 12.2481L35.4829 12.28C35.486 12.2867 35.9694 13.0056 35.7004 13.3645C35.4934 13.2903 35.0554 13.0829 34.9583 12.821L34.9552 12.8044L34.9386 12.7915C34.661 12.5043 34.4282 12.177 34.2482 11.8205L34.2249 11.7715L34.1726 11.7776L34.1309 11.7813C34.0043 11.7813 33.6677 11.7199 33.3937 11.1396M27.8173 20.2432H29.7216L29.3167 18.492L29.6306 18.1853L29.2289 16.602L29.5465 16.4462L29.1282 14.7177L29.5072 14.4429L29.173 12.9664L29.5489 12.7462L29.313 11.4347L29.627 11.228L29.5784 9.81284V9.8067C29.6665 9.53721 29.8214 9.29434 30.0287 9.10066C30.2397 9.2944 30.3962 9.53994 30.4826 9.81284L30.4341 11.228L30.7486 11.4347L30.5121 12.7462L30.8911 12.9529L30.56 14.4294L30.936 14.7042L30.5244 16.4327L30.8352 16.5886L30.4335 18.1718L30.748 18.4785L30.3911 20.2205H32.2518C32.2518 20.2205 32.4975 20.3242 32.4146 20.5119C32.0963 20.9387 31.7133 21.3133 31.2794 21.6222C31.1983 21.5768 31.1983 21.2051 31.1497 21.137C31.1074 21.0916 30.6989 21.5289 30.5109 21.6326C30.3674 21.4759 30.2038 21.3387 30.0244 21.2247C29.7332 21.4087 29.4218 21.6326 29.4218 21.6326C29.2375 21.5289 28.9519 21.0983 28.9162 21.1468C28.8548 21.2149 28.8548 21.5872 28.7829 21.6296C28.3464 21.324 27.9631 20.9489 27.6483 20.5193C27.5642 20.3352 27.8105 20.231 27.8105 20.231M24.5978 12.2021C24.5387 12.0356 24.5321 11.8551 24.579 11.6849C24.6259 11.5146 24.7241 11.3628 24.8601 11.25L24.9025 11.2181L24.8896 11.1568C24.8703 11.1017 24.862 11.0433 24.8654 10.9849C24.8688 10.9266 24.8837 10.8695 24.9092 10.817C25.0831 10.5764 25.3316 10.4 25.6163 10.3152L25.6943 10.2925L25.6587 10.2079C25.6363 10.1712 25.6236 10.1294 25.6219 10.0865C25.6202 10.0435 25.6295 10.0009 25.6489 9.9625C25.7754 9.74229 26.3172 9.69015 26.5211 9.69015H26.6182L26.5856 9.58955L26.5666 9.48283L26.609 9.48895C26.808 9.47773 26.9997 9.4103 27.1618 9.29451C27.2482 9.39225 27.3571 9.46751 27.4791 9.51379C27.6011 9.56007 27.7326 9.57596 27.8621 9.5601C27.9555 9.56123 28.0487 9.55468 28.141 9.54048L28.1539 9.53741C28.6638 9.33834 29.1913 9.18759 29.7295 9.08717L29.8401 9.07429L29.853 9.08105L29.7234 9.16815L29.5225 9.33007C29.1302 9.67227 28.7599 10.0388 28.4137 10.4275C28.2459 10.5691 28.0394 10.6571 27.821 10.6802C27.7793 10.6843 27.7373 10.6779 27.6988 10.6616C27.6603 10.6453 27.6265 10.6196 27.6004 10.587L27.574 10.5416L27.5384 10.487L27.4837 10.5876C27.4187 10.7004 27.3426 10.8064 27.2564 10.9041L27.195 10.9654C27.1172 11.0561 27.007 11.1129 26.8879 11.1237L26.7773 11.0949L26.7097 11.0427L26.6741 11.1206C26.4014 11.7003 26.0678 11.7623 25.9369 11.7623L25.8946 11.7586L25.8424 11.7524L25.8227 11.8015C25.642 12.1593 25.4068 12.4868 25.1255 12.7725L25.1126 12.7854L25.1058 12.802C25.0125 13.0639 24.5708 13.2719 24.3687 13.3455C24.0996 12.986 24.5831 12.2677 24.5861 12.261L24.6058 12.2291L24.5978 12.2021ZM26.7632 13.4976C26.6658 13.4257 26.5984 13.3205 26.5739 13.2021C26.5494 13.0837 26.5695 12.9604 26.6305 12.856L26.6722 12.7915L26.6108 12.7529L26.5199 12.594C26.507 12.3738 26.789 12.0567 26.8995 11.953L26.98 11.8751L26.8793 11.826L26.7951 11.7359C26.789 11.5868 27.1422 11.3065 27.3916 11.1562L27.4954 11.0949L27.3983 11.0268L27.3664 11.001C27.4354 10.9238 27.4971 10.8405 27.5507 10.752C27.6278 10.8108 27.7227 10.8415 27.8197 10.8391C28.0684 10.816 28.3041 10.7178 28.4954 10.5575L28.5083 10.5446C28.8832 10.1261 29.2861 9.73343 29.7142 9.36935C29.5028 9.77909 29.3231 10.2044 29.1767 10.6415C28.8358 11.2047 28.5734 11.1206 28.5734 11.1206L28.4954 11.0949L28.4825 11.185C28.4113 11.7905 28.114 11.8101 28.1035 11.8101H28.0353V11.8849C28.0475 12.0323 28.0169 12.18 27.9473 12.3105C27.8777 12.4411 27.772 12.5488 27.6428 12.621L27.6047 12.637L27.6016 12.6891C27.5863 12.9942 27.5181 13.2943 27.4002 13.5761L27.3971 13.5994V13.619C27.4137 13.7902 27.1735 14.1043 26.9984 14.2791L26.8492 14.1754C26.7672 13.9866 26.748 13.7766 26.7945 13.5761L26.8006 13.5276L26.7632 13.4976ZM33.4288 12.856C33.4908 12.9599 33.5119 13.0831 33.488 13.2018C33.464 13.3204 33.3967 13.4258 33.2991 13.4976L33.2666 13.5264L33.2764 13.5749C33.3182 13.7762 33.2967 13.9855 33.215 14.1742L33.0626 14.2778C32.8912 14.103 32.6511 13.7871 32.667 13.6178L32.6707 13.5982L32.6578 13.5749C32.5467 13.2914 32.482 12.9919 32.4662 12.6879L32.46 12.6388L32.4176 12.6198C32.2894 12.5465 32.1845 12.4385 32.115 12.3083C32.0456 12.1781 32.0144 12.0309 32.0251 11.8837V11.8089H31.9606C31.9477 11.8089 31.6535 11.7892 31.5816 11.1838L31.5687 11.0967L31.4876 11.1194C31.4876 11.1194 31.2315 11.2071 30.8881 10.6403C30.7411 10.2033 30.5612 9.778 30.35 9.36811C30.7792 9.72992 31.1812 10.1228 31.5527 10.5434L31.5656 10.5563C31.758 10.7149 31.9931 10.8129 32.2413 10.8378C32.3372 10.8404 32.431 10.8096 32.5067 10.7507C32.5638 10.8368 32.6253 10.92 32.691 10.9998L32.659 11.0255L32.5651 11.0936L32.6658 11.155C32.9189 11.3034 33.2721 11.5844 33.2653 11.7346L33.1781 11.8248L33.0811 11.8739L33.1652 11.9518C33.2758 12.0555 33.5547 12.3726 33.5412 12.5928L33.4509 12.7517L33.3894 12.7903L33.4288 12.856ZM35.65 8.48235L35.6402 8.55719L35.7114 8.567C35.7311 8.57007 36.1684 8.6216 36.1494 9.19145V9.23992L36.1918 9.26323C36.1918 9.26629 36.5813 9.49264 36.6458 9.78094C36.6568 9.82196 36.6596 9.86476 36.654 9.90687C36.6484 9.94898 36.6346 9.98957 36.6132 10.0263C36.5067 10.0387 36.3997 10.0453 36.2925 10.0459C36.1023 10.0711 35.9097 10.0223 35.7544 9.90975L35.7378 9.89687L35.7188 9.89073C35.3967 9.78674 35.0967 9.62435 34.8336 9.41167L34.798 9.37916L34.7556 9.40185C34.6565 9.45267 34.5464 9.47838 34.4349 9.47669C34.2115 9.46907 33.9984 9.38055 33.8354 9.22764L33.7832 9.18224L33.7377 9.24359C33.7026 9.27951 33.6591 9.30627 33.6112 9.3215L33.543 9.34112L33.4717 9.35095H33.4558C33.2608 9.33813 33.0747 9.26453 32.9238 9.14054L32.8525 9.09514L32.8169 9.17612C32.8169 9.17612 32.7094 9.42515 32.2026 9.42515C32.1179 9.42467 32.0333 9.41812 31.9495 9.40553C31.5214 9.24408 31.0841 9.10786 30.6399 8.99761L30.4489 8.9651L30.4618 8.95897C30.6399 8.88782 30.8481 8.82279 31.0324 8.76758C31.3439 8.68355 31.6092 8.62221 31.6092 8.62221L31.6221 8.61913C32.1136 8.38297 32.2217 8.11062 32.2413 7.97138C32.4008 7.97694 32.5589 7.93899 32.6984 7.86158L32.7211 7.8487C32.9221 7.77482 33.1327 7.72999 33.3464 7.71559C33.3903 7.71105 33.4347 7.71533 33.4769 7.72819C33.5191 7.74104 33.5583 7.76221 33.5921 7.79043C33.6091 7.814 33.6208 7.84092 33.6264 7.86939C33.632 7.89786 33.6314 7.9272 33.6247 7.95543L33.6149 8.07812L33.7218 8.03272C33.9627 7.92822 34.2188 7.86277 34.4804 7.83888C34.5812 7.83888 34.6493 7.86158 34.6751 7.90022C34.6966 7.94953 34.6977 8.00531 34.6782 8.05543L34.6493 8.16522L34.7593 8.14927C34.8608 8.13213 34.9635 8.12352 35.0664 8.12351C35.1607 8.11139 35.2565 8.11927 35.3475 8.14665C35.4386 8.17403 35.5228 8.22028 35.5947 8.28239C35.6178 8.31104 35.6345 8.34435 35.6435 8.38003C35.6525 8.41571 35.6537 8.45291 35.6469 8.48909M46.8097 0.0976562C35.6983 1.95378 24.3554 1.95378 13.244 0.0976562C15.1077 11.1969 15.1077 22.5286 13.244 33.6278C24.3554 31.7717 35.6983 31.7717 46.8097 33.6278C44.9509 22.5282 44.9509 11.1973 46.8097 0.0976562Z" fill="#00524D"/>
<path id="Path 52497" d="M35.6523 8.48523L35.6425 8.56007L35.7137 8.56927C35.784 8.5809 35.8513 8.60637 35.9116 8.6442C35.972 8.68203 36.0242 8.73147 36.0652 8.78963C36.1063 8.8478 36.1353 8.91353 36.1507 8.98301C36.1661 9.05249 36.1675 9.12432 36.1548 9.19434V9.2434L36.1935 9.26611C36.1965 9.26918 36.586 9.49551 36.6505 9.78442C36.6694 9.86679 36.6567 9.95327 36.6149 10.0267C36.5095 10.0394 36.4034 10.0459 36.2973 10.0463C36.1061 10.0718 35.9124 10.0231 35.7561 9.91018L35.7395 9.89423L35.7199 9.89054C35.3975 9.78628 35.0975 9.62277 34.8353 9.40842L34.7997 9.37897L34.7573 9.40166C34.6582 9.45263 34.5481 9.47834 34.4366 9.4765C34.2128 9.46886 33.9995 9.38011 33.8365 9.22683L33.7879 9.18146L33.7394 9.23604C33.7048 9.27347 33.6613 9.30153 33.6129 9.31763L33.5453 9.33664L33.474 9.34707H33.4581C33.2631 9.33426 33.077 9.26066 32.9261 9.13666L32.8548 9.09067L32.8229 9.17225C32.8229 9.17225 32.7123 9.4213 32.2086 9.4213C32.1239 9.42108 32.0393 9.41451 31.9555 9.40166C31.5279 9.23865 31.0905 9.10243 30.6459 8.99375L30.4548 8.96124L30.4677 8.95572C30.6459 8.88456 30.8541 8.81953 31.0384 8.76433C31.3499 8.68029 31.6152 8.61835 31.6152 8.61835L31.6281 8.61466C32.1195 8.37543 32.2277 8.10676 32.2473 7.96752C32.4069 7.97343 32.565 7.93544 32.7043 7.85771L32.7271 7.84483C32.928 7.77016 33.1386 7.72432 33.3524 7.70866C33.3965 7.70425 33.441 7.70882 33.4832 7.7221C33.5255 7.73539 33.5645 7.7571 33.5981 7.78594C33.6149 7.80975 33.6266 7.83671 33.6326 7.86518C33.6386 7.89364 33.6388 7.92303 33.6331 7.95157L33.6202 8.07424L33.7271 8.02884C33.968 7.92406 34.2241 7.85842 34.4858 7.8344C34.5212 7.82963 34.5573 7.83264 34.5915 7.84324C34.6256 7.85383 34.6571 7.87176 34.6836 7.89575C34.7037 7.94574 34.7037 8.00155 34.6836 8.05155L34.6547 8.16134L34.7647 8.14539C34.8662 8.12848 34.9689 8.11987 35.0718 8.11964C35.1665 8.10787 35.2626 8.11587 35.3541 8.14311C35.4456 8.17035 35.5304 8.21624 35.6031 8.27789C35.6259 8.30683 35.6421 8.34037 35.6505 8.37617C35.659 8.41197 35.6596 8.44918 35.6523 8.48523Z" fill="white"/>
<path id="Path 52498" d="M33.4343 12.8595C33.495 12.964 33.5149 13.0872 33.4903 13.2055C33.4657 13.3237 33.3983 13.4288 33.301 13.5005L33.269 13.53L33.2782 13.5784C33.3235 13.7784 33.3019 13.9875 33.2168 14.1741L33.0682 14.2814C32.8962 14.1035 32.656 13.7907 32.6726 13.6208L32.6756 13.5981L32.6627 13.5784C32.5506 13.2942 32.486 12.9935 32.4717 12.6884L32.4655 12.6393L32.4232 12.6227C32.295 12.5494 32.1902 12.4414 32.1209 12.3111C32.0516 12.1809 32.0205 12.0338 32.0312 11.8867V11.8149L31.9661 11.8118C31.9532 11.8118 31.659 11.7922 31.5865 11.1874L31.5736 11.1003L31.4925 11.126C31.4925 11.126 31.2333 11.2131 30.893 10.6439C30.7438 10.2086 30.5637 9.78452 30.3542 9.37476C30.7825 9.73679 31.1846 10.1285 31.5576 10.547L31.5705 10.5598C31.7629 10.7186 31.998 10.8168 32.2463 10.842C32.3433 10.8442 32.4382 10.8133 32.5153 10.7543C32.57 10.8406 32.6295 10.9237 32.6934 11.0034L32.664 11.0328L32.57 11.1009L32.6677 11.1622C32.9201 11.3107 33.2739 11.5916 33.2672 11.7419L33.1824 11.8321L33.0817 11.8811L33.1695 11.959C33.2764 12.0627 33.5584 12.3768 33.5455 12.6001L33.4515 12.7559L33.3962 12.7982L33.4343 12.8595Z" fill="white"/>
<path id="Path 52499" d="M26.767 13.5006C26.6694 13.429 26.602 13.3237 26.5779 13.2052C26.5538 13.0867 26.5748 12.9634 26.6368 12.8595L26.6755 12.7951L26.6177 12.7528L26.5237 12.5976C26.5108 12.3737 26.7928 12.0603 26.9028 11.956L26.9838 11.8787L26.8831 11.8296L26.7989 11.7395C26.7922 11.5904 27.1491 11.3101 27.3948 11.1598L27.4992 11.0984L27.4022 11.031L27.3727 11.0015C27.4387 10.9234 27.4983 10.8402 27.5508 10.7525C27.6291 10.8118 27.7254 10.8425 27.8236 10.8396C28.0719 10.8153 28.3073 10.7172 28.4993 10.558L28.5085 10.5451C28.8849 10.129 29.2879 9.73769 29.7149 9.37354C29.5042 9.78241 29.3243 10.2064 29.1768 10.6421C28.8365 11.2052 28.5736 11.1248 28.5736 11.1248L28.4962 11.0954L28.4833 11.1862C28.4121 11.7916 28.1147 11.8106 28.1043 11.8106H28.0361V11.8854C28.0483 12.0327 28.0178 12.1804 27.9484 12.3109C27.8789 12.4414 27.7733 12.5493 27.6442 12.6215L27.6055 12.6381L27.6024 12.6866C27.5878 12.9928 27.5198 13.2942 27.4016 13.5772L27.3979 13.5969V13.6196C27.4145 13.7913 27.1743 14.1023 26.9992 14.2796L26.8506 14.1729C26.7683 13.9855 26.7489 13.7765 26.7953 13.5772L26.802 13.5288L26.767 13.5006Z" fill="white"/>
<path id="Path 52500" d="M24.6001 12.205C24.5408 12.0384 24.5344 11.8575 24.5819 11.6871C24.6294 11.5167 24.7284 11.3651 24.8655 11.253L24.9079 11.2211L24.8919 11.1598C24.8557 11.0478 24.8627 10.9264 24.9115 10.8194C25.0868 10.5792 25.336 10.4029 25.621 10.3176L25.699 10.2949L25.6604 10.2108C25.6386 10.1739 25.6264 10.1321 25.6248 10.0893C25.6232 10.0465 25.6323 10.004 25.6511 9.96549C25.7777 9.7422 26.3219 9.69313 26.5234 9.69313H26.6205L26.5885 9.58946L26.5719 9.48272L26.6143 9.49193C26.8118 9.48046 27.0018 9.413 27.1623 9.29747C27.2494 9.395 27.3589 9.47008 27.4814 9.51632C27.6038 9.56257 27.7356 9.57861 27.8656 9.56309C27.9579 9.56227 28.05 9.55571 28.1414 9.54345L28.1574 9.53978C28.6659 9.33994 29.1926 9.18937 29.73 9.09015L29.8399 9.07727L29.8565 9.08339L29.7263 9.17111L29.5223 9.32999C29.1293 9.67143 28.7599 10.0391 28.4166 10.4304C28.2475 10.5697 28.0412 10.6565 27.8232 10.6801C27.7811 10.6845 27.7385 10.6782 27.6994 10.6618C27.6603 10.6454 27.626 10.6194 27.5996 10.5863L27.5732 10.5439L27.5413 10.4826L27.4798 10.5832C27.4149 10.6953 27.3401 10.8015 27.2563 10.9003L27.1948 10.9647C27.1566 11.0098 27.1097 11.0468 27.057 11.0736C27.0043 11.1003 26.9467 11.1163 26.8877 11.1205L26.7777 11.0948L26.7095 11.0396L26.6739 11.1205C26.3981 11.7002 26.0645 11.7616 25.9368 11.7616L25.8944 11.7585L25.8458 11.7523L25.8262 11.7977C25.6434 12.1553 25.4084 12.4838 25.129 12.7724L25.1161 12.7853L25.1069 12.8013C25.0129 13.0638 24.5718 13.2711 24.3697 13.3454C24.1001 12.9859 24.5835 12.2676 24.5866 12.2572L24.6093 12.2283L24.6001 12.205Z" fill="white"/>
<path id="Path 52501" d="M27.8123 20.232H29.7166L29.3111 18.4838L29.6257 18.1734L29.2239 16.5932L29.5415 16.4344L29.1232 14.7058L29.5022 14.4304L29.168 12.9545L29.547 12.7471L29.3105 11.4357L29.625 11.229L29.5765 9.81443V9.80831C29.6647 9.53961 29.8199 9.29771 30.0274 9.10535C30.2377 9.2983 30.394 9.5427 30.4807 9.81443L30.4322 11.229L30.7467 11.4357L30.5102 12.7471L30.8892 12.9545L30.5581 14.4304L30.9341 14.7058L30.5219 16.4344L30.8333 16.5932L30.4316 18.1734L30.7461 18.4838L30.3892 20.2222H32.2499C32.2499 20.2222 32.4956 20.3264 32.4157 20.5135C32.0947 20.94 31.7109 21.3156 31.2775 21.6275C31.1964 21.579 31.1964 21.2097 31.1478 21.1367C31.1055 21.0914 30.697 21.5281 30.509 21.6318C30.3653 21.4752 30.2018 21.3381 30.0225 21.2238C29.7313 21.4079 29.4199 21.6318 29.4199 21.6318C29.2356 21.5281 28.9499 21.0981 28.9137 21.1466C28.856 21.214 28.856 21.587 28.781 21.6287C28.3442 21.3235 27.9609 20.9483 27.6464 20.5184C27.5623 20.3344 27.8086 20.2307 27.8086 20.2307" fill="white"/>
<path id="Path 52502" d="M33.3925 11.1292L33.3538 11.0544L33.2924 11.1034C33.2595 11.1245 33.2208 11.1346 33.1818 11.1323C33.0624 11.1221 32.9519 11.0649 32.8747 10.9734L32.8132 10.9121C32.729 10.8133 32.6537 10.7071 32.5884 10.5949L32.5337 10.5011L32.5018 10.5532L32.4754 10.5949C32.4487 10.6276 32.4144 10.6532 32.3755 10.6695C32.3367 10.6859 32.2944 10.6925 32.2524 10.6888C32.0337 10.6656 31.8271 10.5776 31.659 10.4361C31.3137 10.0476 30.9444 9.68111 30.5533 9.33867C30.4783 9.27733 30.4108 9.22519 30.3493 9.17673L30.2197 9.08901L30.2363 9.08289L30.3432 9.09576C30.8811 9.19751 31.4085 9.34821 31.9188 9.54599H31.9281C32.0203 9.56012 32.1136 9.56669 32.2069 9.56563C32.3368 9.57995 32.4682 9.56342 32.5904 9.51737C32.7127 9.47132 32.8223 9.39704 32.9103 9.30063C33.0762 9.41939 33.2733 9.48701 33.4773 9.49509L33.5043 9.48834L33.4809 9.59569L33.4515 9.69629H33.5491C33.7463 9.69629 34.2949 9.74843 34.4177 9.96803C34.4385 10.0061 34.4483 10.0492 34.446 10.0925C34.4437 10.1358 34.4294 10.1777 34.4048 10.2134L34.3698 10.2974L34.454 10.3238C34.7381 10.4077 34.9858 10.5844 35.1573 10.8256C35.1844 10.877 35.2005 10.9336 35.2044 10.9916C35.2083 11.0496 35.2 11.1077 35.1801 11.1623L35.1641 11.22L35.2065 11.2525C35.3432 11.3648 35.442 11.5164 35.4896 11.6867C35.5371 11.857 35.5312 12.0377 35.4725 12.2045L35.462 12.237L35.4848 12.2689C35.4848 12.2757 35.9713 12.9946 35.7022 13.3534C35.4952 13.2786 35.0535 13.0719 34.9602 12.81L34.9571 12.7934L34.9405 12.7805C34.6609 12.4949 34.4279 12.1672 34.25 11.8095L34.2236 11.761L34.1751 11.7702H34.1327C34.0031 11.7702 33.6695 11.7089 33.3956 11.1292" fill="white"/>
<path id="Path 52503" d="M33.9035 6.057L33.933 6.12816L33.9944 6.09566C34.0491 6.07027 34.1086 6.05707 34.1689 6.057C34.2532 6.06163 34.3343 6.09076 34.4023 6.14077C34.4703 6.19079 34.5221 6.25953 34.5516 6.33857L34.5718 6.38396L34.6197 6.38027H34.6517C34.8329 6.3698 35.0114 6.42785 35.1517 6.54284C35.1946 6.59091 35.2188 6.6527 35.2199 6.71704C35.0458 6.87498 34.8345 6.98638 34.6056 7.04091L34.5571 7.03417L34.5405 7.02803L34.5215 7.03417C34.3267 7.09172 34.1244 7.12004 33.9213 7.11821C33.8433 7.11821 33.7597 7.11208 33.6848 7.10533L33.6387 7.09857L33.616 7.1409C33.5545 7.24023 33.4678 7.32156 33.3647 7.37661C33.2615 7.43167 33.1456 7.45849 33.0288 7.45436L32.8862 7.44148L32.8187 7.43472L32.8058 7.50587C32.793 7.56864 32.76 7.62551 32.7118 7.66782L32.6436 7.7169L32.4845 7.78437L32.4231 7.80094C32.3437 7.81394 32.2632 7.81825 32.1829 7.81381H32.1018V7.83038L32.1079 7.90154V7.90766C32.1079 7.95305 32.0889 8.22172 31.5766 8.47077C31.2361 8.5461 30.9003 8.64136 30.571 8.75602C30.4346 8.80448 30.3087 8.85661 30.1957 8.90813L30.2049 8.89892L30.2117 8.88238L30.3732 8.69834C30.5908 8.47908 30.8201 8.27166 31.06 8.07696L31.0704 8.06408C31.1683 7.9688 31.2432 7.85264 31.2897 7.72432C31.3362 7.59599 31.353 7.45881 31.3389 7.32308C31.4515 7.27917 31.549 7.20371 31.6198 7.10578C31.6905 7.00784 31.7314 6.8916 31.7375 6.77101C31.8679 6.71881 31.9829 6.63439 32.0717 6.52565L32.092 6.52258C32.1276 6.52258 32.1755 6.53178 32.2148 6.62318L32.2634 6.73666L32.3316 6.63975C32.4845 6.42567 32.7861 6.08768 32.9379 6.08768C32.9569 6.08768 32.9956 6.08767 33.0226 6.19441L33.0515 6.30788L33.1356 6.23306C33.2964 6.07599 33.499 5.96826 33.7192 5.92267C33.7599 5.92085 33.8001 5.93257 33.8335 5.95599C33.8668 5.97941 33.8914 6.01321 33.9035 6.0521" fill="white"/>
<path id="Path 52504" d="M30.8501 6.31016L30.9379 6.39419L30.9637 6.26784C31.0282 5.95684 31.1646 5.60781 31.2776 5.60781L31.3237 5.65933L31.3986 5.75012L31.4441 5.64338C31.4957 5.51702 31.6898 5.15757 31.8593 5.15757L31.9564 5.20296L32.0178 5.2545L32.0602 5.19315C32.0915 5.15506 32.1304 5.12388 32.1744 5.10159C32.2184 5.07931 32.2665 5.06642 32.3158 5.06372C32.4066 5.06913 32.493 5.10452 32.5615 5.16432L32.5934 5.19375L32.6297 5.17106C32.7359 5.10679 32.8559 5.06893 32.9798 5.06065C33.0233 5.05676 33.067 5.06647 33.1047 5.08845C33.1425 5.11043 33.1725 5.14358 33.1905 5.18332C33.0996 5.37164 32.9245 5.6532 32.798 5.67897L32.7783 5.68204L32.7617 5.69492C32.5842 5.86222 32.3755 5.9931 32.1475 6.08013L32.1057 6.09301L32.1026 6.14455C32.0895 6.23554 32.0549 6.32213 32.0019 6.39726C31.9158 6.51859 31.7931 6.60928 31.6517 6.65612L31.629 6.66288L31.5835 6.67576L31.5928 6.70152L31.6026 6.74691L31.6057 6.79231C31.598 6.88682 31.5566 6.97542 31.4889 7.04195C31.4134 7.11565 31.3257 7.17583 31.2297 7.21985L31.1683 7.24868L31.1554 7.25482L31.1585 7.26156L31.2008 7.32597C31.2008 7.32904 31.3108 7.54005 30.9797 7.96392C30.9343 7.9995 30.6977 8.19394 30.4545 8.42336L30.2923 8.58897L30.1467 8.74418L30.1725 8.66013C30.3507 8.05837 30.6554 6.97019 30.7788 6.27398L30.8501 6.31016Z" fill="white"/>
<path id="Path 52505" d="M29.3799 5.75252H29.4321L29.4223 5.66849C29.3495 5.30444 29.381 4.92729 29.5132 4.58031L29.5648 4.55146L29.614 4.5711L29.6981 4.6165L29.7147 4.5159C29.7608 4.24027 29.8694 3.97883 30.0323 3.75159C30.1991 3.97692 30.3091 4.23909 30.3529 4.5159L30.3726 4.6165L30.4506 4.5711L30.5059 4.55146L30.5575 4.58031C30.683 4.92882 30.7134 5.30441 30.6454 5.66849L30.6386 5.75252H30.6939C30.6998 5.88739 30.6868 6.02242 30.6552 6.15369L30.6355 6.27024L30.5968 6.4647C30.4899 6.96033 30.3118 7.64613 30.114 8.34235L30.1011 8.38834L30.0397 8.59199L30.0305 8.61777L30.0274 8.59199L29.9659 8.38834L29.95 8.34235C29.7522 7.64613 29.5771 6.96033 29.4702 6.4647L29.4315 6.27024L29.4119 6.15369C29.3806 6.02239 29.3686 5.88726 29.3762 5.75252" fill="white"/>
<path id="Path 52506" d="M27.0919 5.06241C27.2149 5.07248 27.3343 5.10889 27.442 5.16915L27.4807 5.19246L27.5164 5.16301C27.5838 5.10554 27.6681 5.07153 27.7565 5.0661C27.8058 5.06872 27.854 5.08159 27.898 5.10387C27.942 5.12616 27.9809 5.15738 28.0121 5.19553L28.0576 5.25687L28.1128 5.20472L28.213 5.15932C28.3825 5.15932 28.5735 5.51572 28.6251 5.64454L28.6731 5.75188L28.7413 5.65803L28.8125 5.60957C28.9059 5.60957 29.0398 5.9494 29.1074 6.27021L29.1301 6.3929L29.2179 6.31193L29.2959 6.26961C29.4188 6.9689 29.7259 8.05646 29.8985 8.65269L29.9237 8.74286L29.7788 8.58399L29.6129 8.42204C29.3727 8.18956 29.1393 7.99266 29.0945 7.96261C28.7609 7.53874 28.8739 7.32834 28.8739 7.32834L28.9194 7.26026L28.9225 7.25045L28.9034 7.24431L28.842 7.21486C28.7475 7.17137 28.661 7.1125 28.5858 7.04066C28.5155 6.976 28.4734 6.88635 28.4685 6.79099V6.74562L28.4814 6.69653L28.4882 6.67384L28.4458 6.65728L28.4267 6.65114C28.2827 6.60598 28.1574 6.51508 28.0698 6.39228C28.018 6.31709 27.9847 6.2307 27.9728 6.14018L27.9673 6.0911L27.9279 6.07453C27.7002 5.98824 27.4916 5.85844 27.3137 5.69239L27.2934 5.67951L27.2768 5.67337C27.1478 5.65067 26.9752 5.36667 26.8849 5.17774C26.9033 5.13939 26.9332 5.10761 26.9703 5.08676C27.0074 5.06591 27.0501 5.057 27.0925 5.06119" fill="white"/>
<path id="Path 52507" d="M24.9123 6.54207C25.0533 6.4266 25.2328 6.36874 25.4148 6.38013H25.4474L25.4959 6.3832L25.5125 6.34087C25.5424 6.26111 25.5948 6.19172 25.6634 6.14109C25.7319 6.09047 25.8137 6.06079 25.8989 6.05564C25.9597 6.05582 26.0197 6.07032 26.0739 6.09796L26.1415 6.12679L26.1673 6.05564C26.1794 6.01675 26.204 5.98295 26.2373 5.95953C26.2707 5.93611 26.3109 5.92439 26.3516 5.92621C26.5973 5.92621 26.9321 6.23291 26.9419 6.2372L27.023 6.31449L27.0519 6.19856C27.0746 6.09122 27.117 6.09121 27.1367 6.09121C27.2853 6.09121 27.5869 6.43105 27.7393 6.64329L27.8105 6.74387L27.8597 6.62734C27.8947 6.53717 27.9438 6.52674 27.9825 6.52674L27.9991 6.52979C28.0882 6.63816 28.2031 6.72253 28.3333 6.77517C28.3398 6.89505 28.3809 7.01046 28.4517 7.10754C28.5224 7.20462 28.6197 7.27922 28.7319 7.32233C28.718 7.45835 28.7346 7.59574 28.7805 7.72456C28.8264 7.85338 28.9005 7.97036 28.9973 8.067L29.0071 8.07621C29.2478 8.27066 29.4767 8.47916 29.6927 8.70065L29.8579 8.88468L29.8647 8.90063L29.8678 8.91351C29.7484 8.85371 29.6253 8.80167 29.4992 8.7577C29.1691 8.64299 28.8325 8.54794 28.4911 8.47307C27.9758 8.22035 27.9561 7.95169 27.9561 7.90936V7.90322L27.9727 7.83514V7.81243L27.9205 7.8155L27.8849 7.81857C27.8056 7.82182 27.7263 7.81627 27.6483 7.802L27.5839 7.78912L27.4248 7.71797L27.3602 7.67258C27.3133 7.62729 27.2798 7.57 27.2632 7.50696L27.2503 7.43581L27.1858 7.445L27.0433 7.45483C26.9264 7.45846 26.8107 7.43134 26.7076 7.37622C26.6045 7.3211 26.5178 7.23989 26.456 7.14075L26.4302 7.09904L26.3885 7.10825C26.3104 7.115 26.2293 7.12113 26.1519 7.12113C25.9478 7.12319 25.7445 7.09381 25.5493 7.03403L25.5328 7.02727L25.5131 7.03403L25.4646 7.04015C25.235 6.98748 25.0233 6.87584 24.8503 6.71628C24.8488 6.65194 24.8718 6.58943 24.9148 6.54145" fill="white"/>
<path id="Path 52508" d="M23.419 9.78204C23.4872 9.49374 23.8754 9.26739 23.8791 9.26433L23.9178 9.24164V9.19869C23.9049 9.1287 23.906 9.05684 23.9211 8.98727C23.9361 8.91771 23.9649 8.85182 24.0056 8.79341C24.0463 8.735 24.0983 8.68524 24.1584 8.64699C24.2185 8.60873 24.2856 8.58275 24.3558 8.57055L24.4233 8.56074L24.4166 8.4859C24.4101 8.44972 24.4114 8.41258 24.4204 8.37693C24.4294 8.34129 24.4459 8.30798 24.4688 8.2792C24.5413 8.218 24.6256 8.17231 24.7164 8.14498C24.8073 8.11765 24.9028 8.10927 24.9971 8.12032C25.1 8.12082 25.2027 8.12943 25.3042 8.14608L25.4105 8.16632L25.3816 8.05284C25.3722 8.02841 25.3679 8.00231 25.3689 7.97614C25.37 7.94998 25.3764 7.92431 25.3878 7.90072C25.4148 7.85901 25.4824 7.83938 25.5801 7.83938C25.8422 7.86316 26.099 7.92775 26.3411 8.03077L26.4517 8.07614L26.4388 7.95347C26.4322 7.92595 26.4314 7.89736 26.4364 7.8695C26.4413 7.84164 26.452 7.8151 26.4677 7.79153C26.5016 7.7619 26.5414 7.73967 26.5845 7.72625C26.6275 7.71284 26.6729 7.70853 26.7177 7.71362C26.9306 7.72777 27.1404 7.77239 27.3406 7.84612L27.3701 7.859C27.5062 7.93809 27.6624 7.97622 27.8197 7.96881C27.8425 8.10866 27.9499 8.3804 28.4426 8.61657L28.4629 8.61964C28.4629 8.61964 28.7215 8.68098 29.0329 8.76563C29.2172 8.82022 29.423 8.88462 29.6042 8.95639L29.6134 8.96253L29.4292 8.99811C28.9832 9.10504 28.5445 9.24027 28.1158 9.40296C28.0322 9.41687 27.9475 9.42343 27.8627 9.42258C27.3504 9.42258 27.2484 9.17723 27.2435 9.17294L27.2177 9.08888L27.1465 9.14104C26.9929 9.26232 26.8062 9.33437 26.6108 9.34774H26.5948L26.5236 9.33855L26.4523 9.31891C26.4044 9.30189 26.3611 9.27396 26.3258 9.23733L26.2803 9.18213L26.2281 9.22814C26.0673 9.38438 25.8535 9.47457 25.6292 9.48086C25.5173 9.4817 25.4069 9.45495 25.3079 9.40296L25.2692 9.38026L25.2348 9.41216C24.9711 9.62417 24.671 9.78651 24.349 9.89123L24.33 9.89797L24.3134 9.91085C24.1587 10.0245 23.9656 10.0734 23.7753 10.047C23.6669 10.0464 23.5586 10.0398 23.451 10.0274C23.4108 9.9522 23.3995 9.86499 23.419 9.78204Z" fill="white"/>
<path id="Path 52509" d="M34.6983 22.8753C33.4035 23.7522 32.1608 24.7033 30.9764 25.724C31.5906 26.2908 32.2178 26.903 32.837 27.5642L32.8984 27.5029H33.0213L33.0471 27.5869L33.1374 27.4575C33.1113 27.3802 33.109 27.2968 33.1309 27.2181C33.1528 27.1395 33.1979 27.0692 33.2603 27.0165C33.2943 26.9784 33.3361 26.9479 33.3828 26.9271C33.4295 26.9062 33.4801 26.8955 33.5313 26.8955C33.5824 26.8956 33.633 26.9064 33.6797 26.9273C33.7263 26.9483 33.768 26.9788 33.8021 27.0169C33.8361 27.0551 33.8616 27.1 33.8771 27.1487C33.8925 27.1974 33.8975 27.2488 33.8916 27.2996C33.8857 27.3503 33.8692 27.3992 33.8431 27.4432C33.817 27.4871 33.7818 27.525 33.74 27.5544C33.6915 27.6 33.6325 27.6329 33.5683 27.6505C33.504 27.668 33.4364 27.6696 33.3714 27.655C33.3469 27.6941 33.3311 27.738 33.325 27.7837C33.319 27.8294 33.3229 27.8759 33.3364 27.92C33.5041 28.1398 33.7219 28.3164 33.9717 28.4352C34.2215 28.5539 34.4961 28.6114 34.7726 28.6027C34.9954 28.5979 35.2145 28.5445 35.4144 28.4461C35.6144 28.3478 35.7903 28.2069 35.9299 28.0335C35.9877 27.966 36.0595 27.9119 36.1404 27.8749C36.2213 27.838 36.3093 27.8192 36.3982 27.8198C36.4871 27.8204 36.5749 27.8403 36.6553 27.8783C36.7357 27.9163 36.8068 27.9713 36.8637 28.0396C37.5504 29.0333 36.1437 29.9363 35.1516 29.9565C34.1827 29.9455 33.2543 29.567 32.5545 28.8978C32.4506 28.7751 32.3763 28.7297 32.2793 28.7751C32.2301 28.7978 32.1976 28.8824 32.1785 28.9634C32.1856 29.0304 32.1764 29.0981 32.1516 29.1607C32.1267 29.2233 32.0871 29.2789 32.036 29.3229C32.0017 29.3609 31.9598 29.3913 31.913 29.412C31.8661 29.4327 31.8154 29.4432 31.7642 29.443C31.713 29.4427 31.6624 29.4316 31.6157 29.4104C31.5691 29.3893 31.5275 29.3585 31.4936 29.3201C31.4598 29.2817 31.4344 29.2366 31.4193 29.1877C31.4041 29.1388 31.3995 29.0873 31.4057 29.0365C31.4119 28.9858 31.4288 28.9369 31.4553 28.8931C31.4817 28.8493 31.5172 28.8116 31.5593 28.7825C31.6432 28.7068 31.7535 28.6671 31.8665 28.672L31.9015 28.6628L31.8628 28.6365V28.5138L31.9991 28.3776C31.7497 28.1286 31.0267 27.4256 30.0334 26.5374C29.0414 27.4244 28.3184 28.1273 28.0677 28.3776L28.2072 28.5138V28.6365L28.1722 28.6628L28.2041 28.672C28.317 28.6671 28.4274 28.7068 28.5112 28.7825C28.5533 28.8116 28.5888 28.8493 28.6153 28.8931C28.6418 28.9369 28.6587 28.9858 28.6649 29.0365C28.6711 29.0873 28.6664 29.1388 28.6513 29.1877C28.6361 29.2366 28.6108 29.2817 28.5769 29.3201C28.5431 29.3585 28.5014 29.3893 28.4548 29.4104C28.4082 29.4316 28.3576 29.4427 28.3064 29.443C28.2551 29.4432 28.2044 29.4327 28.1576 29.412C28.1107 29.3913 28.0688 29.3609 28.0346 29.3229C27.9819 29.28 27.9409 29.2247 27.9154 29.1618C27.8898 29.099 27.8805 29.0308 27.8884 28.9634C27.8724 28.8824 27.8368 28.7978 27.7846 28.7751C27.6943 28.7266 27.6162 28.7751 27.5155 28.8978C26.8168 29.5665 25.8897 29.945 24.922 29.9565C23.9232 29.9363 22.5164 29.0364 23.2094 28.0396C23.2662 27.9713 23.3373 27.9161 23.4177 27.8781C23.4981 27.84 23.5858 27.82 23.6748 27.8195C23.7638 27.8189 23.8518 27.8377 23.9327 27.8747C24.0136 27.9117 24.0854 27.9659 24.1431 28.0335C24.2826 28.2072 24.4586 28.3483 24.6587 28.4467C24.8587 28.545 25.078 28.5983 25.301 28.6027C25.5765 28.611 25.85 28.5533 26.0987 28.4346C26.3473 28.3158 26.5639 28.1394 26.7304 27.92C26.7449 27.8762 26.7496 27.8297 26.7441 27.7839C26.7385 27.7381 26.723 27.6941 26.6985 27.655C26.6335 27.6693 26.566 27.6677 26.5018 27.6502C26.4376 27.6326 26.3786 27.5998 26.3299 27.5544C26.2884 27.5251 26.2536 27.4874 26.2276 27.4437C26.2017 27.4001 26.1853 27.3515 26.1794 27.301C26.1736 27.2506 26.1784 27.1995 26.1937 27.1511C26.2089 27.1027 26.2342 27.058 26.2679 27.02C26.3015 26.982 26.3429 26.9515 26.3891 26.9305C26.4354 26.9095 26.4856 26.8985 26.5364 26.8981C26.5873 26.8978 26.6376 26.9082 26.6841 26.9286C26.7307 26.9489 26.7724 26.9789 26.8066 27.0165C26.8704 27.0681 26.9165 27.1384 26.9385 27.2174C26.9605 27.2964 26.9574 27.3803 26.9295 27.4575L27.0234 27.5869L27.0462 27.5029H27.1727L27.2341 27.5642C27.8564 26.9005 28.4817 26.2889 29.0979 25.724C27.9133 24.7035 26.6706 23.7523 25.3759 22.8753C21.2461 20.1334 18.1329 20.3984 18.1329 20.3984C20.4709 19.528 23.4078 20.3757 24.7438 21.1271C26.6226 22.2139 28.395 23.4745 30.0377 24.8922C31.6824 23.475 33.4562 22.2144 35.3359 21.1271C36.6714 20.3757 39.6089 19.528 41.9431 20.3984C41.9431 20.3984 38.8306 20.1334 34.7032 22.8753" fill="white"/>
<path id="Path 52510" d="M3.45273 47.673C3.43471 47.3209 3.06615 46.9253 2.34703 46.4861C2.06881 46.8207 1.80958 47.1707 1.57057 47.5344C1.52421 47.6302 1.49866 47.7347 1.49562 47.8411C1.49562 48.1686 1.6879 48.3318 2.07612 48.3318C2.46286 48.3244 2.84421 48.24 3.1978 48.0834C3.27469 48.0454 3.33926 47.9865 3.38404 47.9135C3.42883 47.8404 3.45201 47.7562 3.45089 47.6705M3.87413 43.5675L3.39745 44.3606L2.27515 43.6858L1.93669 44.3226L0.74805 43.6294L1.23947 42.7933L2.33289 43.4865L2.71374 42.8639L3.87413 43.5675ZM4.21996 47.0639C4.1624 47.4861 4.02592 47.8937 3.81761 48.2656C3.65845 48.4897 3.46769 48.6897 3.25124 48.8593C2.87873 49.1457 2.43381 49.3231 1.96617 49.3715C1.67759 49.4115 1.38355 49.3734 1.11477 49.2611C0.97893 49.2136 0.861621 49.1244 0.779638 49.0063C0.697654 48.8882 0.655212 48.7472 0.658367 48.6035C0.658367 48.1443 1.02284 47.4379 1.75179 46.4842L2.68733 45.2727C2.86269 45.4629 3.05722 45.6346 3.26783 45.7849C3.46903 45.924 3.6628 46.0734 3.84834 46.2327C3.96727 46.337 4.06227 46.4657 4.12683 46.61C4.1914 46.7543 4.22401 46.9108 4.22244 47.0688" fill="#00524D"/>
<path id="Path 52511" d="M8.80591 48.8609C8.76226 49.7008 8.45998 50.5067 7.94039 51.1685C7.77876 51.4776 7.54363 51.7423 7.25562 51.9394C6.96761 52.1365 6.63555 52.26 6.28859 52.2991C5.79038 52.2478 5.30295 52.1208 4.84318 51.9224C4.11648 51.6452 3.74976 51.4176 3.74976 51.2366L3.83513 51.1544C4.05224 51.2224 4.26517 51.3031 4.47277 51.3961C4.77327 51.5343 5.09661 51.6162 5.42674 51.6378C6.16733 51.5257 6.84109 51.1464 7.32058 50.5717C8.05772 49.8606 8.42628 49.2441 8.42628 48.7223C8.42628 48.3456 7.97766 47.8324 7.0804 47.1826C7.13015 46.9618 7.21922 46.5533 7.34761 45.9595C7.74266 46.2439 8.08485 46.5952 8.35872 46.9974C8.67725 47.5654 8.83244 48.2103 8.80715 48.8609" fill="#00524D"/>
<path id="Path 52512" d="M12.6022 49.3719H10.6512C10.5193 46.9395 10.3496 44.6234 10.142 42.4238C10.2845 42.2318 10.505 41.9367 10.8041 41.5312L11.1285 45.3503C11.1818 46.2736 11.2913 47.1928 11.4565 48.1027L11.5456 48.199C11.6198 48.2604 11.7057 48.3062 11.798 48.3336C11.8904 48.361 11.9874 48.3694 12.0831 48.3585H12.6028L12.6022 49.3719Z" fill="#00524D"/>
<path id="Rectangle 11614" d="M14.2233 48.3594H12.2509V49.3727H14.2233V48.3594Z" fill="#00524D"/>
<path id="Rectangle 11615" d="M15.943 48.3594H13.9631V49.3727H15.943V48.3594Z" fill="#00524D"/>
<path id="Path 52513" d="M20.8438 51.3417L20.3554 52.1557L19.2497 51.4662L19.7411 50.6841L20.8438 51.3417ZM23.9913 49.3721H21.2461C21.0108 49.3721 20.8437 49.188 20.7473 48.82C20.7154 48.7028 20.6724 48.4286 20.6152 47.9986C20.427 48.1746 20.2211 48.3308 20.001 48.4648C19.7794 48.597 19.5698 48.748 19.3744 48.9163C19.2192 49.0669 19.0352 49.1849 18.8335 49.2631C18.6317 49.3413 18.4162 49.3781 18.1999 49.3714H15.7108V48.3581H18.2294C19.1531 48.2793 20.0227 47.89 20.6963 47.254C20.305 47.1687 19.7245 47.0472 18.9518 46.8859L18.3989 46.7681C17.9782 46.8276 17.5842 47.0094 17.2662 47.2908L17.2521 47.2521C17.2604 47.0984 17.2979 46.9477 17.3626 46.808C17.6829 46.0543 18.1411 45.6773 18.7374 45.6769C19.2894 45.7174 19.8338 45.8287 20.3572 46.0081C21.144 46.2733 21.9611 46.4382 22.7892 46.4988H23.1277C23.452 46.4878 23.5693 46.4847 23.4809 46.4847C23.3986 46.7197 23.2524 47.0681 23.0466 47.5331C22.9569 47.5263 22.8396 47.5196 22.6866 47.5196C22.1263 47.493 21.5669 47.59 21.0483 47.8036C21.0459 47.9004 21.0682 47.9963 21.1131 48.0821C21.158 48.168 21.2241 48.241 21.3051 48.2943L21.4157 48.3556H23.9957L23.9913 49.3721Z" fill="#00524D"/>
<path id="Path 52514" d="M27.2177 43.9568L26.733 44.7543L25.6009 44.0795L25.2483 44.7021L24.0873 44.0231L24.572 43.1876L25.6691 43.8808L26.0426 43.2588L27.2177 43.9568ZM27.6127 49.372H27.0322C26.8848 49.3677 26.7421 49.3195 26.6224 49.2334C26.5474 49.1616 26.4891 49.0743 26.4517 48.9776C26.4221 48.8986 26.3774 48.8261 26.3202 48.7641C26.2815 48.7641 26.206 48.8635 26.085 49.0708C25.9639 49.2781 25.8749 49.3726 25.8147 49.3726H23.7599V48.3593H26.4093L26.4382 47.0263C26.6624 46.7196 26.9683 46.3516 27.3596 45.9222L27.3737 46.0394C27.3507 46.6798 27.2744 47.3173 27.1458 47.9452C27.1256 48.0439 27.1112 48.1436 27.1028 48.2439C27.1139 48.3218 27.1814 48.3611 27.3061 48.3611H27.6133L27.6127 49.372Z" fill="#00524D"/>
<path id="Path 52515" d="M30.8277 42.9477L30.2472 44.093L30.101 44.0537L30.4395 47.4459C30.4252 47.8261 30.3787 48.2045 30.3007 48.577C30.2012 49.1064 30.101 49.3744 30.0052 49.3744H27.3423V48.3574H29.8455C29.8737 48.3574 29.8879 48.2789 29.8879 48.1157C29.784 46.5902 29.5854 45.0725 29.2932 43.5716L29.222 43.5434C29.1669 43.5153 29.1201 43.4733 29.0864 43.4215C29.0526 43.3697 29.0331 43.31 29.0297 43.2483C29.0305 43.1621 29.0538 43.0775 29.0973 43.0029L29.6237 42.0828C29.7239 41.9049 29.7982 41.8332 29.8449 41.8761L29.9339 41.9718L29.8842 42.143L29.8314 42.3098C29.8347 42.3445 29.8474 42.3776 29.868 42.4057C29.8887 42.4337 29.9165 42.4557 29.9487 42.4693C30.2515 42.6398 30.5433 42.7968 30.8283 42.9459" fill="#00524D"/>
<path id="Path 52516" d="M33.3864 48.0249C33.3252 48.6276 33.1652 49.2161 32.9128 49.767C32.7596 47.9787 32.5471 45.8181 32.2751 43.2851C32.3819 42.6481 32.6422 42.0466 33.0338 41.5326C33.0762 41.6001 33.148 42.6913 33.2475 44.8002L33.3864 48.0249Z" fill="#00524D"/>
<path id="Path 52517" d="M40.6134 47.673C40.5919 47.3209 40.2252 46.9265 39.5077 46.4861C39.2308 46.8218 38.9716 47.1717 38.7312 47.5344C38.6849 47.6302 38.6593 47.7347 38.6563 47.8411C38.6563 48.1686 38.8485 48.3318 39.2368 48.3318C39.6236 48.3249 40.005 48.2404 40.3584 48.0834C40.4352 48.0449 40.4998 47.986 40.5451 47.9131C40.5905 47.8403 40.6147 47.7563 40.6152 47.6705M41.0348 43.5675L40.5575 44.3606L39.4364 43.6858L39.098 44.3226L37.9087 43.6294L38.4001 42.7933L39.4935 43.4865L39.8744 42.8639L41.0348 43.5675ZM41.3806 47.0639C41.3248 47.486 41.1896 47.8937 40.982 48.2656C40.8208 48.489 40.6291 48.6888 40.4125 48.8593C40.04 49.1458 39.5951 49.3232 39.1274 49.3715C38.8388 49.4114 38.5448 49.3733 38.276 49.2611C38.1403 49.2135 38.0231 49.1243 37.9413 49.0062C37.8594 48.8881 37.817 48.7471 37.8202 48.6035C37.8202 48.1443 38.1847 47.4379 38.9137 46.4842L39.8443 45.2727C40.0206 45.462 40.215 45.6336 40.4248 45.7849C40.626 45.924 40.8198 46.0734 41.0053 46.2327C41.1242 46.337 41.2192 46.4657 41.2838 46.61C41.3484 46.7543 41.381 46.9108 41.3794 47.0688" fill="#00524D"/>
<path id="Path 52518" d="M45.9638 48.8609C45.9201 49.7008 45.6178 50.5067 45.0982 51.1685C44.9366 51.4777 44.7013 51.7424 44.4132 51.9396C44.1251 52.1367 43.7929 52.2601 43.4458 52.2991C42.9476 52.2478 42.4602 52.1208 42.0004 51.9224C41.2737 51.6452 40.907 51.4176 40.907 51.2366L40.9924 51.1544C41.2095 51.2224 41.4224 51.3031 41.63 51.3961C41.9294 51.5338 42.2514 51.6157 42.5803 51.6378C43.3216 51.5272 43.996 51.1476 44.4747 50.5717C45.2156 49.8601 45.5804 49.2455 45.5804 48.7223C45.5804 48.3456 45.13 47.8324 44.229 47.1826C44.2818 46.9618 44.3709 46.5533 44.4993 45.9595C44.8935 46.2449 45.2355 46.596 45.5104 46.9974C45.8289 47.5654 45.9841 48.2103 45.9588 48.8609" fill="#00524D"/>
<path id="Path 52519" d="M48.5977 48.0249C48.5347 48.6277 48.3735 49.2161 48.1204 49.767C47.9672 47.9787 47.7547 45.8181 47.4828 43.2851C47.5897 42.6475 47.8515 42.0458 48.2451 41.5326C48.2875 41.6001 48.3557 42.6913 48.4589 44.8002L48.5977 48.0249Z" fill="#00524D"/>
<path id="Path 52520" d="M52.5539 43.8122L52.0698 44.6329L50.9199 43.9435L51.4181 43.1332L52.5539 43.8122ZM53.8254 48.8612C53.7818 49.701 53.4795 50.507 52.9599 51.1688C52.7982 51.478 52.563 51.7427 52.2749 51.9399C51.9867 52.137 51.6546 52.2604 51.3075 52.2993C50.8093 52.2481 50.3219 52.1211 49.8621 51.9227C49.1354 51.6454 48.7723 51.4179 48.7723 51.2369L48.8547 51.1547C49.0727 51.2229 49.2866 51.3036 49.4954 51.3964C49.7947 51.5348 50.1171 51.6168 50.4463 51.6381C51.1869 51.5258 51.8607 51.1463 52.3401 50.5714C53.0772 49.8602 53.4458 49.244 53.4458 48.7226C53.4458 48.3459 52.9972 47.8327 52.0999 47.1829C52.1497 46.9621 52.2387 46.5535 52.3671 45.9598C52.7622 46.2442 53.1044 46.5955 53.3782 46.9976C53.6968 47.5657 53.8519 48.2106 53.8267 48.8612" fill="#00524D"/>
<path id="Path 52521" d="M57.9317 47.8305C57.9237 47.5845 57.8527 47.3445 57.7253 47.1337C57.6792 47.0226 57.6052 46.9253 57.5103 46.8511C57.4155 46.777 57.3032 46.7285 57.1841 46.7105C57.0822 46.7211 56.9836 46.7528 56.8947 46.8036C56.8057 46.8544 56.7284 46.9232 56.6675 47.0055C56.506 47.1369 56.4015 47.3254 56.3757 47.5318C56.3862 47.695 56.5115 47.8232 56.7498 47.9121C56.9272 47.9849 57.1171 48.0224 57.3088 48.0225C57.4204 48.0378 57.5339 48.0286 57.6415 47.9954C57.7491 47.9622 57.8482 47.906 57.9317 47.8305ZM58.6725 47.9532C58.6791 48.8734 58.4758 49.783 58.0779 50.613C57.8745 51.0339 57.6011 51.4174 57.2695 51.7472C57.1224 51.9234 56.9384 52.0653 56.7305 52.163C56.5226 52.2607 56.2959 52.3118 56.0661 52.3127C55.5895 52.2626 55.1163 52.1844 54.649 52.0784C53.8836 51.9109 53.499 51.7656 53.499 51.6337C53.499 51.5662 53.5488 51.5306 53.6452 51.5306C53.8704 51.5448 54.0935 51.5831 54.3105 51.6447C54.5304 51.7093 54.7573 51.7474 54.9862 51.7582C55.1362 51.7612 55.2856 51.7383 55.4279 51.6907C56.1295 51.4141 56.766 50.9951 57.2971 50.4602C57.5656 50.2495 57.7888 49.9869 57.9533 49.6881C58.1179 49.3893 58.2204 49.0605 58.2548 48.7212C58.2623 48.5105 58.2345 48.3001 58.1725 48.0986C58.0469 48.4671 57.811 48.7883 57.4968 49.0187C57.2742 49.1121 57.03 49.1417 56.7916 49.104C56.6529 49.0883 56.521 49.0353 56.41 48.9508C56.299 48.8662 56.2131 48.7531 56.1613 48.6237C56.0423 48.3712 55.9794 48.0961 55.977 47.817C56.0337 47.3214 56.2176 46.8487 56.5109 46.4448C56.8991 45.8222 57.2412 45.5094 57.533 45.5094C57.7364 45.5094 57.9741 45.7689 58.2419 46.2915C58.5209 46.8021 58.6687 47.374 58.6719 47.9557" fill="#00524D"/>
<path id="Path 52522" d="M1.52509 54.3612L2.76286 57.616L4.0111 54.3612H4.83976V58.6814H4.12104V55.7003L2.97665 58.6814H2.50609L1.41329 55.7003V58.6814H0.69397V54.3612H1.52509Z" fill="#00524D"/>
<path id="Path 52523" d="M5.41614 58.6822H6.12502V55.563H5.41614V58.6822ZM5.41614 54.9772H6.12502V54.3595H5.41614V54.9772Z" fill="#00524D"/>
<path id="Path 52524" d="M6.63184 55.5623H7.35117V55.8168C7.48469 55.7149 7.63527 55.6374 7.79591 55.588C7.95193 55.5368 8.11511 55.5107 8.27935 55.5107C8.42934 55.5087 8.57861 55.5317 8.72101 55.5788C8.84224 55.6172 8.95343 55.6819 9.04658 55.7684C9.13764 55.8502 9.20744 55.953 9.24993 56.0677C9.29976 56.1938 9.32398 56.3285 9.32118 56.464V58.6821H8.61228V56.5186C8.62654 56.3765 8.58735 56.2341 8.50234 56.1192C8.46193 56.0798 8.41377 56.0492 8.36089 56.0294C8.30802 56.0095 8.2516 56.0009 8.19519 56.0039C8.08213 56.0032 7.97017 56.0262 7.86655 56.0714C7.7676 56.1173 7.67706 56.1795 7.59872 56.2554C7.52228 56.3301 7.46096 56.4189 7.41812 56.5167C7.37736 56.6124 7.35648 56.7152 7.3567 56.8191V58.6827H6.63737L6.63184 55.5623Z" fill="#00524D"/>
<path id="Path 52525" d="M9.87842 58.6822H10.591V55.563H9.87842V58.6822ZM9.87842 54.9772H10.591V54.3595H9.87842V54.9772Z" fill="#00524D"/>
<path id="Path 52526" d="M11.8244 57.6509C11.8249 57.7452 11.8413 57.8387 11.8729 57.9275C11.8998 57.9988 11.9417 58.0634 11.9958 58.1171L12.1696 58.2208C12.2403 58.243 12.3142 58.2538 12.3883 58.2526C12.4588 58.2523 12.5291 58.2458 12.5984 58.233C12.6681 58.2213 12.7355 58.1985 12.798 58.1655L12.9497 58.0361C12.9902 57.974 13.0104 57.901 13.0075 57.8269C13.0103 57.7584 12.9912 57.6907 12.9528 57.6337L12.8011 57.4957C12.7329 57.4537 12.6604 57.4191 12.5849 57.3926C12.5013 57.3601 12.4178 57.3282 12.3269 57.2994C12.1917 57.251 12.059 57.2025 11.9239 57.1516C11.7984 57.1034 11.6785 57.0416 11.5664 56.9676C11.4639 56.8987 11.3751 56.8113 11.3047 56.7099C11.2353 56.6 11.2006 56.4718 11.2052 56.3419C11.2017 56.2125 11.2351 56.0849 11.3016 55.9738C11.3676 55.868 11.4571 55.7787 11.5633 55.7131C11.6805 55.6414 11.8091 55.5902 11.9435 55.5616C12.0891 55.5261 12.2385 55.5088 12.3883 55.5101C12.5523 55.5077 12.716 55.5261 12.8754 55.5647C13.0149 55.595 13.1473 55.6516 13.2655 55.7315C13.3762 55.8048 13.4679 55.9032 13.5333 56.0186C13.6011 56.1467 13.6375 56.289 13.6396 56.4339H13.588L13.5075 56.4302H12.927C12.919 56.358 12.8971 56.288 12.8625 56.2241L12.7433 56.0922L12.5818 56.0211L12.3883 56.0014C12.2661 55.9924 12.1445 56.0252 12.0437 56.0947C12.0054 56.1242 11.9747 56.1623 11.954 56.2059C11.9333 56.2495 11.9232 56.2973 11.9245 56.3456L11.9792 56.5228L12.1309 56.6584C12.2011 56.7022 12.2756 56.7388 12.3533 56.7676C12.4368 56.7995 12.521 56.8289 12.6113 56.8608C12.744 56.9099 12.876 56.9614 13.0081 57.0123C13.1344 57.0614 13.2554 57.1231 13.3693 57.1964C13.471 57.261 13.5596 57.3443 13.6304 57.4417C13.6973 57.538 13.7323 57.6527 13.7305 57.7699C13.7363 57.9189 13.7016 58.0666 13.6301 58.1975C13.5586 58.3284 13.453 58.4375 13.3244 58.5134C13.1937 58.5948 13.0496 58.6525 12.8988 58.6839C12.7313 58.7206 12.5603 58.7389 12.3889 58.7385C12.2227 58.7394 12.0572 58.7167 11.8975 58.671C11.7508 58.6271 11.6133 58.5573 11.4914 58.4649C11.3745 58.3725 11.2789 58.2559 11.2113 58.1232C11.1377 57.9738 11.0981 57.81 11.0952 57.6435L11.8244 57.6509Z" fill="#00524D"/>
<path id="Path 52527" d="M15.153 54.6665V55.5615H15.6205V56.0473H15.153V57.9532C15.1447 58.0353 15.1639 58.118 15.2077 58.1881L15.3526 58.2525L15.462 58.2396C15.5136 58.2335 15.5916 58.2206 15.6948 58.2016V58.6714C15.6076 58.6941 15.5173 58.7101 15.427 58.7261C15.3456 58.7384 15.2635 58.7449 15.1813 58.7457C15.0856 58.7456 14.9902 58.7337 14.8975 58.7101C14.8112 58.6904 14.7299 58.6532 14.6585 58.6009C14.5892 58.5492 14.533 58.482 14.4945 58.4046C14.4517 58.3118 14.4307 58.2105 14.4331 58.1083V56.0479H13.9625V55.5621H14.4331V54.6665H15.153Z" fill="#00524D"/>
<path id="Path 52528" d="M16.0961 55.5629H16.7349L16.7737 55.8463C16.8542 55.7433 16.9565 55.6595 17.0734 55.6009C17.1854 55.5443 17.3091 55.5145 17.4346 55.5138L17.5894 55.5334L17.7737 55.5849V56.1677C17.66 56.1183 17.5411 56.0817 17.4193 56.0585C17.3294 56.0567 17.2406 56.0778 17.1613 56.1198C17.0848 56.1602 17.0186 56.2175 16.9678 56.2873C16.913 56.3594 16.8726 56.4412 16.8486 56.5284C16.8199 56.6224 16.8056 56.7202 16.8062 56.8185V58.6857H16.0936L16.0961 55.5629Z" fill="#00524D"/>
<path id="Path 52529" d="M19.347 57.6951L20.0786 55.5641H20.8157L19.4919 59.3175C19.4538 59.4311 19.3994 59.5386 19.3304 59.6365C19.2724 59.7163 19.2029 59.787 19.124 59.8463C19.0561 59.8988 18.9796 59.9391 18.8979 59.9653C18.8242 59.9896 18.747 60.0016 18.6694 60.0009C18.6003 60.0015 18.5312 59.996 18.463 59.9843C18.3766 59.9698 18.2922 59.9449 18.2118 59.9101V59.3868L18.3217 59.4292L18.4378 59.4746L18.5404 59.5065L18.608 59.5157L18.6897 59.474L18.7603 59.3611L18.8218 59.2231L18.8672 59.0943L18.9993 58.6722L17.8512 55.5653H18.6086L19.347 57.6951Z" fill="#00524D"/>
<path id="Path 52530" d="M23.0627 57.1257C23.0604 57.2723 23.0788 57.4186 23.1174 57.56C23.1486 57.6865 23.2022 57.8064 23.2759 57.914C23.3384 58.0112 23.4225 58.0929 23.5216 58.1526C23.6214 58.2103 23.7349 58.2401 23.8503 58.2391C23.9657 58.2409 24.0794 58.211 24.1789 58.1526C24.2805 58.0941 24.3666 58.0123 24.4301 57.914C24.5048 57.8067 24.5593 57.6868 24.5911 57.56C24.6323 57.4189 24.653 57.2727 24.6525 57.1257C24.6522 56.9804 24.6315 56.8359 24.5911 56.6963C24.56 56.5682 24.5055 56.447 24.4301 56.3387C24.3665 56.2398 24.2805 56.1572 24.1789 56.0977C24.0798 56.0379 23.966 56.0067 23.8503 56.0075C23.7346 56.0074 23.621 56.0386 23.5216 56.0977C23.4224 56.1583 23.3384 56.2408 23.2759 56.3387C23.2016 56.4472 23.1479 56.5685 23.1174 56.6963C23.0795 56.8363 23.0611 56.9808 23.0627 57.1257ZM22.3539 57.1288C22.3519 56.9155 22.3857 56.7034 22.454 56.5013C22.5154 56.3119 22.6142 56.1367 22.7445 55.986C22.8736 55.8391 23.0328 55.7218 23.2114 55.6419C23.4158 55.5569 23.635 55.5132 23.8564 55.5132C24.0778 55.5132 24.297 55.5569 24.5014 55.6419C24.6834 55.7208 24.846 55.8382 24.9781 55.986C25.108 56.1375 25.2077 56.3124 25.2717 56.5013C25.405 56.9093 25.405 57.349 25.2717 57.7569C25.2091 57.9454 25.1093 58.1193 24.9781 58.2685C24.8462 58.4167 24.6835 58.5343 24.5014 58.6133C24.297 58.6982 24.0778 58.742 23.8564 58.742C23.635 58.742 23.4158 58.6982 23.2114 58.6133C23.0327 58.5334 22.8734 58.4157 22.7445 58.2685C22.613 58.1201 22.514 57.9459 22.454 57.7569C22.3855 57.5549 22.3517 57.3427 22.3539 57.1294" fill="#00524D"/>
<path id="Path 52531" d="M26.1968 55.5609V54.869C26.1956 54.7826 26.2132 54.697 26.2484 54.6181C26.2837 54.5394 26.3367 54.47 26.4032 54.415C26.4749 54.3542 26.5586 54.3093 26.6489 54.2831C26.7538 54.2482 26.864 54.2318 26.9745 54.2347C27.058 54.236 27.1409 54.25 27.2202 54.2764C27.3145 54.3054 27.4045 54.3467 27.488 54.3991V54.8726C27.3842 54.834 27.3037 54.7984 27.2331 54.772L27.1268 54.7334L26.9782 54.7849C26.9554 54.8067 26.9381 54.8334 26.9274 54.863C26.9167 54.8926 26.9131 54.9242 26.9167 54.9554V55.5609H27.4456V56.0602H26.9167V58.6807H26.1974V56.0602H25.6783V55.5609H26.1968Z" fill="#00524D"/>
<path id="Path 52532" d="M29.8984 56.4643C29.8935 56.74 29.9314 57.0148 30.0109 57.2789C30.0743 57.4877 30.176 57.683 30.3106 57.8549C30.4227 57.9982 30.5663 58.1138 30.7302 58.1929C30.8779 58.265 31.04 58.3025 31.2044 58.3027C31.3597 58.305 31.5133 58.2707 31.6528 58.2027C31.7844 58.1384 31.9027 58.0498 32.0011 57.9414C32.1043 57.8299 32.1891 57.7028 32.2524 57.5648C32.3165 57.4275 32.3651 57.2834 32.3973 57.1354H33.1197C33.0768 57.3615 33.0019 57.5805 32.8974 57.7856C32.7973 57.9844 32.6632 58.1641 32.5012 58.3168C32.3359 58.4701 32.1434 58.5912 31.9336 58.6738C31.7015 58.7644 31.4541 58.8094 31.205 58.8063C30.9186 58.8101 30.6345 58.7552 30.3702 58.645C30.1246 58.5428 29.906 58.3853 29.7314 58.1849C29.5454 57.9705 29.4061 57.7199 29.3222 57.4488C29.2238 57.1288 29.1759 56.7954 29.1803 56.4606C29.1797 56.2733 29.2003 56.0864 29.2418 55.9037C29.2832 55.7227 29.3437 55.5467 29.4224 55.3786C29.499 55.2154 29.5964 55.0628 29.7123 54.9247C29.8278 54.7872 29.9613 54.6659 30.1091 54.564C30.2637 54.4613 30.432 54.3809 30.6092 54.3254C30.8017 54.269 31.0013 54.2409 31.202 54.2419C31.4491 54.2383 31.6952 54.2742 31.9311 54.3481C32.3305 54.4763 32.6704 54.7437 32.8888 55.1013C32.9969 55.28 33.0796 55.4728 33.1345 55.6743H32.3973C32.3137 55.4005 32.154 55.1561 31.9366 54.9695C31.7244 54.8111 31.4642 54.7303 31.1995 54.7406C31.0139 54.7383 30.8311 54.7862 30.6706 54.8793C30.5095 54.9749 30.3704 55.1032 30.2621 55.2559C30.1421 55.4234 30.0515 55.6101 29.9943 55.808C29.9286 56.0218 29.8958 56.2444 29.8972 56.468" fill="#00524D"/>
<path id="Path 52533" d="M34.2936 57.1255C34.2928 57.272 34.3112 57.418 34.3483 57.5598C34.3807 57.6857 34.4341 57.8053 34.5061 57.9137C34.5688 58.0109 34.6528 58.0925 34.7518 58.1523C34.8519 58.21 34.9656 58.2399 35.0811 58.2388C35.1965 58.2406 35.3102 58.2107 35.4097 58.1523C35.5113 58.0939 35.5974 58.0121 35.661 57.9137C35.7354 57.8063 35.7899 57.6864 35.8219 57.5598C35.8619 57.4185 35.8813 57.2723 35.8797 57.1255C35.8805 56.9804 35.8611 56.8358 35.8219 56.6961C35.7907 56.5681 35.7361 56.4468 35.661 56.3385C35.5974 56.2395 35.5113 56.1569 35.4097 56.0974C35.3106 56.0376 35.1969 56.0064 35.0811 56.0072C34.9652 56.0072 34.8515 56.0383 34.7518 56.0974C34.6528 56.1582 34.5687 56.2406 34.5061 56.3385C34.4335 56.4478 34.3801 56.5688 34.3483 56.6961C34.3119 56.8363 34.2935 56.9806 34.2936 57.1255ZM33.5847 57.1285C33.5828 56.9153 33.6166 56.7032 33.6848 56.501C33.7463 56.3118 33.8448 56.1366 33.9748 55.9858C34.104 55.8388 34.2635 55.7215 34.4422 55.6417C34.6451 55.5519 34.8654 55.5079 35.0872 55.5128C35.3098 55.5084 35.5308 55.5524 35.7347 55.6417C35.9156 55.7212 36.0773 55.8385 36.2089 55.9858C36.3398 56.1365 36.4396 56.3117 36.5025 56.501C36.6358 56.909 36.6358 57.3487 36.5025 57.7567C36.441 57.9456 36.341 58.1197 36.2089 58.2683C36.0775 58.4158 35.9157 58.5334 35.7347 58.613C35.5302 58.7006 35.3097 58.7445 35.0872 58.7418C34.8655 58.7449 34.6457 58.701 34.4422 58.613C34.2633 58.5331 34.1038 58.4155 33.9748 58.2683C33.8436 58.1197 33.7449 57.9455 33.6848 57.7567C33.6164 57.5546 33.5825 57.3425 33.5847 57.1292" fill="#00524D"/>
<path id="Path 52534" d="M37.0848 55.5629H37.7937V55.7947C37.912 55.6956 38.0491 55.6211 38.1967 55.5757C38.3308 55.5361 38.4697 55.5155 38.6095 55.5144C38.7594 55.5144 38.9077 55.5462 39.0444 55.6076C39.1928 55.6787 39.3199 55.7874 39.413 55.9229C39.4731 55.8499 39.5437 55.786 39.6225 55.7334C39.7005 55.6835 39.7827 55.6404 39.8682 55.6046C39.9529 55.5721 40.0402 55.5471 40.1292 55.5298C40.2148 55.5163 40.3012 55.5089 40.3879 55.5077C40.5362 55.5048 40.6838 55.53 40.8228 55.5819C40.9498 55.6268 41.0671 55.6957 41.168 55.7849C41.2609 55.872 41.3362 55.9761 41.3897 56.0916C41.4448 56.2117 41.4725 56.3424 41.4708 56.4744V58.6857H40.7613V56.6001C40.7648 56.5029 40.7507 56.4059 40.7196 56.3137C40.6957 56.2456 40.6583 56.183 40.6096 56.1297L40.4609 56.0364L40.2969 56.0076C40.2151 56.0082 40.1345 56.0279 40.0617 56.0652C39.9815 56.1057 39.9101 56.1616 39.8516 56.2296C39.7875 56.3023 39.7362 56.3853 39.6999 56.475C39.6606 56.571 39.6409 56.6738 39.6421 56.7774V58.6864H38.9296V56.6007C38.9315 56.5036 38.9174 56.4068 38.8878 56.3143C38.8649 56.2472 38.8299 56.1848 38.7846 56.1303L38.6427 56.037L38.4977 56.0082C38.4 56.0082 38.3042 56.035 38.2207 56.0855C38.135 56.1367 38.0596 56.2032 37.9983 56.2818C37.9339 56.3588 37.8827 56.4458 37.8466 56.5394C37.8124 56.6267 37.7939 56.7193 37.7919 56.813V58.6864H37.083L37.0848 55.5629Z" fill="#00524D"/>
<path id="Path 52535" d="M42.0103 55.5629H42.7198V55.7947C42.8378 55.6955 42.9746 55.621 43.1221 55.5758C43.2562 55.5362 43.3951 55.5155 43.5349 55.5144C43.6849 55.5144 43.8331 55.5462 43.9698 55.6077C44.1183 55.6785 44.2455 55.7873 44.3384 55.9229C44.3986 55.8499 44.4691 55.786 44.5479 55.7334C44.6255 55.6829 44.7078 55.6397 44.7936 55.6046C44.8783 55.5722 44.9656 55.5472 45.0547 55.5298C45.14 55.5163 45.2262 55.5089 45.3127 55.5077C45.461 55.5048 45.6086 55.53 45.7476 55.5819C45.8747 55.6268 45.9919 55.6957 46.0928 55.7849C46.1857 55.8721 46.2612 55.9762 46.3152 56.0916C46.3697 56.2118 46.3972 56.3425 46.3956 56.4744V58.6857H45.6861V56.6002C45.6896 56.5029 45.6755 56.4059 45.6444 56.3137C45.6208 56.2455 45.5833 56.1828 45.5344 56.1297L45.3864 56.0364L45.2224 56.0076C45.1405 56.0078 45.0598 56.0276 44.9871 56.0653C44.9069 56.1057 44.8355 56.1616 44.777 56.2297C44.7129 56.3023 44.6616 56.3853 44.6253 56.475C44.5863 56.571 44.5666 56.6738 44.5675 56.7774V58.6864H43.855V56.6008C43.8567 56.5036 43.8424 56.4068 43.8126 56.3143C43.7886 56.2477 43.7538 56.1855 43.7094 56.1303L43.5675 56.037L43.4225 56.0082C43.3248 56.0077 43.2288 56.0345 43.1455 56.0855C43.0599 56.1365 42.9847 56.2031 42.9237 56.2818C42.859 56.3585 42.8077 56.4456 42.772 56.5394C42.7376 56.6266 42.719 56.7193 42.7173 56.813V58.6864H42.0078L42.0103 55.5629Z" fill="#00524D"/>
<path id="Path 52536" d="M49.174 56.8123C49.1672 56.7024 49.1444 56.5942 49.1064 56.4909C49.071 56.3963 49.0172 56.3098 48.9479 56.2363C48.8826 56.1633 48.8024 56.1052 48.7127 56.0657C48.6158 56.0238 48.5111 56.0029 48.4055 56.0044C48.306 56.0039 48.2078 56.0259 48.118 56.0688C48.0307 56.1137 47.9521 56.1738 47.8858 56.2461C47.75 56.4049 47.6697 56.6037 47.6573 56.8123H49.174ZM47.6555 57.2564C47.6616 57.3839 47.6867 57.5098 47.7298 57.63C47.7671 57.7449 47.8236 57.8527 47.8969 57.9489C47.9623 58.038 48.0445 58.1134 48.1389 58.171C48.2298 58.2241 48.3334 58.2517 48.4387 58.2507C48.6138 58.2508 48.7837 58.1912 48.9203 58.0818C49.0569 57.9724 49.1521 57.8197 49.19 57.649H49.8546C49.8218 57.8142 49.7571 57.9715 49.6642 58.1121C49.5772 58.2455 49.4669 58.3623 49.3386 58.4568C49.2101 58.5507 49.0674 58.6236 48.916 58.6727C48.7615 58.7207 48.6005 58.7445 48.4387 58.7433C48.2219 58.7477 48.007 58.7026 47.8103 58.6114C47.6265 58.525 47.4628 58.4011 47.3299 58.2476C47.1968 58.0907 47.0941 57.9103 47.0271 57.7158C46.9544 57.5122 46.9175 57.2977 46.9177 57.0816C46.9179 56.8771 46.9549 56.6743 47.0271 56.4829C47.093 56.2983 47.1949 56.1286 47.3268 55.9836C47.4597 55.8364 47.6224 55.7191 47.8041 55.6394C48.0015 55.5507 48.2161 55.5067 48.4326 55.5106C48.643 55.5069 48.8521 55.5462 49.0468 55.6259C49.2219 55.6963 49.3794 55.8041 49.5082 55.9418C49.638 56.081 49.7377 56.2453 49.8012 56.4246C49.8713 56.6187 49.9062 56.8237 49.9044 57.03V57.2551L47.6555 57.2564Z" fill="#00524D"/>
<path id="Path 52537" d="M50.3551 55.5629H50.9933L51.032 55.8463C51.1124 55.7432 51.2148 55.6594 51.3318 55.6009C51.4436 55.5443 51.5671 55.5145 51.6924 55.5138L51.8472 55.5334L52.0315 55.5849V56.1677C51.9178 56.1183 51.7989 56.0817 51.677 56.0585C51.5872 56.0568 51.4984 56.0779 51.419 56.1198C51.3429 56.1604 51.2769 56.2176 51.2262 56.2873C51.1714 56.3594 51.131 56.4412 51.107 56.5284C51.0783 56.6224 51.064 56.7202 51.0646 56.8185V58.6857H50.3551V55.5629Z" fill="#00524D"/>
<path id="Path 52538" d="M54.4574 56.5923C54.4234 56.4212 54.3406 56.2636 54.2191 56.1384C54.1107 56.046 53.9715 55.9976 53.829 56.0028C53.7177 56.0016 53.6082 56.0318 53.5133 56.0899C53.4188 56.1496 53.3392 56.2299 53.2805 56.3249C53.2136 56.4303 53.1636 56.5456 53.1324 56.6665C53.0999 56.7992 53.0838 56.9354 53.0845 57.072C53.0842 57.2181 53.1003 57.3637 53.1324 57.5063C53.1637 57.6384 53.2136 57.7654 53.2805 57.8835C53.3376 57.9865 53.4156 58.0763 53.5096 58.1473C53.598 58.2138 53.7061 58.2489 53.8167 58.2473C53.8985 58.2493 53.9795 58.2306 54.052 58.1927L54.2363 58.0344C54.2906 57.9634 54.3352 57.8854 54.369 57.8026C54.4044 57.7107 54.4313 57.6159 54.4495 57.5192H55.1976C55.1786 57.6973 55.1307 57.8711 55.0557 58.0338C54.9853 58.1805 54.8865 58.3118 54.7652 58.4203C54.6416 58.5283 54.4983 58.6116 54.3432 58.6656C54.1684 58.7228 53.9853 58.751 53.8014 58.749C53.5779 58.7547 53.3568 58.7025 53.1595 58.5975C52.9841 58.5039 52.8321 58.372 52.7147 58.2117C52.5981 58.0475 52.5106 57.8645 52.4561 57.6707C52.4041 57.4763 52.377 57.2762 52.3756 57.075C52.3747 56.8662 52.4096 56.6587 52.4788 56.4616C52.5448 56.2789 52.6456 56.1106 52.7755 55.966C52.9035 55.8236 53.0609 55.7106 53.2369 55.6348C53.4267 55.5516 53.6321 55.5098 53.8395 55.5121C54.0192 55.5098 54.1981 55.538 54.3684 55.5955C54.5144 55.6449 54.6499 55.7212 54.7676 55.8206C54.8797 55.9163 54.9727 56.0322 55.0416 56.1623C55.115 56.2967 55.1674 56.4415 55.197 56.5917L54.4574 56.5923Z" fill="#00524D"/>
<path id="Path 52539" d="M57.9078 56.8123C57.9025 56.7022 57.8797 56.5937 57.8402 56.4909C57.8047 56.3971 57.752 56.3108 57.6848 56.2363C57.6177 56.164 57.5366 56.106 57.4465 56.0657C57.3496 56.0238 57.2449 56.0029 57.1393 56.0044C57.0398 56.0039 56.9415 56.0259 56.8518 56.0688C56.7645 56.1137 56.6859 56.1738 56.6196 56.2461C56.4836 56.4049 56.4031 56.6037 56.3905 56.8123H57.9078ZM56.3893 57.2564C56.3955 57.3839 56.4205 57.5098 56.4636 57.63C56.501 57.7449 56.5574 57.8527 56.6307 57.9489C56.6969 58.0373 56.779 58.1126 56.8727 58.171C56.9636 58.2241 57.0672 58.2517 57.1725 58.2507C57.3477 58.2513 57.5179 58.1918 57.6546 58.0824C57.7913 57.9729 57.8863 57.8199 57.9238 57.649H58.5884C58.5556 57.8142 58.4909 57.9715 58.398 58.1121C58.311 58.2455 58.2007 58.3623 58.0724 58.4568C57.9446 58.55 57.803 58.6229 57.6528 58.6727C57.4972 58.7205 57.3353 58.7443 57.1725 58.7433C56.9557 58.7477 56.7408 58.7025 56.5441 58.6114C56.3607 58.5257 56.1979 58.4016 56.0668 58.2476C55.9309 58.0919 55.8266 57.9113 55.7596 57.7158C55.688 57.5121 55.652 57.2975 55.6534 57.0816C55.6524 56.8772 55.6884 56.6744 55.7596 56.4829C55.8266 56.2988 55.9283 56.1292 56.0594 55.9836C56.1922 55.8362 56.3549 55.7189 56.5367 55.6394C56.7341 55.5507 56.9487 55.5067 57.1651 55.5106C57.3756 55.5069 57.5846 55.5462 57.7794 55.6259C57.9545 55.6963 58.1119 55.8041 58.2407 55.9418C58.3707 56.0809 58.4705 56.2452 58.5337 56.4246C58.6038 56.6187 58.6388 56.8237 58.6369 57.03V57.2551L56.3893 57.2564Z" fill="#00524D"/>
</g>
</g>
</g>
</g>
</svg>
