<svg width="110" height="60" viewBox="0 0 110 60" fill="none" xmlns="http://www.w3.org/2000/svg">
<g id="Logo">
<g id="Group">
<path id="Vector" d="M3.33292 43.8848C3.65769 43.8848 3.88539 43.6334 3.88539 43.3277C3.88539 43.0219 3.65769 42.7725 3.33292 42.7725C3.00816 42.7725 2.78046 43.0238 2.78046 43.3277C2.78046 43.6316 3.00816 43.8848 3.33292 43.8848Z" fill="#005D45"/>
<path id="Vector_2" d="M1.77079 43.8848C2.08622 43.8848 2.32326 43.6334 2.32326 43.3277C2.32326 43.0219 2.08436 42.7725 1.77079 42.7725C1.43483 42.7725 1.21832 43.0238 1.21832 43.3277C1.21832 43.6316 1.43483 43.8848 1.77079 43.8848Z" fill="#005D45"/>
<path id="Vector_3" d="M9.7777 46.0327C9.7777 46.3385 10.0054 46.5786 10.3973 46.5786C10.7893 46.5786 11.0263 46.2728 11.0263 45.9351C11.0263 45.2054 10.2779 44.7027 9.46412 44.7027C8.11845 44.7027 6.93698 45.7494 6.93698 47.1995C6.93698 48.1055 7.34944 48.8464 8.00087 49.2817H5.0724C4.56286 49.2385 4.50873 48.7039 4.50873 48.4094V45.5844C4.50873 45.3555 4.51993 45.0723 4.58525 44.789H4.04212C3.9656 44.8659 3.98799 44.9091 3.9656 44.9522C3.92267 45.0835 3.86854 45.2242 3.84615 45.2242C3.84615 45.2242 3.78082 45.1811 3.66137 45.1041C3.41126 44.941 2.99878 44.6671 2.38099 44.6671C1.01475 44.6671 0.156189 45.8995 0.156189 47.1545C0.156189 48.5069 1.01289 49.685 2.15328 49.685C3.0753 49.685 3.56431 49.019 3.72669 48.5501C3.72669 49.5424 4.33515 49.6737 5.0724 49.685H9.36895C10.0409 49.685 10.5411 49.4674 10.9424 49.0735L10.6717 48.8877C10.3899 49.1391 10.0315 49.2798 9.5649 49.2798C8.48984 49.2798 8.02508 48.3419 8.02508 47.0775C8.02508 45.7363 8.53466 45.0498 9.50147 45.0498C10.0539 45.0498 10.3582 45.2786 10.5112 45.5731C10.4347 45.5619 10.3694 45.5506 10.2947 45.5506C9.96994 45.5506 9.78517 45.7251 9.78517 46.0308M3.46352 48.3343C3.28994 48.9121 2.82334 49.3154 2.2914 49.3154C1.83599 49.3154 1.14167 48.8258 1.14167 47.222C1.14167 46.0984 1.53176 45.0516 2.37912 45.0516C3.46352 45.0516 3.58297 46.0871 3.58297 47.0138C3.58297 47.5915 3.56058 48.0061 3.46352 48.3325" fill="#005D45"/>
<path id="Vector_4" d="M13.2923 49.6849V42.7162L11.8719 42.9882C12.3274 43.1401 12.3386 43.2171 12.3386 43.4684V49.683H13.2942L13.2923 49.6849Z" fill="#005D45"/>
<path id="Vector_5" d="M16.6892 44.8228L15.2465 45.0948C15.7242 45.2486 15.7355 45.3237 15.7355 45.5863V48.3569C15.6496 50.4072 14.8676 51.1801 13.2942 51.6059C13.6955 51.6377 13.9343 51.649 14.0762 51.649C16.5063 51.649 16.6911 49.4899 16.6911 47.5372V44.8209L16.6892 44.8228Z" fill="#005D45"/>
<path id="Vector_6" d="M19.2275 43.9619C19.5318 43.9619 19.7912 43.7105 19.7912 43.3954C19.7912 43.0802 19.5318 42.8289 19.2275 42.8289C18.9233 42.8289 18.6638 43.069 18.6638 43.3954C18.6638 43.7218 18.9233 43.9619 19.2275 43.9619Z" fill="#005D45"/>
<path id="Vector_7" d="M22.2642 43.4703V48.2349C22.2642 48.8783 22.0141 49.2816 21.4075 49.2816H19.7912C19.879 48.7245 19.8995 48.1261 19.8995 47.5371V44.8209L18.4679 45.0929C18.9345 45.2467 18.9457 45.3217 18.9457 45.5844V48.3549C18.8692 50.4052 18.089 51.1799 16.5044 51.6039C16.9057 51.6358 17.1558 51.6471 17.2864 51.6471C18.8057 51.6471 19.4459 50.7954 19.7054 49.6849H21.6371C22.5592 49.6849 23.2217 49.1841 23.2217 48.2668V42.7162L21.7902 42.9882C22.268 43.1401 22.268 43.2171 22.268 43.4684" fill="#005D45"/>
<path id="Vector_8" d="M24.6628 43.4703V49.6849H25.6184V42.7162L24.1962 42.9882C24.6516 43.1401 24.6628 43.2171 24.6628 43.4684" fill="#005D45"/>
<path id="Vector_9" d="M26.8109 47.9854C26.8109 49.032 27.7441 49.6642 28.472 49.6867H28.5262C29.3175 49.6867 29.6442 49.2721 29.8718 48.912C29.6666 50.951 28.4515 51.3881 27.5388 51.5945L27.2794 51.6376C27.6695 51.6695 28.0166 51.692 28.1697 51.692C29.3306 51.692 30.807 51.2343 30.807 47.537V44.8658H29.9819C28.1379 44.8658 26.8128 46.087 26.8128 47.9835M29.8495 47.7115C29.8495 48.5593 29.353 49.3415 28.7053 49.3472C28.0894 49.3209 27.7553 48.5612 27.7553 47.9197C27.7553 46.2952 28.7744 45.2035 29.73 45.2035H29.8495V47.7115Z" fill="#005D45"/>
<path id="Vector_10" d="M36.0442 44.6688C34.6015 44.6688 33.7541 45.9012 33.7541 47.1881C33.7541 48.4749 34.6015 49.6848 36.0442 49.6848C37.487 49.6848 38.3344 48.4524 38.3344 47.1881C38.3344 45.9238 37.4777 44.6688 36.0442 44.6688ZM36.0442 49.3153C35.1763 49.3153 34.7862 48.5518 34.7862 47.1881C34.7862 45.8244 35.1763 45.0496 36.0442 45.0496C36.9121 45.0496 37.2929 45.8019 37.2929 47.1881C37.2929 48.5743 36.9028 49.3153 36.0442 49.3153Z" fill="#005D45"/>
<path id="Vector_11" d="M43.9525 50.6886C43.6277 50.6886 43.4 50.9287 43.4 51.2345C43.4 51.5402 43.6277 51.7916 43.9525 51.7916C44.2772 51.7916 44.5049 51.5402 44.5049 51.2345C44.5049 50.9287 44.2772 50.6886 43.9525 50.6886Z" fill="#005D45"/>
<path id="Vector_12" d="M42.39 50.6886C42.0541 50.6886 41.8376 50.9287 41.8376 51.2345C41.8376 51.5402 42.0541 51.7916 42.39 51.7916C42.7055 51.7916 42.9425 51.5402 42.9425 51.2345C42.9425 50.9287 42.7036 50.6886 42.39 50.6886Z" fill="#005D45"/>
<path id="Vector_13" d="M54.3243 43.459V48.2349C54.3243 48.8671 54.0739 49.2816 53.5103 49.2816H52.674C52.185 49.2816 51.8063 48.824 51.6215 48.3118C51.6439 48.1918 51.6533 48.0605 51.6533 47.9198C51.6533 46.9162 50.9477 45.5862 49.6356 45.5862C48.0398 45.5862 47.7692 46.5898 47.5079 47.6028C47.366 48.1487 47.1925 48.8014 46.8677 49.1185C46.737 49.2273 46.5523 49.261 46.4552 49.2816H45.5985C44.8389 49.2816 44.3834 48.2893 44.3834 47.6028V44.8228L42.9519 45.0948C43.3868 45.2467 43.4297 45.2918 43.4297 45.5319V48.2687C43.4297 48.9009 43.1908 49.2836 42.6159 49.2836H41.7704C41.315 49.2517 41.0537 48.9459 41.0537 48.3681V42.7406L39.3179 42.8175V43.1777C39.9357 43.1777 40.1 43.2753 40.1 43.5379V48.325C40.1 49.3604 40.7831 49.6887 41.7051 49.6887H42.8119C43.4838 49.6887 44.1576 49.4918 44.417 48.8371C44.753 49.3492 45.2196 49.6887 45.7739 49.6887H46.4459C47.0207 49.6887 47.3362 49.503 47.5844 49.231C47.9092 49.6456 48.3646 50.1577 49.3519 50.1577C50.4046 50.1577 51.0765 49.623 51.3919 48.959C51.7615 49.4392 52.1742 49.6887 52.8889 49.6887H53.6803C54.6021 49.6887 55.2647 49.1879 55.2647 48.2706V42.7087L53.822 42.9807C54.3094 43.1345 54.3202 43.2096 54.3202 43.461M49.3874 49.7731C48.7155 49.7731 48.2264 49.2179 47.9446 48.869C47.9334 48.8465 47.9129 48.8146 47.8905 48.8033C48.0976 48.4113 48.1947 48.008 48.2918 47.6366L48.3141 47.5709C48.5307 46.7193 48.7491 45.9352 49.4434 45.9352H49.4863C50.2776 45.9671 50.6584 46.9388 50.6584 47.9742C50.6584 49.0096 50.0724 49.7731 49.3893 49.7731" fill="#005D45"/>
<path id="Vector_14" d="M56.711 43.4703V49.6849H57.6668V42.7162L56.2447 42.9882C56.7002 43.1401 56.711 43.2171 56.711 43.4684" fill="#005D45"/>
<path id="Vector_15" d="M58.858 47.9854C58.858 49.032 59.7911 49.6642 60.5192 49.6867H60.5733C61.3647 49.6867 61.6909 49.2721 61.9186 48.912C61.7135 50.951 60.4965 51.3881 59.5856 51.5945L59.3264 51.6376C59.7164 51.6695 60.0637 51.692 60.2167 51.692C61.3776 51.692 62.8538 51.2343 62.8538 47.537V44.8658H62.0289C60.1848 44.8658 58.8596 46.087 58.8596 47.9835M61.8964 47.7115C61.8964 48.5593 61.3997 49.3415 60.7521 49.3472C60.1364 49.3209 59.8025 48.5612 59.8025 47.9197C59.8025 46.2952 60.8211 45.2035 61.7769 45.2035H61.8964V47.7115Z" fill="#005D45"/>
<path id="Vector_16" d="M67.4302 43.8848C67.7455 43.8848 67.9831 43.6334 67.9831 43.3277C67.9831 43.0219 67.744 42.7725 67.4302 42.7725C67.0943 42.7725 66.8779 43.0238 66.8779 43.3277C66.8779 43.6316 67.0943 43.8848 67.4302 43.8848Z" fill="#005D45"/>
<path id="Vector_17" d="M68.9924 43.8848C69.317 43.8848 69.5448 43.6334 69.5448 43.3277C69.5448 43.0219 69.317 42.7725 68.9924 42.7725C68.6678 42.7725 68.4401 43.0238 68.4401 43.3277C68.4401 43.6316 68.6678 43.8848 68.9924 43.8848Z" fill="#005D45"/>
<path id="Vector_18" d="M74.2747 43.3183H73.7651C73.3637 43.3183 73.0932 42.8174 73.0932 42.4892C73.0932 42.2716 73.2236 42.0202 73.4086 42.0202C73.4627 42.0202 73.5503 42.0315 73.593 42.0953C73.5075 42.1721 73.4307 42.2922 73.4307 42.3579C73.4307 42.5211 73.5822 42.6298 73.7893 42.6298C73.9965 42.6298 74.1474 42.5642 74.1474 42.3129C74.1474 41.9864 73.8321 41.7351 73.4307 41.7351C72.8557 41.7351 72.5295 42.1384 72.5295 42.6186C72.5295 42.8906 72.7459 43.1532 72.9417 43.3164H72.4528L72.3219 43.6653H74.2747V43.3164V43.3183Z" fill="#005D45"/>
<path id="Vector_19" d="M77.1715 50.6886C76.8464 50.6886 76.6187 50.9287 76.6187 51.2345C76.6187 51.5402 76.8464 51.7916 77.1715 51.7916C77.4961 51.7916 77.7239 51.5402 77.7239 51.2345C77.7239 50.9287 77.4961 50.6886 77.1715 50.6886Z" fill="#005D45"/>
<path id="Vector_20" d="M75.6092 50.6886C75.2733 50.6886 75.0569 50.9287 75.0569 51.2345C75.0569 51.5402 75.2733 51.7916 75.6092 51.7916C75.9246 51.7916 76.1616 51.5402 76.1616 51.2345C76.1616 50.9287 75.9225 50.6886 75.6092 50.6886Z" fill="#005D45"/>
<path id="Vector_21" d="M80.6875 50.5591C80.3835 50.5591 80.1238 50.8104 80.1238 51.1255C80.1238 51.4407 80.3835 51.6921 80.6875 51.6921C80.9915 51.6921 81.2512 51.452 81.2512 51.1255C81.2512 50.7992 80.9915 50.5591 80.6875 50.5591Z" fill="#005D45"/>
<path id="Vector_22" d="M83.9202 43.4702V48.2349C83.9202 48.8783 83.6703 49.2816 83.0639 49.2816H82.7166C81.9566 49.2816 81.5016 48.2893 81.5016 47.6027V44.8227L80.0698 45.0947C80.5046 45.2467 80.5479 45.2917 80.5479 45.5318V48.2686C80.5479 48.9008 80.3088 49.2835 79.7338 49.2835H78.8229C78.0634 49.2835 77.6079 48.2912 77.6079 47.6046V44.8246L76.1766 45.0966C76.6114 45.2486 76.6542 45.2936 76.6542 45.5337V48.2705C76.6542 48.9027 76.4151 49.2853 75.8406 49.2853H75.2321C74.4726 49.2853 74.0172 48.293 74.0172 47.6065V44.8265L72.5853 45.0985C73.0201 45.2504 73.0634 45.2955 73.0634 45.5356V48.2724C73.0634 48.9046 72.8244 49.2872 72.2493 49.2872H70.7304C70.2208 49.2441 70.1667 48.7095 70.1667 48.415V45.59C70.1667 45.3611 70.1775 45.0779 70.243 44.7946H69.6999C69.6231 44.8715 69.6458 44.9146 69.6231 44.9578C69.5804 45.0891 69.5263 45.2298 69.5041 45.2298C69.5041 45.2298 69.4387 45.1866 69.3191 45.1097C69.0692 44.9465 68.6565 44.6727 68.0387 44.6727C66.6723 44.6727 65.8139 45.9051 65.8139 47.16C65.8139 48.5125 66.6708 49.6905 67.811 49.6905C68.7333 49.6905 69.2223 49.0246 69.3846 48.5556C69.3846 49.5479 69.9931 49.6793 70.7304 49.6905H72.4436C73.1155 49.6905 73.7894 49.4935 74.0486 48.8389C74.3716 49.3304 74.8158 49.6586 75.3403 49.6849V49.6905H76.0343C76.7067 49.6905 77.3802 49.4935 77.6399 48.8389C77.9758 49.351 78.4421 49.6905 78.9965 49.6905H79.9296C80.602 49.6905 81.2754 49.4935 81.5351 48.8389C81.8577 49.3304 82.3023 49.6586 82.8263 49.6849V49.6905H83.2931C84.2154 49.6905 84.878 49.1897 84.878 48.2724V42.7218L83.4462 42.9938C83.9238 43.1457 83.9238 43.2226 83.9238 43.474M69.1213 48.3343C68.9476 48.912 68.4813 49.3154 67.9491 49.3154C67.4936 49.3154 66.7996 48.8258 66.7996 47.2219C66.7996 46.0983 67.1896 45.0516 68.0367 45.0516C69.1213 45.0516 69.2408 46.087 69.2408 47.0137C69.2408 47.5915 69.2181 48.006 69.1213 48.3324" fill="#005D45"/>
<path id="Vector_23" d="M86.3186 43.4703V49.6849H87.2744V42.7162L85.8518 42.9882C86.3073 43.1401 86.3186 43.2171 86.3186 43.4684" fill="#005D45"/>
<path id="Vector_24" d="M93.3163 43.6672C93.6316 43.6672 93.8686 43.4158 93.8686 43.11C93.8686 42.8043 93.6296 42.5548 93.3163 42.5548C93.0025 42.5548 92.7634 42.7949 92.7634 43.11C92.7634 43.4252 92.9912 43.6672 93.3163 43.6672Z" fill="#005D45"/>
<path id="Vector_25" d="M92.5134 44.6688C91.0707 44.6688 90.2231 45.9012 90.2231 47.1881C90.2231 48.4749 91.0686 49.6848 92.5134 49.6848C93.9581 49.6848 94.8036 48.4524 94.8036 47.1881C94.8036 45.9238 93.9468 44.6688 92.5134 44.6688ZM92.5134 49.3153C91.6452 49.3153 91.2551 48.5518 91.2551 47.1881C91.2551 45.8244 91.6452 45.0496 92.5134 45.0496C93.381 45.0496 93.7618 45.8019 93.7618 47.1881C93.7618 48.5743 93.3718 49.3153 92.5134 49.3153Z" fill="#005D45"/>
<path id="Vector_26" d="M91.7426 43.6672C92.0672 43.6672 92.2949 43.4158 92.2949 43.11C92.2949 42.8043 92.0672 42.5548 91.7426 42.5548C91.4175 42.5548 91.1995 42.7949 91.1995 43.11C91.1995 43.4252 91.4159 43.6672 91.7426 43.6672Z" fill="#005D45"/>
<path id="Vector_27" d="M97.243 45.5863V48.3569C97.157 50.4072 96.3753 51.1819 94.8018 51.6059C95.2031 51.6377 95.4417 51.649 95.5839 51.649C98.0138 51.649 98.1988 49.4899 98.1988 47.5372V44.8209L96.7561 45.0929C97.2337 45.2468 97.2451 45.3218 97.2451 45.5844" fill="#005D45"/>
<path id="Vector_28" d="M100.595 49.6849V42.7162L99.1745 42.9882C99.63 43.1401 99.6413 43.2171 99.6413 43.4684V49.683H100.597L100.595 49.6849Z" fill="#005D45"/>
<path id="Vector_29" d="M103.036 45.5319V48.3025C102.95 50.3527 102.169 51.1256 100.595 51.5514C100.997 51.5833 101.236 51.6058 101.377 51.6058C103.807 51.6058 103.992 49.4355 103.992 47.4846V44.7797L102.549 45.0517C103.027 45.1942 103.038 45.2805 103.038 45.5319" fill="#005D45"/>
<path id="Vector_30" d="M103.449 42.5548C103.145 42.5548 102.885 42.7949 102.885 43.1213C102.885 43.4477 103.145 43.6878 103.449 43.6878C103.753 43.6878 104.001 43.4364 104.001 43.1213C104.001 42.8061 103.742 42.5548 103.449 42.5548Z" fill="#005D45"/>
<path id="Vector_31" d="M108.352 44.866C106.508 44.866 105.183 46.0872 105.183 47.9836C105.183 49.0304 106.116 49.6625 106.844 49.685H106.898C107.69 49.685 108.016 49.2705 108.244 48.9103C108.038 50.9494 106.821 51.3864 105.911 51.5927L105.651 51.6359C106.041 51.6678 106.389 51.6903 106.542 51.6903C107.702 51.6903 109.179 51.2326 109.179 47.5353V44.8641H108.354L108.352 44.866ZM108.221 47.7116C108.221 48.5595 107.725 49.3417 107.077 49.3474C106.461 49.3211 106.127 48.5614 106.127 47.9199C106.127 46.2954 107.146 45.2036 108.102 45.2036H108.221V47.7116Z" fill="#005D45"/>
<path id="Vector_32" d="M0.731089 55.5694C0.731089 55.0254 0.648965 55.0497 0.154358 54.9504V54.8209H1.4758L2.62739 58.0492H2.63859L3.76779 54.8209H4.55356V58.7564H3.97123V55.2768H3.96003L2.73751 58.7564H2.32503L1.10811 55.3124H1.09691V58.7564H0.731089V55.5694Z" fill="#005D45"/>
<path id="Vector_33" d="M5.48861 56.7961C5.48861 56.3871 5.39529 56.2877 5.04065 56.2764V56.1601L6.07094 55.9726V58.7563H5.48861V56.7979V56.7961ZM5.42513 55.1416C5.42513 54.9427 5.58753 54.7795 5.79095 54.7795C5.99442 54.7795 6.16239 54.9371 6.16239 55.1416C6.16239 55.3461 5.98881 55.5092 5.78534 55.5092C5.58192 55.5092 5.42513 55.3461 5.42513 55.1416Z" fill="#005D45"/>
<path id="Vector_34" d="M6.9614 56.7962C6.9614 56.3872 6.86247 56.2878 6.49664 56.2765V56.1603L7.54373 55.9727V56.7211H7.55491C7.6426 56.5167 7.95057 55.9727 8.52548 55.9727C9.05551 55.9727 9.2291 56.3479 9.2291 56.7962V58.7545H8.64677V57.2407C8.64677 56.7793 8.64677 56.3703 8.25668 56.3703C7.86658 56.3703 7.54182 56.9143 7.54182 57.3289V58.7564H6.95949V56.798L6.9614 56.7962Z" fill="#005D45"/>
<path id="Vector_35" d="M10.1082 56.7961C10.1082 56.3871 10.0149 56.2877 9.66028 56.2764V56.1601L10.6906 55.9726V58.7563H10.1082V56.7979V56.7961ZM10.0448 55.1416C10.0448 54.9427 10.2072 54.7795 10.4106 54.7795C10.6141 54.7795 10.782 54.9371 10.782 55.1416C10.782 55.3461 10.6084 55.5092 10.405 55.5092C10.2015 55.5092 10.0448 55.3461 10.0448 55.1416Z" fill="#005D45"/>
<path id="Vector_36" d="M12.8835 56.5111C12.7958 56.4529 12.5177 56.2297 12.1911 56.2297C12.0045 56.2297 11.7842 56.2991 11.7842 56.5504C11.7842 57.1057 13.059 57.1169 13.059 58.0117C13.059 58.5857 12.5887 58.8183 12.0119 58.8183C11.6573 58.8183 11.4016 58.7489 11.2672 58.7133V58.2574C11.4352 58.3756 11.7096 58.5613 12.0343 58.5613C12.4001 58.5613 12.5345 58.3737 12.5345 58.1693C12.5345 57.5953 11.2616 57.5615 11.2616 56.7549C11.2616 56.3347 11.5472 55.9708 12.2322 55.9708C12.5289 55.9708 12.7846 56.0477 12.8835 56.0702V56.5092V56.5111Z" fill="#005D45"/>
<path id="Vector_37" d="M15.0598 58.7734C14.931 58.7978 14.7984 58.8203 14.6697 58.8203C14.1116 58.8203 13.785 58.7321 13.785 58.0662V56.2711H13.3314V56.0366H13.785V55.5751L14.3673 55.0555V56.0385H15.1288V56.2729H14.3673V57.9743C14.3673 58.3833 14.3972 58.5652 14.8451 58.5652C14.9142 58.5652 14.9907 58.5596 15.0598 58.5427V58.7772V58.7734Z" fill="#005D45"/>
<path id="Vector_38" d="M15.6068 56.7962C15.6068 56.3872 15.5135 56.2878 15.1476 56.2765V56.1603L16.1891 55.9727V56.7436H16.2003C16.2825 56.4754 16.4616 55.9727 16.9282 55.9727C17.0328 55.9727 17.1429 55.9839 17.2418 56.0027V56.5579C17.1485 56.5279 17.044 56.4885 16.945 56.4885C16.3571 56.4885 16.1891 56.95 16.1891 57.3608V58.7583H15.6068V56.7999V56.7962Z" fill="#005D45"/>
<path id="Vector_39" d="M18.9104 58.9778C18.7293 59.4449 18.5259 59.9476 17.8932 59.9476C17.2605 59.9476 17.1074 59.4618 17.085 59.1991H17.7532C17.7532 59.3736 17.7831 59.6325 18.0612 59.6325C18.3169 59.6325 18.4456 59.3342 18.5259 59.1241L18.6024 58.9253L17.6655 56.6799C17.5255 56.3348 17.4452 56.1715 17.0421 56.1528V56.0365H18.0313L18.8917 58.1881L19.7298 56.0365H20.062L18.9104 58.9778Z" fill="#005D45"/>
<path id="Vector_40" d="M22.0347 57.3983C22.0347 56.421 22.4416 55.9708 23.2909 55.9708C24.1401 55.9708 24.547 56.556 24.547 57.3983C24.547 58.3513 24.1513 58.8183 23.2909 58.8183C22.3539 58.8183 22.0347 58.2162 22.0347 57.3983ZM23.2909 58.6214C23.862 58.6214 23.9068 57.9836 23.9068 57.4002C23.9068 56.8618 23.8545 56.1715 23.2909 56.1715C22.7272 56.1715 22.6749 56.8844 22.6749 57.4002C22.6749 57.8841 22.716 58.6214 23.2909 58.6214Z" fill="#005D45"/>
<path id="Vector_41" d="M25.2916 56.271H24.8193V56.0365H25.2916V55.6444C25.2916 55.1774 25.495 54.6615 26.193 54.6615C26.9378 54.6615 27.1934 54.9241 27.2569 55.3518H26.6055C26.5999 55.1417 26.5234 54.8603 26.2341 54.8603C25.8963 54.8603 25.8739 55.2336 25.8739 55.5094V56.0365H26.6485V56.271H25.8739V58.7565H25.2916V56.271Z" fill="#005D45"/>
<path id="Vector_42" d="M28.8396 55.6163C28.8396 55.0367 28.8228 55.0367 28.2872 54.9504V54.8209H31.0738L31.0906 55.6857H30.9282C30.9282 55.2186 30.6837 55.0948 30.2992 55.0948H29.8456C29.5545 55.0948 29.4798 55.1173 29.4798 55.3987V56.5617H30.1835C30.5848 56.5617 30.6258 56.3047 30.6613 56.1115H30.8237V57.3402H30.6613C30.6613 57.025 30.5325 56.8374 30.1835 56.8374H29.4798V58.1411C29.4798 58.4694 29.5545 58.4807 29.8456 58.4807H30.4914C30.8237 58.4807 30.9804 58.3644 31.0159 57.9066H31.1783L31.1596 58.7545H28.8396V55.6144V55.6163Z" fill="#005D45"/>
<path id="Vector_43" d="M31.8652 56.7962C31.8652 56.3872 31.7663 56.2878 31.4005 56.2765V56.1603L32.4475 55.9727V56.7211H32.4588C32.5465 56.5167 32.8544 55.9727 33.4312 55.9727C33.9612 55.9727 34.1348 56.3479 34.1348 56.7962V58.7545H33.5525V57.2407C33.5525 56.7793 33.5525 56.3703 33.1624 56.3703C32.7723 56.3703 32.4475 56.9143 32.4475 57.3289V58.7564H31.8652V56.798V56.7962Z" fill="#005D45"/>
<path id="Vector_44" d="M34.9486 56.6799C34.803 56.2879 34.7395 56.1884 34.3439 56.1528V56.0365H35.3163L36.13 58.0943L36.9214 56.0365H37.2536L36.2122 58.7546H35.7866L34.9486 56.678V56.6799Z" fill="#005D45"/>
<path id="Vector_45" d="M37.806 56.7961C37.806 56.3871 37.7127 56.2877 37.3581 56.2764V56.1601L38.3883 55.9726V58.7563H37.806V56.7979V56.7961ZM37.7407 55.1416C37.7407 54.9427 37.9031 54.7795 38.1065 54.7795C38.31 54.7795 38.4779 54.9371 38.4779 55.1416C38.4779 55.3461 38.3043 55.5092 38.1009 55.5092C37.8975 55.5092 37.7407 55.3461 37.7407 55.1416Z" fill="#005D45"/>
<path id="Vector_46" d="M39.2415 56.7962C39.2415 56.3872 39.1482 56.2878 38.7823 56.2765V56.1603L39.8238 55.9727V56.7436H39.835C39.9172 56.4754 40.0963 55.9727 40.5629 55.9727C40.6675 55.9727 40.7776 55.9839 40.8765 56.0027V56.5579C40.7832 56.5279 40.6787 56.4885 40.5797 56.4885C39.9918 56.4885 39.8238 56.95 39.8238 57.3608V58.7583H39.2415V56.7999V56.7962Z" fill="#005D45"/>
<path id="Vector_47" d="M40.9417 57.3983C40.9417 56.421 41.3485 55.9708 42.1978 55.9708C43.047 55.9708 43.4539 56.556 43.4539 57.3983C43.4539 58.3513 43.0582 58.8183 42.1978 58.8183C41.2608 58.8183 40.9417 58.2162 40.9417 57.3983ZM42.1978 58.6214C42.7689 58.6214 42.8137 57.9836 42.8137 57.4002C42.8137 56.8618 42.7615 56.1715 42.1978 56.1715C41.6341 56.1715 41.5818 56.8844 41.5818 57.4002C41.5818 57.8841 41.6229 58.6214 42.1978 58.6214Z" fill="#005D45"/>
<path id="Vector_48" d="M44.1128 56.7962C44.1128 56.3872 44.0138 56.2878 43.648 56.2765V56.1603L44.6951 55.9727V56.7211H44.7063C44.794 56.5167 45.102 55.9727 45.6787 55.9727C46.2088 55.9727 46.3823 56.3479 46.3823 56.7962V58.7545H45.8V57.2407C45.8 56.7793 45.8 56.3703 45.4099 56.3703C45.0199 56.3703 44.6951 56.9143 44.6951 57.3289V58.7564H44.1128V56.798V56.7962Z" fill="#005D45"/>
<path id="Vector_49" d="M47.2017 56.7962C47.2017 56.3872 47.1084 56.2878 46.7538 56.2765V56.1603L47.7952 55.9727V56.6686H47.8065C47.9054 56.4642 48.1742 55.9727 48.6968 55.9727C49.2193 55.9727 49.3724 56.3647 49.4116 56.6273H49.4228C49.5441 56.3985 49.7662 55.9727 50.2907 55.9727C51.0298 55.9727 51.0298 56.6517 51.0298 57.0663V58.7564H50.4475V57.1601C50.4475 56.798 50.4475 56.3703 50.0574 56.3703C49.6151 56.3703 49.406 56.9837 49.406 57.4039V58.7545H48.8237V57.2407C48.8237 56.7793 48.8237 56.3703 48.4336 56.3703C48.0435 56.3703 47.7822 56.9143 47.7822 57.3289V58.7564H47.1999V56.798L47.2017 56.7962Z" fill="#005D45"/>
<path id="Vector_50" d="M53.8092 58.6626C53.6989 58.7039 53.3908 58.8202 52.9894 58.8202C52.0996 58.8202 51.5637 58.2762 51.5637 57.3008C51.5637 56.3778 52.0058 55.9727 52.7864 55.9727C53.7808 55.9727 53.8633 56.6986 53.8633 57.0888H52.2057C52.2057 57.6741 52.4448 58.5032 53.264 58.5032C53.5083 58.5032 53.7118 58.445 53.8107 58.4037V58.6608L53.8092 58.6626ZM53.281 56.8543C53.281 56.7193 53.2697 56.1696 52.7637 56.1696C52.3268 56.1696 52.2057 56.6311 52.2057 56.8543H53.2826H53.281Z" fill="#005D45"/>
<path id="Vector_51" d="M54.4382 56.7962C54.4382 56.3872 54.3393 56.2878 53.9734 56.2765V56.1603L55.0204 55.9727V56.7211H55.0318C55.1194 56.5167 55.4275 55.9727 56.002 55.9727C56.5322 55.9727 56.7058 56.3479 56.7058 56.7962V58.7545H56.1236V57.2407C56.1236 56.7793 56.1236 56.3703 55.7335 56.3703C55.343 56.3703 55.0184 56.9143 55.0184 57.3289V58.7564H54.4361V56.798L54.4382 56.7962Z" fill="#005D45"/>
<path id="Vector_52" d="M58.9064 58.7734C58.7776 58.7978 58.6452 58.8203 58.5163 58.8203C57.9583 58.8203 57.6317 58.7321 57.6317 58.0662V56.2711H57.1777V56.0366H57.6317V55.5751L58.2139 55.0555V56.0385H58.9754V56.2729H58.2139V57.9743C58.2139 58.3833 58.2438 58.5652 58.6915 58.5652C58.7606 58.5652 58.8373 58.5596 58.9064 58.5427V58.7772V58.7734Z" fill="#005D45"/>
<path id="Vector_53" d="M61.5321 55.5694C61.411 55.0367 61.3569 55.0423 60.8751 54.9504V54.8209H61.9278L62.697 58.0079H62.7079L63.6265 54.8209H64.0274L65.0749 58.0079H65.0857L65.7262 54.8209H66.1049L65.2856 58.7564H64.7333L63.7213 55.6406H63.7105L62.8145 58.7564H62.273L61.5341 55.5694H61.5321Z" fill="#005D45"/>
<path id="Vector_54" d="M67.8558 58.4094C67.7513 58.5332 67.5534 58.8183 67.1056 58.8183C66.6579 58.8183 66.3256 58.4901 66.3256 58.1467C66.3256 57.3233 67.4828 57.2576 67.8558 57.2463V56.9481C67.8558 56.5804 67.8558 56.1715 67.4885 56.1715C67.1206 56.1715 67.0814 56.511 67.0814 56.768H66.3889C66.4523 56.3816 66.6445 55.9727 67.4828 55.9727C68.3206 55.9727 68.4365 56.4004 68.4365 56.9781V58.7545H67.8543V58.4094H67.8558ZM67.8558 57.4565C67.6467 57.4621 66.9655 57.4921 66.9655 58.0473C66.9655 58.3156 67.1 58.5032 67.3148 58.5032C67.6523 58.5032 67.8558 58.1937 67.8558 57.796V57.4565Z" fill="#005D45"/>
<path id="Vector_55" d="M70.5958 58.7734C70.467 58.7978 70.3346 58.8203 70.2058 58.8203C69.6478 58.8203 69.3211 58.7321 69.3211 58.0662V56.2711H68.8672V56.0366H69.3211V55.5751L69.9034 55.0555V56.0385H70.6649V56.2729H69.9034V57.9743C69.9034 58.3833 69.9332 58.5652 70.381 58.5652C70.45 58.5652 70.5268 58.5596 70.5958 58.5427V58.7772V58.7734Z" fill="#005D45"/>
<path id="Vector_56" d="M73.1268 58.6626C73.0165 58.7039 72.7084 58.8202 72.3075 58.8202C71.4172 58.8202 70.8813 58.2762 70.8813 57.3008C70.8813 56.3778 71.3239 55.9727 72.104 55.9727C73.0985 55.9727 73.1809 56.6986 73.1809 57.0888H71.5233C71.5233 57.6741 71.7624 58.5032 72.5817 58.5032C72.8264 58.5032 73.0294 58.445 73.1283 58.4037V58.6608L73.1268 58.6626ZM72.5966 56.8543C72.5966 56.7193 72.5853 56.1696 72.0798 56.1696C71.6429 56.1696 71.5218 56.6311 71.5218 56.8543H72.5987H72.5966Z" fill="#005D45"/>
<path id="Vector_57" d="M73.7203 56.7962C73.7203 56.3872 73.6271 56.2878 73.2612 56.2765V56.1603L74.3026 55.9727V56.7436H74.3139C74.3958 56.4754 74.5751 55.9727 75.0419 55.9727C75.146 55.9727 75.2563 55.9839 75.3552 56.0027V56.5579C75.2619 56.5279 75.1573 56.4885 75.0584 56.4885C74.4705 56.4885 74.3026 56.95 74.3026 57.3608V58.7583H73.7203V56.7999V56.7962Z" fill="#005D45"/>
<path id="Vector_58" d="M84.1315 55.5694C84.167 55.4699 84.2304 55.2655 84.2304 55.2242C84.2304 54.9897 84.0156 54.9841 83.7821 54.9504V54.8209H84.876L86.2966 58.7564H85.6916L85.2547 57.5409H83.7713L83.3344 58.7564H82.9742L84.1315 55.5694ZM83.8703 57.2651H85.1558L84.4932 55.5581L83.8718 57.2651H83.8703Z" fill="#005D45"/>
<path id="Vector_59" d="M88.8495 58.8427C88.8495 59.4449 88.7393 60.0001 87.7206 60.0001C87.0055 60.0001 86.5052 59.835 86.5052 59.1823H87.1626C87.1626 59.428 87.2368 59.8013 87.7036 59.8013C88.2673 59.8013 88.2673 59.351 88.2673 59.0303V58.3456H88.256C88.1514 58.5201 87.9947 58.7545 87.5228 58.7545C86.7891 58.7545 86.5 58.1411 86.5 57.4565C86.5 56.7024 86.7277 55.9708 87.53 55.9708C87.9484 55.9708 88.157 56.2165 88.258 56.3741H88.2694V56.0346H89.3107V56.1509C89.1242 56.1509 88.8516 56.1809 88.8516 56.5654V58.8389L88.8495 58.8427ZM88.2673 57.025C88.2673 56.6555 88.0808 56.2878 87.7206 56.2878C87.1904 56.2878 87.1379 56.9481 87.1379 57.3758C87.1379 57.8035 87.1961 58.4394 87.6737 58.4394C88.174 58.4394 88.2673 57.9254 88.2673 57.6028V57.0232V57.025Z" fill="#005D45"/>
<path id="Vector_60" d="M89.7399 56.7962C89.7399 56.3872 89.6466 56.2878 89.2808 56.2765V56.1603L90.3221 55.9727V56.7436H90.3334C90.4153 56.4754 90.5946 55.9727 91.0615 55.9727C91.1661 55.9727 91.2758 55.9839 91.3747 56.0027V56.5579C91.2815 56.5279 91.1769 56.4885 91.0779 56.4885C90.49 56.4885 90.3221 56.95 90.3221 57.3608V58.7583H89.7399V56.7999V56.7962Z" fill="#005D45"/>
<path id="Vector_61" d="M91.8452 56.7961C91.8452 56.3871 91.7519 56.2877 91.3974 56.2764V56.1601L92.4279 55.9726V58.7563H91.8452V56.7979V56.7961ZM91.7818 55.1416C91.7818 54.9427 91.9441 54.7795 92.1476 54.7795C92.3511 54.7795 92.5191 54.9371 92.5191 55.1416C92.5191 55.3461 92.3455 55.5092 92.1419 55.5092C91.9384 55.5092 91.7818 55.3461 91.7818 55.1416Z" fill="#005D45"/>
<path id="Vector_62" d="M95.1448 58.6795C94.9361 58.7545 94.8016 58.8202 94.3199 58.8202C93.5063 58.8202 93.023 58.2406 93.023 57.3589C93.023 56.5579 93.3476 55.9727 94.1803 55.9727C94.8259 55.9727 95.2515 56.3009 95.2515 56.7737H94.5646C94.5646 56.5336 94.5069 56.1715 94.1463 56.1715C93.7505 56.1715 93.6629 56.6048 93.6629 57.1657C93.6629 58.0305 94.0587 58.505 94.5888 58.505C94.7697 58.505 95.0067 58.4694 95.1469 58.4225V58.6795H95.1448Z" fill="#005D45"/>
<path id="Vector_63" d="M97.3717 58.0943H97.3609C97.262 58.3512 97.0229 58.8183 96.4592 58.8183C95.6792 58.8183 95.6792 58.0586 95.6792 57.6253V56.7943C95.6792 56.3853 95.5859 56.2859 95.2309 56.2747V56.1584L96.2614 55.9708V57.7303C96.2614 58.2631 96.4592 58.4207 96.739 58.4207C97.1182 58.4207 97.3738 57.9236 97.3738 57.4377V56.7943C97.3738 56.3853 97.2749 56.2859 96.9261 56.2747V56.1584L97.956 55.9708V58.7545H97.3738V58.0943H97.3717Z" fill="#005D45"/>
<path id="Vector_64" d="M98.7211 55.4569C98.7211 55.0423 98.6222 54.9429 98.2785 54.9241V54.8078L99.3018 54.6615V58.7546H98.719V55.4569H98.7211Z" fill="#005D45"/>
<path id="Vector_65" d="M101.543 58.7734C101.414 58.7978 101.282 58.8203 101.153 58.8203C100.595 58.8203 100.268 58.7321 100.268 58.0662V56.2711H99.8151V56.0366H100.268V55.5751L100.851 55.0555V56.0385H101.612V56.2729H100.851V57.9743C100.851 58.3833 100.881 58.5652 101.329 58.5652C101.398 58.5652 101.474 58.5596 101.543 58.5427V58.7772V58.7734Z" fill="#005D45"/>
<path id="Vector_66" d="M103.819 58.0943H103.807C103.708 58.3512 103.47 58.8183 102.906 58.8183C102.125 58.8183 102.125 58.0586 102.125 57.6253V56.7943C102.125 56.3853 102.032 56.2859 101.678 56.2747V56.1584L102.708 55.9708V57.7303C102.708 58.2631 102.906 58.4207 103.186 58.4207C103.565 58.4207 103.821 57.9236 103.821 57.4377V56.7943C103.821 56.3853 103.722 56.2859 103.372 56.2747V56.1584L104.403 55.9708V58.7545H103.821V58.0943H103.819Z" fill="#005D45"/>
<path id="Vector_67" d="M105.207 56.7962C105.207 56.3872 105.114 56.2878 104.748 56.2765V56.1603L105.789 55.9727V56.7436H105.801C105.883 56.4754 106.062 55.9727 106.529 55.9727C106.633 55.9727 106.743 55.9839 106.842 56.0027V56.5579C106.749 56.5279 106.644 56.4885 106.545 56.4885C105.957 56.4885 105.789 56.95 105.789 57.3608V58.7583H105.207V56.7999V56.7962Z" fill="#005D45"/>
<path id="Vector_68" d="M109.125 58.6626C109.015 58.7039 108.707 58.8202 108.305 58.8202C107.415 58.8202 106.88 58.2762 106.88 57.3008C106.88 56.3778 107.322 55.9727 108.102 55.9727C109.097 55.9727 109.179 56.6986 109.179 57.0888H107.522C107.522 57.6741 107.761 58.5032 108.58 58.5032C108.824 58.5032 109.028 58.445 109.127 58.4037V58.6608L109.125 58.6626ZM108.595 56.8543C108.595 56.7193 108.583 56.1696 108.078 56.1696C107.641 56.1696 107.52 56.6311 107.52 56.8543H108.596H108.595Z" fill="#005D45"/>
<path id="Vector_69" d="M80.973 58.0998C80.973 58.0998 80.9508 58.1035 80.8931 58.1655C80.8071 58.2536 80.7324 58.3174 80.6654 58.3568C80.5665 58.4093 80.4078 58.4 80.2413 58.293C80.1481 58.233 80.0476 58.1411 79.943 58.0229L79.8683 57.9385C79.8214 57.8935 79.7956 57.854 79.7864 57.8165L79.7807 57.7903L79.7972 57.7696C80.0342 57.4658 80.2042 57.2594 80.3032 57.1582C80.4639 56.9875 80.5737 56.8805 80.6412 56.8336C80.7009 56.7923 80.7942 56.7398 80.923 56.6779L80.9266 56.6554C80.9323 56.6292 80.9359 56.6029 80.9359 56.5766C80.9359 56.571 80.9359 56.5635 80.9359 56.5578C80.8725 56.5635 80.8298 56.5672 80.8107 56.5672H80.6669L80.4598 56.5785C80.2733 56.5897 80.1203 56.601 79.9935 56.616C79.9801 56.616 79.9466 56.6216 79.8683 56.6385L79.8626 56.7361C79.9296 56.7661 79.9801 56.7999 80.0136 56.8392C80.0548 56.8899 80.0754 56.9424 80.0754 56.9931C80.0754 57.0512 80.0476 57.1319 79.9878 57.2406C79.9131 57.3757 79.8178 57.5014 79.7024 57.6158L79.6612 57.6552L79.622 57.6139C79.5921 57.582 79.5602 57.5427 79.5246 57.4958L79.1964 57.0925C79.1217 57.0005 79.0583 56.9293 79.0114 56.8824C78.879 56.7548 78.795 56.6648 78.7559 56.6123L78.7317 56.5785L78.7579 56.5448C78.7765 56.5203 78.8043 56.5016 78.8399 56.4903C78.9089 56.466 79.0022 56.4134 79.114 56.3365C79.2242 56.2615 79.2969 56.1902 79.3288 56.1264C79.3701 56.0383 79.3922 55.9426 79.3922 55.845C79.3922 55.6819 79.3196 55.5374 79.1722 55.4061C79.0248 55.2748 78.8193 55.2073 78.5637 55.2073C78.3751 55.2073 78.3081 55.2185 78.2855 55.226C78.269 55.2316 78.2406 55.241 78.2051 55.2504C78 55.3048 77.8393 55.3986 77.7295 55.5318C77.6192 55.665 77.5672 55.8094 77.5672 55.9726C77.5672 56.0495 77.5801 56.1246 77.6064 56.2014C77.6321 56.2784 77.6641 56.3422 77.6996 56.3928C77.7388 56.4472 77.8264 56.5541 77.9609 56.7098L78.0036 56.7604L77.9475 56.7961C77.916 56.8148 77.8676 56.8374 77.7893 56.8693C77.6641 56.9218 77.526 57.0005 77.3802 57.1056C77.2364 57.2069 77.1267 57.3288 77.052 57.4695C76.9773 57.6083 76.9396 57.7584 76.9396 57.9141C76.9396 58.1692 77.0314 58.3812 77.2086 58.5444C77.3894 58.7095 77.6733 58.7939 78.0521 58.7939C78.4926 58.7939 78.9053 58.6401 79.2783 58.3343L79.316 58.3043L79.3515 58.3362C79.5437 58.5106 79.7209 58.6363 79.8812 58.7095C80.0007 58.7638 80.1331 58.792 80.2733 58.792C80.4299 58.792 80.5551 58.7676 80.6448 58.7169C80.7808 58.6419 80.8854 58.5462 80.9544 58.4375C81.0219 58.3286 81.057 58.2405 81.057 58.1767C81.057 58.1561 81.0498 58.1392 81.0348 58.1242C81.0178 58.1073 80.9993 58.0998 80.9771 58.0998M78.2092 55.4624C78.2911 55.3948 78.388 55.3592 78.4962 55.3592C78.5992 55.3592 78.6868 55.3817 78.7615 55.4267C78.8399 55.4736 78.8883 55.5243 78.9053 55.5806C78.9424 55.71 78.961 55.8075 78.961 55.875C78.961 56.012 78.9388 56.1151 78.896 56.1883C78.8327 56.2896 78.7373 56.3684 78.6101 56.4247L78.5786 56.4397L78.5524 56.4172C78.3622 56.2596 78.235 56.1283 78.1644 56.0157C78.1062 55.9257 78.0783 55.8375 78.0783 55.7513C78.0783 55.6293 78.1211 55.5336 78.2071 55.4624M79.1403 58.1842C78.9501 58.3643 78.7353 58.4562 78.5003 58.4562C78.3715 58.4562 78.2484 58.4243 78.1345 58.3605C78.0222 58.2987 77.9274 58.2273 77.8542 58.1467C77.7795 58.066 77.7104 57.9535 77.6471 57.8109C77.6115 57.7284 77.593 57.6402 77.593 57.5464C77.593 57.402 77.6399 57.2707 77.7295 57.1582C77.8192 57.0493 77.9382 56.963 78.0861 56.903L78.1211 56.888L78.1474 56.918C78.3282 57.115 78.5096 57.3213 78.6812 57.5314L79.0207 57.9422C79.0413 57.9704 79.0619 57.9948 79.0846 58.0191C79.1124 58.0492 79.1346 58.0811 79.1516 58.1148L79.1722 58.1523L79.1403 58.1823V58.1842Z" fill="#005D45"/>
</g>
<g id="Group 129197">
<path id="Vector_70" d="M71.3126 18.2894C71.3126 27.6648 63.7498 35.2657 54.4213 35.2657C45.0927 35.2657 37.532 27.6648 37.532 18.2894C37.532 8.914 45.0948 1.31311 54.4233 1.31311C63.7519 1.31311 71.3147 8.914 71.3147 18.2894" fill="#008034"/>
<path id="Vector_71" d="M71.3126 18.2894C71.3126 27.6648 63.7498 35.2657 54.4213 35.2657C45.0927 35.2657 37.532 27.6648 37.532 18.2894C37.532 8.914 45.0948 1.31311 54.4233 1.31311C63.7519 1.31311 71.3147 8.914 71.3147 18.2894" fill="url(#paint0_radial_1060_4328)"/>
<path id="Vector_72" d="M54.4233 36.5825C44.3873 36.5825 36.2217 28.3776 36.2217 18.2913C36.2217 8.2049 44.3873 0 54.4233 0C64.4593 0 72.6229 8.2049 72.6229 18.2913C72.6229 28.3776 64.4593 36.5825 54.4233 36.5825ZM54.4233 1.0561C44.968 1.0561 37.2779 8.78831 37.2779 18.2913C37.2779 27.7942 44.968 35.5264 54.4233 35.5264C63.8786 35.5264 71.5666 27.7942 71.5666 18.2913C71.5666 8.78831 63.8765 1.0561 54.4233 1.0561Z" fill="url(#paint1_linear_1060_4328)"/>
<path id="Vector_73" d="M64.4645 25.5247C64.5078 25.549 64.5861 25.5959 64.5655 25.6709C64.5526 25.7178 64.5114 25.7423 64.4403 25.7423C64.4125 25.7423 64.3862 25.7385 64.3769 25.7366C63.9755 25.6334 63.5463 25.5828 63.1001 25.5828C60.8068 25.5828 57.8425 27.3198 55.4683 29.0493C55.9408 29.4414 56.4483 29.8897 56.9373 30.3493C57.0084 30.2874 57.0326 30.2705 57.0996 30.2142C57.3108 30.0379 57.5123 29.916 57.7137 29.8428C57.8353 29.7978 57.9564 29.7884 58.0739 29.8128C58.3016 29.8597 58.4511 30.0848 58.4268 30.3493C58.4062 30.5763 58.2511 30.7507 58.0646 30.7582C57.9173 30.762 57.7864 30.6888 57.7122 30.5594C57.6205 30.6344 57.5344 30.7057 57.4561 30.7808C57.419 30.8164 57.3835 30.852 57.3479 30.8877L57.4953 31.0171C57.6112 31.1184 57.723 31.2178 57.8369 31.3135C58.061 31.5011 58.3052 31.6905 58.5799 31.8124C58.6659 31.8499 58.7777 31.895 58.8839 31.8856C58.9364 31.8818 58.9926 31.865 59.0518 31.8481L59.0931 31.8368C59.0931 31.8368 59.1044 31.8331 59.1101 31.8293C59.1435 31.8143 59.177 31.7974 59.2183 31.7899C59.2332 31.7881 59.2497 31.7843 59.2688 31.7843C59.3543 31.7843 59.4274 31.8274 59.4702 31.9025C59.5166 31.9813 59.53 32.1051 59.5058 32.2064C59.4852 32.2889 59.4403 32.3471 59.3976 32.3977C59.2183 32.6003 59.0019 32.7166 58.7535 32.7429C58.7087 32.7485 58.6618 32.7503 58.6154 32.7503C58.5685 32.7503 58.5222 32.7485 58.4737 32.7429C58.2851 32.7241 58.0873 32.6641 57.8688 32.5628C57.5422 32.4108 57.2191 32.2045 56.8517 31.9119L56.5508 31.6699C56.4519 31.7655 56.3494 31.8612 56.2448 31.955C56.1216 32.0657 55.9686 32.1895 55.7764 32.2551C55.7244 32.2739 55.6682 32.2833 55.6084 32.2833C55.5863 32.2833 55.5657 32.2833 55.543 32.2795C55.5172 32.2777 55.491 32.2739 55.4647 32.2664C55.3003 32.2345 55.17 32.0826 55.138 31.8912C55.1066 31.6886 55.1813 31.4879 55.3266 31.3904C55.4683 31.2966 55.644 31.3153 55.7764 31.441C55.795 31.4579 55.8099 31.4766 55.8249 31.4954C55.9032 31.4166 55.9799 31.3341 56.0562 31.2478C55.56 30.7976 54.9216 30.3343 54.343 29.8747C53.77 30.3343 53.1672 30.7976 52.6705 31.2478C52.7473 31.3341 52.8235 31.4166 52.9024 31.4954C52.9173 31.4748 52.9338 31.456 52.9508 31.441C53.0832 31.3172 53.2605 31.2966 53.4006 31.3904C53.5444 31.486 53.6206 31.6868 53.5892 31.8912C53.5593 32.0826 53.4264 32.2326 53.2625 32.2664C53.2362 32.272 53.21 32.2758 53.1842 32.2795C53.1615 32.2814 53.1394 32.2833 53.1188 32.2833C53.059 32.2833 53.0049 32.2739 52.9508 32.2551C52.7586 32.1895 52.6056 32.0676 52.4824 31.955C52.3778 31.8612 52.2748 31.7655 52.1759 31.6699L51.8755 31.9119C51.5097 32.2026 51.185 32.4108 50.8584 32.5628C50.6384 32.6641 50.4405 32.7241 50.2535 32.7429C50.205 32.7485 50.1587 32.7503 50.1118 32.7503C50.0649 32.7503 50.0185 32.7485 49.9737 32.7429C49.7254 32.7166 49.5069 32.6003 49.3296 32.3977C49.2869 32.3471 49.242 32.2908 49.2214 32.2064C49.1952 32.1051 49.2101 31.9831 49.2549 31.9025C49.2982 31.8256 49.3709 31.7843 49.4569 31.7843C49.4755 31.7843 49.4919 31.7862 49.5069 31.7899C49.5481 31.7974 49.5837 31.8143 49.6151 31.8293C49.6208 31.8312 49.6264 31.835 49.6321 31.8368L49.6733 31.8481C49.7331 31.865 49.7908 31.88 49.8413 31.8856C49.9474 31.895 50.0613 31.8499 50.1453 31.8124C50.4199 31.6905 50.6662 31.5011 50.8883 31.3135C51.0021 31.2178 51.116 31.1184 51.2299 31.0171L51.3772 30.8877C51.3417 30.852 51.3061 30.8164 51.269 30.7808C51.1907 30.7057 51.1047 30.6326 51.0135 30.5594C50.9367 30.6907 50.8079 30.762 50.6605 30.7582C50.4755 30.7507 50.3189 30.5763 50.2983 30.3493C50.2741 30.0848 50.4235 29.8597 50.6512 29.8128C50.7687 29.7884 50.8903 29.7978 51.0114 29.8428C51.2129 29.9179 51.4148 30.0379 51.6256 30.2142C51.6926 30.2705 51.7168 30.2874 51.7879 30.3493C52.2918 29.8766 52.7828 29.447 53.2625 29.0531C50.8883 27.3217 47.9225 25.5828 45.6266 25.5828C45.1809 25.5828 44.7512 25.6353 44.3503 25.7366C44.341 25.7385 44.3147 25.7423 44.2864 25.7423C44.2174 25.7423 44.1746 25.7178 44.1617 25.6709C44.1411 25.5959 44.2215 25.549 44.2622 25.5247C44.4059 25.4402 45.203 25.127 46.4592 25.127C48.2286 25.127 50.8996 25.6391 54.2925 28.1377L54.3615 28.1921L54.3765 28.1808C57.7699 25.6803 60.4837 25.127 62.2531 25.127C63.5092 25.127 64.3063 25.4402 64.4496 25.5247M55.3642 24.4517C55.1586 24.7949 54.8747 25.7329 54.8747 25.746C55.1756 25.5022 56.0768 25.3183 56.4632 25.2358C59.2275 24.6374 59.3991 22.12 59.4831 21.6267C59.4104 21.7673 59.2147 22.0637 57.5236 22.1406C56.6389 22.1819 55.17 22.2907 54.4064 23.7483C54.5388 24.0165 54.6434 24.3166 54.7217 24.6467C55.6703 22.3714 58.0126 22.6828 58.4098 22.5983C58.0141 22.7709 56.3179 22.8553 55.3622 24.4517M54.3224 27.1172L54.7387 26.9109C54.6377 22.4483 52.232 22.195 51.0691 22.1406C49.3781 22.0637 49.1823 21.7655 49.1112 21.6267C49.1936 22.12 49.3673 24.6374 52.1316 25.2358C52.5252 25.3221 53.111 25.4027 53.3929 25.6541C53.0703 22.7371 50.6683 22.8103 50.1844 22.5983C50.6399 22.694 54.0632 21.9681 53.9045 26.9109L54.3224 27.1172ZM52.9188 14.2621C52.8441 12.9847 54.2982 10.7149 54.2982 10.7149C54.2982 10.7149 55.6924 13.041 55.6775 14.2621C55.6661 15.1438 55.0597 15.8585 54.2982 15.8585C53.5366 15.8585 52.9714 15.1419 52.9188 14.2621ZM54.8974 15.3089C54.834 15.3201 54.7665 15.3276 54.7016 15.3276C53.9792 15.3276 53.3949 14.6504 53.3949 13.8157C53.3949 13.6956 53.4228 13.5418 53.4676 13.3655C53.3259 13.7407 53.2234 14.0839 53.2234 14.2959C53.2234 14.9768 53.701 15.5302 54.2889 15.5302C54.5146 15.5302 54.7258 15.4477 54.8974 15.3089ZM50.5075 18.9798C50.5075 21.5235 54.106 22.3357 54.106 22.3357V21.546C54.106 18.9067 50.5075 18.1901 50.5075 18.1901V18.9798ZM54.4775 21.5479V22.3376C54.4775 22.3376 58.076 21.5254 58.076 18.9818V18.192C58.076 18.192 54.4775 18.9086 54.4775 21.5479ZM51.4148 16.1173C51.4148 18.1864 54.1508 18.8467 54.1508 18.8467V18.2051C54.1508 16.0592 51.4148 15.4758 51.4148 15.4758V16.1173ZM54.4326 18.2051V18.8467C54.4326 18.8467 57.1686 18.1864 57.1686 16.1173V15.4758C57.1686 15.4758 54.4326 16.0573 54.4326 18.2033M44.7254 11.7129C47.1012 9.31366 48.6279 8.88786 50.5297 8.58773C48.583 9.82953 46.7653 12.7165 47.331 14.7498C48.3594 12.5926 50.153 10.4861 51.8085 9.717C50.8733 11.0357 50.8414 12.6789 51.7431 14.0802C51.9522 12.2606 53.2213 10.5123 54.2817 9.33994C55.3415 10.5105 56.6106 12.2606 56.8177 14.0802C57.7194 12.677 57.6895 11.0357 56.7528 9.717C58.4083 10.4842 60.2019 12.5926 61.2303 14.7498C61.7976 12.7165 59.9777 9.82953 58.0332 8.58773C59.9329 8.88601 61.4596 9.31366 63.8359 11.7129C63.0517 8.50333 60.2895 7.39097 58.0816 6.99515C60.5115 6.78504 60.9933 7.03452 63.1398 7.92744C60.8104 5.62578 59.177 5.21121 56.844 5.43447C57.2433 5.08367 57.6262 4.89421 58.214 4.73852C57.2361 4.3521 55.7038 4.55469 55.1081 5.12869C55.1081 5.12869 54.9907 4.07448 54.2889 3.64866V3.63928C54.2889 3.63928 54.2832 3.64303 54.2817 3.64491C54.2796 3.64303 54.276 3.64116 54.274 3.63928V3.64866C53.5722 4.07448 53.4547 5.12869 53.4547 5.12869C52.8591 4.55469 51.3267 4.3521 50.3488 4.73852C50.9367 4.89421 51.3195 5.08367 51.7188 5.43447C49.3858 5.21121 47.7525 5.62578 45.4236 7.92744C47.5696 7.03452 48.0513 6.78694 50.4812 6.99515C48.2734 7.39097 45.5127 8.50333 44.7269 11.7129" fill="url(#paint2_linear_1060_4328)"/>
</g>
</g>
<defs>
<radialGradient id="paint0_radial_1060_4328" cx="0" cy="0" r="1" gradientUnits="userSpaceOnUse" gradientTransform="translate(53.5459 17.2776) scale(18.4759 17.8262)">
<stop stop-opacity="0"/>
<stop offset="0.12" stop-opacity="0"/>
<stop offset="0.15" stop-opacity="0"/>
<stop offset="0.87" stop-opacity="0.2916"/>
<stop offset="1"/>
</radialGradient>
<linearGradient id="paint1_linear_1060_4328" x1="40.2308" y1="25.8715" x2="72.4399" y2="8.83978" gradientUnits="userSpaceOnUse">
<stop stop-color="#C68D00"/>
<stop offset="0.25" stop-color="#FFD740"/>
<stop offset="0.34" stop-color="#F4C833"/>
<stop offset="0.51" stop-color="#D7A313"/>
<stop offset="0.6" stop-color="#C68D00"/>
<stop offset="1" stop-color="#FFD740"/>
</linearGradient>
<linearGradient id="paint2_linear_1060_4328" x1="49.3502" y1="4.76291" x2="59.5697" y2="33.0422" gradientUnits="userSpaceOnUse">
<stop stop-color="#C68D00"/>
<stop offset="0.05" stop-color="#D2A32A"/>
<stop offset="0.1" stop-color="#DFB955"/>
<stop offset="0.16" stop-color="#EACC78"/>
<stop offset="0.22" stop-color="#F2DA94"/>
<stop offset="0.27" stop-color="#F8E4A8"/>
<stop offset="0.33" stop-color="#FBEAB4"/>
<stop offset="0.39" stop-color="#FDEDB8"/>
<stop offset="0.58" stop-color="#FDEDB8"/>
<stop offset="0.65" stop-color="#F5E09F"/>
<stop offset="0.79" stop-color="#E3C061"/>
<stop offset="1" stop-color="#C68D00"/>
</linearGradient>
</defs>
</svg>
