<svg width="26" height="26" viewBox="0 0 26 26" fill="none" xmlns="http://www.w3.org/2000/svg">
<g id="elements">
<g id="Icon">
<path d="M8.88134 17.1189C8.53963 16.7772 8.53963 16.2232 8.88134 15.8815L15.8813 8.88147C16.223 8.53976 16.7771 8.53976 17.1188 8.88147C17.4605 9.22318 17.4605 9.7772 17.1188 10.1189L10.1188 17.1189C9.77707 17.4606 9.22305 17.4606 8.88134 17.1189Z" fill="#067647"/>
<path d="M9.50006 8.33352C8.85572 8.33352 8.33339 8.85585 8.33339 9.50019C8.33339 10.1445 8.85572 10.6669 9.50006 10.6669L9.51261 10.6669C10.1569 10.6669 10.6793 10.1445 10.6793 9.50019C10.6793 8.85585 10.1569 8.33352 9.51261 8.33352L9.50006 8.33352Z" fill="#067647"/>
<path d="M16.4875 15.3335C15.8432 15.3335 15.3208 15.8559 15.3208 16.5002C15.3208 17.1445 15.8432 17.6669 16.4875 17.6669L16.5001 17.6669C17.1444 17.6669 17.6667 17.1445 17.6667 16.5002C17.6667 15.8559 17.1444 15.3335 16.5001 15.3335L16.4875 15.3335Z" fill="#067647"/>
<path fill-rule="evenodd" clip-rule="evenodd" d="M13.2049 25.5342C13.0685 25.5444 12.9316 25.5444 12.7952 25.5342C12.2077 25.4902 11.7315 25.225 11.2965 24.8847C10.8873 24.5645 10.4347 24.1118 9.90524 23.5824L9.86817 23.5453C9.33528 23.0124 9.21469 22.9098 9.08618 22.8508C9.06373 22.8405 9.04089 22.8311 9.01772 22.8225C8.88517 22.7733 8.72733 22.7606 7.97372 22.7606L7.78818 22.7606C6.95846 22.7606 6.24923 22.7607 5.6825 22.6845C5.07735 22.6031 4.50539 22.4207 4.04246 21.9578C3.57952 21.4949 3.39713 20.9229 3.31577 20.3177C3.23958 19.751 3.23961 19.0418 3.23966 18.2121L3.23966 18.0265C3.23966 17.2729 3.22695 17.1151 3.17776 16.9825C3.16917 16.9594 3.15971 16.9365 3.14941 16.9141C3.09046 16.7856 2.98784 16.665 2.45495 16.1321L2.41792 16.0951C1.88844 15.5656 1.43571 15.1129 1.11557 14.7037C0.775193 14.2687 0.510082 13.7926 0.466054 13.205C0.455833 13.0687 0.455833 12.9317 0.466054 12.7954C0.510083 12.2078 0.775196 11.7317 1.11557 11.2966C1.4357 10.8875 1.8884 10.4348 2.41785 9.90539L2.45495 9.8683C2.98784 9.33541 3.09046 9.21482 3.14941 9.08631C3.15971 9.06385 3.16917 9.04102 3.17777 9.01785C3.22695 8.8853 3.23966 8.72746 3.23966 7.97385L3.23966 7.78832C3.23961 6.95858 3.23958 6.24937 3.31577 5.68263C3.39713 5.07748 3.57952 4.50552 4.04246 4.04259C4.50539 3.57965 5.07735 3.39726 5.68249 3.3159C6.24924 3.23971 6.95845 3.23975 7.78819 3.23979L7.97372 3.23979C8.72733 3.23979 8.88517 3.22708 9.01772 3.1779C9.04089 3.1693 9.06372 3.15984 9.08618 3.14954C9.21469 3.09059 9.33528 2.98797 9.86817 2.45508L9.90519 2.41805C10.4346 1.88858 10.8873 1.43584 11.2965 1.1157C11.7315 0.775323 12.2077 0.510213 12.7952 0.466184C12.9316 0.455963 13.0685 0.455964 13.2049 0.466184C13.7924 0.510213 14.2686 0.775327 14.7036 1.1157C15.1128 1.43582 15.5654 1.8885 16.0948 2.41792L16.1319 2.45508C16.6648 2.98797 16.7854 3.09059 16.9139 3.14954C16.9364 3.15984 16.9592 3.1693 16.9824 3.1779C17.1149 3.22708 17.2728 3.23979 18.0264 3.23979L18.2119 3.23979C19.0417 3.23975 19.7509 3.23971 20.3176 3.3159C20.9228 3.39726 21.4947 3.57965 21.9577 4.04259C22.4206 4.50552 22.603 5.07748 22.6843 5.68263C22.7605 6.24935 22.7605 6.95855 22.7605 7.78827L22.7605 7.97385C22.7605 8.72746 22.7732 8.8853 22.8223 9.01785C22.8309 9.04102 22.8404 9.06386 22.8507 9.08631C22.9097 9.21482 23.0123 9.33541 23.5452 9.8683L23.5822 9.90537C24.1117 10.4348 24.5644 10.8874 24.8845 11.2966C25.2249 11.7317 25.49 12.2078 25.5341 12.7954C25.5443 12.9317 25.5443 13.0687 25.5341 13.205C25.49 13.7926 25.2249 14.2687 24.8845 14.7037C24.5644 15.1129 24.1117 15.5656 23.5822 16.095L23.5452 16.1321C23.0123 16.665 22.9097 16.7856 22.8507 16.9141C22.8404 16.9365 22.8309 16.9594 22.8223 16.9825C22.7732 17.1151 22.7605 17.2729 22.7605 18.0265L22.7605 18.2121C22.7605 19.0418 22.7605 19.751 22.6843 20.3177C22.603 20.9229 22.4206 21.4949 21.9577 21.9578C21.4947 22.4207 20.9228 22.6031 20.3176 22.6845C19.7509 22.7607 19.0417 22.7606 18.212 22.7606L18.0264 22.7606C17.2728 22.7606 17.1149 22.7733 16.9824 22.8225C16.9592 22.8311 16.9364 22.8405 16.9139 22.8508C16.7854 22.9098 16.6648 23.0124 16.1319 23.5453L16.0949 23.5824C15.5655 24.1118 15.1128 24.5645 14.7036 24.8847C14.2686 25.225 13.7924 25.4902 13.2049 25.5342ZM12.926 23.7891C12.9753 23.7928 13.0248 23.7928 13.0741 23.7891C13.177 23.7814 13.3266 23.7401 13.6253 23.5064C13.9403 23.2599 14.3177 22.8847 14.8945 22.3079L14.975 22.2273C15.3822 21.8191 15.7332 21.4671 16.1843 21.2602C16.2464 21.2317 16.3095 21.2056 16.3736 21.1818C16.8389 21.0091 17.3359 21.0098 17.9125 21.0105L18.1536 21.0106C19.0579 21.0106 19.6482 21.0087 20.0844 20.9501C20.4955 20.8948 20.6366 20.8039 20.7202 20.7204C20.8038 20.6368 20.8947 20.4957 20.9499 20.0846C21.0086 19.6483 21.0105 19.0581 21.0105 18.1537L21.0104 17.9126C21.0096 17.3361 21.009 16.839 21.1817 16.3738C21.2054 16.3097 21.2316 16.2465 21.2601 16.1844C21.467 15.7333 21.8189 15.3823 22.2271 14.9751L22.3077 14.8946C22.8845 14.3178 23.2598 13.9404 23.5063 13.6254C23.7399 13.3267 23.7812 13.1771 23.789 13.0742C23.7926 13.0249 23.7926 12.9754 23.789 12.9261C23.7812 12.8233 23.7399 12.6736 23.5063 12.375C23.2598 12.06 22.8845 11.6825 22.3077 11.1057L22.2271 11.0253C21.8189 10.6181 21.467 10.2671 21.2601 9.81599C21.2316 9.75387 21.2054 9.6907 21.1817 9.62662C21.009 9.16136 21.0096 8.66431 21.0104 8.08776L21.0105 7.84666C21.0105 6.94231 21.0086 6.35207 20.9499 5.91581C20.8947 5.50472 20.8038 5.36361 20.7202 5.28002C20.6366 5.19644 20.4955 5.10557 20.0844 5.0503C19.6482 4.99164 19.0579 4.98979 18.1536 4.98979L17.9125 4.98988C17.3359 4.9906 16.8389 4.99123 16.3736 4.81859C16.3095 4.79482 16.2464 4.76866 16.1843 4.74015C15.7332 4.53323 15.3822 4.18132 14.975 3.77313L14.8945 3.69252C14.3177 3.1157 13.9403 2.74044 13.6253 2.49398C13.3266 2.26031 13.177 2.219 13.0741 2.21129C13.0248 2.20759 12.9753 2.2076 12.926 2.21129C12.8231 2.219 12.6735 2.26031 12.3749 2.49398C12.0598 2.74043 11.6824 3.1157 11.1056 3.69251L11.0251 3.77314C10.618 4.18133 10.2669 4.53323 9.81586 4.74015C9.75374 4.76866 9.69057 4.79482 9.62649 4.8186C9.16122 4.99123 8.66417 4.99061 8.08761 4.98988L7.84653 4.98979C6.94218 4.98979 6.35194 4.99164 5.91568 5.0503C5.50458 5.10557 5.36348 5.19644 5.27989 5.28002C5.19631 5.36361 5.10544 5.50472 5.05017 5.91581C4.99151 6.35207 4.98966 6.94231 4.98966 7.84665L4.98975 8.08774C4.99047 8.6643 4.9911 9.16135 4.81846 9.62662C4.79469 9.6907 4.76853 9.75387 4.74002 9.81599C4.5331 10.2671 4.18119 10.6181 3.773 11.0253L3.69239 11.1057C3.11557 11.6825 2.74031 12.06 2.49385 12.375C2.26018 12.6736 2.21887 12.8233 2.21116 12.9261C2.20746 12.9754 2.20747 13.0249 2.21116 13.0742C2.21887 13.1771 2.26018 13.3267 2.49385 13.6254C2.7403 13.9404 3.11557 14.3178 3.69238 14.8946L3.773 14.9751C4.1812 15.3823 4.5331 15.7333 4.74002 16.1844C4.76853 16.2465 4.79469 16.3097 4.81847 16.3738C4.9911 16.839 4.99048 17.3361 4.98975 17.9126L4.98966 18.1537C4.98966 19.0581 4.99151 19.6483 5.05017 20.0846C5.10544 20.4957 5.19631 20.6368 5.27989 20.7204C5.36348 20.8039 5.50459 20.8948 5.91568 20.9501C6.35194 21.0087 6.94218 21.0106 7.84652 21.0106L8.08761 21.0105C8.66416 21.0098 9.16123 21.0091 9.62649 21.1818C9.69057 21.2056 9.75374 21.2317 9.81586 21.2602C10.2669 21.4671 10.618 21.8191 11.0251 22.2273L11.1056 22.3079C11.6824 22.8847 12.0598 23.2599 12.3749 23.5064C12.6735 23.7401 12.8231 23.7814 12.926 23.7891Z" fill="#067647"/>
</g>
</g>
</svg>
