<svg width="16" height="16" viewBox="0 0 16 16" fill="none" xmlns="http://www.w3.org/2000/svg">
<path fill-rule="evenodd" clip-rule="evenodd" d="M6.33333 2.5C4.76853 2.5 3.5 3.76853 3.5 5.33333L3.5 9.00004C3.5 11.4853 5.51472 13.5 8 13.5C10.4853 13.5 12.5 11.4853 12.5 9.00004V8.00004C12.5 7.7239 12.7239 7.50004 13 7.50004C13.2761 7.50004 13.5 7.7239 13.5 8.00004V9.00004C13.5 12.0376 11.0376 14.5 8 14.5C4.96243 14.5 2.5 12.0376 2.5 9.00004L2.5 5.33333C2.5 3.21624 4.21624 1.5 6.33333 1.5C8.45043 1.5 10.1667 3.21624 10.1667 5.33333L10.1667 9C10.1667 10.1966 9.19662 11.1667 8 11.1667C6.80338 11.1667 5.83333 10.1966 5.83333 9V6.33333C5.83333 6.05719 6.05719 5.83333 6.33333 5.83333C6.60948 5.83333 6.83333 6.05719 6.83333 6.33333L6.83333 9C6.83333 9.64433 7.35567 10.1667 8 10.1667C8.64433 10.1667 9.16667 9.64433 9.16667 9L9.16667 5.33333C9.16667 3.76853 7.89814 2.5 6.33333 2.5Z" fill="#161616"/>
</svg>
