<svg width="18" height="18" viewBox="0 0 18 18" fill="none" xmlns="http://www.w3.org/2000/svg">
<g id="elements">
<g id="Icon">
<path fill-rule="evenodd" clip-rule="evenodd" d="M0.041626 2.54175C0.041626 1.16104 1.16091 0.041748 2.54163 0.041748C3.92234 0.041748 5.04163 1.16104 5.04163 2.54175C5.04163 3.92246 3.92234 5.04175 2.54163 5.04175C1.16091 5.04175 0.041626 3.92246 0.041626 2.54175ZM2.54163 1.29175C1.85127 1.29175 1.29163 1.85139 1.29163 2.54175C1.29163 3.2321 1.85127 3.79175 2.54163 3.79175C3.23198 3.79175 3.79163 3.2321 3.79163 2.54175C3.79163 1.85139 3.23198 1.29175 2.54163 1.29175Z" fill="white"/>
<path fill-rule="evenodd" clip-rule="evenodd" d="M2.29601 6.29175H2.78726C3.14794 6.29171 3.47863 6.29167 3.74764 6.32784C4.04387 6.36766 4.35698 6.46137 4.6145 6.71889C4.87202 6.97641 4.96572 7.28951 5.00555 7.58575C5.04172 7.85476 5.04168 8.18545 5.04164 8.54612L5.04164 15.704C5.04168 16.0647 5.04172 16.3954 5.00555 16.6644C4.96572 16.9607 4.87202 17.2738 4.6145 17.5313C4.35698 17.7888 4.04387 17.8825 3.74764 17.9223C3.47863 17.9585 3.14793 17.9585 2.78725 17.9584H2.29601C1.93533 17.9585 1.60464 17.9585 1.33563 17.9223C1.03939 17.8825 0.726287 17.7888 0.468768 17.5313C0.211248 17.2738 0.117542 16.9607 0.0777148 16.6644C0.0415474 16.3954 0.0415864 16.0647 0.0416289 15.704L0.0416289 8.54613C0.0415864 8.18545 0.0415474 7.85476 0.0777148 7.58575C0.117542 7.28951 0.211248 6.97641 0.468768 6.71889C0.726287 6.46137 1.03939 6.36766 1.33563 6.32784C1.60464 6.29167 1.93533 6.29171 2.29601 6.29175ZM1.35266 7.60278L1.35469 7.60164C1.3563 7.6008 1.35906 7.59945 1.36327 7.59772C1.38142 7.59025 1.42172 7.57751 1.50219 7.56669C1.67779 7.54308 1.92279 7.54175 2.3333 7.54175H2.74997C3.16047 7.54175 3.40548 7.54308 3.58108 7.56669C3.66154 7.57751 3.70184 7.59025 3.71999 7.59772C3.7242 7.59945 3.72696 7.6008 3.72857 7.60164L3.7306 7.60278L3.73175 7.60481C3.73259 7.60642 3.73394 7.60919 3.73567 7.61339C3.74313 7.63154 3.75588 7.67184 3.7667 7.75231C3.7903 7.92791 3.79163 8.17291 3.79163 8.58342L3.79163 15.6668C3.79163 16.0773 3.7903 16.3223 3.7667 16.4979C3.75588 16.5783 3.74313 16.6186 3.73567 16.6368C3.73394 16.641 3.73259 16.6437 3.73175 16.6454L3.7306 16.6474L3.72857 16.6485C3.72696 16.6494 3.7242 16.6507 3.71999 16.6525C3.70184 16.6599 3.66154 16.6727 3.58108 16.6835C3.40548 16.7071 3.16047 16.7084 2.74997 16.7084H2.3333C1.92279 16.7084 1.67779 16.7071 1.50219 16.6835C1.42172 16.6727 1.38142 16.6599 1.36327 16.6525C1.35906 16.6507 1.3563 16.6494 1.35469 16.6485L1.35266 16.6474L1.35152 16.6454C1.35067 16.6437 1.34933 16.641 1.3476 16.6368C1.34013 16.6186 1.32739 16.5783 1.31657 16.4979C1.29296 16.3223 1.29163 16.0773 1.29163 15.6668L1.29163 8.58342C1.29163 8.17291 1.29296 7.92791 1.31657 7.75231C1.32739 7.67184 1.34013 7.63154 1.3476 7.61339C1.34933 7.60919 1.35067 7.60642 1.35152 7.60481L1.35266 7.60278Z" fill="white"/>
<path fill-rule="evenodd" clip-rule="evenodd" d="M8.54601 6.29175C8.78733 6.29173 9.75921 6.29172 9.9437 6.30862C10.1432 6.32689 10.3605 6.3689 10.5697 6.49135C10.7858 6.61774 10.9656 6.7976 11.092 7.01362L11.102 7.03103C11.7601 6.56633 12.5545 6.29195 13.4139 6.29195C15.6599 6.29195 17.9583 8.2038 17.9583 10.667L17.9572 15.288C17.9572 15.6486 17.9571 15.9793 17.9209 16.2482C17.881 16.5444 17.7873 16.8574 17.5298 17.1148C17.2723 17.3723 16.9592 17.466 16.663 17.5058C16.3941 17.5419 16.0635 17.5419 15.7029 17.5419H15.2126C14.852 17.5419 14.5213 17.5419 14.2523 17.5058C13.956 17.4659 13.6429 17.3722 13.3854 17.1147C13.1279 16.8572 13.0342 16.5441 12.9944 16.2479C12.9582 15.9789 12.9582 15.6482 12.9583 15.2875L12.9583 11.5002C12.9583 11.1189 12.6762 10.8752 12.4065 10.8752C11.9755 10.8752 11.7438 11.0405 11.5846 11.3049C11.3973 11.6157 11.2917 12.1074 11.2917 12.7502L11.2917 15.7041C11.2917 16.0647 11.2917 16.3954 11.2556 16.6644C11.2157 16.9607 11.122 17.2738 10.8645 17.5313C10.607 17.7888 10.2939 17.8825 9.99765 17.9223C9.72864 17.9585 9.39794 17.9585 9.03727 17.9584H8.54599C8.18532 17.9585 7.85463 17.9585 7.58563 17.9223C7.28939 17.8825 6.97629 17.7888 6.71877 17.5313C6.46125 17.2738 6.36754 16.9607 6.32771 16.6644C6.29155 16.3954 6.29159 16.0647 6.29163 15.704L6.29163 8.54613C6.29159 8.18545 6.29155 7.85476 6.32771 7.58575C6.36754 7.28951 6.46125 6.97641 6.71877 6.71889C6.97629 6.46137 7.28939 6.36766 7.58563 6.32784C7.85463 6.29167 8.18533 6.29171 8.54601 6.29175ZM8.58329 7.54175C8.17279 7.54175 7.92778 7.54308 7.75218 7.56668C7.69579 7.56449 7.57973 7.59854 7.56656 7.7523C7.54295 7.9279 7.54163 8.17291 7.54163 8.58341L7.54163 15.6667C7.54163 16.0773 7.54295 16.3223 7.56656 16.4979C7.57662 16.5995 7.6945 16.664 7.75218 16.6835C7.92778 16.7071 8.17279 16.7084 8.58329 16.7084H8.99998C9.41048 16.7084 9.65548 16.7071 9.83108 16.6835C9.88842 16.669 10.0058 16.6116 10.0167 16.4979C10.0403 16.3223 10.0416 16.0773 10.0416 15.6668L10.0417 12.7502C10.0417 12.0122 10.156 11.2539 10.5138 10.6599C10.8995 10.0195 11.5378 9.62518 12.4065 9.62518C13.4366 9.62518 14.2083 10.5007 14.2083 11.5002V15.2502C14.2083 15.6607 14.2096 15.9057 14.2332 16.0813C14.2332 16.213 14.3128 16.2351 14.375 16.2523C14.3914 16.2569 14.4066 16.2611 14.4188 16.2669C14.5944 16.2905 14.8394 16.2918 15.2499 16.2918L15.6656 16.2918C16.076 16.2918 16.3209 16.2905 16.4965 16.2669C16.5543 16.2455 16.6724 16.1783 16.6821 16.0814C16.7057 15.9058 16.7071 15.6608 16.7072 15.2504L16.7083 10.6668C16.7082 8.98788 15.0672 7.54195 13.4139 7.54195C12.516 7.54195 11.7036 7.98097 11.1641 8.69011C11.0017 8.90359 10.7212 8.98964 10.467 8.90396C10.2128 8.81827 10.0417 8.57996 10.0417 8.31173C10.0417 8.03759 10.041 7.87423 10.03 7.75374C10.0232 7.6277 9.89359 7.56766 9.82965 7.5534C9.70916 7.54236 9.54581 7.54175 9.27167 7.54175L8.58329 7.54175Z" fill="white"/>
</g>
</g>
</svg>
