<svg width="20" height="15" viewBox="0 0 20 15" fill="none" xmlns="http://www.w3.org/2000/svg">
<rect y="0.573975" width="20" height="14" fill="#006923"/>
<path fill-rule="evenodd" clip-rule="evenodd" d="M8.13775 3.57397C8.12247 3.57397 8.09956 3.58161 8.07029 3.59943C8.00155 3.64525 7.86664 3.78654 7.86154 3.94946C7.85773 4.04237 7.83991 4.04237 7.89973 4.1022C7.94301 4.16329 7.98883 4.1582 8.07538 4.11111C8.12629 4.07292 8.14284 4.05128 8.16066 3.98891C8.18102 3.88709 8.04992 4.03983 8.03338 3.92273C8.0041 3.81581 8.08811 3.76999 8.16702 3.66816C8.16957 3.61725 8.16957 3.57907 8.13775 3.57652V3.57397ZM9.41439 3.58034C9.38893 3.58543 9.35966 3.61852 9.31765 3.69235C9.28838 3.77126 9.15982 3.89091 9.25401 4.13783C9.32784 4.29439 9.35966 4.54768 9.32529 4.83152C9.27183 4.91171 9.26165 4.93971 9.19164 5.0199C9.09491 5.12554 8.98799 5.09882 8.90908 5.05808C8.83271 5.00717 8.77416 4.98172 8.73979 4.82134C8.74616 4.56678 8.76143 4.1442 8.71433 4.0551C8.6456 3.91764 8.53105 3.966 8.48268 4.00801C8.24976 4.22439 8.13393 4.5846 8.06265 4.87353C7.99901 5.08227 7.929 5.02117 7.88064 4.93717C7.76226 4.82516 7.75335 3.95709 7.6108 4.10092C7.38169 4.75515 7.7419 5.47175 7.99265 5.40175C8.17084 5.47812 8.28539 5.13445 8.35922 4.75897C8.41013 4.65333 8.44832 4.6406 8.47377 4.69533C8.46741 5.19428 8.51196 5.30629 8.63924 5.45648C8.92435 5.67795 9.1611 5.48448 9.18019 5.46666L9.40293 5.24519C9.45384 5.19428 9.51749 5.18919 9.58749 5.23501C9.65622 5.29865 9.64731 5.40429 9.79114 5.47684C9.91588 5.52776 10.1768 5.48957 10.2366 5.38393C10.3194 5.24392 10.3385 5.19555 10.3766 5.14209C10.4352 5.06572 10.5357 5.10009 10.5357 5.12427C10.5268 5.16882 10.4683 5.21337 10.5077 5.28974C10.5777 5.34065 10.5943 5.30756 10.635 5.2961C10.7801 5.22737 10.8896 4.91171 10.8896 4.91171C10.896 4.79461 10.8298 4.80352 10.7878 4.8277C10.7305 4.86207 10.7279 4.87353 10.6732 4.90789C10.6007 4.91807 10.4632 4.96517 10.3957 4.85952C10.3257 4.73224 10.3257 4.55659 10.2723 4.42677C10.2723 4.41913 10.1794 4.22693 10.2646 4.21548C10.3066 4.22311 10.4008 4.2473 10.4148 4.16966C10.4606 4.09329 10.3168 3.87691 10.2188 3.76999C10.1348 3.67707 10.0177 3.66562 9.90442 3.75981C9.82424 3.83363 9.83696 3.91509 9.82042 3.99273C9.80132 4.08183 9.80514 4.19257 9.89679 4.31094C9.9757 4.46622 10.1195 4.66733 10.0712 4.94989C10.0712 4.94989 9.98843 5.08481 9.84206 5.06699C9.77841 5.05427 9.67913 5.02881 9.62568 4.63424C9.58749 4.33767 9.63586 3.92146 9.51112 3.72671C9.48185 3.65416 9.45766 3.58288 9.41693 3.5867L9.41439 3.58034ZM9.00963 3.61343C8.97145 3.61725 8.92944 3.6618 8.89508 3.74708C8.8658 3.81326 8.82889 4.15438 8.83525 4.15438C8.8098 4.25621 8.9409 4.29948 9.00072 4.16966C9.08982 3.92782 9.08982 3.82599 9.09491 3.72671C9.08218 3.65034 9.04781 3.61089 9.00963 3.61343ZM10.5027 3.63889C10.4645 3.64398 10.4326 3.66689 10.4212 3.72544C10.4046 3.86036 10.4136 3.93546 10.4365 4.04874C10.453 4.12511 10.5637 4.24984 10.6172 4.32367C10.8756 4.67115 11.1263 5.0199 11.3656 5.38011C11.4038 5.64995 11.4293 5.91215 11.4484 6.17435C11.4891 6.74712 11.4993 7.4599 11.4649 8.06449C11.5718 8.06831 11.7449 7.89011 11.8047 7.63173C11.8429 7.27025 11.792 6.5371 11.7869 6.32327L11.7742 6.02034C12.0542 6.47855 12.3241 6.96223 12.5888 7.49172C12.6868 7.4459 12.6652 6.89986 12.6092 6.82349C12.3953 6.36527 12.1 5.91215 12.0071 5.73777C11.9728 5.67413 11.8569 5.49975 11.7207 5.29738C11.6953 5.00717 11.6673 4.76279 11.6495 4.68897C11.6049 4.38349 11.7742 4.72333 11.7513 4.54641C11.6953 4.24093 11.5273 4.03474 11.3287 3.75472C11.2651 3.66562 11.2651 3.64525 11.1671 3.77763C11.1098 3.91127 11.1098 4.02328 11.1289 4.12765C11.1009 4.08947 11.0691 4.04619 11.0232 3.99019L10.6987 3.71526C10.6541 3.68344 10.5676 3.63507 10.5027 3.63889ZM14.927 3.68598C14.9079 3.68344 14.8888 3.69235 14.8633 3.72671C14.8188 3.7649 14.7717 3.83745 14.7742 3.93036C14.7831 4.08947 14.8124 4.25366 14.8226 4.41404L14.8353 4.47768C14.8175 4.45731 14.8022 4.43949 14.7933 4.43186C14.4789 4.10092 14.9372 4.37585 14.7322 4.12256C14.5604 3.93164 14.5095 3.87309 14.3631 3.75853C14.2867 3.71271 14.2435 3.62107 14.2193 3.77635C14.2091 3.91255 14.1989 4.07165 14.2066 4.1862C14.2066 4.24984 14.274 4.37076 14.3313 4.44077C14.54 4.69915 14.7539 4.97281 14.9677 5.25792C15.0135 5.8396 15.025 6.37291 15.0695 6.95586C15.0644 7.20534 14.9881 7.53627 14.9168 7.56682C14.9168 7.56682 14.8048 7.63046 14.731 7.56045C14.6762 7.53881 14.4611 7.20024 14.4611 7.20024C14.3504 7.09842 14.2766 7.12769 14.1989 7.20024C13.9825 7.40899 13.8833 7.80102 13.7369 8.07085C13.6987 8.13068 13.5931 8.18286 13.4747 8.06576C13.173 7.65337 13.3474 7.0666 13.3118 7.21806C13.0445 7.52099 13.1616 8.02249 13.2227 8.13068C13.3118 8.30887 13.383 8.42343 13.5536 8.5087C13.7127 8.62326 13.8336 8.55325 13.9024 8.47052C14.0602 8.3076 14.0627 7.88884 14.1366 7.80611C14.1875 7.65337 14.3186 7.67882 14.3822 7.74756C14.4459 7.83665 14.5171 7.89393 14.6075 7.9423C14.7551 8.07213 14.9308 8.09504 15.1039 7.97666C15.2223 7.91048 15.2999 7.82393 15.3686 7.65337C15.445 7.45481 15.4068 6.41109 15.3903 5.83069L15.7212 6.30927C15.767 6.8184 15.7887 7.32116 15.7721 7.80229C15.7619 7.89775 16.1069 7.51718 16.1031 7.33644C16.1031 7.17988 16.1056 7.03605 16.1031 6.90368C16.2724 7.17097 16.434 7.44208 16.5867 7.71828C16.6822 7.66737 16.6504 7.12897 16.5906 7.05642C16.4302 6.78658 16.224 6.49637 16.0649 6.26981C16.0331 5.98597 15.9911 5.65122 15.9707 5.54812C15.9414 5.38775 15.9109 5.14718 15.865 4.95753C15.8523 4.88498 15.8141 4.64824 15.8269 4.6266C15.8447 4.57187 15.916 4.6266 15.9503 4.5655C16.0012 4.50823 15.7696 3.90364 15.6512 3.73308C15.6092 3.65671 15.5316 3.68216 15.4374 3.80945C15.3483 3.89091 15.3814 4.07928 15.4145 4.25875C15.501 4.71697 15.5799 5.18028 15.641 5.64613C15.5265 5.4743 15.3865 5.2681 15.249 5.07081L15.2312 4.98172C15.2312 4.97153 15.2134 4.60623 15.1968 4.51968C15.193 4.48404 15.1841 4.47386 15.2223 4.47895C15.2605 4.51204 15.2655 4.51332 15.2897 4.52477C15.3305 4.52986 15.3661 4.46368 15.3406 4.40131L14.9715 3.72162C14.9588 3.70508 14.941 3.6898 14.9206 3.68726L14.927 3.68598ZM3.50977 3.69871C3.43976 3.69617 3.36594 3.7369 3.39521 3.81963C3.37739 3.86418 3.52759 4.01437 3.55432 4.0971C3.57595 4.15693 3.52886 4.3453 3.57977 4.3644C3.62432 4.38349 3.68669 4.23202 3.7096 4.09329C3.72233 4.01692 3.71342 3.75472 3.53522 3.70126C3.52631 3.69871 3.5174 3.69871 3.50722 3.69744L3.50977 3.69871ZM16.518 3.69871C16.5015 3.70126 16.4824 3.72417 16.4544 3.78781C16.3844 3.90236 16.3602 4.10601 16.3882 4.28421C16.5536 5.41702 16.6809 6.51419 16.7064 7.51718C16.6911 7.61391 16.686 7.66482 16.6427 7.78447C16.5435 7.91175 16.434 8.06958 16.3309 8.14595C16.2291 8.22232 16.0101 8.29614 15.9389 8.35215C15.7098 8.48198 15.7098 8.63217 15.8931 8.63853C16.2087 8.60035 16.5829 8.57489 16.84 8.18668C16.9088 8.07849 16.9902 7.7832 16.9928 7.60118C17.0182 6.54474 16.98 5.50739 16.8209 4.74242C16.8108 4.66606 16.7777 4.49677 16.7904 4.47513C16.8095 4.42167 16.9126 4.47895 16.9495 4.41913C17.0042 4.36312 16.6822 3.952 16.5702 3.77635C16.5473 3.73308 16.532 3.69617 16.5142 3.69998L16.518 3.69871ZM13.2049 3.71653C13.1921 3.71908 13.1743 3.73944 13.1387 3.78654C13.0496 4.07419 13.019 4.30839 13.0534 4.48913C13.2825 5.67286 13.5116 6.74839 13.476 7.87484C13.5829 7.87484 13.7076 7.62918 13.7611 7.3848C13.7903 7.04751 13.7407 6.84258 13.7331 6.64657C13.7242 6.44801 13.5091 4.84425 13.4658 4.69533C13.4123 4.41276 13.6745 4.65715 13.6465 4.49423C13.5549 4.28548 13.3283 3.9851 13.2596 3.80308C13.2341 3.75472 13.229 3.71017 13.2087 3.71398L13.2049 3.71653ZM5.1428 3.73944C5.11734 3.74453 5.08807 3.76744 5.07916 3.80308C5.07279 3.82854 5.08934 3.87054 5.06643 3.88327C5.0537 3.896 5.00533 3.88709 5.00788 3.81963C5.00788 3.79672 4.99133 3.77381 4.98242 3.75981C4.97224 3.75472 4.96588 3.75344 4.94806 3.75344C4.92642 3.75344 4.92642 3.75981 4.91496 3.7789C4.90987 3.79672 4.90223 3.81454 4.90223 3.8349C4.89969 3.86036 4.88951 3.86672 4.87296 3.87054C4.85259 3.87054 4.85641 3.87309 4.84114 3.86163C4.82841 3.85272 4.81823 3.8489 4.81823 3.83108C4.81823 3.81199 4.81314 3.78017 4.80804 3.76999C4.79914 3.75726 4.78513 3.75217 4.76986 3.74835C4.68585 3.74835 4.68076 3.84763 4.68458 3.88327C4.67822 3.89091 4.67567 4.06147 4.79023 4.10983C4.94296 4.18366 5.23317 4.15184 5.22299 3.90364C5.22299 3.882 5.21662 3.80817 5.21408 3.78908C5.1988 3.7509 5.16953 3.73817 5.14152 3.74199L5.1428 3.73944ZM7.21241 3.74199C7.15895 3.74453 7.11058 3.75981 7.0724 3.78017C6.97057 3.87818 6.94511 4.03474 7.02657 4.13274C7.10294 4.17093 7.18313 4.2473 7.13095 4.29185C6.90947 4.52732 6.33289 4.92317 6.30361 4.99572V5.00335H6.3087V5.0059C6.33798 5.02499 6.69946 5.02499 6.73892 5.0059H6.74146C6.8662 4.9588 7.45424 4.28675 7.45424 4.28675C7.42369 4.2613 7.39569 4.24093 7.36514 4.2142C7.33205 4.1862 7.33587 4.1582 7.36514 4.1302C7.51025 4.04619 7.46442 3.85909 7.38805 3.77381C7.32441 3.74581 7.26586 3.73562 7.21241 3.73944V3.74199ZM12.6219 3.74199C12.6066 3.74581 12.5875 3.76744 12.5583 3.83108C12.4883 3.94564 12.4412 4.14293 12.4475 4.32749C12.5977 5.3712 12.6435 6.28381 12.7428 7.32753C12.7505 7.42935 12.7352 7.57445 12.669 7.633C12.4195 7.89266 12.0619 8.21086 11.6724 8.35851C11.6304 8.40561 11.7767 8.60544 11.9651 8.60544C12.2808 8.56725 12.5583 8.3916 12.8179 7.92448C12.8854 7.81629 13.0063 7.58336 13.0088 7.40262C13.0343 6.34363 12.9579 5.51885 12.7975 4.75515C12.7886 4.67878 12.795 4.58969 12.8077 4.56932C12.8281 4.54387 12.8968 4.56932 12.935 4.5095C12.9885 4.45349 12.7899 3.99655 12.6779 3.82217C12.655 3.77763 12.6423 3.74071 12.6219 3.74199ZM4.24164 3.77635C4.19836 3.78144 4.15763 3.81454 4.13727 3.86545C4.1309 4.03092 4.12963 4.19638 4.15 4.35167C4.22637 4.62278 4.248 4.8608 4.28492 5.137C4.29764 5.50866 4.07108 5.29738 4.08126 5.11409C4.13218 4.8748 4.11945 4.49932 4.07363 4.40385C4.03544 4.30839 3.99471 4.28548 3.90561 4.30203C3.83561 4.29694 3.6536 4.49295 3.60268 4.82389C3.60268 4.82389 3.55941 4.9919 3.54159 5.14209C3.51613 5.31138 3.40412 5.43229 3.32521 5.11918C3.25775 4.89007 3.21702 4.33003 3.10374 4.45986C3.07064 4.89771 3.03246 5.66904 3.40412 5.74795C3.8547 5.79123 3.60523 4.98681 3.76815 4.84043C3.79997 4.77043 3.85725 4.76915 3.86107 4.85952V5.54303C3.85597 5.7645 4.00108 5.83069 4.11563 5.87651C4.234 5.8676 4.31164 5.87142 4.35747 5.98597L4.41474 7.1697C4.41474 7.1697 4.68713 7.24607 4.69985 6.50401C4.71258 6.06743 4.61076 5.70213 4.67058 5.61685C4.67313 5.53285 4.78004 5.52776 4.85387 5.56976C4.97224 5.65249 5.02442 5.75432 5.20771 5.71359C5.48773 5.63722 5.6532 5.5023 5.65702 5.28847C5.64429 5.08481 5.61883 4.88116 5.52974 4.67751C5.54246 4.64187 5.47882 4.54641 5.49155 4.5095C5.53992 4.58587 5.61629 4.58078 5.63156 4.5095C5.58574 4.35294 5.51192 4.20402 5.39227 4.14038C5.29426 4.05128 5.15043 4.07038 5.09698 4.25112C5.07152 4.45986 5.17334 4.70679 5.32608 4.90916C5.35663 4.98808 5.40245 5.11918 5.38209 5.23755C5.3019 5.28337 5.22171 5.26301 5.15298 5.193C5.15298 5.193 4.93278 5.02754 4.93278 4.98935C4.9926 4.61387 4.94551 4.56932 4.91369 4.4675C4.89078 4.32239 4.82205 4.27657 4.76731 4.17729C4.71131 4.11747 4.63621 4.11747 4.60185 4.17729C4.50257 4.34658 4.54839 4.71188 4.61967 4.87353C4.67058 5.02372 4.7495 5.11791 4.71258 5.11791C4.68204 5.20064 4.61839 5.18155 4.57257 5.08354C4.50893 4.87989 4.49366 4.5795 4.49366 4.44331C4.47457 4.2753 4.45293 3.91509 4.34092 3.82345C4.31164 3.78272 4.27728 3.76872 4.24291 3.77253L4.24164 3.77635ZM5.82248 3.77635C5.80085 3.78144 5.77539 3.79417 5.74611 3.80181C5.65065 3.83108 5.56156 3.91382 5.58956 4.07419C5.70411 4.76152 5.77666 5.28719 5.88994 5.97452C5.90649 6.05598 5.83903 6.16162 5.75248 6.15271C5.60483 6.05089 5.56792 5.84723 5.3159 5.85742C5.13261 5.85742 4.92387 6.05852 4.89842 6.24945C4.86787 6.40218 4.85769 6.56765 4.89842 6.70002C5.0257 6.85276 5.18098 6.83749 5.3159 6.80185C5.42664 6.7573 5.51955 6.64911 5.55774 6.67457C5.58319 6.71657 5.55519 7.07423 5.03588 7.34916C4.71513 7.49427 4.46056 7.52736 4.3231 7.2677C4.23909 7.10478 4.33074 6.48364 4.12199 6.6262C3.5034 8.21977 5.56919 8.44124 5.79957 6.69239C5.81485 6.64147 5.8594 6.59311 5.89249 6.60584C5.90522 6.6122 5.91795 6.63129 5.92304 6.66693C5.87467 8.25032 4.32437 8.35978 4.06217 7.86084C3.99598 7.74374 3.97689 7.48154 3.97053 7.32625C3.9578 7.23079 3.93489 7.17606 3.90689 7.15442C3.84325 7.10733 3.75924 7.23079 3.74142 7.44335C3.71596 7.61518 3.72233 7.66228 3.72233 7.82774C3.80633 9.07893 5.80085 8.54052 6.12542 7.50954C6.28579 6.97495 6.1216 6.57147 6.17633 6.52183L6.18015 6.51928H6.18397L6.19033 6.51674C6.38889 6.73057 6.66637 6.5422 6.72746 6.46964C6.75292 6.43146 6.8191 6.406 6.86493 6.45692C7.01766 6.56638 7.29005 6.51419 7.34605 6.31691C7.37914 6.12598 7.40715 5.92997 7.41351 5.72504C7.31169 5.75686 7.23023 5.77977 7.19713 5.81414C7.1895 5.82305 7.1844 5.83323 7.18186 5.84342L7.1564 6.0127C7.1564 6.01907 7.15386 6.02288 7.15131 6.02543C7.14749 6.03434 7.13858 6.0407 7.13349 6.04452C7.09785 6.06361 7.03548 6.05343 7.03166 6.00125C6.98457 5.78487 6.78728 5.75686 6.66764 6.09416C6.58745 6.1578 6.43853 6.17053 6.4258 6.0738C6.44489 5.84723 6.35325 5.81669 6.17124 5.9236L5.99559 4.59987C6.07196 4.59605 6.14069 4.65078 6.21197 4.56423C6.1356 4.33003 5.9765 3.854 5.88613 3.80817H5.88358L5.87085 3.79545C5.87085 3.7929 5.86703 3.79163 5.86449 3.79035L5.8594 3.78272C5.8543 3.78272 5.84921 3.78017 5.84667 3.7789C5.83776 3.77635 5.83139 3.77635 5.82248 3.77635ZM11.9855 3.78144C11.9066 3.7789 11.82 3.82854 11.8531 3.92782C11.8327 3.98255 12.0224 4.16584 12.0529 4.26512C12.1077 4.41786 12.0109 4.56678 12.0682 4.58841C12.1217 4.61132 12.1955 4.42931 12.221 4.26003C12.2541 4.12256 12.1573 3.84254 12.0173 3.78526L11.9855 3.78272V3.78144ZM7.18313 3.94818C7.21877 3.94564 7.26205 3.97873 7.28496 4.02455C7.30659 4.07547 7.29514 4.12256 7.2595 4.13147C7.22132 4.14038 7.17295 4.10856 7.15004 4.05765C7.12713 4.00673 7.13731 3.95964 7.17549 3.95073H7.18313V3.94818ZM16.0891 4.17984C16.0165 4.17729 15.9363 4.23075 15.9694 4.33894C15.9516 4.39749 16.1222 4.59605 16.1514 4.70551C16.1769 4.78188 16.1132 5.03136 16.1642 5.05427C16.2125 5.07972 16.2787 4.88116 16.3042 4.69788C16.3194 4.59605 16.2456 4.24602 16.1196 4.18366C16.1107 4.18111 16.1005 4.17857 16.0903 4.17857L16.0891 4.17984ZM11.1632 4.30203C11.1722 4.3313 11.1785 4.36058 11.1823 4.39113C11.1976 4.45477 11.2103 4.51841 11.2231 4.58459C11.1671 4.50568 11.1212 4.44204 11.0996 4.41913C10.9723 4.26639 11.1021 4.31985 11.1632 4.30203ZM12.2999 4.85952C12.2719 4.86462 12.2451 4.8888 12.2362 4.92698C12.2286 4.94989 12.2464 4.99063 12.2235 5.00335C12.2108 5.01608 12.1599 5.00844 12.1637 4.93971C12.1637 4.9168 12.1471 4.89262 12.1382 4.87989C12.128 4.87353 12.1217 4.87098 12.1039 4.87098C12.0822 4.87098 12.0822 4.87734 12.0708 4.89644C12.0657 4.91426 12.058 4.93208 12.058 4.95371C12.058 4.97917 12.0479 4.98681 12.03 4.9919C12.0097 4.9919 12.0135 4.9919 11.9969 4.98299C11.9868 4.97026 11.9753 4.96771 11.9753 4.94989C11.9753 4.9308 11.9715 4.90153 11.9651 4.8888C11.9562 4.87607 11.9435 4.87225 11.9269 4.86716C11.8442 4.86716 11.8378 4.9639 11.8429 4.99954C11.8378 5.00717 11.834 5.18028 11.9486 5.22864C12.1039 5.30119 12.3941 5.26683 12.3813 5.0199C12.3813 4.99826 12.375 4.92444 12.3737 4.90535C12.3572 4.86716 12.3279 4.85443 12.3011 4.85825L12.2999 4.85952ZM7.11949 4.91044C7.10167 4.91044 7.07621 4.91553 7.04694 4.93335C6.91075 5.00717 6.85856 5.2261 6.94511 5.35338C7.02148 5.46793 7.14876 5.42593 7.16531 5.42593C7.29896 5.44375 7.37787 5.17646 7.37787 5.17646C7.37787 5.17646 7.38169 5.10009 7.22513 5.24264C7.1564 5.25537 7.14876 5.22992 7.13095 5.19173C7.11567 5.12427 7.11822 5.05172 7.15004 4.98426C7.16531 4.94226 7.15004 4.91553 7.11949 4.91298V4.91044ZM14.442 4.9448C14.3657 4.94098 14.2855 4.99063 14.2638 5.09372C14.2638 5.15482 14.2918 5.18791 14.2867 5.24392C14.2804 5.27574 14.2486 5.29483 14.1696 5.25919C14.1824 5.24646 14.1187 5.15991 14.1187 5.15991C14.0589 5.12173 13.9787 5.15991 13.9253 5.19555C13.896 5.24901 13.8744 5.33938 13.9074 5.43102C13.994 5.59267 14.2931 5.8676 14.4357 5.87015C14.4382 5.72504 14.4522 5.53157 14.4611 5.41193C14.4637 5.36611 14.4739 5.31647 14.5184 5.30501C14.5617 5.29228 14.6368 5.34829 14.6368 5.30119C14.6291 5.20955 14.6113 5.07209 14.5604 5.00844C14.5324 4.97026 14.4879 4.94735 14.4433 4.9448H14.442ZM8.37958 5.45011L8.37576 5.45393C8.37576 5.45393 8.37322 5.45393 8.37195 5.45648C8.35667 5.46921 8.33885 5.49466 8.2994 5.52012C8.23194 5.59649 8.22048 5.65122 8.22303 5.80396C8.22812 5.8205 8.35031 6.16417 8.45595 6.40473C8.52723 6.65548 8.59214 6.94313 8.54505 7.21424C8.37958 7.57318 8.04865 7.8952 7.72662 8.07085C7.56116 8.12177 7.42115 8.10395 7.38296 8.06831C7.28877 8.00467 7.2875 7.89011 7.29387 7.87229V7.86848C7.5637 7.6801 7.873 7.52736 8.11484 7.0195C8.18611 6.82476 8.20902 6.70766 8.13775 6.40855C8.10974 6.29399 8.07411 6.2049 7.99774 6.12344H8.00028C8.0461 6.1018 8.16575 6.18962 8.18484 6.13616C8.15557 5.99106 8.05756 5.79887 7.94937 5.69959C7.85263 5.61049 7.74572 5.60158 7.65917 5.68177C7.55989 5.73777 7.53952 5.93633 7.58662 6.10944C7.64007 6.23926 7.7839 6.26217 7.88573 6.52565C7.88827 6.54347 7.92009 6.72294 7.86918 6.79676C7.82591 6.92659 7.29005 7.34916 7.25186 7.37462L7.24804 7.37717L7.2455 7.37971H7.24295H7.24041V7.37589C7.23786 7.36571 7.24041 7.33771 7.24041 7.29571C7.23659 7.21679 7.26968 7.03732 7.26586 7.0055V7.00296C7.08767 7.11751 7.02785 7.46754 6.99603 7.57191C6.54672 7.8812 6.03759 8.11158 5.74357 8.4247C5.59083 8.66653 6.79747 8.15231 6.93748 8.08995L6.94129 8.09376C6.9693 8.12304 6.97057 8.22486 7.05076 8.31778C7.17804 8.48707 7.44279 8.59144 7.70244 8.52652C8.13775 8.36997 8.38977 8.0734 8.64433 7.74374C8.67997 7.69283 8.73725 7.64955 8.7907 7.69028C8.96508 8.08231 9.47166 8.36233 10.1246 8.39033C10.2774 8.20705 10.2048 8.11668 10.1437 8.07849C10.1246 8.06576 9.81914 7.94612 9.77078 7.82774C9.7415 7.71828 9.81405 7.62027 9.95916 7.54772C10.3792 7.49681 10.7916 7.43953 11.1912 7.31098C11.1951 7.17606 11.274 6.97623 11.3274 6.8884C11.3656 6.82858 11.3873 6.82222 11.3962 6.81458V6.81203H11.3987V6.80821V6.79549L11.33 6.75476L9.9897 6.74966C9.97316 6.7433 9.9617 6.73694 9.95406 6.73057L9.95152 6.72675C9.95152 6.72675 9.94897 6.72675 9.94897 6.72421C9.94897 6.72166 9.94643 6.72166 9.94643 6.72166V6.72039V6.71784V6.7153L9.94897 6.71148C9.95534 6.70384 9.97188 6.69493 9.99098 6.68602C10.3117 6.64402 10.8794 6.5511 10.9176 6.00506C10.9112 5.71995 10.7954 5.53412 10.4466 5.48321C10.1895 5.5023 10.0062 5.7505 10.0355 6.02288C10.0228 6.09543 10.061 6.23926 9.98461 6.25581C9.4933 6.30163 8.95617 6.60965 8.93835 6.83113H8.93581H8.93326H8.93071C8.93071 6.83367 8.9269 6.83367 8.9269 6.83367H8.9218H8.91926H8.91417C8.88235 6.82349 8.84162 6.77003 8.84798 6.69748C8.82889 6.31563 8.70415 5.88287 8.51068 5.55194C8.44068 5.48193 8.40886 5.45393 8.39104 5.45011H8.38722H8.3834H8.37958ZM9.66259 5.65122C9.63713 5.65631 9.60786 5.67922 9.59895 5.71741C9.59258 5.74286 9.61167 5.78359 9.58876 5.79632C9.57604 5.80905 9.52512 5.80141 9.52767 5.73268C9.52767 5.71104 9.51112 5.68686 9.50221 5.67286C9.49203 5.66649 9.48567 5.66522 9.46912 5.66522C9.44748 5.66522 9.44621 5.67031 9.43475 5.68813C9.42839 5.70595 9.42202 5.72632 9.42202 5.74541C9.41948 5.77086 9.4093 5.7785 9.39275 5.78105C9.37238 5.78105 9.37748 5.78487 9.36093 5.77468C9.35075 5.7645 9.33802 5.75941 9.33802 5.74159C9.33802 5.7225 9.3342 5.69068 9.32911 5.67795C9.3202 5.66904 9.3062 5.66522 9.29092 5.66013C9.20564 5.66013 9.20183 5.75559 9.20564 5.7925C9.19928 5.79887 9.19546 5.9707 9.31002 6.01907C9.46275 6.09289 9.83187 6.04961 9.74278 5.8116C9.74278 5.78996 9.73641 5.71613 9.73514 5.69704C9.71859 5.65886 9.68932 5.64613 9.66131 5.64995L9.66259 5.65122ZM14.8366 5.86378H14.8239C14.8239 5.86378 14.1086 6.37291 14.092 6.39073C14.0207 6.45437 14.0564 6.67457 14.092 6.64911C14.1429 6.6682 14.8621 6.18071 14.8481 6.12344C14.8799 6.12598 14.8952 5.87269 14.8353 5.86251L14.8366 5.86378ZM10.3385 5.94015C10.3665 5.93633 10.4046 5.94651 10.4403 5.96561C10.495 5.9987 10.5294 6.04452 10.523 6.08016V6.08525C10.5205 6.08525 10.5205 6.08525 10.5205 6.0878V6.09034C10.5205 6.09034 10.5179 6.09034 10.5179 6.09289C10.5179 6.09543 10.5141 6.09798 10.5116 6.10053C10.4861 6.12598 10.4276 6.12089 10.3715 6.0878C10.3181 6.05852 10.2863 6.01143 10.2888 5.97833V5.97452L10.2952 5.96179C10.2952 5.96179 10.2952 5.95924 10.2977 5.95797L10.3041 5.95033C10.313 5.94397 10.3245 5.9376 10.3385 5.9376V5.94015ZM4.07872 6.06743C3.7096 6.07507 3.16611 6.55365 3.1521 6.8184L4.3231 6.25836C4.25946 6.16162 4.31928 6.07507 4.07872 6.06743ZM5.27899 6.2329C5.31463 6.23544 5.35281 6.25326 5.37318 6.30418C5.391 6.35127 5.37318 6.39964 5.35154 6.42382V6.42764C5.33372 6.44801 5.28026 6.44037 5.2408 6.44037C5.19371 6.43782 5.1708 6.43019 5.1428 6.392C5.12752 6.34745 5.16825 6.30545 5.18735 6.2749L5.19626 6.26217C5.20898 6.24945 5.23444 6.23926 5.2599 6.23672L5.27644 6.23417L5.27899 6.2329ZM14.6979 6.38182C14.6304 6.38946 14.568 6.45182 14.596 6.5511C14.5782 6.60965 14.6851 6.81458 14.7144 6.92277C14.7399 6.99914 14.6813 7.21934 14.7335 7.24097C14.7819 7.26643 14.9079 7.11369 14.9041 6.91768C14.9168 6.81585 14.8684 6.44673 14.7424 6.38564C14.7271 6.38182 14.7131 6.38055 14.6979 6.38182ZM6.69946 6.7433C6.64091 6.74712 6.58872 6.77767 6.61291 6.8604C6.60909 6.91895 6.77837 6.9915 6.78728 7.12769C6.81019 7.18624 6.7491 7.36953 6.80001 7.3848C6.84583 7.4039 6.90947 7.25752 6.93366 7.12515C6.94639 7.05132 6.87511 6.79421 6.75546 6.74712C6.73637 6.74203 6.71728 6.74076 6.69819 6.74203L6.69946 6.7433ZM9.09236 7.06914H9.10764C9.25783 7.10987 9.47676 7.11496 9.66768 7.13278C9.82424 7.14551 9.9006 7.26516 9.75678 7.31734C9.61167 7.36571 9.47294 7.40644 9.47294 7.61264C9.49076 7.71446 9.48567 7.76792 9.47039 7.79083C9.47039 7.79465 9.4653 7.79847 9.4653 7.79847C9.4653 7.79847 9.4653 7.80102 9.46275 7.80102V7.80356H9.45894L9.45003 7.80738H9.44366C9.4093 7.81374 9.35966 7.78192 9.32274 7.76156C9.23365 7.69792 8.98545 7.54518 8.94981 7.21424C8.94472 7.13788 9.00072 7.07423 9.08982 7.06787L9.09236 7.06914ZM3.24502 7.32371C3.23611 7.32371 3.21956 7.35171 3.19411 7.38353C2.97264 7.73356 2.95227 8.25669 3.07446 8.41452C3.1381 8.48707 3.24502 8.52016 3.32393 8.49725C3.46395 8.43743 3.52377 8.15613 3.4894 8.05431C3.44485 7.98176 3.40794 7.9703 3.36212 8.0314C3.26411 8.22868 3.22211 8.09249 3.21574 7.98048C3.20047 7.77301 3.22084 7.57954 3.24375 7.42681C3.25648 7.35044 3.25648 7.32116 3.24375 7.32116L3.24502 7.32371ZM10.7509 7.78447C10.7343 7.78447 10.7178 7.78701 10.6999 7.7972C10.6961 7.7972 10.5421 7.89902 10.4925 7.97285C10.4619 7.99576 10.467 8.01485 10.4746 8.05558C10.4976 8.11031 10.5383 8.09376 10.5867 8.06831C10.6503 8.05813 10.6796 8.10013 10.6758 8.17522C10.6465 8.27069 10.6885 8.30505 10.6885 8.31142C10.6885 8.31651 10.7483 8.36869 10.8196 8.32796C10.9685 8.27069 11.0614 8.21341 11.2714 8.16886C11.3262 8.16886 11.3223 8.02121 11.2358 8.01612C11.1212 8.02121 11.0194 8.02885 10.9049 8.11795C10.8349 8.13322 10.8234 8.08995 10.8069 8.05176C10.789 7.95757 10.8476 7.89139 10.8349 7.82011C10.8374 7.82393 10.7992 7.78956 10.7496 7.78701L10.7509 7.78447ZM15.557 7.96266L15.4552 7.97285C15.4094 7.98176 15.3941 8.00212 15.3852 8.05813C15.389 8.14086 15.4399 8.13704 15.4934 8.17013C15.5239 8.20832 15.5443 8.24396 15.4908 8.31014C15.4399 8.35469 15.4056 8.38015 15.3546 8.4247C15.333 8.46543 15.3165 8.52652 15.3903 8.54689C15.5239 8.58507 15.8332 8.38397 15.8332 8.38142C15.8841 8.34324 15.8663 8.27069 15.8625 8.27069C15.832 8.23759 15.7658 8.25796 15.7225 8.25159C15.7009 8.25159 15.6334 8.24141 15.6639 8.18032C15.6919 8.14213 15.7021 8.12049 15.7212 8.0734C15.7403 8.02758 15.7212 7.99703 15.6474 7.97157C15.6092 7.96394 15.5838 7.96139 15.5545 7.96266H15.557Z" fill="white"/>
<path d="M15.5155 10.447H15.3285L14.2068 10.447V10.1938C14.2068 10.0539 14.1231 9.94061 14.0198 9.94061C13.9165 9.94061 13.8328 10.0538 13.8328 10.1938V10.447L3.92355 10.447C4.29746 10.9533 5.04532 11.2066 5.60626 11.2066C6.00853 11.2066 11.0265 11.2066 13.8328 11.2066V11.7129C13.8328 11.8528 13.9165 11.9661 14.0198 11.9661H15.5155C15.8248 11.9661 16.0765 11.6254 16.0765 11.2065C16.0765 10.7876 15.8248 10.447 15.5155 10.447ZM15.5155 11.4597L14.2067 11.4597V11.2065C15.1078 11.2065 15.7024 11.2065 15.7024 11.2065L15.6689 11.0702C15.6883 11.1101 15.7024 11.1551 15.7024 11.2065C15.7024 11.3463 15.6186 11.4597 15.5155 11.4597Z" fill="white"/>
</svg>
