<svg width="18" height="23" viewBox="0 0 18 23" fill="none" xmlns="http://www.w3.org/2000/svg">
<path d="M5.5 15.0737C5.5 14.5214 5.94772 14.0737 6.5 14.0737H6.50897C7.06125 14.0737 7.50897 14.5214 7.50897 15.0737C7.50897 15.626 7.06125 16.0737 6.50897 16.0737H6.5C5.94772 16.0737 5.5 15.626 5.5 15.0737Z" fill="#067647"/>
<path d="M10.491 15.0737C10.491 14.5214 10.9387 14.0737 11.491 14.0737H11.5C12.0523 14.0737 12.5 14.5214 12.5 15.0737C12.5 15.626 12.0523 16.0737 11.5 16.0737H11.491C10.9387 16.0737 10.491 15.626 10.491 15.0737Z" fill="#067647"/>
<path fill-rule="evenodd" clip-rule="evenodd" d="M3.75 8.03282L3.75 6.07373C3.75 3.17424 6.1005 0.82373 9 0.82373C11.8995 0.82373 14.25 3.17424 14.25 6.07373V8.03282C15.9408 8.43658 17.239 9.87218 17.4755 11.6289C17.6236 12.7293 17.75 13.8856 17.75 15.0737C17.75 16.2619 17.6236 17.4182 17.4755 18.5186C17.2039 20.5356 15.5328 22.1292 13.4748 22.2238C12.0464 22.2895 10.5958 22.3237 9 22.3237C7.40416 22.3237 5.95364 22.2895 4.52522 22.2238C2.46716 22.1292 0.796088 20.5356 0.524518 18.5186C0.376363 17.4182 0.25 16.2619 0.25 15.0737C0.25 13.8856 0.376363 12.7293 0.524518 11.6289C0.761044 9.87218 2.05919 8.43658 3.75 8.03282ZM5.25 6.07373C5.25 4.00266 6.92893 2.32373 9 2.32373C11.0711 2.32373 12.75 4.00266 12.75 6.07373V7.8931C11.5532 7.84738 10.3269 7.82373 9 7.82373C7.67315 7.82373 6.44676 7.84738 5.25 7.8931L5.25 6.07373ZM9 9.32373C7.42645 9.32373 5.9989 9.35745 4.5941 9.42203C3.2851 9.48221 2.18929 10.5056 2.0111 11.8291C1.86573 12.9088 1.75 13.9866 1.75 15.0737C1.75 16.1608 1.86573 17.2387 2.0111 18.3184C2.18929 19.6419 3.2851 20.6653 4.5941 20.7254C5.9989 20.79 7.42645 20.8237 9 20.8237C10.5736 20.8237 12.0011 20.79 13.4059 20.7254C14.7149 20.6653 15.8107 19.6419 15.9889 18.3184C16.1343 17.2387 16.25 16.1608 16.25 15.0737C16.25 13.9866 16.1343 12.9088 15.9889 11.8291C15.8107 10.5056 14.7149 9.48221 13.4059 9.42203C12.0011 9.35745 10.5736 9.32373 9 9.32373Z" fill="#067647"/>
</svg>
